<svg width="394" height="280" viewBox="0 0 394 280" fill="none" xmlns="http://www.w3.org/2000/svg">
<path d="M24.4537 279.505C24.4537 279.505 -21.3784 230.295 16.6993 177.021C50.4873 129.751 89.8816 132.982 118.784 152.165C131.094 160.334 166.585 153.172 196.791 105.072C237.985 39.4796 380.78 79.2616 354.744 180.179C342.144 229.015 393.089 230.79 367.132 279.609L24.4537 279.505Z" fill="#EBF3FA"/>
<path d="M91.8262 279.073C91.8262 279.073 103.276 258.721 129.302 260.254C155.327 261.787 162.354 241.337 190.029 244.404C217.704 247.471 222.819 264.971 241.736 265.169C260.654 265.367 294.267 262.932 287.687 280L91.8262 279.073Z" fill="#A8D29F"/>
<path d="M131.629 85.7358L116.842 58.7568C116.842 58.7568 94.7849 65.2755 66.5207 80.7713C63.64 82.3486 60.8006 83.9819 58.0354 85.6368C37.4332 97.9449 20.875 111.349 20.875 111.349L35.6613 138.328C58.6046 180.193 104.681 200.363 121.054 190.517L125.361 188.156C126.797 187.349 128.122 186.358 129.301 185.207C144.361 170.763 152.788 124.346 131.629 85.7358ZM92.9799 113.817C97.4249 107.505 103.77 102.778 111.089 100.324C116.628 98.4696 120.823 98.5306 120.988 98.5339C121.486 98.5433 121.958 98.7498 122.303 99.108C122.648 99.4661 122.837 99.9466 122.827 100.444C122.818 100.941 122.611 101.414 122.253 101.759C121.895 102.103 121.415 102.292 120.917 102.282H120.878C120.442 102.282 116.804 102.34 112.133 103.932C105.554 106.168 100.136 110.227 96.0322 115.996C95.738 116.386 95.3033 116.646 94.8206 116.72C94.3378 116.795 93.8451 116.678 93.4472 116.395C93.0492 116.111 92.7774 115.684 92.6896 115.204C92.6017 114.723 92.7047 114.227 92.9767 113.822L92.9799 113.817ZM68.499 127.841C61.9176 130.076 56.4993 134.135 52.3961 139.905C52.1018 140.295 51.6671 140.554 51.1844 140.629C50.7017 140.703 50.209 140.586 49.811 140.303C49.4131 140.02 49.1412 139.593 49.0534 139.112C48.9655 138.632 49.0685 138.136 49.3405 137.73C53.7865 131.419 60.1315 126.692 67.4513 124.237C68.7806 123.795 70.1341 123.428 71.505 123.139C74.922 122.416 77.2252 122.449 77.3555 122.451C77.8451 122.471 78.3072 122.682 78.6431 123.039C78.979 123.396 79.162 123.87 79.153 124.36C79.1439 124.85 78.9436 125.316 78.5947 125.661C78.2459 126.005 77.7762 126.199 77.2862 126.201H77.2582C75.9739 126.227 74.6939 126.357 73.4305 126.589C71.7562 126.876 70.1073 127.296 68.499 127.842V127.841ZM94.5209 174.171C94.2379 174.361 93.9049 174.464 93.5639 174.465C93.2228 174.467 92.8889 174.368 92.6041 174.18C92.3192 173.993 92.0962 173.725 91.9628 173.411C91.8295 173.097 91.7919 172.751 91.8547 172.416C92.8876 166.73 94.8394 162.076 97.7283 158.572C99.3317 156.616 101.295 154.985 103.513 153.769C112.053 149.09 121.167 151.85 125.89 153.954C126.195 154.089 126.454 154.311 126.636 154.591C126.818 154.871 126.915 155.198 126.915 155.532C126.915 155.866 126.818 156.192 126.636 156.473C126.454 156.753 126.195 156.974 125.89 157.11C121.94 158.883 115.156 162.015 109.655 164.978C108.482 165.608 107.346 166.245 106.233 166.875C101.361 169.665 97.2037 172.36 94.5209 174.173V174.171Z" fill="#6BB7BF"/>
<path opacity="0.3" d="M129.301 185.207C128.122 186.358 126.797 187.349 125.361 188.156L121.054 190.517C104.681 200.353 58.6046 180.193 35.6613 138.327L20.875 111.349C20.875 111.349 37.4332 97.9449 58.0271 85.6367C60.6554 99.4215 65.4516 111.928 71.505 123.134C70.1339 123.424 68.7805 123.793 67.4513 124.237C60.1315 126.692 53.7865 131.419 49.3405 137.73C49.0685 138.136 48.9655 138.632 49.0534 139.112C49.1412 139.593 49.4131 140.02 49.811 140.303C50.209 140.586 50.7017 140.703 51.1844 140.629C51.6671 140.554 52.1018 140.295 52.3961 139.905C56.4993 134.13 61.9176 130.076 68.4989 127.841C70.1072 127.293 71.7561 126.872 73.4304 126.584C80.525 138.907 89.0697 149.578 97.7283 158.572C94.8394 162.076 92.8876 166.73 91.8547 172.416C91.7919 172.751 91.8295 173.097 91.9628 173.411C92.0961 173.725 92.3192 173.993 92.6041 174.18C92.8889 174.368 93.2228 174.467 93.5638 174.465C93.9049 174.464 94.2378 174.361 94.5209 174.171C97.2037 172.356 101.361 169.659 106.235 166.875C113.481 173.524 121.188 179.65 129.301 185.207V185.207Z" fill="#599DAD"/>
<path d="M314.839 118.354C312.006 116.694 309.145 115.097 306.306 113.569C285.166 102.226 265.159 94.9076 265.159 94.9076L249.611 121.451C225.478 162.645 231.853 212.533 248.705 221.526L252.943 224.001C254.373 224.821 255.904 225.448 257.497 225.867C277.626 231.368 321.778 214.75 344.034 176.76L359.584 150.217C359.584 150.217 342.658 134.648 314.839 118.354ZM255.131 134.605C255.171 134.11 255.405 133.651 255.783 133.328C256.161 133.005 256.652 132.846 257.147 132.885C264.846 133.457 272.161 136.472 278.028 141.49C279.093 142.403 280.105 143.375 281.059 144.403C283.435 146.965 284.588 148.958 284.652 149.068C284.9 149.5 284.966 150.011 284.836 150.491C284.706 150.971 284.391 151.38 283.96 151.627C283.528 151.875 283.016 151.941 282.537 151.811C282.057 151.681 281.648 151.366 281.401 150.934C280.954 150.208 280.461 149.51 279.927 148.846C279.68 148.531 279.401 148.186 279.089 147.826C277.978 146.539 276.769 145.34 275.473 144.241C270.175 139.743 263.91 137.181 256.85 136.623C256.355 136.584 255.895 136.349 255.572 135.971C255.25 135.592 255.09 135.101 255.129 134.605H255.131ZM286.555 199.995C278.099 203.175 270.653 203.13 264.567 199.573C263.39 198.884 262.285 198.08 261.267 197.172C255.525 192.048 253.762 184.671 253.226 180.279C253.186 179.948 253.243 179.612 253.389 179.312C253.536 179.012 253.767 178.762 254.053 178.59C254.339 178.418 254.669 178.333 255.003 178.345C255.336 178.357 255.659 178.465 255.933 178.656C258.045 180.129 261.086 182.218 264.334 184.343C266.545 185.787 268.85 187.248 271.024 188.545C277.202 192.224 283.088 195.125 286.688 196.805C286.998 196.949 287.257 197.182 287.434 197.474C287.611 197.766 287.698 198.103 287.684 198.444C287.67 198.786 287.555 199.115 287.354 199.391C287.153 199.667 286.875 199.877 286.555 199.995V199.995ZM326.895 176.782C326.463 177.027 325.952 177.092 325.473 176.962C324.994 176.833 324.585 176.518 324.337 176.089C323.892 175.361 323.4 174.662 322.864 173.998C321.535 172.319 320.043 170.777 318.409 169.393C313.11 164.897 306.845 162.335 299.785 161.776C299.503 161.754 299.23 161.668 298.987 161.525C298.62 161.311 298.337 160.978 298.185 160.582C298.032 160.186 298.018 159.75 298.145 159.345C298.272 158.94 298.533 158.59 298.885 158.353C299.237 158.116 299.659 158.005 300.082 158.039C307.781 158.61 315.096 161.625 320.962 166.645C325.398 170.439 327.5 174.069 327.586 174.223C327.833 174.654 327.899 175.165 327.77 175.645C327.64 176.125 327.325 176.534 326.895 176.782V176.782Z" fill="#F99746"/>
<path d="M255.676 28.0526C254.758 27.5147 253.831 26.9983 252.91 26.5033C248.598 24.2102 244.146 22.1912 239.579 20.4581L234.541 29.0573C226.722 42.4033 228.787 58.5672 234.249 61.4809L235.621 62.286C236.084 62.5511 236.58 62.7542 237.096 62.8899C243.618 64.6718 257.924 59.2882 265.134 46.98L270.173 38.3792C270.173 38.3792 264.689 33.3322 255.676 28.0526ZM236.331 33.319C236.337 33.2389 236.359 33.1608 236.396 33.0892C236.432 33.0177 236.483 32.9541 236.544 32.9023C236.606 32.8504 236.677 32.8112 236.753 32.787C236.83 32.7628 236.911 32.7541 236.991 32.7613C239.485 32.9458 241.855 33.9228 243.755 35.5496C244.103 35.845 244.433 36.1601 244.745 36.4934C245.185 36.9552 245.575 37.4617 245.91 38.0047C245.95 38.0739 245.975 38.1502 245.985 38.2294C245.995 38.3085 245.99 38.3889 245.969 38.4658C245.948 38.5428 245.912 38.6149 245.863 38.6781C245.815 38.7412 245.754 38.7941 245.685 38.8337C245.615 38.8734 245.539 38.899 245.46 38.9092C245.381 38.9193 245.3 38.9137 245.224 38.8928C245.147 38.8719 245.074 38.836 245.011 38.7873C244.948 38.7385 244.895 38.6777 244.856 38.6085C244.71 38.3737 244.551 38.1478 244.379 37.9321C244.3 37.8298 244.214 37.7192 244.107 37.6021C243.747 37.1876 243.356 36.8015 242.937 36.4472C241.243 34.9963 239.128 34.1287 236.903 33.9723C236.812 33.9651 236.723 33.9375 236.644 33.8915C236.543 33.8358 236.459 33.7524 236.404 33.651C236.348 33.5495 236.323 33.4344 236.331 33.319V33.319ZM246.512 54.5035C244.796 56.8761 240.444 55.8135 238.548 54.5382C235.349 52.3834 234.503 49.1414 235.714 48.1168C240.117 44.3947 248.329 51.9891 246.512 54.5035ZM259.581 46.9833C259.442 47.0623 259.277 47.083 259.122 47.041C258.968 46.9989 258.836 46.8976 258.756 46.759C258.611 46.5234 258.452 46.2969 258.279 46.0809C257.848 45.54 257.365 45.0426 256.837 44.596C255.142 43.1457 253.027 42.2781 250.802 42.1211C250.711 42.1144 250.623 42.0867 250.544 42.0403C250.425 41.9711 250.333 41.8634 250.283 41.7349C250.233 41.6065 250.229 41.4649 250.27 41.3334C250.311 41.2019 250.396 41.0884 250.51 41.0115C250.625 40.9345 250.762 40.8988 250.899 40.9101C253.393 41.0969 255.763 42.0736 257.664 43.6984C258.504 44.3989 259.228 45.2281 259.809 46.1551C259.848 46.2244 259.874 46.3008 259.884 46.38C259.894 46.4592 259.888 46.5396 259.867 46.6166C259.846 46.6936 259.81 46.7656 259.761 46.8285C259.711 46.8915 259.65 46.9441 259.581 46.9833V46.9833Z" fill="#EBF3FA"/>
<path d="M191.145 136.203C189.506 161.354 187.743 193.102 189.216 197.397C191.145 203.017 188.332 266.895 188.332 266.895L180.02 266.389C180.02 266.389 168.823 210.72 170.044 202.472C170.552 198.935 170.705 195.355 170.501 191.787C170.429 190.295 170.277 188.808 170.044 187.333C162.465 161.802 160.097 142.25 159.624 129.077C159.15 115.904 160.577 109.102 160.577 109.102L193.36 104.718C193.36 104.718 192.273 118.902 191.145 136.203Z" fill="#FFB27D"/>
<path d="M205.09 103.69C205.09 103.69 214.178 134.67 204.344 187.03C203.646 190.753 203.444 193.976 205.046 202.158C206.648 210.34 198.042 266.467 198.042 266.467H190.009C190.009 266.467 188.116 208.86 185.659 197.967C182.102 182.2 177.229 105.574 177.229 105.574L205.09 103.69Z" fill="#FFB27D"/>
<path d="M191.144 136.202C189.506 161.353 187.787 193.087 189.215 197.397C191.631 204.673 188.331 266.895 188.331 266.895L187.711 266.388C188.438 236.893 188.103 195.857 182.035 180.659C181.88 177.916 172.281 164.876 172.281 164.876C164.701 139.345 160.097 142.248 159.623 129.073H191.136L191.144 136.202Z" fill="#ED985F"/>
<path d="M183.254 0.469831C183.254 0.469831 180.538 -1.01507 175.219 1.29477C169.9 3.60461 154.722 19.4534 154.9 24.0632C155.079 28.673 160.576 32.5766 158.979 36.6551C157.382 40.7336 152.469 43.0154 154.899 47.6731C159.518 56.5428 150.218 53.5186 156.404 65.4225C158.081 68.6513 210.964 63.1358 212.848 60.8177C218.185 54.2479 208.814 49.0078 209.258 44.4277C209.701 39.8476 202.463 34.8699 203.704 31.1412C204.945 27.4125 211.163 23.1475 197.02 6.50511C197.02 6.50511 190.513 -1.56283 183.254 0.469831Z" fill="#2C3A64"/>
<path d="M177.099 31.141C177.099 31.141 177.341 41.2647 174.669 42.479C173.028 43.2164 171.277 43.6812 169.486 43.855C169.486 43.855 184.791 52.4344 197.02 43.855C197.02 43.855 192.161 42.8024 191.27 41.1838C190.379 39.5653 190.46 31.141 190.46 31.141H177.099Z" fill="#FFB27D"/>
<path d="M177.041 34.3071C177.041 34.3071 179.74 40.4282 184.103 40.6427C188.465 40.8572 190.514 35.0446 190.514 35.0446L177.041 34.3071Z" fill="#ED985F"/>
<path d="M183.679 38.2933C179.975 38.2933 172.484 32.3537 172.484 26.1947V18.6811C172.492 15.714 173.673 12.8704 175.771 10.7718C177.869 8.67329 180.712 7.4904 183.679 7.48169V7.48169C186.646 7.49039 189.488 8.67278 191.586 10.7706C193.684 12.8684 194.866 15.7111 194.875 18.6778V26.1914C194.875 32.3521 187.784 38.2933 183.679 38.2933Z" fill="#FFB27D"/>
<path d="M165.581 44.1093C165.581 44.1093 186.911 41.4695 203.936 44.4195C203.936 44.4195 205.195 65.444 202.34 87.5458C201.893 91.0106 209.257 109.093 209.257 109.093C207.745 111.802 172.28 118.937 160.575 109.093C160.575 109.093 159.688 109.963 167.846 88.9647C170.13 83.0911 156.337 45.482 165.581 44.1093Z" fill="#FFB27D"/>
<path d="M225.481 164.432C220.88 167.102 215.998 169.253 210.924 170.845C186.639 178.552 162.699 173.211 162.699 173.211C162.699 173.211 159.619 167.89 158.177 140.304C156.735 112.718 170.148 54.0335 170.148 54.0335L204.154 50.7437C204.154 50.7437 208.322 66.9917 206.858 75.581C205.395 84.1703 204.063 89.9499 205.662 94.3765C217.502 127.189 225.481 164.432 225.481 164.432Z" fill="#F99746"/>
<path d="M191.144 279.502H176.777C175.848 276.461 177.046 273.892 178.108 272.379C179.171 270.866 180.101 266.733 180.101 266.733C182.873 264.588 186.394 265.413 187.79 265.874C188.177 266.004 188.4 266.103 188.4 266.103C188.446 266.21 189.953 269.682 190.477 272.373C190.908 274.592 191.078 277.895 191.127 279.066C191.139 279.345 191.144 279.502 191.144 279.502Z" fill="#2C3A64"/>
<path d="M221.228 78.582C221.228 78.582 217.537 82.8321 212.226 85.5115C209.306 86.9882 205.895 87.9864 202.34 87.5475C192.32 86.3068 163.414 86.3068 163.414 86.3068C163.414 86.3068 161.703 85.8844 159.438 85.071C155.3 83.5861 149.316 80.8044 148.516 76.9074C148.629 76.5774 159.405 46.1486 163.53 44.2397C167.654 42.3307 170.954 43.5945 170.954 43.5945C170.954 43.5945 182.378 48.1548 195.25 43.3768C195.25 43.3768 204.765 42.8191 207.525 46.957C210.286 51.0949 221.097 78.257 221.22 78.5754L221.228 78.582Z" fill="#F99746"/>
<path d="M225.481 164.432C220.881 167.102 215.999 169.252 210.924 170.845C198.733 147.209 205.663 94.3762 205.663 94.3762C217.502 127.189 225.481 164.432 225.481 164.432Z" fill="#ED7D2B"/>
<path d="M189.915 226.326L188.4 266.105L188.343 267.606L187.73 267.54L180.1 266.732L171.822 226.324C171.822 226.324 176.8 223.071 183.154 223.861C185.563 224.169 187.873 225.011 189.915 226.326V226.326Z" fill="#2C3A64"/>
<path d="M206.21 226.324C206.21 226.324 197.3 220.505 188.115 226.324L189.689 267.606L197.939 266.733L206.21 226.324Z" fill="#2C3A64"/>
<path d="M184.79 40.6724C184.008 40.651 183.228 40.6444 182.461 40.6526C178.872 40.7024 175.29 40.978 171.736 41.4775L171.532 48.7948C171.213 60.1609 178.262 69.8457 182.811 69.7929L183.98 69.8259C184.373 69.8329 184.764 69.7879 185.145 69.6922C189.978 68.5373 197.292 60.0058 197.585 49.524L197.79 42.2002C197.79 42.2002 192.466 40.8869 184.79 40.6724ZM174.187 50.9017C174.138 50.7938 174.134 50.6711 174.176 50.5603C174.218 50.4496 174.302 50.36 174.409 50.311C176.083 49.5485 177.956 49.3398 179.757 49.7154C180.083 49.7834 180.405 49.8705 180.722 49.9761C181.169 50.1177 181.6 50.3063 182.007 50.5387C182.06 50.5676 182.107 50.607 182.145 50.6546C182.183 50.7022 182.21 50.757 182.226 50.8156C182.242 50.8741 182.245 50.9353 182.237 50.9954C182.228 51.0555 182.208 51.1131 182.176 51.1649C182.144 51.2167 182.102 51.2615 182.053 51.2966C182.004 51.3317 181.947 51.3564 181.888 51.3691C181.829 51.3819 181.767 51.3824 181.708 51.3707C181.648 51.3589 181.592 51.3352 181.542 51.301C181.366 51.1995 181.184 51.1102 180.996 51.0337C180.907 50.9957 180.809 50.9561 180.704 50.9165C180.324 50.7763 179.934 50.666 179.537 50.5866C177.933 50.2529 176.264 50.4438 174.777 51.131C174.715 51.158 174.648 51.171 174.581 51.169C174.497 51.1669 174.416 51.1414 174.346 51.0953C174.277 51.0492 174.221 50.9844 174.187 50.9083V50.9017ZM188.24 60.9528C186.84 62.5862 185.28 63.4276 183.601 63.3847C183.276 63.3756 182.954 63.3342 182.637 63.261C180.852 62.8485 179.638 61.5105 179.022 60.6558C178.976 60.5911 178.95 60.5144 178.946 60.4349C178.942 60.3555 178.962 60.2766 179.002 60.2079C179.042 60.1392 179.101 60.0836 179.172 60.0477C179.243 60.0119 179.323 59.9973 179.402 60.0058C180.012 60.0718 180.887 60.1592 181.807 60.2302C182.434 60.2797 183.084 60.3192 183.687 60.3407C185.398 60.4017 186.958 60.3407 187.904 60.2714C187.986 60.2653 188.068 60.2839 188.14 60.3249C188.211 60.3659 188.269 60.4274 188.305 60.5015C188.341 60.5755 188.354 60.6587 188.343 60.7403C188.331 60.822 188.296 60.8983 188.24 60.9594V60.9528ZM194.002 51.4825C193.971 51.5326 193.931 51.5762 193.884 51.6108C193.837 51.6454 193.783 51.6703 193.727 51.6841C193.67 51.6979 193.611 51.7003 193.553 51.6912C193.495 51.6821 193.439 51.6616 193.39 51.6309C193.213 51.531 193.03 51.4417 192.842 51.3637C191.855 50.9483 190.793 50.742 189.723 50.7579C188.653 50.7739 187.597 51.0116 186.623 51.4561C186.563 51.4843 186.496 51.4979 186.429 51.4957C186.328 51.4924 186.231 51.4549 186.154 51.3894C186.077 51.3239 186.025 51.2342 186.006 51.135C185.987 51.0359 186.002 50.9331 186.049 50.8437C186.095 50.7542 186.171 50.6833 186.264 50.6427C187.937 49.8797 189.809 49.6704 191.609 50.0454C192.399 50.2011 193.158 50.4795 193.861 50.8704C193.911 50.9016 193.955 50.9425 193.989 50.9906C194.023 51.0387 194.047 51.093 194.06 51.1505C194.073 51.208 194.075 51.2675 194.065 51.3256C194.055 51.3837 194.033 51.4393 194.002 51.4891V51.4825Z" fill="#EBF3FA"/>
<path d="M182.46 40.6527C181.403 43.6542 180.817 46.8007 180.721 49.9812V49.9812C180.404 49.8755 180.082 49.7885 179.755 49.7205C177.955 49.3449 176.082 49.5535 174.408 50.3161C174.317 50.3579 174.243 50.429 174.197 50.5181C174.151 50.6072 174.137 50.709 174.156 50.8074C174.175 50.9057 174.226 50.9948 174.302 51.0604C174.378 51.126 174.473 51.1643 174.573 51.1691C174.641 51.1711 174.708 51.1581 174.769 51.1311C176.257 50.4439 177.925 50.253 179.529 50.5867C179.926 50.6661 180.316 50.7764 180.696 50.9167C180.689 54.0542 181.06 57.1811 181.8 60.2303C180.879 60.1593 180.005 60.0653 179.394 60.0059C179.315 59.9974 179.235 60.012 179.164 60.0478C179.093 60.0837 179.034 60.1393 178.994 60.208C178.954 60.2767 178.934 60.3556 178.938 60.435C178.942 60.5145 178.968 60.5912 179.015 60.6559C179.63 61.5106 180.844 62.8486 182.629 63.2611C183.313 65.4582 184.15 67.605 185.132 69.6857C184.752 69.7814 184.36 69.8264 183.968 69.8194L182.798 69.7864C178.256 69.8474 171.201 60.161 171.531 48.7949L171.735 41.4711C175.289 40.9737 178.871 40.7003 182.46 40.6527V40.6527Z" fill="#D0DFEA"/>
<path d="M201.45 60.0109C201.45 60.0109 200.075 55.9587 200.658 53.5664C201.24 51.1741 198.056 44.7115 197.708 44.8385C197.359 44.9656 197.351 52.4643 197.018 54.3105C196.736 55.868 195.809 57.3809 197.018 60.816L201.45 60.0109Z" fill="#FFB27D"/>
<path d="M167.451 60.0109C167.451 60.0109 168.826 55.9587 168.243 53.5664C167.661 51.1741 170.845 44.7115 171.193 44.8385C171.541 44.9656 171.549 52.4643 171.883 54.3105C172.163 55.868 173.092 57.3809 171.883 60.816L167.451 60.0109Z" fill="#FFB27D"/>
<path d="M159.438 85.0744C155.3 83.5895 149.316 80.8078 148.516 76.9108C148.752 76.7342 163.888 65.4573 167.45 65.4243C170.019 65.3929 163.407 77.932 159.438 85.0744Z" fill="#ED7D2B"/>
<path d="M171.882 60.816C171.882 60.816 166.296 93.2297 161.683 95.8249C157.07 98.4202 154.073 98.7337 154.073 98.7337C154.073 98.7337 147.545 89.8095 152.697 82.6473C157.85 75.4851 167.451 60.0109 167.451 60.0109L171.882 60.816Z" fill="#FFB27D"/>
<path d="M221.227 78.5822C221.227 78.5822 217.537 82.8323 212.226 85.5117C207.771 79.2917 201.932 67.0462 204.28 67.1419C207.487 67.269 221.014 78.4024 221.226 78.5773L221.227 78.5822Z" fill="#ED7D2B"/>
<path d="M197.02 60.816C197.02 60.816 202.604 93.2297 207.219 95.8249C211.834 98.4202 214.828 98.7337 214.828 98.7337C214.828 98.7337 221.357 89.8095 216.204 82.6473C211.052 75.4851 201.451 60.0109 201.451 60.0109L197.02 60.816Z" fill="#FFB27D"/>
<path d="M178.677 10.0542C178.677 10.0542 181.133 16.9722 186.565 20.5937C191.996 24.2152 194.067 24.0205 194.067 24.0205C194.067 24.0205 191.884 20.658 191.778 18.3944C191.778 18.3944 193.935 25.7694 198.46 24.0221C202.986 22.2749 193.016 4.78448 184.649 5.85196C176.283 6.91943 178.677 10.0542 178.677 10.0542Z" fill="#2C3A64"/>
<path d="M182.168 12.1229C182.168 12.1229 173.181 16.3252 172.488 22.2417C172.488 22.2417 166.975 18.4601 170.758 10.5077C173.089 5.60424 180.881 4.78424 182.221 6.91919C183.561 9.05415 182.168 12.1229 182.168 12.1229Z" fill="#2C3A64"/>
<path d="M191.127 279.073H183.142C181.896 276.111 186.607 273.343 187.461 269.88C187.618 269.109 187.708 268.327 187.73 267.542C187.757 267.047 187.777 266.481 187.788 265.874C187.912 259.619 187.324 248.283 187.458 238.92C187.623 227.154 183.388 224.026 183.155 223.863C185.565 224.17 187.876 225.011 189.92 226.326L188.405 266.105C188.451 266.212 189.958 269.683 190.482 272.374C190.908 274.598 191.078 277.898 191.127 279.073Z" fill="#202D4C"/>
<path d="M189.68 266.365C189.68 266.365 188.649 270.86 187.585 272.379C186.521 273.899 185.323 276.461 186.255 279.502H200.619C200.619 279.502 200.487 275.116 199.959 272.379C199.431 269.642 198.055 266.468 198.055 266.468C198.055 266.468 193.211 263.617 189.68 266.365Z" fill="#2C3A64"/>
<path d="M341.931 278.956H322.613C321.578 278.078 323.331 276.083 325.16 275.95C325.956 275.889 326.96 276.055 328.109 276.298C328.374 272.767 329.892 256.895 335.614 257.532C342.049 258.246 335.614 264.522 333.799 268.238C332.451 270.99 331.031 274.937 330.381 276.799C330.904 276.913 331.445 277.024 331.996 277.129C332.849 274.511 336.022 265.704 340.057 266.217C344.794 266.817 342.89 270.342 339.533 272.445C337.069 273.986 334.043 276.177 332.603 277.23C333.85 277.448 335.115 277.549 336.381 277.534C339.691 277.456 341.304 278.431 341.931 278.956Z" fill="#A8D29F"/>
<path d="M49.5023 278.063C48.5124 276.5 45.5113 272.442 41.5218 272.98C37.176 273.564 46.323 276.429 49.1229 278.074C48.6 278.102 48.0762 278.041 47.5736 277.895C45.701 277.235 42.4953 278.507 41.469 278.955H59.2878C59.0847 278.271 58.6295 277.688 58.0141 277.325C57.7204 277.147 57.1331 277.121 56.3741 277.18C57.4333 275.93 58.1692 271.939 55.2192 272.966C53.0644 273.717 53.0743 276.156 53.2806 277.598C52.8219 277.67 52.3583 277.741 51.898 277.809C51.0103 273.285 47.8723 260.031 41.5037 259.678C35.0559 259.32 46.9731 273.423 50.941 277.934C50.4444 277.995 49.9544 278.041 49.5023 278.063Z" fill="#A8D29F"/>
<path d="M158.076 258.569C158.076 258.569 148.206 214.602 137.98 217.67C127.754 220.739 158.076 258.569 158.076 258.569Z" fill="#A8D29F"/>
<path d="M152.822 258.57C152.822 258.57 138.508 239.068 133.139 242.391C127.77 245.714 152.822 258.57 152.822 258.57Z" fill="#A8D29F"/>
<path d="M238.195 267.608C238.451 267.697 238.962 242.054 244.33 245.664C249.697 249.274 238.195 267.608 238.195 267.608Z" fill="#A8D29F"/>
<path d="M236.337 266.476C236.337 266.476 235.144 251.823 231.907 252.617C228.669 253.411 236.337 266.476 236.337 266.476Z" fill="#A8D29F"/>
<path d="M241.736 266.552C241.736 266.552 248.578 255.574 250.283 257.849C251.987 260.124 241.736 266.552 241.736 266.552Z" fill="#A8D29F"/>
<path d="M0.511877 278.956H393.495C393.613 278.956 393.726 279.003 393.81 279.086C393.893 279.17 393.94 279.283 393.94 279.401V279.553C393.94 279.671 393.893 279.785 393.81 279.868C393.726 279.952 393.613 279.999 393.495 279.999H0.513524C0.39494 279.999 0.281214 279.951 0.197363 279.868C0.113512 279.784 0.0664063 279.67 0.0664062 279.551V279.4C0.0664063 279.282 0.113338 279.168 0.19688 279.085C0.280421 279.001 0.393732 278.954 0.511877 278.954V278.956Z" fill="#2E3552"/>
</svg>
