<svg width="413" height="332" viewBox="0 0 413 332" fill="none" xmlns="http://www.w3.org/2000/svg">
<path d="M88.837 23.3629C88.837 23.3629 171.783 -17.6288 237.945 8.983C292.847 31.1185 271.383 59.5176 319.812 58.0337C368.241 56.5498 416.078 114.242 391.782 188.338C379.144 226.87 437.599 258.844 400.47 301.885C354.361 355.371 259.645 310.347 106.327 329.023C25.5465 338.861 -32.9332 261.312 22.4884 198.537C63.3408 152.257 36.9441 142.296 36.571 99.337C36.1897 53.8608 88.837 23.3629 88.837 23.3629Z" fill="#F1F9FF"/>
<path d="M202.268 267.701L160.876 284.324L109.637 156.736L144.626 142.688C145.468 142.349 146.368 142.18 147.275 142.189C148.182 142.199 149.078 142.387 149.912 142.743C150.746 143.099 151.502 143.617 152.136 144.265C152.77 144.914 153.27 145.681 153.607 146.523L202.268 267.701Z" fill="#F4A640"/>
<path d="M207.149 262.966L127.895 277.012L108.146 165.579L187.4 151.533L207.149 262.966Z" fill="#ADCFD8"/>
<path d="M167.516 167.284L132.125 173.556L131.984 172.761L167.376 166.489L167.516 167.284Z" fill="#55769F"/>
<path d="M174.595 163.95L124.334 172.857L124.193 172.063L174.455 163.155L174.595 163.95Z" fill="#55769F"/>
<path d="M181.79 173.359L120.811 184.167L120.67 183.372L181.649 172.565L181.79 173.359Z" fill="#55769F"/>
<path d="M182.47 177.179L121.49 187.986L121.349 187.192L182.329 176.384L182.47 177.179Z" fill="#55769F"/>
<path d="M183.825 184.823L122.846 195.63L122.705 194.836L183.684 184.029L183.825 184.823Z" fill="#55769F"/>
<path d="M184.207 190.984L123.516 201.513L123.378 200.722L184.07 190.194L184.207 190.984Z" fill="#55769F"/>
<path d="M185.175 192.466L124.195 203.273L124.055 202.479L185.034 191.671L185.175 192.466Z" fill="#55769F"/>
<path d="M188.155 209.275L127.176 220.082L127.035 219.288L188.015 208.48L188.155 209.275Z" fill="#55769F"/>
<path d="M188.862 213.235L127.883 224.042L127.742 223.248L188.722 212.441L188.862 213.235Z" fill="#55769F"/>
<path d="M189.565 217.199L128.586 228.006L128.445 227.212L189.425 216.405L189.565 217.199Z" fill="#55769F"/>
<path d="M190.267 221.162L129.287 231.969L129.146 231.174L190.126 220.367L190.267 221.162Z" fill="#55769F"/>
<path d="M190.968 225.126L129.988 235.933L129.847 235.139L190.827 224.331L190.968 225.126Z" fill="#55769F"/>
<path d="M191.673 229.088L130.693 239.895L130.553 239.101L191.532 228.294L191.673 229.088Z" fill="#55769F"/>
<path d="M192.374 233.051L131.395 243.858L131.254 243.064L192.233 232.256L192.374 233.051Z" fill="#55769F"/>
<path d="M204.78 258.199L126.939 278.678L98.1455 169.234L175.986 148.755L204.78 258.199Z" fill="#DAEEF7"/>
<path d="M157.457 166.079L122.697 175.224L122.492 174.444L157.252 165.299L157.457 166.079Z" fill="#55769F"/>
<path d="M164.238 162.178L114.871 175.166L114.666 174.385L164.033 161.397L164.238 162.178Z" fill="#55769F"/>
<path d="M172.181 170.966L112.289 186.723L112.084 185.943L171.976 170.186L172.181 170.966Z" fill="#55769F"/>
<path d="M173.169 174.721L113.277 190.478L113.072 189.698L172.964 173.941L173.169 174.721Z" fill="#55769F"/>
<path d="M175.148 182.225L115.256 197.982L115.051 197.202L174.942 181.445L175.148 182.225Z" fill="#55769F"/>
<path d="M176.13 185.98L116.238 201.737L116.033 200.957L175.925 185.2L176.13 185.98Z" fill="#55769F"/>
<path d="M177.118 189.732L117.227 205.489L117.021 204.709L176.913 188.952L177.118 189.732Z" fill="#55769F"/>
<path d="M181.466 206.242L121.574 221.999L121.369 221.219L181.261 205.462L181.466 206.242Z" fill="#55769F"/>
<path d="M182.489 210.13L122.598 225.887L122.392 225.107L182.284 209.35L182.489 210.13Z" fill="#55769F"/>
<path d="M183.513 214.023L123.621 229.78L123.416 229L183.308 213.243L183.513 214.023Z" fill="#55769F"/>
<path d="M184.538 217.916L124.646 233.673L124.441 232.893L184.333 217.136L184.538 217.916Z" fill="#55769F"/>
<path d="M185.564 221.807L125.672 237.563L125.467 236.783L185.358 221.026L185.564 221.807Z" fill="#55769F"/>
<path d="M186.589 225.701L126.697 241.458L126.492 240.678L186.384 224.921L186.589 225.701Z" fill="#55769F"/>
<path d="M187.612 229.592L127.721 245.349L127.515 244.569L187.407 228.812L187.612 229.592Z" fill="#55769F"/>
<path d="M186.562 274.009L103.236 307.475L54.6313 186.461L124.653 143.257C125.577 142.686 126.616 142.324 127.695 142.196C128.775 142.068 129.869 142.178 130.902 142.518C131.934 142.857 132.88 143.419 133.672 144.163C134.465 144.907 135.085 145.815 135.49 146.824L186.562 274.009Z" fill="#FEB546"/>
<path d="M86.2637 261.307L71.1661 256.892C68.507 245.904 66.9115 236.546 66.9115 236.546C85.1278 237.281 99.1478 242.856 109.931 250.783L112.162 268.718L116.979 256.677C142.436 280.96 145.416 318.434 145.416 318.434C145.416 318.434 94.1748 298.386 84.4073 290.124C80.6364 286.935 77.1686 278.217 74.3329 268.716C79.4323 265.981 86.2637 261.307 86.2637 261.307Z" fill="#FF5B7E"/>
<path d="M66.9095 236.539C66.9095 236.539 126.875 283.569 145.416 318.445C145.416 318.445 94.1748 298.396 84.4074 290.134C80.6365 286.945 77.1686 278.227 74.3329 268.727C79.4303 265.981 86.2617 261.301 86.2617 261.301L71.1641 256.886C68.515 245.897 66.9095 236.539 66.9095 236.539Z" fill="#E03268"/>
<path d="M56.6154 282.704C67.2518 279.642 77.274 279.184 86.5056 280.435C88.2295 284.394 90.3909 289.088 90.3909 289.088L92.7991 281.571C127.401 289.357 149.461 319.998 149.461 319.998C126.256 327.062 108.431 325.886 94.9023 321.001C94.812 318.114 94.7378 313.825 94.7378 313.825L90.6217 319.272C84.7832 316.644 79.3875 313.127 74.627 308.846C76.7884 306.036 79.1424 302.775 79.1424 302.775L70.6333 304.947C60.3622 294.015 56.6154 282.704 56.6154 282.704Z" fill="#FF5B7E"/>
<path d="M94.9141 320.991C94.8237 318.103 94.7495 313.815 94.7495 313.815L90.6334 319.261C84.7949 316.634 79.3993 313.117 74.6387 308.836C76.8001 306.026 79.1541 302.765 79.1541 302.765L70.645 304.936C60.3639 294.015 56.6171 282.704 56.6171 282.704C97.6956 288.988 149.473 319.998 149.473 319.998C126.267 327.062 108.442 325.886 94.9141 320.991Z" fill="#E03268"/>
<path d="M318.412 190.923H324.111C323.117 190.251 321.943 189.896 320.744 189.903H177.984C170.516 189.903 164.461 195.27 164.461 201.89V209.516C164.461 216.139 170.516 221.503 177.984 221.503L319.146 221.461L318.412 190.923Z" fill="#E03268"/>
<path d="M176.435 209.516V201.89C176.435 195.267 182.489 189.903 189.959 189.903H186.892C179.423 189.903 173.368 195.269 173.368 201.89V209.516C173.368 216.139 179.423 221.503 186.892 221.503H189.917C182.467 221.473 176.435 216.115 176.435 209.516Z" fill="#FEB546"/>
<path d="M209.872 209.516V201.89C209.872 195.267 215.927 189.903 223.396 189.903H220.33C212.86 189.903 206.806 195.269 206.806 201.89V209.516C206.806 216.139 212.86 221.503 220.33 221.503H223.354C215.905 221.473 209.872 216.115 209.872 209.516Z" fill="#FEB546"/>
<path d="M237.364 189.931C230.222 189.931 224.432 195.065 224.432 201.396V210.002C224.432 216.331 230.222 221.465 237.364 221.465H326.236V219.55H325.869L303.276 217.654L298.702 201.764C298.702 201.764 307.516 192.988 308.09 192.761C308.664 192.534 325.863 191.85 325.863 191.85H326.23V189.935L237.364 189.931Z" fill="#FF5B7E"/>
<path d="M320.472 205.641C320.472 196.357 325.891 191.856 325.891 191.856H239.194C232.634 191.856 227.315 196.57 227.315 202.386V209.008C227.315 214.828 232.634 219.539 239.194 219.539H325.891C325.891 219.539 320.472 217.343 320.472 205.641Z" fill="#DAEEF7"/>
<g style="mix-blend-mode:multiply">
<path d="M227.304 202.386V209.008C227.304 209.862 227.42 210.711 227.649 211.533C230.573 205.191 236.178 199.091 246.846 197.12C271.754 192.536 325.883 191.856 325.883 191.856H239.186C232.622 191.856 227.304 196.57 227.304 202.386Z" fill="#DAEEF7"/>
</g>
<path d="M316.064 254.068H322.514C321.416 253.238 320.077 252.789 318.701 252.792H157.126C148.673 252.792 141.82 259.511 141.82 267.797V277.33C141.82 285.616 148.673 292.335 157.126 292.335L316.894 292.281L316.064 254.068Z" fill="#07085B"/>
<path d="M224.332 252.824C216.248 252.824 209.694 259.246 209.694 267.176V277.95C209.694 285.875 216.248 292.299 224.332 292.299H324.916V289.891H324.501L298.929 287.517L293.761 267.639C293.761 267.639 303.738 256.656 304.388 256.373C305.038 256.09 324.501 255.229 324.501 255.229H324.916V252.824H224.332Z" fill="#55769F"/>
<path d="M318.393 272.489C318.393 260.868 324.518 255.23 324.518 255.23H226.382C218.957 255.23 212.936 261.131 212.936 268.41V276.702C212.936 283.981 218.957 289.883 226.382 289.883H324.518C324.518 289.883 318.393 287.124 318.393 272.489Z" fill="#DAEEF7"/>
<g style="mix-blend-mode:multiply">
<path d="M212.946 268.414V276.706C212.946 277.772 213.077 278.833 213.337 279.867C216.647 271.93 222.99 264.284 235.066 261.825C263.256 256.084 324.518 255.235 324.518 255.235H226.382C218.965 255.235 212.946 261.135 212.946 268.414Z" fill="#DAEEF7"/>
</g>
<path d="M136.493 222.424H130.04C131.198 221.753 132.515 221.407 133.854 221.421H295.49C303.947 221.421 310.803 226.751 310.803 233.328V240.89C310.803 247.466 303.947 252.796 295.49 252.796L135.66 252.756L136.493 222.424Z" fill="#02CCC0"/>
<path d="M228.262 221.441C236.348 221.441 242.912 226.538 242.912 232.828V241.375C242.912 247.663 236.356 252.76 228.262 252.76H127.638V250.858H128.053L153.633 248.973L158.802 233.197C158.802 233.197 148.822 224.481 148.166 224.257C147.51 224.032 128.045 223.35 128.045 223.35H127.63V221.447L228.262 221.441Z" fill="#06BFAD"/>
<path d="M134.164 237.044C134.164 227.813 128.035 223.354 128.035 223.354H226.2C233.626 223.354 239.646 228.036 239.646 233.811V240.39C239.646 246.168 233.626 250.85 226.2 250.85H128.035C128.035 250.85 134.164 248.65 134.164 237.044Z" fill="#DAEEF7"/>
<g style="mix-blend-mode:multiply">
<path d="M239.648 233.811V240.39C239.645 241.242 239.509 242.088 239.247 242.898C235.938 236.601 229.592 230.532 217.513 228.581C189.31 224.028 128.025 223.364 128.025 223.364H226.198C233.626 223.364 239.648 228.036 239.648 233.811Z" fill="#DAEEF7"/>
</g>
<path opacity="0.5" d="M281.192 240.882V233.32C281.192 226.743 274.337 221.413 265.88 221.413H281.231C289.686 221.413 296.543 226.743 296.543 233.32V240.882C296.543 247.458 289.686 252.79 281.231 252.79H266.083C274.445 252.7 281.192 247.406 281.192 240.882Z" fill="#55769F"/>
<path d="M125.846 293.544H117.758C119.235 292.782 120.876 292.393 122.538 292.412H325.179C335.782 292.412 344.375 298.368 344.375 305.715V314.166C344.375 321.511 335.782 327.468 325.179 327.468L124.804 327.421L125.846 293.544Z" fill="#FEB546"/>
<path d="M240.889 292.444C251.028 292.444 259.246 298.139 259.246 305.165V314.714C259.246 321.738 251.028 327.438 240.889 327.438H114.74V325.3H115.26L147.329 323.197L153.811 305.575C153.811 305.575 141.301 295.835 140.486 295.585C139.671 295.334 115.26 294.581 115.26 294.581H114.74V292.458L240.889 292.444Z" fill="#F4A640"/>
<path d="M122.922 309.877C122.922 299.574 115.24 294.579 115.24 294.579H238.297C247.61 294.579 255.154 299.811 255.154 306.265V313.616C255.154 320.068 247.604 325.3 238.297 325.3H115.23C115.23 325.3 122.922 322.85 122.922 309.877Z" fill="#DAEEF7"/>
<g style="mix-blend-mode:multiply">
<path d="M255.172 306.265V313.616C255.17 314.574 255.003 315.524 254.678 316.426C250.528 309.388 242.573 302.61 227.429 300.429C192.074 295.342 115.245 294.587 115.245 294.587H238.298C247.622 294.579 255.172 299.811 255.172 306.265Z" fill="#DAEEF7"/>
</g>
<path d="M64.3817 331.149L366.599 331.149C367.028 331.149 367.439 330.978 367.742 330.675C368.045 330.372 368.215 329.961 368.215 329.533V328.784C368.215 328.355 368.045 327.944 367.742 327.641C367.439 327.338 367.028 327.168 366.599 327.168L64.3817 327.168C63.9526 327.168 63.541 327.338 63.2376 327.642C62.9341 327.945 62.7637 328.357 62.7637 328.786V329.529C62.7637 329.958 62.9341 330.369 63.2376 330.673C63.541 330.976 63.9526 331.147 64.3817 331.147V331.149Z" fill="#C4DFE8"/>
<path d="M69.3907 199.815L126.127 167.364L133.793 182.554L75.7424 213.267L69.3907 199.815Z" fill="#F4A640"/>
<path d="M116.012 82.5278C116.012 82.5278 115.564 86.9429 112.083 87.246C115.564 87.551 116.012 91.9641 116.012 91.9641C116.012 91.9641 116.459 87.549 119.941 87.246C116.459 86.9409 116.012 82.5278 116.012 82.5278Z" fill="#02CCC0"/>
<path d="M54.6254 211.156C54.6254 211.156 53.9551 217.778 48.7312 218.234C53.9491 218.692 54.6254 225.31 54.6254 225.31C54.6254 225.31 55.2977 218.688 60.5195 218.234C55.2977 217.776 54.6254 211.156 54.6254 211.156Z" fill="#FF5B7E"/>
<path d="M71.0063 46.4464C71.0063 46.4464 70.4043 52.3225 65.7724 52.7299C70.4103 53.1313 71.0063 59.0134 71.0063 59.0134C71.0063 59.0134 71.6084 53.1353 76.2402 52.7299C71.6024 52.3225 71.0063 46.4464 71.0063 46.4464Z" fill="#FEB546"/>
<path d="M347.072 237.211C347.072 237.211 346.67 241.166 343.55 241.439C346.67 241.72 347.072 245.676 347.072 245.676C347.072 245.676 347.473 241.72 350.594 241.445C347.473 241.172 347.072 237.211 347.072 237.211Z" fill="#FEB546"/>
<path d="M91.8454 126.053C91.8454 126.053 91.444 129.998 88.3313 130.267C91.444 130.54 91.8454 134.481 91.8454 134.481C91.8454 134.481 92.2467 130.534 95.3594 130.267C92.2447 129.998 91.8454 126.053 91.8454 126.053Z" fill="#FF5B7E"/>
<path d="M146.064 22.4645C146.064 22.4645 145.663 26.41 142.55 26.6789C145.665 26.9518 146.064 30.8933 146.064 30.8933C146.064 30.8933 146.465 26.9458 149.578 26.6789C146.463 26.41 146.064 22.4645 146.064 22.4645Z" fill="#FF5B7E"/>
<path d="M309.32 72.7002C309.32 72.7002 308.796 77.8659 304.724 78.2211C308.8 78.5783 309.324 83.744 309.324 83.744C309.324 83.744 309.848 78.5783 313.922 78.2211C309.844 77.8659 309.32 72.7002 309.32 72.7002Z" fill="#FF5B7E"/>
<path d="M344.372 162.154C344.372 162.154 343.606 169.72 337.635 170.244C343.606 170.768 344.372 178.334 344.372 178.334C344.372 178.334 345.141 170.768 351.111 170.244C345.141 169.722 344.372 162.154 344.372 162.154Z" fill="#FF5B7E"/>
<path d="M161.803 93.4131C161.803 93.4131 161.201 99.2892 156.569 99.6966C161.207 100.098 161.803 105.98 161.803 105.98C161.803 105.98 162.405 100.104 167.037 99.6966C162.399 99.2892 161.803 93.4131 161.803 93.4131Z" fill="#FF5B7E"/>
<path d="M49.393 156.86C49.393 156.86 48.791 162.738 44.1591 163.144C48.797 163.545 49.393 169.427 49.393 169.427C49.393 169.427 49.9951 163.551 54.627 163.144C49.9891 162.738 49.393 156.86 49.393 156.86Z" fill="#02CCC0"/>
<path d="M340.646 36.2596C340.646 36.2596 340.223 40.446 336.92 40.735C340.223 41.0259 340.646 45.2123 340.646 45.2123C340.646 45.2123 341.072 41.0259 344.375 40.735C341.072 40.446 340.646 36.2596 340.646 36.2596Z" fill="#02CCC0"/>
<path d="M296.543 139.756C296.543 139.756 295.863 146.461 290.573 146.924C295.863 147.388 296.543 154.093 296.543 154.093C296.543 154.093 297.224 147.388 302.516 146.924C297.224 146.461 296.543 139.756 296.543 139.756Z" fill="#02CCC0"/>
<path d="M355.244 96.0961C355.244 96.0961 354.781 101.416 351.166 101.784C354.779 102.153 355.244 107.471 355.244 107.471C355.244 107.471 355.71 102.153 359.322 101.784C355.71 101.416 355.244 96.0961 355.244 96.0961Z" fill="#FEB546"/>
<path d="M268.734 11.0554C268.734 11.0554 268.269 16.3917 264.646 16.7609C268.269 17.1302 268.734 22.4644 268.734 22.4644C268.734 22.4644 269.204 17.1302 272.816 16.7609C269.204 16.3917 268.734 11.0554 268.734 11.0554Z" fill="#FEB546"/>
<g style="mix-blend-mode:multiply">
<path d="M211.416 118.124L202.263 118.858L205.217 126.263L209.833 125.892L211.757 132.065C212.227 131.852 212.572 131.69 212.64 131.642C212.781 131.549 213.293 128.487 213.74 125.593L211.416 118.124Z" fill="#DAEEF7"/>
</g>
<path d="M206.187 186.22V189.447C206.188 189.511 206.175 189.574 206.151 189.632C206.127 189.691 206.092 189.744 206.047 189.789C206.002 189.834 205.949 189.87 205.891 189.894C205.832 189.919 205.769 189.931 205.706 189.931H198.172C198.055 189.93 197.941 189.891 197.847 189.821C197.754 189.75 197.686 189.651 197.653 189.538C197.62 189.426 197.624 189.306 197.665 189.196C197.706 189.086 197.781 188.992 197.879 188.928L202.106 186.224C202.106 186.224 203.779 187.441 206.187 186.22Z" fill="#E03268"/>
<path d="M220.987 49.4366C221.012 49.4475 221.039 49.4511 221.066 49.4472C221.093 49.4432 221.119 49.4319 221.139 49.4144C221.16 49.3969 221.176 49.3739 221.184 49.3481C221.193 49.3222 221.194 49.2945 221.188 49.2681C220.999 48.373 220.425 45.5494 220.642 45.455C220.899 45.3366 221.475 47.8472 221.738 47.8773C222 47.9074 221.376 45.4691 221.671 45.3908C221.966 45.3125 222.462 47.5482 222.601 47.5562C222.739 47.5642 222.492 45.3687 222.639 45.2162C222.785 45.0637 223.329 47.3756 223.492 47.4338C223.654 47.492 223.809 45.7701 223.959 45.7661C224.11 45.7621 224.206 45.734 224.963 49.7076C224.963 49.7076 225.007 51.1646 225.266 51.5138L224.692 52.6838L222.914 52.744C222.914 52.744 219.052 49.25 219.084 49.0373C219.117 48.8246 219.291 48.7664 220.987 49.4366Z" fill="#FFC0BB"/>
<path d="M202.688 50.3155C202.671 50.3357 202.648 50.3507 202.623 50.3591C202.597 50.3675 202.57 50.3689 202.544 50.3632C202.518 50.3574 202.494 50.3447 202.474 50.3264C202.455 50.3082 202.441 50.285 202.433 50.2593C202.192 49.3743 201.418 46.5988 201.179 46.6088C200.894 46.6208 201.526 49.1174 201.307 49.2639C201.089 49.4104 200.533 46.96 200.232 47.0222C199.931 47.0844 200.511 49.302 200.392 49.3722C200.274 49.4425 199.491 47.3754 199.293 47.3072C199.094 47.2389 199.662 49.5428 199.543 49.6693C199.425 49.7957 198.502 48.3327 198.367 48.3989C198.233 48.4651 198.133 48.4832 199.264 52.3685C199.264 52.3685 199.887 53.685 199.814 54.1064L200.858 54.8871L202.463 54.1285C202.463 54.1285 204.308 49.2599 204.181 49.0853C204.055 48.9107 203.894 48.9528 202.688 50.3155Z" fill="#FFC0BB"/>
<path d="M216.816 82.1345L216.788 88.9297L223.389 87.9122L222.287 80.2721L216.816 82.1345Z" fill="#FFC0BB"/>
<path opacity="0.6" d="M222.793 83.7882L222.285 80.2742L216.808 82.7807V84.1233C218.125 84.4424 220.595 84.7314 222.793 83.7882Z" fill="#FC8D84"/>
<path d="M228.739 185.863V189.401C228.739 189.542 228.794 189.676 228.893 189.775C228.992 189.875 229.126 189.931 229.267 189.931H237.555C237.684 189.93 237.809 189.887 237.912 189.809C238.015 189.731 238.09 189.622 238.126 189.498C238.162 189.374 238.158 189.242 238.113 189.121C238.068 189 237.986 188.896 237.878 188.825L233.228 185.863C233.228 185.863 231.404 187.196 228.739 185.863Z" fill="#E03268"/>
<path d="M236.309 125.73C236.293 124.971 238.264 127.205 238.226 126.599C237.453 114.032 212.897 124.57 212.897 124.57L206.903 128.969L200.136 187.216C200.136 187.216 203.808 188.28 206.227 187.417L221.212 137.496L223.046 136.787C223.046 136.787 231.25 131.068 236.309 125.73Z" fill="#07085B"/>
<path d="M238.251 127.112C238.251 127.259 238.265 127.409 238.271 127.564C238.265 127.409 238.259 127.259 238.251 127.112Z" fill="#06BFAD"/>
<path d="M238.273 127.572C238.273 127.728 238.285 127.891 238.289 128.055C238.285 127.891 238.279 127.728 238.273 127.572Z" fill="#06BFAD"/>
<path d="M238.297 128.12C238.297 128.292 238.297 128.467 238.311 128.645C238.297 128.467 238.297 128.292 238.297 128.12Z" fill="#06BFAD"/>
<path d="M238.224 126.599C238.224 126.735 238.24 126.877 238.248 127.02C238.24 126.877 238.232 126.735 238.224 126.599Z" fill="#06BFAD"/>
<path d="M238.222 123.745C233.163 129.083 223.052 136.789 223.052 136.789L221.21 137.498L223.044 136.787L228.741 187.216C228.741 187.216 232.801 187.99 235.123 186.732C235.131 186.732 238.551 138.73 238.222 123.745Z" fill="#07085B"/>
<path d="M200.135 187.216C201.23 187.512 202.355 187.689 203.488 187.744C202.355 187.689 201.23 187.512 200.135 187.216V187.216Z" fill="#06BFAD"/>
<path d="M205.512 187.605C205.347 187.639 205.181 187.668 205.014 187.688C205.179 187.668 205.347 187.641 205.512 187.605Z" fill="#06BFAD"/>
<path d="M203.488 187.744C203.914 187.761 204.341 187.752 204.766 187.716C204.341 187.752 203.914 187.761 203.488 187.744Z" fill="#06BFAD"/>
<path d="M206.904 128.969L205.938 137.281C208.493 138.27 214.723 139.328 219.417 129.053C220.898 125.814 221.277 123.484 221.004 121.81C218.246 122.552 215.538 123.471 212.898 124.562L206.904 128.969Z" fill="#050645"/>
<path d="M229.433 95.0365C229.15 95.0365 224.896 85.4036 224.896 85.4036C221.257 87.9563 216.32 86.1842 216.32 86.1842C216.32 86.1842 196.452 122.547 209.774 128.218C223.095 133.889 235.662 126.99 235.662 126.99C235.662 126.99 238.498 119.609 238.498 119.326C238.498 119.043 229.716 95.0365 229.433 95.0365Z" fill="#DAEEF7"/>
<path d="M203.536 54.2069C203.536 54.2069 202.675 71.4659 204.293 74.6207C209.657 85.1126 216.32 86.1763 216.32 86.1763C216.32 86.1763 218.612 122.87 216.721 131.66C216.721 131.66 210.436 133.596 201.174 129.252C201.174 129.252 208.262 100.804 207.885 97.212C207.885 97.212 196.542 87.0994 196.165 75.1907C195.788 63.282 198.906 52.6978 198.906 52.6978L203.536 54.2069Z" fill="#55769F"/>
<path d="M234.11 130.337C234.11 130.337 233.402 116.679 230.283 103.73C227.164 90.7821 224.895 85.3957 224.895 85.3957C229.077 80.7799 228.383 76.6237 228.015 71.2192C227.59 64.9819 221.493 52.5052 221.493 52.5052L225.605 49.812C245.311 73.493 234.393 92.3435 234.393 92.3435C234.393 92.3435 241.766 118.433 242.758 126.368C239.985 127.918 237.093 129.245 234.11 130.337V130.337Z" fill="#55769F"/>
<path d="M208.074 97.1699C208.372 96.9542 208.642 96.7013 208.876 96.4173C209.711 95.4139 210.145 94.274 210.444 93.0056C210.263 93.5475 209.777 95.1229 208.756 96.3189C208.495 96.6459 208.185 96.9303 207.837 97.1618L207.893 97.212V97.2863C208.154 97.3404 208.615 97.3565 209.39 96.9351C209.844 96.6828 210.266 96.3791 210.65 96.03C210.238 96.3375 209.801 96.61 209.344 96.8447C208.952 97.0512 208.517 97.1625 208.074 97.1699V97.1699Z" fill="white"/>
<path d="M234.242 92.2551C233.905 92.0227 233.602 91.7436 233.343 91.4262C232.506 90.4469 232.049 89.2849 231.655 88.1129C231.955 89.3752 232.384 90.5212 233.225 91.5246C233.456 91.8078 233.721 92.0606 234.016 92.2772C233.829 92.2846 233.642 92.2629 233.462 92.2129C233.216 92.1499 232.977 92.0618 232.749 91.95C232.291 91.7163 231.854 91.4437 231.443 91.1353C231.827 91.4837 232.25 91.7873 232.703 92.0403C232.933 92.1667 233.176 92.2683 233.428 92.3434C233.687 92.4284 233.964 92.4429 234.23 92.3855L234.383 92.3434L234.242 92.2551Z" fill="white"/>
<path d="M226.278 68.2731L226.678 72.935L225.941 73.3986L224.579 67.7212L226.278 68.2731Z" fill="#07085B"/>
<path d="M225.292 72.4472C225.092 73.5028 225.611 74.4902 226.456 74.6547C227.301 74.8193 228.15 74.0928 228.353 73.0372C228.555 71.9816 228.034 70.9922 227.189 70.8297C226.344 70.6671 225.495 71.3976 225.292 72.4472Z" fill="#F99893"/>
<path d="M226.503 76.7642C226.691 75.4665 226.712 74.1501 226.567 72.8468C226.543 72.594 226.531 72.3371 226.525 72.0822C226.498 70.9291 226.232 69.7942 225.742 68.7496C225.253 67.705 224.552 66.7736 223.684 66.0144C222.815 65.2553 221.798 64.6851 220.698 64.34C219.597 63.9949 218.437 63.8825 217.29 64.0099C216.144 64.1372 215.037 64.5016 214.039 65.0799C213.041 65.6582 212.174 66.4377 211.493 67.369C210.813 68.3002 210.333 69.3628 210.085 70.4893C209.837 71.6158 209.826 72.7815 210.053 73.9125C209.788 73.8178 209.505 73.7867 209.226 73.8216C208.947 73.8564 208.681 73.9563 208.447 74.1132C207.564 74.7393 207.484 76.1401 208.269 77.2419C209.053 78.3436 210.4 78.729 211.279 78.1028C211.399 78.0159 211.506 77.9133 211.598 77.7978C212.802 81.7111 216.694 84.1375 220.603 83.2886C223.569 82.6363 226.02 80.1739 226.503 76.7642Z" fill="#FFC0BB"/>
<path d="M225.414 63.2961C225.414 63.2961 227.862 62.8245 224.846 61.3454C221.83 59.8663 214.434 59.0054 210.569 62.3167C210.569 62.3167 209.269 60.649 208.099 61.3815C206.929 62.114 209.317 62.9248 209.317 62.9248C209.317 62.9248 207.683 63.2399 207.368 64.147C207.135 64.8173 208.135 64.6186 208.671 64.4681C207.784 64.8353 205.175 67.2978 208.562 74.0288C209.164 73.7478 213.041 68.2089 213.041 68.2089C213.041 68.2089 220.836 70.7777 219.415 68.6544C219.415 68.6544 228.5 70.9382 226.297 66.8201C226.297 66.8281 229.646 66.3164 225.414 63.2961Z" fill="#07085B"/>
<path d="M208.562 74.0286C208.782 73.8904 209.032 73.8075 209.291 73.7872C209.55 73.767 209.811 73.8099 210.049 73.9122C210.948 74.2534 211.518 76.2603 211.518 76.2603C211.518 76.2603 214.46 78.6685 213.026 68.1706C211.621 57.8553 209.666 69.8865 209.666 69.8865L208.562 74.0286Z" fill="#07085B"/>
<path d="M204.272 41.7424L217.718 40.7831C217.88 40.7716 218.038 40.7284 218.183 40.6558C218.328 40.5832 218.458 40.4827 218.564 40.36C218.67 40.2374 218.751 40.095 218.802 39.941C218.853 39.787 218.874 39.6244 218.862 39.4626V39.4626C218.851 39.3009 218.807 39.143 218.735 38.998C218.662 38.853 218.562 38.7237 218.44 38.6175C218.317 38.5113 218.175 38.4302 218.021 38.3789C217.868 38.3277 217.705 38.3072 217.543 38.3186L204.098 39.2759C203.771 39.2996 203.467 39.4519 203.252 39.6995C203.038 39.9471 202.93 40.2697 202.954 40.5964V40.5964C202.977 40.9229 203.129 41.2268 203.376 41.4415C203.623 41.6563 203.945 41.7644 204.272 41.7424V41.7424Z" fill="#FEB546"/>
<path d="M208.144 1.24182L203.444 12.7632L191.286 15.4243L200.793 23.4558L199.567 35.8381L210.143 29.2797L221.54 34.2728L218.57 22.1875L226.842 12.8917L214.431 11.9805L208.144 1.24182Z" fill="#FEB546"/>
<path d="M208.145 1.24182L209.35 18.1497L203.445 12.7632L208.145 1.24182Z" fill="#F4A640"/>
<path d="M191.288 15.4243L209.35 18.1496L200.794 23.4558L191.288 15.4243Z" fill="#F4A640"/>
<path d="M209.348 18.1496L214.431 11.9805L226.842 12.8916L209.348 18.1496Z" fill="#F4A640"/>
<path d="M221.541 34.2727L209.349 18.1495L218.571 22.1873L221.541 34.2727Z" fill="#F4A640"/>
<path d="M199.57 35.838L209.352 18.1495L210.146 29.2796L199.57 35.838Z" fill="#F4A640"/>
<path d="M200.806 42.2716L221.24 40.814L221.753 47.9963L201.318 49.454L200.806 42.2716Z" fill="#6F747A"/>
<g style="mix-blend-mode:multiply">
<path d="M221.7 47.1915L221.756 47.9762L201.321 49.4303L201.266 48.6456L221.7 47.1915Z" fill="#CDD6E0"/>
</g>
<g style="mix-blend-mode:multiply">
<path d="M221.255 40.0345L221.311 40.8212L200.824 42.2551L200.769 41.4684L221.255 40.0345Z" fill="#CDD6E0"/>
</g>
<path d="M200.969 42.5973L221.098 41.1624C221.342 41.1449 221.57 41.0311 221.731 40.846C221.891 40.6609 221.972 40.4196 221.955 40.175C221.937 39.93 221.823 39.7019 221.638 39.5409C221.452 39.3798 221.21 39.299 220.965 39.3161L200.837 40.751C200.715 40.7597 200.597 40.7921 200.488 40.8465C200.38 40.9009 200.283 40.9762 200.203 41.0681C200.123 41.16 200.063 41.2667 200.024 41.382C199.986 41.4974 199.971 41.6191 199.98 41.7404V41.7404C199.998 41.9851 200.112 42.2126 200.297 42.3732C200.483 42.5339 200.724 42.6144 200.969 42.5973V42.5973Z" fill="#F4A640"/>
<path d="M201.041 51.1244L222.515 49.5952C222.547 49.5929 222.579 49.5842 222.609 49.5695C222.638 49.5548 222.664 49.5345 222.685 49.5097C222.707 49.4849 222.723 49.4561 222.734 49.425C222.744 49.3938 222.748 49.3609 222.745 49.3283L222.649 47.9796C222.644 47.9139 222.614 47.8528 222.564 47.8095C222.515 47.7663 222.45 47.7444 222.384 47.7489L200.911 49.2781C200.878 49.2804 200.846 49.2891 200.817 49.3038C200.787 49.3184 200.761 49.3388 200.74 49.3636C200.718 49.3884 200.702 49.4172 200.692 49.4483C200.681 49.4794 200.677 49.5123 200.68 49.545L200.776 50.8936C200.781 50.9593 200.811 51.0205 200.861 51.0637C200.911 51.107 200.975 51.1288 201.041 51.1244V51.1244Z" fill="#6F747A"/>
<path d="M207.592 47.0846L215.362 46.5307C215.592 46.5144 215.816 46.4531 216.022 46.3501C216.228 46.2472 216.411 46.1047 216.562 45.9309C216.713 45.757 216.828 45.5551 216.9 45.3367C216.973 45.1184 217.002 44.8879 216.986 44.6583V44.6583C216.97 44.4286 216.908 44.2043 216.805 43.9983C216.702 43.7923 216.559 43.6087 216.385 43.4579C216.211 43.3071 216.009 43.1921 215.79 43.1195C215.572 43.0469 215.341 43.0181 215.111 43.0347L207.341 43.5866C206.877 43.6206 206.446 43.8369 206.142 44.1883C205.837 44.5396 205.685 44.9973 205.717 45.461V45.461C205.751 45.9249 205.967 46.3564 206.318 46.6609C206.67 46.9653 207.128 47.1177 207.592 47.0846V47.0846Z" fill="#FEB546"/>
<g style="mix-blend-mode:multiply">
<path d="M215.321 45.9566C215.486 45.9447 215.647 45.8978 215.792 45.819C215.938 45.7403 216.066 45.6315 216.166 45.4998C216.267 45.3681 216.338 45.2166 216.376 45.0553C216.413 44.8939 216.416 44.7264 216.384 44.5639C216.32 44.2794 216.155 44.0278 215.92 43.8558C215.684 43.6838 215.394 43.6031 215.104 43.6287L207.434 44.1745C207.143 44.1906 206.867 44.3118 206.659 44.5155C206.45 44.7192 206.323 44.9917 206.3 45.2823C206.291 45.4477 206.318 45.613 206.378 45.7674C206.438 45.9217 206.53 46.0615 206.648 46.1774C206.767 46.2934 206.908 46.3829 207.064 46.44C207.219 46.497 207.385 46.5204 207.55 46.5085L215.321 45.9566Z" fill="#D9D9D9"/>
</g>
<path d="M208.71 39.7014L213.033 39.3944L213.005 38.993C212.889 37.3634 212.706 33.9758 210.139 29.2798C208.189 34.6522 208.566 37.6725 208.682 39.3021L208.71 39.7014Z" fill="#FEB546"/>
</svg>
