<svg width="391" height="300" viewBox="0 0 391 300" fill="none" xmlns="http://www.w3.org/2000/svg">
<path d="M307.083 23.8034C307.083 23.8034 228.507 -12.1305 165.831 11.1978C113.822 30.6021 134.155 55.4971 88.2779 54.1963C42.4006 52.8955 -2.9157 103.469 20.0998 168.423C32.0725 202.201 -23.3031 230.229 11.8695 267.96C55.549 314.846 144.814 279.02 290.053 295.392C366.577 304.016 422.437 232.392 369.935 177.363C331.235 136.794 356.241 128.062 356.595 90.4033C356.956 50.5382 307.083 23.8034 307.083 23.8034Z" fill="#EBF3FA"/>
<path opacity="0.25" d="M190.503 300C125.307 300 72.8107 295.232 72.8107 292.333C72.8107 289.434 125.307 289.502 190.503 289.502C255.699 289.502 308.551 291.852 308.551 294.751C308.551 297.65 255.699 300 190.503 300Z" fill="#EBF3FA"/>
<path d="M90.7761 101.489C90.7761 101.489 75.8212 111.819 70.9812 134.458C69.8824 138.937 69.0027 144.347 69.0027 144.347C69.0027 144.347 68.5612 166.766 60.8662 177.097C53.168 187.427 49.6492 193.581 49.6492 193.581C49.6492 193.581 44.5901 201.934 55.8071 203.032H67.6847L67.4656 232.923C67.4656 232.923 67.0241 247.868 84.3991 248.528C101.774 249.188 119.81 237.978 112.772 293.804H202.943C202.943 293.804 192.606 224.792 208.882 205.01C225.158 185.228 231.754 156.436 220.318 122.588C208.882 88.74 167.533 79.2886 163.576 79.0697C163.576 79.0697 159.615 77.3114 104.851 79.0697C104.855 79.0697 86.5999 79.5076 90.7761 101.489Z" fill="#FEB546"/>
<path d="M183.974 115.168C183.974 115.168 139.106 94.7264 107.878 119.345C107.878 119.345 90.7226 136.309 109.857 157.717C128.991 179.129 184.416 167.478 192.552 150.555C199.368 136.927 197.17 121.544 183.974 115.168Z" fill="#1A3654"/>
<path d="M196.262 137.269C196.262 137.269 196.561 110.554 148.561 110.882C100.561 111.211 100.841 138.267 100.841 138.267C100.841 138.267 95.94 107.578 148.561 107.253C201.182 106.928 196.616 134.132 196.262 137.269Z" fill="#7DADD8"/>
<path opacity="0.25" d="M154.336 78.2871L153.675 111.214C153.675 111.214 137 107.891 112.594 118.617V99.5084L95.7857 82.3768C95.7857 82.3768 99.717 78.9022 104.928 78.87L154.336 78.2871Z" fill="black"/>
<path d="M148.564 110.882C148.564 110.882 193.045 108.213 196.264 137.269C196.264 137.269 197.776 152.768 180.816 160.863C180.816 160.863 173.634 115.645 102.764 146.697C102.761 146.701 86.6493 112.586 148.564 110.882Z" fill="#092133"/>
<path d="M164.73 166.492V49.4531H182.875C182.875 49.4531 188.814 47.4759 184.853 43.1897C180.893 38.9036 152.195 0 152.195 0L119.314 43.6277C119.314 43.6277 115.905 48.0233 121.292 49.2309L139.547 49.3404L139.657 169.236C139.66 169.239 155.604 170.118 164.73 166.492Z" fill="#7289CD"/>
<path d="M133.58 168.676V89.8863L102.13 58.2379L108.397 51.9198C108.397 51.9198 110.212 49.3919 107.021 48.9539C103.831 48.5128 80.6303 45.4922 80.6303 45.4922L84.3134 72.6355C84.3134 72.6355 84.7549 75.3276 87.0073 73.4052C89.321 71.2701 93.4392 67.1418 93.4392 67.1418L121.371 94.6168V165.53C121.374 165.526 126.343 167.723 133.58 168.676Z" fill="#FF5B7E"/>
<path opacity="0.22" d="M164.73 159.182C164.73 159.182 151.316 162.37 139.651 161.382L139.657 169.239C139.657 169.239 157.912 170.395 164.73 166.492V159.182Z" fill="black"/>
<path opacity="0.21" d="M133.58 160.867C133.58 160.867 125.743 160.171 121.374 157.756V165.526C121.374 165.526 127.506 168.115 133.58 168.679V160.867Z" fill="black"/>
<path d="M291.547 158.693C291.547 158.693 302.055 165.952 305.454 181.856C306.228 185.003 306.847 188.806 306.847 188.806C306.847 188.806 307.156 204.556 312.563 211.814C317.97 219.073 320.445 223.394 320.445 223.394C320.445 223.394 323.999 229.261 316.117 230.034H307.775L307.929 251.033C307.929 251.033 308.239 261.535 296.032 261.998C283.826 262.462 271.156 254.585 276.099 293.808H212.747C212.747 293.808 220.011 245.321 208.574 231.425C197.138 217.53 192.504 197.301 200.541 173.519C208.574 149.741 237.624 143.101 240.405 142.946C240.405 142.946 243.186 141.71 281.661 142.946C281.657 142.943 294.482 143.252 291.547 158.693Z" fill="#AEC3FF"/>
<path d="M266.883 166.325C266.883 166.325 241.684 154.845 224.141 168.669C224.141 168.669 214.506 178.198 225.253 190.222C236 202.247 267.128 195.703 271.7 186.2C275.528 178.546 274.294 169.906 266.883 166.325Z" fill="#1A3654"/>
<path d="M273.784 178.739C273.784 178.739 273.952 163.733 246.994 163.92C220.035 164.106 220.193 179.299 220.193 179.299C220.193 179.299 217.438 162.065 246.994 161.881C276.549 161.694 273.984 176.974 273.784 178.739Z" fill="#7DADD8"/>
<path d="M246.996 163.916C246.996 163.916 271.979 162.416 273.787 178.736C273.787 178.736 274.638 187.44 265.109 191.987C265.109 191.987 261.075 166.589 221.272 184.03C221.269 184.033 212.221 164.876 246.996 163.916Z" fill="#092133"/>
<path d="M255.893 195.33L245.555 76.9862H243.135L233.065 195.107C233.069 195.107 241.392 198.724 255.893 195.33Z" fill="#4386D7"/>
<path d="M244.561 28.6699C244.561 28.6699 272.109 51.2534 244.561 78.2872C244.561 78.2872 216.849 54.055 244.561 28.6699Z" fill="#4386D7"/>
<path d="M244.524 77.7945C244.711 73.7435 244.837 69.6892 244.901 65.6382C244.947 63.6126 244.956 61.5871 244.982 59.5584L245.008 53.4786L244.982 47.3988C244.956 45.3732 244.947 43.3477 244.901 41.319C244.837 37.2679 244.711 33.2136 244.524 29.1626C244.338 33.2136 244.212 37.2679 244.147 41.319C244.102 43.3445 244.093 45.37 244.067 47.3988L244.041 53.4786L244.067 59.5584C244.093 61.5839 244.102 63.6094 244.147 65.6382C244.212 69.6892 244.338 73.7403 244.524 77.7945Z" fill="white"/>
<path d="M244.527 45.8143C243.889 45.2024 243.197 44.6743 242.494 44.1688C241.788 43.6696 241.063 43.1995 240.319 42.7615C239.578 42.3203 238.817 41.9114 238.041 41.5314C237.261 41.1578 236.465 40.8036 235.621 40.5396C236.259 41.1546 236.952 41.6795 237.654 42.1851C238.36 42.6842 239.085 43.1544 239.829 43.5923C240.57 44.0303 241.331 44.4425 242.111 44.8225C242.887 45.1928 243.683 45.547 244.527 45.8143Z" fill="white"/>
<path d="M244.527 54.8793C243.574 54.2546 242.584 53.7201 241.582 53.2145C240.58 52.7057 239.562 52.2388 238.531 51.7976C237.499 51.3596 236.459 50.9442 235.395 50.5771C234.335 50.2036 233.265 49.859 232.153 49.6046C233.104 50.2293 234.097 50.7639 235.099 51.2695C236.101 51.7783 237.119 52.2452 238.15 52.6864C239.181 53.1243 240.225 53.5365 241.286 53.9068C242.346 54.2804 243.419 54.625 244.527 54.8793Z" fill="white"/>
<path d="M244.527 64.7718C243.635 64.0472 242.697 63.4064 241.74 62.7946C240.786 62.1763 239.813 61.6031 238.824 61.0524C237.835 60.505 236.829 59.9801 235.804 59.4971C234.78 59.0108 233.739 58.5503 232.653 58.1768C233.546 58.9013 234.483 59.5421 235.44 60.154C236.394 60.769 237.367 61.3455 238.357 61.8961C239.346 62.4436 240.351 62.9685 241.379 63.4515C242.401 63.9378 243.441 64.395 244.527 64.7718Z" fill="white"/>
<path d="M308.012 114.673C308.012 114.673 313.161 171.246 251.572 170.215C251.572 170.215 248.114 111.61 308.012 114.673Z" fill="#FF5B7E"/>
<path d="M252.093 169.619C256.833 165.217 261.531 160.77 266.184 156.278C268.52 154.04 270.831 151.779 273.154 149.532L280.088 142.747L286.984 135.923C289.269 133.636 291.57 131.36 293.841 129.061C298.407 124.478 302.928 119.854 307.404 115.185C302.664 119.587 297.966 124.034 293.31 128.526C290.974 130.761 288.663 133.025 286.34 135.272L279.408 142.057L272.513 148.881C270.225 151.167 267.927 153.444 265.655 155.743C261.093 160.326 256.572 164.95 252.093 169.619Z" fill="white"/>
<path d="M288.473 133.823C288.337 132.438 288.105 131.08 287.844 129.727C287.722 129.048 287.567 128.378 287.425 127.705L286.955 125.695C286.626 124.359 286.259 123.032 285.859 121.715C285.46 120.398 285.028 119.087 284.499 117.799C284.635 119.184 284.864 120.543 285.125 121.895C285.389 123.248 285.682 124.591 286.014 125.927L286.536 127.924C286.726 128.584 286.903 129.25 287.11 129.907C287.516 131.224 287.947 132.535 288.473 133.823Z" fill="white"/>
<path d="M278.154 143.97C277.687 142.235 277.13 140.531 276.543 138.844C276.256 137.997 275.941 137.159 275.638 136.319L274.681 133.814L273.675 131.328C273.324 130.506 272.989 129.679 272.618 128.861C271.9 127.225 271.146 125.599 270.305 124.008C270.772 125.744 271.326 127.447 271.916 129.135C272.203 129.982 272.522 130.819 272.821 131.659L273.778 134.165L274.784 136.651C275.135 137.472 275.47 138.299 275.841 139.117C276.566 140.756 277.316 142.379 278.154 143.97Z" fill="white"/>
<path d="M266.906 155.041C266.616 153.248 266.233 151.48 265.82 149.721C265.621 148.839 265.389 147.966 265.173 147.091L264.473 144.476L263.726 141.874C263.458 141.011 263.21 140.144 262.923 139.285C262.372 137.565 261.789 135.852 261.112 134.168C261.402 135.961 261.783 137.729 262.198 139.488C262.395 140.37 262.63 141.243 262.846 142.118L263.545 144.733L264.296 147.335C264.564 148.198 264.815 149.065 265.099 149.924C265.646 151.644 266.23 153.357 266.906 155.041Z" fill="white"/>
<path d="M184.263 75.1249C184.263 75.1249 243.31 69.76 242.234 133.955C242.237 133.952 181.067 137.556 184.263 75.1249Z" fill="#2E4156"/>
<path d="M241.615 133.408C239.324 130.928 236.991 128.494 234.681 126.037L227.675 118.737C223.003 113.871 218.279 109.057 213.552 104.242C208.808 99.4442 204.065 94.6492 199.267 89.9058L192.068 82.7923C189.645 80.4448 187.244 78.0779 184.799 75.7529C187.086 78.2325 189.423 80.667 191.733 83.1273L198.739 90.4275C203.411 95.2933 208.135 100.108 212.862 104.919C217.605 109.713 222.349 114.512 227.147 119.255L234.346 126.369C236.769 128.713 239.169 131.083 241.615 133.408Z" fill="white"/>
<path d="M204.25 95.4927C202.81 95.644 201.389 95.8856 199.977 96.1625C199.268 96.2913 198.569 96.4555 197.867 96.6004L195.769 97.0931C194.373 97.4345 192.991 97.8177 191.612 98.2299C190.236 98.6421 188.866 99.0897 187.523 99.6307C188.966 99.4826 190.384 99.2378 191.796 98.9609C193.207 98.6839 194.609 98.378 196.001 98.0302L198.086 97.486C198.775 97.2896 199.471 97.106 200.158 96.8903C201.534 96.4781 202.903 96.0305 204.25 95.4927Z" fill="white"/>
<path d="M214.842 106.242C213.034 106.738 211.259 107.321 209.496 107.939C208.613 108.238 207.74 108.57 206.863 108.886L204.25 109.884L201.656 110.931C200.799 111.298 199.932 111.645 199.081 112.029C197.37 112.776 195.675 113.555 194.012 114.425C195.823 113.929 197.596 113.346 199.358 112.731C200.241 112.431 201.115 112.1 201.991 111.784L204.604 110.786L207.198 109.739C208.055 109.375 208.922 109.024 209.773 108.641C211.481 107.891 213.179 107.111 214.842 106.242Z" fill="white"/>
<path d="M226.398 117.97C224.529 118.279 222.686 118.682 220.853 119.12C219.934 119.329 219.022 119.57 218.107 119.796L215.378 120.524L212.662 121.303C211.763 121.58 210.857 121.841 209.961 122.137C208.163 122.707 206.378 123.312 204.615 124.011C206.484 123.702 208.327 123.299 210.161 122.865C211.079 122.655 211.991 122.414 212.906 122.188L215.636 121.457L218.352 120.678C219.254 120.401 220.157 120.14 221.053 119.844C222.851 119.268 224.636 118.666 226.398 117.97Z" fill="white"/>
<path d="M144.4 242.822C140.071 242.822 136.563 239.315 136.563 234.99C136.563 230.665 140.071 227.158 144.4 227.158C148.728 227.158 152.236 230.665 152.236 234.99C152.236 239.315 148.728 242.822 144.4 242.822Z" fill="#FCFCFC"/>
<path d="M236.644 256.665C232.316 256.665 228.807 253.159 228.807 248.834C228.807 244.509 232.316 241.002 236.644 241.002C240.972 241.002 244.48 244.509 244.48 248.834C244.48 253.159 240.972 256.665 236.644 256.665Z" fill="#4183D7"/>
<path d="M126.23 248.837C125.007 248.837 124.016 247.846 124.016 246.625C124.016 245.403 125.007 244.412 126.23 244.412C127.452 244.412 128.443 245.403 128.443 246.625C128.443 247.846 127.452 248.837 126.23 248.837Z" fill="#FCFCFC"/>
<path d="M247.025 266.461C245.802 266.461 244.811 265.471 244.811 264.249C244.811 263.027 245.802 262.037 247.025 262.037C248.247 262.037 249.238 263.027 249.238 264.249C249.238 265.471 248.247 266.461 247.025 266.461Z" fill="#4183D7"/>
</svg>
