<svg width="217" height="438" viewBox="0 0 217 438" fill="none" xmlns="http://www.w3.org/2000/svg">
<path d="M1.49139 49.6818C1.49139 32.2915 1.49139 23.5964 4.87246 16.9542C7.84653 11.1116 12.5921 6.36135 18.4291 3.38437C25.0648 0 33.7514 0 51.1247 0H165.126C182.5 0 191.186 0 197.822 3.38437C203.659 6.36135 208.405 11.1116 211.379 16.9542C214.76 23.5964 214.76 32.2915 214.76 49.6818V112.56H215.654C215.984 112.56 216.251 112.828 216.251 113.157V163.914C216.251 164.244 215.984 164.511 215.654 164.511H214.76V388.318C214.76 405.708 214.76 414.404 211.379 421.046C208.405 426.888 203.659 431.639 197.822 434.616C191.186 438 182.5 438 165.126 438H51.1247C33.7514 438 25.0648 438 18.4291 434.616C12.5921 431.639 7.84653 426.888 4.87246 421.046C1.49139 414.404 1.49139 405.708 1.49139 388.318V174.961H0.596555C0.267087 174.961 0 174.694 0 174.364V142.119C0 141.789 0.267087 141.521 0.596555 141.521H1.49139V134.057H0.596555C0.267087 134.057 0 133.79 0 133.46V101.215C0 100.885 0.267087 100.618 0.596555 100.618H1.49139V86.5849H0.596555C0.267087 86.5849 0 86.3175 0 85.9877V69.865C0 69.5352 0.267087 69.2679 0.596555 69.2679H1.49139V49.6818Z" fill="#7A602C"/>
<g style="mix-blend-mode:multiply">
<mask id="mask0" mask-type="alpha" maskUnits="userSpaceOnUse" x="1" y="0" width="214" height="438">
<path d="M1.49268 49.6818C1.49268 32.2915 1.49268 23.5964 4.87375 16.9542C7.84782 11.1116 12.5934 6.36135 18.4303 3.38437C25.0661 0 33.7527 0 51.126 0H165.128C182.501 0 191.188 0 197.823 3.38437C203.66 6.36135 208.406 11.1116 211.38 16.9542C214.761 23.5964 214.761 32.2915 214.761 49.6818V388.318C214.761 405.708 214.761 414.404 211.38 421.046C208.406 426.888 203.66 431.639 197.823 434.616C191.188 438 182.501 438 165.128 438H51.126C33.7527 438 25.0661 438 18.4303 434.616C12.5934 431.639 7.84782 426.888 4.87375 421.046C1.49268 414.404 1.49268 405.708 1.49268 388.318V49.6818Z" fill="black"/>
</mask>
<g mask="url(#mask0)">
<g filter="url(#filter0_i)">
<path d="M1.49268 49.6818C1.49268 32.2915 1.49268 23.5964 4.87375 16.9542C7.84782 11.1116 12.5934 6.36135 18.4303 3.38437C25.0661 0 33.7527 0 51.126 0H165.128C182.501 0 191.188 0 197.823 3.38437C203.66 6.36135 208.406 11.1116 211.38 16.9542C214.761 23.5964 214.761 32.2915 214.761 49.6818V388.318C214.761 405.708 214.761 414.404 211.38 421.046C208.406 426.888 203.66 431.639 197.823 434.616C191.188 438 182.501 438 165.128 438H51.126C33.7527 438 25.0661 438 18.4303 434.616C12.5934 431.639 7.84782 426.888 4.87375 421.046C1.49268 414.404 1.49268 405.708 1.49268 388.318V49.6818Z" fill="#EBEBEB"/>
</g>
<rect x="0.299316" y="37.321" width="5.07071" height="4.17996" fill="url(#paint0_linear)"/>
<rect x="0.299316" y="398.29" width="5.07071" height="4.17996" fill="url(#paint1_linear)"/>
<rect x="210.883" y="37.321" width="5.07071" height="4.17996" fill="url(#paint2_linear)"/>
<rect x="210.883" y="398.29" width="5.07071" height="4.17996" fill="url(#paint3_linear)"/>
<rect x="169.422" y="-2.09" width="5.07566" height="4.17588" transform="rotate(90 169.422 -2.09)" fill="url(#paint4_linear)"/>
<rect x="43.8472" y="434.119" width="5.07566" height="4.17588" transform="rotate(90 43.8472 434.119)" fill="url(#paint5_linear)"/>
</g>
<path d="M3.95208 48.7263C3.95208 40.6152 3.95214 34.5364 4.34602 29.7108C4.73983 24.886 5.52696 21.3207 7.09746 18.2354C9.86421 12.8001 14.279 8.381 19.709 5.61156C22.7913 4.03953 26.3531 3.25165 31.1731 2.85745C35.994 2.46319 42.0669 2.46313 50.1701 2.46313H166.081C174.184 2.46313 180.257 2.46319 185.078 2.85745C189.898 3.25165 193.459 4.03953 196.542 5.61156C201.972 8.381 206.387 12.8001 209.153 18.2354C210.724 21.3207 211.511 24.8861 211.905 29.7108C212.299 34.5364 212.299 40.6152 212.299 48.7263V389.274C212.299 397.385 212.299 403.464 211.905 408.289C211.511 413.114 210.724 416.679 209.153 419.765C206.387 425.2 201.972 429.619 196.542 432.388C193.459 433.96 189.898 434.748 185.078 435.142C180.257 435.537 174.184 435.537 166.081 435.537H50.1701C42.0669 435.537 35.994 435.537 31.1731 435.142C26.3531 434.748 22.7913 433.96 19.709 432.388C14.279 429.619 9.86421 425.2 7.09746 419.765C5.52696 416.679 4.73983 413.114 4.34602 408.289C3.95214 403.464 3.95208 397.385 3.95208 389.274V48.7263Z" fill="black" stroke="url(#paint6_linear)" stroke-width="0.149284"/>
<g filter="url(#filter1_ii)">
<path d="M0 69.865C0 69.5353 0.267347 69.2679 0.597137 69.2679H1.49284V86.5849H0.597137C0.267347 86.5849 0 86.3175 0 85.9877V69.865Z" fill="url(#paint7_linear)"/>
</g>
<g filter="url(#filter2_ii)">
<path d="M0 101.215C0 100.885 0.267347 100.618 0.597137 100.618H1.49284V134.057H0.597137C0.267347 134.057 0 133.79 0 133.46V101.215Z" fill="url(#paint8_linear)"/>
</g>
<g filter="url(#filter3_ii)">
<path d="M214.759 112.56H215.654C215.984 112.56 216.252 112.828 216.252 113.158V163.914C216.252 164.244 215.984 164.511 215.654 164.511H214.759V112.56Z" fill="url(#paint9_linear)"/>
</g>
<g filter="url(#filter4_ii)">
<path d="M0 142.119C0 141.789 0.267347 141.522 0.597137 141.522H1.49284V174.961H0.597137C0.267347 174.961 0 174.694 0 174.364V142.119Z" fill="url(#paint10_linear)"/>
</g>
</g>
<g style="mix-blend-mode:screen">
<mask id="mask1" mask-type="alpha" maskUnits="userSpaceOnUse" x="1" y="0" width="214" height="438">
<path d="M1.49268 49.6818C1.49268 32.2915 1.49268 23.5964 4.87375 16.9542C7.84782 11.1116 12.5934 6.36135 18.4303 3.38437C25.0661 0 33.7527 0 51.126 0H165.128C182.501 0 191.188 0 197.823 3.38437C203.66 6.36135 208.406 11.1116 211.38 16.9542C214.761 23.5964 214.761 32.2915 214.761 49.6818V388.318C214.761 405.708 214.761 414.404 211.38 421.046C208.406 426.888 203.66 431.639 197.823 434.616C191.188 438 182.501 438 165.128 438H51.126C33.7527 438 25.0661 438 18.4303 434.616C12.5934 431.639 7.84782 426.888 4.87375 421.046C1.49268 414.404 1.49268 405.708 1.49268 388.318V49.6818Z" fill="black"/>
</mask>
<g mask="url(#mask1)">
<g filter="url(#filter5_ii)">
<path d="M1.49268 49.6818C1.49268 32.2915 1.49268 23.5964 4.87375 16.9542C7.84782 11.1116 12.5934 6.36135 18.4303 3.38437C25.0661 0 33.7527 0 51.126 0H165.128C182.501 0 191.188 0 197.823 3.38437C203.66 6.36135 208.406 11.1116 211.38 16.9542C214.761 23.5964 214.761 32.2915 214.761 49.6818V388.318C214.761 405.708 214.761 414.404 211.38 421.046C208.406 426.888 203.66 431.639 197.823 434.616C191.188 438 182.501 438 165.128 438H51.126C33.7527 438 25.0661 438 18.4303 434.616C12.5934 431.639 7.84782 426.888 4.87375 421.046C1.49268 414.404 1.49268 405.708 1.49268 388.318V49.6818Z" fill="#050505"/>
</g>
<path d="M1.79124 49.6818C1.79124 40.9818 1.79148 34.4747 2.21289 29.3118C2.63402 24.1524 3.47427 20.3617 5.13983 17.0897C8.08531 11.3032 12.7853 6.59866 18.566 3.65034C21.8347 1.98322 25.6216 1.14216 30.7759 0.720621C35.9337 0.298801 42.4344 0.298569 51.126 0.298569H165.128C173.819 0.298569 180.32 0.298801 185.478 0.720621C190.632 1.14216 194.419 1.98322 197.688 3.65034C203.468 6.59865 208.168 11.3032 211.114 17.0897C212.779 20.3617 213.62 24.1524 214.041 29.3118C214.462 34.4747 214.462 40.9818 214.462 49.6818V388.318C214.462 397.018 214.462 403.525 214.041 408.688C213.62 413.848 212.779 417.638 211.114 420.91C208.168 426.697 203.468 431.401 197.688 434.35C194.419 436.017 190.632 436.858 185.478 437.279C180.32 437.701 173.819 437.701 165.128 437.701H51.126C42.4344 437.701 35.9337 437.701 30.7759 437.279C25.6216 436.858 21.8347 436.017 18.566 434.35C12.7853 431.401 8.08531 426.697 5.13983 420.91C3.47427 417.638 2.63402 413.848 2.21289 408.688C1.79148 403.525 1.79124 397.018 1.79124 388.318V49.6818Z" stroke="url(#paint11_linear)" stroke-width="0.597137"/>
<rect x="0.299316" y="37.321" width="5.07071" height="4.17996" fill="url(#paint12_linear)"/>
<rect x="0.299316" y="398.29" width="5.07071" height="4.17996" fill="url(#paint13_linear)"/>
<rect x="210.883" y="37.321" width="5.07071" height="4.17996" fill="url(#paint14_linear)"/>
<rect x="210.883" y="398.29" width="5.07071" height="4.17996" fill="url(#paint15_linear)"/>
<rect x="169.422" y="-2.09" width="5.07566" height="4.17588" transform="rotate(90 169.422 -2.09)" fill="url(#paint16_linear)"/>
<rect x="43.8472" y="434.119" width="5.07566" height="4.17588" transform="rotate(90 43.8472 434.119)" fill="url(#paint17_linear)"/>
</g>
<path d="M3.95208 48.7263C3.95208 40.6152 3.95214 34.5364 4.34602 29.7108C4.73983 24.886 5.52696 21.3207 7.09746 18.2354C9.86421 12.8001 14.279 8.381 19.709 5.61156C22.7913 4.03953 26.3531 3.25165 31.1731 2.85745C35.994 2.46319 42.0669 2.46313 50.1701 2.46313H166.081C174.184 2.46313 180.257 2.46319 185.078 2.85745C189.898 3.25165 193.459 4.03953 196.542 5.61156C201.972 8.381 206.387 12.8001 209.153 18.2354C210.724 21.3207 211.511 24.8861 211.905 29.7108C212.299 34.5364 212.299 40.6152 212.299 48.7263V389.274C212.299 397.385 212.299 403.464 211.905 408.289C211.511 413.114 210.724 416.679 209.153 419.765C206.387 425.2 201.972 429.619 196.542 432.388C193.459 433.96 189.898 434.748 185.078 435.142C180.257 435.537 174.184 435.537 166.081 435.537H50.1701C42.0669 435.537 35.994 435.537 31.1731 435.142C26.3531 434.748 22.7913 433.96 19.709 432.388C14.279 429.619 9.86421 425.2 7.09746 419.765C5.52696 416.679 4.73983 413.114 4.34602 408.289C3.95214 403.464 3.95208 397.385 3.95208 389.274V48.7263Z" fill="black" stroke="url(#paint18_linear)" stroke-width="0.149284"/>
<path d="M14.1423 21.834C11.9316 26.177 11.9316 31.8623 11.9316 43.2328V394.767C11.9316 406.138 11.9316 411.823 14.1423 416.166C16.0869 419.986 19.1898 423.092 23.0063 425.039C27.345 427.252 33.0247 427.252 44.3842 427.252H171.868C183.227 427.252 188.907 427.252 193.246 425.039C197.062 423.092 200.165 419.986 202.11 416.166C204.32 411.823 204.32 406.138 204.32 394.767V43.2328C204.32 31.8623 204.32 26.177 202.11 21.834C200.165 18.0138 197.062 14.9079 193.246 12.9614C188.907 10.7486 183.227 10.7486 171.868 10.7486H161.899C161.405 10.7486 161.158 10.7486 160.96 10.8206C160.629 10.9413 160.368 11.2026 160.247 11.5344C160.175 11.7323 160.175 11.9794 160.175 12.4736C160.175 16.4276 160.175 18.4046 159.6 19.9877C158.635 22.6415 156.546 24.732 153.895 25.6979C152.314 26.2741 150.339 26.2741 146.388 26.2741H69.8637C65.9136 26.2741 63.9385 26.2741 62.357 25.6979C59.7058 24.732 57.6173 22.6415 56.6523 19.9877C56.0767 18.4046 56.0767 16.4276 56.0767 12.4736C56.0767 11.9794 56.0767 11.7323 56.0047 11.5344C55.8841 11.2026 55.623 10.9413 55.2916 10.8206C55.0939 10.7486 54.8471 10.7486 54.3533 10.7486H44.3842C33.0247 10.7486 27.345 10.7486 23.0063 12.9614C19.1898 14.9079 16.0869 18.0138 14.1423 21.834Z" fill="black"/>
<g filter="url(#filter6_iiii)">
<path d="M0 69.865C0 69.5353 0.267347 69.2679 0.597137 69.2679H1.49284V86.5849H0.597137C0.267347 86.5849 0 86.3175 0 85.9877V69.865Z" fill="url(#paint19_linear)"/>
</g>
<g filter="url(#filter7_iiii)">
<path d="M0 101.215C0 100.885 0.267347 100.618 0.597137 100.618H1.49284V134.057H0.597137C0.267347 134.057 0 133.79 0 133.46V101.215Z" fill="url(#paint20_linear)"/>
</g>
<g filter="url(#filter8_iiii)">
<path d="M214.759 112.56H215.654C215.984 112.56 216.252 112.828 216.252 113.158V163.914C216.252 164.244 215.984 164.511 215.654 164.511H214.759V112.56Z" fill="url(#paint21_linear)"/>
</g>
<g filter="url(#filter9_iiii)">
<path d="M0 142.119C0 141.789 0.267347 141.522 0.597137 141.522H1.49284V174.961H0.597137C0.267347 174.961 0 174.694 0 174.364V142.119Z" fill="url(#paint22_linear)"/>
</g>
</g>
<mask id="mask2" mask-type="alpha" maskUnits="userSpaceOnUse" x="11" y="10" width="194" height="418">
<path d="M14.1423 21.834C11.9316 26.177 11.9316 31.8623 11.9316 43.2328V394.767C11.9316 406.138 11.9316 411.823 14.1423 416.166C16.0869 419.986 19.1898 423.092 23.0063 425.039C27.345 427.252 33.0247 427.252 44.3842 427.252H171.868C183.227 427.252 188.907 427.252 193.246 425.039C197.062 423.092 200.165 419.986 202.11 416.166C204.32 411.823 204.32 406.138 204.32 394.767V43.2328C204.32 31.8623 204.32 26.177 202.11 21.834C200.165 18.0138 197.062 14.9079 193.246 12.9614C188.907 10.7486 183.227 10.7486 171.868 10.7486H161.899C161.405 10.7486 161.158 10.7486 160.96 10.8206C160.629 10.9413 160.368 11.2026 160.247 11.5344C160.175 11.7323 160.175 11.9794 160.175 12.4736C160.175 16.4276 160.175 18.4046 159.6 19.9877C158.635 22.6415 156.546 24.732 153.895 25.6979C152.314 26.2741 150.339 26.2741 146.388 26.2741H69.8637C65.9136 26.2741 63.9385 26.2741 62.357 25.6979C59.7058 24.732 57.6173 22.6415 56.6523 19.9877C56.0767 18.4046 56.0767 16.4276 56.0767 12.4736C56.0767 11.9794 56.0767 11.7323 56.0047 11.5344C55.8841 11.2026 55.623 10.9413 55.2916 10.8206C55.0939 10.7486 54.8471 10.7486 54.3533 10.7486H44.3842C33.0247 10.7486 27.345 10.7486 23.0063 12.9614C19.1898 14.9079 16.0869 18.0138 14.1423 21.834Z" fill="#161616"/>
</mask>
<g mask="url(#mask2)">
<rect x="73.4526" y="422.774" width="71.8164" height="2.3317" rx="1.16585" fill="#14142B"/>
<path opacity="0.8" d="M12.8281 10.9959H205.893V428.837H12.8281V10.9959Z" fill="black"/>
<path d="M12.2407 116.929C12.2407 108.687 18.9219 102.006 27.1636 102.006H189.088C197.33 102.006 204.011 108.687 204.011 116.929V428.424H12.2407V116.929Z" fill="white"/>
<rect x="73.4526" y="422.774" width="71.8164" height="2.3317" rx="1.16585" fill="#14142B"/>
<path d="M52.3257 124.122H55.1575V125.231H50.952V116.856H52.3257V124.122ZM55.8485 121.881C55.8485 121.214 55.985 120.623 56.2582 120.109C56.5393 119.595 56.9169 119.197 57.3909 118.916C57.8729 118.627 58.4031 118.482 58.9815 118.482C59.5037 118.482 59.9576 118.587 60.3432 118.796C60.7368 118.997 61.0501 119.25 61.2831 119.555V118.591H62.6689V125.231H61.2831V124.243C61.0501 124.556 60.7328 124.817 60.3311 125.026C59.9295 125.235 59.4716 125.339 58.9574 125.339C58.387 125.339 57.8649 125.194 57.3909 124.905C56.9169 124.608 56.5393 124.198 56.2582 123.676C55.985 123.146 55.8485 122.547 55.8485 121.881ZM61.2831 121.905C61.2831 121.447 61.1867 121.049 60.9939 120.712C60.8091 120.374 60.5641 120.117 60.2588 119.941C59.9536 119.764 59.6242 119.675 59.2707 119.675C58.9173 119.675 58.5879 119.764 58.2826 119.941C57.9773 120.109 57.7283 120.362 57.5355 120.7C57.3507 121.029 57.2583 121.423 57.2583 121.881C57.2583 122.339 57.3507 122.74 57.5355 123.086C57.7283 123.431 57.9773 123.696 58.2826 123.881C58.5959 124.058 58.9253 124.146 59.2707 124.146C59.6242 124.146 59.9536 124.058 60.2588 123.881C60.5641 123.704 60.8091 123.447 60.9939 123.11C61.1867 122.764 61.2831 122.363 61.2831 121.905ZM67.8232 118.482C68.3454 118.482 68.8113 118.591 69.221 118.808C69.6388 119.025 69.9641 119.346 70.1971 119.772C70.4301 120.198 70.5466 120.712 70.5466 121.314V125.231H69.1849V121.519C69.1849 120.925 69.0363 120.471 68.739 120.157C68.4418 119.836 68.0361 119.675 67.522 119.675C67.0078 119.675 66.5981 119.836 66.2928 120.157C65.9956 120.471 65.847 120.925 65.847 121.519V125.231H64.4732V118.591H65.847V119.35C66.0719 119.077 66.3571 118.864 66.7025 118.711C67.056 118.559 67.4296 118.482 67.8232 118.482ZM74.974 118.482C75.4882 118.482 75.942 118.587 76.3357 118.796C76.7374 118.997 77.0507 119.25 77.2756 119.555V118.591H78.6614V125.339C78.6614 125.95 78.5329 126.492 78.2758 126.966C78.0187 127.448 77.6452 127.825 77.1551 128.099C76.6731 128.372 76.0947 128.508 75.4199 128.508C74.5201 128.508 73.773 128.295 73.1785 127.87C72.584 127.452 72.2466 126.882 72.1663 126.159H73.528C73.6324 126.504 73.8533 126.781 74.1907 126.99C74.5362 127.207 74.9459 127.315 75.4199 127.315C75.9742 127.315 76.42 127.147 76.7574 126.809C77.1029 126.472 77.2756 125.982 77.2756 125.339V124.23C77.0426 124.544 76.7253 124.809 76.3236 125.026C75.93 125.235 75.4801 125.339 74.974 125.339C74.3956 125.339 73.8654 125.194 73.3834 124.905C72.9094 124.608 72.5318 124.198 72.2506 123.676C71.9775 123.146 71.8409 122.547 71.8409 121.881C71.8409 121.214 71.9775 120.623 72.2506 120.109C72.5318 119.595 72.9094 119.197 73.3834 118.916C73.8654 118.627 74.3956 118.482 74.974 118.482ZM77.2756 121.905C77.2756 121.447 77.1792 121.049 76.9864 120.712C76.8016 120.374 76.5566 120.117 76.2513 119.941C75.9461 119.764 75.6167 119.675 75.2632 119.675C74.9097 119.675 74.5804 119.764 74.2751 119.941C73.9698 120.109 73.7208 120.362 73.528 120.7C73.3432 121.029 73.2508 121.423 73.2508 121.881C73.2508 122.339 73.3432 122.74 73.528 123.086C73.7208 123.431 73.9698 123.696 74.2751 123.881C74.5884 124.058 74.9178 124.146 75.2632 124.146C75.6167 124.146 75.9461 124.058 76.2513 123.881C76.5566 123.704 76.8016 123.447 76.9864 123.11C77.1792 122.764 77.2756 122.363 77.2756 121.905ZM86.4788 118.591V125.231H85.1051V124.447C84.8882 124.721 84.603 124.937 84.2495 125.098C83.9041 125.251 83.5345 125.327 83.1409 125.327C82.6187 125.327 82.1487 125.219 81.731 125.002C81.3213 124.785 80.9959 124.463 80.7549 124.038C80.522 123.612 80.4055 123.098 80.4055 122.495V118.591H81.7672V122.29C81.7672 122.885 81.9158 123.343 82.213 123.664C82.5103 123.977 82.9159 124.134 83.4301 124.134C83.9442 124.134 84.3499 123.977 84.6472 123.664C84.9524 123.343 85.1051 122.885 85.1051 122.29V118.591H86.4788ZM87.8334 121.881C87.8334 121.214 87.97 120.623 88.2431 120.109C88.5243 119.595 88.9019 119.197 89.3759 118.916C89.8579 118.627 90.3881 118.482 90.9665 118.482C91.4887 118.482 91.9426 118.587 92.3282 118.796C92.7218 118.997 93.0351 119.25 93.2681 119.555V118.591H94.6539V125.231H93.2681V124.243C93.0351 124.556 92.7178 124.817 92.3161 125.026C91.9145 125.235 91.4565 125.339 90.9424 125.339C90.372 125.339 89.8498 125.194 89.3759 124.905C88.9019 124.608 88.5243 124.198 88.2431 123.676C87.97 123.146 87.8334 122.547 87.8334 121.881ZM93.2681 121.905C93.2681 121.447 93.1717 121.049 92.9789 120.712C92.7941 120.374 92.5491 120.117 92.2438 119.941C91.9386 119.764 91.6092 119.675 91.2557 119.675C90.9022 119.675 90.5729 119.764 90.2676 119.941C89.9623 120.109 89.7133 120.362 89.5205 120.7C89.3357 121.029 89.2433 121.423 89.2433 121.881C89.2433 122.339 89.3357 122.74 89.5205 123.086C89.7133 123.431 89.9623 123.696 90.2676 123.881C90.5809 124.058 90.9103 124.146 91.2557 124.146C91.6092 124.146 91.9386 124.058 92.2438 123.881C92.5491 123.704 92.7941 123.447 92.9789 123.11C93.1717 122.764 93.2681 122.363 93.2681 121.905ZM99.1334 118.482C99.6475 118.482 100.101 118.587 100.495 118.796C100.897 118.997 101.21 119.25 101.435 119.555V118.591H102.821V125.339C102.821 125.95 102.692 126.492 102.435 126.966C102.178 127.448 101.805 127.825 101.314 128.099C100.832 128.372 100.254 128.508 99.5792 128.508C98.6795 128.508 97.9324 128.295 97.3379 127.87C96.7434 127.452 96.406 126.882 96.3257 126.159H97.6873C97.7918 126.504 98.0127 126.781 98.3501 126.99C98.6956 127.207 99.1053 127.315 99.5792 127.315C100.134 127.315 100.579 127.147 100.917 126.809C101.262 126.472 101.435 125.982 101.435 125.339V124.23C101.202 124.544 100.885 124.809 100.483 125.026C100.089 125.235 99.6395 125.339 99.1334 125.339C98.555 125.339 98.0248 125.194 97.5427 124.905C97.0688 124.608 96.6912 124.198 96.41 123.676C96.1369 123.146 96.0003 122.547 96.0003 121.881C96.0003 121.214 96.1369 120.623 96.41 120.109C96.6912 119.595 97.0688 119.197 97.5427 118.916C98.0248 118.627 98.555 118.482 99.1334 118.482ZM101.435 121.905C101.435 121.447 101.339 121.049 101.146 120.712C100.961 120.374 100.716 120.117 100.411 119.941C100.105 119.764 99.7761 119.675 99.4226 119.675C99.0691 119.675 98.7397 119.764 98.4345 119.941C98.1292 120.109 97.8802 120.362 97.6873 120.7C97.5026 121.029 97.4102 121.423 97.4102 121.881C97.4102 122.339 97.5026 122.74 97.6873 123.086C97.8802 123.431 98.1292 123.696 98.4345 123.881C98.7478 124.058 99.0771 124.146 99.4226 124.146C99.7761 124.146 100.105 124.058 100.411 123.881C100.716 123.704 100.961 123.447 101.146 123.11C101.339 122.764 101.435 122.363 101.435 121.905ZM110.71 121.748C110.71 121.997 110.694 122.222 110.662 122.423H105.589C105.629 122.953 105.826 123.379 106.18 123.7C106.533 124.022 106.967 124.182 107.481 124.182C108.22 124.182 108.742 123.873 109.048 123.254H110.53C110.329 123.865 109.963 124.367 109.433 124.761C108.911 125.146 108.26 125.339 107.481 125.339C106.846 125.339 106.276 125.199 105.77 124.917C105.272 124.628 104.878 124.226 104.589 123.712C104.308 123.19 104.167 122.588 104.167 121.905C104.167 121.222 104.304 120.623 104.577 120.109C104.858 119.587 105.248 119.185 105.746 118.904C106.252 118.623 106.83 118.482 107.481 118.482C108.108 118.482 108.666 118.619 109.156 118.892C109.646 119.165 110.028 119.551 110.301 120.049C110.574 120.539 110.71 121.105 110.71 121.748ZM109.277 121.314C109.268 120.808 109.088 120.403 108.734 120.097C108.381 119.792 107.943 119.639 107.421 119.639C106.947 119.639 106.541 119.792 106.204 120.097C105.866 120.394 105.665 120.8 105.601 121.314H109.277ZM117.952 125.315C117.39 125.315 116.884 125.219 116.434 125.026C115.984 124.825 115.63 124.544 115.373 124.182C115.116 123.821 114.988 123.399 114.988 122.917H116.458C116.49 123.279 116.631 123.576 116.88 123.809C117.137 124.042 117.494 124.158 117.952 124.158C118.426 124.158 118.796 124.046 119.061 123.821C119.326 123.588 119.458 123.291 119.458 122.929C119.458 122.648 119.374 122.419 119.205 122.242C119.045 122.065 118.84 121.929 118.591 121.832C118.35 121.736 118.012 121.632 117.579 121.519C117.032 121.375 116.586 121.23 116.241 121.085C115.904 120.933 115.614 120.7 115.373 120.386C115.132 120.073 115.012 119.655 115.012 119.133C115.012 118.651 115.132 118.229 115.373 117.868C115.614 117.506 115.952 117.229 116.386 117.036C116.819 116.844 117.321 116.747 117.892 116.747C118.703 116.747 119.366 116.952 119.88 117.362C120.402 117.763 120.692 118.318 120.748 119.025H119.229C119.205 118.719 119.061 118.458 118.796 118.241C118.531 118.025 118.181 117.916 117.747 117.916C117.354 117.916 117.032 118.017 116.783 118.217C116.534 118.418 116.41 118.707 116.41 119.085C116.41 119.342 116.486 119.555 116.639 119.724C116.799 119.884 117 120.013 117.241 120.109C117.482 120.206 117.812 120.31 118.229 120.423C118.784 120.575 119.233 120.728 119.579 120.88C119.932 121.033 120.23 121.27 120.471 121.591C120.72 121.905 120.844 122.327 120.844 122.857C120.844 123.283 120.728 123.684 120.495 124.062C120.27 124.439 119.936 124.745 119.495 124.978C119.061 125.203 118.547 125.315 117.952 125.315ZM128.551 121.748C128.551 121.997 128.534 122.222 128.502 122.423H123.429C123.469 122.953 123.666 123.379 124.02 123.7C124.373 124.022 124.807 124.182 125.321 124.182C126.06 124.182 126.582 123.873 126.888 123.254H128.37C128.169 123.865 127.803 124.367 127.273 124.761C126.751 125.146 126.1 125.339 125.321 125.339C124.686 125.339 124.116 125.199 123.61 124.917C123.112 124.628 122.718 124.226 122.429 123.712C122.148 123.19 122.007 122.588 122.007 121.905C122.007 121.222 122.144 120.623 122.417 120.109C122.698 119.587 123.088 119.185 123.586 118.904C124.092 118.623 124.67 118.482 125.321 118.482C125.948 118.482 126.506 118.619 126.996 118.892C127.486 119.165 127.868 119.551 128.141 120.049C128.414 120.539 128.551 121.105 128.551 121.748ZM127.117 121.314C127.109 120.808 126.928 120.403 126.574 120.097C126.221 119.792 125.783 119.639 125.261 119.639C124.787 119.639 124.381 119.792 124.044 120.097C123.706 120.394 123.505 120.8 123.441 121.314H127.117ZM131.276 116.313V125.231H129.902V116.313H131.276ZM139.165 121.748C139.165 121.997 139.149 122.222 139.117 122.423H134.044C134.084 122.953 134.281 123.379 134.634 123.7C134.988 124.022 135.421 124.182 135.936 124.182C136.675 124.182 137.197 123.873 137.502 123.254H138.984C138.784 123.865 138.418 124.367 137.888 124.761C137.366 125.146 136.715 125.339 135.936 125.339C135.301 125.339 134.731 125.199 134.225 124.917C133.726 124.628 133.333 124.226 133.044 123.712C132.762 123.19 132.622 122.588 132.622 121.905C132.622 121.222 132.758 120.623 133.032 120.109C133.313 119.587 133.702 119.185 134.2 118.904C134.707 118.623 135.285 118.482 135.936 118.482C136.562 118.482 137.121 118.619 137.611 118.892C138.101 119.165 138.482 119.551 138.755 120.049C139.029 120.539 139.165 121.105 139.165 121.748ZM137.731 121.314C137.723 120.808 137.542 120.403 137.189 120.097C136.835 119.792 136.398 119.639 135.875 119.639C135.401 119.639 134.996 119.792 134.658 120.097C134.321 120.394 134.12 120.8 134.056 121.314H137.731ZM140.059 121.905C140.059 121.222 140.196 120.623 140.469 120.109C140.75 119.587 141.136 119.185 141.626 118.904C142.116 118.623 142.678 118.482 143.313 118.482C144.116 118.482 144.779 118.675 145.301 119.061C145.831 119.438 146.189 119.981 146.373 120.688H144.891C144.771 120.358 144.578 120.101 144.313 119.916C144.048 119.732 143.714 119.639 143.313 119.639C142.75 119.639 142.3 119.84 141.963 120.242C141.634 120.635 141.469 121.19 141.469 121.905C141.469 122.62 141.634 123.178 141.963 123.58C142.3 123.981 142.75 124.182 143.313 124.182C144.108 124.182 144.634 123.833 144.891 123.134H146.373C146.181 123.809 145.819 124.347 145.289 124.749C144.759 125.142 144.1 125.339 143.313 125.339C142.678 125.339 142.116 125.199 141.626 124.917C141.136 124.628 140.75 124.226 140.469 123.712C140.196 123.19 140.059 122.588 140.059 121.905ZM149.345 119.712V123.387C149.345 123.636 149.401 123.817 149.514 123.929C149.634 124.034 149.835 124.086 150.116 124.086H150.96V125.231H149.875C149.257 125.231 148.783 125.086 148.453 124.797C148.124 124.508 147.959 124.038 147.959 123.387V119.712H147.176V118.591H147.959V116.94H149.345V118.591H150.96V119.712H149.345ZM152.925 117.711C152.676 117.711 152.467 117.627 152.298 117.458C152.13 117.29 152.045 117.081 152.045 116.832C152.045 116.583 152.13 116.374 152.298 116.205C152.467 116.036 152.676 115.952 152.925 115.952C153.166 115.952 153.371 116.036 153.539 116.205C153.708 116.374 153.793 116.583 153.793 116.832C153.793 117.081 153.708 117.29 153.539 117.458C153.371 117.627 153.166 117.711 152.925 117.711ZM153.6 118.591V125.231H152.226V118.591H153.6ZM158.283 125.339C157.657 125.339 157.09 125.199 156.584 124.917C156.078 124.628 155.68 124.226 155.391 123.712C155.102 123.19 154.957 122.588 154.957 121.905C154.957 121.23 155.106 120.631 155.403 120.109C155.701 119.587 156.106 119.185 156.62 118.904C157.135 118.623 157.709 118.482 158.344 118.482C158.978 118.482 159.553 118.623 160.067 118.904C160.581 119.185 160.987 119.587 161.284 120.109C161.581 120.631 161.73 121.23 161.73 121.905C161.73 122.58 161.577 123.178 161.272 123.7C160.967 124.222 160.549 124.628 160.019 124.917C159.496 125.199 158.918 125.339 158.283 125.339ZM158.283 124.146C158.637 124.146 158.966 124.062 159.271 123.893C159.585 123.724 159.838 123.471 160.031 123.134C160.223 122.796 160.32 122.387 160.32 121.905C160.32 121.423 160.227 121.017 160.043 120.688C159.858 120.35 159.613 120.097 159.308 119.929C159.002 119.76 158.673 119.675 158.319 119.675C157.966 119.675 157.637 119.76 157.331 119.929C157.034 120.097 156.797 120.35 156.62 120.688C156.444 121.017 156.355 121.423 156.355 121.905C156.355 122.62 156.536 123.174 156.898 123.568C157.267 123.953 157.729 124.146 158.283 124.146ZM166.438 118.482C166.96 118.482 167.426 118.591 167.836 118.808C168.253 119.025 168.579 119.346 168.812 119.772C169.045 120.198 169.161 120.712 169.161 121.314V125.231H167.799V121.519C167.799 120.925 167.651 120.471 167.354 120.157C167.056 119.836 166.651 119.675 166.136 119.675C165.622 119.675 165.213 119.836 164.907 120.157C164.61 120.471 164.461 120.925 164.461 121.519V125.231H163.088V118.591H164.461V119.35C164.686 119.077 164.972 118.864 165.317 118.711C165.67 118.559 166.044 118.482 166.438 118.482Z" fill="#14142B"/>
<path d="M121.137 214.892C125.875 214.891 130.482 213.343 134.259 210.483C138.036 207.622 140.774 203.607 142.059 199.046C143.343 194.486 143.102 189.631 141.373 185.22C139.643 180.81 136.52 177.085 132.479 174.612L121.137 163.27L122.397 171.458C121.98 171.434 121.56 171.421 121.137 171.421C118.278 171.413 115.445 171.97 112.801 173.059C110.158 174.147 107.755 175.747 105.73 177.766C103.706 179.785 102.099 182.184 101.003 184.825C99.9074 187.466 99.3433 190.297 99.3433 193.156C99.3433 196.016 99.9074 198.847 101.003 201.488C102.099 204.128 103.706 206.527 105.73 208.546C107.755 210.565 110.158 212.165 112.801 213.254C115.445 214.343 118.278 214.899 121.137 214.892Z" fill="#FBB540"/>
<path d="M91.7231 151.675C87.1459 151.676 82.6942 153.171 79.0453 155.935C75.3965 158.698 72.7504 162.578 71.5098 166.984C70.2692 171.39 70.5019 176.081 72.1726 180.342C73.8433 184.603 76.8604 188.202 80.7649 190.591L91.7231 201.549L90.5061 193.638C90.9089 193.661 91.3145 193.674 91.7231 193.674C97.2926 193.674 102.634 191.462 106.572 187.524C110.51 183.585 112.723 178.244 112.723 172.675C112.723 167.105 110.51 161.764 106.572 157.826C102.634 153.888 97.2926 151.675 91.7231 151.675Z" fill="#43DCFE"/>
<path d="M99.1342 178.278L92.8999 164.563C92.8009 164.345 92.6412 164.16 92.4399 164.031C92.2386 163.901 92.0042 163.832 91.7648 163.832C91.5254 163.832 91.2911 163.901 91.0898 164.031C90.8885 164.16 90.7288 164.345 90.6297 164.563L84.3955 178.278C84.2586 178.58 84.247 178.923 84.3631 179.232C84.4792 179.542 84.7135 179.793 85.0145 179.93C85.3156 180.066 85.6587 180.078 85.9683 179.962C86.278 179.846 86.5288 179.612 86.6657 179.311L88.0338 176.301H95.4959L96.864 179.311C97.0008 179.612 97.2517 179.846 97.5613 179.962C97.871 180.078 98.2141 180.066 98.5151 179.93C98.8162 179.793 99.0505 179.542 99.1666 179.232C99.2827 178.923 99.271 178.58 99.1342 178.278ZM89.1672 173.807L91.7648 168.092L94.3625 173.807H89.1672Z" fill="#0276B4"/>
<path d="M129.794 185.073V187.033H127.077V201.55H124.762V194.692L121.689 194.67C121.838 195.1 121.912 195.553 121.912 196.028C121.912 197.319 121.496 198.358 120.665 199.145C119.834 199.932 118.735 200.325 117.37 200.325C116.39 200.325 115.514 200.132 114.743 199.746C113.986 199.36 113.392 198.826 112.961 198.143C112.546 197.445 112.338 196.651 112.338 195.761H114.52C114.52 196.503 114.765 197.119 115.255 197.609C115.759 198.084 116.412 198.321 117.214 198.321C118.001 198.321 118.624 198.091 119.084 197.631C119.544 197.171 119.774 196.562 119.774 195.805C119.774 195.375 119.693 194.996 119.53 194.67H119.485V194.558C119.01 193.712 118.171 193.289 116.969 193.289H116.056V191.397H116.969C117.785 191.397 118.416 191.181 118.862 190.751C119.322 190.306 119.552 189.779 119.552 189.17C119.552 188.473 119.322 187.916 118.862 187.5C118.416 187.07 117.852 186.855 117.169 186.855C116.457 186.855 115.856 187.062 115.366 187.478C114.891 187.879 114.653 188.421 114.653 189.103H112.494C112.494 188.257 112.687 187.515 113.073 186.877C113.473 186.239 114.03 185.749 114.743 185.407C115.455 185.051 116.264 184.873 117.169 184.873C118.505 184.873 119.581 185.237 120.398 185.964C121.229 186.691 121.645 187.656 121.645 188.858C121.645 189.705 121.422 190.432 120.977 191.04C120.531 191.634 119.886 192.042 119.04 192.265V192.31C119.455 192.399 119.841 192.547 120.197 192.755H124.762V185.073H129.794Z" fill="#A76E1A"/>
<path d="M25.5919 245.934C25.5919 245.2 25.7558 244.544 26.0837 243.967C26.4186 243.382 26.8712 242.93 27.4413 242.609C28.0186 242.281 28.6636 242.117 29.3763 242.117C30.2101 242.117 30.9406 242.331 31.5677 242.759C32.1949 243.187 32.6332 243.778 32.8826 244.533H31.1615C30.9905 244.177 30.7482 243.91 30.4346 243.732C30.1281 243.554 29.7718 243.464 29.3656 243.464C28.9308 243.464 28.5424 243.568 28.2003 243.774C27.8654 243.974 27.6017 244.259 27.4093 244.63C27.224 245 27.1313 245.435 27.1313 245.934C27.1313 246.426 27.224 246.86 27.4093 247.238C27.6017 247.609 27.8654 247.897 28.2003 248.104C28.5424 248.304 28.9308 248.403 29.3656 248.403C29.7718 248.403 30.1281 248.314 30.4346 248.136C30.7482 247.951 30.9905 247.68 31.1615 247.324H32.8826C32.6332 248.086 32.1949 248.681 31.5677 249.109C30.9477 249.529 30.2172 249.74 29.3763 249.74C28.6636 249.74 28.0186 249.579 27.4413 249.259C26.8712 248.931 26.4186 248.478 26.0837 247.901C25.7558 247.324 25.5919 246.668 25.5919 245.934ZM37.4963 243.668C37.9453 243.668 38.3444 243.767 38.6936 243.967C39.0428 244.159 39.3136 244.448 39.506 244.833C39.7056 245.211 39.8054 245.667 39.8054 246.201V249.675H38.3087V246.404C38.3087 245.934 38.1912 245.574 37.956 245.325C37.7208 245.068 37.4001 244.94 36.9939 244.94C36.5805 244.94 36.2527 245.068 36.0104 245.325C35.7752 245.574 35.6576 245.934 35.6576 246.404V249.675H34.161V241.765H35.6576V244.491C35.85 244.234 36.1066 244.035 36.4273 243.892C36.748 243.742 37.1043 243.668 37.4963 243.668ZM43.8584 249.772C43.2882 249.772 42.7751 249.647 42.319 249.398C41.8629 249.141 41.503 248.781 41.2393 248.318C40.9827 247.855 40.8544 247.32 40.8544 246.714C40.8544 246.108 40.9863 245.574 41.25 245.111C41.5208 244.647 41.8878 244.291 42.3511 244.042C42.8143 243.785 43.331 243.657 43.9011 243.657C44.4713 243.657 44.988 243.785 45.4512 244.042C45.9145 244.291 46.2779 244.647 46.5416 245.111C46.8124 245.574 46.9478 246.108 46.9478 246.714C46.9478 247.32 46.8089 247.855 46.5309 248.318C46.2601 248.781 45.8895 249.141 45.4191 249.398C44.9559 249.647 44.4356 249.772 43.8584 249.772ZM43.8584 248.467C44.1292 248.467 44.3822 248.403 44.6174 248.275C44.8597 248.14 45.0521 247.94 45.1946 247.676C45.3372 247.413 45.4085 247.092 45.4085 246.714C45.4085 246.151 45.2588 245.72 44.9595 245.421C44.6673 245.114 44.3074 244.961 43.8798 244.961C43.4521 244.961 43.0922 245.114 42.8 245.421C42.515 245.72 42.3724 246.151 42.3724 246.714C42.3724 247.277 42.5114 247.712 42.7894 248.018C43.0744 248.318 43.4308 248.467 43.8584 248.467ZM50.6755 249.772C50.1053 249.772 49.5922 249.647 49.1361 249.398C48.68 249.141 48.3201 248.781 48.0564 248.318C47.7998 247.855 47.6715 247.32 47.6715 246.714C47.6715 246.108 47.8034 245.574 48.0671 245.111C48.3379 244.647 48.7049 244.291 49.1681 244.042C49.6314 243.785 50.1481 243.657 50.7182 243.657C51.2884 243.657 51.8051 243.785 52.2683 244.042C52.7315 244.291 53.095 244.647 53.3587 245.111C53.6295 245.574 53.7649 246.108 53.7649 246.714C53.7649 247.32 53.626 247.855 53.348 248.318C53.0772 248.781 52.7066 249.141 52.2362 249.398C51.773 249.647 51.2527 249.772 50.6755 249.772ZM50.6755 248.467C50.9463 248.467 51.1993 248.403 51.4345 248.275C51.6768 248.14 51.8692 247.94 52.0117 247.676C52.1543 247.413 52.2255 247.092 52.2255 246.714C52.2255 246.151 52.0759 245.72 51.7765 245.421C51.4843 245.114 51.1244 244.961 50.6968 244.961C50.2692 244.961 49.9093 245.114 49.6171 245.421C49.3321 245.72 49.1895 246.151 49.1895 246.714C49.1895 247.277 49.3285 247.712 49.6064 248.018C49.8915 248.318 50.2479 248.467 50.6755 248.467ZM57.1291 249.772C56.6445 249.772 56.2097 249.686 55.8249 249.515C55.44 249.337 55.1336 249.098 54.9055 248.799C54.6846 248.5 54.5634 248.168 54.542 247.805H56.0494C56.0779 248.033 56.1883 248.222 56.3808 248.371C56.5803 248.521 56.8262 248.596 57.1184 248.596C57.4035 248.596 57.6244 248.539 57.7812 248.425C57.9451 248.311 58.0271 248.165 58.0271 247.986C58.0271 247.794 57.9273 247.651 57.7277 247.559C57.5353 247.459 57.2253 247.352 56.7977 247.238C56.3558 247.131 55.9924 247.021 55.7073 246.907C55.4293 246.793 55.187 246.618 54.9803 246.383C54.7808 246.148 54.681 245.831 54.681 245.431C54.681 245.104 54.7737 244.804 54.959 244.533C55.1514 244.263 55.4222 244.049 55.7714 243.892C56.1278 243.735 56.5447 243.657 57.0222 243.657C57.7277 243.657 58.2907 243.835 58.7112 244.191C59.1317 244.541 59.3633 245.015 59.4061 245.613H57.9736C57.9522 245.378 57.8524 245.193 57.6743 245.057C57.5032 244.915 57.2716 244.843 56.9794 244.843C56.7086 244.843 56.4984 244.893 56.3487 244.993C56.2062 245.093 56.1349 245.232 56.1349 245.41C56.1349 245.61 56.2347 245.763 56.4342 245.87C56.6338 245.97 56.9438 246.073 57.3643 246.18C57.7919 246.287 58.1446 246.397 58.4226 246.511C58.7005 246.625 58.9393 246.803 59.1388 247.046C59.3455 247.281 59.4524 247.594 59.4595 247.986C59.4595 248.328 59.3633 248.635 59.1709 248.906C58.9856 249.177 58.7148 249.39 58.3584 249.547C58.0092 249.697 57.5994 249.772 57.1291 249.772ZM66.1935 246.586C66.1935 246.8 66.1793 246.992 66.1508 247.163H61.8212C61.8569 247.591 62.0065 247.926 62.2702 248.168C62.5339 248.41 62.8582 248.532 63.243 248.532C63.7989 248.532 64.1945 248.293 64.4296 247.815H66.0439C65.8728 248.385 65.545 248.856 65.0604 249.226C64.5757 249.59 63.9807 249.772 63.2751 249.772C62.705 249.772 62.1918 249.647 61.7357 249.398C61.2867 249.141 60.9339 248.781 60.6774 248.318C60.4279 247.855 60.3032 247.32 60.3032 246.714C60.3032 246.101 60.4279 245.563 60.6774 245.1C60.9268 244.637 61.276 244.28 61.725 244.031C62.174 243.782 62.6907 243.657 63.2751 243.657C63.8381 243.657 64.3406 243.778 64.7824 244.02C65.2314 244.263 65.5771 244.608 65.8194 245.057C66.0688 245.499 66.1935 246.009 66.1935 246.586ZM64.6434 246.158C64.6363 245.774 64.4973 245.467 64.2265 245.239C63.9557 245.004 63.6243 244.886 63.2323 244.886C62.8617 244.886 62.5482 245 62.2916 245.228C62.0422 245.449 61.8889 245.759 61.8319 246.158H64.6434ZM75.7663 242.214L73.2434 247.078V249.675H71.7467V247.078L69.2132 242.214H70.9022L72.5057 245.624L74.0986 242.214H75.7663ZM79.2592 249.772C78.689 249.772 78.1759 249.647 77.7198 249.398C77.2637 249.141 76.9038 248.781 76.6401 248.318C76.3835 247.855 76.2552 247.32 76.2552 246.714C76.2552 246.108 76.3871 245.574 76.6508 245.111C76.9216 244.647 77.2886 244.291 77.7519 244.042C78.2151 243.785 78.7318 243.657 79.3019 243.657C79.8721 243.657 80.3888 243.785 80.852 244.042C81.3153 244.291 81.6787 244.647 81.9424 245.111C82.2132 245.574 82.3487 246.108 82.3487 246.714C82.3487 247.32 82.2097 247.855 81.9317 248.318C81.6609 248.781 81.2903 249.141 80.82 249.398C80.3567 249.647 79.8365 249.772 79.2592 249.772ZM79.2592 248.467C79.53 248.467 79.783 248.403 80.0182 248.275C80.2605 248.14 80.4529 247.94 80.5955 247.676C80.738 247.413 80.8093 247.092 80.8093 246.714C80.8093 246.151 80.6596 245.72 80.3603 245.421C80.0681 245.114 79.7082 244.961 79.2806 244.961C78.853 244.961 78.4931 245.114 78.2009 245.421C77.9158 245.72 77.7733 246.151 77.7733 246.714C77.7733 247.277 77.9122 247.712 78.1902 248.018C78.4752 248.318 78.8316 248.467 79.2592 248.467ZM89.0375 243.753V249.675H87.5301V248.927C87.3377 249.184 87.0847 249.387 86.7711 249.536C86.4647 249.679 86.1297 249.75 85.7663 249.75C85.303 249.75 84.8932 249.654 84.5369 249.462C84.1805 249.262 83.899 248.973 83.6924 248.596C83.4928 248.211 83.393 247.755 83.393 247.227V243.753H84.8897V247.014C84.8897 247.484 85.0073 247.847 85.2424 248.104C85.4776 248.353 85.7983 248.478 86.2046 248.478C86.6179 248.478 86.9422 248.353 87.1774 248.104C87.4125 247.847 87.5301 247.484 87.5301 247.014V243.753H89.0375ZM92.0107 244.672C92.2032 244.359 92.4526 244.113 92.7591 243.935C93.0726 243.757 93.429 243.668 93.8281 243.668V245.239H93.4325C92.9622 245.239 92.6058 245.349 92.3635 245.57C92.1283 245.791 92.0107 246.176 92.0107 246.725V249.675H90.5141V243.753H92.0107V244.672ZM102.461 242.214V243.422H100.473V249.675H98.9762V243.422H96.9879V242.214H102.461ZM109.059 246.586C109.059 246.8 109.044 246.992 109.016 247.163H104.686C104.722 247.591 104.872 247.926 105.135 248.168C105.399 248.41 105.723 248.532 106.108 248.532C106.664 248.532 107.06 248.293 107.295 247.815H108.909C108.738 248.385 108.41 248.856 107.926 249.226C107.441 249.59 106.846 249.772 106.14 249.772C105.57 249.772 105.057 249.647 104.601 249.398C104.152 249.141 103.799 248.781 103.543 248.318C103.293 247.855 103.168 247.32 103.168 246.714C103.168 246.101 103.293 245.563 103.543 245.1C103.792 244.637 104.141 244.28 104.59 244.031C105.039 243.782 105.556 243.657 106.14 243.657C106.703 243.657 107.206 243.778 107.648 244.02C108.097 244.263 108.442 244.608 108.685 245.057C108.934 245.499 109.059 246.009 109.059 246.586ZM107.509 246.158C107.501 245.774 107.362 245.467 107.092 245.239C106.821 245.004 106.489 244.886 106.097 244.886C105.727 244.886 105.413 245 105.157 245.228C104.907 245.449 104.754 245.759 104.697 246.158H107.509ZM112.417 249.772C111.933 249.772 111.498 249.686 111.113 249.515C110.728 249.337 110.422 249.098 110.194 248.799C109.973 248.5 109.852 248.168 109.83 247.805H111.338C111.366 248.033 111.477 248.222 111.669 248.371C111.869 248.521 112.115 248.596 112.407 248.596C112.692 248.596 112.913 248.539 113.069 248.425C113.233 248.311 113.315 248.165 113.315 247.986C113.315 247.794 113.216 247.651 113.016 247.559C112.824 247.459 112.514 247.352 112.086 247.238C111.644 247.131 111.281 247.021 110.996 246.907C110.718 246.793 110.475 246.618 110.269 246.383C110.069 246.148 109.969 245.831 109.969 245.431C109.969 245.104 110.062 244.804 110.247 244.533C110.44 244.263 110.711 244.049 111.06 243.892C111.416 243.735 111.833 243.657 112.31 243.657C113.016 243.657 113.579 243.835 114 244.191C114.42 244.541 114.652 245.015 114.694 245.613H113.262C113.241 245.378 113.141 245.193 112.963 245.057C112.792 244.915 112.56 244.843 112.268 244.843C111.997 244.843 111.787 244.893 111.637 244.993C111.494 245.093 111.423 245.232 111.423 245.41C111.423 245.61 111.523 245.763 111.723 245.87C111.922 245.97 112.232 246.073 112.653 246.18C113.08 246.287 113.433 246.397 113.711 246.511C113.989 246.625 114.228 246.803 114.427 247.046C114.634 247.281 114.741 247.594 114.748 247.986C114.748 248.328 114.652 248.635 114.459 248.906C114.274 249.177 114.003 249.39 113.647 249.547C113.298 249.697 112.888 249.772 112.417 249.772ZM117.719 244.982V247.847C117.719 248.047 117.765 248.193 117.858 248.286C117.958 248.371 118.122 248.414 118.35 248.414H119.044V249.675H118.104C116.842 249.675 116.212 249.063 116.212 247.837V244.982H115.506V243.753H116.212V242.289H117.719V243.753H119.044V244.982H117.719ZM124.165 248.489H126.624V249.675H122.668V242.214H124.165V248.489ZM127.19 246.693C127.19 246.094 127.308 245.563 127.543 245.1C127.785 244.637 128.109 244.28 128.516 244.031C128.929 243.782 129.389 243.657 129.895 243.657C130.336 243.657 130.721 243.746 131.049 243.924C131.384 244.102 131.651 244.327 131.851 244.598V243.753H133.358V249.675H131.851V248.81C131.658 249.087 131.391 249.319 131.049 249.504C130.714 249.683 130.326 249.772 129.884 249.772C129.385 249.772 128.929 249.643 128.516 249.387C128.109 249.13 127.785 248.77 127.543 248.307C127.308 247.837 127.19 247.299 127.19 246.693ZM131.851 246.714C131.851 246.351 131.78 246.041 131.637 245.784C131.495 245.521 131.302 245.321 131.06 245.186C130.818 245.043 130.557 244.972 130.279 244.972C130.002 244.972 129.745 245.039 129.51 245.175C129.275 245.31 129.082 245.51 128.932 245.774C128.79 246.03 128.719 246.337 128.719 246.693C128.719 247.049 128.79 247.363 128.932 247.634C129.082 247.897 129.275 248.1 129.51 248.243C129.752 248.385 130.009 248.457 130.279 248.457C130.557 248.457 130.818 248.389 131.06 248.254C131.302 248.111 131.495 247.912 131.637 247.655C131.78 247.391 131.851 247.078 131.851 246.714ZM138.102 243.668C138.807 243.668 139.378 243.892 139.812 244.341C140.247 244.783 140.464 245.403 140.464 246.201V249.675H138.968V246.404C138.968 245.934 138.85 245.574 138.615 245.325C138.38 245.068 138.059 244.94 137.653 244.94C137.239 244.94 136.912 245.068 136.669 245.325C136.434 245.574 136.317 245.934 136.317 246.404V249.675H134.82V243.753H136.317V244.491C136.516 244.234 136.769 244.035 137.076 243.892C137.389 243.742 137.731 243.668 138.102 243.668ZM144.207 243.657C144.649 243.657 145.038 243.746 145.373 243.924C145.708 244.095 145.971 244.32 146.164 244.598V243.753H147.671V249.718C147.671 250.267 147.561 250.755 147.34 251.183C147.119 251.617 146.787 251.96 146.345 252.209C145.904 252.466 145.369 252.594 144.742 252.594C143.901 252.594 143.21 252.398 142.668 252.006C142.133 251.614 141.831 251.079 141.759 250.402H143.245C143.324 250.673 143.491 250.887 143.748 251.044C144.011 251.208 144.329 251.29 144.699 251.29C145.134 251.29 145.487 251.158 145.757 250.894C146.028 250.638 146.164 250.246 146.164 249.718V248.799C145.971 249.077 145.704 249.308 145.362 249.494C145.027 249.679 144.642 249.772 144.207 249.772C143.708 249.772 143.252 249.643 142.839 249.387C142.426 249.13 142.098 248.77 141.856 248.307C141.62 247.837 141.503 247.299 141.503 246.693C141.503 246.094 141.62 245.563 141.856 245.1C142.098 244.637 142.422 244.28 142.828 244.031C143.242 243.782 143.701 243.657 144.207 243.657ZM146.164 246.714C146.164 246.351 146.092 246.041 145.95 245.784C145.807 245.521 145.615 245.321 145.373 245.186C145.13 245.043 144.87 244.972 144.592 244.972C144.314 244.972 144.058 245.039 143.823 245.175C143.587 245.31 143.395 245.51 143.245 245.774C143.103 246.03 143.031 246.337 143.031 246.693C143.031 247.049 143.103 247.363 143.245 247.634C143.395 247.897 143.587 248.1 143.823 248.243C144.065 248.385 144.321 248.457 144.592 248.457C144.87 248.457 145.13 248.389 145.373 248.254C145.615 248.111 145.807 247.912 145.95 247.655C146.092 247.391 146.164 247.078 146.164 246.714ZM154.724 243.753V249.675H153.216V248.927C153.024 249.184 152.771 249.387 152.457 249.536C152.151 249.679 151.816 249.75 151.452 249.75C150.989 249.75 150.579 249.654 150.223 249.462C149.867 249.262 149.585 248.973 149.379 248.596C149.179 248.211 149.079 247.755 149.079 247.227V243.753H150.576V247.014C150.576 247.484 150.693 247.847 150.929 248.104C151.164 248.353 151.485 248.478 151.891 248.478C152.304 248.478 152.628 248.353 152.864 248.104C153.099 247.847 153.216 247.484 153.216 247.014V243.753H154.724ZM155.815 246.693C155.815 246.094 155.933 245.563 156.168 245.1C156.411 244.637 156.735 244.28 157.141 244.031C157.554 243.782 158.014 243.657 158.52 243.657C158.962 243.657 159.347 243.746 159.675 243.924C160.01 244.102 160.277 244.327 160.476 244.598V243.753H161.984V249.675H160.476V248.81C160.284 249.087 160.017 249.319 159.675 249.504C159.34 249.683 158.951 249.772 158.509 249.772C158.011 249.772 157.554 249.643 157.141 249.387C156.735 249.13 156.411 248.77 156.168 248.307C155.933 247.837 155.815 247.299 155.815 246.693ZM160.476 246.714C160.476 246.351 160.405 246.041 160.263 245.784C160.12 245.521 159.928 245.321 159.685 245.186C159.443 245.043 159.183 244.972 158.905 244.972C158.627 244.972 158.37 245.039 158.135 245.175C157.9 245.31 157.708 245.51 157.558 245.774C157.415 246.03 157.344 246.337 157.344 246.693C157.344 247.049 157.415 247.363 157.558 247.634C157.708 247.897 157.9 248.1 158.135 248.243C158.378 248.385 158.634 248.457 158.905 248.457C159.183 248.457 159.443 248.389 159.685 248.254C159.928 248.111 160.12 247.912 160.263 247.655C160.405 247.391 160.476 247.078 160.476 246.714ZM165.765 243.657C166.207 243.657 166.595 243.746 166.93 243.924C167.265 244.095 167.529 244.32 167.722 244.598V243.753H169.229V249.718C169.229 250.267 169.118 250.755 168.897 251.183C168.676 251.617 168.345 251.96 167.903 252.209C167.461 252.466 166.927 252.594 166.3 252.594C165.459 252.594 164.767 252.398 164.226 252.006C163.691 251.614 163.388 251.079 163.317 250.402H164.803C164.881 250.673 165.049 250.887 165.306 251.044C165.569 251.208 165.886 251.29 166.257 251.29C166.692 251.29 167.044 251.158 167.315 250.894C167.586 250.638 167.722 250.246 167.722 249.718V248.799C167.529 249.077 167.262 249.308 166.92 249.494C166.585 249.679 166.2 249.772 165.765 249.772C165.266 249.772 164.81 249.643 164.397 249.387C163.984 249.13 163.656 248.77 163.413 248.307C163.178 247.837 163.061 247.299 163.061 246.693C163.061 246.094 163.178 245.563 163.413 245.1C163.656 244.637 163.98 244.28 164.386 244.031C164.8 243.782 165.259 243.657 165.765 243.657ZM167.722 246.714C167.722 246.351 167.65 246.041 167.508 245.784C167.365 245.521 167.173 245.321 166.93 245.186C166.688 245.043 166.428 244.972 166.15 244.972C165.872 244.972 165.616 245.039 165.38 245.175C165.145 245.31 164.953 245.51 164.803 245.774C164.661 246.03 164.589 246.337 164.589 246.693C164.589 247.049 164.661 247.363 164.803 247.634C164.953 247.897 165.145 248.1 165.38 248.243C165.623 248.385 165.879 248.457 166.15 248.457C166.428 248.457 166.688 248.389 166.93 248.254C167.173 248.111 167.365 247.912 167.508 247.655C167.65 247.391 167.722 247.078 167.722 246.714ZM176.196 246.586C176.196 246.8 176.182 246.992 176.153 247.163H171.824C171.859 247.591 172.009 247.926 172.273 248.168C172.536 248.41 172.861 248.532 173.245 248.532C173.801 248.532 174.197 248.293 174.432 247.815H176.046C175.875 248.385 175.547 248.856 175.063 249.226C174.578 249.59 173.983 249.772 173.278 249.772C172.707 249.772 172.194 249.647 171.738 249.398C171.289 249.141 170.936 248.781 170.68 248.318C170.43 247.855 170.306 247.32 170.306 246.714C170.306 246.101 170.43 245.563 170.68 245.1C170.929 244.637 171.278 244.28 171.727 244.031C172.176 243.782 172.693 243.657 173.278 243.657C173.841 243.657 174.343 243.778 174.785 244.02C175.234 244.263 175.58 244.608 175.822 245.057C176.071 245.499 176.196 246.009 176.196 246.586ZM174.646 246.158C174.639 245.774 174.5 245.467 174.229 245.239C173.958 245.004 173.627 244.886 173.235 244.886C172.864 244.886 172.551 245 172.294 245.228C172.045 245.449 171.891 245.759 171.834 246.158H174.646Z" fill="#14142B"/>
<path d="M24.4873 265.352C24.4873 264.58 25.1137 263.953 25.8864 263.953H192.836C193.609 263.953 194.235 264.58 194.235 265.352V287.737C194.235 288.509 193.609 289.136 192.836 289.136H25.8864C25.1137 289.136 24.4873 288.509 24.4873 287.737V265.352Z" stroke="#BDBDBD" stroke-width="0.932681"/>
<path d="M36.8204 273.402V274.35H34.9358V280.482H33.7745V274.35H31.8797V273.402H36.8204ZM43.1409 277.538C43.1409 277.749 43.1273 277.939 43.1002 278.109H38.8115C38.8454 278.557 39.0118 278.917 39.3106 279.189C39.6094 279.46 39.9762 279.596 40.4108 279.596C41.0356 279.596 41.4771 279.335 41.7351 278.812H42.9881C42.8183 279.328 42.5093 279.752 42.0611 280.085C41.6197 280.411 41.0696 280.574 40.4108 280.574C39.8743 280.574 39.3921 280.455 38.9643 280.218C38.5432 279.973 38.2104 279.633 37.9659 279.199C37.7282 278.757 37.6094 278.248 37.6094 277.671C37.6094 277.094 37.7249 276.588 37.9558 276.153C38.1935 275.711 38.5228 275.372 38.9439 275.134C39.3717 274.897 39.8607 274.778 40.4108 274.778C40.9405 274.778 41.4125 274.893 41.8268 275.124C42.2411 275.355 42.5637 275.681 42.7946 276.102C43.0255 276.516 43.1409 276.995 43.1409 277.538ZM41.9287 277.172C41.9219 276.744 41.7691 276.401 41.4703 276.143C41.1714 275.885 40.8013 275.756 40.3599 275.756C39.9592 275.756 39.6162 275.885 39.331 276.143C39.0458 276.394 38.876 276.737 38.8216 277.172H41.9287ZM45.4451 272.944V280.482H44.2838V272.944H45.4451ZM52.0531 274.869V280.482H50.8918V279.82C50.7084 280.051 50.4673 280.235 50.1685 280.37C49.8765 280.499 49.5641 280.564 49.2313 280.564C48.7899 280.564 48.3926 280.472 48.0394 280.289C47.6931 280.105 47.418 279.834 47.2143 279.474C47.0173 279.114 46.9189 278.679 46.9189 278.17V274.869H48.07V277.997C48.07 278.499 48.1956 278.886 48.4469 279.158C48.6982 279.423 49.0411 279.555 49.4758 279.555C49.9104 279.555 50.2534 279.423 50.5047 279.158C50.7627 278.886 50.8918 278.499 50.8918 277.997V274.869H52.0531ZM55.8468 274.778C56.2815 274.778 56.6652 274.866 56.998 275.043C57.3375 275.212 57.6024 275.426 57.7926 275.684V274.869H58.9641V280.574C58.9641 281.09 58.8554 281.549 58.6381 281.949C58.4208 282.357 58.105 282.676 57.6907 282.907C57.2832 283.138 56.7942 283.253 56.2238 283.253C55.4631 283.253 54.8315 283.073 54.329 282.713C53.8264 282.36 53.5412 281.878 53.4733 281.267H54.6244C54.7127 281.559 54.8995 281.793 55.1847 281.97C55.4767 282.153 55.8231 282.245 56.2238 282.245C56.6924 282.245 57.0693 282.102 57.3545 281.817C57.6465 281.532 57.7926 281.117 57.7926 280.574V279.637C57.5956 279.902 57.3274 280.126 56.9878 280.309C56.655 280.486 56.2747 280.574 55.8468 280.574C55.3579 280.574 54.9096 280.452 54.5022 280.207C54.1015 279.956 53.7823 279.61 53.5446 279.168C53.3137 278.72 53.1982 278.214 53.1982 277.65C53.1982 277.087 53.3137 276.588 53.5446 276.153C53.7823 275.718 54.1015 275.382 54.5022 275.144C54.9096 274.9 55.3579 274.778 55.8468 274.778ZM57.7926 277.671C57.7926 277.284 57.7111 276.948 57.5481 276.662C57.3919 276.377 57.1847 276.16 56.9267 276.01C56.6686 275.861 56.3902 275.786 56.0913 275.786C55.7925 275.786 55.5141 275.861 55.256 276.01C54.9979 276.153 54.7874 276.367 54.6244 276.652C54.4682 276.931 54.3901 277.263 54.3901 277.65C54.3901 278.038 54.4682 278.377 54.6244 278.669C54.7874 278.961 54.9979 279.185 55.256 279.341C55.5209 279.491 55.7993 279.566 56.0913 279.566C56.3902 279.566 56.6686 279.491 56.9267 279.341C57.1847 279.192 57.3919 278.975 57.5481 278.689C57.7111 278.397 57.7926 278.058 57.7926 277.671ZM65.5727 274.869V280.482H64.4114V279.82C64.228 280.051 63.9869 280.235 63.6881 280.37C63.3961 280.499 63.0837 280.564 62.7509 280.564C62.3095 280.564 61.9122 280.472 61.559 280.289C61.2127 280.105 60.9376 279.834 60.7339 279.474C60.5369 279.114 60.4385 278.679 60.4385 278.17V274.869H61.5896V277.997C61.5896 278.499 61.7152 278.886 61.9665 279.158C62.2178 279.423 62.5607 279.555 62.9954 279.555C63.43 279.555 63.773 279.423 64.0243 279.158C64.2823 278.886 64.4114 278.499 64.4114 277.997V274.869H65.5727Z" fill="#14142B"/>
<g filter="url(#filter10_d)">
<path d="M24.021 381.27C24.021 373.543 30.2846 367.28 38.0112 367.28H180.711C188.438 367.28 194.702 373.543 194.702 381.27C194.702 388.996 188.438 395.26 180.711 395.26H38.0112C30.2846 395.26 24.021 388.996 24.021 381.27Z" fill="#603BE6"/>
</g>
<path d="M106.093 383.674H105.242L102.683 379.801V383.674H101.832V378.481H102.683L105.242 382.346V378.481H106.093V383.674ZM110.978 381.518C110.978 381.672 110.968 381.811 110.948 381.935H107.807C107.832 382.264 107.954 382.527 108.172 382.726C108.391 382.925 108.66 383.025 108.978 383.025C109.436 383.025 109.759 382.833 109.948 382.45H110.866C110.742 382.828 110.515 383.139 110.187 383.383C109.864 383.622 109.461 383.741 108.978 383.741C108.585 383.741 108.232 383.654 107.919 383.48C107.61 383.301 107.367 383.052 107.188 382.734C107.013 382.41 106.926 382.037 106.926 381.615C106.926 381.192 107.011 380.821 107.18 380.503C107.354 380.179 107.595 379.931 107.904 379.757C108.217 379.583 108.575 379.496 108.978 379.496C109.366 379.496 109.712 379.58 110.015 379.749C110.319 379.918 110.555 380.157 110.724 380.465C110.893 380.769 110.978 381.12 110.978 381.518ZM110.09 381.249C110.085 380.936 109.973 380.684 109.754 380.495C109.535 380.306 109.264 380.212 108.941 380.212C108.647 380.212 108.396 380.306 108.187 380.495C107.978 380.679 107.854 380.931 107.814 381.249H110.09ZM113.576 381.592L114.904 383.674H113.942L113.054 382.279L112.218 383.674H111.33L112.658 381.652L111.33 379.563H112.293L113.18 380.958L114.016 379.563H114.904L113.576 381.592ZM116.531 380.257V382.532C116.531 382.687 116.566 382.798 116.635 382.868C116.71 382.933 116.834 382.965 117.008 382.965H117.531V383.674H116.859C116.476 383.674 116.183 383.584 115.979 383.405C115.775 383.226 115.673 382.935 115.673 382.532V380.257H115.188V379.563H115.673V378.54H116.531V379.563H117.531V380.257H116.531Z" fill="white"/>
<path d="M181.644 275.145L184.442 277.944L187.24 275.145" stroke="#6E7191" stroke-width="0.932681" stroke-linecap="round" stroke-linejoin="round"/>
<path opacity="0.4" d="M197.499 22.0332V23.8986C197.874 23.7406 198.118 23.3731 198.118 22.9659C198.118 22.5587 197.874 22.1912 197.499 22.0332Z" fill="#14142B"/>
<rect x="187.706" y="21.2558" width="8.39411" height="3.41983" rx="0.621787" fill="#14142B"/>
<path fill-rule="evenodd" clip-rule="evenodd" d="M180.398 21.385C181.432 21.3851 182.425 21.7821 183.174 22.4942C183.231 22.5491 183.321 22.5484 183.376 22.4926L183.915 21.9485C183.944 21.9202 183.959 21.8819 183.959 21.8419C183.959 21.802 183.943 21.7639 183.914 21.7359C181.949 19.8521 178.847 19.8521 176.882 21.7359C176.853 21.7638 176.837 21.802 176.837 21.8419C176.837 21.8818 176.852 21.9202 176.88 21.9485L177.42 22.4926C177.475 22.5485 177.565 22.5492 177.622 22.4942C178.371 21.7821 179.365 21.385 180.398 21.385ZM180.398 23.1551C180.966 23.1551 181.514 23.3661 181.935 23.7472C181.992 23.8013 182.081 23.8002 182.137 23.7446L182.675 23.2005C182.704 23.172 182.719 23.1333 182.719 23.0931C182.718 23.0528 182.702 23.0144 182.673 22.9865C181.391 21.7943 179.407 21.7943 178.125 22.9865C178.096 23.0144 178.08 23.0528 178.079 23.0931C178.079 23.1333 178.095 23.172 178.123 23.2005L178.661 23.7446C178.717 23.8002 178.807 23.8013 178.863 23.7472C179.284 23.3664 179.831 23.1554 180.398 23.1551ZM181.477 24.346C181.478 24.3863 181.462 24.4252 181.433 24.4535L180.502 25.3934C180.474 25.4211 180.437 25.4366 180.398 25.4366C180.36 25.4366 180.322 25.4211 180.295 25.3934L179.363 24.4535C179.335 24.4252 179.319 24.3863 179.32 24.3459C179.321 24.3056 179.338 24.2674 179.368 24.2403C179.963 23.7372 180.834 23.7372 181.429 24.2403C181.459 24.2674 181.476 24.3056 181.477 24.346Z" fill="#14142B"/>
<path fill-rule="evenodd" clip-rule="evenodd" d="M173.56 20.3229H173.094C172.836 20.3229 172.627 20.5317 172.627 20.7892V24.8308C172.627 25.0884 172.836 25.2972 173.094 25.2972H173.56C173.818 25.2972 174.026 25.0884 174.026 24.8308V20.7892C174.026 20.5317 173.818 20.3229 173.56 20.3229ZM170.918 21.4111H171.384C171.642 21.4111 171.85 21.6199 171.85 21.8774V24.8309C171.85 25.0885 171.642 25.2972 171.384 25.2972H170.918C170.66 25.2972 170.451 25.0885 170.451 24.8309V21.8774C170.451 21.6199 170.66 21.4111 170.918 21.4111ZM169.207 22.4992H168.741C168.484 22.4992 168.275 22.708 168.275 22.9655V24.8309C168.275 25.0884 168.484 25.2972 168.741 25.2972H169.207C169.465 25.2972 169.674 25.0884 169.674 24.8309V22.9655C169.674 22.708 169.465 22.4992 169.207 22.4992ZM167.031 23.432H166.565C166.307 23.432 166.099 23.6408 166.099 23.8983V24.831C166.099 25.0886 166.307 25.2973 166.565 25.2973H167.031C167.289 25.2973 167.498 25.0886 167.498 24.831V23.8983C167.498 23.6408 167.289 23.432 167.031 23.432Z" fill="#14142B"/>
<path d="M30.7525 23.337C30.4781 23.6066 30.1574 23.7414 29.7907 23.7414C29.3219 23.7414 28.9467 23.5811 28.6649 23.2605C28.3832 22.9374 28.2423 22.5027 28.2423 21.9562C28.2423 21.6088 28.3176 21.2907 28.4682 21.0016C28.6212 20.7102 28.8337 20.4843 29.1058 20.324C29.3778 20.1612 29.6838 20.0799 30.0239 20.0799C30.3736 20.0799 30.6845 20.1673 30.9565 20.3422C31.2286 20.5171 31.4399 20.7685 31.5905 21.0964C31.7411 21.4243 31.8176 21.7995 31.82 22.2221V22.612C31.82 23.4961 31.6002 24.1907 31.1606 24.6959C30.7209 25.2011 30.0979 25.4707 29.2916 25.5047L29.0329 25.5084V24.6303L29.2661 24.6267C30.1817 24.5854 30.6772 24.1555 30.7525 23.337ZM30.0494 22.9362C30.2194 22.9362 30.3651 22.8925 30.4866 22.8051C30.6104 22.7176 30.7039 22.612 30.7671 22.4881V22.0545C30.7671 21.6975 30.6991 21.4206 30.5631 21.2239C30.4271 21.0271 30.2449 20.9288 30.0166 20.9288C29.8053 20.9288 29.6316 21.0259 29.4956 21.2202C29.3596 21.4121 29.2916 21.6538 29.2916 21.9452C29.2916 22.2343 29.3571 22.4723 29.4883 22.6593C29.6219 22.8439 29.8089 22.9362 30.0494 22.9362ZM32.5383 24.94C32.5383 24.7724 32.5942 24.6364 32.7059 24.532C32.8201 24.4275 32.9621 24.3753 33.1322 24.3753C33.3046 24.3753 33.4467 24.4275 33.5584 24.532C33.6726 24.6364 33.7297 24.7724 33.7297 24.94C33.7297 25.1052 33.6738 25.24 33.5621 25.3444C33.4503 25.4464 33.307 25.4974 33.1322 25.4974C32.9597 25.4974 32.8176 25.4464 32.7059 25.3444C32.5942 25.24 32.5383 25.1052 32.5383 24.94ZM32.5383 21.9562C32.5383 21.7886 32.5942 21.6526 32.7059 21.5481C32.8201 21.4437 32.9621 21.3915 33.1322 21.3915C33.3046 21.3915 33.4467 21.4437 33.5584 21.5481C33.6726 21.6526 33.7297 21.7886 33.7297 21.9562C33.7297 22.1213 33.6738 22.2561 33.5621 22.3606C33.4503 22.4626 33.307 22.5136 33.1322 22.5136C32.9597 22.5136 32.8176 22.4626 32.7059 22.3606C32.5942 22.2561 32.5383 22.1213 32.5383 21.9562ZM37.5338 23.4608H38.135V24.3097H37.5338V25.4574H36.4809V24.3097H34.3059L34.2585 23.6467L36.47 20.1527H37.5338V23.4608ZM35.3078 23.4608H36.4809V21.5882L36.4117 21.7084L35.3078 23.4608ZM41.1303 25.4574H40.0774V21.3987L38.8205 21.7886V20.9324L41.0174 20.1455H41.1303V25.4574Z" fill="#14142B"/>
</g>
<g filter="url(#filter11_i)">
<path d="M96.6416 16.4213C96.6416 15.2671 97.5764 14.3313 98.7295 14.3313H117.819C118.972 14.3313 119.907 15.2671 119.907 16.4213C119.907 17.5756 118.972 18.5113 117.819 18.5113H98.7295C97.5764 18.5113 96.6416 17.5756 96.6416 16.4213Z" fill="#161616"/>
</g>
<g filter="url(#filter12_f)">
<path d="M96.9402 16.4213C96.9402 15.4317 97.7416 14.6299 98.7295 14.6299H117.819C118.807 14.6299 119.609 15.4317 119.609 16.4213C119.609 17.411 118.807 18.2127 117.819 18.2127H98.7295C97.7416 18.2127 96.9402 17.411 96.9402 16.4213Z" stroke="black" stroke-opacity="0.32" stroke-width="0.597137"/>
</g>
<path d="M96.7909 16.4213C96.7909 15.3494 97.659 14.4806 98.7295 14.4806H117.819C118.89 14.4806 119.758 15.3494 119.758 16.4213C119.758 17.4933 118.89 18.362 117.819 18.362H98.7295C97.659 18.362 96.7909 17.4933 96.7909 16.4213Z" stroke="url(#paint23_linear)" stroke-width="0.298569"/>
<path d="M124.68 16.4214C124.68 14.1128 126.549 12.2414 128.856 12.2414C131.162 12.2414 133.031 14.1128 133.031 16.4214C133.031 18.7299 131.162 20.6013 128.856 20.6013C126.549 20.6013 124.68 18.7299 124.68 16.4214Z" fill="url(#paint24_radial)"/>
<path d="M124.68 16.4214C124.68 14.1128 126.549 12.2414 128.856 12.2414C131.162 12.2414 133.031 14.1128 133.031 16.4214C133.031 18.7299 131.162 20.6013 128.856 20.6013C126.549 20.6013 124.68 18.7299 124.68 16.4214Z" fill="url(#paint25_radial)"/>
<path d="M130.943 16.4213C130.943 15.2671 130.009 14.3313 128.856 14.3313C127.702 14.3313 126.768 15.2671 126.768 16.4213C126.768 17.5756 127.702 18.5113 128.856 18.5113C130.009 18.5113 130.943 17.5756 130.943 16.4213Z" fill="url(#paint26_linear)"/>
<path d="M130.943 16.4213C130.943 15.2671 130.009 14.3313 128.856 14.3313C127.702 14.3313 126.768 15.2671 126.768 16.4213C126.768 17.5756 127.702 18.5113 128.856 18.5113C130.009 18.5113 130.943 17.5756 130.943 16.4213Z" fill="url(#paint27_radial)"/>
<path d="M130.943 16.4213C130.943 15.2671 130.009 14.3313 128.856 14.3313C127.702 14.3313 126.768 15.2671 126.768 16.4213C126.768 17.5756 127.702 18.5113 128.856 18.5113C130.009 18.5113 130.943 17.5756 130.943 16.4213Z" fill="url(#paint28_radial)"/>
<path d="M130.943 16.4213C130.943 15.2671 130.009 14.3313 128.856 14.3313C127.702 14.3313 126.768 15.2671 126.768 16.4213C126.768 17.5756 127.702 18.5113 128.856 18.5113C130.009 18.5113 130.943 17.5756 130.943 16.4213Z" fill="url(#paint29_radial)"/>
<path d="M130.943 16.4213C130.943 15.2671 130.009 14.3313 128.856 14.3313C127.702 14.3313 126.768 15.2671 126.768 16.4213C126.768 17.5756 127.702 18.5113 128.856 18.5113C130.009 18.5113 130.943 17.5756 130.943 16.4213Z" fill="url(#paint30_radial)"/>
<defs>
<filter id="filter0_i" x="1.49268" y="0" width="213.268" height="438" filterUnits="userSpaceOnUse" color-interpolation-filters="sRGB">
<feFlood flood-opacity="0" result="BackgroundImageFix"/>
<feBlend mode="normal" in="SourceGraphic" in2="BackgroundImageFix" result="shape"/>
<feColorMatrix in="SourceAlpha" type="matrix" values="0 0 0 0 0 0 0 0 0 0 0 0 0 0 0 0 0 0 127 0" result="hardAlpha"/>
<feOffset/>
<feGaussianBlur stdDeviation="2.38855"/>
<feComposite in2="hardAlpha" operator="arithmetic" k2="-1" k3="1"/>
<feColorMatrix type="matrix" values="0 0 0 0 0 0 0 0 0 0 0 0 0 0 0 0 0 0 0.32 0"/>
<feBlend mode="normal" in2="shape" result="effect1_innerShadow"/>
</filter>
<filter id="filter1_ii" x="0" y="68.6708" width="1.49284" height="18.5112" filterUnits="userSpaceOnUse" color-interpolation-filters="sRGB">
<feFlood flood-opacity="0" result="BackgroundImageFix"/>
<feBlend mode="normal" in="SourceGraphic" in2="BackgroundImageFix" result="shape"/>
<feColorMatrix in="SourceAlpha" type="matrix" values="0 0 0 0 0 0 0 0 0 0 0 0 0 0 0 0 0 0 127 0" result="hardAlpha"/>
<feOffset dy="1.19427"/>
<feGaussianBlur stdDeviation="0.298569"/>
<feComposite in2="hardAlpha" operator="arithmetic" k2="-1" k3="1"/>
<feColorMatrix type="matrix" values="0 0 0 0 1 0 0 0 0 1 0 0 0 0 1 0 0 0 0.64 0"/>
<feBlend mode="normal" in2="shape" result="effect1_innerShadow"/>
<feColorMatrix in="SourceAlpha" type="matrix" values="0 0 0 0 0 0 0 0 0 0 0 0 0 0 0 0 0 0 127 0" result="hardAlpha"/>
<feOffset dy="-1.19427"/>
<feGaussianBlur stdDeviation="0.298569"/>
<feComposite in2="hardAlpha" operator="arithmetic" k2="-1" k3="1"/>
<feColorMatrix type="matrix" values="0 0 0 0 1 0 0 0 0 1 0 0 0 0 1 0 0 0 0.64 0"/>
<feBlend mode="normal" in2="effect1_innerShadow" result="effect2_innerShadow"/>
</filter>
<filter id="filter2_ii" x="0" y="100.02" width="1.49284" height="34.6339" filterUnits="userSpaceOnUse" color-interpolation-filters="sRGB">
<feFlood flood-opacity="0" result="BackgroundImageFix"/>
<feBlend mode="normal" in="SourceGraphic" in2="BackgroundImageFix" result="shape"/>
<feColorMatrix in="SourceAlpha" type="matrix" values="0 0 0 0 0 0 0 0 0 0 0 0 0 0 0 0 0 0 127 0" result="hardAlpha"/>
<feOffset dy="1.19427"/>
<feGaussianBlur stdDeviation="0.298569"/>
<feComposite in2="hardAlpha" operator="arithmetic" k2="-1" k3="1"/>
<feColorMatrix type="matrix" values="0 0 0 0 1 0 0 0 0 1 0 0 0 0 1 0 0 0 0.64 0"/>
<feBlend mode="normal" in2="shape" result="effect1_innerShadow"/>
<feColorMatrix in="SourceAlpha" type="matrix" values="0 0 0 0 0 0 0 0 0 0 0 0 0 0 0 0 0 0 127 0" result="hardAlpha"/>
<feOffset dy="-1.19427"/>
<feGaussianBlur stdDeviation="0.298569"/>
<feComposite in2="hardAlpha" operator="arithmetic" k2="-1" k3="1"/>
<feColorMatrix type="matrix" values="0 0 0 0 1 0 0 0 0 1 0 0 0 0 1 0 0 0 0.64 0"/>
<feBlend mode="normal" in2="effect1_innerShadow" result="effect2_innerShadow"/>
</filter>
<filter id="filter3_ii" x="214.759" y="111.963" width="1.49284" height="53.1452" filterUnits="userSpaceOnUse" color-interpolation-filters="sRGB">
<feFlood flood-opacity="0" result="BackgroundImageFix"/>
<feBlend mode="normal" in="SourceGraphic" in2="BackgroundImageFix" result="shape"/>
<feColorMatrix in="SourceAlpha" type="matrix" values="0 0 0 0 0 0 0 0 0 0 0 0 0 0 0 0 0 0 127 0" result="hardAlpha"/>
<feOffset dy="1.19427"/>
<feGaussianBlur stdDeviation="0.298569"/>
<feComposite in2="hardAlpha" operator="arithmetic" k2="-1" k3="1"/>
<feColorMatrix type="matrix" values="0 0 0 0 1 0 0 0 0 1 0 0 0 0 1 0 0 0 0.64 0"/>
<feBlend mode="normal" in2="shape" result="effect1_innerShadow"/>
<feColorMatrix in="SourceAlpha" type="matrix" values="0 0 0 0 0 0 0 0 0 0 0 0 0 0 0 0 0 0 127 0" result="hardAlpha"/>
<feOffset dy="-1.19427"/>
<feGaussianBlur stdDeviation="0.298569"/>
<feComposite in2="hardAlpha" operator="arithmetic" k2="-1" k3="1"/>
<feColorMatrix type="matrix" values="0 0 0 0 1 0 0 0 0 1 0 0 0 0 1 0 0 0 0.64 0"/>
<feBlend mode="normal" in2="effect1_innerShadow" result="effect2_innerShadow"/>
</filter>
<filter id="filter4_ii" x="0" y="140.924" width="1.49284" height="34.6339" filterUnits="userSpaceOnUse" color-interpolation-filters="sRGB">
<feFlood flood-opacity="0" result="BackgroundImageFix"/>
<feBlend mode="normal" in="SourceGraphic" in2="BackgroundImageFix" result="shape"/>
<feColorMatrix in="SourceAlpha" type="matrix" values="0 0 0 0 0 0 0 0 0 0 0 0 0 0 0 0 0 0 127 0" result="hardAlpha"/>
<feOffset dy="1.19427"/>
<feGaussianBlur stdDeviation="0.298569"/>
<feComposite in2="hardAlpha" operator="arithmetic" k2="-1" k3="1"/>
<feColorMatrix type="matrix" values="0 0 0 0 1 0 0 0 0 1 0 0 0 0 1 0 0 0 0.64 0"/>
<feBlend mode="normal" in2="shape" result="effect1_innerShadow"/>
<feColorMatrix in="SourceAlpha" type="matrix" values="0 0 0 0 0 0 0 0 0 0 0 0 0 0 0 0 0 0 127 0" result="hardAlpha"/>
<feOffset dy="-1.19427"/>
<feGaussianBlur stdDeviation="0.298569"/>
<feComposite in2="hardAlpha" operator="arithmetic" k2="-1" k3="1"/>
<feColorMatrix type="matrix" values="0 0 0 0 1 0 0 0 0 1 0 0 0 0 1 0 0 0 0.64 0"/>
<feBlend mode="normal" in2="effect1_innerShadow" result="effect2_innerShadow"/>
</filter>
<filter id="filter5_ii" x="1.49268" y="0" width="213.268" height="438" filterUnits="userSpaceOnUse" color-interpolation-filters="sRGB">
<feFlood flood-opacity="0" result="BackgroundImageFix"/>
<feBlend mode="normal" in="SourceGraphic" in2="BackgroundImageFix" result="shape"/>
<feColorMatrix in="SourceAlpha" type="matrix" values="0 0 0 0 0 0 0 0 0 0 0 0 0 0 0 0 0 0 127 0" result="hardAlpha"/>
<feOffset/>
<feGaussianBlur stdDeviation="1.49284"/>
<feComposite in2="hardAlpha" operator="arithmetic" k2="-1" k3="1"/>
<feColorMatrix type="matrix" values="0 0 0 0 1 0 0 0 0 1 0 0 0 0 1 0 0 0 0.88 0"/>
<feBlend mode="normal" in2="shape" result="effect1_innerShadow"/>
<feColorMatrix in="SourceAlpha" type="matrix" values="0 0 0 0 0 0 0 0 0 0 0 0 0 0 0 0 0 0 127 0" result="hardAlpha"/>
<feOffset/>
<feGaussianBlur stdDeviation="0.746421"/>
<feComposite in2="hardAlpha" operator="arithmetic" k2="-1" k3="1"/>
<feColorMatrix type="matrix" values="0 0 0 0 0 0 0 0 0 0 0 0 0 0 0 0 0 0 1 0"/>
<feBlend mode="normal" in2="effect1_innerShadow" result="effect2_innerShadow"/>
</filter>
<filter id="filter6_iiii" x="0" y="68.6708" width="1.49284" height="18.5112" filterUnits="userSpaceOnUse" color-interpolation-filters="sRGB">
<feFlood flood-opacity="0" result="BackgroundImageFix"/>
<feBlend mode="normal" in="SourceGraphic" in2="BackgroundImageFix" result="shape"/>
<feColorMatrix in="SourceAlpha" type="matrix" values="0 0 0 0 0 0 0 0 0 0 0 0 0 0 0 0 0 0 127 0" result="hardAlpha"/>
<feOffset dy="1.19427"/>
<feGaussianBlur stdDeviation="0.298569"/>
<feComposite in2="hardAlpha" operator="arithmetic" k2="-1" k3="1"/>
<feColorMatrix type="matrix" values="0 0 0 0 1 0 0 0 0 1 0 0 0 0 1 0 0 0 0.08 0"/>
<feBlend mode="normal" in2="shape" result="effect1_innerShadow"/>
<feColorMatrix in="SourceAlpha" type="matrix" values="0 0 0 0 0 0 0 0 0 0 0 0 0 0 0 0 0 0 127 0" result="hardAlpha"/>
<feOffset dy="-1.19427"/>
<feGaussianBlur stdDeviation="0.298569"/>
<feComposite in2="hardAlpha" operator="arithmetic" k2="-1" k3="1"/>
<feColorMatrix type="matrix" values="0 0 0 0 1 0 0 0 0 1 0 0 0 0 1 0 0 0 0.08 0"/>
<feBlend mode="normal" in2="effect1_innerShadow" result="effect2_innerShadow"/>
<feColorMatrix in="SourceAlpha" type="matrix" values="0 0 0 0 0 0 0 0 0 0 0 0 0 0 0 0 0 0 127 0" result="hardAlpha"/>
<feOffset dy="0.298569"/>
<feGaussianBlur stdDeviation="0.149284"/>
<feComposite in2="hardAlpha" operator="arithmetic" k2="-1" k3="1"/>
<feColorMatrix type="matrix" values="0 0 0 0 1 0 0 0 0 1 0 0 0 0 1 0 0 0 0.32 0"/>
<feBlend mode="normal" in2="effect2_innerShadow" result="effect3_innerShadow"/>
<feColorMatrix in="SourceAlpha" type="matrix" values="0 0 0 0 0 0 0 0 0 0 0 0 0 0 0 0 0 0 127 0" result="hardAlpha"/>
<feOffset dy="-0.298569"/>
<feGaussianBlur stdDeviation="0.149284"/>
<feComposite in2="hardAlpha" operator="arithmetic" k2="-1" k3="1"/>
<feColorMatrix type="matrix" values="0 0 0 0 1 0 0 0 0 1 0 0 0 0 1 0 0 0 0.32 0"/>
<feBlend mode="normal" in2="effect3_innerShadow" result="effect4_innerShadow"/>
</filter>
<filter id="filter7_iiii" x="0" y="100.02" width="1.49284" height="34.6339" filterUnits="userSpaceOnUse" color-interpolation-filters="sRGB">
<feFlood flood-opacity="0" result="BackgroundImageFix"/>
<feBlend mode="normal" in="SourceGraphic" in2="BackgroundImageFix" result="shape"/>
<feColorMatrix in="SourceAlpha" type="matrix" values="0 0 0 0 0 0 0 0 0 0 0 0 0 0 0 0 0 0 127 0" result="hardAlpha"/>
<feOffset dy="1.19427"/>
<feGaussianBlur stdDeviation="0.298569"/>
<feComposite in2="hardAlpha" operator="arithmetic" k2="-1" k3="1"/>
<feColorMatrix type="matrix" values="0 0 0 0 1 0 0 0 0 1 0 0 0 0 1 0 0 0 0.08 0"/>
<feBlend mode="normal" in2="shape" result="effect1_innerShadow"/>
<feColorMatrix in="SourceAlpha" type="matrix" values="0 0 0 0 0 0 0 0 0 0 0 0 0 0 0 0 0 0 127 0" result="hardAlpha"/>
<feOffset dy="-1.19427"/>
<feGaussianBlur stdDeviation="0.298569"/>
<feComposite in2="hardAlpha" operator="arithmetic" k2="-1" k3="1"/>
<feColorMatrix type="matrix" values="0 0 0 0 1 0 0 0 0 1 0 0 0 0 1 0 0 0 0.08 0"/>
<feBlend mode="normal" in2="effect1_innerShadow" result="effect2_innerShadow"/>
<feColorMatrix in="SourceAlpha" type="matrix" values="0 0 0 0 0 0 0 0 0 0 0 0 0 0 0 0 0 0 127 0" result="hardAlpha"/>
<feOffset dy="0.298569"/>
<feGaussianBlur stdDeviation="0.149284"/>
<feComposite in2="hardAlpha" operator="arithmetic" k2="-1" k3="1"/>
<feColorMatrix type="matrix" values="0 0 0 0 1 0 0 0 0 1 0 0 0 0 1 0 0 0 0.32 0"/>
<feBlend mode="normal" in2="effect2_innerShadow" result="effect3_innerShadow"/>
<feColorMatrix in="SourceAlpha" type="matrix" values="0 0 0 0 0 0 0 0 0 0 0 0 0 0 0 0 0 0 127 0" result="hardAlpha"/>
<feOffset dy="-0.298569"/>
<feGaussianBlur stdDeviation="0.149284"/>
<feComposite in2="hardAlpha" operator="arithmetic" k2="-1" k3="1"/>
<feColorMatrix type="matrix" values="0 0 0 0 1 0 0 0 0 1 0 0 0 0 1 0 0 0 0.32 0"/>
<feBlend mode="normal" in2="effect3_innerShadow" result="effect4_innerShadow"/>
</filter>
<filter id="filter8_iiii" x="214.759" y="111.963" width="1.49284" height="53.1452" filterUnits="userSpaceOnUse" color-interpolation-filters="sRGB">
<feFlood flood-opacity="0" result="BackgroundImageFix"/>
<feBlend mode="normal" in="SourceGraphic" in2="BackgroundImageFix" result="shape"/>
<feColorMatrix in="SourceAlpha" type="matrix" values="0 0 0 0 0 0 0 0 0 0 0 0 0 0 0 0 0 0 127 0" result="hardAlpha"/>
<feOffset dy="1.19427"/>
<feGaussianBlur stdDeviation="0.298569"/>
<feComposite in2="hardAlpha" operator="arithmetic" k2="-1" k3="1"/>
<feColorMatrix type="matrix" values="0 0 0 0 1 0 0 0 0 1 0 0 0 0 1 0 0 0 0.08 0"/>
<feBlend mode="normal" in2="shape" result="effect1_innerShadow"/>
<feColorMatrix in="SourceAlpha" type="matrix" values="0 0 0 0 0 0 0 0 0 0 0 0 0 0 0 0 0 0 127 0" result="hardAlpha"/>
<feOffset dy="-1.19427"/>
<feGaussianBlur stdDeviation="0.298569"/>
<feComposite in2="hardAlpha" operator="arithmetic" k2="-1" k3="1"/>
<feColorMatrix type="matrix" values="0 0 0 0 1 0 0 0 0 1 0 0 0 0 1 0 0 0 0.08 0"/>
<feBlend mode="normal" in2="effect1_innerShadow" result="effect2_innerShadow"/>
<feColorMatrix in="SourceAlpha" type="matrix" values="0 0 0 0 0 0 0 0 0 0 0 0 0 0 0 0 0 0 127 0" result="hardAlpha"/>
<feOffset dy="0.298569"/>
<feGaussianBlur stdDeviation="0.149284"/>
<feComposite in2="hardAlpha" operator="arithmetic" k2="-1" k3="1"/>
<feColorMatrix type="matrix" values="0 0 0 0 1 0 0 0 0 1 0 0 0 0 1 0 0 0 0.32 0"/>
<feBlend mode="normal" in2="effect2_innerShadow" result="effect3_innerShadow"/>
<feColorMatrix in="SourceAlpha" type="matrix" values="0 0 0 0 0 0 0 0 0 0 0 0 0 0 0 0 0 0 127 0" result="hardAlpha"/>
<feOffset dy="-0.298569"/>
<feGaussianBlur stdDeviation="0.149284"/>
<feComposite in2="hardAlpha" operator="arithmetic" k2="-1" k3="1"/>
<feColorMatrix type="matrix" values="0 0 0 0 1 0 0 0 0 1 0 0 0 0 1 0 0 0 0.32 0"/>
<feBlend mode="normal" in2="effect3_innerShadow" result="effect4_innerShadow"/>
</filter>
<filter id="filter9_iiii" x="0" y="140.924" width="1.49284" height="34.6339" filterUnits="userSpaceOnUse" color-interpolation-filters="sRGB">
<feFlood flood-opacity="0" result="BackgroundImageFix"/>
<feBlend mode="normal" in="SourceGraphic" in2="BackgroundImageFix" result="shape"/>
<feColorMatrix in="SourceAlpha" type="matrix" values="0 0 0 0 0 0 0 0 0 0 0 0 0 0 0 0 0 0 127 0" result="hardAlpha"/>
<feOffset dy="1.19427"/>
<feGaussianBlur stdDeviation="0.298569"/>
<feComposite in2="hardAlpha" operator="arithmetic" k2="-1" k3="1"/>
<feColorMatrix type="matrix" values="0 0 0 0 1 0 0 0 0 1 0 0 0 0 1 0 0 0 0.08 0"/>
<feBlend mode="normal" in2="shape" result="effect1_innerShadow"/>
<feColorMatrix in="SourceAlpha" type="matrix" values="0 0 0 0 0 0 0 0 0 0 0 0 0 0 0 0 0 0 127 0" result="hardAlpha"/>
<feOffset dy="-1.19427"/>
<feGaussianBlur stdDeviation="0.298569"/>
<feComposite in2="hardAlpha" operator="arithmetic" k2="-1" k3="1"/>
<feColorMatrix type="matrix" values="0 0 0 0 1 0 0 0 0 1 0 0 0 0 1 0 0 0 0.08 0"/>
<feBlend mode="normal" in2="effect1_innerShadow" result="effect2_innerShadow"/>
<feColorMatrix in="SourceAlpha" type="matrix" values="0 0 0 0 0 0 0 0 0 0 0 0 0 0 0 0 0 0 127 0" result="hardAlpha"/>
<feOffset dy="0.298569"/>
<feGaussianBlur stdDeviation="0.149284"/>
<feComposite in2="hardAlpha" operator="arithmetic" k2="-1" k3="1"/>
<feColorMatrix type="matrix" values="0 0 0 0 1 0 0 0 0 1 0 0 0 0 1 0 0 0 0.32 0"/>
<feBlend mode="normal" in2="effect2_innerShadow" result="effect3_innerShadow"/>
<feColorMatrix in="SourceAlpha" type="matrix" values="0 0 0 0 0 0 0 0 0 0 0 0 0 0 0 0 0 0 127 0" result="hardAlpha"/>
<feOffset dy="-0.298569"/>
<feGaussianBlur stdDeviation="0.149284"/>
<feComposite in2="hardAlpha" operator="arithmetic" k2="-1" k3="1"/>
<feColorMatrix type="matrix" values="0 0 0 0 1 0 0 0 0 1 0 0 0 0 1 0 0 0 0.32 0"/>
<feBlend mode="normal" in2="effect3_innerShadow" result="effect4_innerShadow"/>
</filter>
<filter id="filter10_d" x="22.1556" y="365.881" width="174.411" height="31.7111" filterUnits="userSpaceOnUse" color-interpolation-filters="sRGB">
<feFlood flood-opacity="0" result="BackgroundImageFix"/>
<feColorMatrix in="SourceAlpha" type="matrix" values="0 0 0 0 0 0 0 0 0 0 0 0 0 0 0 0 0 0 127 0"/>
<feOffset dy="0.46634"/>
<feGaussianBlur stdDeviation="0.932681"/>
<feColorMatrix type="matrix" values="0 0 0 0 0 0 0 0 0 0 0 0 0 0 0 0 0 0 0.25 0"/>
<feBlend mode="normal" in2="BackgroundImageFix" result="effect1_dropShadow"/>
<feBlend mode="normal" in="SourceGraphic" in2="effect1_dropShadow" result="shape"/>
</filter>
<filter id="filter11_i" x="96.6416" y="14.3313" width="23.2656" height="4.17996" filterUnits="userSpaceOnUse" color-interpolation-filters="sRGB">
<feFlood flood-opacity="0" result="BackgroundImageFix"/>
<feBlend mode="normal" in="SourceGraphic" in2="BackgroundImageFix" result="shape"/>
<feColorMatrix in="SourceAlpha" type="matrix" values="0 0 0 0 0 0 0 0 0 0 0 0 0 0 0 0 0 0 127 0" result="hardAlpha"/>
<feOffset/>
<feGaussianBlur stdDeviation="1.19427"/>
<feComposite in2="hardAlpha" operator="arithmetic" k2="-1" k3="1"/>
<feColorMatrix type="matrix" values="0 0 0 0 0 0 0 0 0 0 0 0 0 0 0 0 0 0 0.48 0"/>
<feBlend mode="normal" in2="shape" result="effect1_innerShadow"/>
</filter>
<filter id="filter12_f" x="96.343" y="14.0328" width="23.8628" height="4.7771" filterUnits="userSpaceOnUse" color-interpolation-filters="sRGB">
<feFlood flood-opacity="0" result="BackgroundImageFix"/>
<feBlend mode="normal" in="SourceGraphic" in2="BackgroundImageFix" result="shape"/>
<feGaussianBlur stdDeviation="0.149284" result="effect1_foregroundBlur"/>
</filter>
<linearGradient id="paint0_linear" x1="0.299316" y1="39.5603" x2="5.37003" y2="39.5603" gradientUnits="userSpaceOnUse">
<stop offset="0.109375" stop-color="#D1D1D1"/>
<stop offset="0.317708" stop-color="#E3E3E3"/>
<stop offset="0.552083" stop-color="#D2D2D2"/>
<stop offset="0.807292" stop-color="#E6E6E6"/>
</linearGradient>
<linearGradient id="paint1_linear" x1="0.299316" y1="400.53" x2="5.37003" y2="400.53" gradientUnits="userSpaceOnUse">
<stop offset="0.109375" stop-color="#D1D1D1"/>
<stop offset="0.317708" stop-color="#E3E3E3"/>
<stop offset="0.552083" stop-color="#D2D2D2"/>
<stop offset="0.807292" stop-color="#E6E6E6"/>
</linearGradient>
<linearGradient id="paint2_linear" x1="210.883" y1="39.5603" x2="215.954" y2="39.5603" gradientUnits="userSpaceOnUse">
<stop offset="0.0988321" stop-color="#E6E6E6"/>
<stop offset="0.368786" stop-color="#D2D2D2"/>
<stop offset="0.624532" stop-color="#E3E3E3"/>
<stop offset="0.798581" stop-color="#D1D1D1"/>
</linearGradient>
<linearGradient id="paint3_linear" x1="210.883" y1="400.53" x2="215.954" y2="400.53" gradientUnits="userSpaceOnUse">
<stop offset="0.0988321" stop-color="#E6E6E6"/>
<stop offset="0.368786" stop-color="#D2D2D2"/>
<stop offset="0.624532" stop-color="#E3E3E3"/>
<stop offset="0.798581" stop-color="#D1D1D1"/>
</linearGradient>
<linearGradient id="paint4_linear" x1="169.422" y1="0.147083" x2="174.498" y2="0.147083" gradientUnits="userSpaceOnUse">
<stop offset="0.238306" stop-color="#D1D1D1"/>
<stop offset="0.416703" stop-color="#E3E3E3"/>
<stop offset="0.700226" stop-color="#D2D2D2"/>
<stop offset="0.926408" stop-color="#E6E6E6"/>
</linearGradient>
<linearGradient id="paint5_linear" x1="43.8472" y1="436.356" x2="48.9228" y2="436.356" gradientUnits="userSpaceOnUse">
<stop offset="0.0988321" stop-color="#E6E6E6"/>
<stop offset="0.368786" stop-color="#D2D2D2"/>
<stop offset="0.624532" stop-color="#E3E3E3"/>
<stop offset="0.798581" stop-color="#D1D1D1"/>
</linearGradient>
<linearGradient id="paint6_linear" x1="17.2036" y1="7.92542" x2="196.411" y2="424.565" gradientUnits="userSpaceOnUse">
<stop stop-color="white" stop-opacity="0.16"/>
<stop offset="1" stop-color="white" stop-opacity="0.05"/>
</linearGradient>
<linearGradient id="paint7_linear" x1="0" y1="77.7771" x2="1.49284" y2="77.7771" gradientUnits="userSpaceOnUse">
<stop stop-opacity="0"/>
<stop offset="0.333333" stop-color="#D0D0D0" stop-opacity="0.42"/>
<stop offset="1" stop-opacity="0.24"/>
</linearGradient>
<linearGradient id="paint8_linear" x1="0" y1="117.049" x2="1.49284" y2="117.049" gradientUnits="userSpaceOnUse">
<stop stop-opacity="0"/>
<stop offset="0.333333" stop-color="#D0D0D0" stop-opacity="0.42"/>
<stop offset="1" stop-opacity="0.24"/>
</linearGradient>
<linearGradient id="paint9_linear" x1="214.759" y1="138.088" x2="216.252" y2="138.088" gradientUnits="userSpaceOnUse">
<stop stop-opacity="0.24"/>
<stop offset="0.573835" stop-color="#D0D0D0" stop-opacity="0.42"/>
<stop offset="1" stop-opacity="0"/>
</linearGradient>
<linearGradient id="paint10_linear" x1="0" y1="157.953" x2="1.49284" y2="157.953" gradientUnits="userSpaceOnUse">
<stop stop-opacity="0"/>
<stop offset="0.333333" stop-color="#D0D0D0" stop-opacity="0.42"/>
<stop offset="1" stop-opacity="0.24"/>
</linearGradient>
<linearGradient id="paint11_linear" x1="108.127" y1="0" x2="108.127" y2="438" gradientUnits="userSpaceOnUse">
<stop stop-color="white" stop-opacity="0.64"/>
<stop offset="1" stop-color="white" stop-opacity="0.32"/>
</linearGradient>
<linearGradient id="paint12_linear" x1="0.299316" y1="39.5603" x2="5.37003" y2="39.5603" gradientUnits="userSpaceOnUse">
<stop offset="0.123628" stop-color="#8F8F8F"/>
<stop offset="0.365738" stop-color="#525252"/>
<stop offset="0.827659" stop-color="#141414"/>
</linearGradient>
<linearGradient id="paint13_linear" x1="0.299316" y1="400.53" x2="5.37003" y2="400.53" gradientUnits="userSpaceOnUse">
<stop offset="0.123628" stop-color="#8F8F8F"/>
<stop offset="0.365738" stop-color="#525252"/>
<stop offset="0.827659" stop-color="#141414"/>
</linearGradient>
<linearGradient id="paint14_linear" x1="210.883" y1="39.5603" x2="215.954" y2="39.5603" gradientUnits="userSpaceOnUse">
<stop offset="0.088176" stop-color="#141414"/>
<stop offset="0.536358" stop-color="#525252"/>
<stop offset="0.756584" stop-color="#8F8F8F"/>
</linearGradient>
<linearGradient id="paint15_linear" x1="210.883" y1="400.53" x2="215.954" y2="400.53" gradientUnits="userSpaceOnUse">
<stop offset="0.088176" stop-color="#141414"/>
<stop offset="0.529254" stop-color="#525252"/>
<stop offset="0.770792" stop-color="#8F8F8F"/>
</linearGradient>
<linearGradient id="paint16_linear" x1="169.422" y1="0.147083" x2="174.498" y2="0.147083" gradientUnits="userSpaceOnUse">
<stop offset="0.420124" stop-color="#8F8F8F"/>
<stop offset="0.610413" stop-color="#525252"/>
<stop offset="0.976264" stop-color="#141414"/>
</linearGradient>
<linearGradient id="paint17_linear" x1="43.8472" y1="436.356" x2="48.9228" y2="436.356" gradientUnits="userSpaceOnUse">
<stop offset="0.122861"/>
<stop offset="0.584624" stop-color="#292929"/>
<stop offset="0.87589" stop-color="#7A7A7A"/>
</linearGradient>
<linearGradient id="paint18_linear" x1="17.2036" y1="7.92542" x2="196.411" y2="424.565" gradientUnits="userSpaceOnUse">
<stop stop-color="white" stop-opacity="0.16"/>
<stop offset="1" stop-color="white" stop-opacity="0.05"/>
</linearGradient>
<linearGradient id="paint19_linear" x1="0" y1="77.7771" x2="1.49284" y2="77.7771" gradientUnits="userSpaceOnUse">
<stop stop-color="white" stop-opacity="0.08"/>
<stop offset="0.276042" stop-color="white" stop-opacity="0.24"/>
<stop offset="1" stop-color="white" stop-opacity="0"/>
</linearGradient>
<linearGradient id="paint20_linear" x1="0" y1="117.049" x2="1.49284" y2="117.049" gradientUnits="userSpaceOnUse">
<stop stop-color="white" stop-opacity="0.08"/>
<stop offset="0.276042" stop-color="white" stop-opacity="0.24"/>
<stop offset="1" stop-color="white" stop-opacity="0"/>
</linearGradient>
<linearGradient id="paint21_linear" x1="214.759" y1="138.088" x2="216.252" y2="138.088" gradientUnits="userSpaceOnUse">
<stop stop-color="white" stop-opacity="0"/>
<stop offset="0.630208" stop-color="white" stop-opacity="0.24"/>
<stop offset="1" stop-color="white" stop-opacity="0.08"/>
</linearGradient>
<linearGradient id="paint22_linear" x1="0" y1="157.953" x2="1.49284" y2="157.953" gradientUnits="userSpaceOnUse">
<stop stop-color="white" stop-opacity="0.08"/>
<stop offset="0.276042" stop-color="white" stop-opacity="0.24"/>
<stop offset="1" stop-color="white" stop-opacity="0"/>
</linearGradient>
<linearGradient id="paint23_linear" x1="108.274" y1="14.3313" x2="108.274" y2="18.5113" gradientUnits="userSpaceOnUse">
<stop/>
<stop offset="0.483028" stop-color="#484848"/>
<stop offset="1"/>
</linearGradient>
<radialGradient id="paint24_radial" cx="0" cy="0" r="1" gradientUnits="userSpaceOnUse" gradientTransform="translate(129.601 18.362) rotate(-127.667) scale(4.14902 4.148)">
<stop stop-color="#242424"/>
<stop offset="1" stop-color="#161616"/>
</radialGradient>
<radialGradient id="paint25_radial" cx="0" cy="0" r="1" gradientUnits="userSpaceOnUse" gradientTransform="translate(128.856 16.4214) rotate(90) scale(4.17996 4.17588)">
<stop offset="0.463542" stop-opacity="0.25"/>
<stop offset="0.645833" stop-opacity="0"/>
</radialGradient>
<linearGradient id="paint26_linear" x1="128.856" y1="14.3313" x2="128.856" y2="18.5113" gradientUnits="userSpaceOnUse">
<stop stop-color="#0B528D"/>
<stop offset="0.276042" stop-color="#3625AF"/>
<stop offset="0.510417" stop-color="#070D17"/>
<stop offset="0.734375" stop-color="#16618F"/>
<stop offset="1" stop-color="#021762"/>
</linearGradient>
<radialGradient id="paint27_radial" cx="0" cy="0" r="1" gradientUnits="userSpaceOnUse" gradientTransform="translate(127.215 15.9735) rotate(58.4174) scale(2.27811 2.27711)">
<stop stop-color="#070D17"/>
<stop offset="1" stop-color="#070D17" stop-opacity="0"/>
</radialGradient>
<radialGradient id="paint28_radial" cx="0" cy="0" r="1" gradientUnits="userSpaceOnUse" gradientTransform="translate(129.154 16.7199) rotate(106.684) scale(1.55845 1.55718)">
<stop offset="0.146834" stop-color="#070D17"/>
<stop offset="1" stop-color="#070D17" stop-opacity="0"/>
</radialGradient>
<radialGradient id="paint29_radial" cx="0" cy="0" r="1" gradientUnits="userSpaceOnUse" gradientTransform="translate(129.452 15.9735) rotate(128.633) scale(0.955522 0.955317)">
<stop stop-color="#6356D7"/>
<stop offset="1" stop-color="#15368A" stop-opacity="0"/>
</radialGradient>
<radialGradient id="paint30_radial" cx="0" cy="0" r="1" gradientUnits="userSpaceOnUse" gradientTransform="translate(128.856 16.4213) rotate(90) scale(2.08998 2.08794)">
<stop offset="0.828125" stop-opacity="0"/>
<stop offset="1" stop-opacity="0.85"/>
</radialGradient>
</defs>
</svg>
