<svg width="55" height="44" viewBox="0 0 55 44" fill="none" xmlns="http://www.w3.org/2000/svg">
<g clip-path="url(#clip0)">
<path d="M43.7171 20.9659C48.9096 20.9659 53.1188 16.7566 53.1188 11.5642C53.1188 6.37179 48.9096 2.16251 43.7171 2.16251C38.5247 2.16251 34.3154 6.37179 34.3154 11.5642C34.3154 16.7566 38.5247 20.9659 43.7171 20.9659Z" stroke="black" stroke-width="1.88034" stroke-linecap="round" stroke-linejoin="round"/>
<path d="M43.7178 5.92313V11.5642L47.4785 13.4445" stroke="black" stroke-width="1.88034" stroke-linecap="round" stroke-linejoin="round"/>
</g>
<path fill-rule="evenodd" clip-rule="evenodd" d="M11.9286 18.3804C11.9286 15.5858 14.7068 13.2682 17.6284 13.2682C20.5499 13.2682 23.3281 15.5858 23.3281 18.3804C23.3281 20.9635 22.019 22.174 20.2585 23.737L20.1856 23.8005C18.4393 25.3494 16.2769 27.265 16.2769 31.0727C16.2769 31.2502 16.3118 31.4259 16.3797 31.5899C16.4477 31.7539 16.5472 31.9029 16.6727 32.0284C16.7982 32.1539 16.9472 32.2534 17.1112 32.3213C17.2751 32.3893 17.4509 32.4242 17.6284 32.4242C17.8058 32.4242 17.9816 32.3893 18.1456 32.3213C18.3095 32.2534 18.4585 32.1539 18.584 32.0284C18.7095 31.9029 18.8091 31.7539 18.877 31.5899C18.9449 31.4259 18.9799 31.2502 18.9799 31.0727C18.9799 28.5225 20.282 27.3261 22.0519 25.7608L22.0989 25.7137C23.857 24.1578 26.0311 22.2304 26.0311 18.3804C26.0311 13.7454 21.6687 10.5652 17.6284 10.5652C13.588 10.5652 9.22559 13.7454 9.22559 18.3804C9.22559 18.5579 9.26054 18.7336 9.32846 18.8976C9.39638 19.0616 9.49593 19.2106 9.62143 19.3361C9.74693 19.4616 9.89592 19.5611 10.0599 19.629C10.2239 19.697 10.3996 19.7319 10.5771 19.7319C10.7546 19.7319 10.9303 19.697 11.0943 19.629C11.2582 19.5611 11.4072 19.4616 11.5327 19.3361C11.6582 19.2106 11.7578 19.0616 11.8257 18.8976C11.8936 18.7336 11.9286 18.5579 11.9286 18.3804ZM17.6284 40.1407C18.1738 40.1407 18.6969 39.924 19.0826 39.5383C19.4683 39.1526 19.685 38.6295 19.685 38.084C19.685 37.5386 19.4683 37.0155 19.0826 36.6298C18.6969 36.2441 18.1738 36.0274 17.6284 36.0274C17.0829 36.0274 16.5598 36.2441 16.1741 36.6298C15.7884 37.0155 15.5717 37.5386 15.5717 38.084C15.5717 38.6295 15.7884 39.1526 16.1741 39.5383C16.5598 39.924 17.0829 40.1407 17.6284 40.1407Z" fill="black"/>
<defs>
<clipPath id="clip0">
<rect width="22.5641" height="22.5641" fill="white" transform="translate(32.4355 0.282104)"/>
</clipPath>
</defs>
</svg>
