<svg width="44" height="42" viewBox="0 0 44 42" fill="none" xmlns="http://www.w3.org/2000/svg">
<path d="M28.8867 41V37.2818C28.8867 35.3095 28.1032 33.418 26.7086 32.0234C25.314 30.6288 23.4225 29.8453 21.4503 29.8453H8.43646C6.46418 29.8453 4.57269 30.6288 3.17809 32.0234C1.78348 33.418 1 35.3095 1 37.2818V41" stroke="black" stroke-width="1.96847" stroke-linecap="round" stroke-linejoin="round"/>
<path d="M14.9433 22.4089C19.0503 22.4089 22.3797 19.0794 22.3797 14.9724C22.3797 10.8654 19.0503 7.53595 14.9433 7.53595C10.8363 7.53595 7.50684 10.8654 7.50684 14.9724C7.50684 19.0794 10.8363 22.4089 14.9433 22.4089Z" stroke="black" stroke-width="1.96847" stroke-linecap="round" stroke-linejoin="round"/>
<path d="M37.166 1V12.1547" stroke="black" stroke-width="1.96847" stroke-linecap="round" stroke-linejoin="round"/>
<path d="M42.7436 6.57733H31.5889" stroke="black" stroke-width="1.96847" stroke-linecap="round" stroke-linejoin="round"/>
</svg>
