<svg width="428" height="281" viewBox="0 0 428 281" fill="none" xmlns="http://www.w3.org/2000/svg">
<path d="M31.261 279.569C31.261 279.569 -21.8858 227.988 11.9261 167.297C45.7381 106.607 91.1487 137.128 88.9514 66.4883C86.754 -4.15108 193.389 -10.2174 227.331 10.2635C261.274 30.7444 261.071 55.4137 331.141 47.2532C401.21 39.0926 414.597 107.129 396.369 141.813C370.508 191.012 468.155 182.897 406.624 279.58L31.261 279.569Z" fill="#EBF3FA"/>
<path opacity="0.3" d="M291.61 147.206C291.61 147.206 303.89 95.1581 345.318 89.4362C345.318 89.4362 353.378 88.4455 356.062 97.3215C358.745 106.197 342.719 106.26 332.814 109.831C322.909 113.403 299.814 128.535 291.61 147.206Z" fill="#AEC3FF"/>
<path opacity="0.3" d="M290.669 137.467C290.669 137.467 286.362 94.3531 316.585 79.0531C316.585 79.0531 322.5 76.1691 326.895 82.2623C331.29 88.3555 319.03 92.6271 312.374 97.9722C305.719 103.317 292.033 120.999 290.669 137.467Z" fill="#AEC3FF"/>
<path d="M412.321 279.081H29.6038C29.3593 279.081 29.1611 279.299 29.1611 279.568V279.753C29.1611 280.022 29.3593 280.24 29.6038 280.24H412.321C412.566 280.24 412.764 280.022 412.764 279.753V279.568C412.764 279.299 412.566 279.081 412.321 279.081Z" fill="#2E3552"/>
<path d="M67.1536 240.05C60.7571 225.476 83.9571 212.955 83.9571 212.955C83.9571 212.955 114.528 222.85 118.917 220.137C123.306 217.424 94.4322 206.572 94.4322 206.572C101.556 199.602 128.874 193.213 128.874 193.213C128.874 193.213 147.302 218.642 150.888 214.931C154.474 211.22 133.427 193.242 133.427 193.242C142.711 189.463 156.715 192.566 156.715 192.566C176.882 199.745 166.62 225.27 166.62 225.27C166.62 225.27 173.197 233.946 186.26 239.449C186.26 239.449 188.886 240.293 192.544 242.377L190.506 244.019C189.899 243.607 189.291 243.226 188.679 242.883H188.668L188.64 242.868C188.247 242.666 187.686 242.379 186.986 242.035C185.381 241.319 184.229 240.749 183.444 240.32C178.494 237.995 171.791 235.174 169.155 235.573C169.106 235.132 169 234.699 168.839 234.286L169.155 235.573C171.688 245.866 155.244 261.16 143.918 266.994C132.592 272.828 134.621 266.676 136.272 258.01C137.922 249.343 149.833 241.684 151.667 237.33C153.502 232.976 147.348 235.043 141.282 240.762C135.217 246.48 137.184 255.569 127.519 264.998C117.855 274.427 94.0186 261.16 94.0186 261.16C103.053 257.582 112.802 243.147 111.296 240.262C109.791 237.376 90.7965 253.075 87.2031 254.736C83.6097 256.398 73.5482 254.632 67.1536 240.05Z" fill="#CDE0FB"/>
<path d="M359.239 257.58C368.571 246.57 351.65 229.684 351.65 229.684C351.65 229.684 322.522 230.369 319.41 226.875C316.298 223.381 344.202 221.425 344.202 221.425C339.814 213.522 317.734 200.9 317.734 200.9C317.734 200.9 295.137 218.229 292.981 214.077C290.825 209.925 313.771 199.753 313.771 199.753C306.682 194.066 293.709 193.136 293.709 193.136C274.324 194.156 276.635 218.994 276.635 218.994C276.635 218.994 268.674 224.829 255.898 226.232C255.898 226.232 253.398 226.283 249.68 227.151L251.027 229.107C251.659 228.904 252.287 228.733 252.909 228.592C252.911 228.591 252.913 228.591 252.915 228.591C252.917 228.591 252.918 228.591 252.92 228.592H252.948C253.341 228.518 253.904 228.408 254.602 228.294C256.183 228.086 257.324 227.895 258.124 227.721C263.026 226.985 269.584 226.265 271.769 227.294C271.927 226.924 272.131 226.575 272.378 226.258C272.194 226.588 271.983 226.932 271.769 227.294C266.906 235.578 277.236 253.13 285.568 261.133C293.9 269.136 293.731 263.261 294.539 255.304C295.348 247.347 286.979 237.608 286.513 233.347C286.046 229.086 290.847 232.476 294.648 239.019C298.449 245.563 294.378 252.948 300.346 263.649C306.314 274.35 330.451 268.98 330.451 268.98C323.527 263.53 318.789 248.47 320.849 246.346C322.91 244.221 335.348 262.787 338.041 265.16C340.733 267.533 349.909 268.588 359.239 257.58Z" fill="#CDE0FB"/>
<path opacity="0.5" d="M127.118 44.3229C136.735 28.1866 164.672 41.8912 164.672 41.8912C164.672 41.8912 176.126 78.0476 181.742 80.4058C187.357 82.7641 177.987 47.58 177.987 47.58C189.568 49.6459 214.437 71.5133 214.437 71.5133C214.437 71.5133 202.639 106.653 208.662 107.556C214.685 108.458 217.521 75.9118 217.521 75.9118C227.519 82.2421 234.139 97.8251 234.139 97.8251C241.067 122.124 209.509 129.765 209.509 129.765C209.509 129.765 205.684 142.03 209.351 158.356C209.351 158.356 210.342 161.459 210.847 166.401L207.873 165.569C207.853 164.703 207.802 163.857 207.712 163.034C207.713 163.031 207.714 163.029 207.714 163.026C207.714 163.023 207.713 163.02 207.712 163.017C207.712 163.006 207.712 162.993 207.712 162.982C207.636 162.466 207.528 161.729 207.384 160.83C206.975 158.795 206.728 157.31 206.605 156.251C205.445 149.903 203.559 141.527 201.368 139.268C201.759 138.919 202.102 138.52 202.389 138.082L201.368 139.268C193.222 148.756 167.249 143.446 153.877 136.564C140.505 129.682 147.811 127.412 157.266 123.056C166.721 118.7 182.249 124.894 187.692 123.67C193.134 122.446 186.934 117.972 177.272 116.048C167.609 114.123 160.235 122.262 144.554 119.439C128.874 116.616 125.273 84.6205 125.273 84.6205C134.904 90.8478 155.45 90.3185 157.196 86.8887C158.942 83.4588 130.829 75.978 126.771 73.6546C122.712 71.3313 117.502 60.4611 127.118 44.3229Z" fill="#CDE0FB"/>
<path d="M353.394 164.35C351.527 167.832 349.321 171.121 346.809 174.171C344.309 177.156 341.75 179.424 339.591 180.192H339.574C339.46 180.231 339.35 180.267 339.238 180.297C339.232 180.299 339.227 180.299 339.221 180.297C338.815 180.418 338.391 180.473 337.968 180.459C330.88 180.141 323.41 164.936 323.41 164.936C323.41 164.936 323.605 163.135 324.984 161.861C326.186 160.758 327.11 160.461 327.11 160.461C327.11 160.461 334.744 168.3 336.609 168.864C337.782 169.217 339.324 163.743 341.533 156.869C343.743 149.995 351.507 148.3 351.507 148.3C351.507 148.3 359.363 153.294 353.394 164.35Z" fill="#AEC3FF"/>
<path d="M346.81 174.171C344.31 177.156 341.752 179.424 339.592 180.192H339.575L339.239 180.297H339.221C339.3 180.245 341.61 179.047 341.978 176.821C342.345 174.549 339.943 172.689 345.988 169.173C349.506 167.135 346.81 174.171 346.81 174.171Z" fill="#94B0ED"/>
<path d="M341.277 278.442H357.888C359.077 277.635 357.566 269.744 357.566 269.744C357.566 269.744 353.034 268.024 352.251 271.522C351.468 275.019 346.475 276.13 343.836 276.556C342.029 276.85 341.457 277.843 341.277 278.442Z" fill="#24406D"/>
<path d="M366.607 196.652C366.607 196.652 366.083 206.342 365.427 217.571C364.956 225.622 364.419 234.464 363.956 241.087C363.895 241.966 363.835 242.806 363.772 243.6C363.756 243.846 363.737 244.09 363.719 244.335C362.53 259.185 358.552 272.194 358.552 272.194C353.884 273.178 351.773 271.378 351.773 271.378C351.773 271.378 348.555 233.665 347.362 218.455C346.485 207.259 345.737 190.958 345.737 190.958L366.607 196.652Z" fill="#FF9E55"/>
<path d="M365.428 217.571C364.957 225.622 364.421 234.465 363.957 241.087C360.904 233.886 354.666 205.815 354.666 205.815L365.428 217.571Z" fill="#ED7D2B"/>
<path d="M365.91 278.442H382.522C383.712 277.635 382.201 269.744 382.201 269.744C382.201 269.744 377.666 268.024 376.883 271.522C376.1 275.019 371.11 276.13 368.469 276.556C366.662 276.85 366.092 277.843 365.91 278.442Z" fill="#24406D"/>
<path d="M350.258 194.726C350.258 194.726 362.119 224.252 365.911 235.444C368.613 243.416 376.23 271.384 376.23 271.384C376.23 271.384 379.538 272.393 382.326 270.444C382.326 270.444 385.161 241.87 379.437 233.814C376.399 229.538 378.682 189.377 366.367 189.033C354.052 188.689 350.258 194.726 350.258 194.726Z" fill="#FF9E55"/>
<path d="M374.546 185.228C374.497 189.427 374.451 192.509 374.462 193.288C374.495 195.829 372.87 196.402 371.195 196.79C371.195 196.79 369.65 197.123 367.703 197.453C365.792 197.773 363.476 198.089 361.856 198.078C356.661 197.998 351.506 197.149 346.558 195.56C344.99 195.56 344.277 193.138 344.02 189.752C343.845 187.462 344.553 164.616 344.641 158.913C344.702 154.821 346.948 151.041 347.582 150.487C353.398 145.341 370.558 145.993 373.647 149.541C374.412 150.417 374.634 158.874 374.66 168.14C374.666 174.105 374.605 180.402 374.546 185.228Z" fill="#AEC3FF"/>
<path d="M364.237 147.504C362.046 149.879 354.679 149.526 354.905 147.454C354.935 147.199 354.983 145.682 355.008 145.447C355.027 145.263 355.045 145.08 355.06 144.896C355.11 144.385 355.15 143.933 355.183 143.543C355.282 142.407 355.314 141.791 355.314 141.791C355.523 141.731 360.256 140.387 362.609 139.83C363.399 139.646 363.923 139.545 363.914 139.615C363.202 144.905 364.96 146.725 364.237 147.504Z" fill="#FFB27D"/>
<path d="M362.87 141.394C362.87 141.394 360.894 143.401 355.187 143.547C355.286 142.411 355.317 141.795 355.317 141.795C355.527 141.734 360.26 140.391 362.612 139.834C363.035 140.005 362.485 141.109 362.87 141.394Z" fill="#ED975D"/>
<path d="M353.872 141.514C354.941 141.872 356.042 142.128 357.159 142.278C359.852 142.646 363.395 142.429 364.511 139.168C366.386 133.684 368.779 130.393 363.263 128.155C360.311 126.954 358.422 126.892 357.139 127.35C356.025 127.743 355.367 128.533 354.871 129.313C353.795 130.993 351.641 140.552 353.872 141.514Z" fill="#FFB27D"/>
<path d="M355.282 125.069C353.312 126.356 353.955 129.394 356.277 129.804C357.668 130.048 358.835 130.096 359.51 130.397C360.881 131.006 362.061 131.653 361.736 133.779C361.627 134.504 361.274 135.386 363.136 134.948C363.358 134.873 363.601 134.888 363.813 134.989C364.585 135.447 363.598 137.669 363.3 138.15C363.3 138.15 362.872 139.742 363.824 140.516C363.938 140.61 365.807 141.435 370.31 134.535C371.018 133.454 371.693 131.017 370.601 128.67C369.509 126.322 366.463 123.356 360.727 123.356C359.232 123.356 356.988 123.948 355.282 125.069Z" fill="#233862"/>
<path d="M374.546 185.229C373.708 189.123 373.921 189.164 372.636 188.142C367.398 183.979 368.929 181.797 370.093 178.189C371.256 174.581 367.172 168.938 370.093 166.532C372.951 164.181 374.577 167.971 374.649 168.14C374.666 174.105 374.605 180.402 374.546 185.229Z" fill="#94B0ED"/>
<path d="M374.418 184.725C374.418 184.725 372.444 187.954 371.15 187.85C369.856 187.745 368.108 187.252 367.107 188.217C366.105 189.182 364.473 191.662 364.927 192.323C365.381 192.985 367.208 192.399 368.518 191.675C369.829 190.95 371.898 192.031 372.999 191.208C374.1 190.384 376.738 187.114 376.738 187.114L374.418 184.725Z" fill="#FFB27D"/>
<path d="M373.635 149.541C373.635 149.541 390.022 164.958 387.895 175.217C386.925 179.891 383.916 183.833 375.898 190.217C375.898 190.217 372.104 187.596 371.272 185.467C371.272 185.467 378.55 175.217 378.269 173.47C377.924 171.335 372.955 165.977 371.174 165.144C369.393 164.311 369.555 151.329 373.635 149.541Z" fill="#AEC3FF"/>
<path d="M371.149 187.849C371.149 187.849 369.421 187.094 368.866 186.771C368.311 186.447 368.434 186.971 368.605 187.232C368.776 187.493 369.238 188.081 369.916 188.151C370.348 188.176 370.777 188.071 371.149 187.849Z" fill="#FFB27D"/>
<path d="M83.0153 154.336C82.4234 153.193 95.9405 149.079 96.1555 160.356C96.1555 160.356 121.477 159.733 109.39 145.618C105.204 140.733 105.634 136.693 105.761 132.936C105.888 129.179 103.153 118.244 93.7808 119.345C93.7808 119.345 91.327 118.345 88.2666 119.935C81.293 123.545 65.6879 158.494 83.0153 154.336Z" fill="#163560"/>
<path d="M124.414 164.69C124.414 164.69 126.068 162.181 127.392 162.131C128.715 162.082 131.18 161.396 130.983 161.885C130.787 162.374 129.261 162.437 129.114 162.722C128.967 163.006 131.377 163.457 132.066 163.51C132.755 163.563 134.378 163.51 134.329 163.854C134.279 164.197 131.402 165.626 129.366 165.429C127.329 165.232 124.826 166.019 124.826 166.019L124.414 164.69Z" fill="#FFB27D"/>
<path d="M100.577 165.499C101.299 166.844 102.143 168.12 103.099 169.311C105.058 171.765 108.078 174.597 111.87 175.158C113.681 175.424 115.453 175.035 117.079 174.312C121.674 172.268 125.146 167.566 125.146 167.566C125.959 165.352 124.63 163.852 124.63 163.852C124.63 163.852 115.331 165.943 114.445 165.506C113.559 165.069 108.115 152.983 107.134 150.971C105.049 146.695 101.741 145.468 101.741 145.468L100.577 165.499Z" fill="#AEC3FF"/>
<path d="M103.098 169.311C105.058 171.765 108.078 174.597 111.869 175.158C113.68 175.424 115.452 175.035 117.079 174.312C116.895 174.334 112.3 174.904 110.462 171.623C108.59 168.278 106.569 162.964 103.791 164.736C102.598 165.501 102.652 167.399 103.098 169.311Z" fill="#94B0ED"/>
<path d="M65.8855 265.875C65.8855 265.875 63.0476 268.465 63.6008 270.305C64.1541 272.145 66.7145 273.372 67.0619 275.62C67.4093 277.868 68.7915 279.096 70.0377 279.096H75.9765C75.9765 279.096 76.8955 277.514 74.6788 277.036C72.4621 276.558 71.6295 273.911 71.7673 271.465C71.9052 269.018 71.5596 265.739 71.5596 265.739L66.8542 264.649L65.8855 265.875Z" fill="#1D3356"/>
<path d="M89.9022 266.976C89.9022 266.976 88.8803 277.946 90.1265 278.556L106.07 278.525C106.07 278.525 106.07 276.687 103.508 276.275C100.945 275.863 96.4494 274.367 95.6884 271.027C94.9275 267.687 89.9022 266.976 89.9022 266.976Z" fill="#1D3356"/>
<path d="M77.6369 158.099C77.4934 160.553 77.4934 163.013 77.6369 165.467C77.795 168.133 80.4896 171.7 80.8719 172.583C81.8314 174.788 82.9121 175.156 82.9121 175.156L91.2863 177.209L94.2272 177.929L103.508 175.167C103.508 175.167 107.735 163.367 106.039 156.726C104.342 150.085 101.747 145.469 101.747 145.469C101.747 145.469 95.455 142.988 84.3127 144.841L77.6369 158.099Z" fill="#AEC3FF"/>
<path d="M80.0889 166.556C80.2469 169.219 80.4914 171.702 80.8737 172.583C81.8332 174.788 82.914 175.156 82.914 175.156L91.2882 177.209L94.9238 176.141C94.9238 176.141 82.7926 174.303 84.1326 163.859L80.0889 166.556Z" fill="#F2CCAA"/>
<path d="M102.918 176.948C102.918 176.948 107.513 191.255 107.809 196.126C108.105 200.997 99.0227 265.322 98.6569 267.566C98.3132 269.682 95.6866 271.029 95.6866 271.029C95.6866 271.029 94.4771 271.742 92.7457 271.255C90.3562 270.581 89.5971 269.772 89.5971 269.772C89.5971 269.772 86.0202 223.896 88.2333 207.508C89.5816 197.374 90.3298 187.17 90.4739 176.948H102.918Z" fill="#233862"/>
<path d="M83.4429 176.522C83.4429 176.522 76.4325 185.929 75.7781 192.288C75.1238 198.648 74.7525 220.984 73.3611 227.184C71.9697 233.384 66.8525 245.313 66.8525 264.649C66.8525 264.649 67.3837 265.752 69.0251 266.347C69.652 266.559 70.2902 266.736 70.9367 266.877C71.5948 267.027 72.2844 266.951 72.8942 266.662C73.5041 266.373 73.9988 265.886 74.2985 265.281C77.7577 258.317 88.7769 235.854 89.3412 231.193C89.7419 227.884 93.2195 206.054 100.809 193.241C102.63 190.164 99.6913 177.93 99.6913 177.93L83.4429 176.522Z" fill="#2B478B"/>
<path d="M103.652 174.74C103.652 174.74 101.814 176.2 98.1379 176.273C93.7597 176.362 82.9114 175.158 82.9114 175.158C82.6121 176.05 82.4558 176.984 82.4482 177.926C82.4482 177.926 95.6988 181.269 103.376 178.415C103.38 178.415 104.371 176.551 103.652 174.74Z" fill="#233862"/>
<path d="M97.1934 177.784C97.1934 176.538 98.0885 175.523 99.1913 175.523C100.294 175.523 101.189 176.538 101.189 177.784C101.189 179.03 100.292 180.047 99.1895 180.047C98.0867 180.047 97.1934 179.027 97.1934 177.784ZM97.8551 177.784C97.8551 178.667 98.4543 179.383 99.1913 179.383C99.9284 179.383 100.528 178.667 100.528 177.784C100.528 176.902 99.9284 176.185 99.1913 176.185C98.4543 176.185 97.8551 176.904 97.8551 177.784Z" fill="white"/>
<path d="M70.0578 178.554L80.8178 187.928C81.1915 188.253 81.6789 188.416 82.1728 188.382C82.6667 188.347 83.1267 188.118 83.4517 187.745L97.1801 171.978C97.3412 171.793 97.4642 171.578 97.5421 171.345C97.6201 171.113 97.6514 170.867 97.6343 170.623C97.6172 170.378 97.5521 170.139 97.4426 169.92C97.3332 169.7 97.1815 169.505 96.9963 169.344L86.2364 159.97C86.0516 159.809 85.8368 159.686 85.6045 159.608C85.3721 159.53 85.1267 159.499 84.8822 159.516C84.6377 159.533 84.399 159.598 84.1797 159.707C83.9604 159.817 83.7649 159.968 83.6043 160.154L69.874 175.92C69.5492 176.294 69.3861 176.782 69.4205 177.275C69.455 177.769 69.6842 178.229 70.0578 178.554Z" fill="#F78248"/>
<path d="M85.9742 177.373C86.1286 177.413 91.6905 178.067 91.6924 179.211C91.6924 180.54 90.062 182.321 88.5236 182.236C87.9023 182.203 85.0312 179.564 85.0312 179.564L85.9742 177.373Z" fill="#FFB27D"/>
<path d="M88.8326 144.223C89.4649 142.688 89.8344 140.35 89.8233 137.457L90.2443 137.54L97.3097 138.939C97.3097 138.939 97.1498 141.163 97.1443 143.258V143.31C97.1443 145.129 98.374 146.954 95.4551 147.677C94.5527 147.899 87.5019 147.447 88.8326 144.223Z" fill="#FFB27D"/>
<path d="M97.3096 138.939C97.3096 138.939 97.1497 141.163 97.1442 143.258C93.1905 143.146 91.1007 139.54 90.2441 137.54L97.3096 138.939Z" fill="#E8945B"/>
<path d="M98.6392 140.922C98.6392 140.922 89.2835 141.076 89.2761 135.25C89.2688 129.423 88.0593 125.508 94.0312 125.172C100.003 124.835 101.167 127.05 101.643 128.995C102.119 130.94 101.064 140.733 98.6392 140.922Z" fill="#FFB27D"/>
<path d="M98.2857 125.03C98.2857 125.03 95.7253 131.866 91.7937 132.877C87.8621 133.888 86.1582 132.835 86.1582 132.835C86.1582 132.835 89.1726 130.445 89.7994 126.258C89.7994 126.258 96.3539 121.775 98.2857 125.03Z" fill="#163560"/>
<path d="M97.6504 125.585C97.6504 125.585 99.5491 126.295 100.332 127.681C101.275 129.299 101.715 131.161 101.597 133.029C101.597 133.029 103.527 128.383 101.358 125.754C99.0565 122.966 97.6504 125.585 97.6504 125.585Z" fill="#163560"/>
<path d="M85.9736 177.373C85.9736 177.373 87.3081 176.944 88.1995 177.069C89.091 177.194 89.749 177.051 89.749 177.301C89.749 177.551 88.5984 177.668 88.3539 177.786C88.1095 177.904 85.9736 177.373 85.9736 177.373Z" fill="#FFB27D"/>
<path d="M84.3133 144.839C84.3133 144.839 77.6724 145.306 75.123 151.493C72.5736 157.68 67.7598 168.065 67.7598 169.813C67.7598 171.561 70.458 176.948 84.9474 180.047C84.9474 180.047 86.4455 178.47 86.3554 177.224C86.3554 177.224 77.3103 169.454 77.3342 168.546C77.3802 166.83 78.8175 164.561 86.7579 156.617C88.9085 154.458 84.3133 144.839 84.3133 144.839Z" fill="#AEC3FF"/>
<path d="M269.968 92.0864H198.203C196.468 92.0866 194.804 92.7755 193.576 94.0017L142.831 144.747C142.223 145.354 141.741 146.076 141.412 146.87C141.083 147.664 140.914 148.515 140.914 149.375V221.138C140.914 222.874 141.604 224.539 142.831 225.767L193.576 276.51C194.184 277.118 194.905 277.6 195.699 277.929C196.493 278.258 197.343 278.427 198.203 278.427H269.968C270.827 278.427 271.678 278.258 272.472 277.929C273.266 277.6 273.987 277.118 274.594 276.51L325.336 225.767C326.563 224.539 327.253 222.874 327.253 221.138V149.375C327.253 148.515 327.084 147.664 326.755 146.87C326.426 146.076 325.943 145.354 325.336 144.747L274.594 94.0017C273.367 92.7751 271.703 92.0862 269.968 92.0864Z" fill="#F78248"/>
<path d="M264.854 269.114H203.187C201.952 269.116 200.728 268.874 199.586 268.401C198.445 267.928 197.408 267.233 196.537 266.357L152.933 222.754C152.056 221.883 151.362 220.847 150.888 219.705C150.415 218.564 150.173 217.34 150.176 216.104V154.437C150.173 153.202 150.415 151.978 150.889 150.836C151.362 149.695 152.057 148.658 152.933 147.787L196.537 104.183C197.408 103.307 198.445 102.612 199.586 102.139C200.728 101.665 201.952 101.423 203.187 101.426H264.854C266.09 101.423 267.314 101.665 268.455 102.138C269.597 102.611 270.633 103.306 271.504 104.183L315.108 147.789C315.985 148.66 316.68 149.695 317.153 150.837C317.627 151.978 317.869 153.202 317.865 154.437V216.104C317.869 217.34 317.627 218.564 317.154 219.706C316.68 220.847 315.985 221.883 315.108 222.754L271.504 266.358C270.633 267.235 269.597 267.93 268.455 268.403C267.314 268.876 266.09 269.117 264.854 269.114ZM203.187 107.822C202.792 107.822 202.4 107.899 202.035 108.051C201.669 108.202 201.338 108.424 201.059 108.705L157.456 152.311C157.176 152.589 156.954 152.921 156.802 153.286C156.651 153.651 156.573 154.042 156.574 154.437V216.104C156.573 216.5 156.651 216.891 156.802 217.257C156.953 217.622 157.176 217.954 157.456 218.233L201.061 261.839C201.34 262.119 201.671 262.341 202.037 262.492C202.402 262.643 202.794 262.72 203.189 262.719H264.856C265.251 262.72 265.643 262.643 266.008 262.492C266.374 262.341 266.705 262.119 266.984 261.839L310.589 218.233C310.869 217.954 311.092 217.622 311.244 217.257C311.395 216.892 311.472 216.5 311.471 216.104V154.437C311.472 154.042 311.395 153.65 311.243 153.285C311.092 152.92 310.869 152.589 310.589 152.311L266.983 108.705C266.704 108.424 266.372 108.202 266.007 108.05C265.641 107.899 265.25 107.821 264.854 107.822H203.187Z" fill="#FFE5D4"/>
<path d="M221.055 223.695C221.033 222.044 221.346 220.406 221.973 218.88C222.572 217.434 223.468 216.129 224.603 215.05C225.78 213.943 227.169 213.084 228.686 212.525C230.408 211.893 232.23 211.582 234.064 211.607C235.911 211.584 237.746 211.896 239.482 212.525C241.014 213.078 242.417 213.937 243.605 215.05C244.739 216.13 245.634 217.434 246.235 218.88C246.861 220.407 247.173 222.044 247.153 223.695C247.175 225.332 246.863 226.957 246.235 228.47C245.626 229.899 244.731 231.189 243.605 232.259C242.416 233.372 241.013 234.231 239.482 234.785C237.746 235.413 235.911 235.724 234.064 235.703C232.231 235.727 230.408 235.416 228.686 234.785C227.17 234.225 225.781 233.366 224.603 232.259C223.476 231.19 222.58 229.9 221.973 228.47C221.344 226.958 221.031 225.332 221.055 223.695ZM243.78 201.23H224.382L221.627 134.913H246.535L243.78 201.23Z" fill="white"/>
</svg>
