<svg width="289" height="299" viewBox="0 0 289 299" fill="none" xmlns="http://www.w3.org/2000/svg">
<path opacity="0.5" d="M117.128 231.054C111.232 225.879 100.85 234.65 100.85 234.65C100.85 234.65 99.9926 250.27 97.8702 251.88C95.7478 253.49 95.7792 238.508 95.7792 238.508C91.0745 240.725 82.9091 252.34 82.9091 252.34C82.9091 252.34 91.8586 264.74 89.3912 265.827C86.9238 266.914 82.0727 254.452 82.0727 254.452C78.518 258.153 77.4307 265.085 77.4307 265.085C77.1903 275.54 91.5031 274.672 91.5031 274.672C93.5475 278.068 94.6717 281.938 94.7651 285.901C94.7334 287.021 94.8175 288.143 95.016 289.246L96.1974 288.556C96.1031 288.212 96.0298 287.863 95.9779 287.511C95.9779 287.302 95.9151 286.998 95.8733 286.622C95.8733 285.775 95.7583 285.158 95.6956 284.73C95.4865 282.095 95.3506 278.561 96.0301 277.411C95.8303 277.316 95.6411 277.201 95.4656 277.066L96.0301 277.411C100.568 280.161 111.054 274.923 115.989 270.584C120.923 266.245 117.557 266.256 113.03 265.681C108.503 265.106 102.575 269.434 100.128 269.612C97.682 269.789 99.8148 267.28 103.715 265.357C107.614 263.433 111.681 265.733 118.048 262.722C124.415 259.711 122.387 246.684 122.387 246.684C118.979 250.301 110.155 252.581 109.026 251.441C107.897 250.301 119.052 243.955 120.526 242.544C122 241.132 123.035 236.239 117.128 231.054Z" fill="#A1B7D7"/>
<path opacity="0.5" d="M0.0430333 244.342C0.743517 231.399 23.6713 229.831 23.6713 229.831C23.6713 229.831 43.6089 247.343 48.0837 246.799C52.5584 246.255 34.304 228.576 34.304 228.576C42.5634 225.774 66.2962 230.123 66.2962 230.123C66.2962 230.123 70.7396 255.121 74.9739 253.563C79.2081 252.006 69.8195 231.66 69.8195 231.66C78.5181 231.953 88.2099 238.916 88.2099 238.916C101.111 250.95 83.1915 266.475 83.1915 266.475C83.1915 266.475 84.927 275.101 92.946 283.527C94.3387 284.818 95.5963 286.247 96.6993 287.793L94.4724 288.326C94.1692 287.824 93.8346 287.333 93.5001 286.873L92.5487 285.702C91.5764 284.657 90.9072 283.841 90.4577 283.256C87.5094 279.879 83.3901 275.55 81.1841 274.975C81.3169 274.64 81.4014 274.288 81.435 273.93L81.1841 274.975C79.1454 283.454 60.3996 289.33 49.3069 289.895C38.2142 290.459 42.1975 286.559 46.85 280.673C51.5024 274.787 63.7661 273.083 66.8922 270.459C70.0182 267.835 64.4352 267.322 57.4827 269.549C50.5301 271.776 48.5228 279.157 37.3255 282.932C26.1282 286.706 12.7458 268.932 12.7458 268.932C21.1725 269.288 34.3772 261.823 34.3249 259.178C34.2726 256.533 13.4149 261.865 9.93344 261.896C6.45193 261.927 -0.61563 257.275 0.0430333 244.342Z" fill="#A1B7D7"/>
<path opacity="0.4" d="M154.673 298.729C228.437 298.729 288.235 294.301 288.235 288.838C288.235 283.376 228.437 278.948 154.673 278.948C80.9082 278.948 21.1104 283.376 21.1104 288.838C21.1104 294.301 80.9082 298.729 154.673 298.729Z" fill="#C4C4C4"/>
<path d="M261.637 197.744C261.637 198.445 114.483 225.586 114.483 225.586L121.091 215.131L266.196 188.931C266.153 189.214 266.05 189.486 265.893 189.726C265.736 189.966 265.529 190.169 265.286 190.321C264.429 190.896 264.146 190.781 264.146 190.781L260.958 197.054C261.048 197.053 261.138 197.07 261.222 197.104C261.306 197.138 261.382 197.189 261.445 197.254C261.509 197.318 261.558 197.395 261.591 197.479C261.624 197.564 261.64 197.654 261.637 197.744Z" fill="#F88F5B"/>
<path opacity="0.9" d="M225.661 0.134567L93.4784 24.0765C92.3916 24.2726 91.3544 24.6819 90.4267 25.281C89.4989 25.88 88.699 26.6568 88.073 27.5666C87.4471 28.4764 87.0075 29.5011 86.7796 30.5817C86.5517 31.6622 86.5401 32.7772 86.7454 33.8623L120.201 209.506C120.615 211.679 121.872 213.6 123.698 214.848C125.524 216.096 127.771 216.57 129.945 216.166L260.633 191.827C262.809 191.423 264.736 190.172 265.992 188.35C267.249 186.527 267.731 184.281 267.334 182.103L235.384 6.86757C234.987 4.6855 233.74 2.75038 231.916 1.48775C230.093 0.22512 227.843 -0.26162 225.661 0.134567Z" fill="#FFD93A"/>
<path opacity="0.9" d="M86.5786 29.1995L81.4766 42.5609L114.807 225.324L121.477 215.204L86.5786 29.1995Z" fill="#CBA401"/>
<path d="M264.449 190.677L121.498 216.323L120.589 222.961L261.041 197.085L264.449 190.677Z" fill="#DCDBDB"/>
<path opacity="0.3" fill-rule="evenodd" clip-rule="evenodd" d="M191.484 63.4709C205.18 66.712 222.013 62.2581 231.652 72.504C241.292 82.7499 235.897 99.3524 238.312 113.278C240.999 128.773 254.914 145.208 246.603 158.548C238.291 171.889 217.256 166.547 202.211 171.157C189.498 175.078 178.457 185.334 165.273 183.505C151.682 181.623 141.624 170.959 131.818 161.382C121.153 151.042 108.534 140.921 106.224 126.243C103.861 111.271 111.744 96.9059 119.617 83.9522C127.364 71.2076 136.345 57.3234 150.626 53.225C164.395 49.3044 177.454 60.1044 191.484 63.4709Z" fill="#C6C8D6"/>
<path d="M180.653 155.333L181.018 157.305L178.341 157.799L179.843 165.932L177.382 166.386L175.879 158.254L173.202 158.749L172.838 156.777L180.653 155.333ZM184.98 158.061C185.187 157.566 185.483 157.154 185.868 156.825C186.252 156.486 186.708 156.268 187.236 156.171L187.717 158.776L187.041 158.901C186.427 159.014 185.991 159.234 185.733 159.559C185.474 159.875 185.406 160.364 185.528 161.026L186.217 164.754L183.756 165.209L182.272 157.177L184.733 156.722L184.98 158.061ZM188.678 160.131C188.526 159.306 188.545 158.553 188.737 157.873C188.939 157.191 189.277 156.632 189.752 156.197C190.227 155.762 190.796 155.483 191.458 155.36C192.024 155.256 192.54 155.28 193.005 155.432C193.479 155.582 193.866 155.823 194.165 156.155L193.955 155.018L196.416 154.563L197.901 162.595L195.439 163.05L195.229 161.912C195.059 162.331 194.779 162.695 194.389 163.005C194.01 163.314 193.537 163.52 192.971 163.625C192.318 163.745 191.692 163.687 191.093 163.451C190.492 163.205 189.975 162.799 189.543 162.234C189.119 161.657 188.831 160.956 188.678 160.131ZM194.697 159.034C194.584 158.42 194.322 157.967 193.91 157.676C193.509 157.383 193.064 157.282 192.574 157.372C192.085 157.462 191.7 157.717 191.42 158.136C191.148 158.543 191.069 159.054 191.183 159.668C191.296 160.283 191.555 160.741 191.958 161.043C192.369 161.335 192.819 161.435 193.308 161.345C193.798 161.254 194.178 161 194.448 160.583C194.728 160.164 194.811 159.648 194.697 159.034ZM199.281 153.171C198.849 153.25 198.471 153.191 198.146 152.993C197.83 152.784 197.637 152.492 197.568 152.118C197.497 151.734 197.573 151.392 197.795 151.093C198.026 150.783 198.357 150.588 198.789 150.508C199.211 150.43 199.58 150.496 199.897 150.705C200.221 150.903 200.419 151.194 200.49 151.578C200.559 151.952 200.478 152.294 200.248 152.605C200.025 152.904 199.703 153.093 199.281 153.171ZM200.658 153.779L202.142 161.811L199.681 162.266L198.197 154.234L200.658 153.779ZM208.017 158.567L208.402 160.654L207.15 160.885C206.258 161.05 205.522 160.963 204.943 160.623C204.363 160.274 203.981 159.605 203.799 158.617L203.208 155.422L202.23 155.603L201.852 153.559L202.831 153.378L202.469 151.42L204.93 150.966L205.292 152.923L206.904 152.625L207.282 154.669L205.669 154.967L206.265 158.191C206.31 158.431 206.399 158.593 206.534 158.677C206.668 158.762 206.87 158.779 207.139 158.729L208.017 158.567ZM213.062 159.912C212.361 160.041 211.716 160.037 211.124 159.898C210.533 159.759 210.041 159.513 209.648 159.159C209.253 158.795 208.989 158.358 208.855 157.846L211.287 157.397C211.368 157.67 211.539 157.871 211.801 158.002C212.063 158.132 212.362 158.166 212.698 158.104C213.005 158.047 213.23 157.946 213.371 157.801C213.521 157.644 213.578 157.47 213.543 157.278C213.5 157.048 213.349 156.902 213.09 156.841C212.829 156.77 212.417 156.717 211.855 156.682C211.254 156.654 210.749 156.603 210.338 156.53C209.926 156.448 209.552 156.274 209.215 156.009C208.876 155.734 208.656 155.323 208.555 154.776C208.47 154.315 208.518 153.875 208.698 153.455C208.886 153.023 209.205 152.651 209.653 152.34C210.111 152.027 210.681 151.808 211.362 151.682C212.37 151.496 213.208 151.599 213.876 151.992C214.553 152.383 215.011 152.983 215.25 153.792L212.976 154.212C212.886 153.941 212.721 153.743 212.48 153.619C212.248 153.493 211.964 153.461 211.628 153.523C211.34 153.577 211.13 153.675 210.998 153.818C210.864 153.952 210.815 154.115 210.85 154.307C210.893 154.538 211.045 154.688 211.306 154.759C211.577 154.828 211.982 154.872 212.521 154.892C213.144 154.935 213.657 154.999 214.06 155.083C214.461 155.158 214.831 155.338 215.172 155.622C215.52 155.895 215.75 156.309 215.863 156.864C215.95 157.334 215.893 157.781 215.694 158.205C215.502 158.618 215.176 158.975 214.716 159.279C214.266 159.58 213.714 159.791 213.062 159.912Z" fill="#2B2B2B"/>
<path d="M156.49 145.163C157.099 145.168 157.627 145.363 158.075 145.749C158.521 146.126 158.804 146.606 158.923 147.189C159.096 148.03 158.937 148.76 158.447 149.379C157.964 149.986 157.197 150.397 156.145 150.613L151.457 151.576L149.389 141.511L153.92 140.581C154.943 140.371 155.789 140.441 156.459 140.791C157.138 141.14 157.56 141.716 157.725 142.519C157.847 143.111 157.79 143.636 157.555 144.093C157.33 144.547 156.975 144.904 156.49 145.163ZM152.678 145.08L154.283 144.75C154.685 144.667 154.973 144.519 155.148 144.303C155.33 144.077 155.386 143.791 155.316 143.447C155.245 143.103 155.081 142.863 154.824 142.726C154.576 142.588 154.252 142.56 153.85 142.642L152.245 142.972L152.678 145.08ZM155.309 148.723C155.72 148.639 156.016 148.483 156.199 148.256C156.389 148.018 156.448 147.722 156.375 147.368C156.303 147.015 156.126 146.762 155.846 146.61C155.575 146.457 155.235 146.422 154.824 146.507L153.046 146.872L153.502 149.094L155.309 148.723ZM167.601 143.957C167.648 144.186 167.683 144.428 167.706 144.683L162.157 145.822C162.297 146.311 162.533 146.661 162.866 146.872C163.205 147.071 163.581 147.129 163.992 147.044C164.604 146.919 164.976 146.573 165.109 146.008L167.718 145.472C167.692 146.025 167.546 146.548 167.279 147.042C167.021 147.533 166.654 147.952 166.177 148.299C165.7 148.646 165.137 148.886 164.487 149.019C163.703 149.18 162.971 149.157 162.291 148.948C161.61 148.739 161.034 148.359 160.563 147.808C160.091 147.258 159.77 146.567 159.599 145.735C159.428 144.903 159.446 144.143 159.653 143.453C159.869 142.761 160.249 142.185 160.792 141.724C161.335 141.264 162.003 140.953 162.797 140.79C163.571 140.631 164.293 140.652 164.961 140.853C165.63 141.054 166.194 141.422 166.652 141.955C167.12 142.487 167.436 143.154 167.601 143.957ZM164.96 143.827C164.873 143.406 164.661 143.101 164.323 142.912C163.986 142.722 163.602 142.671 163.172 142.76C162.761 142.844 162.436 143.035 162.198 143.333C161.97 143.629 161.868 144.004 161.891 144.457L164.96 143.827ZM173 138.724C173.917 138.535 174.716 138.69 175.396 139.188C176.074 139.676 176.522 140.451 176.74 141.512L177.7 146.186L175.263 146.687L174.371 142.342C174.261 141.807 174.037 141.42 173.699 141.18C173.36 140.941 172.957 140.869 172.489 140.966C172.021 141.062 171.678 141.286 171.462 141.64C171.246 141.993 171.192 142.437 171.302 142.973L172.195 147.317L169.743 147.82L167.564 137.211L170.015 136.707L170.772 140.392C170.948 139.987 171.229 139.635 171.616 139.337C172.003 139.038 172.464 138.834 173 138.724ZM178.092 141.922C177.923 141.1 177.928 140.347 178.106 139.662C178.294 138.976 178.621 138.411 179.088 137.967C179.554 137.522 180.117 137.232 180.777 137.097C181.341 136.981 181.856 136.994 182.324 137.137C182.801 137.278 183.193 137.512 183.499 137.837L183.266 136.705L185.718 136.201L187.361 144.202L184.91 144.705L184.677 143.572C184.515 143.994 184.242 144.364 183.859 144.682C183.485 144.998 183.017 145.213 182.453 145.329C181.803 145.463 181.176 145.417 180.572 145.193C179.966 144.959 179.441 144.563 178.998 144.007C178.563 143.439 178.261 142.744 178.092 141.922ZM184.088 140.705C183.962 140.093 183.691 139.646 183.274 139.363C182.867 139.078 182.42 138.986 181.932 139.086C181.445 139.186 181.065 139.448 180.794 139.872C180.53 140.285 180.461 140.797 180.587 141.409C180.712 142.021 180.98 142.474 181.389 142.769C181.806 143.052 182.258 143.143 182.745 143.043C183.233 142.943 183.607 142.681 183.869 142.259C184.141 141.835 184.214 141.317 184.088 140.705ZM192.263 140.804L192.825 134.741L195.435 134.205L194.239 142.789L191.214 143.41L186.732 135.993L189.356 135.454L192.263 140.804ZM197.529 132.909C197.099 132.997 196.72 132.945 196.391 132.754C196.071 132.551 195.872 132.263 195.796 131.89C195.717 131.507 195.786 131.165 196.003 130.861C196.227 130.546 196.554 130.344 196.984 130.256C197.405 130.17 197.775 130.228 198.096 130.431C198.424 130.623 198.628 130.91 198.706 131.292C198.783 131.665 198.709 132.009 198.485 132.324C198.268 132.627 197.95 132.822 197.529 132.909ZM198.919 133.49L200.562 141.49L198.11 141.994L196.467 133.993L198.919 133.49ZM206.004 140.492C205.22 140.653 204.478 140.631 203.779 140.426C203.089 140.219 202.498 139.842 202.008 139.296C201.526 138.747 201.2 138.057 201.029 137.225C200.861 136.403 200.894 135.644 201.13 134.948C201.363 134.243 201.761 133.658 202.323 133.194C202.885 132.73 203.558 132.417 204.342 132.256C205.126 132.095 205.868 132.117 206.567 132.322C207.267 132.527 207.863 132.908 208.356 133.464C208.847 134.011 209.176 134.695 209.345 135.517C209.514 136.339 209.477 137.104 209.234 137.811C208.998 138.507 208.595 139.088 208.023 139.554C207.461 140.018 206.788 140.331 206.004 140.492ZM205.568 138.37C206.036 138.274 206.398 138.02 206.652 137.609C206.916 137.197 206.982 136.67 206.851 136.03C206.719 135.389 206.455 134.93 206.06 134.653C205.674 134.374 205.246 134.282 204.778 134.378C204.3 134.476 203.939 134.73 203.694 135.139C203.447 135.538 203.391 136.063 203.524 136.713C203.656 137.353 203.91 137.814 204.286 138.095C204.672 138.375 205.1 138.466 205.568 138.37ZM212.55 132.08C212.746 131.581 213.034 131.163 213.413 130.826C213.79 130.48 214.242 130.253 214.768 130.145L215.301 132.74L214.627 132.878C214.015 133.004 213.584 133.232 213.333 133.562C213.08 133.883 213.021 134.374 213.157 135.033L213.919 138.747L211.468 139.25L209.824 131.25L212.276 130.746L212.55 132.08ZM216.288 134.076C216.119 133.254 216.124 132.501 216.302 131.817C216.49 131.131 216.817 130.565 217.284 130.121C217.751 129.676 218.314 129.386 218.973 129.251C219.537 129.135 220.053 129.149 220.521 129.292C220.998 129.433 221.389 129.666 221.695 129.992L221.463 128.859L223.914 128.356L225.558 136.356L223.106 136.86L222.873 135.727C222.711 136.149 222.438 136.519 222.055 136.836C221.682 137.152 221.213 137.368 220.649 137.484C219.999 137.617 219.372 137.572 218.768 137.347C218.162 137.113 217.638 136.718 217.195 136.161C216.759 135.593 216.457 134.898 216.288 134.076ZM222.284 132.859C222.159 132.248 221.888 131.8 221.471 131.517C221.064 131.232 220.616 131.14 220.129 131.24C219.641 131.34 219.262 131.602 218.99 132.027C218.726 132.44 218.657 132.952 218.783 133.564C218.909 134.175 219.176 134.628 219.585 134.923C220.002 135.206 220.454 135.297 220.942 135.197C221.429 135.097 221.804 134.836 222.066 134.414C222.337 133.989 222.41 133.471 222.284 132.859ZM227.604 124.878L229.783 135.488L227.331 135.992L225.152 125.382L227.604 124.878Z" fill="#2B2B2B"/>
<g opacity="0.9">
<path opacity="0.9" d="M218.081 77.5537L218.322 78.9128C218.356 79.0908 218.355 79.274 218.318 79.4514C218.28 79.6289 218.208 79.7971 218.105 79.9462C218.001 80.0953 217.869 80.2222 217.716 80.3194C217.563 80.4167 217.392 80.4823 217.213 80.5124L214.495 81.0143L213.711 76.9264L216.44 76.435C216.62 76.4012 216.806 76.4041 216.986 76.4436C217.165 76.4831 217.335 76.5584 217.485 76.665C217.639 76.7651 217.772 76.8955 217.874 77.0482C217.977 77.201 218.047 77.3729 218.081 77.5537Z" fill="#477B0D"/>
<path opacity="0.9" d="M214.882 59.8638L215.865 65.3004C216.125 66.7321 216.003 68.2073 215.51 69.5764C215.023 70.9482 214.179 72.1647 213.063 73.0998V72.8489L201.699 72.0961L196.754 75.7972L196.994 77.1563L195.635 77.4072C194.914 77.5353 194.172 77.373 193.571 76.9557C192.969 76.5385 192.557 75.9002 192.425 75.1803L191.934 72.4516C191.547 70.288 192.032 68.0591 193.284 66.2526C194.536 64.446 196.453 63.209 198.614 62.8121L214.882 59.8638Z" fill="#FFFCEE"/>
<path opacity="0.9" d="M200.12 40.062L211.223 54.9081L194.893 57.8668L200.12 40.062Z" fill="#FF0029"/>
<path opacity="0.9" d="M218.802 97.0939L218.301 109.828L204.709 112.285L199.774 100.534L204.479 95.4734L203.538 90.2459C204.906 90.7447 206.382 90.8711 207.815 90.612C209.248 90.353 210.586 89.7179 211.693 88.7717L212.624 93.9992L218.802 97.0939Z" fill="#61BC0B"/>
<path opacity="0.9" d="M213.022 72.8804L214.496 81.0457C214.754 82.4757 214.631 83.9486 214.139 85.316C213.648 86.6834 212.804 87.897 211.694 88.8347C210.588 89.7781 209.248 90.4064 207.815 90.6538C205.652 91.0438 203.423 90.5591 201.618 89.3064C199.812 88.0537 198.578 86.1354 198.186 83.9731L196.712 75.8078L201.657 72.1067L213.022 72.8804Z" fill="#61BC0B"/>
<path opacity="0.9" d="M197.454 79.8745L198.186 83.9624L195.467 84.4538C195.102 84.5185 194.726 84.4358 194.422 84.2238C194.271 84.1225 194.142 83.9915 194.043 83.8387C193.944 83.6859 193.877 83.5146 193.847 83.3351L193.596 81.976C193.534 81.6122 193.612 81.2384 193.816 80.9305C194.029 80.6308 194.352 80.4278 194.715 80.3659L197.454 79.8745Z" fill="#477B0D"/>
<path opacity="0.9" d="M185.001 49.8166L185.242 51.1758C185.278 51.3558 185.278 51.5414 185.24 51.7212C185.202 51.901 185.128 52.0711 185.022 52.2213C184.919 52.3709 184.788 52.4987 184.635 52.5974C184.483 52.696 184.312 52.7636 184.133 52.7963L181.415 53.2877L180.673 49.2102L183.391 48.7188C183.571 48.6823 183.757 48.6829 183.937 48.7207C184.116 48.7584 184.287 48.8325 184.437 48.9384C184.733 49.1459 184.935 49.4612 185.001 49.8166Z" fill="#684E2B"/>
<path opacity="0.9" d="M183.769 43.0105L184.019 44.3801L180.674 49.1998L179.942 45.1119L168.577 44.3591L163.632 48.0707L164.364 52.1481L159.555 48.8339L159.304 47.4747C158.917 45.3111 159.402 43.0822 160.654 41.2757C161.906 39.4692 163.823 38.2322 165.985 37.8352L174.139 36.3611C176.302 35.9712 178.531 36.4558 180.337 37.7085C182.142 38.9612 183.377 40.8795 183.769 43.0418V43.0105Z" fill="#38218C"/>
<path opacity="0.9" d="M185.723 69.3568L185.222 82.091L171.63 84.5584L166.664 72.807L171.358 67.7363L170.428 62.5088C171.795 63.0099 173.271 63.1362 174.704 62.8747C176.136 62.6121 177.474 61.9775 178.583 61.0347L179.513 66.2622L185.723 69.3568Z" fill="#A05B00"/>
<path opacity="0.9" d="M171.745 92.9642L188.055 90.0159L191.003 106.336L174.693 109.295L171.745 92.9642Z" fill="#4920DD"/>
<path opacity="0.9" d="M179.942 45.1119L181.416 53.2772C181.789 55.4391 181.298 57.661 180.048 59.4641C178.798 61.2672 176.89 62.5072 174.735 62.9167C173.303 63.1782 171.826 63.0519 170.459 62.5508C169.091 62.0619 167.876 61.2218 166.936 60.1148C165.997 58.9999 165.367 57.6592 165.106 56.2255L163.632 48.0706L168.577 44.3591L179.942 45.1119Z" fill="#A05B00"/>
<path opacity="0.9" d="M164.364 52.1479L165.106 56.2254L162.388 56.7272C162.023 56.792 161.647 56.7093 161.342 56.4972C161.194 56.3937 161.068 56.2618 160.971 56.1093C160.874 55.9568 160.809 55.7866 160.778 55.6085L160.527 54.2494C160.494 54.0701 160.496 53.8861 160.535 53.7079C160.573 53.5297 160.647 53.3609 160.751 53.2112C160.855 53.0615 160.987 52.9339 161.141 52.8357C161.294 52.7376 161.466 52.6708 161.646 52.6393L164.364 52.1479Z" fill="#684E2B"/>
<path opacity="0.9" d="M163.715 87.3918L163.966 88.751C163.999 88.9318 163.995 89.1173 163.956 89.2968C163.916 89.4762 163.842 89.6461 163.736 89.7965C163.634 89.9469 163.503 90.0753 163.35 90.1741C163.198 90.2728 163.027 90.34 162.848 90.3715L160.129 90.8629L159.397 86.775L162.116 86.2836C162.297 86.2498 162.482 86.2527 162.662 86.2922C162.842 86.3318 163.011 86.4071 163.161 86.5136C163.455 86.7215 163.654 87.0373 163.715 87.3918Z" fill="#3A3228"/>
<path opacity="0.9" d="M162.001 77.8671L162.325 79.6863C162.466 80.4008 162.466 81.136 162.325 81.8505C162.168 82.558 161.877 83.2288 161.468 83.8265L159.429 86.7643L158.687 82.6869L147.322 81.9341L142.377 85.6352L143.119 89.7231L140.181 87.6321C139.584 87.2178 139.076 86.6881 138.686 86.0743C138.293 85.4634 138.023 84.7814 137.892 84.0669L137.536 82.2896C137.406 81.5749 137.419 80.8418 137.572 80.1319C137.726 79.422 138.018 78.7493 138.431 78.1522C138.845 77.5552 139.372 77.0454 139.983 76.6521C140.593 76.2587 141.275 75.9895 141.99 75.8598L155.582 73.4028C157.023 73.1438 158.509 73.4673 159.712 74.3023C160.916 75.1373 161.739 76.4156 162.001 77.8567V77.8671Z" fill="#977DFF"/>
<path opacity="0.9" d="M164.437 106.932L163.935 119.666L150.344 122.134L145.409 110.372L150.114 105.311L149.173 100.084C150.54 100.585 152.017 100.711 153.449 100.45C154.881 100.187 156.219 99.5527 157.328 98.6099L158.269 103.837L164.437 106.932Z" fill="#584635"/>
<path opacity="0.9" d="M158.655 82.687L160.13 90.8524C160.503 93.0142 160.012 95.2362 158.762 97.0393C157.512 98.8424 155.604 100.082 153.449 100.492C152.017 100.741 150.544 100.613 149.176 100.12C147.808 99.6269 146.593 98.7857 145.649 97.6795C144.708 96.5667 144.077 95.2251 143.82 93.7902L142.346 85.6249L147.291 81.9238L158.655 82.687Z" fill="#523D25"/>
<path opacity="0.9" d="M145.942 66.7221C147.557 66.433 149.05 65.6713 150.232 64.5333C151.414 63.3954 152.231 61.9324 152.581 60.3296C152.931 58.7267 152.798 57.0561 152.198 55.5291C151.598 54.0022 150.558 52.6875 149.211 51.7516C147.863 50.8157 146.269 50.3006 144.628 50.2716C142.988 50.2425 141.376 50.7007 139.996 51.5883C138.616 52.4758 137.531 53.7528 136.877 55.2575C136.223 56.7623 136.031 58.4271 136.324 60.0414C136.716 62.2016 137.948 64.1181 139.752 65.3705C141.555 66.6229 143.781 67.109 145.942 66.7221Z" fill="#650818"/>
<path opacity="0.9" d="M143.089 89.7231L143.821 93.8006L141.103 94.292C140.923 94.3304 140.737 94.3307 140.557 94.2929C140.376 94.2551 140.206 94.18 140.057 94.0724C139.907 93.9694 139.78 93.8379 139.681 93.6854C139.582 93.5329 139.515 93.3624 139.482 93.1837L139.231 91.8246C139.198 91.6438 139.202 91.4583 139.241 91.2788C139.281 91.0994 139.356 90.9295 139.461 90.7791C139.563 90.6287 139.695 90.5003 139.847 90.4015C140 90.3028 140.171 90.2356 140.35 90.2041L143.089 89.7231Z" fill="#3A3228"/>
</g>
<path d="M85.784 151.46L103.934 262.115L157.735 260.024C168.953 244.739 177.014 222.972 179.847 213.312L152.727 217.912C140.401 221.592 135.435 219.449 134.515 217.912L127.614 200.881C131.451 193.823 138.195 175.789 134.515 160.106C130.834 144.424 124.854 150.205 122.335 155.046L106.976 181.278L94.7962 115.003C93.3254 116.731 92 118.577 90.8337 120.524C84.2262 135.537 84.7176 147.393 85.784 151.46Z" fill="#FFC59D"/>
<path d="M127.458 200.954C133.313 181.299 130.417 172.548 128.504 167.498C131.431 164.152 132.34 156.865 132.163 153.384C139.481 172.203 132.685 190.844 127.458 200.954Z" fill="#CBA58C"/>
<path d="M124.228 169.401C131.954 164.801 132.121 154.984 131.128 151.69L132.508 153.99C133.611 156.799 133.611 159.922 132.508 162.731C130.856 166.787 126.298 168.868 124.228 169.401Z" fill="#60361C"/>
<path d="M139.335 246.966C135.843 250.019 134.536 217.692 134.536 217.692C134.536 217.692 134.975 221.174 139.335 220.306L176.408 213.918C177.537 213.667 178.698 213.469 179.879 213.322L176.408 213.918C154.861 218.863 142.618 244.07 139.335 246.966Z" fill="#CBA58C"/>
<path d="M139.408 230.385L134.578 217.964C136.533 221.352 150.261 218.633 156.534 217.201C156.732 217.201 156.962 217.253 157.161 217.201L156.554 217.379C146.016 219.909 140.077 228.283 139.408 230.385Z" fill="#60361C"/>
<path d="M103.777 258.697L99.1768 274.808L95.2666 288.838L156.209 280.558L158.509 258.697H103.777Z" fill="#E35959"/>
</svg>
