<svg width="382" height="307" viewBox="0 0 382 307" fill="none" xmlns="http://www.w3.org/2000/svg">
<path d="M81.5922 21.4111C81.5922 21.4111 158.416 -16.156 219.697 8.23249C270.547 28.5188 250.666 54.5451 295.521 53.1853C340.377 51.8254 384.683 104.697 362.18 172.604C350.475 207.917 404.616 237.219 370.227 276.664C327.521 325.682 240.245 288.228 98.2419 305.343C23.4233 314.359 -31.1917 239.481 20.14 181.95C57.9775 139.537 33.5289 130.408 33.1832 91.0382C32.8301 49.3609 81.5922 21.4111 81.5922 21.4111Z" fill="#EBF3FA"/>
<path d="M204.482 78.2647C210.428 78.0899 215.106 73.128 214.932 67.1821C214.756 61.2362 209.795 56.5579 203.849 56.7328C197.903 56.9077 193.224 61.8695 193.399 67.8154C193.575 73.7613 198.536 78.4396 204.482 78.2647Z" fill="#B5B5B5"/>
<path d="M116.119 117.96C116.119 123.909 111.298 128.73 105.348 128.73C99.3987 128.73 94.5781 123.909 94.5781 117.96C94.5781 112.009 99.3987 107.19 105.348 107.19C111.298 107.19 116.119 112.009 116.119 117.96Z" fill="#B5B5B5"/>
<path d="M251.058 147.511C251.058 153.46 246.239 158.281 240.288 158.281C234.338 158.281 229.518 153.46 229.518 147.511C229.518 141.561 234.338 136.74 240.288 136.74C246.239 136.733 251.058 141.561 251.058 147.511Z" fill="#B5B5B5"/>
<path d="M336.741 149.43C336.741 155.381 331.92 160.201 325.971 160.201C320.02 160.201 315.2 155.381 315.2 149.43C315.2 143.481 320.02 138.66 325.971 138.66C331.92 138.66 336.741 143.481 336.741 149.43Z" fill="#B5B5B5"/>
<path d="M212.367 124.565C212.367 130.515 207.547 135.336 201.597 135.336C195.647 135.336 190.826 130.515 190.826 124.565C190.826 118.616 195.647 113.795 201.597 113.795C207.547 113.795 212.367 118.616 212.367 124.565Z" fill="#B5B5B5"/>
<path d="M114.538 201.913C114.538 207.863 109.717 212.684 103.767 212.684C97.8176 212.684 92.9971 207.863 92.9971 201.913C92.9971 195.963 97.8176 191.143 103.767 191.143C109.71 191.143 114.538 195.963 114.538 201.913Z" fill="#B5B5B5"/>
<path d="M56.0631 130.622C56.0631 136.571 51.2425 141.392 45.2928 141.392C39.343 141.392 34.5225 136.571 34.5225 130.622C34.5225 124.672 39.343 119.851 45.2928 119.851C51.2425 119.844 56.0631 124.672 56.0631 130.622Z" fill="#B5B5B5"/>
<path d="M138.245 63.9596C138.245 67.9967 134.97 71.2716 130.933 71.2716C126.896 71.2716 123.62 67.9967 123.62 63.9596C123.62 59.9225 126.896 56.6476 130.933 56.6476C134.97 56.6476 138.245 59.9225 138.245 63.9596Z" fill="#B5B5B5"/>
<path d="M137.483 160.201C137.483 164.237 134.209 167.513 130.171 167.513C126.134 167.513 122.859 164.237 122.859 160.201C122.859 156.164 126.134 152.888 130.171 152.888C134.209 152.888 137.483 156.164 137.483 160.201Z" fill="#B5B5B5"/>
<path d="M37.9667 167.52C37.9667 171.557 34.6919 174.832 30.6547 174.832C26.6176 174.832 23.3428 171.557 23.3428 167.52C23.3428 163.483 26.6176 160.208 30.6547 160.208C34.6919 160.208 37.9667 163.483 37.9667 167.52Z" fill="#B5B5B5"/>
<path d="M229.533 17.5754C229.533 21.6125 226.258 24.8873 222.221 24.8873C218.184 24.8873 214.908 21.6125 214.908 17.5754C214.908 13.5382 218.184 10.2634 222.221 10.2634C226.258 10.2563 229.533 13.5382 229.533 17.5754Z" fill="#B5B5B5"/>
<path d="M298.74 56.7255C298.74 60.7626 295.464 64.0375 291.427 64.0375C287.391 64.0375 284.116 60.7626 284.116 56.7255C284.116 52.6884 287.391 49.4136 291.427 49.4136C295.464 49.4065 298.74 52.6884 298.74 56.7255Z" fill="#B5B5B5"/>
<path d="M173.011 154.251L156.524 105.537L130.629 64.1427L96.165 15.5564L96.7368 15.147L131.221 63.7545L157.18 105.276L173.682 154.025L173.011 154.251Z" fill="#B5B5B5"/>
<path d="M146.17 167.386L130.692 161.288L130.629 161.182L105.044 118.136L78.4638 72.2034L45.6023 130.791L44.9883 130.445L78.4567 70.7777L105.658 117.783L131.172 160.716L146.431 166.729L146.17 167.386Z" fill="#B5B5B5"/>
<path d="M67.4333 210.834L69.9036 169.235H34.5225V168.529H70.6518L68.1885 209.966L103.633 202.951L143.122 178.403L143.496 179.003L103.894 203.614L103.831 203.628L67.4333 210.834Z" fill="#B5B5B5"/>
<path d="M191.849 154.936L191.179 154.709L201.25 124.501L203.805 67.6083L175.179 30.5969L222.121 17.2363L222.31 17.9138L176.371 30.9851L204.517 67.3825L204.51 67.5094L201.949 124.629L201.935 124.678L191.849 154.936Z" fill="#B5B5B5"/>
<path d="M215.148 166.87L214.717 166.306L239.927 147.341L237.02 97.5336L286.178 101.155L291.048 56.9583L251.756 41.7556L252.011 41.0922L291.81 56.4924L286.807 101.91L237.769 98.2962L240.654 147.673L215.148 166.87Z" fill="#B5B5B5"/>
<path d="M248.708 236.75L219.827 209.754L220.314 209.231L248.658 235.741L288.31 191.276L286.686 105.418L326.232 149.19L325.709 149.663L287.428 107.288L289.023 191.537L288.93 191.636L248.708 236.75Z" fill="#B5B5B5"/>
<path d="M87.0832 168.529C87.0832 178.579 78.9314 186.732 68.8809 186.732C58.8305 186.732 50.6787 178.579 50.6787 168.529C50.6787 158.479 58.8305 150.327 68.8809 150.327C78.9314 150.327 87.0832 158.472 87.0832 168.529Z" fill="#5A33D3"/>
<path d="M70.0735 179.92V174.422C70.0735 173.752 69.5299 173.208 68.8594 173.208C68.1889 173.208 67.6455 173.752 67.6455 174.422V179.92H70.0735Z" fill="white"/>
<path d="M66.587 179.92V176.398C66.587 175.728 66.0436 175.184 65.3731 175.184C64.7026 175.184 64.1592 175.728 64.1592 176.398V179.92H66.587Z" fill="white"/>
<path d="M73.5598 179.92V172.586C73.5598 171.916 73.0164 171.372 72.3459 171.372C71.6754 171.372 71.1318 171.916 71.1318 172.586V179.92H73.5598Z" fill="white"/>
<path d="M77.047 179.92V170.456C77.047 169.785 76.5036 169.242 75.8331 169.242C75.1626 169.242 74.6191 169.785 74.6191 170.456V179.92H77.047Z" fill="white"/>
<path d="M74.5825 160.08C74.0461 161.033 72.8462 161.365 71.8934 160.828C70.9406 160.299 70.6089 159.092 71.1382 158.146C71.6747 157.194 72.8745 156.862 73.8273 157.392C74.7802 157.928 75.119 159.128 74.5825 160.08Z" fill="white"/>
<path d="M69.7344 166.503C69.0639 167.695 68.5629 167.498 67.5183 166.913C66.4737 166.326 66.1702 164.886 66.8407 163.694L68.3018 161.096C68.9723 159.903 70.3626 159.416 71.4072 160.003C72.4517 160.588 72.7552 162.028 72.0847 163.22L69.7344 166.503Z" fill="white"/>
<path d="M70.8354 166.779L67.6665 165.191L66.3818 166.426L70.1014 168.232C70.5037 168.437 70.9906 168.275 71.1954 167.872C71.4 167.471 71.2377 166.977 70.8354 166.779Z" fill="white"/>
<path d="M72.9809 165.747C72.6421 165.897 72.2468 165.747 72.0987 165.409L70.4753 161.767C70.3271 161.429 70.4753 161.033 70.814 160.885C71.1528 160.737 71.5481 160.885 71.6963 161.224L73.3196 164.865C73.4678 165.198 73.3196 165.592 72.9809 165.747Z" fill="white"/>
<path d="M72.1323 171.119C71.723 171.309 71.236 171.119 71.0596 170.709L69.8103 167.879C69.6268 167.47 69.8103 166.982 70.2267 166.806C70.6361 166.622 71.1161 166.806 71.2995 167.223L72.5488 170.053C72.7253 170.463 72.5417 170.942 72.1323 171.119Z" fill="white"/>
<path d="M64.1232 168.055C63.7773 167.766 63.742 167.251 64.0386 166.905L68.2027 161.273C68.4991 160.933 68.0333 162.854 68.3721 163.143C68.7109 163.439 68.7461 163.954 68.4567 164.293L65.2737 167.971C64.9772 168.317 64.462 168.351 64.1232 168.055Z" fill="white"/>
<path d="M60.7215 166.983C60.778 166.539 61.1872 166.22 61.6319 166.284L64.6951 166.701C65.1396 166.756 65.4503 167.173 65.3938 167.617C65.3303 168.063 64.9209 168.373 64.4762 168.316L61.4132 167.893C60.9755 167.836 60.665 167.427 60.7215 166.983Z" fill="white"/>
<path d="M72.0703 165.056C72.1056 164.667 72.4444 164.379 72.8397 164.414L75.5429 164.64C75.931 164.675 76.2203 165.02 76.1851 165.409C76.1498 165.797 75.804 166.086 75.4158 166.052L72.7126 165.826C72.3244 165.79 72.035 165.451 72.0703 165.056Z" fill="white"/>
<path d="M65.1816 160.772C65.1533 160.384 65.4497 160.038 65.8378 160.017L70.0585 159.721C70.4467 159.692 70.7855 159.988 70.8136 160.377C70.8419 160.765 70.5455 161.111 70.1574 161.132L65.9367 161.428C65.5485 161.457 65.2097 161.167 65.1816 160.772Z" fill="white"/>
<path d="M66.1691 160.094C66.522 160.256 66.6773 160.68 66.5079 161.04L65.3716 163.503C65.2092 163.856 64.7857 164.004 64.4259 163.842C64.073 163.68 63.9177 163.256 64.08 162.896L65.2163 160.433C65.3928 160.08 65.8162 159.932 66.1691 160.094Z" fill="white"/>
<path d="M309.434 103.187C309.434 116.358 298.756 127.036 285.585 127.036C272.416 127.036 261.736 116.358 261.736 103.187C261.736 90.0175 272.416 79.339 285.585 79.339C298.756 79.339 309.434 90.0175 309.434 103.187Z" fill="#FFDD4F"/>
<path d="M301.006 104.182C300.668 103.604 298.684 103.886 298.106 104.224L294.661 106.06C291.726 107.069 287.406 107.195 287.06 106.356C286.848 105.741 291.485 105.848 291.485 105.848C292.156 105.855 292.706 105.319 292.713 104.648C292.721 103.977 292.163 103.886 291.492 103.871C291.492 103.871 288.903 103.582 282.847 103.427C282.296 103.413 280.524 104.062 278.521 105.001L277.116 105.65L278.464 109.737C279.53 109.878 280.779 110.04 281.922 110.195C284.964 110.605 286.651 110.915 288.316 110.944C288.316 110.944 291.09 110.555 292.05 110.083C294.21 109.024 300.308 105.552 300.308 105.552C300.887 105.219 301.345 104.754 301.006 104.182Z" fill="white"/>
<path d="M276.252 105.399L272.988 106.455L274.734 111.847L277.997 110.791L276.252 105.399Z" fill="white"/>
<path d="M273.331 106.001L270.067 107.056L272.268 113.859L275.531 112.803L273.331 106.001Z" fill="white"/>
<path d="M291.366 99.9339C291.366 99.8345 291.366 99.7362 291.352 99.6438C291.344 99.5455 291.323 99.4472 291.302 99.3549C290.942 99.298 290.532 99.2566 290.469 99.1216C290.405 98.9878 290.646 98.6491 290.844 98.3459C290.73 98.1908 290.603 98.0499 290.455 97.922C290.131 98.0913 289.778 98.2962 289.643 98.2192C289.516 98.141 289.509 97.7313 289.488 97.3713C289.304 97.3157 289.121 97.273 288.93 97.2517C288.768 97.5762 288.598 97.9504 288.443 97.9717C288.295 97.9859 288.042 97.6614 287.816 97.3784C287.632 97.4424 287.463 97.5205 287.3 97.6117C287.356 97.9717 287.441 98.3743 287.336 98.4726C287.229 98.5721 286.834 98.4513 286.481 98.3601C286.368 98.5153 286.277 98.6775 286.199 98.861C286.46 99.1145 286.757 99.3904 286.728 99.5384C286.7 99.6793 286.312 99.8072 285.966 99.9481C285.966 100.046 285.973 100.139 285.98 100.244C285.987 100.344 286.008 100.435 286.03 100.533C286.39 100.59 286.799 100.633 286.855 100.766C286.919 100.907 286.679 101.239 286.488 101.55C286.602 101.706 286.728 101.846 286.876 101.973C287.201 101.811 287.554 101.606 287.682 101.677C287.808 101.755 287.816 102.164 287.837 102.524C288.02 102.581 288.204 102.623 288.395 102.643C288.557 102.319 288.726 101.945 288.881 101.925C289.036 101.91 289.277 102.235 289.509 102.517C289.693 102.461 289.862 102.376 290.024 102.285C289.968 101.925 289.876 101.522 289.989 101.422C290.102 101.317 290.491 101.444 290.844 101.536C290.956 101.381 291.047 101.219 291.133 101.042C290.871 100.788 290.568 100.513 290.596 100.364C290.639 100.194 291.027 100.068 291.366 99.9339ZM288.81 101.26C288.076 101.338 287.42 100.816 287.342 100.082C287.265 99.3549 287.787 98.6917 288.521 98.6135C289.256 98.5366 289.904 99.0588 289.989 99.793C290.067 100.52 289.544 101.176 288.81 101.26Z" fill="white"/>
<path d="M296.827 100.18C296.827 100.082 296.82 99.9896 296.813 99.8914C296.806 99.7931 296.785 99.6936 296.764 99.6024C296.404 99.5456 295.995 99.5029 295.938 99.3691C295.874 99.2282 296.115 98.8966 296.312 98.5852C296.199 98.4301 296.072 98.2891 295.924 98.1624C295.599 98.3318 295.247 98.5366 295.113 98.4585C294.985 98.3874 294.978 97.9789 294.958 97.6118C294.774 97.5549 294.591 97.5123 294.4 97.4993C294.238 97.8237 294.068 98.1979 293.912 98.211C293.757 98.2252 293.511 97.9007 293.284 97.6189C293.101 97.6816 292.931 97.7598 292.762 97.8522C292.819 98.211 292.91 98.6136 292.798 98.7131C292.684 98.8114 292.297 98.6918 291.944 98.5994C291.83 98.7545 291.739 98.9168 291.661 99.0932C291.923 99.3478 292.219 99.6225 292.19 99.7718C292.162 99.9127 291.774 100.046 291.429 100.173C291.429 100.273 291.436 100.364 291.442 100.47C291.449 100.569 291.47 100.661 291.491 100.759C291.851 100.816 292.261 100.858 292.324 100.993C292.388 101.134 292.148 101.465 291.951 101.775C292.063 101.931 292.197 102.073 292.338 102.199C292.664 102.03 293.017 101.832 293.151 101.903C293.277 101.98 293.284 102.39 293.306 102.75C293.489 102.806 293.673 102.848 293.863 102.87C294.026 102.545 294.195 102.171 294.35 102.15C294.505 102.135 294.746 102.46 294.978 102.743C295.161 102.686 295.331 102.602 295.493 102.51C295.437 102.15 295.352 101.747 295.459 101.649C295.571 101.55 295.959 101.67 296.312 101.761C296.425 101.606 296.517 101.437 296.594 101.267C296.334 101.007 296.036 100.738 296.065 100.583C296.093 100.449 296.482 100.315 296.827 100.18ZM294.272 101.508C293.546 101.585 292.889 101.063 292.805 100.335C292.727 99.6024 293.249 98.9452 293.983 98.8682C294.717 98.7901 295.366 99.3123 295.451 100.046C295.528 100.766 294.999 101.423 294.272 101.508Z" fill="white"/>
<path d="M294.35 94.7034C294.329 94.6122 294.308 94.5128 294.279 94.4216C294.251 94.3221 294.215 94.2309 294.181 94.1457C293.814 94.1599 293.404 94.1954 293.32 94.0758C293.235 93.955 293.404 93.582 293.538 93.2433C293.397 93.1083 293.242 92.9958 293.08 92.9034C292.791 93.1296 292.479 93.3984 292.338 93.3487C292.197 93.2989 292.119 92.9034 292.028 92.5434C291.845 92.5233 291.647 92.5162 291.456 92.5304C291.358 92.8833 291.258 93.2776 291.117 93.3274C290.969 93.37 290.666 93.0941 290.383 92.862C290.214 92.9603 290.059 93.0668 289.918 93.1935C290.045 93.5393 290.2 93.9135 290.116 94.0331C290.023 94.1528 289.622 94.1042 289.255 94.0829C289.177 94.2522 289.113 94.4358 289.071 94.6193C289.374 94.8242 289.72 95.035 289.72 95.1901C289.72 95.3393 289.36 95.5371 289.05 95.7337C289.064 95.826 289.092 95.9243 289.12 96.0167C289.148 96.1079 289.184 96.2002 289.219 96.2843C289.586 96.2772 289.995 96.2358 290.073 96.3554C290.157 96.4821 289.995 96.8563 289.861 97.1879C290.002 97.3146 290.157 97.4354 290.32 97.5266C290.609 97.3016 290.92 97.0328 291.061 97.0825C291.203 97.1322 291.28 97.5337 291.372 97.8866C291.563 97.9079 291.752 97.915 291.943 97.8937C292.042 97.5408 292.141 97.1452 292.282 97.0967C292.431 97.0541 292.734 97.3288 293.016 97.5621C293.185 97.4638 293.34 97.3572 293.482 97.2305C293.354 96.8847 293.199 96.5105 293.285 96.3909C293.376 96.2701 293.778 96.3128 294.145 96.3412C294.222 96.1647 294.286 95.9883 294.329 95.7976C294.026 95.5928 293.68 95.3808 293.68 95.2257C293.686 95.0918 294.039 94.8941 294.35 94.7034ZM292.092 96.4892C291.392 96.7083 290.645 96.3127 290.426 95.607C290.207 94.9083 290.602 94.1599 291.308 93.9491C292.007 93.73 292.755 94.1255 292.974 94.8242C293.185 95.5229 292.791 96.263 292.092 96.4892Z" fill="white"/>
<path d="M275.738 41.4238C275.738 54.5937 265.059 65.2723 251.89 65.2723C238.72 65.2723 228.041 54.5937 228.041 41.4238C228.041 28.2538 238.72 17.5752 251.89 17.5752C265.059 17.5752 275.738 28.2538 275.738 41.4238Z" fill="#CA4D4F"/>
<path d="M246.887 39.2958C246.887 37.6514 247.897 36.2327 249.33 35.6328L249.004 34.793C247.232 35.5269 245.99 37.2632 245.99 39.2958C245.99 40.9191 246.894 44.1516 248.398 46.0503L249.104 45.4714C247.833 43.8481 246.887 40.905 246.887 39.2958Z" fill="white"/>
<path d="M250.86 34.4258C250.457 34.4258 250.069 34.4893 249.694 34.581L249.963 35.4351C250.252 35.3645 250.555 35.3221 250.867 35.3221C250.881 35.3221 250.895 35.3292 250.908 35.3292V34.4258C250.895 34.4258 250.881 34.4258 250.86 34.4258Z" fill="white"/>
<path d="M250.859 51.8937C246.286 51.8937 243.258 42.8527 243.258 39.1896C243.258 34.9972 246.667 31.5883 250.859 31.5883C255.051 31.5883 258.461 34.9972 258.461 39.1896C258.461 42.8597 255.433 51.8937 250.859 51.8937ZM250.859 33.3951C247.662 33.3951 245.058 35.9994 245.058 39.1896C245.058 42.6197 247.972 50.094 250.859 50.094C253.745 50.094 256.661 42.6197 256.661 39.1896C256.661 35.9923 254.064 33.3951 250.859 33.3951Z" fill="white"/>
<path d="M253.104 50.0095V53.0867C253.104 54.3218 252.095 55.3311 250.86 55.3311C249.624 55.3311 248.615 54.3218 248.615 53.0867V49.2966L247.097 47.4475C246.921 47.9063 246.815 48.3932 246.815 48.9085V53.0867C246.815 55.317 248.628 57.1309 250.86 57.1309C253.089 57.1309 254.904 55.317 254.904 53.0867V48.9085C254.904 48.6261 254.875 48.3509 254.818 48.0898L253.104 50.0095Z" fill="white"/>
<path d="M242.496 37.6794H239.265V38.5758H242.496V37.6794Z" fill="white"/>
<path d="M262.464 37.6794H259.231V38.5758H262.464V37.6794Z" fill="white"/>
<path d="M251.319 26.5277H250.415V29.7602H251.319V26.5277Z" fill="white"/>
<path d="M242.994 29.6007L242.354 30.2395L244.635 32.5206L245.275 31.8817L242.994 29.6007Z" fill="white"/>
<path d="M257.972 45.2969L257.337 45.9308L259.624 48.2162L260.257 47.5823L257.972 45.2969Z" fill="white"/>
<path d="M243.492 44.8489L241.205 47.1339L241.839 47.7679L244.125 45.4829L243.492 44.8489Z" fill="white"/>
<path d="M258.632 29.7322L256.349 32.0198L256.987 32.658L259.271 30.3703L258.632 29.7322Z" fill="white"/>
<path d="M178.63 106.766C178.63 119.935 167.951 130.614 154.781 130.614C141.612 130.614 130.933 119.935 130.933 106.766C130.933 93.596 141.612 82.9169 154.781 82.9169C167.951 82.9169 178.63 93.596 178.63 106.766Z" fill="#F78248"/>
<path d="M154.781 110.598C149.926 110.598 145.98 106.652 145.98 101.797C145.98 96.9403 149.926 92.9957 154.781 92.9957C159.638 92.9957 163.584 96.9474 163.584 101.797C163.584 106.652 159.638 110.598 154.781 110.598ZM154.781 94.7957C150.921 94.7957 147.78 97.9362 147.78 101.797C147.78 105.657 150.921 108.798 154.781 108.798C158.643 108.798 161.784 105.657 161.784 101.797C161.784 97.9362 158.643 94.7957 154.781 94.7957Z" fill="white"/>
<path d="M150.287 101.797C150.287 99.9326 151.437 98.3517 153.061 97.6814L152.496 96.4463C150.414 97.3356 148.938 99.389 148.938 101.802C148.938 103.235 149.461 104.542 150.316 105.558L151.339 104.654C150.689 103.871 150.287 102.882 150.287 101.797Z" fill="white"/>
<path d="M154.781 95.9526C154.216 95.9526 153.672 96.0367 153.157 96.1859L153.539 97.498C153.933 97.3855 154.343 97.3003 154.774 97.3003C154.795 97.3003 154.808 97.3074 154.829 97.3074V95.9597C154.815 95.9597 154.802 95.9526 154.781 95.9526Z" fill="white"/>
<path d="M156.081 109.568H153.491V113.795H156.081V109.568Z" fill="white"/>
<path d="M156.842 119.477C156.842 120.063 156.398 120.543 155.847 120.543H153.631C153.088 120.543 152.643 120.063 152.643 119.477V113.216C152.643 112.631 153.088 112.157 153.631 112.157H155.847C156.391 112.157 156.842 112.631 156.842 113.216V119.477Z" fill="white"/>
<path d="M103.767 71.4619C103.767 84.6318 93.0888 95.3107 79.9188 95.3107C66.7489 95.3107 56.0703 84.6318 56.0703 71.4619C56.0703 58.2919 66.7489 47.6133 79.9188 47.6133C93.0888 47.6133 103.767 58.2919 103.767 71.4619Z" fill="#FF172D"/>
<path d="M87.8801 65.2369C90.915 69.1116 90.6609 74.7438 87.0966 78.308C83.2431 82.1616 76.9757 82.1616 73.1221 78.308C69.2685 74.4544 69.2685 68.187 73.1221 64.3335C76.6722 60.7762 82.2761 60.5081 86.1509 63.5077L87.1955 62.456C82.7491 58.8918 76.2063 59.1671 72.0846 63.2889C67.6593 67.7141 67.6593 74.9132 72.0846 79.3384C76.5098 83.7638 83.7089 83.7638 88.1341 79.3384C92.2772 75.1955 92.5383 68.6316 88.9317 64.1782L87.8801 65.2369Z" fill="white"/>
<path d="M85.9183 67.1992C87.8945 69.987 87.6475 73.876 85.156 76.3674C82.3753 79.1482 77.8512 79.1482 75.0704 76.3674C72.2895 73.5865 72.2895 69.0625 75.0704 66.2817C77.5476 63.8044 81.4084 63.5433 84.1891 65.4771L85.2408 64.4325C81.8741 61.927 77.089 62.1952 74.0329 65.2442C70.6804 68.5967 70.6804 74.0524 74.0329 77.4049C77.3854 80.7574 82.8412 80.7574 86.1937 77.4049C89.2567 74.3418 89.5108 69.5213 86.9699 66.1547L85.9183 67.1992Z" fill="white"/>
<path d="M83.8577 69.2595C84.754 70.8828 84.5141 72.972 83.1378 74.3483C81.4721 76.0139 78.7548 76.0139 77.0821 74.3483C75.4094 72.6756 75.4094 69.9653 77.0821 68.2926C78.4443 66.9304 80.4981 66.6834 82.1144 67.5374L83.1872 66.4647C80.964 65.0531 77.9785 65.3142 76.0446 67.2551C73.8002 69.4924 73.8002 73.1413 76.0446 75.3858C78.2891 77.6302 81.9309 77.6302 84.1753 75.3858C86.1303 73.4308 86.3773 70.4171 84.9305 68.1867L83.8577 69.2595Z" fill="white"/>
<path d="M92.3472 56.4283L88.1689 60.6137L88.5571 61.9335L80.1442 70.3464C79.8829 70.6076 79.8829 71.031 80.1442 71.2921C80.4053 71.5534 80.8288 71.5534 81.0899 71.2921L89.6299 62.7521L90.7663 63.0203L94.5845 59.2021H92.072L92.3472 56.4283Z" fill="white"/>
<path d="M302.911 192.18C302.911 201.651 295.233 209.324 285.769 209.324C276.296 209.324 268.625 201.644 268.625 192.18C268.625 182.716 276.303 175.036 285.769 175.036C295.233 175.036 302.911 182.716 302.911 192.18Z" fill="#75D8C7"/>
<path d="M291.767 183.901H281.638C281.638 183.923 282.747 183.937 282.747 183.951C282.747 188.2 284.208 191.665 287.263 191.933C287.137 191.947 287.003 191.961 286.876 191.961C283.558 191.961 280.877 188.376 280.877 183.958C280.877 183.937 280.877 183.923 280.877 183.908H279.769C279.769 183.93 279.769 183.944 279.769 183.965C279.769 188.637 282.458 192.421 285.768 192.421C289.085 192.421 291.767 188.637 291.767 183.965C291.767 183.937 291.767 183.916 291.767 183.901Z" fill="white"/>
<path d="M292.876 182.864C292.876 183.294 292.53 183.639 292.099 183.639H279.43C279 183.639 278.653 183.294 278.653 182.864C278.653 182.433 279 182.087 279.43 182.087H292.099C292.53 182.087 292.876 182.433 292.876 182.864Z" fill="white"/>
<path d="M285.768 191.961C282.451 191.961 279.769 195.745 279.769 200.416C279.769 200.438 279.769 200.452 279.769 200.473H288.803C288.803 200.452 288.782 200.438 288.782 200.416C288.782 196.167 287.32 192.702 284.264 192.434C284.392 192.419 284.526 192.406 284.652 192.406C287.969 192.406 290.651 195.991 290.651 200.416C290.651 200.431 290.651 200.452 290.651 200.473H291.76C291.76 200.452 291.76 200.438 291.76 200.416C291.767 195.745 289.078 191.961 285.768 191.961Z" fill="white"/>
<path d="M278.653 201.503C278.653 201.072 279 200.727 279.43 200.727H292.099C292.53 200.727 292.876 201.072 292.876 201.503C292.876 201.934 292.53 202.28 292.099 202.28H279.43C279 202.28 278.653 201.934 278.653 201.503Z" fill="white"/>
<path d="M195.789 29.3552C195.789 39.2787 187.742 47.3246 177.819 47.3246C167.896 47.3246 159.85 39.2787 159.85 29.3552C159.85 19.4318 167.896 11.3859 177.819 11.3859C187.742 11.3859 195.789 19.4318 195.789 29.3552Z" fill="#75D8C7"/>
<path d="M178.406 28.9316V24.0898C179.076 24.3015 179.379 24.9298 179.379 25.8896V26.3272H180.778V25.9672C180.778 24.1746 180.008 22.9536 178.413 22.7135V21.8666H177.22V22.7135C175.661 22.9605 174.912 24.1534 174.912 25.9601C174.912 27.8729 176.084 28.8751 177.22 29.7997V34.6978C176.556 34.4791 176.232 33.8509 176.232 32.9052V32.0794H174.855V32.8346C174.855 34.6202 175.618 35.8412 177.22 36.0812V36.8435H178.413V36.0812C180.022 35.8412 180.798 34.6202 180.798 32.8346C180.791 30.8796 179.57 29.8703 178.406 28.9316ZM177.213 27.8588C176.712 27.3153 176.359 26.7012 176.359 25.8685C176.359 24.9791 176.627 24.3651 177.213 24.1181V27.8588ZM178.406 34.6766V30.8584C178.935 31.4159 179.316 32.0441 179.316 32.9052C179.323 33.8227 179.026 34.4438 178.406 34.6766Z" fill="#FEFEFE"/>
<path d="M177.819 39.8853C172.011 39.8853 167.288 35.1637 167.288 29.355C167.288 23.5464 172.011 18.8247 177.819 18.8247C183.628 18.8247 188.349 23.5464 188.349 29.355C188.349 35.1566 183.628 39.8853 177.819 39.8853ZM177.819 20.5962C172.991 20.5962 169.067 24.5204 169.067 29.355C169.067 34.1826 172.991 38.1139 177.819 38.1139C182.646 38.1139 186.571 34.1826 186.571 29.355C186.578 24.5275 182.646 20.5962 177.819 20.5962Z" fill="#FEFEFE"/>
<path d="M250.387 97.915C250.387 105.092 244.571 110.908 237.393 110.908C230.215 110.908 224.399 105.092 224.399 97.915C224.399 90.7363 230.215 84.9211 237.393 84.9211C244.571 84.9211 250.387 90.7363 250.387 97.915Z" fill="white"/>
<path d="M237.395 111.261C230.033 111.261 224.048 105.276 224.048 97.9148C224.048 90.5538 230.033 84.5684 237.395 84.5684C244.756 84.5684 250.741 90.5538 250.741 97.9148C250.741 105.276 244.756 111.261 237.395 111.261ZM237.395 85.2741C230.421 85.2741 224.754 90.9482 224.754 97.9148C224.754 104.887 230.428 110.555 237.395 110.555C244.368 110.555 250.035 104.887 250.035 97.9148C250.035 90.941 244.368 85.2741 237.395 85.2741Z" fill="#B5B5B5"/>
<path d="M248.163 97.9148C248.163 103.864 243.342 108.685 237.392 108.685C231.443 108.685 226.622 103.864 226.622 97.9148C226.622 91.9653 231.443 87.1443 237.392 87.1443C243.342 87.1443 248.163 91.9653 248.163 97.9148Z" fill="#B5B5B5"/>
<path d="M109.166 15.352C109.166 22.3746 103.477 28.0633 96.4543 28.0633C89.4317 28.0633 83.7432 22.3746 83.7432 15.352C83.7432 8.32944 89.4317 2.64087 96.4543 2.64087C103.47 2.64087 109.166 8.32944 109.166 15.352Z" fill="white"/>
<path d="M96.4478 28.4163C89.2418 28.4163 83.3838 22.5583 83.3838 15.3523C83.3838 8.14612 89.2418 2.28809 96.4478 2.28809C103.654 2.28809 109.512 8.14612 109.512 15.3523C109.512 22.5583 103.654 28.4163 96.4478 28.4163ZM96.4478 2.99387C89.63 2.99387 84.0896 8.54141 84.0896 15.3523C84.0896 22.1701 89.637 27.7105 96.4478 27.7105C103.266 27.7105 108.806 22.1631 108.806 15.3523C108.813 8.54141 103.266 2.99387 96.4478 2.99387Z" fill="#B5B5B5"/>
<path d="M107.225 15.3521C107.225 21.302 102.405 26.1225 96.4549 26.1225C90.5051 26.1225 85.6846 21.302 85.6846 15.3521C85.6846 9.40234 90.5051 4.58179 96.4549 4.58179C102.398 4.58179 107.225 9.40234 107.225 15.3521Z" fill="#B5B5B5"/>
<path d="M74.7022 210.404C74.7022 214.215 71.6179 217.3 67.8067 217.3C64.0025 217.3 60.9111 214.215 60.9111 210.404C60.9111 206.6 63.9954 203.508 67.8067 203.508C71.6179 203.508 74.7022 206.593 74.7022 210.404Z" fill="white"/>
<path d="M67.8138 217.645C63.8192 217.645 60.5654 214.391 60.5654 210.397C60.5654 206.401 63.8192 203.148 67.8138 203.148C71.8086 203.148 75.0623 206.401 75.0623 210.397C75.0623 214.391 71.8086 217.645 67.8138 217.645ZM67.8138 203.861C64.2073 203.861 61.2712 206.797 61.2712 210.404C61.2712 214.01 64.2073 216.947 67.8138 216.947C71.4205 216.947 74.3565 214.01 74.3565 210.404C74.3495 206.797 71.4205 203.861 67.8138 203.861Z" fill="#B5B5B5"/>
<path d="M72.7336 210.404C72.7336 213.121 70.5315 215.33 67.8073 215.33C65.09 215.33 62.8809 213.128 62.8809 210.404C62.8809 207.679 65.0829 205.478 67.8073 205.478C70.5315 205.478 72.7336 207.679 72.7336 210.404Z" fill="#B5B5B5"/>
<path d="M258.221 236.242C258.221 241.507 253.951 245.777 248.686 245.777C243.421 245.777 239.15 241.507 239.15 236.242C239.15 230.977 243.421 226.707 248.686 226.707C253.951 226.707 258.221 230.977 258.221 236.242Z" fill="white"/>
<path d="M248.679 246.13C243.224 246.13 238.791 241.691 238.791 236.242C238.791 230.786 243.231 226.354 248.679 226.354C254.135 226.354 258.567 230.794 258.567 236.242C258.574 241.698 254.135 246.13 248.679 246.13ZM248.679 227.06C243.612 227.06 239.497 231.182 239.497 236.242C239.497 241.309 243.619 245.424 248.679 245.424C253.74 245.424 257.861 241.302 257.861 236.242C257.869 231.175 253.748 227.06 248.679 227.06Z" fill="#B5B5B5"/>
<path d="M255.999 236.242C255.999 240.279 252.724 243.553 248.687 243.553C244.649 243.553 241.375 240.279 241.375 236.242C241.375 232.205 244.649 228.929 248.687 228.929C252.724 228.929 255.999 232.205 255.999 236.242Z" fill="#B5B5B5"/>
<path d="M167.896 293.764H223.49C222.516 289.028 218.387 264.742 227.655 230.448C228.092 229.072 228.587 227.773 229.2 226.616C229.469 226.136 229.708 225.684 229.885 225.295C229.885 225.288 229.885 225.288 229.885 225.281C233.223 218.478 235.101 210.827 235.101 202.738C235.101 174.423 212.142 151.464 183.825 151.464C155.509 151.464 132.839 168.967 132.839 197.283C132.839 197.283 132.769 202.047 133.1 208.83C132.013 213.487 117.375 229.191 116.67 232.029C115.964 234.859 117.255 235.812 117.608 236.341C117.961 236.871 127.686 238.247 128.576 240.455C129.458 242.665 127.659 247.098 127.426 247.803C128.251 249.335 128.844 250.753 128.844 250.753L134.533 252.525C134.533 252.525 130.969 252.644 130.502 254.296C130.03 255.948 130.588 258.496 130.588 258.496C130.588 258.496 134.257 259.442 135.881 261.474C138.323 264.523 137.582 272.47 137.582 272.47C137.582 272.47 139.706 276.126 145.783 277.313C149.446 276.719 155.777 276.493 162.948 276.162C167.239 279.154 168.467 286.896 167.896 293.764Z" fill="#2B478B"/>
<path d="M155.165 209.41C155.165 209.41 141.755 211.273 141.523 200.453C135.607 197.334 138.212 189.485 140.583 188.455C138.466 181.63 142.468 174.339 147.408 173.633C151.234 165.044 161.997 161.162 170.227 163.046C180.079 157.725 194.548 158.43 204.047 166.449C200.752 167.388 194.576 170.457 192.571 175.518C189.452 175.574 185.513 178.574 188.217 184.22C190.921 189.866 187.158 194.511 178.689 195.216C171.045 195.922 166.042 196.924 161.278 201.216C156.089 205.902 155.165 209.41 155.165 209.41Z" fill="#848484"/>
<path d="M156.576 212.332C156.576 212.332 157.635 206.685 162.166 203.037C166.696 199.387 171.99 197.567 177.46 197.334C182.93 197.101 186.12 195.598 188.766 194.596C191.413 193.593 202.233 192.372 210.646 203.905C212.82 202.789 217.81 203.975 218.099 209.092C221.275 213.271 225.63 216.976 223.689 221.443C223.104 222.855 213.667 221.634 208.691 219.855C202.975 217.816 190.376 216.383 179.457 220.004C169.004 223.476 157.254 218.6 156.576 212.332Z" fill="#FF788C"/>
<path d="M181.202 215.917L179.988 215.197C180.031 215.12 181.111 213.335 183.15 212.099C185.063 210.941 188.19 210.066 192.248 212.48L191.528 213.695C184.971 209.799 181.35 215.663 181.202 215.917Z" fill="white"/>
<path d="M185.732 212.198C180.022 206.156 183.424 200.2 183.46 200.136L184.674 200.849L184.067 200.489L184.674 200.849C184.554 201.054 181.794 205.98 186.755 211.225L185.732 212.198Z" fill="white"/>
<path d="M212.68 209.925C211.889 209.925 211.106 209.756 210.358 209.41C208.918 208.746 207.74 207.525 207.055 206.001C206.011 206.17 204.909 205.972 203.949 205.429C202.904 204.837 202.108 203.876 201.691 202.747C200.787 202.839 199.962 202.655 199.235 202.204C197.555 201.153 197.055 199.007 197.033 198.915L198.409 198.604C198.416 198.618 198.805 200.276 199.99 201.011C200.569 201.371 201.232 201.449 202.022 201.258L202.714 201.096L202.87 201.787C203.102 202.818 203.752 203.693 204.642 204.201C205.467 204.674 206.399 204.78 207.26 204.504L207.916 204.293L208.142 204.949C208.636 206.389 209.652 207.546 210.93 208.132C211.989 208.619 213.104 208.648 214.163 208.231L214.685 209.544C214.049 209.791 213.365 209.925 212.68 209.925Z" fill="white"/>
<path d="M195.557 212.176L195.338 210.786C200.829 209.918 203.631 204.54 203.659 204.491L204.916 205.133C204.788 205.373 201.768 211.196 195.557 212.176Z" fill="white"/>
<path d="M176.353 218.395C176.346 218.381 175.655 216.828 174.356 216.32C173.721 216.073 173.058 216.122 172.309 216.454L171.66 216.743L171.377 216.087C170.955 215.12 170.156 214.372 169.19 214.04C168.287 213.729 167.355 213.793 166.558 214.231L165.95 214.563L165.604 213.962C164.849 212.643 163.635 211.69 162.273 211.351C161.143 211.068 160.036 211.245 159.076 211.859L158.32 210.667C159.598 209.854 161.122 209.615 162.612 209.982C164.15 210.362 165.533 211.344 166.487 212.72C167.481 212.36 168.597 212.353 169.641 212.706C170.778 213.094 171.737 213.891 172.359 214.93C173.227 214.668 174.074 214.697 174.871 215.007C176.721 215.727 177.61 217.746 177.645 217.83L176.353 218.395Z" fill="white"/>
<path d="M170.114 213.581L168.759 213.186C168.836 212.918 170.721 206.637 176.642 204.52L177.115 205.846C171.885 207.723 170.128 213.525 170.114 213.581Z" fill="white"/>
<path d="M211.36 217.639L210.739 216.948C207.775 213.624 204.259 216.461 204.111 216.581L203.215 215.494C204.733 214.244 208.234 212.749 211.205 215.417C211.932 214.64 212.878 214.217 213.978 214.181C215.75 214.132 217.797 215.155 218.933 216.694L217.797 217.534C217.056 216.531 215.518 215.536 214.021 215.593C213.103 215.621 212.383 216.051 211.861 216.857L211.36 217.639Z" fill="white"/>
<path d="M195.946 206.678C195.648 206.678 195.338 206.65 195.035 206.594C194.026 206.397 193.151 205.881 192.424 205.049C191.57 205.789 190.531 206.135 189.431 206.022C187.829 205.867 186.234 204.752 185.457 203.256L186.713 202.606C187.271 203.679 188.442 204.505 189.572 204.618C190.483 204.709 191.28 204.343 191.937 203.524L192.55 202.761L193.08 203.581C193.68 204.505 194.407 205.035 195.295 205.204C197.117 205.55 198.959 204.272 198.981 204.258L199.792 205.408C199.714 205.479 197.978 206.678 195.946 206.678Z" fill="white"/>
<path d="M165.236 206.368L163.974 205.739C164.849 203.975 167.424 201.18 171.229 202.401C171.582 201.399 172.267 200.622 173.254 200.143C174.856 199.359 177.136 199.472 178.802 200.411L178.111 201.639C177.024 201.025 175.216 200.757 173.876 201.413C173.056 201.816 172.563 202.5 172.422 203.452L172.281 204.37L171.433 203.989C167.396 202.176 165.321 206.192 165.236 206.368Z" fill="white"/>
<path d="M181.744 181.017L180.346 180.84C181.85 168.842 176.19 165.623 175.949 165.496L176.612 164.247C176.888 164.388 183.374 167.974 181.744 181.017Z" fill="white"/>
<path d="M180.007 168.404C179.189 168.404 178.547 168.065 178.462 168.015L179.146 166.78C179.146 166.78 179.795 167.126 180.396 166.935C180.742 166.83 181.017 166.561 181.242 166.124L181.56 165.509L182.182 165.814C182.611 166.024 184.559 166.682 186.261 166.06C187.227 165.707 187.962 164.994 188.441 163.928L189.035 162.616L189.712 163.887C191.025 166.35 195.839 165.644 195.888 165.637L196.099 167.035C195.888 167.063 191.406 167.726 189.175 165.502C188.562 166.392 187.75 167.02 186.748 167.38C185.026 168.001 183.19 167.648 182.167 167.309C181.8 167.789 181.349 168.122 180.813 168.284C180.522 168.375 180.255 168.404 180.007 168.404Z" fill="white"/>
<path d="M173.416 192.577L172.202 191.857C172.279 191.73 174.1 188.716 177.538 187.834C179.733 187.276 182.062 187.714 184.461 189.14L183.742 190.354C177.185 186.458 173.571 192.329 173.416 192.577Z" fill="white"/>
<path d="M177.947 188.864C172.237 182.822 175.639 176.866 175.675 176.802L176.888 177.522L176.281 177.162L176.888 177.515C176.769 177.72 174.008 182.646 178.97 187.89L177.947 188.864Z" fill="white"/>
<path d="M151.931 178.031L150.52 177.996C150.64 173.098 153.314 170.218 158.474 169.42C159.823 167.324 161.544 166.012 163.598 165.524C167.254 164.656 170.6 166.71 170.741 166.801L169.993 168.001C169.964 167.981 166.986 166.167 163.915 166.908C162.151 167.331 160.669 168.523 159.504 170.444L159.328 170.733L158.996 170.776C154.346 171.396 152.031 173.775 151.931 178.031Z" fill="white"/>
<path d="M170.896 189.012C169.392 188.829 168.059 188.045 167.141 186.81C166.195 185.54 165.751 183.903 165.885 182.236C164.89 181.883 164.015 181.178 163.443 180.24C162.815 179.215 162.575 177.995 162.751 176.795C161.912 176.442 161.276 175.884 160.86 175.137C159.893 173.407 160.486 171.282 160.515 171.198L161.869 171.587L161.192 171.389L161.869 171.587C161.862 171.601 161.41 173.245 162.095 174.451C162.427 175.045 162.971 175.433 163.76 175.652L164.445 175.843L164.247 176.527C163.958 177.536 164.099 178.623 164.636 179.498C165.136 180.31 165.899 180.853 166.788 181.023L167.466 181.156L167.346 181.835C167.092 183.331 167.423 184.842 168.264 185.963C168.963 186.902 169.922 187.467 171.059 187.608L170.896 189.012Z" fill="white"/>
<path d="M156.695 182.78C155.467 182.78 154.162 182.596 152.835 182.117L153.316 180.79C158.559 182.674 163.584 179.308 163.641 179.272L164.439 180.437C164.255 180.557 160.937 182.78 156.695 182.78Z" fill="white"/>
<path d="M175.11 173.973C171.743 173.973 169.223 172.187 168.948 171.82L169.513 171.396L170.021 170.909C170.064 170.952 174.841 174.686 180.177 170.824L181.003 171.968C178.942 173.464 176.903 173.973 175.11 173.973Z" fill="white"/>
<path d="M152.623 205.012C150.57 204.971 148.777 204.06 147.563 202.451C146.306 200.777 145.841 198.526 146.292 196.359C144.69 194.94 143.815 193.395 143.688 191.764C143.519 189.485 144.909 187.904 144.966 187.841L146.017 188.779C146.01 188.793 144.959 190 145.1 191.68C145.206 193.021 146.025 194.32 147.527 195.555L147.88 195.844L147.761 196.282C147.26 198.166 147.605 200.157 148.693 201.604C149.638 202.859 151.042 203.572 152.651 203.6L152.623 205.012Z" fill="white"/>
<path d="M154.628 200.355C153.717 200.355 152.792 200.171 151.988 199.797L152.58 198.513C153.71 199.036 155.53 199.169 156.822 198.4C157.606 197.934 158.043 197.214 158.107 196.254L158.171 195.33L159.046 195.64C163.238 197.129 164.967 192.958 165.038 192.775L166.35 193.297C165.623 195.125 163.267 198.111 159.378 197.207C159.109 198.237 158.481 199.063 157.542 199.621C156.717 200.108 155.679 200.355 154.628 200.355Z" fill="white"/>
<path d="M161.884 194.391C159.188 194.208 156.894 192.076 156.033 189.02C152.2 188.991 149.3 187.961 147.415 185.957C144.924 183.303 145.163 179.944 145.177 179.802L146.582 179.915L145.876 179.858L146.582 179.915C146.582 179.944 146.391 182.815 148.46 185.004C150.153 186.797 152.885 187.679 156.577 187.608L157.154 187.594L157.275 188.159C157.867 190.891 159.767 192.831 161.982 192.987L161.884 194.391Z" fill="white"/>
<path d="M189.085 192.746C189.085 192.746 200.9 188.511 211.218 201.568C218.805 199.804 218.368 191.687 218.368 191.687C218.368 191.687 225.87 193.805 226.929 189.57C227.727 185.772 224.339 177.748 217.401 178.101C216.463 173.04 211.282 168.099 206.108 167.393C200.815 169.744 195.077 171.656 194.11 177.126C190.581 177.035 188.062 178.644 190.313 184.1C192.12 188.469 190.764 190.896 189.085 192.746Z" fill="#75D8C7"/>
<path d="M214.922 179.336H213.511C213.511 177.925 213.193 176.93 212.544 176.294C211.725 175.497 210.292 175.144 208.076 175.193L207.78 175.2L207.568 174.995C206.559 174 205.507 173.506 204.442 173.556C202.74 173.612 201.526 174.953 201.519 174.961L200.468 174.021C200.532 173.95 202.098 172.221 204.399 172.145C205.783 172.102 207.109 172.653 208.351 173.781C210.857 173.767 212.48 174.248 213.546 175.292C214.464 176.203 214.922 177.529 214.922 179.336Z" fill="white"/>
<path d="M209.374 194.63C208.358 194.63 207.187 194.37 205.852 193.664C203.121 192.224 202.401 190.198 202.232 188.913C200.714 189.527 197.835 190.262 195.527 188.356C192.93 186.21 193.262 183.14 193.791 181.813L195.103 182.343L194.447 182.074L195.103 182.336C195.053 182.455 193.995 185.25 196.431 187.262C198.901 189.308 202.528 187.219 202.564 187.198L203.863 186.437L203.622 187.918C203.608 188.025 203.248 190.691 206.516 192.414C209.896 194.2 211.76 192.619 212.876 191.68L213.785 192.76C213.031 193.402 211.577 194.63 209.374 194.63Z" fill="white"/>
<path d="M204.696 182.16C204.039 177.078 207.455 174.071 207.603 173.952L208.521 175.023L208.063 174.488L208.521 175.023C208.402 175.13 205.536 177.677 206.094 181.983L204.696 182.16Z" fill="white"/>
<path d="M218.269 189.951C218.176 189.951 218.119 189.951 218.106 189.944L218.183 188.533C218.212 188.533 220.597 188.624 221.846 186.824C222.418 185.999 222.334 184.665 221.635 183.571C221.303 183.049 220.343 181.856 218.663 182.145L218.424 180.755C220.174 180.458 221.812 181.227 222.821 182.815C223.83 184.396 223.901 186.337 223.004 187.636C221.5 189.796 218.946 189.951 218.269 189.951Z" fill="white"/>
<path d="M211.054 186.938C208.626 184.904 209.022 179.901 209.043 179.689L210.448 179.809C210.341 181.051 210.412 184.551 211.965 185.85L211.054 186.938Z" fill="white"/>
<path d="M208.466 187.877C207.258 187.877 206.461 187.594 206.439 187.587L206.933 186.26C207.11 186.323 211.366 187.784 214.987 182.414L216.158 183.204C213.512 187.128 210.434 187.877 208.466 187.877Z" fill="white"/>
<path d="M224.83 200.611L221.162 203.931L222.109 204.978L225.777 201.657L224.83 200.611Z" fill="white"/>
<path d="M220.273 194.279C220.273 194.279 220.746 198.485 215.982 202.014C221.191 204.66 219.927 208.542 219.927 208.542C219.927 208.542 226.124 213.483 225.863 218.776C230.542 215.247 230.719 206.333 230.098 202.451C229.476 198.569 227.042 194.687 220.273 194.279Z" fill="#FDC635"/>
<path d="M229.612 206.234L228.285 205.74C228.645 204.766 228.476 203.538 227.869 202.755C227.319 202.042 226.451 201.725 225.364 201.837L224.362 201.936L224.615 200.962C224.856 200.037 224.763 199.268 224.34 198.612C223.394 197.157 221.108 196.763 221.079 196.756L221.305 195.366C221.425 195.386 224.221 195.859 225.512 197.836C226.013 198.597 226.217 199.465 226.133 200.419C227.312 200.503 228.306 201.012 228.992 201.894C229.894 203.065 230.149 204.808 229.612 206.234Z" fill="white"/>
<path d="M227.346 215.014L226.146 214.267L226.747 214.641L226.146 214.267C226.161 214.238 227.65 211.775 226.444 209.918C225.321 208.196 222.639 208.098 222.61 208.098L222.646 206.687C222.787 206.687 226.098 206.792 227.629 209.15C229.33 211.768 227.424 214.88 227.346 215.014Z" fill="white"/>
<path d="M196.34 219.855C196.34 219.855 205.162 220.215 208.959 222.065C212.757 223.913 220.125 224.266 221.162 223.822C218.663 228.854 210.046 272.02 214.697 298.374C212.347 298.374 209.665 298.374 209.665 298.374C209.665 298.374 206.348 276.141 207.809 257.085C209.269 238.029 203.221 225.205 196.34 219.855Z" fill="#EF609A"/>
</svg>
