<svg width="383" height="280" viewBox="0 0 383 280" fill="none" xmlns="http://www.w3.org/2000/svg">
<g clip-path="url(#clip0)">
<path d="M102.642 22.6467C102.642 22.6467 169.18 -9.89012 222.255 11.2328C266.296 28.8027 249.077 51.3442 287.926 50.1664C326.776 48.9886 365.149 94.7809 345.66 153.595C335.521 184.18 382.414 209.558 352.629 243.721C315.641 286.175 240.052 253.736 117.063 268.56C52.2624 276.369 4.9604 211.517 49.4187 161.689C82.1898 124.956 61.0148 117.049 60.7154 82.9505C60.4096 46.8541 102.642 22.6467 102.642 22.6467Z" fill="#EBF3FA"/>
<path d="M296.05 33.7145L291.111 75.713C290.949 77.0666 236.547 70.865 235.422 70.3444C234.296 69.8239 243.386 27.1681 243.881 27.3438C251.292 30.0053 296.05 33.7145 296.05 33.7145Z" fill="#EDEDED"/>
<path d="M306.222 71.1448L296.052 33.7145L291.112 75.713L306.222 71.1448Z" fill="#3D4C65"/>
<path d="M249.375 32.8491C248.529 32.8801 247.694 32.6532 246.98 32.1984C246.023 31.5476 245.523 30.3828 245.496 28.8015C245.457 26.3807 246.681 25.3982 247.41 25.0272C248.008 24.7419 248.673 24.6262 249.333 24.6927C249.993 24.7592 250.622 25.0055 251.151 25.4046C251.695 25.8307 252.103 26.406 252.325 27.0601C252.546 27.7143 252.573 28.4189 252.401 29.0878L251.75 28.9577C251.895 28.4089 251.877 27.8299 251.697 27.2913C251.518 26.7529 251.186 26.2782 250.741 25.9253C250.31 25.5977 249.799 25.3947 249.26 25.3385C248.722 25.2823 248.178 25.3749 247.69 25.6064C246.661 26.127 246.108 27.2592 246.134 28.7884C246.134 30.155 246.564 31.1181 247.338 31.6647C248.881 32.7385 251.412 31.8795 251.438 31.8665L251.652 32.5173C250.913 32.7384 250.146 32.8503 249.375 32.8491Z" fill="#3D4C65"/>
<path d="M257.756 34.3587C256.909 34.3918 256.073 34.1647 255.361 33.708C254.405 33.0572 253.91 31.8989 253.884 30.3176C253.845 27.8904 255.062 26.9078 255.79 26.5368C256.389 26.251 257.055 26.1355 257.716 26.2033C258.375 26.271 259.004 26.5193 259.532 26.9208C260.077 27.3466 260.485 27.9215 260.708 28.5756C260.931 29.2295 260.959 29.9344 260.788 30.604L260.137 30.4738C260.283 29.9375 260.271 29.3708 260.102 28.8412C259.934 28.3117 259.617 27.8418 259.188 27.4882C258.76 27.1345 258.239 26.9119 257.687 26.8471C257.135 26.7821 256.576 26.8778 256.077 27.1225C255.049 27.6366 254.496 28.7689 254.522 30.3046C254.522 31.6646 254.944 32.6343 255.719 33.1744C257.255 34.2481 259.792 33.3891 259.818 33.3826L260.033 33.9943C259.297 34.23 258.529 34.3529 257.756 34.3587Z" fill="#3D4C65"/>
<path d="M266.728 35.0159C265.882 35.049 265.046 34.8219 264.333 34.3652C263.377 33.7144 262.883 32.5561 262.856 30.9683C262.817 28.5475 264.035 27.565 264.769 27.194C265.367 26.9087 266.033 26.7936 266.691 26.8613C267.35 26.929 267.977 27.177 268.505 27.578C269.048 28.0027 269.457 28.5766 269.68 29.2294C269.903 29.8823 269.931 30.586 269.761 31.2546L269.11 31.131C269.257 30.5943 269.246 30.0265 269.079 29.4959C268.912 28.9652 268.594 28.4942 268.165 28.1396C267.736 27.785 267.214 27.5617 266.662 27.4968C266.109 27.4318 265.549 27.5278 265.049 27.7732C264.022 28.2938 263.469 29.426 263.494 30.9618C263.494 32.3218 263.924 33.2914 264.698 33.8315C266.234 34.9053 268.771 34.0463 268.798 34.0398L269.006 34.6514C268.27 34.888 267.502 35.0108 266.728 35.0159Z" fill="#3D4C65"/>
<path d="M276.672 35.4912C275.825 35.5243 274.99 35.2972 274.277 34.8404C273.32 34.1898 272.825 33.0314 272.799 31.4502C272.76 29.0229 273.977 28.0402 274.713 27.6694C275.311 27.384 275.975 27.2689 276.634 27.3366C277.293 27.4043 277.921 27.6523 278.448 28.0532C278.992 28.4791 279.401 29.0541 279.623 29.708C279.847 30.3621 279.875 31.0669 279.703 31.7364L279.053 31.6063C279.2 31.0697 279.19 30.5019 279.021 29.9712C278.854 29.4405 278.537 28.9696 278.107 28.6149C277.679 28.2603 277.157 28.037 276.604 27.972C276.051 27.907 275.492 28.003 274.993 28.2485C273.964 28.769 273.411 29.9013 273.437 31.4371C273.437 32.7971 273.86 33.7668 274.635 34.3069C276.17 35.3805 278.707 34.5216 278.734 34.5151L278.949 35.1268C278.212 35.3633 277.445 35.4862 276.672 35.4912Z" fill="#3D4C65"/>
<path d="M287.207 36.3049C286.363 36.3375 285.53 36.1104 284.819 35.6541C283.862 35.0034 283.361 33.8451 283.335 32.2638C283.296 29.8365 284.519 28.8539 285.248 28.4895C285.847 28.2027 286.512 28.0862 287.172 28.1528C287.832 28.2193 288.461 28.4665 288.99 28.8669C289.532 29.2946 289.938 29.87 290.159 30.5236C290.381 31.1773 290.409 31.8812 290.24 32.5501L289.588 32.4199C289.734 31.8837 289.722 31.3169 289.553 30.7873C289.385 30.2578 289.068 29.788 288.64 29.4344C288.211 29.0806 287.69 28.8581 287.137 28.7932C286.585 28.7283 286.027 28.824 285.528 29.0686C284.5 29.5893 283.946 30.7216 283.973 32.2508C283.973 33.6174 284.403 34.5804 285.177 35.1205C286.706 36.2008 289.25 35.3353 289.276 35.3288L289.491 35.9404C288.752 36.1782 287.982 36.3011 287.207 36.3049Z" fill="#3D4C65"/>
<path d="M285.014 70.9562L239.84 66.5247L244.87 35.0746L290.584 39.4671L285.014 70.9562ZM240.588 65.9455L284.48 70.2534L289.83 40.0462L245.436 35.7839L240.588 65.9455Z" fill="#3D4C65"/>
<path d="M250.209 35.861L245.874 66.5198L246.518 66.611L250.854 35.9521L250.209 35.861Z" fill="#3D4C65"/>
<path d="M281.71 38.9241L277.165 69.8468L277.809 69.9414L282.354 39.0186L281.71 38.9241Z" fill="#3D4C65"/>
<path d="M271.101 37.8897L265.483 68.6818L266.123 68.7986L271.742 38.0065L271.101 37.8897Z" fill="#3D4C65"/>
<path d="M260.894 36.9226L256.286 67.7965L256.93 67.8925L261.538 37.0187L260.894 36.9226Z" fill="#3D4C65"/>
<path d="M244.149 41.5053L244.076 42.1519L288.902 47.1959L288.975 46.5492L244.149 41.5053Z" fill="#3D4C65"/>
<path d="M242.687 50.7748L242.613 51.4212L287.267 56.5483L287.34 55.9019L242.687 50.7748Z" fill="#3D4C65"/>
<path d="M241.239 59.7693L241.175 60.4167L285.785 64.901L285.851 64.2535L241.239 59.7693Z" fill="#3D4C65"/>
<path d="M261.191 47.7641C261.191 47.7641 264.224 42.2979 267.927 45.7208C271.629 49.1437 264.328 53.5296 261.569 50.3475C261.569 50.3475 266.384 50.777 267.425 48.1805C268.467 45.5841 263.281 45.5841 261.191 47.7641Z" fill="#CA6E70"/>
<path d="M117.383 54.8508C117.383 54.8508 98.2195 66.2256 98.8051 67.4881C99.3908 68.7505 102.781 73.3447 102.781 73.3447L121.36 60.7074L117.383 54.8508Z" fill="#3D4C65"/>
<path d="M108.405 58.1821C108.405 58.1821 84.6464 71.6068 85.6875 73.6306C86.7288 75.6544 92.2274 83.2484 92.2274 83.2484L114.945 67.8L108.405 58.1821Z" fill="#FAC421"/>
<path d="M149.127 38.5428C146.963 35.3617 143.905 32.8935 140.338 31.4505C136.772 30.0076 132.858 29.6545 129.091 30.4363C125.324 31.2179 121.874 33.0991 119.176 35.8419C116.479 38.5848 114.654 42.066 113.935 45.8454C113.216 49.6248 113.635 53.5326 115.136 57.0744C116.638 60.6164 119.157 63.6333 122.373 65.7438C125.59 67.8541 129.36 68.9634 133.207 68.9308C137.054 68.8984 140.805 67.7258 143.986 65.5615C148.25 62.6599 151.187 58.1835 152.151 53.1167C153.115 48.0499 152.028 42.8077 149.127 38.5428ZM121.627 57.2516C120.089 54.9926 119.256 52.3283 119.233 49.5959C119.21 46.8634 119.998 44.1854 121.496 41.9006C122.996 39.6159 125.138 37.8268 127.654 36.76C130.169 35.6931 132.946 35.3962 135.63 35.9069C138.314 36.4176 140.787 37.7129 142.735 39.6289C144.683 41.545 146.019 43.9958 146.574 46.6714C147.13 49.3469 146.879 52.127 145.854 54.6601C144.83 57.1932 143.077 59.3655 140.817 60.9022C137.789 62.9544 134.071 63.7225 130.477 63.0382C126.884 62.3539 123.709 60.273 121.646 57.2516H121.627Z" fill="white"/>
<path d="M67.46 30.6107C67.46 30.6107 91.9798 24.5653 93.1641 26.2182C94.3484 27.8711 98.2268 55.4297 98.2268 55.4297L72.4121 60.1151L67.46 30.6107Z" fill="#FDFDFD"/>
<path d="M71.6312 36.4216L71.0586 36.1028C71.0586 36.1028 72.6724 33.2655 75.5813 33.9618C76.3052 34.1329 77.0111 34.3726 77.6896 34.6776C78.6006 35.0811 78.913 35.2177 79.8176 34.515C81.4964 33.2135 82.6613 32.4781 84.6851 33.0703C85.288 33.2557 85.8225 33.6158 86.2208 34.105C86.3704 34.2611 86.5136 34.4303 86.5982 34.4239C86.6828 34.4173 86.9431 34.2937 87.5743 33.4998C88.8173 31.912 89.058 31.7298 91.3746 32.1983L91.251 32.8491C89.2402 32.4651 89.2142 32.4912 88.121 33.8838C87.4311 34.7622 87.0212 35.0941 86.6242 35.1072C86.2273 35.1201 85.9735 34.8599 85.7392 34.58C85.4223 34.1779 84.9913 33.8808 84.5028 33.7276C82.7329 33.2135 81.7698 33.8642 80.221 35.029C78.9976 35.9661 78.4119 35.6798 77.4294 35.2763C76.7868 34.9801 76.118 34.7448 75.4315 34.5735C72.9913 34.0269 71.6898 36.3175 71.6312 36.4216Z" fill="#3D4C65"/>
<path d="M75.9079 54.4079L75.3418 54.0956C75.3418 54.0956 76.9556 51.2584 79.8579 51.9547C80.5855 52.1291 81.2939 52.3755 81.9728 52.69C82.8838 53.0934 83.1897 53.2301 84.1008 52.5273C85.7731 51.2259 86.9379 50.4905 88.9683 51.0827C89.5694 51.2681 90.1017 51.6283 90.4975 52.1173C90.6471 52.2735 90.7968 52.4427 90.8814 52.4362C90.966 52.4296 91.2263 52.3061 91.851 51.5121C93.0939 49.9243 93.3347 49.7422 95.6578 50.2107L95.5342 50.8614C93.5169 50.471 93.4974 50.497 92.4042 51.8961C91.7143 52.7746 91.3044 53.0999 90.9074 53.1195C90.5105 53.139 90.2567 52.8656 90.0224 52.5858C89.7048 52.1858 89.2739 51.8911 88.786 51.7399C87.0161 51.2259 86.053 51.8765 84.4977 53.0413C83.2808 53.9785 82.6887 53.6921 81.7126 53.2886C81.0686 52.9907 80.3974 52.7553 79.7083 52.5858C77.2875 52.0067 75.9665 54.3103 75.9079 54.4079Z" fill="#3D4C65"/>
<path d="M73.2703 42.6232L72.7041 42.3109C72.7041 42.3109 74.3115 39.4737 77.2202 40.17C77.9478 40.3445 78.6562 40.5908 79.3352 40.9053C80.2462 41.3088 80.552 41.4454 81.4631 40.7426C83.1484 39.4412 84.066 38.9661 86.0638 39.5583C86.6432 39.7455 87.1772 40.0513 87.632 40.4563C87.9184 40.6776 88.1591 40.8728 88.3218 40.8403C88.4845 40.8077 88.7318 40.5994 89.1808 39.7731C89.3239 39.5128 89.4281 39.2914 89.5126 39.1223C90.0202 38.0291 90.2805 38.0095 92.1156 38.3674L91.992 39.0182C90.4107 38.7124 90.4107 38.7124 90.0853 39.4086C90.0007 39.5973 89.8901 39.8316 89.7404 40.1049C89.2524 41.0094 88.875 41.4064 88.439 41.504C88.003 41.6016 87.6061 41.3022 87.2156 40.9899C86.8247 40.6402 86.3663 40.3744 85.8685 40.209C84.1116 39.6949 83.4087 40.0724 81.847 41.2827C80.6302 42.2198 80.038 41.9335 79.0553 41.53C78.4141 41.2309 77.7449 40.9955 77.0575 40.8272C74.6499 40.222 73.3288 42.5257 73.2703 42.6232Z" fill="#3D4C65"/>
<path d="M74.5338 49.0655L74.332 48.4147C74.501 48.3821 74.6609 48.3133 74.8006 48.2131C75.4363 47.773 76.1017 47.3773 76.7918 47.0286C78.0934 46.3259 78.3666 46.378 79.0434 46.6968C79.435 46.8777 79.8453 47.0151 80.2668 47.1068C82.0694 47.5167 82.9869 46.801 84.464 45.506C85.6158 44.4973 86.2211 44.7186 87.2297 45.0895C87.8893 45.3436 88.5711 45.5353 89.2665 45.6621C91.7393 46.0916 92.9367 43.6318 92.9431 43.6058L93.5353 43.8856C93.5353 43.8856 92.1037 46.8204 89.1558 46.2998C88.4206 46.1682 87.6995 45.9678 87.0019 45.7012C86.0713 45.3562 85.7526 45.2391 84.887 46.0005C83.2992 47.3931 82.1865 48.2065 80.1236 47.7444C79.659 47.6435 79.2072 47.4907 78.7767 47.289C78.2821 47.0677 78.178 47.0222 77.1042 47.6014C76.4291 47.9375 75.777 48.3179 75.152 48.7401C74.9699 48.889 74.7596 48.9996 74.5338 49.0655Z" fill="#3D4C65"/>
<path d="M51.9904 218.966C51.9904 218.966 75.3193 228.643 75.2478 230.68C75.1762 232.716 61.9923 257.197 61.9923 257.197L38.4355 245.646L51.9904 218.966Z" fill="#FAC421"/>
<path d="M69.8228 234.871C68.4303 233.367 68.3977 233.373 66.6928 233.849C65.6126 234.148 65.092 234.168 64.7406 233.947C64.6057 233.83 64.4996 233.683 64.4307 233.518C64.3619 233.353 64.3321 233.174 64.3436 232.996C64.3265 232.484 64.1541 231.99 63.8491 231.578C62.7298 230.114 61.565 230.062 59.6063 230.107C58.0771 230.107 57.7516 229.581 57.2181 228.649C56.8765 228.029 56.4754 227.442 56.0208 226.9C54.42 224.993 51.9862 226.073 51.882 226.118L51.6152 225.526C51.6152 225.526 54.5956 224.225 56.5218 226.482C57.0005 227.058 57.4232 227.676 57.7843 228.33C58.2788 229.19 58.4349 229.495 59.5933 229.457C61.7082 229.411 63.0877 229.502 64.3697 231.188C64.7449 231.691 64.9602 232.297 64.9879 232.925C64.9879 233.14 65.04 233.361 65.105 233.406C65.1701 233.452 65.4564 233.511 66.439 233.237C68.3912 232.698 68.6776 232.698 70.2784 234.435L69.8228 234.871Z" fill="#3D4C65"/>
<path d="M62.58 251.893C61.1874 250.384 61.1549 250.397 59.4435 250.872C58.3697 251.171 57.8427 251.191 57.4912 250.969C57.3558 250.851 57.2494 250.704 57.1806 250.537C57.1117 250.372 57.0821 250.193 57.0942 250.013C57.0759 249.504 56.9035 249.011 56.5997 248.601C55.4804 247.13 54.3156 247.085 52.3569 247.13C50.8211 247.13 50.5023 246.603 49.9687 245.673C49.6271 245.052 49.226 244.466 48.7714 243.922C47.164 242.009 44.6587 243.128 44.6327 243.134L44.3594 242.543C44.3919 242.543 47.3462 241.241 49.2724 243.506C49.7508 244.078 50.1734 244.694 50.5349 245.348C51.0294 246.212 51.1856 246.506 52.3439 246.48C54.4588 246.428 55.8383 246.525 57.1203 248.204C57.5025 248.71 57.7286 249.316 57.7711 249.948C57.7711 250.163 57.8166 250.384 57.8882 250.43C57.9598 250.475 58.246 250.533 59.1896 250.261C61.1418 249.72 61.4347 249.72 63.0355 251.451L62.58 251.893Z" fill="#3D4C65"/>
<path d="M66.7773 240.311C65.6841 239.126 65.6841 239.126 65.0138 239.49C64.8251 239.595 64.6038 239.718 64.3175 239.848C63.3869 240.284 62.8468 240.389 62.4434 240.2C62.0399 240.011 61.8968 239.549 61.7927 239.062C61.6774 238.546 61.4557 238.061 61.1419 237.636C60.0292 236.178 59.2418 236.068 57.27 236.113C55.7213 236.113 55.409 235.586 54.8753 234.655C54.534 234.036 54.1353 233.45 53.6845 232.905C52.0706 230.992 49.5653 232.105 49.5393 232.118L49.2725 231.525C49.2725 231.525 52.2529 230.224 54.179 232.482C54.6577 233.056 55.0805 233.675 55.4415 234.33C55.9361 235.196 56.0922 235.488 57.2505 235.463C59.385 235.41 60.3806 235.56 61.6561 237.239C62.0105 237.734 62.2608 238.296 62.3913 238.892C62.489 239.237 62.567 239.543 62.7167 239.607C62.8664 239.673 63.1853 239.659 64.0182 239.263C64.285 239.132 64.4997 239.015 64.6689 238.918C65.7231 238.346 65.9704 238.488 67.2263 239.868L66.7773 240.311Z" fill="#3D4C65"/>
<path d="M62.8718 245.66C62.3591 245.667 61.8507 245.567 61.3789 245.366C60.9072 245.166 60.4825 244.869 60.1321 244.494C59.6167 243.951 59.1547 243.358 58.7526 242.725C58.2059 241.899 58.0238 241.619 56.8784 241.716C54.77 241.892 53.3905 241.885 52.0044 240.291C51.6906 239.934 51.4178 239.544 51.1909 239.126C50.9242 238.657 50.8656 238.554 49.6552 238.385C48.9188 238.263 48.1755 238.187 47.4297 238.157C47.19 238.16 46.9525 238.111 46.7334 238.013L46.9417 237.402C47.0984 237.475 47.2699 237.511 47.4427 237.506C48.2148 237.535 48.9842 237.613 49.7463 237.741C51.2105 237.949 51.3927 238.163 51.7571 238.807C51.9621 239.186 52.2088 239.539 52.4925 239.862C53.7028 241.261 54.8677 241.235 56.8199 241.066C58.3491 240.935 58.707 241.476 59.2991 242.367C59.6755 242.967 60.1116 243.527 60.6007 244.039C62.3186 245.842 64.6808 244.619 64.7783 244.566L65.0907 245.14C64.3974 245.471 63.6403 245.648 62.8718 245.66Z" fill="#3D4C65"/>
<path d="M46.0625 162.293C43.4885 162.293 40.9723 163.057 38.832 164.487C36.6917 165.917 35.0236 167.95 34.0385 170.328C33.0535 172.706 32.7958 175.323 33.2979 177.847C33.8001 180.372 35.0397 182.691 36.8598 184.511C38.6799 186.331 40.9989 187.571 43.5236 188.073C46.0482 188.575 48.665 188.318 51.043 187.332C53.4212 186.348 55.4538 184.679 56.884 182.539C58.314 180.399 59.0773 177.882 59.0773 175.309C59.0773 171.856 57.7061 168.547 55.2654 166.106C52.8247 163.665 49.5143 162.293 46.0625 162.293ZM45.6201 182.395C44.3036 182.42 43.0096 182.051 41.903 181.338C40.7964 180.625 39.9272 179.598 39.4064 178.389C38.8855 177.179 38.7364 175.842 38.9781 174.548C39.2199 173.253 39.8414 172.061 40.7637 171.121C41.6859 170.181 42.867 169.536 44.1567 169.271C45.4462 169.005 46.7857 169.128 48.0046 169.627C49.2235 170.125 50.2665 170.974 51.0008 172.068C51.7349 173.16 52.1272 174.447 52.1275 175.764C52.1361 176.627 51.9744 177.483 51.652 178.283C51.3295 179.083 50.8525 179.812 50.2482 180.428C49.6438 181.044 48.924 181.534 48.1298 181.872C47.3358 182.209 46.4828 182.388 45.6201 182.395Z" fill="#3D4C65"/>
<path d="M43.4027 168.521C43.4027 168.521 42.4201 159.548 43.7997 156.294C44.1641 155.429 48.7322 155.207 49.0055 157.178C49.0771 157.699 49.2203 168.131 48.9209 168.326C48.6216 168.521 43.4027 168.521 43.4027 168.521Z" fill="#3D4C65"/>
<path d="M48.7708 182.329C48.7708 182.329 49.7534 191.304 48.3738 194.563C48.0094 195.423 43.4412 195.644 43.1679 193.679C43.0964 193.152 42.9532 182.72 43.2525 182.525C43.5519 182.329 48.7708 182.329 48.7708 182.329Z" fill="#3D4C65"/>
<path d="M48.4854 168.651C48.4854 168.651 54.1207 161.604 57.4136 160.27C58.279 159.918 61.6693 162.99 60.4719 164.577C60.1531 165 52.8779 172.471 52.5329 172.387C52.1881 172.302 48.4854 168.651 48.4854 168.651Z" fill="#3D4C65"/>
<path d="M42.5167 182.206C42.5167 182.206 36.8618 189.247 33.5886 190.574C32.7166 190.926 29.3328 187.854 30.5235 186.267C30.8424 185.837 38.1177 178.367 38.4691 178.457C38.8205 178.549 42.5167 182.206 42.5167 182.206Z" fill="#3D4C65"/>
<path d="M52.8183 178.412C52.8183 178.412 59.8657 184.061 61.1868 187.341C61.5382 188.206 58.4667 191.596 56.8789 190.399C56.4559 190.08 48.9854 182.805 49.07 182.453C49.1547 182.103 52.8183 178.412 52.8183 178.412Z" fill="#3D4C65"/>
<path d="M39.284 172.445C39.284 172.445 32.2429 166.777 30.9155 163.523C30.5641 162.651 33.6356 159.268 35.2234 160.458C35.6528 160.777 43.1232 168.052 43.0322 168.404C42.9411 168.755 39.284 172.445 39.284 172.445Z" fill="#3D4C65"/>
<path d="M38.8353 178.536C38.8353 178.536 29.8551 179.519 26.6014 178.14C25.7425 177.774 25.5147 173.206 27.4864 172.933C28.0135 172.862 38.4383 172.718 38.64 173.017C38.8417 173.317 38.8353 178.536 38.8353 178.536Z" fill="#3D4C65"/>
<path d="M52.1074 173.168C52.1074 173.168 61.0811 172.185 64.3413 173.565C65.2002 173.929 65.4215 178.497 63.4562 178.77C62.9292 178.842 52.4979 178.986 52.3026 178.686C52.1074 178.387 52.1074 173.168 52.1074 173.168Z" fill="#3D4C65"/>
<path d="M297.495 87.0558C295.896 87.0558 294.333 87.5299 293.004 88.4183C291.675 89.3067 290.639 90.5693 290.028 92.0466C289.416 93.5237 289.256 95.1491 289.569 96.7171C289.881 98.285 290.651 99.7251 291.782 100.855C292.914 101.985 294.354 102.755 295.922 103.066C297.49 103.376 299.116 103.215 300.593 102.603C302.07 101.99 303.331 100.953 304.218 99.6234C305.105 98.2934 305.578 96.7301 305.577 95.1314C305.575 92.989 304.723 90.935 303.208 89.4207C301.692 87.9064 299.638 87.0558 297.495 87.0558ZM297.221 99.5239C296.405 99.5419 295.601 99.3163 294.913 98.8755C294.224 98.4348 293.683 97.799 293.358 97.0492C293.033 96.2995 292.938 95.4698 293.086 94.6662C293.235 93.8626 293.619 93.1212 294.191 92.5369C294.762 91.9526 295.494 91.5518 296.294 91.3855C297.094 91.2194 297.926 91.2953 298.683 91.6037C299.44 91.9121 300.087 92.4391 300.543 93.1172C301 93.7954 301.243 94.594 301.243 95.4113C301.255 96.4877 300.841 97.525 300.089 98.296C299.337 99.0669 298.312 99.5085 297.235 99.5239H297.221Z" fill="#3D4C65"/>
<path d="M295.864 90.9144C295.864 90.9144 295.251 85.3506 296.111 83.3332C296.339 82.7996 299.162 82.6825 299.364 83.8799C299.41 84.2052 299.495 90.6671 299.312 90.7907C298.165 90.8913 297.015 90.9326 295.864 90.9144Z" fill="#3D4C65"/>
<path d="M299.187 99.4654C299.187 99.4654 299.799 105.029 298.939 107.046C298.712 107.581 295.887 107.697 295.686 106.5C295.64 106.174 295.556 99.7127 295.738 99.5891C296.885 99.4884 298.036 99.4471 299.187 99.4654Z" fill="#3D4C65"/>
<path d="M299.013 90.9923C299.013 90.9923 302.514 86.6258 304.544 85.7864C305.077 85.5652 307.147 87.4719 306.437 88.4544C306.242 88.7148 301.733 93.348 301.518 93.3024C300.644 92.5759 299.808 91.8048 299.013 90.9923Z" fill="#3D4C65"/>
<path d="M295.308 99.3868C295.308 99.3868 291.808 103.753 289.777 104.593C289.244 104.814 287.174 102.908 287.884 101.925C288.079 101.658 292.589 97.0311 292.803 97.0766C293.678 97.8032 294.514 98.5743 295.308 99.3868Z" fill="#3D4C65"/>
<path d="M301.706 97.0377C301.706 97.0377 306.072 100.539 306.912 102.569C307.132 103.109 305.226 105.172 304.243 104.469C303.984 104.268 299.35 99.7643 299.396 99.543C300.122 98.6689 300.893 97.8327 301.706 97.0377Z" fill="#3D4C65"/>
<path d="M293.312 93.3418C293.312 93.3418 288.946 89.8408 288.106 87.8106C287.891 87.2705 289.791 85.1751 290.773 85.9105C291.041 86.1121 295.668 90.6153 295.629 90.8365C295.59 91.0577 293.312 93.3418 293.312 93.3418Z" fill="#3D4C65"/>
<path d="M293.033 97.1485C293.033 97.1485 287.47 97.7602 285.452 96.9013C284.919 96.6735 284.801 93.8493 285.999 93.6476C286.324 93.602 292.786 93.5175 292.91 93.6996C293.01 94.8464 293.051 95.9976 293.033 97.1485Z" fill="#3D4C65"/>
<path d="M301.256 93.7908C301.256 93.7908 306.813 93.1792 308.831 94.0381C309.364 94.2658 309.482 97.09 308.284 97.2918C307.959 97.3373 301.497 97.4219 301.379 97.2398C301.279 96.093 301.238 94.9418 301.256 93.7908Z" fill="#3D4C65"/>
<path d="M350.974 109.35C350.823 109.353 350.676 109.304 350.557 109.209C350.438 109.116 350.356 108.984 350.324 108.836L346.862 92.8144C346.832 92.6816 346.846 92.5431 346.899 92.4182C346.954 92.2932 347.045 92.1883 347.161 92.1181C348.183 91.4674 357.137 86.1118 359.785 86.1118H359.896C360.495 86.1509 361.198 86.1964 364.392 102.751C364.425 102.92 364.389 103.095 364.293 103.238C364.197 103.381 364.048 103.479 363.879 103.513C363.709 103.545 363.534 103.509 363.391 103.412C363.249 103.316 363.15 103.167 363.118 102.998C362.005 97.2719 360.221 88.9816 359.538 87.4263C357.651 87.6671 351.872 90.8101 348.228 92.9966L351.6 108.562C351.633 108.73 351.601 108.906 351.506 109.049C351.413 109.193 351.266 109.294 351.098 109.33C351.058 109.342 351.016 109.349 350.974 109.35Z" fill="#3D4C65"/>
<path d="M350.368 106.793C350.368 106.793 352.158 104.19 354.858 105.738C357.078 107.04 354.664 110.391 351.755 110.137C348.208 109.832 350.368 106.793 350.368 106.793Z" fill="#3D4C65"/>
<path d="M363.11 100.981C363.11 100.981 364.899 98.3782 367.606 99.927C369.818 101.228 367.404 104.579 364.495 104.326C360.95 104.013 363.11 100.981 363.11 100.981Z" fill="#3D4C65"/>
<path d="M333.286 92.8276C333.203 92.8278 333.121 92.8123 333.046 92.7821C332.966 92.7499 332.893 92.7023 332.831 92.642C332.771 92.5816 332.721 92.5097 332.689 92.4305C332.655 92.3512 332.638 92.2661 332.637 92.1801C332.637 92.0942 332.655 92.009 332.688 91.9296C334.6 87.2247 336.592 81.9798 336.878 80.6132C335.525 80.0537 330.931 79.6502 327.585 79.5136L323.271 90.7843C323.209 90.9457 323.086 91.0757 322.928 91.1459C322.77 91.2161 322.59 91.2206 322.428 91.1585C322.267 91.0963 322.137 90.9726 322.067 90.8146C321.996 90.6565 321.992 90.4771 322.055 90.3158L326.538 78.6025C326.588 78.4726 326.677 78.3622 326.794 78.2873C326.912 78.2123 327.05 78.1768 327.188 78.1861C328.717 78.2381 336.404 78.5505 337.939 79.7023C338.414 80.0537 338.817 80.353 333.911 92.4111C333.862 92.5366 333.777 92.644 333.664 92.7186C333.552 92.7931 333.42 92.8312 333.286 92.8276Z" fill="#3D4C65"/>
<path d="M323.068 89.0796C323.068 89.0796 325.314 88.1491 326.387 90.2835C327.266 92.034 324.311 93.1793 322.562 91.7998C320.42 90.1209 323.068 89.0796 323.068 89.0796Z" fill="#3D4C65"/>
<path d="M333.658 90.6933C333.658 90.6933 335.903 89.7627 336.977 91.8971C337.855 93.6411 334.901 94.7929 333.144 93.4133C331.01 91.728 333.658 90.6933 333.658 90.6933Z" fill="#3D4C65"/>
<path d="M334.757 147.366L322.315 168.918C322.315 168.918 350.297 186.247 351.657 187.249C353.017 188.251 365.642 167.61 365.276 166.426C364.912 165.241 334.757 147.366 334.757 147.366Z" fill="#FAC421"/>
<path d="M342.573 172.406C342.477 172.412 342.382 172.399 342.293 172.367C341.075 171.866 336.397 154.797 334.444 147.444L335.096 147.281C337.516 156.346 341.694 171.013 342.598 171.788C343.594 172.015 356.999 168.417 365.218 166.087L365.393 166.738C361.918 167.694 345.207 172.406 342.573 172.406Z" fill="#3D4C65"/>
<path d="M322.386 169.237L322.243 168.587C324.742 168.001 339.383 164.227 339.532 164.188L339.695 164.838C339.546 164.877 324.898 168.657 322.386 169.237Z" fill="#3D4C65"/>
<path d="M351.331 187.295C350.426 180.984 349.014 171.398 348.845 170.877L349.144 170.779L349.06 170.435L349.327 170.48C349.483 170.585 349.606 170.669 351.975 187.204L351.331 187.295Z" fill="#3D4C65"/>
<path d="M29.32 228.174L28.7734 227.816C28.7734 227.816 29.0988 227.322 29.7105 226.47L30.2376 226.853C29.6389 227.68 29.32 228.168 29.32 228.174Z" fill="#3D4C65"/>
<path d="M111.945 278.528C110.864 278.495 109.759 278.431 108.658 278.326L108.718 277.676C109.804 277.779 110.897 277.845 111.971 277.878L111.945 278.528ZM115.199 278.528V277.878C116.272 277.839 117.359 277.767 118.452 277.656L118.518 278.307C117.424 278.405 116.324 278.483 115.231 278.522L115.199 278.528ZM105.366 277.929C104.299 277.76 103.206 277.565 102.112 277.337L102.242 276.687C103.309 276.915 104.389 277.11 105.444 277.273L105.366 277.929ZM121.738 277.851L121.627 277.201C122.689 277.018 123.756 276.797 124.81 276.55L124.96 277.201C123.931 277.435 122.845 277.656 121.797 277.845L121.738 277.851ZM98.9626 276.55C97.9018 276.252 96.857 275.9 95.8325 275.496L96.0732 274.89C97.0761 275.289 98.0991 275.635 99.1383 275.925L98.9626 276.55ZM128.161 276.283L127.966 275.633C128.975 275.314 130.009 274.981 131.038 274.565L131.271 275.17C130.256 275.606 129.183 275.971 128.161 276.29V276.283ZM92.8457 274.071C91.8807 273.525 90.9642 272.898 90.1061 272.197L90.5225 271.689C91.3489 272.368 92.2329 272.973 93.1645 273.498L92.8457 274.071ZM134.304 273.947L134.044 273.355C134.993 272.925 135.996 272.457 136.985 271.956L137.271 272.541C136.269 273.049 135.267 273.498 134.304 273.954V273.947ZM140.161 271.012L139.849 270.44C140.831 269.899 141.801 269.359 142.692 268.839L143.017 269.399C142.116 269.928 141.169 270.468 140.18 271.018L140.161 271.012ZM87.7374 269.847C87.0338 268.987 86.421 268.055 85.9088 267.069L86.4879 266.769C86.9779 267.717 87.5645 268.611 88.2384 269.438L87.7374 269.847ZM145.848 267.765L145.523 267.199C146.72 266.516 147.605 266.021 148.399 265.611L148.698 266.184C147.937 266.6 147.052 267.088 145.874 267.771L145.848 267.765ZM151.633 264.824L151.399 264.218C152.438 263.795 153.535 263.529 154.653 263.431L154.692 264.082C153.647 264.179 152.623 264.432 151.653 264.831L151.633 264.824ZM84.7049 264.004C84.3787 262.938 84.1264 261.851 83.9501 260.75L84.6008 260.646C84.7728 261.707 85.0163 262.755 85.3297 263.782L84.7049 264.004ZM83.5921 257.496C83.5336 256.605 83.5076 255.642 83.5076 254.646V254.204H84.1583V254.627C84.1583 255.609 84.1583 256.579 84.2364 257.432L83.5921 257.496ZM84.2429 250.957L83.5921 250.924C83.6442 249.941 83.7223 248.874 83.8199 247.671L84.4707 247.722C84.3536 248.92 84.282 249.98 84.2299 250.957H84.2429ZM84.7505 244.449L84.0997 244.391L84.1583 243.772C84.2364 242.9 84.321 242.015 84.3925 241.137L85.0433 241.189L84.809 243.831L84.7505 244.449ZM85.2971 237.941L84.6464 237.902C84.731 236.719 84.783 235.651 84.8155 234.649H85.4663C85.4207 235.657 85.3557 236.725 85.2841 237.916L85.2971 237.941ZM84.8481 231.396C84.8481 230.264 84.77 229.17 84.6789 228.141L85.3297 228.083C85.4207 229.112 85.4793 230.217 85.4988 231.369L84.8481 231.396ZM84.2559 224.94C84.0635 223.881 83.8093 222.834 83.4946 221.804L84.1127 221.615C84.4347 222.669 84.6954 223.739 84.8937 224.822L84.2559 224.94ZM32.197 224.289L31.6895 223.879C32.3401 223.034 33.0689 222.181 33.7913 221.355L34.2859 221.784C33.5831 222.578 32.8802 223.424 32.21 224.264L32.197 224.289ZM36.4789 219.376L36.0103 218.927C36.7782 218.127 37.5591 217.339 38.3335 216.604L38.7825 217.073C38.0276 217.782 37.2532 218.557 36.4918 219.351L36.4789 219.376ZM82.3102 218.797C81.8581 217.825 81.3293 216.888 80.7289 215.999L81.269 215.635C81.8843 216.554 82.4303 217.517 82.9024 218.517L82.3102 218.797ZM41.2032 214.892L40.7802 214.392C41.6326 213.67 42.4916 212.973 43.3441 212.335L43.7346 212.856C42.9081 213.468 42.0556 214.151 41.2162 214.873L41.2032 214.892ZM78.7246 213.481C77.9909 212.696 77.2015 211.965 76.3625 211.294L76.7724 210.787C77.6362 211.476 78.4475 212.229 79.1997 213.038L78.7246 213.481ZM46.3961 210.995L46.0446 210.448C46.9882 209.837 47.9448 209.271 48.8819 208.769L49.1877 209.341C48.2637 209.817 47.3396 210.376 46.409 210.975L46.3961 210.995ZM73.727 209.446C73.3496 209.212 72.9591 208.985 72.5557 208.763C72.0026 208.457 71.4429 208.17 70.8833 207.917L71.1566 207.325C71.7227 207.585 72.3019 207.878 72.8746 208.19C73.2845 208.418 73.6815 208.652 74.0719 208.886L73.727 209.446ZM52.116 207.95L51.8687 207.351C52.8835 206.923 53.9221 206.553 54.9793 206.244L55.1615 206.895C54.1305 207.185 53.1159 207.53 52.1226 207.93L52.116 207.95ZM67.8704 206.785C66.8416 206.476 65.7909 206.245 64.7273 206.094L64.8184 205.444C65.9191 205.6 67.0066 205.837 68.0721 206.154L67.8704 206.785ZM58.3111 206.134L58.2069 205.483C59.2984 205.31 60.401 205.216 61.5062 205.203V205.854C60.438 205.876 59.3726 205.972 58.3176 206.14L58.3111 206.134Z" fill="#3D4C65"/>
<path d="M158.972 265.722C158.608 265.358 158.199 265.041 157.756 264.778L158.081 264.212C158.571 264.503 159.025 264.856 159.428 265.259L158.972 265.722Z" fill="#3D4C65"/>
<path d="M55.7064 49.0916C55.7064 49.0396 55.3876 47.8487 55.0557 45.838L55.7064 45.7339C56.0252 47.6861 56.3571 48.8899 56.3571 48.8964L55.7064 49.0916ZM54.6458 42.5842C54.5351 41.491 54.4635 40.3913 54.4244 39.3306H55.0752C55.1143 40.3847 55.1859 41.4715 55.2964 42.5517L54.6458 42.5842ZM55.0687 36.077H54.418C54.457 34.9641 54.5351 33.8644 54.6522 32.8232L55.303 32.8948C55.1859 33.9164 55.1077 34.9966 55.0687 36.0964V36.077ZM55.804 29.6672L55.1533 29.5371C55.3712 28.4628 55.6449 27.4006 55.9733 26.3549L56.5914 26.5566C56.2725 27.585 56.0097 28.6299 55.804 29.6867V29.6672ZM120.312 27.4417C119.809 27.4432 119.308 27.415 118.808 27.3571L118.886 26.7063C119.36 26.7588 119.836 26.7848 120.312 26.7844C120.89 26.7844 121.469 26.7497 122.043 26.6802L122.121 27.331C121.521 27.4058 120.917 27.4427 120.312 27.4417ZM125.355 26.6413L125.172 25.9905C126.199 25.69 127.207 25.3315 128.192 24.9167L128.446 25.5154C127.438 25.9553 126.406 26.3377 125.355 26.6607V26.6413ZM115.594 26.5241C114.571 26.1067 113.596 25.581 112.685 24.9558L113.049 24.4157C113.918 25.0233 114.85 25.5359 115.828 25.945L115.594 26.5241ZM131.413 24.1229L131.114 23.5437C132.018 23.0752 132.968 22.5481 133.944 21.9754L134.277 22.5416C133.287 23.1338 132.324 23.6674 131.413 24.1424V24.1229ZM57.7628 23.5762L57.1706 23.303C57.6278 22.3045 58.1541 21.3391 58.7454 20.4137L59.292 20.7651C58.7158 21.6644 58.2048 22.6039 57.7628 23.5762ZM110.108 22.9256C109.36 22.2748 108.618 21.624 107.837 20.8822L107.687 20.7456L108.123 20.264L108.273 20.4006C109.054 21.1164 109.79 21.7933 110.537 22.4375L110.108 22.9256ZM137.055 20.8432L136.703 20.2965C137.172 19.9973 137.654 19.6784 138.141 19.353L138.506 19.8931C138.011 20.225 137.53 20.5438 137.055 20.8432ZM105.273 18.5786C104.381 17.8107 103.562 17.147 102.761 16.5483L103.152 16.0277C103.965 16.633 104.798 17.3292 105.696 18.084L105.273 18.5786ZM61.2182 18.2077L60.7301 17.7782C61.4616 16.9545 62.2556 16.1887 63.1053 15.4876L63.5153 15.9886C62.6931 16.6677 61.9251 17.4096 61.2182 18.2077ZM100.093 14.7458C99.174 14.1942 98.227 13.6903 97.2559 13.236L97.5293 12.6504C98.5258 13.1077 99.4949 13.6227 100.432 14.1926L100.093 14.7458ZM66.1312 14.1536L65.8319 13.594C66.777 13.0323 67.7598 12.5366 68.7733 12.1103L69.027 12.709C68.0298 13.1236 67.0623 13.6063 66.1312 14.1536ZM94.2756 12.0582C93.2799 11.7264 92.2388 11.4075 91.1781 11.1992L91.3213 10.5485C92.3834 10.7921 93.4324 11.0897 94.4643 11.44L94.2756 12.0582ZM72.0204 11.6548L71.8447 11.004C72.8598 10.7177 73.9336 10.4704 75.0398 10.2752L75.1569 10.926C74.0997 11.1155 73.0528 11.3587 72.0204 11.6548ZM88.0089 10.6526C86.9743 10.5225 85.8941 10.4314 84.8008 10.3793V9.72859C85.9201 9.78064 87.0134 9.87175 88.0546 10.0084L88.0089 10.6526ZM78.3456 10.5095L78.287 9.85873C79.0288 9.79366 79.8032 9.74811 80.5776 9.71558H81.5602V10.3663H80.5841C79.8357 10.3923 79.0808 10.4444 78.3456 10.5095Z" fill="#3D4C65"/>
<path d="M329.03 202.841L323.082 244.397L375.44 253.15L382.358 211.756L329.03 202.841Z" fill="#3D4C65"/>
<path d="M332.636 207.625L328.081 239.855L372.643 247.306L378.565 215.302L332.636 207.625Z" fill="white"/>
<path d="M335.31 238.079C335.31 238.079 336.305 225.532 336.65 225.351C336.995 225.168 342.78 226.339 342.78 226.339C342.78 226.339 341.752 239.074 341.283 239.074C340.814 239.074 335.31 238.079 335.31 238.079Z" fill="#C8423E"/>
<path d="M352.001 240.844C352.001 240.844 354.24 220.873 354.604 220.561C354.968 220.248 360.734 221.524 360.734 221.524C360.734 221.524 358.45 241.801 357.968 241.846C357.487 241.891 352.001 240.844 352.001 240.844Z" fill="#87BECA"/>
<path d="M343.887 239.497C343.887 239.497 345.533 223.053 345.891 222.805C346.249 222.558 352.021 223.775 352.021 223.775C352.021 223.775 350.329 240.473 349.854 240.499C349.379 240.525 343.887 239.497 343.887 239.497Z" fill="#D5A168"/>
<path d="M360.87 242.315C360.87 242.315 363.929 217.424 364.312 217.021C364.696 216.618 370.449 217.964 370.449 217.964C370.449 217.964 367.326 243.239 366.837 243.311C366.349 243.382 360.87 242.315 360.87 242.315Z" fill="#3D4C65"/>
<path d="M139.828 0L146.284 6.40975L141.429 17.1079L148.073 15.3509L148.418 22.4569L173.888 4.15821L139.828 0Z" fill="#87BECA"/>
<path d="M173.134 4.06964L146.257 6.09527L146.305 6.74417L173.183 4.71854L173.134 4.06964Z" fill="#3D4C65"/>
<path d="M148.419 10.9566L141.229 16.8735L141.642 17.376L148.833 11.4591L148.419 10.9566Z" fill="#3D4C65"/>
<path d="M173.066 4.04883L148.525 10.8639L148.699 11.4909L173.24 4.67583L173.066 4.04883Z" fill="#3D4C65"/>
<path d="M148.315 11.1619L147.77 15.317L148.415 15.4017L148.96 11.2465L148.315 11.1619Z" fill="#3D4C65"/>
<path d="M172.626 254.321L173.245 263.399L162.534 268.234L168.69 271.298L164.258 276.863L195.461 279.941L172.626 254.321Z" fill="#FAC421"/>
<path d="M173.444 263.115L173.052 263.634L194.575 279.86L194.967 279.339L173.444 263.115Z" fill="#3D4C65"/>
<path d="M162.556 267.921L162.534 268.571L171.841 268.877L171.862 268.227L162.556 267.921Z" fill="#3D4C65"/>
<path d="M171.989 268.257L171.706 268.843L194.635 279.932L194.918 279.347L171.989 268.257Z" fill="#3D4C65"/>
<path d="M171.624 268.286L168.474 271.048L168.902 271.538L172.054 268.775L171.624 268.286Z" fill="#3D4C65"/>
<path d="M358.28 112.85L357.662 121.928L368.373 126.757L362.224 129.829L366.656 135.386L335.446 138.464L358.28 112.85Z" fill="#CA4D4F"/>
<path d="M357.476 121.681L335.944 137.894L336.336 138.414L357.867 122.201L357.476 121.681Z" fill="#3D4C65"/>
<path d="M368.361 126.461L359.055 126.77L359.076 127.42L368.384 127.112L368.361 126.461Z" fill="#3D4C65"/>
<path d="M358.933 126.8L336.005 137.889L336.288 138.475L359.217 127.386L358.933 126.8Z" fill="#3D4C65"/>
<path d="M359.26 126.786L358.83 127.275L361.982 130.038L362.411 129.549L359.26 126.786Z" fill="#3D4C65"/>
<path d="M308.291 263.399C313.952 263.399 318.54 258.81 318.54 253.15C318.54 247.489 313.952 242.901 308.291 242.901C302.631 242.901 298.042 247.489 298.042 253.15C298.042 258.81 302.631 263.399 308.291 263.399Z" fill="#FAC421"/>
<path d="M305.262 249.417L304.676 249.698L307.007 254.584L307.595 254.303L305.262 249.417Z" fill="#3D4C65"/>
<path d="M308.309 247.966L307.722 248.247L310.054 253.133L310.641 252.852L308.309 247.966Z" fill="#3D4C65"/>
<path d="M308.91 259.143C305.454 259.143 303.703 255.401 303.657 255.356L304.244 255.082C304.334 255.271 306.449 259.683 310.562 258.179C311.085 258.024 311.568 257.756 311.978 257.395C312.389 257.035 312.716 256.59 312.937 256.091C313.718 254.171 312.624 251.823 312.612 251.803L313.204 251.523C313.25 251.627 314.434 254.126 313.536 256.338C313.28 256.921 312.902 257.442 312.426 257.865C311.952 258.288 311.392 258.604 310.783 258.792C310.184 259.019 309.55 259.138 308.91 259.143Z" fill="#3D4C65"/>
<path d="M0.551335 79.188C0.551335 79.188 41.4436 63.3686 43.7733 65.4509C46.1029 67.5333 67.447 132.125 65.7226 133.374C63.9982 134.625 25.2728 147.769 22.709 148.238C20.1451 148.706 -2.79996 80.4699 0.551335 79.188Z" fill="white"/>
<path d="M5.90716 80.7172C5.90716 80.7172 37.663 68.6266 39.4592 70.1883C41.2551 71.7501 57.5887 120.496 56.2482 121.447C54.9077 122.397 24.8371 132.464 22.8849 132.822C20.9327 133.18 3.30421 81.6999 5.90716 80.7172Z" fill="#3D4C65"/>
<path d="M42.2626 137.156C44.6346 137.156 46.5575 135.233 46.5575 132.861C46.5575 130.489 44.6346 128.566 42.2626 128.566C39.8906 128.566 37.9678 130.489 37.9678 132.861C37.9678 135.233 39.8906 137.156 42.2626 137.156Z" fill="#798B97"/>
<path d="M9.91043 85.9688C9.91043 85.9688 27.5844 79.084 28.8859 79.2467C30.1874 79.4094 31.2937 84.1272 30.9878 84.6152C30.682 85.1034 11.9668 91.038 11.316 91.2462C10.6652 91.4545 8.60895 86.4699 9.91043 85.9688Z" fill="#87BECA"/>
<path d="M28.9552 108.27C28.9552 108.27 47.3059 101.32 48.6074 101.482C49.9089 101.645 51.0477 106.155 50.7354 106.642C50.4229 107.13 32.1177 113.722 30.9268 113.716C30.2437 113.71 27.6537 108.777 28.9552 108.27Z" fill="#87BECA"/>
<path d="M11.9643 93.3154C11.9643 93.3154 24.1851 89.0075 25.4866 89.1701C26.7881 89.3328 28.0895 93.2568 27.7512 93.7253C27.4128 94.1938 14.7364 98.0918 14.0857 98.2805C13.435 98.4692 11.2941 93.7448 11.9643 93.3154Z" fill="#87BECA"/>
<path d="M36.9597 113.657C36.9597 113.657 49.7856 109.103 51.0872 109.285C52.3886 109.467 53.6902 113.371 53.3517 113.84C53.0133 114.309 40.376 118.395 37.9618 119.046C37.3045 119.274 35.6582 114.159 36.9597 113.657Z" fill="#87BECA"/>
<path d="M15.2184 100.91C15.2184 100.91 27.4392 96.6017 28.7407 96.7643C30.0422 96.927 31.3436 100.851 31.0053 101.319C30.6669 101.788 17.3397 105.875 16.6891 106.095C16.0383 106.317 13.9234 101.411 15.2184 100.91Z" fill="#87BECA"/>
<path d="M48.3755 54.6356C48.3755 54.6356 33.2719 48.9156 27.0443 62.3012C22.0402 73.0449 29.2438 82.0577 40.007 85.077C38.7055 86.6648 37.0982 88.7538 37.0006 89.2483C36.851 90.0682 51.2061 89.0466 55.7744 83.1509C63.0821 76.4028 63.5507 60.2319 48.3755 54.6356Z" fill="white"/>
<path d="M40.9617 78.4724C40.9617 78.4724 33.5238 62.3862 38.6191 60.408C43.7143 58.4297 44.3586 68.6462 44.3586 68.6462C44.3586 68.6462 47.8986 61.5858 50.6707 62.3016C56.6574 63.8634 48.0222 75.0625 40.9617 78.4724Z" fill="#CA4D4F"/>
<path d="M191.426 59.2757C191.426 59.2757 193.645 53.6793 191.654 46.1763C189.825 39.2525 188.133 25.8669 201.968 23.2378C215.802 20.6089 218.764 33.4479 217.052 40.8077C215.542 47.2825 206.542 57.4405 205.865 62.6465L191.426 59.2757Z" fill="#FAC421"/>
<path d="M190.892 55.2409C190.892 55.2409 207.994 58.5792 208.001 59.2169C208.007 59.8547 206.536 69.3424 205.521 69.8564C204.505 70.3706 188.888 66.4336 188.419 65.913C187.952 65.3924 189.474 54.9611 190.892 55.2409Z" fill="#3D4C65"/>
<path d="M194.029 62.3669C194.029 62.3669 201.903 63.6683 201.838 64.1824C201.773 64.6965 200.329 72.4532 199.802 72.9413C199.274 73.4293 192.155 71.5357 191.992 71.1257C191.83 70.7158 193.379 62.2562 194.029 62.3669Z" fill="#3D4C65"/>
<path d="M202.728 59.2885C202.324 57.8829 204.31 54.1997 206.6 49.9374C208.891 45.6751 211.852 40.1764 211.11 38.6146C210.764 37.8727 210.4 37.9639 210.283 37.9639C209.714 38.1741 209.24 38.5832 208.949 39.1157C209.698 40.4171 209.782 41.8162 209.379 42.5386C209.251 42.7933 209.026 42.987 208.756 43.0771C208.485 43.1674 208.19 43.1469 207.934 43.0201C207.647 42.903 207.186 42.5516 207.283 41.4973C207.417 40.6555 207.715 39.8483 208.162 39.1222C207.857 38.6662 207.479 38.2638 207.042 37.9313C206.837 37.7535 206.584 37.6395 206.315 37.6037C206.045 37.5678 205.772 37.6116 205.526 37.7297C205.251 37.8766 205.006 38.0781 204.811 38.3218C205.709 40.8271 206.112 42.48 205.462 43.0136C205.175 43.2608 204.752 43.2349 204.205 42.9355C203.857 42.7101 203.58 42.3905 203.406 42.0139C203.232 41.6371 203.168 41.2189 203.223 40.8076C203.263 39.8781 203.557 38.9774 204.075 38.2046C203.997 37.9964 203.912 37.7752 203.828 37.5539C203.789 37.4283 203.712 37.3176 203.61 37.2363C203.506 37.155 203.38 37.1069 203.248 37.0984C202.393 37.2155 201.608 37.6357 201.036 38.2827C201.185 38.8058 201.264 39.3463 201.271 39.8901C201.271 40.8531 201.063 41.9659 200.412 42.2001C200.171 42.2847 199.793 42.2783 199.377 41.7577C198.96 41.237 198.902 40.3195 199.377 39.376C199.622 38.9037 199.927 38.4661 200.287 38.0745C200.182 37.727 199.999 37.4076 199.754 37.1397C199.508 36.8717 199.206 36.662 198.869 36.5258C198.826 36.5121 198.78 36.5098 198.736 36.5189C198.692 36.528 198.65 36.5483 198.616 36.5778C197.314 37.4758 196.293 44.9138 195.869 56.4643C195.869 56.6661 195.869 56.8027 195.869 56.8482H195.219V56.4708C195.532 47.9071 196.306 37.4172 198.244 36.0703C198.368 35.9846 198.512 35.9314 198.663 35.9155C198.813 35.8996 198.964 35.9215 199.104 35.9791C199.491 36.1217 199.843 36.3443 200.138 36.6325C200.433 36.9207 200.664 37.268 200.815 37.6515C201.474 36.9692 202.361 36.5544 203.307 36.4867C203.559 36.5047 203.8 36.5955 204.001 36.748C204.202 36.9005 204.354 37.1081 204.439 37.3457L204.557 37.6581C204.747 37.4645 204.966 37.3021 205.207 37.1765C205.557 37.0008 205.951 36.9319 206.34 36.9782C206.728 37.0245 207.095 37.1839 207.394 37.4367C207.82 37.7473 208.199 38.1178 208.52 38.5365C208.892 37.9466 209.465 37.5118 210.134 37.3131C210.576 37.2416 211.194 37.3587 211.657 38.3348C212.528 40.2154 209.906 45.0894 207.101 50.2498C205.064 54.037 202.949 57.961 203.281 59.1063L202.728 59.2885ZM204.375 39.0311C204.079 39.5947 203.915 40.2173 203.893 40.8531C203.857 41.1447 203.898 41.4408 204.012 41.7115C204.125 41.9823 204.309 42.2182 204.544 42.3954C204.888 42.5841 205.032 42.5711 205.058 42.545C205.253 42.3824 205.26 41.608 204.375 39.0311ZM208.559 39.7599C208.254 40.3211 208.05 40.9311 207.954 41.5625C207.954 41.7771 207.902 42.2978 208.175 42.4084C208.229 42.4441 208.291 42.4675 208.354 42.4769C208.419 42.4864 208.483 42.4817 208.546 42.463C208.608 42.4444 208.665 42.4123 208.713 42.3691C208.762 42.3261 208.8 42.2727 208.826 42.2131C208.961 41.8092 209.007 41.3808 208.961 40.9572C208.915 40.5338 208.778 40.1252 208.559 39.7599ZM200.536 38.8749C200.331 39.1285 200.149 39.4008 199.995 39.6883C199.823 39.9326 199.724 40.2205 199.709 40.5188C199.695 40.817 199.764 41.1135 199.911 41.3738C200.067 41.5689 200.184 41.6145 200.217 41.6015C200.366 41.5495 200.659 40.9508 200.645 39.9161C200.64 39.5664 200.603 39.218 200.536 38.8749Z" fill="#3D4C65"/>
<path d="M226.146 22.1633L220.815 25.6636L221.172 26.2075L226.504 22.7072L226.146 22.1633Z" fill="#3D4C65"/>
<path d="M230.116 31.8119L223.759 32.3222L223.811 32.9709L230.168 32.4605L230.116 31.8119Z" fill="#3D4C65"/>
<path d="M223.471 38.9848L223.253 39.5978L229.26 41.7371L229.479 41.1241L223.471 38.9848Z" fill="#3D4C65"/>
<path d="M222.854 46.9445L222.646 47.5611L228.689 49.6004L228.896 48.9839L222.854 46.9445Z" fill="#3D4C65"/>
<path d="M219.606 52.3735L219.204 52.8851L224.217 56.8263L224.62 56.3147L219.606 52.3735Z" fill="#3D4C65"/>
<path d="M215.143 58.0183L214.549 58.2828L217.141 64.1096L217.734 63.8451L215.143 58.0183Z" fill="#3D4C65"/>
<path d="M219.229 15.7636L216.034 21.2826L216.597 21.6086L219.792 16.0897L219.229 15.7636Z" fill="#3D4C65"/>
<path d="M193.779 14.2009L193.204 14.5047L196.182 20.1443L196.757 19.8405L193.779 14.2009Z" fill="#3D4C65"/>
<path d="M185.652 20.688L185.293 21.231L190.615 24.7452L190.973 24.2021L185.652 20.688Z" fill="#3D4C65"/>
<path d="M181.713 28.4379L181.608 29.0821L187.922 30.1024L188.027 29.4582L181.713 28.4379Z" fill="#3D4C65"/>
<path d="M178.446 36.3438L178.33 36.9843L184.607 38.1135L184.722 37.4731L178.446 36.3438Z" fill="#3D4C65"/>
<path d="M184.948 43.7989L178.655 44.8327L178.76 45.4749L185.053 44.441L184.948 43.7989Z" fill="#3D4C65"/>
<path d="M186.114 50.9172L181.033 54.7711L181.426 55.2896L186.507 51.4356L186.114 50.9172Z" fill="#3D4C65"/>
<path d="M202.935 11.9077L202.285 11.9216L202.421 18.2974L203.071 18.2835L202.935 11.9077Z" fill="#3D4C65"/>
<path d="M209.976 11.9443L209.215 18.0204L209.861 18.1012L210.621 12.0251L209.976 11.9443Z" fill="#3D4C65"/>
<path d="M138.002 110.821C144.615 110.821 149.975 105.46 149.975 98.8471C149.975 92.2343 144.615 86.8736 138.002 86.8736C131.389 86.8736 126.028 92.2343 126.028 98.8471C126.028 105.46 131.389 110.821 138.002 110.821Z" fill="white"/>
<path d="M138.032 100.988L131.935 94.2721L132.416 93.8361L137.96 99.94L142.931 92.7234L143.472 93.0943L138.032 100.988Z" fill="#3D4C65"/>
<path d="M138 114.875C134.761 114.876 131.595 113.917 128.902 112.118C126.209 110.32 124.109 107.763 122.869 104.772C121.629 101.78 121.304 98.4882 121.935 95.3118C122.566 92.1354 124.124 89.2175 126.414 86.9271C128.704 84.6367 131.621 83.0767 134.797 82.4445C137.974 81.8122 141.266 82.1361 144.258 83.3751C147.25 84.614 149.808 86.7126 151.607 89.4052C153.406 92.0977 154.367 95.2635 154.367 98.5019C154.361 102.841 152.635 107.002 149.568 110.071C146.5 113.14 142.34 114.868 138 114.875ZM138 82.7801C134.891 82.7789 131.85 83.6998 129.264 85.4265C126.677 87.1533 124.661 89.6083 123.47 92.4809C122.279 95.3536 121.968 98.515 122.573 101.565C123.179 104.615 124.676 107.417 126.874 109.616C129.073 111.816 131.874 113.314 134.924 113.921C137.974 114.528 141.136 114.217 144.009 113.028C146.881 111.838 149.338 109.823 151.065 107.237C152.793 104.651 153.715 101.612 153.715 98.5019C153.71 94.3349 152.053 90.3401 149.107 87.3929C146.161 84.4458 142.168 82.7871 138 82.7801Z" fill="#3D4C65"/>
<path d="M229.266 98.4501C229.266 98.4501 222.199 83.1383 225.765 80.9388C229.331 78.7394 231.374 88.7477 231.374 88.7477C231.374 88.7477 235.246 79.3966 238.663 84.0168C240.98 87.1468 229.266 98.4501 229.266 98.4501Z" fill="white"/>
<path d="M101.806 260.197C101.806 260.197 87.0085 252.109 88.5638 248.217C90.1189 244.325 97.674 251.132 97.674 251.132C97.674 251.132 95.2208 241.313 100.719 242.992C104.481 244.13 101.806 260.197 101.806 260.197Z" fill="white"/>
<path d="M75.1783 98.4564L74.6576 94.8578L77.5534 96.836L80.2084 94.8578L79.3364 98.3133L81.9394 100.096L78.7638 100.669L77.2215 104.066L76.0437 100.669H72.751L75.1783 98.4564Z" fill="#F39C12"/>
<path d="M91.0689 215.83L90.5483 212.231L93.4441 214.209L96.099 212.231L95.2335 215.68L97.8365 217.47L94.6609 218.042L93.1122 221.439L91.9408 218.042H88.6416L91.0689 215.83Z" fill="#F39C12"/>
<path d="M325.366 183.716L328.64 182.135L327.625 185.492L330.319 187.426L326.759 187.64L325.841 190.659L324.339 187.803L320.629 187.36L323.518 185.213L322.523 182.07L325.366 183.716Z" fill="#F39C12"/>
<path d="M166.788 41.9463L170.061 40.3586L169.047 43.7229L171.74 45.6556L168.181 45.8702L167.263 48.8897L165.761 46.0329L162.051 45.5904L164.94 43.4431L163.944 40.3L166.788 41.9463Z" fill="#F39C12"/>
<path d="M373.723 122.625L373.255 122.175C373.71 121.707 374.152 121.218 374.555 120.724L375.051 121.148C374.634 121.648 374.185 122.143 373.723 122.625ZM377.061 118.537L376.521 118.167C377.128 117.282 377.686 116.366 378.193 115.42L378.767 115.727C378.247 116.692 377.677 117.631 377.061 118.537ZM380.139 112.766L379.534 112.525C379.931 111.528 380.269 110.509 380.549 109.473L381.199 109.649C380.905 110.707 380.551 111.748 380.139 112.766ZM381.864 106.428L381.213 106.33C381.377 105.27 381.48 104.201 381.526 103.128L382.176 103.161C382.134 104.247 382.036 105.331 381.884 106.408L381.864 106.428ZM381.499 99.9203C381.434 98.866 381.31 97.7924 381.141 96.7186L381.792 96.6145C381.961 97.7077 382.085 98.8074 382.15 99.8682L381.499 99.9203ZM380.491 93.5625C380.236 92.5409 379.931 91.4996 379.58 90.465L380.23 90.2568C380.582 91.311 380.881 92.3652 381.154 93.4063L380.491 93.5625ZM378.44 87.4456C378.037 86.4761 377.588 85.4934 377.1 84.5043L377.686 84.218C378.174 85.2136 378.629 86.2157 379.039 87.1918L378.44 87.4456ZM375.584 81.6215C375.07 80.7105 374.51 79.7734 373.918 78.8428L374.471 78.498C375.063 79.435 375.629 80.3786 376.15 81.3026L375.584 81.6215ZM372.129 76.1488C371.524 75.2898 370.886 74.4049 370.216 73.5459L370.736 73.1489C371.387 74.0339 372.037 74.9189 372.689 75.7909L372.129 76.1488ZM368.224 70.9885L368.074 70.8128C367.424 70.0318 366.773 69.2771 366.09 68.5613L366.565 68.1123C367.248 68.8411 367.932 69.6089 368.576 70.3963L368.726 70.5785L368.224 70.9885ZM325.653 70.6436C325.534 70.6533 325.414 70.6533 325.295 70.6436L325.399 69.9929C326.382 70.1555 327.248 69.3096 327.761 68.6003L328.289 68.9843C327.495 70.0645 326.584 70.6436 325.66 70.6436H325.653ZM322.66 68.392C322.414 67.9082 322.287 67.3729 322.289 66.8303C322.299 66.1864 322.452 65.5529 322.738 64.9756L323.33 65.2555C323.084 65.7448 322.95 66.2828 322.939 66.8303C322.934 67.2825 323.039 67.7292 323.246 68.1317L322.66 68.392ZM363.78 66.3162C362.973 65.5939 362.134 64.9041 361.288 64.2729L361.677 63.7523C362.537 64.403 363.389 65.0928 364.216 65.8282L363.78 66.3162ZM329.772 65.9778L329.16 65.763C329.509 64.7526 329.781 63.7171 329.974 62.6656L330.625 62.7827C330.425 63.8678 330.142 64.9361 329.779 65.9778H329.772ZM325.269 62.8413L324.839 62.3532C325.675 61.6245 326.584 60.9854 327.553 60.4465L327.872 61.0127C326.945 61.5297 326.074 62.1426 325.275 62.8413H325.269ZM358.619 62.4638C357.702 61.9042 356.751 61.3836 355.795 60.9151L356.081 60.3294C357.058 60.8045 358.033 61.3381 358.957 61.9107L358.619 62.4638ZM352.834 59.6527C351.825 59.2817 350.797 58.9564 349.763 58.6896L349.926 58.0388C350.98 58.3122 352.034 58.6441 353.062 59.0215L352.834 59.6527ZM330.768 59.6527L330.715 59.5095H330.39C330.456 58.6766 330.488 57.8176 330.488 56.9521C330.488 56.7308 330.488 56.5096 330.488 56.3014H331.139C331.139 56.5291 331.139 56.7504 331.139 56.9521C331.139 57.6028 331.139 58.2536 331.087 58.8587C331.919 58.5529 332.779 58.2861 333.69 58.0518L333.852 58.7026C332.81 58.9586 331.782 59.2714 330.774 59.6396L330.768 59.6527ZM346.607 58.0518C345.552 57.8892 344.472 57.7785 343.405 57.72L343.437 57.0692C344.528 57.1266 345.613 57.2396 346.692 57.4076L346.607 58.0518ZM336.982 58.0193L336.885 57.3686C337.958 57.2124 339.058 57.1018 340.138 57.0497V57.7005C339.143 57.746 338.043 57.8501 336.989 58.0063L336.982 58.0193ZM330.273 53.0476C330.149 51.9805 329.98 50.9067 329.766 49.8656L330.417 49.7354C330.637 50.7962 330.807 51.8894 330.931 52.9891L330.273 53.0476ZM328.972 46.7486C328.654 45.7245 328.28 44.7186 327.853 43.7356L328.451 43.4753C328.887 44.4829 329.268 45.5125 329.596 46.5598L328.972 46.7486ZM326.408 40.892L326.285 40.6706C325.764 39.7922 325.23 38.9462 324.69 38.1524L325.23 37.788C325.777 38.5948 326.316 39.4538 326.844 40.3453L326.974 40.5665L326.408 40.892ZM322.783 35.5494C322.087 34.6839 321.371 33.8705 320.656 33.1417L321.117 32.6861C321.885 33.4676 322.61 34.2887 323.291 35.1459L322.783 35.5494ZM318.228 30.9942C317.388 30.3402 316.491 29.763 315.547 29.2698L315.847 28.6906C316.824 29.2032 317.754 29.8021 318.625 30.4802L318.228 30.9942ZM312.586 28.1505C311.902 27.985 311.201 27.8977 310.497 27.8902C310.166 27.8849 309.834 27.9132 309.508 27.9748L309.358 27.3241C309.733 27.2457 310.115 27.2107 310.497 27.22C311.252 27.2271 312.003 27.321 312.736 27.4997L312.586 28.1505Z" fill="#3D4C65"/>
<path d="M72.3992 236.634C75.6805 236.634 78.3405 233.973 78.3405 230.692C78.3405 227.411 75.6805 224.751 72.3992 224.751C69.118 224.751 66.458 227.411 66.458 230.692C66.458 233.973 69.118 236.634 72.3992 236.634Z" fill="white"/>
<path d="M72.5215 233.933L68.5391 230.113L69.8926 228.708L72.2742 230.986L78.248 222.89L79.8163 224.048L72.5215 233.933Z" fill="#87BECA"/>
<path d="M216.467 150.053C216.467 150.053 247.051 139.043 255.068 116.463C263.085 93.882 248.958 65.614 262.591 50.647C268.929 43.6907 259.338 60.4992 262.167 59.2432C264.211 58.3387 264.589 57.7466 266.723 57.8116C270.667 57.9353 274.304 62.3017 271.057 65.7832C268.233 68.8091 269.502 75.3425 270.901 85.3053C272.566 97.1422 285.302 146.475 244.221 165.756C244.194 165.762 216.492 158.318 216.467 150.053Z" fill="#F7A491"/>
<path d="M264.646 62.4448L264.126 62.0543C264.23 61.9177 266.696 58.6575 268.765 58.0198L268.954 58.6705C267.086 59.2172 264.672 62.4123 264.646 62.4448Z" fill="#3E2D4A"/>
<path d="M266.911 65.3146L266.37 64.9566C266.475 64.8004 268.901 61.2279 271.296 60.0045L271.589 60.5837C269.331 61.7289 266.911 65.2625 266.911 65.3146Z" fill="#3E2D4A"/>
<path opacity="0.38" d="M213.023 150.932C213.023 150.932 228.427 147.45 244.077 132.607C244.077 132.607 258.114 136.512 270.796 136.043C270.796 136.043 267.634 149.384 250.923 162.287C250.923 162.287 220.442 157.608 213.023 150.932Z" fill="#C05C5D"/>
<path d="M310.368 112.799C310.368 112.799 313.57 101.847 317.298 97.4544C321.027 93.0619 314.35 112.421 319.25 110.027C321.203 109.077 335.135 98.3134 336.768 99.8426C338.401 101.372 327.248 109.103 327.658 111.79C328.067 114.478 331.399 117.914 330.293 119.781C329.187 121.649 325.627 128.891 319.712 128.677C313.797 128.461 312.288 170.636 287.826 182.389C267.413 192.208 219.46 180.196 219.46 180.196L222.935 152.5C222.935 152.5 267.146 167.005 280.324 159.007C295.303 149.981 310.368 112.799 310.368 112.799Z" fill="#F7A491"/>
<path d="M323.446 117.595L323.082 117.054C323.127 117.054 326.987 114.393 327.357 111.751L328.008 111.836C327.617 114.77 323.615 117.484 323.446 117.595Z" fill="#3D4C65"/>
<path d="M326.681 120.457L326.231 119.983C326.231 119.983 328.262 118.07 329.706 116.352L330.202 116.774C328.731 118.519 326.7 120.438 326.681 120.457Z" fill="#3D4C65"/>
<path opacity="0.38" d="M307.401 159.62C307.401 159.62 299.521 159.62 285.719 154.7C285.719 154.7 279.022 165.795 254.262 159.62C254.262 159.62 244.585 173.284 241.781 176.336C238.976 179.389 289.428 203.987 307.401 159.62Z" fill="#C05C5D"/>
<path d="M110.085 76.722C111.082 76.1886 111.947 75.4371 112.614 74.5233C113.281 73.6097 113.733 72.5573 113.938 71.4445C114.893 65.7636 109.453 70.3773 107.287 70.3773C105.12 70.3773 103.643 58.7551 101.469 59.2172C99.2958 59.6792 97.0507 62.204 95.3198 64.2994C93.5888 66.3948 87.96 68.1258 87.96 70.2927C87.96 72.4596 89.6974 79.403 94.9032 82.2207C100.109 85.0384 89.2614 119.821 104.307 142.388C116.866 161.26 151.993 175.614 151.993 175.614L166.009 152.026C166.009 152.026 128.611 138.796 121.343 125.228C113.098 109.838 110.085 76.722 110.085 76.722Z" fill="#F7A491"/>
<path d="M300.679 169.94C300.679 169.94 335.474 208.555 305.384 225.213C280.48 239.003 248.458 197.232 245.262 194.343C242.067 191.453 257.593 172.986 260.32 172.94C263.047 172.894 286.063 209.973 295.083 203.59C308.143 194.343 296.521 185.317 296.521 185.317C296.521 185.317 298.596 170.5 300.679 169.94Z" fill="#F7A491"/>
<path d="M178.124 112.115C178.124 112.115 185.458 139.505 177.844 148.139C170.231 156.775 145.717 153.762 150.285 186.364C154.854 218.966 155.706 246.694 155.706 246.694H230.762C230.762 246.694 242.58 175.113 229.891 159.066C217.201 143.018 200.972 156.118 201.987 143.493C203.002 130.87 198.942 108.529 198.942 108.529L178.124 112.115Z" fill="#F7A491"/>
<path d="M202.117 141.119C202.117 141.119 199.235 154.667 181.014 139.446C181.014 139.446 180.578 127.576 180.578 126.712C180.578 125.846 202.475 128.338 202.592 128.878C202.709 129.418 202.703 140.149 202.117 141.119Z" fill="#EC9986"/>
<path d="M173.654 150.802C173.654 150.802 182.544 174.671 199.762 169.94C211.69 166.686 206.146 149.077 209.035 149.383C211.924 149.689 221.399 148.31 230.763 157.27C240.127 166.231 240.843 246.694 237.921 246.694C234.999 246.694 155.154 246.967 152.675 246.694C150.195 246.421 145.724 169.634 149.2 162.69C152.675 155.747 147.827 154.758 173.654 150.802Z" fill="#CA4D4F"/>
<path d="M215.165 107.371C215.165 107.371 214.775 101.866 211.457 101.691C208.138 101.515 206.77 111.348 211.202 112.903C215.634 114.458 215.25 108.042 215.165 107.371Z" fill="#E2897D"/>
<path d="M176.016 92.0143C176.016 92.0143 198.941 80.3011 206.132 90.7129C213.323 101.125 214.149 140.39 195.824 138.868C177.499 137.345 163.092 96.8037 176.016 92.0143Z" fill="#F7A491"/>
<path d="M175.013 102.601C175.013 102.601 173.627 92.9184 186.636 89.7299C202.032 85.9491 206.314 95.4173 208.689 105.842C210.277 112.817 213.596 99.5104 206.346 88.7993C197.932 76.3246 179.894 77.971 173.087 83.9903C164.627 91.4673 163.522 108.321 171.063 114.269C178.606 120.216 173.92 106.453 175.013 102.601Z" fill="#3D4C65"/>
<path d="M168.852 87.524C172.971 87.524 176.309 84.1852 176.309 80.0666C176.309 75.9479 172.971 72.6091 168.852 72.6091C164.734 72.6091 161.395 75.9479 161.395 80.0666C161.395 84.1852 164.734 87.524 168.852 87.524Z" fill="#3D4C65"/>
<path d="M175.599 116.95C175.599 116.95 173.816 111.745 170.562 112.395C167.309 113.046 168.5 122.924 173.166 123.302C177.831 123.679 175.847 117.582 175.599 116.95Z" fill="#E2897D"/>
<path d="M182.218 91.2916C182.218 91.2916 175.958 94.0442 176.869 100.076C177.344 103.226 183.754 109.064 175.445 113.299C175.445 113.293 166.087 96.4063 182.218 91.2916Z" fill="#3D4C65"/>
<path d="M192.356 88.8906C192.356 88.8906 200.771 88.4612 202.866 93.5629C204.2 96.8166 205.248 104.052 208.117 103.519C211.865 102.823 211.032 84.1663 192.356 88.8906Z" fill="#3D4C65"/>
<path opacity="0.38" d="M114.306 152.975C114.306 152.975 123.358 148.271 135.026 137.527C135.026 137.527 156.577 150.294 169.56 152.754C169.56 152.754 150.793 170.194 149.388 171.958C147.982 173.721 130.588 167.539 114.306 152.975Z" fill="#C05C5D"/>
<path opacity="0.38" d="M291.685 204.234C291.685 204.234 281.787 220.925 279.756 224.126C279.756 224.126 265.948 215.322 257.358 205.548L274.069 188.681C274.069 188.681 282.717 200.004 291.685 204.234Z" fill="#C05C5D"/>
<path d="M139.777 163.068C139.777 163.068 107.019 184.334 100.186 166.322C80.3973 114.165 67.5778 107.144 47.3334 107.827C36.1212 108.204 37.7155 109.266 42.5309 110.209C46.4353 110.964 52.7606 111.51 53.3592 112.747C54.6997 115.558 50.8343 112.259 48.7 116.222C46.5655 120.185 48.6609 128.774 51.7129 129.236C54.7648 129.699 59.2809 124.895 67.9422 135.243C75.6144 144.411 72.7706 235.046 147.332 194.277C147.313 194.257 146.148 168.307 139.777 163.068Z" fill="#F7A491"/>
<path d="M48.0494 119.924L47.7891 119.332C49.7828 118.487 51.9119 118.007 54.0752 117.914V118.564C52.0031 118.666 49.9642 119.126 48.0494 119.924Z" fill="#3E2D4A"/>
<path opacity="0.38" d="M87.96 191.98C87.96 191.98 93.6083 189.95 105.224 172.295C105.224 172.295 115.72 178.198 139.804 163.068C139.804 163.068 140.936 197.648 138.125 198.806C135.314 199.965 107.723 215.836 87.96 191.98Z" fill="#C05C5D"/>
<path d="M48.7193 125.586L48.2637 125.13C49.9704 123.528 52.1764 122.563 54.5107 122.397V123.047C52.3511 123.224 50.3122 124.117 48.7193 125.586Z" fill="#3E2D4A"/>
<path d="M177.845 246.278C177.845 246.278 168.123 166.237 169.561 151.446C169.561 151.446 155.83 150.294 149.745 176.935C146.375 191.687 149.745 243.2 152.673 246.694C155.603 250.189 177.845 246.278 177.845 246.278Z" fill="#3D4C65"/>
<path d="M218.588 244.827C218.588 244.827 217.905 164.825 216.467 150.053C216.467 150.053 232.917 172.074 237.908 186.364C242.9 200.654 238.435 243.2 235.52 246.694C232.605 250.189 218.588 244.827 218.588 244.827Z" fill="#3D4C65"/>
<path d="M257.359 207.298C257.359 207.298 282.217 189.345 277.668 182.765C259.878 157.062 227.887 151.563 216.499 150.053C216.499 150.053 231.29 177.879 231.122 180.911C230.952 183.944 252.224 209.563 257.359 207.298Z" fill="#3D4C65"/>
<path d="M257.619 167.233C257.619 167.233 279.744 165.704 280.336 166.087C280.929 166.472 283.2 191.095 282.627 191.467C282.055 191.837 260.255 192.807 260.255 192.807C260.255 192.807 256.318 167.324 257.619 167.233Z" fill="#D8D8D8"/>
<path d="M260.475 169.068L279.756 167.923C279.756 167.923 275.572 171.931 271.173 172.12C266.774 172.309 259.101 169.146 260.475 169.068Z" fill="#3D4C65"/>
<path d="M279.757 170.031C279.757 170.031 288.216 169.471 289.427 172.139C290.637 174.807 292.361 185.531 291.378 186.371C290.396 187.21 282.633 188.714 282.633 188.714L281.267 186.371C281.267 186.371 289.004 184.347 288.666 183.768C288.327 183.189 286.798 173.46 286.798 173.46L279.757 174.586V170.031Z" fill="#D8D8D8"/>
<path d="M305.383 183.397C305.383 183.397 304.082 172.426 300.678 169.94C297.275 167.454 288.913 167.246 285.893 165.196C282.874 163.146 286.251 171.013 292.792 172.132C297.73 172.979 285.971 172.132 285.321 175.497C284.67 178.862 284.553 186.761 289.29 185.095C296.149 182.687 302.051 190.288 305.383 183.397Z" fill="#F7A491"/>
<path d="M285.055 178.49L284.664 177.97C286.616 176.506 292.225 175.426 292.473 175.367L292.596 176.017C292.525 175.998 286.89 177.085 285.055 178.49Z" fill="#3D4C65"/>
<path d="M285.13 183.046L284.772 182.512C288.547 179.955 293.714 179.844 293.928 179.844V180.495C293.87 180.482 288.729 180.593 285.13 183.046Z" fill="#3D4C65"/>
<path d="M251.899 130.256C251.899 130.256 244.057 146.24 257.961 147.608C271.864 148.975 281.21 149.478 278.818 155.567C276.426 161.656 266.792 166.208 271.399 171.282C271.399 171.282 265.325 169.884 270.562 161.676C275.798 153.468 266.372 162.423 253.596 149.737C240.819 137.051 248.113 136.37 251.899 130.256Z" fill="white"/>
<path d="M285.027 255.961C285.027 255.961 204.83 259.312 202.748 258.753C200.666 258.193 181.397 237.5 182.966 237.5H204.31C204.31 237.5 207.954 200.017 210.036 199.457C212.118 198.897 291.274 198.339 292.836 199.457C294.398 200.576 285.027 255.961 285.027 255.961Z" fill="white"/>
<path d="M202.846 253.358C202.846 253.358 190.333 239.731 191.894 239.731H203.353L202.846 253.358Z" fill="#3D4C65"/>
<path d="M121.985 188.681C121.985 188.681 107.481 203.251 107.825 227.653C108.17 252.056 131.252 259.214 146.869 255.961C162.487 252.707 177.454 236.621 182.009 240.161C186.565 243.701 188.094 243.714 189.721 243.922C190.56 244.033 194.751 242.516 194.153 241.43C187.462 229.391 196.865 241.052 200.881 246.525C202.345 248.529 201.33 227.328 184.287 227.978C172.997 228.414 151.978 241.969 139.614 234.161C127.25 226.352 138.462 212.036 138.462 212.036L121.985 188.681Z" fill="#F7A491"/>
<path d="M192.078 243.233C191.483 241.158 190.406 239.253 188.935 237.675L189.397 237.213C190.955 238.87 192.089 240.879 192.703 243.07L192.078 243.233Z" fill="#3D4C65"/>
<path d="M190.398 243.941L189.747 243.876C189.832 243.004 187.6 240.584 186.181 239.262L186.624 238.788C187.281 239.393 190.541 242.49 190.398 243.941Z" fill="#3D4C65"/>
<path opacity="0.38" d="M114.854 246.817C114.854 246.817 128.148 234.896 136.4 231.441C136.4 231.441 132.495 227.862 134.831 218.81L112.823 203.043C112.823 203.043 100.674 230.185 114.854 246.817Z" fill="#C05C5D"/>
<path d="M138.572 221.256C138.572 221.256 109.431 208.626 107.818 202.567C105.547 194.108 140.212 151.654 169.559 151.439C169.559 151.439 162.571 176.733 165.981 187.444C167.282 191.545 154.333 202.73 138.572 221.256Z" fill="#3D4C65"/>
<path d="M247.356 233.413C250.35 233.413 252.777 230.986 252.777 227.992C252.777 224.999 250.35 222.571 247.356 222.571C244.362 222.571 241.936 224.999 241.936 227.992C241.936 230.986 244.362 233.413 247.356 233.413Z" fill="#798B97"/>
<path d="M98.8652 66.9931C98.3251 66.453 98.2146 65.7242 98.0714 64.6244C97.9494 63.6142 97.7559 62.6139 97.4922 61.6311L98.143 61.4619C98.4142 62.4726 98.6142 63.5011 98.7416 64.5398C98.8848 65.542 98.9629 66.1472 99.3533 66.5311L98.8652 66.9931Z" fill="#3D4C65"/>
<path d="M95.3248 69.7136C94.5042 68.4136 93.9614 66.958 93.7305 65.4382L94.3812 65.3536C94.6008 66.77 95.1055 68.127 95.8649 69.3426L95.3248 69.7136Z" fill="#3D4C65"/>
<path d="M91.817 71.7697C90.9961 70.4724 90.4532 69.0189 90.2227 67.5009L90.8734 67.4099C91.0925 68.8284 91.5973 70.1876 92.3571 71.4053L91.817 71.7697Z" fill="#3D4C65"/>
<path d="M149.39 206.472C147.365 188.545 149.63 166.25 149.649 166.029L150.301 166.093C150.301 166.315 148.023 188.537 150.034 206.4L149.39 206.472Z" fill="#334054"/>
<path d="M237.582 186.384C236.898 174.02 234.269 159.274 234.243 159.124L234.893 159.007C234.893 159.157 237.562 173.935 238.245 186.338L237.582 186.384Z" fill="#334054"/>
<path d="M175.88 83.3921L175.294 83.1059C177.006 79.5919 177.247 76.9369 176.094 75.2189C174.325 72.616 169.815 72.9869 169.769 72.9869L169.718 72.3361C169.913 72.3361 174.65 71.9522 176.629 74.8415C177.956 76.7742 177.702 79.6505 175.88 83.3921Z" fill="#3D4C65"/>
<path d="M166.613 88.1684C165.99 88.1728 165.369 88.0851 164.771 87.9082C164.12 87.7072 163.518 87.3716 163.005 86.9232C162.491 86.4749 162.078 85.9236 161.792 85.3052C159.11 80.0018 162.058 76.2405 162.09 76.1949L162.592 76.5984C162.481 76.7416 159.885 80.0864 162.37 84.9994C162.623 85.536 162.985 86.014 163.434 86.4027C163.882 86.7915 164.406 87.0826 164.973 87.2574C167.888 88.162 171.656 86.1187 171.695 86.0991L172.008 86.6652C170.343 87.5617 168.5 88.0752 166.613 88.1684Z" fill="#3D4C65"/>
<path d="M168.35 111.725C158.12 97.0441 171.486 85.1031 171.603 84.986L172.033 85.4741C171.902 85.5912 158.966 97.1873 168.863 111.348L168.35 111.725Z" fill="#3D4C65"/>
</g>
<defs>
<clipPath id="clip0">
<rect width="382.564" height="280" fill="white" transform="translate(0.217773)"/>
</clipPath>
</defs>
</svg>
