<svg width="30" height="29" viewBox="0 0 30 29" fill="none" xmlns="http://www.w3.org/2000/svg">
<path d="M14.9809 0C7.00965 0 0.547852 6.4406 0.547852 14.3857C0.547852 22.3308 7.00965 28.7714 14.9809 28.7714C22.9522 28.7714 29.414 22.3308 29.414 14.3857C29.414 6.4406 22.9522 0 14.9809 0ZM11.4478 20.3483H8.52513V10.9736H11.4478V20.3483ZM9.96843 9.82274C9.04532 9.82274 8.44845 9.17089 8.44845 8.36469C8.44845 7.54201 9.06336 6.90964 10.006 6.90964C10.9487 6.90964 11.526 7.54201 11.544 8.36469C11.544 9.17089 10.9487 9.82274 9.96843 9.82274ZM22.1223 20.3483H19.1996V15.1529C19.1996 13.9436 18.7756 13.1225 17.7187 13.1225C16.9113 13.1225 16.4317 13.6784 16.2198 14.2134C16.1416 14.4037 16.122 14.6734 16.122 14.9417V20.3468H13.1978V13.9631C13.1978 12.7928 13.1602 11.8143 13.1212 10.9721H15.6605L15.7943 12.2743H15.8529C16.2378 11.6629 17.1805 10.7608 18.7576 10.7608C20.6805 10.7608 22.1223 12.045 22.1223 14.8053V20.3483Z" fill="#0E76A8"/>
</svg>
