<svg width="426" height="342" viewBox="0 0 426 342" fill="none" xmlns="http://www.w3.org/2000/svg">
<path d="M160.435 83.2249C179.408 64.252 183.848 37.9312 170.353 24.4358C156.857 10.9403 130.536 15.3807 111.563 34.3536C92.5905 53.3265 88.1502 79.6473 101.646 93.1427C115.141 106.638 141.462 102.198 160.435 83.2249Z" fill="#EBF3FA"/>
<path d="M393.557 145.55C389.28 132.866 384.464 120.88 379.15 109.812C335.93 19.9416 258.959 -11.3083 164.427 103.797C155.293 114.955 146.679 120.882 138.458 123.235C136.008 123.933 133.622 124.325 131.255 124.455C128.805 124.586 126.419 124.412 124.051 124.018C82.1824 116.914 50.4623 35.1067 13.3468 136.265C-12.808 207.526 7.59725 332.263 7.2845 341.72L131.253 340.804V339.454H318.514L402.316 338.843C402.502 336.185 415.934 339.323 416.1 336.62C420.232 268.195 411.928 200.161 393.557 145.55Z" fill="#EBF3FA"/>
<path d="M425.258 341.415H0.126339C0.0579899 341.415 0 341.359 0 341.289V337.832C0 337.764 0.0559187 337.706 0.126339 337.706H425.26C425.328 337.706 425.386 337.761 425.386 337.832V341.289C425.384 341.357 425.328 341.415 425.258 341.415Z" fill="#2E3552"/>
<path d="M18.3883 240.124H12.1106L19.7967 337.397H35.0634L18.3883 240.124Z" fill="#6049B4"/>
<path d="M143.198 211.74L141.852 212.011C135.854 213.223 129.953 209.306 128.742 203.308L127.319 196.266C126.107 190.266 130.024 184.367 136.022 183.153L137.368 182.882C143.368 181.67 149.267 185.587 150.481 191.585L151.904 198.627C153.113 204.627 149.196 210.528 143.198 211.74Z" fill="#122544"/>
<path d="M12.1106 240.124C12.1106 240.124 46.3844 224.035 93.3443 234.739L18.3863 240.124H12.1106Z" fill="#6049B4"/>
<path d="M35.063 338.325L18.3879 240.124C18.3879 240.124 70.9026 222.488 111.647 240.124L135.882 337.706L35.063 338.325Z" fill="#9784DD"/>
<path d="M372.05 308.914C371.118 319.569 365.102 322.858 362.457 322.574C359.81 322.292 344.338 316.385 344.002 318.552C343.665 320.72 352.979 327.802 359.499 328.133C359.499 328.133 347.186 341.714 339.003 337.793C330.819 333.874 330.121 327.661 325.02 325.331C319.919 323.001 315.565 323.007 317.669 325.384C319.776 327.76 329.009 330.07 331.925 335.231C332.615 336.449 333.286 337.573 333.8 338.563L316.57 338.528C311.106 335.813 306.504 332.068 306.16 328.031C306.133 327.723 306.108 327.429 306.085 327.147C305.555 320.938 305.555 320.938 305.555 320.938C305.555 320.938 296.707 310.617 301.307 302.055C302.069 300.632 303.204 299.259 304.814 297.987C304.814 297.987 313.059 292.993 319.784 293.401C319.784 293.401 314.573 302.14 313.107 307.332C312.589 309.163 312.537 310.553 313.339 310.965C314.217 311.419 315.354 310.101 316.53 307.987C319.478 302.693 322.671 292.397 322.671 292.397C322.671 292.397 327.63 291.916 333.272 291.844C335.803 291.811 338.472 291.86 340.892 292.072C343.565 292.306 345.933 292.741 347.472 293.48C347.472 293.48 347.134 293.756 346.569 294.23C345.728 294.936 344.377 296.079 342.88 297.405C338.429 301.34 332.646 306.891 334.808 307.39C336.559 307.796 342.051 304.532 346.939 301.293C351.49 298.281 355.514 295.286 355.514 295.286C355.514 295.286 372.982 298.26 372.05 308.914Z" fill="#B1C2DB"/>
<path d="M363.469 309.203C363.469 309.203 316.033 307.374 305.557 320.94C305.557 320.94 303.239 327.878 296.11 334.198L294.998 337.226C294.998 337.226 303.219 328.558 306.16 328.034C306.16 328.036 301.56 311.228 363.469 309.203Z" fill="#B1C2DB"/>
<path d="M298.105 334.121C297.699 334.566 297.09 335.173 296.218 335.977L296.199 335.995C295.897 336.275 295.603 336.577 295.317 336.898C294.876 337.385 294.455 337.92 294.052 338.487L291.835 338.483C294.118 335.674 296.11 334.2 296.11 334.2C296.11 334.2 296.112 334.198 296.117 334.196C296.288 334.09 300.375 331.619 298.105 334.121Z" fill="#B1C2DB"/>
<path d="M279.868 302.292C279.868 302.292 299.006 291.573 290.075 277.03C290.075 277.03 282.93 268.099 275.275 265.802C275.275 265.802 279.357 287.491 275.275 288.003C271.192 288.514 272.468 263.505 272.468 263.505C272.468 263.505 252.309 253.808 244.397 254.574C244.397 254.574 256.901 275.754 252.819 275.244C248.737 274.735 234.7 253.298 234.7 253.298C234.7 253.298 214.03 249.471 210.714 261.719C207.396 273.968 212.756 280.093 215.817 280.857C218.878 281.624 238.528 281.369 238.018 283.92C237.509 286.472 224.239 290.554 216.838 288.257C216.838 288.257 225.005 308.416 235.721 307.395C246.44 306.374 249.756 299.74 256.392 299.229C263.026 298.719 267.874 300.504 264.558 302.292C261.24 304.077 250.012 302.878 244.654 307.432C239.296 311.989 234.957 314.795 244.909 316.838C254.861 318.88 272.723 317.604 276.296 309.947C279.868 302.292 279.868 302.292 279.868 302.292Z" fill="#ABBFDB"/>
<path d="M220.155 265.546C220.155 265.546 273.743 282.898 279.867 302.293C279.867 302.293 279.613 310.969 284.971 320.921V324.748C284.971 324.748 279.356 311.735 276.295 309.948C276.295 309.948 288.289 293.105 220.155 265.546Z" fill="#ABBFDB"/>
<path d="M289.935 337.446L286.873 337.44C286.776 333.01 286.264 328.039 284.752 324.251C284.752 324.249 284.752 324.249 284.752 324.249C284.564 323.774 284.359 323.319 284.137 322.886C284.135 322.882 284.133 322.876 284.131 322.871C283.495 321.627 283.067 320.711 282.795 320.046L282.793 320.044C281.225 316.202 284.972 320.92 284.972 320.92C284.972 320.92 289.462 327.741 289.935 337.446Z" fill="#ABBFDB"/>
<path d="M310.317 287.51C310.317 287.51 285.09 273.382 296.863 254.209C296.863 254.209 306.28 242.437 316.373 239.409C316.373 239.409 310.992 268.001 316.373 268.672C321.756 269.345 320.074 236.38 320.074 236.38C320.074 236.38 346.647 223.599 357.076 224.608C357.076 224.608 340.593 252.527 345.976 251.854C351.357 251.181 369.859 222.926 369.859 222.926C369.859 222.926 397.106 217.881 401.478 234.026C405.852 250.17 398.787 258.244 394.751 259.255C390.714 260.263 364.814 259.928 365.485 263.291C366.158 266.655 383.649 272.038 393.404 269.01C393.404 269.01 382.64 295.583 368.513 294.237C354.385 292.892 350.013 284.146 341.267 283.473C332.52 282.8 326.13 285.155 330.503 287.51C334.875 289.864 349.676 288.282 356.74 294.286C363.803 300.293 369.522 303.992 356.403 306.682C343.284 309.373 319.739 307.691 315.029 297.6C310.317 287.509 310.317 287.51 310.317 287.51Z" fill="#CDE0FB"/>
<path d="M389.03 239.073C389.03 239.073 318.393 261.947 310.319 287.511C310.319 287.511 310.655 298.948 303.592 312.067V317.113C303.592 317.113 310.993 299.957 315.029 297.602C315.029 297.6 299.218 275.401 389.03 239.073Z" fill="#CDE0FB"/>
<path d="M306.465 310.905C306.463 310.909 306.461 310.911 306.461 310.914C306.102 311.792 305.535 313.005 304.696 314.648C304.694 314.652 304.692 314.654 304.69 314.658C304.398 315.228 304.131 315.828 303.882 316.452C303.88 316.452 303.88 316.454 303.88 316.456C301.461 322.516 300.982 330.88 301.074 337.47L297.02 337.462C296.538 322.781 303.592 312.065 303.592 312.065C303.592 312.065 303.592 312.065 303.594 312.063C303.7 311.928 308.503 305.907 306.465 310.905Z" fill="#CDE0FB"/>
<path d="M184.716 337.705H88.7607C87.3419 334.266 86.0972 330.592 85.0077 326.767C82.2717 317.2 80.5009 306.653 79.3721 296.327C79.3576 296.196 79.3431 296.059 79.3286 295.929C77.392 278.015 77.3817 260.783 77.6447 250.431C77.7959 244.442 78.032 240.753 78.0465 240.573V240.568C78.2495 240.481 78.4587 240.399 78.6616 240.316C83.7505 238.18 88.6302 236.341 93.309 234.748C93.3338 234.744 93.3484 234.738 93.3484 234.738C97.2795 233.398 101.066 232.24 104.707 231.242C111.107 229.483 117.063 228.22 122.573 227.344C129.066 226.317 134.944 225.828 140.211 225.716C140.449 225.706 140.681 225.706 140.917 225.702C142.307 225.677 143.653 225.683 144.956 225.712C158.091 225.994 166.832 228.607 171.251 230.349C171.867 230.592 172.395 230.819 172.834 231.022C172.892 231.047 172.95 231.07 173.008 231.095C173.507 231.319 173.894 231.507 174.166 231.642C174.199 231.656 174.238 231.675 174.271 231.7C174.402 231.768 174.528 231.84 174.648 231.913L181.568 304.632L184.716 337.705Z" fill="#FF5B7E"/>
<path d="M280.337 321.984C270.723 326.448 213.54 330.194 208.047 328.612C205.23 327.798 193.441 317.415 181.579 304.64C181.569 304.632 181.569 304.632 181.569 304.632C170.345 292.549 159.028 278.328 155.213 268.092C147.364 247.06 154.111 228.386 154.111 228.386C154.111 228.386 168.703 228.324 174.651 231.915C180.602 235.515 214.608 298.149 219.155 299.802C223.703 301.463 277.574 304.543 283.742 307.472C283.74 307.472 289.941 317.523 280.337 321.984Z" fill="#FF5B7E"/>
<path d="M140.906 228.247L140.892 231.789C140.892 231.789 141.874 242.862 128.239 244.5C114.605 246.142 104.265 240.219 104.621 231.673C105.839 225.054 107.181 220.509 107.264 215.033C107.295 212.999 107.152 210.839 106.769 208.403L133.191 207.836L140.975 209.095L140.906 228.247Z" fill="#EA9E6A"/>
<path d="M140.976 209.093L140.906 228.247C138.101 229.556 134.935 230.358 131.385 230.364C119.241 230.383 107.152 210.839 106.771 208.401L140.976 209.093Z" fill="#D88D59"/>
<path d="M142.535 218.399C142.535 218.399 108.704 225.287 104.738 204.153C100.772 183.019 93.7361 169.674 115.169 164.382C136.601 159.091 142.324 166.365 145.362 173.098C148.401 179.831 151.232 216.062 142.535 218.399Z" fill="#EA9E6A"/>
<path d="M151.917 157.382C151.917 157.382 142.478 156.669 131.339 151.848C122.299 147.933 110.907 152.276 107.21 154.231C107.31 153.635 107.546 152.821 108.109 152.003C108.109 152.003 106.45 153.183 106.208 154.83C106.038 154.956 105.961 155.043 106.005 155.072C106.005 155.072 104.122 154.731 102.913 155.277C102.913 155.277 103.76 155.155 104.062 155.7C104.095 155.758 104.143 155.806 104.199 155.849C90.1169 162.68 88.8493 184.955 93.3914 190.1C98.8572 196.293 105.421 210.244 105.421 210.244C105.421 210.244 107.801 206.943 106.8 201.487C105.8 196.032 110.512 196.026 116.46 193.536C122.409 191.047 117.438 184.11 122.638 179.885C127.841 175.662 146.942 178.112 146.687 174.887C153.777 172.298 151.919 158.107 151.917 157.382Z" fill="#8E342E"/>
<path d="M88.76 337.705C87.3413 334.267 86.0965 330.593 85.0071 326.767C82.271 317.201 80.5002 306.654 79.3714 296.327C79.3569 296.197 79.3424 296.06 79.3279 295.93C79.4004 295.963 79.5205 296.159 79.5992 296.064C83.3356 291.526 93.5341 286.562 105.885 304.641C108.349 308.243 119.157 333.488 120.88 337.705H88.76V337.705Z" fill="#DA4766"/>
<path d="M98.7871 337.705C98.5116 336.073 98.816 334.02 100.09 331.458C100.09 331.458 101.672 330.431 103.774 329.236C106.908 327.469 111.191 325.33 113.134 325.672C113.482 325.736 113.952 325.837 114.509 325.972C119.114 327.076 129.848 330.383 131.47 332.32C132.806 333.913 134.627 335.943 135.882 337.705H98.7871Z" fill="#EA9E6A"/>
<path d="M105.886 337.705H15.4748C15.2324 336.543 15.2242 335.472 15.5431 334.665C18.2398 327.852 23.5026 316.639 29.565 304.606C34.0242 295.755 38.9101 286.458 43.5247 278.144C49.9308 266.602 55.7985 256.948 59.247 252.986C61.9623 249.873 65.3963 247.259 68.9732 245.103C72.0096 243.272 75.1516 241.772 78.0471 240.571V240.567C78.2501 240.48 78.4592 240.397 78.6622 240.314C84.9565 237.762 89.948 236.644 89.948 236.644C89.948 236.644 90.0164 239.5 90.0205 243.893C90.0392 256.637 89.5504 282.318 85.4847 288.583C84.3517 290.331 82.2412 292.97 79.6025 296.064C79.5259 296.151 79.4513 296.238 79.3747 296.325C77.9456 298.001 76.3632 299.802 74.7021 301.656C65.2658 312.225 53.3151 324.64 51.8591 326.15C51.7576 326.251 51.7079 326.305 51.7079 326.305H51.8819L77.2331 326.659L85.0083 326.765L101.132 326.987C102.247 327.465 103.112 328.256 103.775 329.234C105.335 331.518 105.813 334.839 105.886 337.705Z" fill="#FF5B7E"/>
<path d="M280.336 321.985C270.722 326.448 213.538 330.195 208.046 328.612C205.229 327.798 193.44 317.416 181.578 304.641C182.164 304.717 187.587 295.677 212.319 317.312C212.319 317.312 218.795 320.195 236.423 318.582C254.051 316.968 276.685 316.374 280.336 321.985Z" fill="#DA4766"/>
<path d="M224.159 337.533H158.788C158.788 334.656 161.12 332.322 163.999 332.322H224.159V337.533Z" fill="#E58033"/>
<path d="M223.969 266.338H325.038L300.795 337.533H199.071L223.969 266.338Z" fill="#E58033"/>
<path d="M326.527 266.336L302.286 337.533H200.562L225.46 266.336H326.527Z" fill="url(#paint0_linear)"/>
<path d="M272.038 301.278C271.41 303.997 268.695 306.203 265.975 306.203C263.256 306.203 261.56 303.997 262.187 301.278C262.815 298.558 265.53 296.353 268.249 296.353C270.969 296.353 272.665 298.556 272.038 301.278Z" fill="white"/>
<path d="M326.527 266.336L302.286 337.533H254.963L311.643 266.336H326.527Z" fill="#E58033"/>
<path d="M114.57 211.74L113.223 212.011C107.225 213.223 101.325 209.306 100.113 203.308L98.69 196.266C97.4783 190.266 101.395 184.367 107.393 183.153L108.739 182.882C114.737 181.67 120.638 185.587 121.852 191.585L123.275 198.627C124.484 204.627 120.568 210.528 114.57 211.74Z" fill="#122544"/>
<path d="M104.085 186.379C103.184 184.751 101.859 171.642 105.462 161.206C107.204 156.16 110.019 153.285 113.552 151.343C114.83 150.64 116.262 150.266 117.72 150.266L121.27 150.324C109.578 155.274 106.869 181.756 107.778 184.579C107.749 184.492 107.714 184.428 107.687 184.382L104.085 186.379Z" fill="#603BE6"/>
<path d="M138.207 213.946C118.557 213.946 108.831 198.418 108.736 198.261L110.492 197.186L109.614 197.723L110.492 197.184C110.583 197.331 119.742 211.885 138.209 211.885C138.333 211.885 138.455 211.885 138.579 211.883L138.6 213.942C138.47 213.946 138.337 213.946 138.207 213.946Z" fill="#122544"/>
<path d="M111.401 204.845L110.73 204.982C107.741 205.585 104.802 203.634 104.198 200.645L103.489 197.136C102.885 194.148 104.838 191.207 107.826 190.604L108.497 190.469C111.486 189.864 114.425 191.818 115.03 194.806L115.738 198.315C116.343 201.302 114.39 204.241 111.401 204.845Z" fill="#603BE6"/>
<path d="M140.648 214.631H138.795C137.85 214.631 137.08 213.858 137.08 212.916C137.08 211.972 137.852 211.201 138.795 211.201H140.648C141.591 211.201 142.363 211.974 142.363 212.916C142.363 213.858 141.593 214.631 140.648 214.631Z" fill="#603BE6"/>
<rect x="217.64" y="127.368" width="79.1417" height="53.1733" fill="#FF5B7E"/>
<path d="M201.563 192.908L218.876 163.229L238.043 177.45L201.563 192.908Z" fill="#FF5B7E"/>
<path d="M230.995 160.625H239.408L239.254 162.498H229.02L229.225 160.112C229.413 158.214 230.199 156.821 231.585 155.931C232.012 155.641 232.491 155.384 233.021 155.162L235.997 153.879C237.536 153.229 238.374 152.161 238.511 150.673C238.596 149.852 238.408 149.185 237.946 148.672C237.485 148.142 236.792 147.877 235.868 147.877C234.962 147.877 234.201 148.09 233.585 148.518C232.97 148.946 232.577 149.587 232.406 150.442H230.405C230.61 149.04 231.208 147.962 232.2 147.21C233.209 146.457 234.483 146.081 236.022 146.081C237.459 146.081 238.588 146.526 239.408 147.415C240.263 148.321 240.623 149.424 240.486 150.724C240.349 152.024 239.938 153.058 239.254 153.828C238.588 154.597 237.698 155.213 236.587 155.675L233.534 156.983C232.765 157.325 232.175 157.718 231.764 158.163C231.371 158.59 231.14 159.155 231.072 159.856L230.995 160.625ZM252.349 146.132L251.348 156.855H253.862L253.682 158.599H251.169L250.809 162.498H249.039L249.373 158.599H241.883L242.037 157.034L250.681 146.132H252.349ZM244.217 157.034H249.578L250.296 149.339L244.217 157.034ZM262.71 143.747H264.557L256.784 164.371H254.963L262.71 143.747ZM275.758 146.363L275.579 148.236L267.601 162.498H265.138L273.449 148.313H265.703L265.882 146.363H275.758Z" fill="#6D6D6D"/>
<path d="M230.995 159.389H239.408L239.254 161.261H229.02L229.225 158.876C229.413 156.977 230.199 155.584 231.585 154.694C232.012 154.404 232.491 154.147 233.021 153.925L235.997 152.642C237.536 151.993 238.374 150.924 238.511 149.436C238.596 148.615 238.408 147.948 237.946 147.435C237.485 146.905 236.792 146.64 235.868 146.64C234.962 146.64 234.201 146.854 233.585 147.281C232.97 147.709 232.577 148.35 232.406 149.205H230.405C230.61 147.803 231.208 146.725 232.2 145.973C233.209 145.221 234.483 144.844 236.022 144.844C237.459 144.844 238.588 145.289 239.408 146.178C240.263 147.085 240.623 148.188 240.486 149.487C240.349 150.787 239.938 151.821 239.254 152.591C238.588 153.361 237.698 153.976 236.587 154.438L233.534 155.746C232.765 156.088 232.175 156.482 231.764 156.926C231.371 157.354 231.14 157.918 231.072 158.619L230.995 159.389ZM252.349 144.896L251.348 155.618H253.862L253.682 157.362H251.169L250.809 161.261H249.039L249.373 157.362H241.883L242.037 155.797L250.681 144.896H252.349ZM244.217 155.797H249.578L250.296 148.102L244.217 155.797ZM262.71 142.51H264.557L256.784 163.134H254.963L262.71 142.51ZM275.758 145.126L275.579 146.999L267.601 161.261H265.138L273.449 147.076H265.703L265.882 145.126H275.758Z" fill="white"/>
<defs>
<linearGradient id="paint0_linear" x1="200.561" y1="301.934" x2="326.527" y2="301.934" gradientUnits="userSpaceOnUse">
<stop stop-color="#F1CC52"/>
<stop offset="1" stop-color="#FF6935"/>
</linearGradient>
</defs>
</svg>
