<svg width="274" height="342" viewBox="0 0 274 342" fill="none" xmlns="http://www.w3.org/2000/svg">
<path d="M230.7 88.9467C230.7 88.9467 227.17 91.6061 223.095 91.386C220.069 91.2223 216.975 88.5702 216.852 88.3901L214.646 92.6775C214.646 92.6775 220.288 95.7534 224.948 94.622C226.376 94.2746 228.647 92.7339 229.652 91.6097C230.76 90.3728 230.7 88.9467 230.7 88.9467Z" fill="#6BB7BF"/>
<path d="M230.199 80.2524L236.112 77.4712C236.112 77.4712 235.868 90.0549 225.691 94.3676C225.69 94.3695 231.833 85.4783 230.199 80.2524Z" fill="#86D1CD"/>
<path d="M16.2523 151.35C16.2523 151.35 12.7202 154.009 8.64657 153.789C5.62316 153.625 2.52707 150.973 2.40352 150.793L0.197754 155.08C0.197754 155.08 5.83937 158.156 10.4998 157.025C11.928 156.677 14.1992 155.137 15.2039 154.013C16.3123 152.776 16.2523 151.35 16.2523 151.35Z" fill="#6BB7BF"/>
<path d="M15.7488 142.656L21.6611 139.875C21.6611 139.875 21.4158 152.456 11.241 156.771C11.241 156.771 17.3822 147.882 15.7488 142.656Z" fill="#86D1CD"/>
<path d="M133.362 3.82479C133.362 3.82479 141.955 -2.15052 148.403 6.75697L155.487 3.70656C155.487 3.70656 151.99 -1.82129 138.259 0.628861C129.278 2.23319 133.362 3.82479 133.362 3.82479Z" fill="#5685D8"/>
<path d="M124.903 9.66599C124.903 9.66599 127.243 0 144.864 0C144.864 0 138.261 0.627545 133.101 9.2058L124.903 9.66599Z" fill="#739AF0"/>
<path d="M273.204 341.673H32.9106C32.5872 341.673 32.3237 341.409 32.3237 341.085V340.165C32.3237 339.841 32.5872 339.577 32.9106 339.577H273.204C273.528 339.577 273.791 339.841 273.791 340.165V341.085C273.791 341.409 273.528 341.673 273.204 341.673Z" fill="#2E3552"/>
<path d="M210.749 197.075C210.749 197.075 213.871 203.827 213.703 205.67C213.536 207.511 210.749 213.371 210.749 213.371L207.378 197.861L210.749 197.075Z" fill="#FFB27D"/>
<path d="M208.296 168.046L210.749 197.075L207.378 197.861L198.484 171.535L208.296 168.046Z" fill="#FFB27D"/>
<path d="M135.809 74.8081L169.297 55.0195L192.299 71.1574L160.436 89.7564L135.809 74.8081Z" fill="#233862"/>
<path d="M153.013 83.929C153.013 83.929 152.158 88.8038 147.474 91.3158C142.791 93.8278 138.778 94.5627 139.781 102.65C140.784 110.737 135.265 112.58 134.261 117.936C133.258 123.295 133.381 133.087 146.805 130.158C160.228 127.231 190.967 129.321 194.307 124.969C197.647 120.616 195.306 111.574 189.619 104.709C183.932 97.8441 191.458 93.3531 188.784 87.3104C186.107 81.2678 180.974 75.0506 180.974 75.0506C180.974 75.0506 158.888 70.8506 153.013 83.929Z" fill="#132644"/>
<path d="M159.355 306.596L163.885 325.693L170.669 325.655L170.918 306.596H159.355Z" fill="#FFB27D"/>
<path d="M216.423 307.408L229.311 325.693L234.335 319.235L226.578 304.895L216.423 307.408Z" fill="#FFB27D"/>
<path d="M177.177 114.133C177.224 114.153 176.349 135.394 172.711 135.433C171.948 135.44 166.325 120.561 165.609 120.364C161.719 119.302 161.172 109.774 161.224 109.763C162.872 109.436 163.347 107.17 163.312 97.4326L164.057 97.58L176.578 100.061C176.578 100.061 176.292 104.006 176.285 107.721C176.274 110.84 176.463 113.8 177.177 114.133Z" fill="#FFB27D"/>
<path d="M126.6 92.822L126.193 91.9653C135.304 87.6252 135.792 77.3681 135.78 74.9979C135.778 74.6942 135.958 74.4195 136.236 74.2958C136.514 74.1721 136.826 74.3777 136.824 74.6833C136.802 77.439 136.101 88.2946 126.6 92.822Z" fill="#EFCBAB"/>
<path d="M126.192 91.9639L124.922 92.164L125.652 93.6319L126.601 92.8224L126.192 91.9639Z" fill="#D8A987"/>
<path d="M124.923 92.1636C124.923 92.1636 123.244 92.9275 122.795 92.4983C122.795 92.4983 122.989 93.9898 123.674 94.2827C123.674 94.2827 125.092 94.1081 125.651 93.6315L124.923 92.1636Z" fill="#EFCBAB"/>
<path d="M176.576 100.059C176.576 100.059 176.291 104.004 176.283 107.719C169.277 107.52 165.574 101.123 164.057 97.5762L176.576 100.059Z" fill="#EF9E67"/>
<path d="M161.479 98.0157C161.479 98.0157 156.733 93.0481 154.889 88.3551C153.571 85.0046 152.747 71.7643 166.052 71.0095C166.052 71.0095 169.882 70.622 173.894 72.2973C177.085 73.6288 181.961 76.9102 179.694 89.0663L179.281 93.1008L161.479 98.0157Z" fill="#132644"/>
<path d="M233.126 315.059C233.126 315.059 229.8 315.634 227.067 315.843C226.46 315.889 225.884 315.916 225.381 315.916C224.065 315.916 221.696 315.419 220.103 315.048L219.983 315.021C219.283 314.856 218.751 314.719 218.553 314.668L218.469 314.646C218.469 314.646 201.873 296.151 192.567 266.504C192.351 265.812 192.12 265.116 191.878 264.412C186.782 249.54 176.222 230.877 170.658 213.981C169.773 211.293 168.976 208.757 168.265 206.361C168.035 205.594 167.813 204.841 167.602 204.098C163.5 189.832 162.315 180.466 161.221 170.458L194.68 178.98C194.68 178.982 208.729 239.949 233.126 315.059Z" fill="#A53D38"/>
<path d="M178.767 102.042C178.767 102.042 162.57 105.589 160.519 95.4588C158.468 85.3272 154.996 78.9626 165.249 76.2687C175.502 73.5748 178.3 77.0327 179.808 80.2468C181.314 83.4609 182.926 100.858 178.767 102.042Z" fill="#FFB27D"/>
<path d="M172.6 74.5275C172.6 74.5275 170.545 87.313 164.071 90.4489C157.598 93.5848 154.267 92.3497 154.267 92.3497C154.267 92.3497 158.666 87.1275 158.288 79.637C158.288 79.6388 168.105 69.5472 172.6 74.5275Z" fill="#132644"/>
<path d="M171.691 75.7133C171.691 75.7133 175.549 77.6978 176.879 80.1134C178.209 82.5308 180.974 83.3876 181.152 87.2765C181.152 87.2765 182.877 78.52 178.191 74.7093C173.219 70.6694 171.691 75.7133 171.691 75.7133Z" fill="#132644"/>
<path d="M163.657 324.625C163.657 324.625 164.204 328.408 162.794 332.456C162.794 332.456 161.684 337.521 166.666 337.614C171.648 337.709 172.871 337.238 172.307 334.131C171.744 331.026 170.67 325.653 170.67 325.653L163.657 324.625Z" fill="#FFB27D"/>
<path d="M162.792 332.456C162.792 332.456 161.869 337.238 162.434 339.779C162.434 339.779 163.939 340.908 167.558 340.908C170.99 340.908 172.776 339.779 172.776 339.779C172.776 339.779 172.881 334.537 171.966 332.325C171.966 332.327 168.434 337.632 162.792 332.456Z" fill="#C45446"/>
<path d="M246.341 334.639C246.341 334.639 237.154 324.431 234.334 319.236L227.502 322.739L242.772 337.096L246.344 336.625L246.341 334.639Z" fill="#FFB27D"/>
<path d="M252.177 340.623C252.177 340.623 242.305 340.623 240.612 340.434C238.92 340.248 237.558 337.8 235.724 334.129C234.974 332.627 233.29 331.799 231.563 331.344V339.846H228.954L226.487 330.811C224.859 327.819 226.358 325.105 227.503 322.741C228.834 322.737 232.416 323.65 239.202 331.304C241.433 333.818 243.895 334.715 246.341 334.639C246.375 334.662 246.408 334.679 246.442 334.693C252.084 337.234 252.177 340.623 252.177 340.623Z" fill="#C45446"/>
<path d="M227.066 315.843C226.459 315.888 225.883 315.915 225.38 315.915C224.065 315.915 221.695 315.419 220.102 315.048L219.982 315.021L218.552 314.668L218.469 314.646C218.469 314.646 201.873 296.151 192.566 266.503C192.35 265.812 192.119 265.115 191.878 264.411C186.781 249.54 176.221 230.877 170.658 213.981C169.773 211.292 168.975 208.756 168.265 206.361C168.034 205.593 167.812 204.84 167.602 204.098L173.518 199.602C173.518 199.602 191.285 228.403 196.785 255.508C201.346 277.974 220.974 307.101 227.066 315.843Z" fill="#912F2F"/>
<path d="M174.139 258.034C174.239 271.214 173.572 301.516 171.859 314.063C171.859 314.063 170.233 315.504 166.199 315.52C162.069 315.537 160.223 314.012 160.223 314.012C155.921 292.199 152.861 274.152 150.634 258.598C148.806 245.836 147.181 234.893 145.933 225.472C144.827 217.125 151.822 194.521 151.822 194.521L178.086 191.956C177.648 215.053 174.083 250.372 174.139 258.034Z" fill="#A53D38"/>
<path d="M166.2 315.521C162.688 315.725 160.224 314.013 160.224 314.013C155.922 292.2 152.862 274.152 150.635 258.598C148.807 245.836 147.182 234.893 145.934 225.473C144.828 217.126 151.823 194.521 151.823 194.521L160.726 200.222C160.726 200.222 148.096 211.723 151.2 233.466C154.299 255.21 161.881 312.442 166.2 315.521Z" fill="#912F2F"/>
<path d="M207.569 176.316C205.93 176.869 204.077 177.193 202.251 177.458C199.34 177.884 196.498 178.158 194.681 178.982C189.316 181.42 176.301 109.481 176.301 109.481C176.301 109.481 185.775 109.572 190.123 116.434C194.471 123.295 211.394 157.186 212.898 168.049C213.572 172.931 211.043 175.141 207.569 176.316Z" fill="#1C468A"/>
<path d="M227.066 273.336C227.066 273.336 226.196 275.513 223.809 278.567C222.62 280.088 221.056 281.825 219.035 283.62C213.714 288.335 205.23 293.439 192.132 295.969C191.436 296.104 190.731 296.231 190.008 296.351C186.062 297.004 182.268 297.473 178.656 297.792C171.31 298.437 164.704 298.472 159.087 298.21C155.241 298.032 151.86 297.713 149.02 297.359C142.604 296.558 138.945 295.571 138.945 295.571C138.945 295.571 138.945 230.561 144.298 191.957C147.261 170.578 157.2 109.774 157.2 109.774L162.14 109.014L173.984 135.431L176.303 109.479L181.688 111.211C184.334 112.062 186.354 114.218 187.034 116.913L227.066 273.336Z" fill="#1C468A"/>
<path d="M188.884 173.48L161.403 170.689L165.858 130.827L193.339 133.615L188.884 173.48Z" fill="#BC3F3F"/>
<path d="M165.859 130.827L164.096 130.694L159.954 170.524L161.404 170.689L165.859 130.827Z" fill="#9B2323"/>
<path d="M142.807 151.37C142.807 151.37 162.103 157.274 180.543 159.914C180.543 159.914 186.628 162.548 183.772 163.27C183.04 163.455 146.111 171.515 140.634 166.286L142.807 151.37Z" fill="#FFB27D"/>
<path d="M162.091 109.016C162.091 109.016 147.656 110.764 145.226 113.683C137.546 122.909 130.584 162.306 136.605 171.403C143.796 182.269 154.874 165.216 158.346 155.17C160.145 149.961 163.08 118.487 162.091 109.016Z" fill="#1C468A"/>
<path d="M178.727 159.643C178.727 159.643 180.994 159.432 181.425 158.706C182.286 157.256 183.645 157.274 184.779 157.081C185.913 156.89 187.187 155.646 187.412 155.897C187.637 156.147 186.576 157.518 185.984 158.029C185.984 158.029 187.201 158.104 188.006 157.718C188.811 157.334 191.638 154.104 191.653 155.495C191.683 158.844 191.425 159.379 188.562 161.747C186.209 163.692 178.224 164.414 178.224 164.414L178.727 159.643Z" fill="#FFB27D"/>
<path d="M162.052 150.501L161.49 156.16C160.596 155.969 159.557 155.654 158.347 155.169C150.429 151.998 153.554 136.242 153.554 136.242C154.786 142.545 158.754 147.414 162.052 150.501Z" fill="#233862"/>
<path d="M180.974 75.0501C180.974 75.0501 169.267 70.5991 153.013 83.9284L153.345 80.8835C153.643 78.1623 155.042 75.6758 157.239 74.0442C159.717 72.2052 163.665 70.1771 169.596 69.3403C173.671 68.7655 177.73 70.5063 180.123 73.8586L180.974 75.0501Z" fill="#1C468A"/>
<path d="M207.57 176.316C205.931 176.869 204.078 177.193 202.252 177.458L194.655 143.902C194.655 143.902 207.436 169.695 207.57 176.316Z" fill="#233862"/>
<path d="M48.4883 170.316L45.3977 204.158L49.9927 204.875L62.9948 174.766L48.4883 170.316Z" fill="#FFB27D"/>
<path d="M50.5899 201.389C50.5899 201.389 49.5215 204.932 50.1883 207.571C50.6335 209.33 47.899 211.75 44.8774 215.089C44.5722 215.426 44.0071 215.086 44.0725 214.636C44.1071 214.402 44.1816 214.125 44.3178 213.805C44.8647 212.532 46.4345 210.325 46.4345 210.325C46.3092 209.831 43.0878 211.569 41.2708 212.774C40.2152 213.474 37.1591 216.777 36.3451 216.284C35.5312 215.791 36.8466 212.614 38.2602 210.273C39.6738 207.932 44.7593 205.954 45.3953 204.157C46.0348 202.362 50.5899 201.389 50.5899 201.389Z" fill="#FFB27D"/>
<path d="M65.4346 47.5847L99.0915 33.2148L130.123 48.0322L99.0915 63.799L65.4346 47.5847Z" fill="#233862"/>
<path d="M70.8788 64.0955L71.3584 63.4588C64.5812 58.353 65.8966 49.8202 66.3055 47.8703C66.3582 47.6193 66.2564 47.3646 66.0474 47.2154C65.8385 47.0663 65.546 47.1827 65.4969 47.4355C65.0499 49.7092 63.809 58.7714 70.8788 64.0955Z" fill="#EFCBAB"/>
<path d="M71.3586 63.459L72.3706 63.8373L71.5239 64.9214L70.8789 64.0956L71.3586 63.459Z" fill="#D8A987"/>
<path d="M72.3696 63.8369C72.3696 63.8369 73.6251 64.7482 74.0666 64.4699C74.0666 64.4699 73.656 65.665 73.0419 65.7923C73.0419 65.7923 71.9027 65.4103 71.5229 64.9228L72.3696 63.8369Z" fill="#EFCBAB"/>
<path d="M87.1838 304.402L84.9017 314.019L81.871 326.772H72.4012L71.8379 314.555L71.4019 305.133L87.1838 304.402Z" fill="#FFB27D"/>
<path d="M68.6592 340.782C68.6592 340.782 68.6592 336.142 69.3205 334.598C69.9819 333.055 72.4039 326.772 72.4039 326.772H81.872C81.872 326.772 83.6344 332.504 83.7434 334.378C83.8542 336.251 83.7434 340.782 83.7434 340.782H68.6592Z" fill="#233862"/>
<path d="M128.779 340.782C128.779 340.782 128.779 336.142 128.118 334.598C127.457 333.055 125.035 326.772 125.035 326.772H115.567C115.567 326.772 113.804 332.504 113.695 334.378C113.584 336.251 113.695 340.782 113.695 340.782H128.779Z" fill="#233862"/>
<path d="M90.8441 80.3061C90.8441 80.3061 90.5098 90.6397 89.1889 95.2689L78.7324 117.833L101.873 149.907L118.096 108.469L108.708 95.4854C108.708 95.4854 105.874 81.6303 107.36 76.5045C108.846 71.3786 90.8441 80.3061 90.8441 80.3061Z" fill="#FFB27D"/>
<path d="M90.7881 81.7329C90.7881 81.7293 93.9005 89.2344 99.7638 89.0688C105.627 88.9033 106.961 82.2659 106.961 82.2659L90.7881 81.7329Z" fill="#ED985F"/>
<path d="M87.2877 75.6608C87.2877 75.6608 85.3945 66.1985 84.0736 63.3318C82.7527 60.4651 81.6516 47.6796 96.2943 47.0175C96.2943 47.0175 101.91 47.6796 104.992 45.8042C104.992 45.8042 104.992 47.6777 104.222 48.3398C104.222 48.3398 108.035 45.9388 111.998 50.348C115.963 54.7572 110.608 71.3771 110.939 75.015L87.2877 75.6608Z" fill="#132644"/>
<path d="M99.0906 86.1703C94.8426 86.0957 87.0225 80.4314 87.0225 73.4193V62.4764C87.0225 59.9153 88.8067 57.8198 90.987 57.8198H107.194C109.374 57.8198 111.159 59.9153 111.159 62.4764V72.8008C111.159 80.1531 103.962 86.2558 99.0906 86.1703Z" fill="#FFB27D"/>
<path d="M87.0231 68.3193C87.0231 68.3193 87.045 61.7437 92.2487 60.7324C97.4505 59.7211 109.093 63.9374 110.745 59.1426C112.397 54.3478 88.2387 54.4297 87.0231 57.4892C85.8076 60.5487 87.0231 68.3193 87.0231 68.3193Z" fill="#132644"/>
<path d="M89.1911 95.2677C89.1892 95.2695 98.8735 97.445 98.8735 97.445L108.66 95.084L111.158 110.121L100.174 147.554L88.1572 102.698L89.1911 95.2677Z" fill="white"/>
<path d="M88.7168 98.3454L96.4097 104.095L98.9262 99.9643L101.259 104.095L109.454 96.9502L107.838 95.084L98.8735 97.445L89.191 97.0066L88.7168 98.3454Z" fill="#D2E3FC"/>
<path d="M129.006 179.979L105.963 181.419C105.831 181.203 105.682 181.203 105.518 181.446L98.739 181.87L69.846 180.064C69.846 180.064 62.5801 213.271 65.4345 257.519C66.3448 271.636 68.3816 313.442 70.3202 328.226L90.1249 328.435C92.6922 311.715 95.6611 269.99 97.2582 262.825C97.9831 259.571 98.6572 256.344 99.2841 253.156C99.8564 256.79 100.223 259.74 100.216 261.577C100.203 264.519 101.059 269.199 102.248 274.84C103.914 282.785 108.814 319.408 110.275 328.972H131.055C131.304 315.797 132.432 271.049 132.67 257.519C133.295 221.438 129.006 179.979 129.006 179.979Z" fill="#EE9849"/>
<path d="M144.911 296.642C134.318 302.2 62.1781 308.787 49.247 293.515C47.0467 290.916 77.7856 97.4465 77.7856 97.4465C77.7856 97.4465 79.7661 96.8735 83.1074 96.2441C84.8135 95.9222 86.8667 95.5875 89.196 95.3074C89.2233 96.0313 94.2035 127.45 100.981 139.703C100.981 139.703 108.664 122.792 108.71 95.4838C108.71 95.3456 108.679 95.2164 108.663 95.0854C110.114 95.2437 111.59 95.4438 113.069 95.6984C113.694 95.8058 114.319 95.9222 114.946 96.0531C117.32 96.5279 119.711 97.1482 122.09 97.9358C122.088 97.934 147.118 295.483 144.911 296.642Z" fill="#1C468A"/>
<path d="M86.1506 95.667C86.1506 95.667 75.1128 180.555 70.8775 186.917C69.1041 189.58 66.5132 190.015 63.4589 189.418C62.8775 189.307 62.2743 189.156 61.6619 188.976L53.1968 185.728L53.1605 185.715C51.7887 185.166 50.4042 184.647 49.0233 184.218C40.3275 181.522 41.0015 174.192 43.3436 164.2C45.6856 154.209 61.0188 106.095 66.1934 102.699C75.3362 96.7038 86.1506 95.667 86.1506 95.667Z" fill="#1C468A"/>
<path d="M108.661 95.0842C101.392 94.3038 94.5709 94.6604 89.1946 95.3061C89.1909 95.2806 89.1909 95.2679 89.1909 95.2679C89.1909 95.2679 107.209 84.1121 108.661 95.0842Z" fill="#FFB27D"/>
<path d="M102.316 147.554C91.1672 139.335 83.1055 96.2423 83.1055 96.2423C84.8116 95.9204 86.8647 95.5857 89.194 95.3055C89.2213 96.0295 93.9235 125.721 100.701 137.973C100.701 137.973 108.661 122.79 108.708 95.4838C108.708 95.3456 108.677 95.2164 108.661 95.0854C110.112 95.2437 111.588 95.4438 113.067 95.6984C113.692 95.8058 114.317 95.9222 114.944 96.0531C114.962 119.052 102.316 147.554 102.316 147.554Z" fill="#BC3F3F"/>
<path d="M83.0537 52.5919L83.3553 57.5468C83.3553 57.5468 94.7602 49.918 113.466 56.9229L113.206 49.7561C112.931 48.3592 112.07 47.1477 110.836 46.4365C107.328 44.4156 99.1118 40.6649 86.1298 46.9422C84.3128 47.8226 83.1736 50.5729 83.0537 52.5919Z" fill="#1C468A"/>
<path d="M90.0405 90.7109L86.1504 95.6676L96.4361 102.7L98.8726 97.4448L90.0405 90.7109Z" fill="white"/>
<path d="M107.871 90.7109L98.8735 97.4448L101.454 102.7L110.309 95.2802L107.871 90.7109Z" fill="white"/>
<path d="M98.5821 109.061C98.8583 108.782 99.3089 108.782 99.5851 109.061C99.8631 109.339 99.8631 109.788 99.5851 110.065C99.3089 110.341 98.8583 110.341 98.5821 110.065C98.306 109.788 98.306 109.339 98.5821 109.061Z" fill="#D2E3FC"/>
<path d="M99.0854 117.92C99.4778 117.92 99.7958 117.602 99.7958 117.209C99.7958 116.816 99.4778 116.498 99.0854 116.498C98.6931 116.498 98.375 116.816 98.375 117.209C98.375 117.602 98.6931 117.92 99.0854 117.92Z" fill="#D2E3FC"/>
<path d="M98.5821 124.577C98.8583 124.3 99.3089 124.3 99.5851 124.577C99.8631 124.855 99.8631 125.304 99.5851 125.581C99.3089 125.859 98.8583 125.859 98.5821 125.581C98.306 125.304 98.306 124.855 98.5821 124.577Z" fill="#D2E3FC"/>
<path d="M122.089 97.9336C122.089 97.9336 129.022 100.818 132.729 109.32C136.437 117.822 151.823 141.045 151.376 151.922C150.931 162.8 148.842 172.697 138.498 173.032C131.399 173.261 124.171 166.307 124.171 155.904C124.173 145.505 122.089 97.9336 122.089 97.9336Z" fill="#1C468A"/>
<path d="M144.111 166.934C143.833 169.868 142.735 172.235 140.114 172.892C131.821 174.967 128.153 166.954 129.899 159.106C129.955 158.844 130.022 158.593 130.099 158.353C131.868 152.616 138.237 151.735 140.588 151.608C141.14 151.577 141.471 151.588 141.471 151.588C141.471 151.588 141.518 151.719 141.602 151.959C142.198 153.718 144.643 161.354 144.111 166.934Z" fill="#233862"/>
<path d="M144.11 166.935C144.11 166.935 119.934 156.041 110.364 143.534C109.658 142.61 111.469 141.482 111.469 141.482L140.589 151.609L141.603 151.96C142.197 153.719 144.643 161.355 144.11 166.935Z" fill="#FFB27D"/>
<path d="M115.671 142.075H83.7275V184.219H115.671V142.075Z" fill="#FCECDB"/>
<path d="M96.8533 171.781L93.2612 177.789L95.5324 177.463L96.5063 179.273L99.5587 173.749L96.8533 171.781Z" fill="#932424"/>
<path d="M101.614 171.41L105.206 177.418L102.933 177.093L101.961 178.903L98.9087 173.378L101.614 171.41Z" fill="#932424"/>
<path d="M95.5887 170.457C95.992 167.827 97.3983 166.797 99.575 166.466C102.42 166.033 103.561 168.252 103.561 170.457C103.561 172.662 101.777 174.448 99.575 174.448C97.3729 174.448 95.2544 172.636 95.5887 170.457Z" fill="#BC3F3F"/>
<path d="M99.5718 173.635C98.6106 173.635 97.6295 173.187 97.0135 172.469C96.5029 171.872 96.2813 171.147 96.3939 170.423C96.6846 168.529 97.6567 167.556 99.5445 167.269C100.429 167.132 101.163 167.31 101.727 167.796C102.379 168.358 102.753 169.326 102.753 170.452C102.753 172.207 101.325 173.635 99.5718 173.635ZM100.091 167.596C99.9334 167.596 99.7698 167.609 99.599 167.636C97.8729 167.898 97.0244 168.749 96.7591 170.481C96.6647 171.096 96.8554 171.716 97.2951 172.229C97.8439 172.869 98.716 173.266 99.5718 173.266C101.122 173.266 102.383 172.003 102.383 170.452C102.383 169.433 102.056 168.569 101.485 168.078C101.113 167.756 100.646 167.596 100.091 167.596Z" fill="#932424"/>
<path d="M104.145 147.148H95.2544C95.1072 147.148 94.9873 147.028 94.9873 146.881C94.9873 146.733 95.1072 146.613 95.2544 146.613H104.145C104.292 146.613 104.412 146.733 104.412 146.881C104.414 147.028 104.292 147.148 104.145 147.148Z" fill="#1C468A"/>
<path d="M105.869 148.271H93.5283C93.3811 148.271 93.2612 148.151 93.2612 148.003C93.2612 147.856 93.3811 147.736 93.5283 147.736H105.869C106.016 147.736 106.136 147.856 106.136 148.003C106.138 148.149 106.018 148.271 105.869 148.271Z" fill="#1C468A"/>
<path d="M108.8 157.574H90.5962C90.4273 157.574 90.291 157.435 90.291 157.268C90.291 157.099 90.4291 156.962 90.5962 156.962H108.8C108.969 156.962 109.105 157.101 109.105 157.268C109.107 157.437 108.969 157.574 108.8 157.574Z" fill="#1C468A"/>
<path d="M108.8 159.106H90.5962C90.4273 159.106 90.291 158.968 90.291 158.801C90.291 158.632 90.4291 158.495 90.5962 158.495H108.8C108.969 158.495 109.105 158.633 109.105 158.801C109.107 158.968 108.969 159.106 108.8 159.106Z" fill="#1C468A"/>
<path d="M108.8 160.446H90.5962C90.4273 160.446 90.291 160.307 90.291 160.14C90.291 159.971 90.4291 159.834 90.5962 159.834H108.8C108.969 159.834 109.105 159.973 109.105 160.14C109.107 160.307 108.969 160.446 108.8 160.446Z" fill="#1C468A"/>
<path d="M108.8 161.912H90.5962C90.4273 161.912 90.291 161.774 90.291 161.606C90.291 161.437 90.4291 161.301 90.5962 161.301H108.8C108.969 161.301 109.105 161.439 109.105 161.606C109.107 161.774 108.969 161.912 108.8 161.912Z" fill="#1C468A"/>
<path d="M110.336 170.606C109.762 171.082 109.148 171.481 108.501 171.843C108.555 171.672 108.601 171.492 108.594 171.333C108.583 171.115 108.408 171.019 108.234 170.928C108.19 170.906 108.15 170.882 108.11 170.857C108.177 170.791 108.212 170.699 108.168 170.599C108.096 170.433 107.889 170.46 107.818 170.613C107.805 170.642 107.798 170.67 107.794 170.697C107.767 170.682 107.745 170.666 107.727 170.644C107.834 170.446 107.934 170.242 108.025 170.037C108.045 169.989 108.019 169.935 107.981 169.907C107.829 169.791 107.62 169.829 107.496 169.975C107.351 170.147 107.387 170.409 107.456 170.606C107.462 170.619 107.467 170.633 107.473 170.646C107.336 170.891 107.189 171.13 107.031 171.361C107.016 171.346 107.002 171.332 106.986 171.317C106.944 171.277 106.9 171.226 106.862 171.168C106.935 170.979 106.98 170.78 106.998 170.575C107.006 170.482 106.915 170.439 106.837 170.466C106.624 170.544 106.51 170.76 106.537 170.982C106.546 171.059 106.571 171.132 106.606 171.199C106.559 171.301 106.502 171.403 106.435 171.497C106.391 171.559 106.422 171.623 106.473 171.654C106.404 171.886 106.31 172.123 106.15 172.29C106.019 172.427 105.776 172.53 105.616 172.368C105.514 172.267 105.501 172.094 105.488 171.959C105.454 171.624 105.428 171.277 105.441 170.941C105.447 170.782 105.465 170.619 105.519 170.469C105.554 170.377 105.601 170.235 105.647 170.395C105.668 170.475 105.637 170.597 105.63 170.677C105.616 170.821 105.839 170.837 105.854 170.693C105.87 170.524 105.946 170.171 105.756 170.066C105.597 169.978 105.452 170.104 105.379 170.235C105.116 170.708 105.221 171.357 105.261 171.872C105.292 172.281 105.447 172.785 105.968 172.654C106.461 172.532 106.64 171.91 106.755 171.483C106.762 171.455 106.76 171.432 106.751 171.412C106.753 171.408 106.755 171.404 106.757 171.401C106.777 171.421 106.797 171.441 106.818 171.463C106.848 171.488 106.875 171.515 106.902 171.544C106.851 171.615 106.798 171.686 106.744 171.757C106.713 171.797 106.722 171.857 106.753 171.894C106.918 172.094 107.216 171.945 107.211 171.699C107.209 171.643 107.196 171.592 107.173 171.546C107.329 171.323 107.473 171.092 107.609 170.855C107.68 170.924 107.769 170.968 107.878 170.962C107.885 170.962 107.892 170.961 107.9 170.961C107.958 171.021 108.029 171.072 108.094 171.11C108.158 171.146 108.23 171.168 108.288 171.215C108.394 171.303 108.363 171.401 108.339 171.524C108.308 171.686 108.257 171.848 108.21 172.006C107.985 172.136 107.763 172.299 107.687 172.559C107.618 172.796 107.68 173.045 107.881 173.192C107.943 173.236 108.023 173.202 108.049 173.136C108.176 172.823 108.29 172.507 108.388 172.183C108.392 172.172 108.396 172.163 108.397 172.152C108.595 172.039 108.804 171.939 109.001 171.823C109.522 171.514 110.016 171.161 110.483 170.773C110.594 170.682 110.447 170.515 110.336 170.606ZM107.62 170.308C107.618 170.218 107.665 170.055 107.769 170.057C107.721 170.157 107.674 170.257 107.623 170.357C107.622 170.34 107.62 170.324 107.62 170.308ZM107.903 172.894C107.809 172.718 107.943 172.499 108.098 172.356C108.038 172.536 107.972 172.716 107.903 172.894Z" fill="#1C468A"/>
<path d="M114.416 183.015H85.2036V143.534H114.416V183.015ZM85.5397 182.68H114.082V143.869H85.5397V182.68Z" fill="#1C468A"/>
<path d="M104.413 138.867C104.413 138.867 98.5281 143.929 100.647 144.691C102.765 145.454 108.452 142.076 109.566 142.076C110.682 142.076 113.245 142.076 113.245 142.076C113.245 142.076 109.61 137.863 107.693 137.976C105.774 138.085 104.413 138.867 104.413 138.867Z" fill="#FFB27D"/>
<path d="M70.8778 129.881L63.4593 189.42C62.8778 189.309 62.2746 189.158 61.6623 188.978L53.1972 185.729L53.1609 185.716C53.1609 185.716 55.77 183.013 59.3094 173.639C62.847 164.258 70.8778 129.881 70.8778 129.881Z" fill="#233862"/>
</svg>
