<svg width="24" height="24" viewBox="0 0 24 24" fill="none" xmlns="http://www.w3.org/2000/svg">
<path d="M8 3H5C4.46957 3 3.96086 3.21071 3.58579 3.58579C3.21071 3.96086 3 4.46957 3 5V8M21 8V5C21 4.46957 20.7893 3.96086 20.4142 3.58579C20.0391 3.21071 19.5304 3 19 3H16M16 21H19C19.5304 21 20.0391 20.7893 20.4142 20.4142C20.7893 20.0391 21 19.5304 21 19V16M3 16V19C3 19.5304 3.21071 20.0391 3.58579 20.4142C3.96086 20.7893 4.46957 21 5 21H8" stroke="#14142B" stroke-width="2" stroke-linecap="round" stroke-linejoin="round"/>
<path d="M12 17C14.7614 17 17 14.7614 17 12C17 9.23858 14.7614 7 12 7C9.23858 7 7 9.23858 7 12C7 14.7614 9.23858 17 12 17Z" stroke="#00B894" stroke-width="1.2" stroke-linecap="round" stroke-linejoin="round"/>
<path d="M10 13.5H14" stroke="#00B894" stroke-width="1.2" stroke-linecap="round" stroke-linejoin="round"/>
<path d="M10.5 10.5H10.5056" stroke="#00B894" stroke-width="1.2" stroke-linecap="round" stroke-linejoin="round"/>
<path d="M13.5 10.5H13.5056" stroke="#00B894" stroke-width="1.2" stroke-linecap="round" stroke-linejoin="round"/>
</svg>
