<svg width="333" height="318" viewBox="0 0 333 318" fill="none" xmlns="http://www.w3.org/2000/svg">
<path opacity="0.6" d="M70.9859 70.8168C70.9859 70.8168 137.792 37.8015 191.08 59.235C235.299 77.0633 218.011 99.9364 257.017 98.7412C296.022 97.546 334.55 144.012 314.982 203.69C304.803 234.725 351.884 260.477 321.98 295.143C284.843 338.221 208.557 301.958 85.0722 317C20.0108 324.924 -27.0897 262.464 17.5478 211.905C50.4509 174.63 29.1906 166.608 28.8901 132.007C28.583 95.3802 70.9859 70.8168 70.9859 70.8168Z" fill="#D8E7F4"/>
<path d="M328.352 314.608H0.535565C0.240823 314.608 0 314.849 0 315.144V315.435C0 315.73 0.240823 315.971 0.535565 315.971H328.35C328.645 315.971 328.886 315.73 328.886 315.435V315.144C328.888 314.849 328.647 314.608 328.352 314.608Z" fill="#2E3552"/>
<g opacity="0.9">
<path d="M287.07 24.0161H274.346L274.272 0L247.077 0.0844691V0.0952519L238.917 0.125804H238.862L238.88 7.7945L238.935 7.83763L238.975 24.0179H129.426V315.879H287.07V315.982H308.496V24.0161H287.07ZM132.997 238.441L132.999 238.973H132.997V238.441ZM283.499 275.137L241.903 275.264V275.28L229.31 275.329H229.223L229.252 287.164L229.338 287.228L229.399 312.138H132.995V246.94H283.497V275.137H283.499ZM166.598 238.941L166.745 238.973H166.598V238.941ZM283.499 238.973H268.796L268.681 178.253L226.713 178.382V178.398L214.12 178.447H214.033L214.062 190.281L214.137 190.339L214.211 238.946H226.826V238.975H188.033H187.569L187.467 201.559L145.498 201.688V201.704L132.997 201.753V173.776H283.499V238.973ZM283.499 165.809H240.621L240.506 128.393L198.538 128.522V128.538L185.946 128.587H185.86L185.889 140.421L185.975 140.486L186.038 165.807H132.999V100.611H283.501V165.809H283.499ZM283.499 92.6444H132.997V27.447H283.499V92.6444Z" fill="#A9A9A9"/>
</g>
<path d="M132.694 215.944L118.015 218.198L122.344 190.754L137.024 188.5L132.694 215.944Z" fill="#002D56"/>
<path d="M131.339 181.923C128.222 179.674 133.37 173.605 136.033 170.769C138.695 167.933 147.284 160.466 147.284 160.466L150.51 163.189C150.51 163.189 145.752 172.462 138.828 180.665C138.114 181.506 134.509 184.211 131.339 181.923Z" fill="white"/>
<path d="M146.04 164.172C146.04 164.172 147.039 162.247 146.958 161.443C146.878 160.638 147.278 157.935 148.159 156.931C149.04 155.926 149.661 153.671 149.715 153.259C149.769 152.846 150.522 153.16 150.7 153.94C150.878 154.72 149.491 157.107 149.827 157.384C150.165 157.662 155.229 151.983 155.736 152.227C156.505 152.598 152.869 156.41 153.083 156.667C153.54 157.218 157.05 153.077 157.63 153.457C158.378 153.946 154.111 157.853 154.361 158.072C154.613 158.291 158.746 155.448 159.165 155.993C159.686 156.672 155.1 159.032 155.353 159.416C155.506 159.648 158.489 158.66 158.603 159.211C158.669 159.537 155.506 160.744 155.003 161.005C154.501 161.266 150.9 164.148 150.312 164.005C149.724 163.863 148.001 165.144 148.001 165.144L146.04 164.172Z" fill="#EA9E6A"/>
<path d="M151.189 163.97L148.645 166.759L144.288 163.102L146.648 160.029L151.189 163.97Z" fill="#E6E6E6"/>
<path d="M108.743 185.65C108.967 189.206 111.98 190.08 115.461 189.631C118.942 189.181 136.258 183.195 136.851 182.23C137.444 181.265 136.452 176.222 134.876 175.805C133.298 175.388 117.806 178.229 115.008 179.097C112.208 179.962 108.479 181.482 108.743 185.65Z" fill="white"/>
<path d="M97.5354 164.233C97.5354 164.233 97.0106 174.799 96.3923 175.306C94.4711 176.887 87.5213 178.19 86.2039 180.954C84.608 184.306 93.1466 199.453 94.2447 204.447C95.341 209.442 92.9561 217.155 92.1725 222.044C91.3871 226.932 106.739 232.947 107.303 232.953C107.868 232.956 112.849 228.357 113.802 226.763C114.753 225.169 113.903 212.621 113.922 209.422C113.944 206.223 114.756 195.016 114.904 194.282C115.896 189.39 114.659 185.521 114.478 184.484C114.296 183.447 114.363 181.716 113.847 181.051C112.821 179.727 107.077 177.951 106.987 177.291C106.897 176.632 106.173 167.453 106.173 167.453L97.5354 164.233Z" fill="#EA9E6A"/>
<path d="M96.3939 175.306L105.637 180.9L106.988 177.293C106.988 177.293 113.068 179.73 113.848 181.053C114.63 182.374 114.988 185.235 115.241 186.297C115.495 187.36 115.617 192.257 115.175 196.5C114.916 198.984 114.959 202.267 114.555 206.496C114.21 210.118 115.543 216.954 114.201 219.1C113.96 219.485 111.091 219.256 105.734 218.962C99.5318 218.622 92.591 218.584 92.3142 218.354C91.1244 217.368 93.5201 206.809 93.3098 205.747C93.0996 204.685 85.5872 186.224 85.4794 183.812C85.3716 181.398 86.617 179.817 88.4502 178.918C90.2797 178.021 96.3939 175.306 96.3939 175.306Z" fill="white"/>
<path d="M89.261 179.465C89.261 179.465 93.0369 178.179 96.0455 181.73C102.318 189.134 93.5438 200.247 110.33 198.593C115.356 198.099 113.876 202.434 114.505 210.994C115.071 218.702 113.696 219.144 113.696 219.144L92.8231 218.616C90.3322 219.092 93.276 205.663 92.345 203.081C91.4141 200.498 87.0001 187.51 86.9588 185.569C86.9175 183.628 89.261 179.465 89.261 179.465Z" fill="#EBEEF2"/>
<path d="M106.49 171.432L106.172 167.457L97.1288 168.005L96.8682 173.555L99.7509 175.329L106.49 171.432Z" fill="#C67B48"/>
<path d="M103.566 152.686C100.671 151.324 93.45 151.5 91.5611 156.873C89.6723 162.249 92.44 166.109 95.0297 168.226C97.0498 169.878 98.7392 170.611 101.748 170.974C102.362 171.048 107.501 170.369 108.372 169.734C108.969 169.299 107.966 164.282 108.166 164.24C108.367 164.199 108.816 163.741 108.723 163.338C108.584 162.75 106.875 159.454 106.9 159.041C106.925 158.628 106.884 154.246 103.566 152.686Z" fill="#EA9E6A"/>
<path d="M105.594 154.427C105.594 154.427 101.226 153.493 97.916 159.151C97.2043 160.369 100.285 163.64 100.143 164.06C99.99 164.512 95.594 162.382 95.8618 162.779C98.5953 166.826 97.8998 169.743 97.5008 169.898C96.2895 170.367 90.5151 165.256 90.8134 159.569C91.1117 153.885 96.4135 151.671 97.8064 151.536C99.201 151.401 103.236 150.459 105.594 154.427Z" fill="#8D3B26"/>
<path d="M98.3456 163.093C99.2244 164.378 100.024 166.233 99.3269 166.7C98.6278 167.169 97.3499 166.506 96.4711 165.219C95.5923 163.933 95.4467 162.511 96.1458 162.044C96.8431 161.576 97.4668 161.808 98.3456 163.093Z" fill="#EA9E6A"/>
<path d="M106.343 307.945H100.342V309.065H106.343V307.945Z" fill="#191919"/>
<path d="M100.578 300.055C99.7922 301.157 99.2603 303.287 99.1812 304.268C99.0878 305.451 99.7923 307.943 100.57 307.943C102.839 307.943 105.552 308.035 107.892 308.351C110.232 308.666 111.107 310.012 117.092 309.997C118.839 309.994 122.013 309.882 121.919 309.173C121.826 308.463 116.177 307.174 114.357 305.495C109.749 301.247 106.677 300.221 106.677 300.221C106.677 300.221 100.739 299.829 100.578 300.055Z" fill="#0F0D0D"/>
<path d="M95.8241 223.848C95.8241 223.848 95.4324 226.28 95.0675 229.763C94.7027 233.246 98.0689 244.396 99.2586 253.165C100.448 261.933 101.187 263.707 100.889 265.777C100.592 267.848 97.9898 276.237 98.3223 281.817C98.6548 287.398 99.7744 301.993 99.7744 301.993C99.7744 301.993 101.422 302.741 104.298 303.017C107.174 303.294 109.168 300.819 109.168 300.819C109.168 300.819 111.481 268.214 111.846 264.773C112.082 262.548 113.904 247.185 114.461 234.662C114.641 230.633 114.183 221.318 114.184 219.652C114.184 218.491 95.8241 223.848 95.8241 223.848Z" fill="#191919"/>
<path d="M98.2937 311.131L92.3054 310.755L92.3791 309.602L98.3674 309.977L98.2937 311.131Z" fill="#191919"/>
<path d="M93.1379 301.488C92.2806 302.573 91.6084 304.735 91.4646 305.742C91.2921 306.955 91.8313 309.568 92.6077 309.616C94.8722 309.758 97.5734 310.022 99.8882 310.493C102.203 310.964 102.987 312.406 108.96 312.767C110.704 312.871 113.879 312.956 113.833 312.219C113.786 311.482 108.236 309.8 106.529 307.956C102.212 303.29 99.2142 302.039 99.2142 302.039C99.2142 302.039 93.314 301.265 93.1379 301.488Z" fill="#191919"/>
<path d="M92.1045 218.167C92.1045 218.167 90.1185 223.375 90.176 227.698C90.2228 231.199 91.231 237.627 92.4207 246.396C93.6105 255.164 93.7255 263.316 93.429 265.387C93.1325 267.457 90.3629 276.237 90.6954 281.815C91.0279 287.396 92.5394 301.166 92.5394 301.166C92.5394 301.166 94.288 302.697 97.1636 302.974C100.039 303.25 101.737 302.028 101.737 302.028C101.737 302.028 105.089 269.366 106.387 266.152C108.457 261.023 108.454 245.023 109.886 234.006C110.017 233.003 110.492 229.763 110.709 228.4C111.459 223.731 112.415 219.891 112.415 219.891L92.1045 218.167Z" fill="#303030"/>
<path d="M105.238 178.702L105.635 180.9L100.765 177.983L105.238 178.702Z" fill="#B8D1FF"/>
<path d="M105.635 180.9L106.422 178.179L107.592 179.103L105.635 180.9Z" fill="#B8D1FF"/>
<path d="M106.422 178.179L108.406 180.474L108.728 178.036L107.068 176.425L106.422 178.179Z" fill="#E0F2FF"/>
<path d="M92.0085 218.043C92.0085 218.043 98.2071 218.458 104.35 218.695C110.493 218.933 114.2 219.098 114.2 219.098L114.233 221.535C114.233 221.535 107.928 221.677 101.444 221.285C95.0404 220.897 91.3921 220.331 91.3921 220.331L92.0085 218.043Z" fill="#3B1B1D"/>
<path d="M110.402 221.55H113.748C113.788 221.55 113.82 221.517 113.82 221.478V219.019C113.82 218.98 113.788 218.947 113.748 218.947H110.402C110.362 218.947 110.33 218.98 110.33 219.019V221.478C110.33 221.517 110.362 221.55 110.402 221.55Z" fill="#722C1D"/>
<path d="M104.585 180.243L107.429 179.554L107.592 182.347L106.075 182.773L104.585 180.243Z" fill="#303030"/>
<path d="M106.076 182.773C106.076 182.773 108.439 190.032 109.056 195.672C109.672 201.311 109.261 218.424 109.261 218.424L112.165 222.098L113.693 218.169C113.693 218.169 112.591 201.175 111.297 195.098C110.003 189.022 107.591 182.347 107.591 182.347L106.076 182.773Z" fill="#303030"/>
<path d="M95.113 175.868L96.8689 173.555L105.239 178.702L103.891 181.689L95.113 175.868Z" fill="#E0F2FF"/>
<path d="M90.7867 179.348C87.2049 178.519 85.4778 181.56 84.9224 185.516C84.3653 189.473 85.307 210.285 86.0906 211.229C86.8742 212.17 92.1436 212.609 93.0099 211.004C93.8761 209.399 95.5188 191.538 95.4667 188.204C95.4146 184.871 94.9832 180.318 90.7867 179.348Z" fill="white"/>
<path d="M86.0848 211.55C85.95 215.536 94.6826 215.092 98.9366 214.671C103.191 214.251 115.449 211.841 115.449 211.841L115.245 207.466C115.245 207.466 103.985 205.576 92.2025 206.151C90.993 206.21 86.2214 207.493 86.0848 211.55Z" fill="white"/>
<path d="M123.671 212.325V212.321C123.73 211.901 123.415 211.511 122.97 211.452L119.499 211.002C119.052 210.945 118.637 211.243 118.576 211.667V211.671C118.516 212.091 118.831 212.481 119.276 212.539L122.747 212.988C123.196 213.047 123.611 212.749 123.671 212.325Z" fill="#EA9E6A"/>
<path d="M124.022 210.909V210.905C124.081 210.484 123.767 210.094 123.321 210.037L119.851 209.588C119.403 209.53 118.988 209.828 118.927 210.253V210.256C118.868 210.677 119.182 211.067 119.628 211.126L123.098 211.575C123.548 211.631 123.963 211.331 124.022 210.909Z" fill="#EA9E6A"/>
<path d="M124.276 209.51V209.506C124.335 209.086 124.02 208.696 123.575 208.637L120.104 208.187C119.657 208.13 119.242 208.428 119.181 208.852V208.856C119.121 209.276 119.436 209.666 119.881 209.726L123.352 210.175C123.801 210.232 124.216 209.934 124.276 209.51Z" fill="#EA9E6A"/>
<path d="M124.386 208.139V208.135C124.445 207.715 124.131 207.325 123.685 207.267L120.214 206.818C119.767 206.761 119.352 207.059 119.291 207.483V207.487C119.231 207.907 119.546 208.297 119.992 208.357L123.462 208.806C123.911 208.862 124.326 208.563 124.386 208.139Z" fill="#EA9E6A"/>
<path d="M112.006 207.546C112.006 207.546 117.574 206.026 118.704 206.038C119.835 206.051 124.024 207.393 124.024 207.393C124.024 207.393 122.496 208.603 122.5 209.561C122.504 210.519 122.753 212.99 122.753 212.99C122.753 212.99 118.942 213.439 117.189 213.108C115.437 212.778 113.791 212.07 113.791 212.07L112.006 207.546Z" fill="#EA9E6A"/>
<path d="M115.191 212.772L110.935 212.885L110.755 206.785L115.011 206.674L115.191 212.772Z" fill="#E6E6E6"/>
<path d="M95.1162 160.024C95.1162 160.024 94.5376 162.782 93.6983 163.74C92.859 164.696 91.8777 165.074 91.8777 165.074L92.5426 166.08C92.5426 166.08 93.6354 165.577 94.4585 164.472C95.2816 163.368 96.1496 161.01 96.3761 159.684C96.6007 158.358 95.1162 160.024 95.1162 160.024Z" fill="#97A2B4"/>
<path d="M105.499 152.625C105.499 152.625 101.396 147.327 95.2316 148.883C90.9614 149.961 88.9414 153.687 88.7293 156.129C88.5011 158.741 89.4194 161.523 89.4194 161.523C89.4194 161.523 94.8866 160.124 96.6766 159.253C98.4648 158.379 104.378 154.873 105.499 152.625Z" fill="#97A2B4"/>
<path d="M107.903 152.427C108.043 152.83 106.701 154.501 97.7183 158.905C90.1161 162.632 89.151 162.387 88.9982 162.113C88.8455 161.838 88.9551 161.643 89.417 161.523C89.8789 161.403 96.7658 159.192 100.916 156.482C105.063 153.772 105.067 152.055 105.067 152.055C105.067 152.055 107.666 151.746 107.903 152.427Z" fill="#66696E"/>
<path d="M91.1639 155.464C90.9231 153.885 91.3041 151.453 93.5416 149.503C90.1413 151.156 88.912 154.001 88.7269 156.129C88.4986 158.741 89.417 161.521 89.417 161.521C89.417 161.521 91.358 161.674 97.1288 158.742C94.167 159.325 91.5071 157.723 91.1639 155.464Z" fill="#66696F"/>
<path d="M34.7629 312.447L29.0442 310.979L29.3282 309.877L35.0469 311.346L34.7629 312.447Z" fill="#191919"/>
<path d="M31.5605 302.175C30.5325 303.065 29.4829 305.031 29.1594 305.978C28.7694 307.118 28.8072 309.743 29.5476 309.934C31.7096 310.489 34.2707 311.244 36.4201 312.126C38.5696 313.009 38.8805 315.999 44.7682 315.999C46.9176 315.999 49.396 315.899 49.396 315.173C49.396 310.257 44.6154 313 43.307 310.902C39.9966 305.595 37.3313 303.834 37.3313 303.834C37.3313 303.834 31.7726 301.994 31.5605 302.175Z" fill="#303030"/>
<path d="M78.2809 174.337C76.1656 177.793 69.3721 172.868 66.1767 170.295C62.9813 167.723 54.4409 159.29 54.4409 159.29L57.0451 155.682C57.0451 155.682 66.8542 160.004 76.3579 166.564C79.0573 168.427 80.4322 170.82 78.2809 174.337Z" fill="#00233F"/>
<path d="M51.9256 151.49L51.9238 151.494C51.6452 151.794 51.665 152.266 51.9651 152.543L54.3122 154.7C54.616 154.978 55.0922 154.959 55.3726 154.655L55.3744 154.651C55.653 154.351 55.6332 153.879 55.3331 153.602L52.9859 151.445C52.6822 151.167 52.2059 151.186 51.9256 151.49Z" fill="#EA9E6A"/>
<path d="M50.8749 152.425L50.8731 152.429C50.5946 152.729 50.6125 153.201 50.9145 153.478L53.2616 155.635C53.5653 155.913 54.0416 155.894 54.322 155.59L54.3238 155.586C54.6023 155.286 54.5844 154.814 54.2824 154.537L51.9353 152.38C51.6315 152.102 51.1553 152.121 50.8749 152.425Z" fill="#EA9E6A"/>
<path d="M49.9072 153.395L49.9054 153.398C49.6269 153.699 49.6466 154.171 49.9468 154.448L52.2939 156.605C52.5977 156.883 53.0739 156.863 53.3543 156.56L53.3561 156.556C53.6347 156.256 53.6149 155.783 53.3147 155.507L50.9676 153.35C50.6639 153.071 50.1858 153.091 49.9072 153.395Z" fill="#EA9E6A"/>
<path d="M49.0629 154.419L49.0611 154.423C48.7825 154.723 48.8005 155.196 49.1024 155.472L51.4496 157.629C51.7533 157.908 52.2296 157.888 52.51 157.584L52.5118 157.581C52.7903 157.28 52.7723 156.808 52.4704 156.531L50.1233 154.374C49.8195 154.096 49.3433 154.116 49.0629 154.419Z" fill="#EA9E6A"/>
<path d="M57.9989 161.317C57.9989 161.317 52.9847 159.624 52.1472 159.028C51.3079 158.429 48.9194 155.196 48.9194 155.196C48.9194 155.196 50.7346 155.036 51.2648 154.279C51.795 153.523 52.9829 151.443 52.9829 151.443C52.9829 151.443 56.0867 153.068 57.2135 154.24C58.3404 155.412 59.1797 156.824 59.1797 156.824L57.9989 161.317Z" fill="#EA9E6A"/>
<path d="M57.8138 154.903L60.9499 157.355L57.4544 162.229L54.0325 159.993L57.8138 154.903Z" fill="#002D56"/>
<path d="M53.294 189.735C55.1146 193.024 58.3783 192.497 61.4929 190.497C64.6075 188.496 78.4118 174.976 78.5412 173.79C78.6706 172.602 75.45 168.244 73.7589 168.558C72.0677 168.873 58.5832 178.572 56.3062 180.661C54.0309 182.749 51.1608 185.881 53.294 189.735Z" fill="#00233F"/>
<path d="M40.0111 167.253C40.0111 167.253 40.0542 178.096 39.4503 178.65C37.5705 180.375 30.529 182.089 29.3338 184.992C27.8853 188.511 37.4572 203.544 38.8537 208.596C40.2519 213.648 38.2336 221.675 37.6998 226.721C37.1661 231.768 53.2098 237.082 53.7867 237.053C54.3654 237.026 59.2107 232.045 60.0967 230.361C60.9827 228.677 59.4209 215.881 59.2664 212.604C59.1118 209.328 59.3275 197.813 59.4389 197.055C60.1865 191.994 58.7056 188.099 58.463 187.05C58.2204 185.998 58.1934 184.223 57.6291 183.57C56.5059 182.271 50.5283 180.77 50.4007 180.1C50.2731 179.43 49.0259 170.077 49.0259 170.077L40.0111 167.253Z" fill="#EA9E6A"/>
<path d="M39.4506 178.651L49.2184 183.869L50.4028 180.102C50.4028 180.102 55.5446 180.596 56.4162 181.906C57.2879 183.216 59.0258 187.788 59.3439 188.863C59.662 189.938 60.0556 194.943 59.8363 199.31C59.7087 201.866 59.9316 205.225 59.75 209.576C59.5955 213.302 60.4402 222.512 60.4402 222.512C60.4402 222.512 56.9069 222.827 51.4074 222.82C45.0399 222.812 37.6228 222.302 37.3263 222.081C36.0538 221.136 38.2374 211.051 37.9625 209.977C37.6893 208.9 28.9854 190.419 28.7428 187.956C28.5002 185.492 29.6881 183.802 31.5141 182.785C33.3418 181.764 39.4506 178.651 39.4506 178.651Z" fill="#002D56"/>
<path d="M32.8583 182.27C32.8583 182.27 30.6621 187.855 32.7684 190.465C34.8747 193.074 42.2469 203.309 44.6695 203.922C53.3231 206.115 46.9232 213.04 48.2963 218.21C48.8085 220.142 57.2572 222.505 57.2572 222.505L37.7646 222.06C35.2413 222.683 37.9282 209.893 36.8337 207.301C35.7392 204.709 30.0492 193.452 30.3583 189.672C30.5183 187.692 32.8583 182.27 32.8583 182.27Z" fill="#00233F"/>
<path d="M49.5704 174.132L39.8008 171.138L39.8385 176.833L42.8884 178.488L49.5704 174.132Z" fill="#C67B48"/>
<path d="M46.7395 155.841C43.7364 154.524 36.3409 154.9 34.5509 160.458C32.7608 166.017 35.7011 169.897 38.4113 171.996C40.5266 173.634 42.2771 174.34 45.3701 174.629C46.0009 174.689 51.2487 173.853 52.124 173.179C52.7224 172.717 51.5597 167.602 51.7645 167.556C51.9694 167.509 52.4187 167.025 52.3109 166.616C52.1545 166.017 50.3124 162.685 50.3268 162.263C50.3429 161.839 50.1812 157.351 46.7395 155.841Z" fill="#EA9E6A"/>
<path d="M48.8644 157.572C48.8644 157.572 44.3641 156.733 41.1256 162.621C40.4283 163.888 43.6758 167.157 43.541 167.592C43.3954 168.057 38.8341 165.994 39.1199 166.395C42.0314 170.467 41.3969 173.474 40.9926 173.645C39.7651 174.159 33.7085 169.076 33.8612 163.244C34.014 157.41 39.3859 154.999 40.8093 154.822C42.2308 154.643 46.3393 153.57 48.8644 157.572Z" fill="#8D3B26"/>
<path d="M41.6734 166.648C42.6079 167.942 43.4795 169.82 42.7768 170.318C42.0741 170.818 40.746 170.172 39.8114 168.878C38.8769 167.584 38.6882 166.13 39.3909 165.633C40.0918 165.135 40.737 165.354 41.6734 166.648Z" fill="#EA9E6A"/>
<path d="M56.992 312.647L51.0923 312.385L51.0434 313.485L56.9431 313.748L56.992 312.647Z" fill="#191919"/>
<path d="M51.6627 304.649C50.8432 305.696 50.2267 307.769 50.1063 308.728C49.9626 309.886 50.5467 312.368 51.3105 312.402C53.5408 312.501 56.2025 312.709 58.4885 313.122C60.7746 313.534 61.5761 314.896 67.4602 315.144C69.1765 315.216 72.2408 314.664 72.2408 313.96C72.2408 308.991 65.7672 311.433 64.0491 309.702C59.7052 305.324 57.6492 305.078 57.6492 305.078C57.6492 305.078 51.8316 304.433 51.6627 304.649Z" fill="#191919"/>
<path d="M42.2686 223.35C42.2686 223.35 42.6118 231.953 42.4609 235.397C42.3081 238.84 46.2763 249.589 47.9639 258.131C49.6533 266.674 50.4818 268.37 50.3129 270.422C50.1439 272.473 48.6756 280.444 48.7583 285.943C48.8409 291.443 50.0846 305.1 50.0846 305.1C50.0846 305.1 52.3509 306.345 55.1905 306.21C58.048 306.076 60.6073 304.938 60.6073 304.938C60.6073 304.938 62.4908 272.807 62.6453 269.407C62.746 267.207 62.6399 251.408 62.4458 239.077C62.3829 235.109 61.4592 223.736 61.3621 222.099L42.2686 223.35Z" fill="#00233F"/>
<path d="M35.8108 225.334C35.8108 225.334 35.5502 226.736 35.313 231.038C35.1207 234.525 35.6743 240.982 36.2458 249.78C36.8191 258.577 39.0566 266.032 38.3827 268.005C37.7069 269.978 33.3882 278.066 32.6657 283.592C31.9433 289.12 30.2646 302.905 30.2646 302.905C30.2646 302.905 32.229 304.708 34.9554 305.511C37.6817 306.313 40.3793 306.219 40.3793 306.219C40.3793 306.219 48.9071 274.056 50.7618 271.147C53.7218 266.504 52.7388 250.031 54.8954 239.165C55.3789 236.725 55.0464 236.66 55.6377 231.878C56.299 226.516 54.3185 219.373 54.3185 219.373L35.8108 225.334Z" fill="#002D56"/>
<path d="M48.6899 181.64L49.2165 183.869L44.071 181.151L48.6899 181.64Z" fill="#00233F"/>
<path d="M49.2163 183.869L49.8723 181.04L51.1214 181.921L49.2163 183.869Z" fill="#00233F"/>
<path d="M51.3052 180.321C51.3052 180.321 54.914 180.442 55.933 181.245C58.5066 183.272 60.6614 189.557 61.0083 193.941C61.357 198.324 63.8353 227.577 63.8353 227.577L58.9307 228.443L58.4149 219.412L53.7009 196.462C53.7009 196.462 53.8033 190.693 52.937 185.882C52.5668 183.829 51.3052 180.321 51.3052 180.321Z" fill="#FF8626"/>
<path d="M38.6955 163.523C38.6955 163.523 38.0414 166.292 37.1715 167.234C36.3017 168.175 35.3042 168.528 35.3042 168.528L35.9476 169.563C35.9476 169.563 37.0619 169.085 37.9173 167.994C38.7728 166.903 39.7092 164.549 39.9697 163.217C40.2321 161.883 38.6955 163.523 38.6955 163.523Z" fill="#CEE0FF"/>
<path d="M49.3365 156.348C49.3365 156.348 45.5408 150.211 38.6557 151.805C33.7404 152.942 32.6423 156.95 32.3637 159.409C32.0672 162.038 32.919 164.872 32.919 164.872C32.919 164.872 38.458 163.616 40.2822 162.788C42.1064 161.957 48.1486 158.586 49.3365 156.348Z" fill="#FF8626"/>
<path d="M51.6378 155.403C51.7689 155.813 50.7337 158.579 41.577 162.768C33.8274 166.314 32.6269 165.737 32.4813 165.457C32.3339 165.175 32.4507 164.982 32.918 164.873C33.3871 164.765 40.3764 162.729 44.6214 160.11C48.8682 157.491 48.9132 155.759 48.9132 155.759C48.9132 155.759 51.4167 154.709 51.6378 155.403Z" fill="#FF6E26"/>
<path d="M34.8349 158.808C34.6336 157.207 34.639 154.288 36.9394 152.383C33.4744 153.956 32.6045 157.266 32.3637 159.409C32.0672 162.038 32.919 164.872 32.919 164.872C32.919 164.872 34.869 165.082 40.7549 162.286C37.7571 162.791 35.1224 161.098 34.8349 158.808Z" fill="#FF6E26"/>
<path d="M38.1709 179.296L39.8387 176.833L48.69 181.64L47.4732 184.773L38.1709 179.296Z" fill="#1C5C92"/>
<path d="M49.8723 181.04L52.0308 183.281V180.321L50.4366 179.209L49.8723 181.04Z" fill="#1C5C92"/>
<path d="M50.3126 244.657H36.9504L36.5783 244.154L35.6042 243.813L36.9216 228.73L49.3044 228.493L50.3126 244.657Z" fill="#FF8626"/>
<path d="M48.969 243.813H35.605L36.3257 228.461H48.969V243.813Z" fill="#004877"/>
<path d="M36.9497 244.657L36.5776 244.154H49.4151L49.3037 228.493L50.3119 244.657H36.9497Z" fill="#BF5900"/>
<path d="M35.7683 183.951C33.3834 181.036 30.1125 182.368 27.2208 185.168C24.3309 187.966 12.2554 205.126 12.3075 206.37C12.3597 207.613 16.3513 211.28 18.0406 210.548C19.73 209.815 32.0751 196.634 34.0879 193.947C36.1026 191.261 38.563 187.366 35.7683 183.951Z" fill="#002D56"/>
<path d="M31.3159 182.927L37.6475 179.564C37.6475 179.564 42.8432 183.17 45.6559 186.047C50.6179 191.119 53.7002 196.464 53.7002 196.464L58.4142 219.414L58.93 228.445C58.93 228.445 53.3102 229.133 48.8189 229.277C40.124 229.556 34.0243 228.864 34.0243 228.864C34.0243 228.864 34.8834 213.002 34.7126 208.406C34.6497 206.71 33.0215 198.809 33.0215 198.809C33.0215 198.809 35.5178 196.424 34.7162 191.521C34.0297 187.327 31.3159 182.927 31.3159 182.927Z" fill="#FF8626"/>
<path d="M46.5911 207.326C43.9528 206.311 40.7178 201.279 38.9871 193.076C37.2546 184.874 32.9809 182.332 32.9809 182.332L34.8428 181.053L30.4863 182.719C30.4863 182.719 34.0304 187.327 34.717 191.523C35.5185 196.426 33.0222 198.811 33.0222 198.811C33.0222 198.811 34.6505 206.71 34.7134 208.408C34.8841 213.004 34.025 228.866 34.025 228.866C34.025 228.866 40.1248 229.556 48.8197 229.279C48.8538 229.277 48.8879 229.275 48.9221 229.275C48.9311 223.792 48.7657 208.162 46.5911 207.326Z" fill="#FF6E26"/>
<path d="M34.447 220.05C34.447 220.05 43.1347 220.821 52.446 220.316C61.7574 219.811 63.1214 219.145 63.1214 219.145L63.3856 222.275C63.3856 222.275 60.3142 223.009 49.7682 223.479C39.2221 223.95 34.314 223.048 34.314 223.048L34.447 220.05Z" fill="#CEE0FF"/>
<path d="M34.6137 214.053C34.6137 214.053 43.3014 214.824 52.6128 214.319C61.9241 213.814 62.6304 213.329 62.6304 213.329L62.9431 216.391C62.9431 216.391 60.4809 217.007 49.9349 217.478C39.3889 217.949 34.4807 217.047 34.4807 217.047L34.6137 214.053Z" fill="#CEE0FF"/>
<path d="M12.3844 206.172C9.73175 209.283 16.6258 214.209 20.1124 216.445C23.6008 218.68 34.42 224.166 34.42 224.166L37.0655 220.539C37.0655 220.539 29.7527 212.216 20.4683 205.55C19.5158 204.865 15.0838 203.007 12.3844 206.172Z" fill="#002D56"/>
<path d="M40.3341 229.523L40.3377 229.52C40.6522 229.219 40.663 228.714 40.3628 228.4L38.0247 225.941C37.7227 225.623 37.2177 225.612 36.9014 225.916L36.8978 225.918C36.5833 226.218 36.5725 226.723 36.8726 227.038L39.2108 229.496C39.5128 229.814 40.0178 229.825 40.3341 229.523Z" fill="#EA9E6A"/>
<path d="M41.5074 228.601L41.511 228.599C41.8255 228.299 41.8363 227.794 41.5362 227.48L39.198 225.021C38.8961 224.703 38.3911 224.692 38.0747 224.994L38.0711 224.998C37.7566 225.298 37.7459 225.803 38.046 226.117L40.3842 228.576C40.6843 228.892 41.1911 228.905 41.5074 228.601Z" fill="#EA9E6A"/>
<path d="M42.593 227.634L42.5966 227.631C42.9111 227.33 42.9219 226.825 42.6236 226.511L40.2854 224.052C39.9835 223.734 39.4785 223.723 39.1621 224.025L39.1586 224.029C38.844 224.329 38.8333 224.834 39.1316 225.149L41.4698 227.607C41.7717 227.927 42.2767 227.938 42.593 227.634Z" fill="#EA9E6A"/>
<path d="M43.5532 226.604L43.5568 226.601C43.8713 226.301 43.8821 225.796 43.5838 225.481L41.2456 223.023C40.9437 222.704 40.4387 222.694 40.1224 222.996L40.1188 222.999C39.8042 223.299 39.7935 223.804 40.0918 224.119L42.43 226.577C42.7319 226.896 43.2369 226.906 43.5532 226.604Z" fill="#EA9E6A"/>
<path d="M34.5633 218.643C34.5633 218.643 39.7501 220.793 40.5984 221.486C41.4466 222.18 43.7561 225.789 43.7561 225.789C43.7561 225.789 41.8259 225.832 41.2166 226.603C40.6055 227.372 39.2127 229.502 39.2127 229.502C39.2127 229.502 36.0406 227.557 34.9264 226.231C33.8121 224.905 33.0195 223.345 33.0195 223.345L34.5633 218.643Z" fill="#EA9E6A"/>
<path d="M37.3975 219.745L34.1052 217.261L30.3393 222.251L33.6316 224.736L37.3975 219.745Z" fill="#1C5C92"/>
<path d="M107.001 257.749L106.822 315.677L172.136 315.878L172.315 257.95L107.001 257.749Z" fill="#D3671E"/>
<path d="M191.91 258.053L139.62 257.852L139.478 315.78L191.766 315.981L191.91 258.053Z" fill="#F1A34F"/>
<path opacity="0.4" d="M139.478 257.843L191.903 258.044L191.856 276.462L139.334 315.769L139.478 257.843Z" fill="#D86713"/>
<path d="M67.1261 278.525L67.0112 315.747L108.98 315.876L109.095 278.654L67.1261 278.525Z" fill="#D3671E"/>
<path d="M121.685 278.72L88.0848 278.59L87.9932 315.812L121.592 315.942L121.685 278.72Z" fill="#F1A34F"/>
<path opacity="0.4" d="M88.0848 278.59L121.772 278.722L121.741 290.554L87.9932 315.812L88.0848 278.59Z" fill="#D86713"/>
</svg>
