<svg width="331" height="324" viewBox="0 0 331 324" fill="none" xmlns="http://www.w3.org/2000/svg">
<path d="M285.268 278.426C278.646 285.397 272.38 289.893 267.429 293.445C209.237 335.198 140.381 323.028 125.747 320.055C104.137 315.667 62.3668 307.183 32.167 271.668C-13.5221 217.938 -6.40817 133.288 29.0316 77.4089C35.5143 67.1877 69.7571 10.4575 139.354 1.3595C181.475 -4.14638 230.572 6.95791 266.128 36.7466C340.763 99.2766 335.45 225.596 285.268 278.426Z" fill="url(#paint0_linear)"/>
<path d="M30.0168 103.827C29.8376 103.759 29.7029 103.594 29.6888 103.394C29.6397 102.733 29.6034 102.06 29.5811 101.394C29.5717 101.12 29.7907 100.896 30.0683 100.891C30.7429 100.876 30.5602 101.549 30.6938 103.336C30.7148 103.609 30.5052 103.843 30.2276 103.86C30.1538 103.863 30.0824 103.853 30.0168 103.827Z" fill="#91B3FA"/>
<path d="M29.7811 95.1644C29.904 93.8971 30.0809 92.6205 30.3058 91.3673C30.3538 91.0979 30.615 90.9223 30.889 90.9738C31.6351 91.119 31.149 91.5395 30.7848 95.2733C30.7578 95.545 30.5119 95.7418 30.2355 95.7113C29.9544 95.6809 29.7553 95.4326 29.7811 95.1644ZM31.792 85.3285C32.1762 84.1093 32.6166 82.883 33.085 81.7259C33.3369 81.104 34.2645 81.508 34.022 82.1042C33.5559 83.2578 33.1307 84.4419 32.7548 85.6354C32.6728 85.8954 32.3905 86.0383 32.1246 85.954C31.8564 85.8673 31.7112 85.5862 31.792 85.3285ZM35.7847 76.124C36.4101 75.0172 37.0883 73.9221 37.8004 72.8668C38.1681 72.3234 39.0079 72.8832 38.6425 73.4243C37.9444 74.4573 37.2792 75.5313 36.6666 76.6147C36.3457 77.1851 35.4626 76.6932 35.7847 76.124ZM41.6747 68.6422C41.4639 68.4607 41.4393 68.148 41.6209 67.943C42.4653 66.9885 43.3613 66.0562 44.2807 65.1696C44.7539 64.714 45.4648 65.4273 44.9916 65.8829C44.0898 66.7507 43.2125 67.6654 42.3845 68.6001C42.2041 68.805 41.8856 68.8238 41.6747 68.6422ZM48.962 61.8258C48.7922 61.6068 48.8332 61.2964 49.0546 61.1324C50.0829 60.37 51.1546 59.6379 52.2403 58.9586C52.7989 58.6108 53.3494 59.447 52.7907 59.7972C51.7273 60.4637 50.6767 61.1804 49.6695 61.9277C49.4493 62.0905 49.1319 62.0448 48.962 61.8258ZM57.8059 56.8809C57.6876 56.8364 57.5857 56.7497 57.5271 56.6279C57.4053 56.3796 57.5096 56.0845 57.7602 55.9697C58.9279 55.4298 60.1308 54.9297 61.3359 54.4811C61.5948 54.385 61.8876 54.5139 61.9895 54.7704C62.0914 55.0269 61.9637 55.3127 61.7049 55.4087C60.5243 55.8467 59.3449 56.3375 58.2006 56.8669C58.0718 56.9266 57.93 56.9278 57.8059 56.8809ZM67.322 53.6085C67.1709 53.5511 67.0503 53.4258 67.007 53.2607C66.939 52.9948 67.1018 52.7278 67.3724 52.6645C68.6291 52.3706 69.9139 52.1223 71.1905 51.9267C71.4646 51.8845 71.7258 52.0696 71.7726 52.3401C71.8195 52.6107 71.6356 52.8636 71.3604 52.9058C70.1083 53.0979 68.8493 53.3415 67.6195 53.6296C67.5164 53.6519 67.4134 53.6425 67.322 53.6085ZM77.0162 51.8693C77.0044 51.5952 77.2199 51.368 77.4987 51.361C78.7929 51.327 80.1058 51.3434 81.4035 51.409C82.0711 51.4453 82.0313 52.4326 81.3661 52.3987C80.0953 52.3343 78.8081 52.3179 77.5409 52.3518C77.2633 52.3588 77.0279 52.1433 77.0162 51.8693ZM109.31 62.6339C106.291 60.3278 105.611 60.3653 106.026 59.7398C106.177 59.5115 106.489 59.4506 106.723 59.6016C107.813 60.3079 108.888 61.0657 109.921 61.8539C110.452 62.2591 109.843 63.0392 109.31 62.6339ZM87.1355 52.5287C87.1811 52.2593 87.44 52.0801 87.7152 52.1293C88.993 52.3565 90.279 52.6353 91.5392 52.9597C92.1869 53.126 91.9445 54.084 91.298 53.9177C90.0635 53.6003 88.8021 53.3263 87.5501 53.1037C87.2725 53.0546 87.0898 52.7945 87.1355 52.5287ZM100.747 57.3716C97.3297 55.7202 96.6656 55.8901 96.9397 55.1908C97.1142 54.747 97.6518 54.9133 97.5909 54.9156C98.8043 55.3923 100.012 55.9193 101.181 56.4839C101.432 56.6057 101.539 56.9032 101.418 57.1479C101.305 57.3822 101.016 57.497 100.747 57.3716Z" fill="#91B3FA"/>
<path d="M115.417 68.156C114.259 66.9192 113.54 66.501 114.022 66.029C114.217 65.837 114.536 65.8393 114.735 66.0361C115.983 67.267 116.61 67.7577 116.129 68.1911C115.985 68.3199 115.606 68.3574 115.417 68.156Z" fill="#91B3FA"/>
<path d="M128.902 104.272C128.7 104.196 128.561 103.998 128.574 103.776C128.609 103.125 128.631 102.467 128.638 101.817C128.642 101.543 128.87 101.327 129.149 101.336C129.426 101.344 129.65 101.571 129.647 101.844C129.638 102.506 129.616 103.178 129.581 103.843C129.566 104.116 129.329 104.322 129.052 104.304C128.998 104.3 128.947 104.289 128.902 104.272Z" fill="#91B3FA"/>
<path d="M60.9174 145.884C59.6209 145.354 58.3302 144.763 57.084 144.129C56.8357 144.002 56.735 143.702 56.8603 143.46C57.2128 142.776 57.4986 143.418 61.2934 144.97C61.5522 145.075 61.6775 145.365 61.5733 145.618C61.3917 146.06 60.8565 145.885 60.9174 145.884ZM67.0464 147.447C67.2373 146.703 67.6788 147.271 71.6902 147.981C71.9655 148.028 72.1505 148.288 72.106 148.556C72.0603 148.825 71.8015 149.004 71.5263 148.955C70.1536 148.713 68.7692 148.409 67.4118 148.052C67.1412 147.982 66.9796 147.71 67.0464 147.447ZM51.2057 140.622C50.0567 139.827 48.9265 138.973 47.8466 138.085C47.6311 137.908 47.6007 137.596 47.7775 137.387C48.2753 136.798 48.41 137.484 51.7784 139.815C52.008 139.974 52.0654 140.284 51.9072 140.506C51.748 140.729 51.4352 140.78 51.2057 140.622ZM78.1624 149.66C77.9656 149.585 77.8274 149.396 77.8333 149.178C77.8403 148.905 78.0722 148.692 78.3498 148.703C79.7189 148.758 81.1045 148.757 82.4678 148.699C82.7465 148.687 82.9843 148.899 83.0007 149.172C83.0171 149.446 82.8051 149.677 82.5275 149.688C81.1361 149.748 79.7224 149.749 78.324 149.693C78.2678 149.691 78.2127 149.679 78.1624 149.66ZM89.023 148.913C88.8638 148.853 88.7384 148.716 88.7021 148.539C88.6483 148.27 88.8251 148.012 89.0992 147.963C90.439 147.722 91.7859 147.421 93.1012 147.07C93.3694 146.998 93.6482 147.154 93.7255 147.419C93.8028 147.683 93.6482 147.955 93.38 148.026C92.0378 148.386 90.6628 148.693 89.2948 148.939C89.2011 148.955 89.1074 148.946 89.023 148.913ZM99.4187 145.84C99.2958 145.793 99.1892 145.699 99.1318 145.57C99.0194 145.319 99.1341 145.028 99.3895 144.92C100.64 144.396 101.884 143.812 103.085 143.186C103.329 143.059 103.635 143.152 103.769 143.393C103.902 143.636 103.812 143.935 103.567 144.062C102.341 144.701 101.072 145.296 99.7959 145.832C99.6717 145.885 99.537 145.884 99.4187 145.84ZM108.852 140.601C108.763 140.567 108.682 140.508 108.621 140.426C108.456 140.204 108.504 139.895 108.728 139.735C109.828 138.954 110.908 138.117 111.939 137.245C112.149 137.069 112.467 137.093 112.65 137.303C112.834 137.511 112.813 137.824 112.603 138.001C111.553 138.89 110.45 139.745 109.326 140.542C109.184 140.643 109.005 140.658 108.852 140.601ZM116.712 133.355C116.12 132.842 116.816 132.739 119.227 129.525C119.62 129.001 120.435 129.596 120.041 130.121C119.219 131.217 118.337 132.292 117.423 133.316C117.241 133.517 116.923 133.537 116.712 133.355ZM122.996 124.681C122.307 124.307 122.957 124.06 124.582 120.389C124.846 119.794 125.773 120.197 125.508 120.796C124.952 122.049 124.338 123.29 123.678 124.489C123.545 124.731 123.234 124.812 122.996 124.681ZM127.125 114.824C126.881 114.731 126.743 114.47 126.815 114.221C127.185 112.925 127.503 111.604 127.76 110.292C127.812 110.024 128.076 109.852 128.35 109.908C128.624 109.965 128.802 110.227 128.749 110.494C128.487 111.831 128.163 113.179 127.784 114.502C127.709 114.764 127.432 114.914 127.164 114.835C127.151 114.833 127.138 114.828 127.125 114.824Z" fill="#91B3FA"/>
<path d="M42.8566 133.379C41.6643 132.092 41.0635 131.575 41.5647 131.164C42.0859 130.737 42.3776 131.4 43.598 132.719C43.7865 132.922 43.7737 133.236 43.5699 133.418C43.3649 133.6 43.0463 133.583 42.8566 133.379Z" fill="#91B3FA"/>
<path d="M48.3675 120.853L55.5318 119.965C57.7149 122.532 60.3244 124.782 63.3005 126.594C63.5804 133.502 63.1096 134.007 63.8486 134.253L72.1057 137.004C72.3469 137.085 72.6116 137.006 72.7639 136.809L77.1126 131.196C80.5782 131.531 84.0111 131.294 87.2916 130.546L92.5035 135.556C92.6862 135.732 92.9603 135.775 93.1864 135.666L100.915 131.901C101.141 131.791 101.269 131.551 101.234 131.304L100.223 124.247C102.802 122.14 105.052 119.609 106.85 116.71L114.078 116.683C114.333 116.682 114.555 116.523 114.632 116.287L117.306 108.212C117.385 107.975 117.3 107.715 117.098 107.562L111.321 103.203C111.61 99.8014 111.317 96.4225 110.506 93.1864C115.302 88.1537 115.977 88.149 115.626 87.4685C111.622 80.0278 111.85 79.3942 111.065 79.4914L103.901 80.378C101.717 77.8107 99.108 75.5608 96.132 73.7489C95.8532 66.8446 96.3229 66.3375 95.5838 66.0904C87.3338 63.4985 87.137 62.9304 86.6697 63.5348L82.321 69.1484C78.8554 68.8134 75.4225 69.05 72.142 69.7984C67.012 65.0655 66.9441 64.3394 66.2472 64.679C58.6648 68.5394 58.0909 68.2794 58.1998 69.0418L59.2106 76.0984C56.6316 78.2054 54.3817 80.7364 52.5838 83.6363C45.6831 83.8038 45.0436 83.3213 44.8 84.0591C42.2982 92.0948 41.7091 92.3127 42.3345 92.7847L48.111 97.1439C47.8229 100.545 48.1157 103.924 48.9261 107.16C44.1464 112.176 43.4542 112.194 43.8068 112.878C47.8111 120.316 47.5839 120.95 48.3675 120.853Z" fill="#91B3FA"/>
<path d="M71.2726 99.4977C71.5795 94.9265 75.6178 91.5089 80.2734 91.8801C84.929 92.2526 88.4672 96.2722 88.1603 100.845C87.8523 105.416 83.8151 108.834 79.1596 108.462C74.5016 108.091 70.9646 104.069 71.2726 99.4977ZM79.2087 107.722L79.2134 107.724L79.2087 107.722ZM80.1738 93.3617C76.3943 93.0607 73.0376 95.8072 72.7811 99.6184C72.5281 103.373 75.4339 106.677 79.2579 106.981C83.082 107.285 86.3977 104.479 86.6506 100.724C86.9036 96.9644 83.9908 93.6651 80.1738 93.3617Z" fill="#BDD0FB"/>
<path d="M72.35 119.969C71.1764 119.526 70.0427 118.987 68.9687 118.359C68.6454 118.17 68.5131 117.785 68.6384 117.455C68.6536 117.415 68.6724 117.376 68.6946 117.339C68.9043 116.986 69.3681 116.874 69.7276 117.083C70.9633 117.806 72.2844 118.402 73.6547 118.86C83.9801 122.3 95.0797 117.103 98.8054 107.24C98.9002 106.989 98.9904 106.733 99.0759 106.476C102.525 96.0565 96.6621 84.821 86.0907 81.2968C75.5345 77.7797 64.114 83.2902 60.6695 93.6812C58.6222 99.8676 60.4118 104.018 60.1705 104.656C59.9105 105.344 58.8927 105.263 58.7241 104.544C57.8047 100.618 58.0096 96.3832 59.5217 92.38C66.0465 75.1058 90.6291 74.054 99.1954 90.6654C101.832 95.7777 102.3 101.562 100.514 106.956C100.422 107.235 100.324 107.511 100.221 107.785C98.3299 112.794 94.637 116.834 89.7425 119.217C84.581 121.732 78.7027 122.104 73.1886 120.268C72.9063 120.173 72.6276 120.073 72.35 119.969Z" fill="#BDD0FB"/>
<path d="M114.561 67.5664C114.452 67.5254 114.371 67.4247 114.361 67.3029C114.331 66.9024 114.31 66.4936 114.296 66.0895C114.29 65.9232 114.422 65.7862 114.591 65.7838C115 65.7745 114.89 66.1832 114.97 67.2678C114.983 67.4329 114.857 67.5758 114.688 67.5852C114.644 67.5887 114.6 67.5817 114.561 67.5664Z" fill="#91B3FA"/>
<path d="M114.416 62.3109C114.491 61.5426 114.598 60.7673 114.735 60.0071C114.764 59.8443 114.922 59.7366 115.089 59.7682C115.542 59.856 115.247 60.1114 115.025 62.3765C115.009 62.5416 114.86 62.6599 114.692 62.6424C114.522 62.6236 114.401 62.4737 114.416 62.3109ZM115.637 56.3436C115.87 55.6034 116.137 54.8596 116.421 54.1581C116.574 53.7809 117.137 54.0257 116.989 54.3876C116.706 55.088 116.448 55.806 116.221 56.5298C116.172 56.6879 116 56.7746 115.839 56.723C115.675 56.6703 115.588 56.5005 115.637 56.3436ZM118.059 50.7604C118.438 50.0893 118.849 49.424 119.282 48.7845C119.505 48.4554 120.015 48.7939 119.792 49.1219C119.368 49.7485 118.965 50.3996 118.594 51.0579C118.398 51.4045 117.863 51.1047 118.059 50.7604ZM121.632 46.2207C121.505 46.1107 121.489 45.9209 121.599 45.7968C122.112 45.2182 122.655 44.6525 123.213 44.1149C123.5 43.8385 123.931 44.2718 123.644 44.5471C123.097 45.0741 122.566 45.6281 122.063 46.195C121.953 46.3203 121.76 46.3308 121.632 46.2207ZM126.054 42.0864C125.95 41.9528 125.975 41.7654 126.11 41.6659C126.734 41.2033 127.384 40.7594 128.042 40.3471C128.382 40.1363 128.716 40.6434 128.376 40.8554C127.731 41.2595 127.094 41.694 126.482 42.1473C126.349 42.2468 126.157 42.2187 126.054 42.0864ZM131.418 39.0857C131.346 39.0588 131.284 39.0061 131.249 38.9323C131.175 38.7824 131.239 38.6032 131.391 38.5329C132.099 38.2049 132.829 37.9016 133.56 37.6299C133.717 37.5713 133.895 37.6498 133.957 37.8056C134.019 37.9613 133.942 38.1347 133.784 38.1932C133.067 38.4591 132.352 38.7566 131.658 39.0775C131.579 39.1138 131.494 39.115 131.418 39.0857ZM137.191 37.1005C137.099 37.0665 137.025 36.9892 137 36.8897C136.959 36.728 137.057 36.5664 137.221 36.5278C137.984 36.3497 138.762 36.1987 139.538 36.0804C139.704 36.0546 139.862 36.167 139.89 36.331C139.918 36.495 139.807 36.6484 139.641 36.6742C138.882 36.7901 138.118 36.9389 137.371 37.1134C137.309 37.1274 137.247 37.1216 137.191 37.1005ZM143.072 36.0452C143.065 35.8789 143.197 35.7407 143.365 35.7372C144.15 35.7161 144.948 35.7267 145.735 35.7665C146.14 35.7887 146.115 36.3872 145.712 36.3673C144.942 36.3275 144.161 36.3181 143.391 36.3392C143.222 36.3427 143.079 36.2115 143.072 36.0452ZM162.665 42.5759C160.833 41.1775 160.421 41.1997 160.672 40.8203C160.764 40.6821 160.952 40.6446 161.095 40.7371C161.757 41.1658 162.409 41.6249 163.036 42.1039C163.357 42.3487 162.987 42.8219 162.665 42.5759ZM149.211 36.4458C149.239 36.283 149.396 36.1741 149.562 36.2033C150.338 36.3415 151.118 36.5102 151.882 36.707C152.275 36.8077 152.128 37.3898 151.736 37.2879C150.986 37.0958 150.222 36.9295 149.463 36.7948C149.294 36.7644 149.184 36.6074 149.211 36.4458ZM157.469 39.3844C155.396 38.3818 154.992 38.4849 155.159 38.0609C155.265 37.7915 155.592 37.8922 155.554 37.8934C156.291 38.1827 157.023 38.5024 157.731 38.8444C157.884 38.9182 157.948 39.0986 157.875 39.2473C157.808 39.3902 157.632 39.4593 157.469 39.3844Z" fill="#91B3FA"/>
<path d="M166.37 45.9271C165.667 45.1763 165.231 44.9222 165.524 44.6364C165.642 44.5204 165.837 44.5216 165.956 44.6399C166.714 45.386 167.093 45.6846 166.802 45.947C166.715 46.0266 166.486 46.0489 166.37 45.9271Z" fill="#91B3FA"/>
<path d="M174.548 67.8345C174.426 67.7888 174.342 67.6681 174.349 67.5334C174.37 67.1387 174.383 66.7382 174.389 66.3446C174.391 66.1783 174.529 66.0483 174.698 66.0518C174.867 66.0565 175.002 66.1947 175 66.361C174.995 66.7628 174.981 67.1703 174.96 67.5733C174.951 67.7384 174.807 67.8637 174.638 67.8532C174.606 67.852 174.576 67.845 174.548 67.8345Z" fill="#91B3FA"/>
<path d="M133.306 93.0797C132.519 92.7576 131.737 92.3992 130.98 92.015C130.829 91.9377 130.768 91.7562 130.845 91.6098C131.059 91.1952 131.232 91.584 133.534 92.5257C133.691 92.5901 133.767 92.7658 133.704 92.9192C133.593 93.1863 133.269 93.0808 133.306 93.0797ZM137.025 94.0284C137.141 93.5774 137.408 93.9218 139.843 94.3528C140.011 94.3809 140.123 94.539 140.095 94.7018C140.068 94.8658 139.91 94.9735 139.743 94.9443C138.911 94.7967 138.071 94.6128 137.248 94.3973C137.081 94.3528 136.984 94.1876 137.025 94.0284ZM127.414 89.8869C126.717 89.4044 126.032 88.8867 125.376 88.348C125.246 88.2402 125.226 88.0505 125.334 87.924C125.636 87.5668 125.718 87.9825 127.761 89.3962C127.9 89.4922 127.935 89.6796 127.839 89.8155C127.743 89.9514 127.553 89.983 127.414 89.8869ZM143.768 95.3706C143.648 95.3249 143.565 95.2101 143.567 95.0778C143.572 94.9115 143.713 94.7826 143.881 94.7896C144.712 94.8236 145.553 94.8225 146.38 94.7873C146.548 94.7803 146.693 94.9091 146.703 95.0743C146.713 95.2406 146.585 95.38 146.416 95.3882C145.571 95.4245 144.714 95.4256 143.866 95.3905C143.832 95.3893 143.798 95.3823 143.768 95.3706ZM150.357 94.9173C150.261 94.881 150.184 94.7978 150.163 94.6913C150.13 94.5285 150.238 94.3715 150.403 94.3411C151.216 94.1947 152.033 94.012 152.831 93.7988C152.993 93.7555 153.162 93.8503 153.209 94.0108C153.256 94.1713 153.162 94.3364 152.999 94.3797C152.185 94.5976 151.351 94.7838 150.521 94.9337C150.465 94.9431 150.407 94.9372 150.357 94.9173ZM156.663 93.0527C156.588 93.0246 156.523 92.9672 156.49 92.8899C156.422 92.7377 156.491 92.5608 156.645 92.4964C157.404 92.1778 158.158 91.8241 158.887 91.4447C159.036 91.3674 159.221 91.4236 159.302 91.5711C159.382 91.7176 159.327 91.9003 159.18 91.9776C158.436 92.3652 157.667 92.726 156.892 93.0516C156.817 93.0808 156.735 93.0797 156.663 93.0527ZM162.387 89.8741C162.333 89.8541 162.284 89.8178 162.246 89.7686C162.145 89.634 162.175 89.4454 162.31 89.3494C162.978 88.875 163.634 88.3667 164.258 87.8385C164.385 87.7307 164.578 87.746 164.689 87.8725C164.8 87.9989 164.788 88.1887 164.661 88.2964C164.024 88.8352 163.355 89.354 162.674 89.8378C162.588 89.8998 162.479 89.9092 162.387 89.8741ZM167.155 85.4785C166.796 85.1669 167.218 85.1049 168.681 83.1548C168.918 82.8374 169.414 83.1981 169.175 83.5167C168.676 84.1819 168.141 84.8343 167.586 85.4551C167.476 85.578 167.282 85.5897 167.155 85.4785ZM170.967 80.2162C170.548 79.989 170.942 79.8403 171.928 77.6126C172.089 77.2519 172.651 77.4967 172.489 77.8597C172.153 78.6199 171.78 79.3729 171.38 80.1003C171.3 80.2467 171.112 80.2959 170.967 80.2162ZM173.472 74.2372C173.325 74.1809 173.24 74.0228 173.284 73.8717C173.508 73.0859 173.702 72.2836 173.857 71.4895C173.889 71.3267 174.05 71.2225 174.216 71.2564C174.382 71.2916 174.49 71.4497 174.458 71.6125C174.299 72.4241 174.102 73.2416 173.873 74.0439C173.827 74.2032 173.658 74.2934 173.496 74.2465C173.487 74.2418 173.479 74.2395 173.472 74.2372Z" fill="#91B3FA"/>
<path d="M122.349 85.4923C121.625 84.7111 121.261 84.3984 121.565 84.1489C121.882 83.8889 122.059 84.2918 122.799 85.0918C122.914 85.2159 122.905 85.4056 122.781 85.5157C122.657 85.627 122.463 85.6164 122.349 85.4923Z" fill="#91B3FA"/>
<path d="M125.694 77.8954L130.041 77.3567C131.365 78.9144 132.948 80.2789 134.754 81.3774C134.923 85.5681 134.638 85.8737 135.086 86.0237L140.096 87.6926C140.242 87.7418 140.402 87.6938 140.495 87.5743L143.132 84.1684C145.235 84.3711 147.317 84.2282 149.307 83.7749L152.469 86.8142C152.581 86.9208 152.747 86.9477 152.884 86.881L157.572 84.5971C157.709 84.5304 157.787 84.3851 157.766 84.2352L157.152 79.9544C158.717 78.6766 160.081 77.14 161.172 75.382L165.558 75.3656C165.711 75.3656 165.847 75.2684 165.894 75.1255L167.516 70.2263C167.563 70.0834 167.512 69.9253 167.389 69.8316L163.885 67.187C164.06 65.1233 163.883 63.0737 163.391 61.1107C166.3 58.0574 166.71 58.055 166.497 57.6416C164.068 53.1277 164.206 52.7436 163.731 52.8021L159.384 53.3409C158.06 51.7832 156.477 50.4187 154.671 49.3201C154.501 45.1319 154.787 44.8238 154.339 44.6739C149.334 43.101 149.215 42.7566 148.93 43.1232L146.292 46.5291C144.19 46.3253 142.108 46.4694 140.118 46.9226C137.006 44.0508 136.965 43.6104 136.542 43.8166C131.943 46.159 131.594 46.0009 131.66 46.4635L132.274 50.7443C130.709 52.0221 129.345 53.5587 128.255 55.3167C124.069 55.4186 123.681 55.1258 123.532 55.5732C122.014 60.4478 121.657 60.5802 122.037 60.866L125.541 63.5106C125.366 65.5742 125.543 67.6239 126.035 69.5868C123.135 72.6296 122.716 72.6402 122.929 73.056C125.356 77.5698 125.218 77.954 125.694 77.8954Z" fill="#91B3FA"/>
<path d="M139.59 64.9391C139.776 62.1657 142.226 60.0926 145.05 60.3175C147.874 60.5435 150.021 62.982 149.835 65.7554C149.648 68.5289 147.198 70.6019 144.374 70.377C141.548 70.1522 139.403 67.7114 139.59 64.9391ZM144.404 69.9285L144.406 69.9296L144.404 69.9285ZM144.989 61.217C142.697 61.0343 140.659 62.7009 140.505 65.0129C140.351 67.2909 142.114 69.2948 144.434 69.4787C146.754 69.6638 148.765 67.9608 148.919 65.6828C149.072 63.4013 147.305 61.4009 144.989 61.217Z" fill="#BDD0FB"/>
<path d="M140.244 77.358C139.532 77.0886 138.844 76.7619 138.193 76.3812C137.997 76.2665 137.917 76.0334 137.993 75.8331C138.002 75.8097 138.013 75.7863 138.027 75.7628C138.153 75.5497 138.435 75.4806 138.653 75.6082C139.403 76.0463 140.204 76.4082 141.036 76.6857C147.299 78.7729 154.034 75.6199 156.294 69.6362C156.351 69.484 156.407 69.3282 156.458 69.1724C158.551 62.8514 154.994 56.0361 148.58 53.8974C142.176 51.7635 135.249 55.1073 133.158 61.4108C131.915 65.1633 133.001 67.6815 132.856 68.068C132.698 68.4849 132.08 68.4369 131.979 68C131.421 65.6178 131.545 63.0493 132.462 60.6202C136.421 50.1402 151.334 49.503 156.531 59.5802C158.131 62.6815 158.414 66.1905 157.331 69.4629C157.274 69.6327 157.215 69.8002 157.153 69.9653C156.005 73.0046 153.764 75.4548 150.795 76.9012C147.665 78.4262 144.097 78.6534 140.752 77.5384C140.581 77.4822 140.411 77.4224 140.244 77.358Z" fill="#BDD0FB"/>
<path d="M115.974 209.762H70.6812C67.5072 209.762 64.5757 212.075 64.5757 213.679V312.001C64.5757 313.605 67.5061 315.185 70.6812 315.185H115.974C119.148 315.185 122.823 313.605 122.823 312.001V213.679C122.823 212.075 119.148 209.762 115.974 209.762Z" fill="#7D97F4"/>
<path d="M57.1546 245.813C57.1546 244.983 54.2921 244.125 51.1181 244.125H6.33787C3.16388 244.125 0.328369 244.983 0.328369 245.813V313.571C0.328369 314.401 3.16388 315.184 6.33787 315.184H51.1181C54.2921 315.184 57.1546 314.401 57.1546 313.571V245.813Z" fill="#7D97F4"/>
<path d="M314.798 84.9355C314.798 82.8952 311.384 81.3574 308.21 81.3574H262.878C259.704 81.3574 257.262 82.8964 257.262 84.9355V310.889C257.262 312.929 259.704 315.185 262.878 315.185H308.21C311.384 315.185 314.798 312.929 314.798 310.889V84.9355Z" fill="#7D97F4"/>
<path d="M186.479 169.476C186.479 167.973 183.742 166.584 180.567 166.584H135.787C132.613 166.584 130.363 167.973 130.363 169.476V312.298C130.363 313.801 132.613 315.185 135.787 315.185H180.567C183.741 315.185 186.479 313.801 186.479 312.298V169.476Z" fill="#7D97F4"/>
<path d="M250.235 125.35C250.235 123.664 247.72 122.543 244.547 122.543H199.766C196.592 122.543 194.119 123.665 194.119 125.35V312.275C194.119 313.962 196.591 315.186 199.766 315.186H244.547C247.72 315.186 250.235 313.962 250.235 312.275V125.35Z" fill="#7D97F4"/>
<path d="M246.542 82.3965L282.788 29.0406C283.841 27.4911 286.041 27.4747 287.115 29.0078L324.485 82.3637C325.771 84.199 324.513 86.7804 322.333 86.7804H248.717C246.555 86.7804 245.292 84.2365 246.542 82.3965Z" fill="#7D97F4"/>
<path d="M288.615 239.674C308.45 239.674 324.529 223.595 324.529 203.76C324.529 183.925 308.45 167.846 288.615 167.846C268.78 167.846 252.701 183.925 252.701 203.76C252.701 223.595 268.78 239.674 288.615 239.674Z" fill="#E9605A"/>
<path d="M288.502 238.524C307.678 238.524 323.223 222.979 323.223 203.804C323.223 184.628 307.678 169.083 288.502 169.083C269.326 169.083 253.781 184.628 253.781 203.804C253.781 222.979 269.326 238.524 288.502 238.524Z" fill="#F4A640"/>
<path opacity="0.78" d="M259.985 190.132C259.864 190.132 259.741 190.105 259.626 190.047C259.234 189.849 259.076 189.37 259.274 188.976C264.898 177.833 276.141 170.912 288.614 170.912C290.604 170.912 292.597 171.091 294.539 171.445C294.972 171.523 295.259 171.939 295.18 172.371C295.101 172.804 294.686 173.088 294.253 173.012C292.406 172.674 290.509 172.504 288.614 172.504C276.745 172.504 266.048 179.091 260.696 189.694C260.556 189.973 260.276 190.132 259.985 190.132Z" fill="white"/>
<path opacity="0.78" d="M310.146 225.295C321.622 213.82 321.622 195.214 310.146 183.738C298.671 172.262 280.065 172.262 268.589 183.738C257.113 195.214 257.113 213.82 268.589 225.295C280.065 236.771 298.671 236.771 310.146 225.295Z" fill="white"/>
<path d="M286.487 226.362V223.164C283.154 223.031 279.858 222.244 277.517 221.219C276.68 220.852 276.254 219.914 276.494 219.035L277.306 216.056C277.603 214.963 278.792 214.399 279.836 214.837C282.158 215.81 285.027 216.581 288.119 216.581C291.329 216.581 293.723 215.493 293.723 213.262C293.723 211.248 291.873 210.051 287.411 208.854C281.046 207.113 276.474 204.338 276.474 198.734C276.474 193.673 280.174 189.81 286.595 188.777V185.58C286.595 184.552 287.429 183.718 288.458 183.718H290.337C291.365 183.718 292.2 184.552 292.2 185.58V188.451C295.284 188.574 297.529 189.102 299.311 189.727C300.223 190.048 300.722 191.031 300.469 191.965L299.722 194.72C299.434 195.782 298.299 196.363 297.269 195.975C295.63 195.354 293.309 194.708 290.296 194.708C286.487 194.708 285.399 196.286 285.399 197.701C285.399 199.443 287.684 200.64 292.635 202.162C299.708 204.284 302.646 207.222 302.646 212.499C302.646 217.342 299.055 221.694 292.091 222.782V226.361C292.091 227.389 291.257 228.224 290.228 228.224H288.349C287.321 228.225 286.487 227.39 286.487 226.362Z" fill="#F4A640"/>
<path d="M323.376 263.173H253.855C253.619 263.173 253.429 262.982 253.429 262.748V250.195C253.429 249.959 253.62 249.77 253.855 249.77H323.376C323.611 249.77 323.801 249.96 323.801 250.195V262.748C323.802 262.982 323.611 263.173 323.376 263.173Z" fill="#F4A640"/>
<path d="M323.43 278.307H253.909C253.674 278.307 253.484 278.116 253.484 277.882V265.329C253.484 265.094 253.675 264.904 253.909 264.904H323.43C323.665 264.904 323.855 265.095 323.855 265.329V277.882C323.856 278.116 323.665 278.307 323.43 278.307Z" fill="#F4A640"/>
<path d="M323.486 293.442H253.965C253.73 293.442 253.54 293.251 253.54 293.016V280.463C253.54 280.228 253.731 280.038 253.965 280.038H323.486C323.722 280.038 323.912 280.229 323.912 280.463V293.016C323.912 293.251 323.721 293.442 323.486 293.442Z" fill="#F4A640"/>
<path d="M323.542 308.185H254.021C253.785 308.185 253.596 307.994 253.596 307.759V295.206C253.596 294.971 253.787 294.781 254.021 294.781H323.542C323.777 294.781 323.967 294.972 323.967 295.206V307.759C323.967 307.994 323.776 308.185 323.542 308.185Z" fill="#F4A640"/>
<path d="M323.596 322.926H254.075C253.84 322.926 253.65 322.735 253.65 322.501V309.948C253.65 309.713 253.841 309.523 254.075 309.523H323.596C323.832 309.523 324.021 309.714 324.021 309.948V322.501C324.021 322.735 323.832 322.926 323.596 322.926Z" fill="#F4A640"/>
<path d="M212.38 255.59C232.215 255.59 248.294 239.511 248.294 219.676C248.294 199.841 232.215 183.762 212.38 183.762C192.545 183.762 176.466 199.841 176.466 219.676C176.466 239.511 192.545 255.59 212.38 255.59Z" fill="url(#paint1_linear)"/>
<path d="M212.38 254.396C231.556 254.396 247.1 238.851 247.1 219.676C247.1 200.5 231.556 184.955 212.38 184.955C193.204 184.955 177.659 200.5 177.659 219.676C177.659 238.851 193.204 254.396 212.38 254.396Z" fill="#FEB546"/>
<path opacity="0.78" d="M183.75 206.05C183.629 206.05 183.506 206.023 183.391 205.965C182.999 205.767 182.841 205.288 183.039 204.894C188.663 193.751 199.905 186.83 212.379 186.83C214.371 186.83 216.364 187.009 218.304 187.362C218.737 187.441 219.024 187.857 218.945 188.289C218.866 188.722 218.45 189.009 218.018 188.93C216.172 188.593 214.275 188.422 212.379 188.422C200.51 188.422 189.812 195.009 184.461 205.612C184.321 205.89 184.041 206.05 183.75 206.05Z" fill="white"/>
<path opacity="0.78" d="M233.911 241.211C245.387 229.736 245.387 211.13 233.911 199.654C222.436 188.178 203.83 188.178 192.354 199.654C180.878 211.13 180.878 229.736 192.354 241.211C203.83 252.687 222.436 252.687 233.911 241.211Z" fill="white"/>
<path d="M210.254 242.279V239.081C206.921 238.948 203.625 238.161 201.284 237.136C200.447 236.769 200.021 235.831 200.261 234.952L201.073 231.973C201.37 230.88 202.559 230.316 203.604 230.754C205.926 231.727 208.794 232.498 211.886 232.498C215.097 232.498 217.491 231.41 217.491 229.179C217.491 227.165 215.641 225.968 211.179 224.771C204.814 223.03 200.242 220.255 200.242 214.651C200.242 209.59 203.942 205.727 210.363 204.694V201.497C210.363 200.469 211.197 199.635 212.226 199.635H214.105C215.133 199.635 215.968 200.469 215.968 201.497V204.368C219.052 204.491 221.297 205.019 223.079 205.644C223.991 205.965 224.49 206.948 224.237 207.882L223.49 210.637C223.202 211.699 222.067 212.28 221.037 211.892C219.397 211.271 217.077 210.625 214.064 210.625C210.255 210.625 209.167 212.203 209.167 213.618C209.167 215.359 211.452 216.555 216.403 218.079C223.476 220.201 226.414 223.139 226.414 228.416C226.414 233.259 222.823 237.611 215.859 238.699V242.278C215.859 243.306 215.025 244.141 213.996 244.141H212.117C211.088 244.141 210.254 243.307 210.254 242.279Z" fill="#FEB546"/>
<path d="M247.14 277.523H177.619C177.384 277.523 177.194 277.332 177.194 277.098V264.545C177.194 264.309 177.385 264.12 177.619 264.12H247.14C247.376 264.12 247.566 264.311 247.566 264.545V277.098C247.567 277.332 247.376 277.523 247.14 277.523Z" fill="#FEB546"/>
<path d="M247.197 292.657H177.676C177.441 292.657 177.251 292.466 177.251 292.232V279.679C177.251 279.444 177.442 279.254 177.676 279.254H247.197C247.433 279.254 247.623 279.445 247.623 279.679V292.232C247.623 292.466 247.432 292.657 247.197 292.657Z" fill="#FEB546"/>
<path d="M247.252 307.793H177.731C177.495 307.793 177.305 307.602 177.305 307.368V294.815C177.305 294.579 177.496 294.39 177.731 294.39H247.252C247.487 294.39 247.677 294.581 247.677 294.815V307.368C247.677 307.602 247.486 307.793 247.252 307.793Z" fill="#FEB546"/>
<path d="M247.307 322.926H177.786C177.55 322.926 177.361 322.735 177.361 322.501V309.948C177.361 309.712 177.552 309.522 177.786 309.522H247.307C247.542 309.522 247.732 309.713 247.732 309.948V322.501C247.732 322.735 247.542 322.926 247.307 322.926Z" fill="#FEB546"/>
<path d="M128.444 307.768C128.444 307.768 131.306 310.858 134.209 311.503C137.112 312.149 139.145 312.974 139.166 314.748C139.187 316.519 130.808 317.69 127.484 315.901C122.523 313.236 122.019 314.037 121.47 312.705C120.921 311.372 122.13 307.81 122.095 307.385C122.05 306.86 128.444 307.768 128.444 307.768Z" fill="#202338"/>
<path d="M99.2554 308.572C99.2554 308.572 101.361 311.579 104.175 312.273C106.95 312.956 108.749 314.258 108.887 315.98C109.022 317.703 102.342 319.957 97.6502 316.933C94.5674 314.945 93.4144 315.058 92.793 313.795C92.1716 312.531 93.1175 308.993 93.0553 308.582C92.976 308.078 99.2554 308.572 99.2554 308.572Z" fill="#202338"/>
<path d="M128.123 306.29C128.123 306.29 128.499 307.737 128.444 307.768C128.389 307.799 121.899 308.545 122.096 307.385C122.254 306.442 122.482 305.42 122.482 305.42L128.123 306.29Z" fill="#81807E"/>
<path d="M99.1701 307.084C99.1701 307.084 99.3082 308.537 99.2564 308.572C99.2046 308.606 93.0184 309.728 93.0563 308.586C93.0874 307.674 93.4499 306.542 93.4499 306.542L99.1701 307.084Z" fill="#81807E"/>
<path d="M122.223 219.686C122.223 219.686 124.584 241.842 125.81 249.426C127.246 258.295 127.733 265.624 128.13 270.212C128.634 275.984 128.731 304.385 129.083 306.073C129.435 307.761 121.267 306.539 121.267 306.539C121.267 306.539 117.249 269.432 115.75 263.283C114.356 257.56 109.174 232.911 107.9 234.472C106.626 236.035 105.045 263.235 104.103 267.75C103.16 272.266 100.292 307.616 100.292 307.616C100.292 307.616 93.7913 308.869 92.0617 307.454C92.0617 307.454 91.2747 276.988 91.8753 268.524C92.1032 265.296 87.964 229.842 93.2735 215.568C96.0732 208.028 122.223 219.686 122.223 219.686Z" fill="#292C47"/>
<path d="M81.7746 223.63C81.7746 223.63 85.755 224.812 87.4189 224.515C89.0863 224.214 88.244 204.179 88.3096 200.011C88.3613 196.631 90.2497 187.702 90.2497 187.702C90.2497 187.702 90.2497 187.705 90.2531 187.716C90.2566 187.719 90.2566 187.723 90.2566 187.726C90.2566 187.73 90.26 187.737 90.26 187.74C90.4464 188.408 92.9941 197.674 93.0839 202.125C93.1771 206.743 92 220 92 220L100.5 221H112L122 220C122 220 123.383 217.524 123.197 213.934C123.08 211.652 122.627 207.566 122.745 203.591C122.745 203.591 122.672 199.395 123.097 197.59C123.142 189.619 123.635 181.722 123.635 181.722C123.908 178.107 124.098 174.727 124.209 171.574C123.318 171.113 122.248 170.574 121.392 170.175C118.744 168.94 115.047 167.299 112.678 166.231C111.291 165.609 109.937 165.126 109.937 165.126C109.937 165.126 100.471 164.237 99.7017 164.282C99.46 164.296 98.2759 164.702 96.7224 165.28C93.3635 166.529 86.8942 169.069 85.862 169.797C84.3499 170.857 81.1532 196.057 81.0117 197.821C80.7493 201.005 81.7746 223.63 81.7746 223.63Z" fill="#AEC3FF"/>
<path d="M99.7461 164.272C100.44 170.441 107.527 170.441 107.527 170.441C107.527 170.441 110.462 167.959 110.365 166.126C110.361 166.088 110.362 166.047 110.355 166.005C110.313 165.667 109.916 165.249 109.875 164.569C109.864 164.386 109.861 164.2 109.861 164.013C109.864 163.544 109.892 163.081 109.92 162.76C109.944 162.481 109.968 162.294 109.968 162.294C109.968 162.294 108.825 161.131 107.375 159.746C104.838 157.323 101.351 154.216 101.348 155.448C101.348 155.514 101.358 155.593 101.379 155.683C101.99 158.466 99.7461 164.272 99.7461 164.272Z" fill="#EA9E6A"/>
<path d="M103.229 160.541C103.229 160.541 104.12 165.046 109.978 166.061C110.116 166.085 110.244 166.105 110.365 166.123C110.361 166.085 110.361 166.043 110.354 166.002C110.313 165.664 109.916 165.246 109.875 164.566C109.864 164.383 109.861 164.196 109.861 164.01C109.623 164.072 106.012 164.887 103.229 160.541Z" fill="#A77860"/>
<path d="M101.202 155.068C101.537 156.635 101.927 157.802 102.014 158.251C102.069 158.541 102.286 159.045 102.639 159.639C103.598 161.261 105.559 163.557 107.917 164.02C108.176 164.071 108.442 164.099 108.711 164.102C109.705 164.116 110.924 163.94 111.818 162.915C118.874 154.816 117.162 146.517 117.162 146.517C117.162 146.517 104.762 139.913 101.758 143.31C99.6559 145.696 100.419 151.388 101.202 155.068Z" fill="#EA9E6A"/>
<path d="M117.165 146.521C117.165 146.521 118.415 146.732 119.261 144.539C120.096 142.375 119.637 141.619 119.637 141.619C119.637 141.619 114.69 138.174 112.792 137.445C110.893 136.717 106.122 135.353 104.686 136.354C104.686 136.354 102.08 135.118 100.267 139.372C97.3915 146.12 101.006 154.109 101.006 154.109C101.006 154.109 102.062 149.517 103.253 149.145C104.444 148.772 105 150.418 105 150.418L107.051 151.268C107.051 151.268 105.428 143.759 109.384 144.381C113.344 145.002 114.839 146.414 117.165 146.521Z" fill="#323657"/>
<path d="M105.384 148.575C105.663 146.511 102.073 144.892 101.818 147.067C101.562 149.238 102.936 151.689 103.813 151.81C104.686 151.931 105.166 150.149 105.384 148.575Z" fill="#EA9E6A"/>
<path d="M80.5178 235.583C80.5178 235.583 80.8907 230.681 82.2439 229.939C83.6006 229.197 82.7997 230.705 82.7997 230.705C82.7997 230.705 81.9884 234.254 81.7986 235.697C81.7917 235.763 80.5178 235.583 80.5178 235.583Z" fill="#434343"/>
<path d="M93.9156 239.042L76.0438 233.86L75.7642 255.229L93.4634 265.841L93.9156 239.042Z" fill="#5A5C5A"/>
<path d="M93.4633 265.841L91.209 266.207L74 255.509L74.5523 233.936L76.0437 233.86L93.4633 265.841Z" fill="#5A5C5A"/>
<path d="M122.489 184.671C122.507 184.719 122.693 185.196 122.948 186.059C122.824 185.489 122.672 185.009 122.489 184.671Z" fill="#E2D2CA"/>
<path d="M104.58 167.903L107.5 170.5C107.5 170.5 104.124 170.223 103.486 169.674L104.58 167.903Z" fill="#AEC3FF"/>
<path d="M108.5 172.5C108 173 107 173 106.5 172.5C106 172 105.5 170 105.5 170L107.5 170.5L109.5 169C109.5 169 109 172 108.5 172.5Z" fill="#93A9E7"/>
<path d="M122.5 218.5C122.5 218.5 105.233 219.189 92 218C92 218 91.0002 222.5 91.5 223C91.9998 223.5 121.5 222.5 122.5 222C123.5 221.5 122.5 218.5 122.5 218.5Z" fill="#4E5067"/>
<path d="M128.537 197.029C128.537 197.029 125.651 197.195 123.97 197.14C122.669 197.098 119.189 198.531 118.495 199.301C117.801 200.071 116.393 204.351 115.958 204.7C115.523 205.049 116.355 205.577 117.145 205.125C117.145 205.125 118.247 206.982 120.038 205.946C121.83 204.914 123.553 203.668 124.509 203.229C125.465 202.791 130.723 200.699 130.723 200.699C130.723 200.699 129.96 196.318 128.537 197.029Z" fill="#EA9E6A"/>
<path d="M86.7629 224.702C86.7629 224.702 87.2497 226.832 87.9056 228.962C88.5615 231.092 89.1863 231.779 88.8895 232.99C88.6651 233.905 87.5811 234.578 87.3153 234.278C87.0495 233.981 86.9735 230.411 85.4442 230.405C83.9149 230.398 85.8309 234.827 84.9264 234.492C84.0219 234.157 80.5491 232.251 80.7976 230.456C81.0462 228.661 82.4685 227.384 82.4201 224.698C82.3752 222.261 83.1761 221.256 83.1761 221.256L86.7629 224.702Z" fill="#EA9E6A"/>
<path d="M85.5996 230.26C85.5996 230.26 87.626 230.791 87.4016 237.447L85.1025 237.043C85.1025 237.043 85.2026 233.363 84.5432 231.35C84.5467 231.347 84.6848 230.046 85.5996 230.26Z" fill="#5A5C5A"/>
<path d="M100.157 163.116C100.157 163.116 103.064 166.72 104.579 167.9L102.094 171.933L97.8062 164.88L100.157 163.116Z" fill="#93A9E7"/>
<path d="M110.151 168.563L107.527 170.437C107.527 170.437 109.83 166.374 109.875 164.565L110.151 168.563Z" fill="#AEC3FF"/>
<path d="M109.878 164.569L111.559 165.718L113.437 171.131L110.151 168.563L109.878 164.569Z" fill="#93A9E7"/>
<path d="M129.082 196.826L128.005 197.057C128.005 197.057 129.766 199.494 129.721 201.565L130.943 201.251C130.943 201.251 130.926 197.789 129.082 196.826Z" fill="#7A716D"/>
<path d="M143.758 195.234C139.805 197.965 130.882 203.233 130.882 203.233C130.882 203.233 129.998 197.233 129.083 196.826C129.083 196.826 135.19 192.445 137.071 190.498C137.071 190.498 130.681 186.293 126.483 183.459C125.448 182.762 124.588 182.171 124.046 181.788C123.874 181.667 123.736 181.567 123.635 181.491C121.92 180.193 117.097 173.344 113.852 166.875C113.852 166.875 122.189 169.198 125.486 171.677C129.452 174.66 132.09 177.19 133.146 177.905C134.206 178.623 146.064 187.426 146.561 188.793C147.055 190.16 147.714 192.504 143.758 195.234Z" fill="#AEC3FF"/>
<path d="M128.005 197.057C128.005 197.057 129.214 197.72 129.773 201.083C129.773 201.083 129.669 201.266 128.568 201.566C128.568 201.566 128.002 197.813 126.676 197.113C126.676 197.113 127.011 196.999 128.005 197.057Z" fill="#292C47"/>
<path d="M128.904 197.813L126.994 198.062C126.908 198.072 126.825 198.031 126.784 197.958L126.452 197.368C126.383 197.244 126.463 197.092 126.608 197.074L128.517 196.826C128.603 196.815 128.686 196.857 128.727 196.929L129.059 197.52C129.128 197.644 129.045 197.796 128.904 197.813Z" fill="#292C47"/>
<path d="M128.613 197.665L127.184 197.851C127.122 197.858 127.06 197.83 127.029 197.775L126.78 197.333C126.729 197.24 126.787 197.126 126.894 197.112L128.323 196.926C128.386 196.919 128.448 196.95 128.479 197.002L128.727 197.444C128.783 197.537 128.72 197.651 128.613 197.665Z" fill="#454A78"/>
<path d="M105 208.5L107 172.5H108L111.5 208.5L108 211.5L105 208.5Z" fill="#93A9E7"/>
<defs>
<linearGradient id="paint0_linear" x1="364.58" y1="419.627" x2="76.282" y2="61.5788" gradientUnits="userSpaceOnUse">
<stop stop-color="#DAE3FE"/>
<stop offset="1" stop-color="#E9EFFD"/>
</linearGradient>
<linearGradient id="paint1_linear" x1="163.235" y1="276.72" x2="211.407" y2="220.806" gradientUnits="userSpaceOnUse">
<stop stop-color="#FF7A00"/>
<stop offset="1" stop-color="#E9605A"/>
</linearGradient>
</defs>
</svg>
