<svg width="114" height="51" viewBox="0 0 114 51" fill="none" xmlns="http://www.w3.org/2000/svg">
<path d="M49.3331 2.07315H7.25924C4.35464 2.07315 2 4.31198 2 7.07371V32.0765C2 34.8382 4.35464 37.0771 7.25924 37.0771H49.3331C52.2377 37.0771 54.5924 34.8382 54.5924 32.0765V7.07371C54.5924 4.31198 52.2377 2.07315 49.3331 2.07315Z" stroke="black" stroke-width="2.70475" stroke-linecap="round" stroke-linejoin="round"/>
<path d="M17.7778 49.5784H38.8148" stroke="black" stroke-width="2.70475" stroke-linecap="round" stroke-linejoin="round"/>
<path d="M28.2964 37.077V49.5785" stroke="black" stroke-width="2.70475" stroke-linecap="round" stroke-linejoin="round"/>
<path d="M107.9 2.07315H87.3942C85.1291 2.07315 83.293 4.18404 83.293 6.78796V44.5065C83.293 47.1104 85.1291 49.2213 87.3942 49.2213H107.9C110.165 49.2213 112.001 47.1104 112.001 44.5065V6.78796C112.001 4.18404 110.165 2.07315 107.9 2.07315Z" stroke="black" stroke-width="2.25396" stroke-linecap="round" stroke-linejoin="round"/>
<circle cx="97.6245" cy="43.9759" r="2.45238" fill="black"/>
</svg>
