<svg width="105" height="57" viewBox="0 0 105 57" fill="none" xmlns="http://www.w3.org/2000/svg">
<path d="M81.2822 52.3702H81.2797C78.3027 52.3778 75.3544 51.8267 72.6043 50.7497C69.8541 49.6728 67.3577 48.0917 65.2567 46.0994C63.1558 44.1072 61.4919 41.7433 60.3575 39.1443C59.2233 36.5456 58.6401 33.7614 58.6401 30.951C58.6401 28.1406 59.2233 25.3565 60.3575 22.7577C61.4919 20.1588 63.1558 17.7948 65.2567 15.8026C67.3577 13.8104 69.8541 12.2293 72.6043 11.1523C75.3544 10.0753 78.3027 9.52429 81.2797 9.53187H81.2823C81.7209 9.53187 82.1582 9.54509 82.5944 9.56882L83.8342 9.63624L83.6359 8.41057L82.7433 2.89371L92.8973 12.5483L92.9822 12.629L93.0835 12.6879C97.284 15.1314 100.52 18.8068 102.31 23.1466C104.099 27.4856 104.347 32.2585 103.019 36.7423C101.691 41.2269 98.8556 45.1861 94.9328 48.011C91.0093 50.8365 86.2159 52.3698 81.2822 52.3702Z" stroke="black" stroke-width="2"/>
<path d="M20.4731 48.8062L21.3195 54.0371L11.5819 44.7786L11.497 44.6979L11.3957 44.639C7.34362 42.2818 4.22229 38.7366 2.49633 34.5507C0.770763 30.3658 0.530931 25.7624 1.81168 21.4378C3.09266 17.1124 5.82774 13.2935 9.61186 10.5685C13.3967 7.84296 18.0209 6.36375 22.7806 6.36334C28.573 6.36336 34.1186 8.55168 38.1998 12.4322C42.2793 16.311 44.5612 21.5608 44.5612 27.0235C44.5612 32.4862 42.2793 37.736 38.1998 41.6148C34.1186 45.4953 28.5729 47.6836 22.7805 47.6836C22.3573 47.6836 21.9356 47.6709 21.5146 47.648L20.2747 47.5805L20.4731 48.8062Z" stroke="black" stroke-width="2"/>
<path d="M30.11 32.8034L23.347 18.6567C23.2395 18.4319 23.0663 18.2412 22.8479 18.1076C22.6296 17.9739 22.3753 17.9028 22.1156 17.9028C21.8559 17.9028 21.6017 17.9739 21.3833 18.1076C21.165 18.2412 20.9917 18.4319 20.8843 18.6567L14.1213 32.8034C13.9728 33.114 13.9602 33.4678 14.0861 33.7872C14.212 34.1066 14.4663 34.3653 14.7928 34.5065C15.1194 34.6477 15.4916 34.6597 15.8275 34.54C16.1634 34.4202 16.4355 34.1785 16.584 33.868L18.0682 30.7636H26.1631L27.6472 33.868C27.7957 34.1785 28.0678 34.4202 28.4037 34.54C28.7397 34.6597 29.1118 34.6477 29.4384 34.5065C29.765 34.3653 30.0192 34.1066 30.1452 33.7872C30.2711 33.4678 30.2585 33.114 30.11 32.8034ZM19.2977 28.1914L22.1156 22.2969L24.9336 28.1914H19.2977Z" fill="black"/>
<path d="M90.6729 26.2174V28.3429H87.7262V44.091H85.2142V36.6517L81.8811 36.6276C82.0421 37.0945 82.1226 37.5856 82.1226 38.1009C82.1226 39.5018 81.6717 40.629 80.77 41.4824C79.8683 42.3358 78.6767 42.7626 77.1953 42.7626C76.1325 42.7626 75.1825 42.5532 74.3452 42.1346C73.5239 41.7159 72.8798 41.1362 72.4129 40.3955C71.962 39.6387 71.7366 38.7772 71.7366 37.8111H74.1036C74.1036 38.6162 74.3693 39.2844 74.9007 39.8158C75.4482 40.3311 76.1567 40.5887 77.0262 40.5887C77.8796 40.5887 78.5559 40.3391 79.0551 39.84C79.5543 39.3408 79.8039 38.6806 79.8039 37.8594C79.8039 37.3924 79.7153 36.9818 79.5382 36.6276H79.4899V36.5068C78.9746 35.589 78.0648 35.13 76.7605 35.13H75.7702V33.077H76.7605C77.6461 33.077 78.3305 32.8435 78.8136 32.3765C79.3127 31.8935 79.5623 31.3218 79.5623 30.6616C79.5623 29.9048 79.3127 29.301 78.8136 28.8501C78.3305 28.3831 77.7186 28.1497 76.9779 28.1497C76.205 28.1497 75.5528 28.3751 75.0215 28.826C74.5062 29.2607 74.2485 29.8485 74.2485 30.5892H71.9056C71.9056 29.6713 72.115 28.8662 72.5336 28.1738C72.9684 27.4814 73.5722 26.95 74.3452 26.5797C75.1181 26.1932 75.9956 26 76.9779 26C78.4271 26 79.5945 26.3945 80.4802 27.1835C81.3819 27.9725 81.8327 29.0192 81.8327 30.3235C81.8327 31.2413 81.5912 32.0303 81.1081 32.6905C80.6251 33.3346 79.9246 33.7774 79.0068 34.019V34.0673C79.4577 34.1639 79.8763 34.3249 80.2628 34.5504H85.2142V26.2174H90.6729Z" fill="black"/>
</svg>
