<svg width="186" height="240" viewBox="0 0 186 240" fill="none" xmlns="http://www.w3.org/2000/svg">
<path d="M39.8146 27.1095C39.8146 17.6203 39.8146 12.8757 41.6613 9.25127C43.2857 6.06316 45.8777 3.47115 49.0659 1.84672C52.6903 0 57.4349 0 66.9241 0H129.191C138.68 0 143.425 0 147.049 1.84672C150.237 3.47115 152.829 6.06316 154.454 9.25127C156.301 12.8757 156.301 17.6203 156.301 27.1095V61.4199H156.789C156.969 61.4199 157.115 61.5658 157.115 61.7457V89.4417C157.115 89.6217 156.969 89.7676 156.789 89.7676H156.301V211.891C156.301 221.38 156.301 226.124 154.454 229.749C152.829 232.937 150.237 235.529 147.049 237.153C143.425 239 138.68 239 129.191 239H66.9241C57.4349 239 52.6903 239 49.0659 237.153C45.8777 235.529 43.2857 232.937 41.6613 229.749C39.8146 226.124 39.8146 221.38 39.8146 211.891V95.4697H39.3258C39.1459 95.4697 39 95.3238 39 95.1438V77.5487C39 77.3688 39.1459 77.2229 39.3258 77.2229H39.8146V73.15H39.3258C39.1459 73.15 39 73.0041 39 72.8241V55.229C39 55.0491 39.1459 54.9032 39.3258 54.9032H39.8146V47.2461H39.3258C39.1459 47.2461 39 47.1002 39 46.9202V38.1227C39 37.9427 39.1459 37.7969 39.3258 37.7969H39.8146V27.1095Z" fill="#7A602C"/>
<g style="mix-blend-mode:multiply">
<mask id="mask0" mask-type="alpha" maskUnits="userSpaceOnUse" x="39" y="0" width="118" height="239">
<path d="M39.8145 27.1095C39.8145 17.6203 39.8145 12.8757 41.6612 9.25127C43.2856 6.06316 45.8776 3.47115 49.0657 1.84672C52.6901 0 57.4347 0 66.9239 0H129.191C138.68 0 143.425 0 147.049 1.84672C150.237 3.47115 152.829 6.06316 154.454 9.25127C156.3 12.8757 156.3 17.6203 156.3 27.1095V211.891C156.3 221.38 156.3 226.124 154.454 229.749C152.829 232.937 150.237 235.529 147.049 237.153C143.425 239 138.68 239 129.191 239H66.9239C57.4347 239 52.6901 239 49.0657 237.153C45.8776 235.529 43.2856 232.937 41.6612 229.749C39.8145 226.124 39.8145 221.38 39.8145 211.891V27.1095Z" fill="black"/>
</mask>
<g mask="url(#mask0)">
<g filter="url(#filter0_i)">
<path d="M39.8145 27.1095C39.8145 17.6203 39.8145 12.8757 41.6612 9.25127C43.2856 6.06316 45.8776 3.47115 49.0657 1.84672C52.6901 0 57.4347 0 66.9239 0H129.191C138.68 0 143.425 0 147.049 1.84672C150.237 3.47115 152.829 6.06316 154.454 9.25127C156.3 12.8757 156.3 17.6203 156.3 27.1095V211.891C156.3 221.38 156.3 226.124 154.454 229.749C152.829 232.937 150.237 235.529 147.049 237.153C143.425 239 138.68 239 129.191 239H66.9239C57.4347 239 52.6901 239 49.0657 237.153C45.8776 235.529 43.2856 232.937 41.6612 229.749C39.8145 226.124 39.8145 221.38 39.8145 211.891V27.1095Z" fill="#EBEBEB"/>
</g>
<rect x="39.1631" y="20.3647" width="2.7696" height="2.28085" fill="url(#paint0_linear)"/>
<rect x="39.1631" y="217.332" width="2.7696" height="2.28085" fill="url(#paint1_linear)"/>
<rect x="154.183" y="20.3647" width="2.7696" height="2.28085" fill="url(#paint2_linear)"/>
<rect x="154.183" y="217.332" width="2.7696" height="2.28085" fill="url(#paint3_linear)"/>
<rect x="131.537" y="-1.14044" width="2.7696" height="2.28085" transform="rotate(90 131.537 -1.14044)" fill="url(#paint4_linear)"/>
<rect x="62.949" y="236.882" width="2.7696" height="2.28085" transform="rotate(90 62.949 236.882)" fill="url(#paint5_linear)"/>
</g>
<path d="M41.1584 26.5881C41.1584 22.1622 41.1584 18.8452 41.3736 16.2121C41.5887 13.5794 42.0186 11.6339 42.8764 9.95042C44.3876 6.98456 46.7989 4.57324 49.7648 3.06206C51.4483 2.20426 53.3937 1.77434 56.0264 1.55924C58.6596 1.34411 61.9765 1.34407 66.4025 1.34407H129.712C134.138 1.34407 137.455 1.34411 140.088 1.55924C142.721 1.77434 144.666 2.20426 146.35 3.06206C149.316 4.57324 151.727 6.98456 153.238 9.95042C154.096 11.6339 154.526 13.5794 154.741 16.2121C154.956 18.8452 154.956 22.1622 154.956 26.5881V212.412C154.956 216.838 154.956 220.155 154.741 222.788C154.526 225.421 154.096 227.366 153.238 229.05C151.727 232.015 149.316 234.427 146.35 235.938C144.666 236.796 142.721 237.226 140.088 237.441C137.455 237.656 134.138 237.656 129.712 237.656H66.4025C61.9765 237.656 58.6596 237.656 56.0264 237.441C53.3937 237.226 51.4483 236.796 49.7648 235.938C46.7989 234.427 44.3876 232.015 42.8764 229.05C42.0186 227.366 41.5887 225.421 41.3736 222.788C41.1584 220.155 41.1584 216.838 41.1584 212.412V26.5881Z" fill="black" stroke="url(#paint6_linear)" stroke-width="0.0814588"/>
<g filter="url(#filter1_ii)">
<path d="M39 38.1227C39 37.9428 39.1459 37.7969 39.3258 37.7969H39.8146V47.2461H39.3258C39.1459 47.2461 39 47.1002 39 46.9203V38.1227Z" fill="url(#paint7_linear)"/>
</g>
<g filter="url(#filter2_ii)">
<path d="M39 55.229C39 55.0491 39.1459 54.9032 39.3258 54.9032H39.8146V73.15H39.3258C39.1459 73.15 39 73.0041 39 72.8241V55.229Z" fill="url(#paint8_linear)"/>
</g>
<g filter="url(#filter3_ii)">
<path d="M156.3 61.4199H156.789C156.969 61.4199 157.115 61.5658 157.115 61.7458V89.4417C157.115 89.6217 156.969 89.7676 156.789 89.7676H156.3V61.4199Z" fill="url(#paint9_linear)"/>
</g>
<g filter="url(#filter4_ii)">
<path d="M39 77.5487C39 77.3688 39.1459 77.2229 39.3258 77.2229H39.8146V95.4697H39.3258C39.1459 95.4697 39 95.3238 39 95.1438V77.5487Z" fill="url(#paint10_linear)"/>
</g>
</g>
<g style="mix-blend-mode:screen">
<mask id="mask1" mask-type="alpha" maskUnits="userSpaceOnUse" x="39" y="0" width="118" height="239">
<path d="M39.8145 27.1095C39.8145 17.6203 39.8145 12.8757 41.6612 9.25127C43.2856 6.06316 45.8776 3.47115 49.0657 1.84672C52.6901 0 57.4347 0 66.9239 0H129.191C138.68 0 143.425 0 147.049 1.84672C150.237 3.47115 152.829 6.06316 154.454 9.25127C156.3 12.8757 156.3 17.6203 156.3 27.1095V211.891C156.3 221.38 156.3 226.124 154.454 229.749C152.829 232.937 150.237 235.529 147.049 237.153C143.425 239 138.68 239 129.191 239H66.9239C57.4347 239 52.6901 239 49.0657 237.153C45.8776 235.529 43.2856 232.937 41.6612 229.749C39.8145 226.124 39.8145 221.38 39.8145 211.891V27.1095Z" fill="black"/>
</mask>
<g mask="url(#mask1)">
<g filter="url(#filter5_ii)">
<path d="M39.8145 27.1095C39.8145 17.6203 39.8145 12.8757 41.6612 9.25127C43.2856 6.06316 45.8776 3.47115 49.0657 1.84672C52.6901 0 57.4347 0 66.9239 0H129.191C138.68 0 143.425 0 147.049 1.84672C150.237 3.47115 152.829 6.06316 154.454 9.25127C156.3 12.8757 156.3 17.6203 156.3 27.1095V211.891C156.3 221.38 156.3 226.124 154.454 229.749C152.829 232.937 150.237 235.529 147.049 237.153C143.425 239 138.68 239 129.191 239H66.9239C57.4347 239 52.6901 239 49.0657 237.153C45.8776 235.529 43.2856 232.937 41.6612 229.749C39.8145 226.124 39.8145 221.38 39.8145 211.891V27.1095Z" fill="#050505"/>
</g>
<path d="M39.9774 27.1095C39.9774 22.3622 39.9775 18.8115 40.2077 15.9943C40.4377 13.1791 40.8966 11.1106 41.8063 9.32523C43.4151 6.16778 45.9822 3.60069 49.1397 1.99188C50.9251 1.08217 52.9935 0.623234 55.8088 0.393217C58.626 0.163044 62.1766 0.162918 66.9239 0.162918H129.191C133.938 0.162918 137.489 0.163044 140.306 0.393217C143.121 0.623234 145.19 1.08217 146.975 1.99188C150.133 3.60069 152.7 6.16778 154.309 9.32523C155.218 11.1106 155.677 13.1791 155.907 15.9943C156.137 18.8115 156.138 22.3622 156.138 27.1095V211.891C156.138 216.638 156.137 220.188 155.907 223.006C155.677 225.821 155.218 227.889 154.309 229.675C152.7 232.832 150.133 235.399 146.975 237.008C145.19 237.918 143.121 238.377 140.306 238.607C137.489 238.837 133.938 238.837 129.191 238.837H66.9239C62.1766 238.837 58.626 238.837 55.8088 238.607C52.9935 238.377 50.9251 237.918 49.1397 237.008C45.9822 235.399 43.4151 232.832 41.8063 229.675C40.8966 227.889 40.4377 225.821 40.2077 223.006C39.9775 220.188 39.9774 216.638 39.9774 211.891V27.1095Z" stroke="url(#paint11_linear)" stroke-width="0.325835"/>
<rect x="39.1631" y="20.3647" width="2.7696" height="2.28085" fill="url(#paint12_linear)"/>
<rect x="39.1631" y="217.332" width="2.7696" height="2.28085" fill="url(#paint13_linear)"/>
<rect x="154.183" y="20.3647" width="2.7696" height="2.28085" fill="url(#paint14_linear)"/>
<rect x="154.183" y="217.332" width="2.7696" height="2.28085" fill="url(#paint15_linear)"/>
<rect x="131.537" y="-1.14044" width="2.7696" height="2.28085" transform="rotate(90 131.537 -1.14044)" fill="url(#paint16_linear)"/>
<rect x="62.949" y="236.882" width="2.7696" height="2.28085" transform="rotate(90 62.949 236.882)" fill="url(#paint17_linear)"/>
</g>
<path d="M41.1584 26.5881C41.1584 22.1622 41.1584 18.8452 41.3736 16.2121C41.5887 13.5794 42.0186 11.6339 42.8764 9.95042C44.3876 6.98456 46.7989 4.57324 49.7648 3.06206C51.4483 2.20426 53.3937 1.77434 56.0264 1.55924C58.6596 1.34411 61.9765 1.34407 66.4025 1.34407H129.712C134.138 1.34407 137.455 1.34411 140.088 1.55924C142.721 1.77434 144.666 2.20426 146.35 3.06206C149.316 4.57324 151.727 6.98456 153.238 9.95042C154.096 11.6339 154.526 13.5794 154.741 16.2121C154.956 18.8452 154.956 22.1622 154.956 26.5881V212.412C154.956 216.838 154.956 220.155 154.741 222.788C154.526 225.421 154.096 227.366 153.238 229.05C151.727 232.015 149.316 234.427 146.35 235.938C144.666 236.796 142.721 237.226 140.088 237.441C137.455 237.656 134.138 237.656 129.712 237.656H66.4025C61.9765 237.656 58.6596 237.656 56.0264 237.441C53.3937 237.226 51.4483 236.796 49.7648 235.938C46.7989 234.427 44.3876 232.015 42.8764 229.05C42.0186 227.366 41.5887 225.421 41.3736 222.788C41.1584 220.155 41.1584 216.838 41.1584 212.412V26.5881Z" fill="black" stroke="url(#paint18_linear)" stroke-width="0.0814588"/>
<path d="M46.7243 11.914C45.5168 14.2838 45.5168 17.386 45.5168 23.5905V215.41C45.5168 221.614 45.5168 224.716 46.7243 227.086C47.7864 229.171 49.4812 230.865 51.5658 231.928C53.9355 233.135 57.0378 233.135 63.2423 233.135H132.873C139.078 233.135 142.18 233.135 144.55 231.928C146.634 230.865 148.329 229.171 149.391 227.086C150.599 224.716 150.599 221.614 150.599 215.41V23.5905C150.599 17.386 150.599 14.2838 149.391 11.914C148.329 9.82942 146.634 8.13465 144.55 7.07252C142.18 5.86505 139.078 5.86505 132.873 5.86505H127.428C127.158 5.86505 127.024 5.86505 126.916 5.90435C126.735 5.97023 126.592 6.11283 126.526 6.29384C126.487 6.40181 126.487 6.53666 126.487 6.80635C126.487 8.96389 126.487 10.0427 126.172 10.9065C125.645 12.3546 124.505 13.4953 123.057 14.0224C122.193 14.3368 121.114 14.3368 118.956 14.3368H77.159C75.0015 14.3368 73.9227 14.3368 73.0589 14.0224C71.6108 13.4953 70.4701 12.3546 69.943 10.9065C69.6286 10.0427 69.6286 8.96389 69.6286 6.80635C69.6286 6.53666 69.6286 6.40181 69.5893 6.29384C69.5235 6.11283 69.3809 5.97023 69.1999 5.90435C69.0919 5.86505 68.957 5.86505 68.6873 5.86505H63.2423C57.0378 5.86505 53.9355 5.86505 51.5658 7.07252C49.4812 8.13465 47.7864 9.82942 46.7243 11.914Z" fill="black"/>
<g filter="url(#filter6_iiii)">
<path d="M39 38.1227C39 37.9428 39.1459 37.7969 39.3258 37.7969H39.8146V47.2461H39.3258C39.1459 47.2461 39 47.1002 39 46.9203V38.1227Z" fill="url(#paint19_linear)"/>
</g>
<g filter="url(#filter7_iiii)">
<path d="M39 55.229C39 55.0491 39.1459 54.9032 39.3258 54.9032H39.8146V73.15H39.3258C39.1459 73.15 39 73.0041 39 72.8241V55.229Z" fill="url(#paint20_linear)"/>
</g>
<g filter="url(#filter8_iiii)">
<path d="M156.3 61.4199H156.789C156.969 61.4199 157.115 61.5658 157.115 61.7458V89.4417C157.115 89.6217 156.969 89.7676 156.789 89.7676H156.3V61.4199Z" fill="url(#paint21_linear)"/>
</g>
<g filter="url(#filter9_iiii)">
<path d="M39 77.5487C39 77.3688 39.1459 77.2229 39.3258 77.2229H39.8146V95.4697H39.3258C39.1459 95.4697 39 95.3238 39 95.1438V77.5487Z" fill="url(#paint22_linear)"/>
</g>
</g>
<mask id="mask2" mask-type="alpha" maskUnits="userSpaceOnUse" x="45" y="5" width="106" height="229">
<path d="M46.7243 11.914C45.5168 14.2838 45.5168 17.386 45.5168 23.5905V215.41C45.5168 221.614 45.5168 224.716 46.7243 227.086C47.7864 229.171 49.4812 230.865 51.5658 231.928C53.9355 233.135 57.0378 233.135 63.2423 233.135H132.873C139.078 233.135 142.18 233.135 144.55 231.928C146.634 230.865 148.329 229.171 149.391 227.086C150.599 224.716 150.599 221.614 150.599 215.41V23.5905C150.599 17.386 150.599 14.2838 149.391 11.914C148.329 9.82942 146.634 8.13465 144.55 7.07252C142.18 5.86505 139.078 5.86505 132.873 5.86505H127.428C127.158 5.86505 127.024 5.86505 126.916 5.90435C126.735 5.97023 126.592 6.11283 126.526 6.29384C126.487 6.40181 126.487 6.53666 126.487 6.80635C126.487 8.96389 126.487 10.0427 126.172 10.9065C125.645 12.3546 124.505 13.4953 123.057 14.0224C122.193 14.3368 121.114 14.3368 118.956 14.3368H77.159C75.0015 14.3368 73.9227 14.3368 73.0589 14.0224C71.6108 13.4953 70.4701 12.3546 69.943 10.9065C69.6286 10.0427 69.6286 8.96389 69.6286 6.80635C69.6286 6.53666 69.6286 6.40181 69.5893 6.29384C69.5235 6.11283 69.3809 5.97023 69.1999 5.90435C69.0919 5.86505 68.957 5.86505 68.6873 5.86505H63.2423C57.0378 5.86505 53.9355 5.86505 51.5658 7.07252C49.4812 8.13465 47.7864 9.82942 46.7243 11.914Z" fill="#161616"/>
</mask>
<g mask="url(#mask2)">
<rect x="40.5127" y="6" width="115.025" height="232" fill="white"/>
<path d="M160.529 192.913C156.328 197.243 152.57 199.79 149.692 201.71C121.625 220.45 89.5435 215.049 79.6216 213.202C63.618 210.224 50.1086 208.123 38.5016 197.636C12.1272 173.808 13.4101 124.1 33.5635 93.308C35.9531 89.6569 56.0759 59.8289 88.2288 55.6253C89.0153 55.523 89.6018 55.4641 90.1156 55.4098C95.0901 54.8833 125.913 52.1036 151.046 73.1603C154.643 76.174 160.433 81.6109 165.802 89.9031C185.433 120.222 185.495 167.178 160.529 192.913Z" fill="url(#paint23_linear)"/>
<path d="M29.1753 136.188C30.8844 146.988 42.7943 209.235 89.5529 203.405C89.5529 203.405 89.7937 159.477 30.1017 135.073C29.5798 134.859 29.0615 135.482 29.1753 136.188Z" fill="#91B3FA"/>
<g style="mix-blend-mode:soft-light">
<path d="M35.8199 143.175C35.8199 143.175 36.3492 144.273 37.338 146.169C37.8332 147.116 38.4397 148.263 39.1573 149.568C39.875 150.874 40.6928 152.341 41.6103 153.927C42.5278 155.514 43.5403 157.221 44.6367 159.011C45.7384 160.795 46.9145 162.674 48.1793 164.583C49.4304 166.501 50.7745 168.449 52.161 170.412C52.8581 171.39 53.5774 172.366 54.294 173.349C55.0326 174.315 55.7544 175.299 56.5119 176.256C57.2695 177.212 58.0139 178.179 58.7976 179.107L59.9559 180.508C60.3436 180.972 60.7428 181.421 61.1362 181.876C61.5297 182.331 61.9184 182.784 62.315 183.226L63.5137 184.534C64.2974 185.411 65.1174 186.233 65.9116 187.052C67.5101 188.682 69.12 190.191 70.6854 191.573C71.0689 191.928 71.4723 192.255 71.8605 192.575L73.0146 193.53C73.3881 193.85 73.7742 194.139 74.153 194.422L75.2651 195.261L75.8039 195.668C75.9838 195.799 76.1711 195.918 76.3479 196.042C76.7071 196.286 77.0582 196.525 77.4013 196.758C77.7454 196.989 78.0733 197.225 78.4059 197.432L79.3837 198.021L80.3002 198.573L80.7346 198.835L81.1668 199.061L82.7196 199.869C83.134 200.09 83.5592 200.29 83.9939 200.468L84.9481 200.884L85.7418 201.23L85.7801 201.247C85.9135 201.31 86.0171 201.422 86.069 201.56C86.1209 201.698 86.1169 201.851 86.0579 201.986C85.999 202.121 85.8897 202.228 85.7533 202.283C85.6168 202.339 85.464 202.339 85.3274 202.284H85.3237L84.5111 201.923L83.5322 201.486C83.1472 201.314 82.6997 201.126 82.2275 200.86L80.6422 200.018L80.201 199.782L79.7593 199.511L78.8271 198.939L77.8335 198.329C77.4957 198.115 77.1642 197.871 76.8153 197.634L75.7478 196.895C75.5668 196.768 75.3805 196.644 75.1975 196.51L74.6535 196.09L73.5308 195.228C73.1484 194.936 72.7586 194.639 72.3825 194.312L71.221 193.334C70.8276 193.003 70.4242 192.672 70.0391 192.309C68.4653 190.897 66.8491 189.358 65.2496 187.7C64.4548 186.867 63.6323 186.028 62.8522 185.136L61.6551 183.808C61.2595 183.359 60.8734 182.897 60.4795 182.439C60.0855 181.981 59.6889 181.522 59.3028 181.052L58.1487 179.632C57.3681 178.692 56.6305 177.711 55.8746 176.747C55.1186 175.783 54.4057 174.784 53.6713 173.809C52.9589 172.817 52.2454 171.832 51.5535 170.843C50.178 168.86 48.845 166.895 47.6059 164.96C46.3532 163.034 45.1928 161.141 44.099 159.341C43.0152 157.535 42.0106 155.817 41.1088 154.217C37.4839 147.823 35.3907 143.383 35.3907 143.383C35.3649 143.326 35.3624 143.261 35.3839 143.202C35.4053 143.144 35.449 143.095 35.5055 143.068C35.562 143.041 35.6269 143.037 35.6862 143.058C35.7456 143.078 35.7947 143.12 35.823 143.176L35.8199 143.175Z" fill="white"/>
</g>
<path d="M56.1112 70.4464C56.4133 69.3805 57.4017 69.7209 58.1781 70.512C100.693 113.798 110.432 186.213 95.6792 204.796C95.6792 204.796 23.2055 186.623 56.1112 70.4464Z" fill="#BDD0FB"/>
<g style="mix-blend-mode:soft-light">
<path d="M57.527 85.28C57.527 85.28 57.5343 85.3902 57.549 85.6042C57.5721 85.8141 57.5978 86.1204 57.6482 86.5359C57.7373 87.3616 57.8979 88.5708 58.1009 90.1089C58.3107 91.6465 58.573 93.5125 58.913 95.6481C59.2393 97.7848 59.6563 100.188 60.1043 102.81C60.5728 105.429 61.0874 108.266 61.6938 111.253C62.2824 114.243 62.9733 117.383 63.6936 120.628C64.4364 123.869 65.2201 127.214 66.0994 130.592C66.3183 131.436 66.5378 132.284 66.7577 133.135L67.4554 135.684C67.9097 137.391 68.4181 139.089 68.9086 140.792C69.3991 142.495 69.9452 144.182 70.4498 145.874C70.9846 147.556 71.524 149.228 72.0682 150.887C72.6411 152.535 73.1814 154.179 73.7668 155.785C74.0606 156.59 74.3525 157.388 74.6424 158.179C74.7875 158.575 74.932 158.969 75.0757 159.363L75.5289 160.528C75.8311 161.302 76.1308 162.069 76.4281 162.829C76.5774 163.208 76.7259 163.586 76.8735 163.962C77.0298 164.335 77.1849 164.705 77.3388 165.074C77.9683 166.543 78.527 168.006 79.1639 169.389L80.0777 171.447C80.2277 171.785 80.3767 172.12 80.5247 172.453L80.99 173.431C81.6132 174.721 82.1913 175.979 82.7899 177.165L84.5378 180.554C85.1075 181.622 85.6756 182.621 86.195 183.567C86.4576 184.039 86.7115 184.496 86.9567 184.937L87.7111 186.185L89.0362 188.386C89.4344 189.051 89.8357 189.616 90.1578 190.124C90.4799 190.633 90.7674 191.058 90.9971 191.405L91.6938 192.472L91.6969 192.478C91.7148 192.507 91.7205 192.543 91.7129 192.577C91.7053 192.611 91.685 192.64 91.6562 192.66C91.6274 192.679 91.5922 192.686 91.558 192.681C91.5238 192.675 91.4932 192.656 91.4724 192.628L90.7464 191.579C90.2795 190.889 89.5629 189.898 88.712 188.595L87.3407 186.413L86.557 185.173L85.7664 183.813C85.2287 182.873 84.6338 181.884 84.0478 180.819C83.4774 179.745 82.8792 178.618 82.2532 177.438C81.6378 176.254 81.043 174.998 80.4019 173.71L79.9235 172.734C79.7713 172.402 79.618 172.067 79.4634 171.729L78.5191 169.674C77.2549 166.891 76.0189 163.912 74.8097 160.805L74.3507 159.637C74.2049 159.243 74.0583 158.848 73.9111 158.45C73.6173 157.657 73.3213 156.857 73.023 156.053C72.4291 154.444 71.8809 152.796 71.2997 151.145C70.7471 149.485 70.1996 147.81 69.6572 146.122C69.3987 145.275 69.1396 144.427 68.8797 143.577C68.6216 142.728 68.3593 141.878 68.1206 141.022C67.6343 139.313 67.1307 137.608 66.6806 135.895L65.9929 133.338C65.775 132.484 65.5578 131.634 65.3413 130.785C64.471 127.397 63.6967 124.041 62.9633 120.791C62.2593 117.535 61.6099 114.38 61.047 111.379C60.4699 108.38 59.9831 105.534 59.5404 102.906C58.6806 97.6468 58.0998 93.2423 57.7305 90.1588C57.5511 88.6144 57.4247 87.3994 57.3512 86.569C57.3103 86.1572 57.2893 85.8251 57.2715 85.609C57.2621 85.3939 57.2568 85.2827 57.2568 85.2827C57.2558 85.265 57.2583 85.2472 57.2642 85.2305C57.27 85.2137 57.2791 85.1983 57.2909 85.1851C57.3148 85.1584 57.3483 85.1422 57.384 85.1402C57.4198 85.1382 57.4549 85.1505 57.4816 85.1743C57.5083 85.1982 57.5244 85.2317 57.5264 85.2674L57.527 85.28Z" fill="white"/>
</g>
<path d="M168.852 140.298C167.106 150.61 155.07 210.02 110.412 203.96C110.412 203.96 110.636 161.945 167.979 139.223C168.479 139.024 168.966 139.625 168.852 140.298Z" fill="#91B3FA"/>
<g style="mix-blend-mode:soft-light">
<path d="M162.425 146.912C162.425 146.912 161.907 147.957 160.942 149.76C160.459 150.661 159.865 151.754 159.167 152.993C158.469 154.232 157.67 155.629 156.776 157.137C155.881 158.646 154.895 160.267 153.829 161.969C152.754 163.665 151.612 165.449 150.383 167.261C149.167 169.083 147.861 170.934 146.514 172.795C145.838 173.723 145.14 174.649 144.444 175.58C143.728 176.496 143.028 177.43 142.293 178.337C141.559 179.244 140.838 180.161 140.078 181.04L138.956 182.369C138.58 182.808 138.192 183.234 137.813 183.664C137.434 184.095 137.055 184.524 136.671 184.943L135.511 186.182C134.753 187.012 133.96 187.79 133.192 188.566C131.646 190.109 130.091 191.535 128.576 192.84C128.205 193.176 127.819 193.482 127.442 193.784L126.328 194.686C125.968 194.988 125.593 195.26 125.23 195.525L124.158 196.317L123.638 196.701C123.465 196.824 123.287 196.936 123.114 197.053L122.099 197.727C121.767 197.943 121.451 198.166 121.131 198.361L120.19 198.914L119.307 199.432L118.888 199.678L118.472 199.887L116.984 200.65C116.585 200.858 116.176 201.044 115.758 201.21L114.842 201.598C114.344 201.808 114.079 201.921 114.079 201.921L114.042 201.937C113.913 201.995 113.812 202.101 113.76 202.233C113.708 202.365 113.71 202.512 113.766 202.642C113.821 202.772 113.925 202.876 114.055 202.93C114.186 202.985 114.333 202.986 114.464 202.934H114.468L115.252 202.595L116.192 202.187C116.562 202.027 116.992 201.852 117.447 201.601L118.972 200.814L119.395 200.594L119.821 200.339L120.718 199.802C121.028 199.617 121.347 199.426 121.675 199.229C122 199.028 122.32 198.798 122.656 198.575L123.684 197.879C123.859 197.759 124.04 197.643 124.215 197.516L124.739 197.122L125.822 196.309C126.189 196.034 126.567 195.754 126.929 195.445L128.051 194.521C128.43 194.207 128.82 193.896 129.192 193.553C130.713 192.219 132.273 190.764 133.82 189.194C134.589 188.405 135.382 187.614 136.139 186.77L137.298 185.511C137.681 185.085 138.055 184.647 138.436 184.213C138.817 183.779 139.202 183.344 139.576 182.902L140.694 181.556C141.451 180.664 142.166 179.735 142.898 178.818C143.629 177.902 144.325 176.956 145.036 176.03C145.728 175.089 146.421 174.154 147.093 173.216C148.43 171.333 149.724 169.467 150.929 167.629C152.148 165.8 153.278 164.002 154.339 162.292C155.394 160.577 156.373 158.943 157.254 157.422C160.787 151.344 162.834 147.12 162.834 147.12C162.861 147.066 162.865 147.003 162.846 146.945C162.826 146.887 162.785 146.84 162.73 146.813C162.676 146.786 162.613 146.782 162.555 146.801C162.498 146.821 162.45 146.863 162.423 146.917L162.425 146.912Z" fill="white"/>
</g>
<path d="M141.24 73.2846C140.967 72.2107 139.97 72.5239 139.172 73.2925C95.473 115.383 83.7294 187.5 97.9611 206.487C97.9611 206.487 170.911 190.329 141.24 73.2846Z" fill="#BDD0FB"/>
<g style="mix-blend-mode:soft-light">
<path d="M139.414 88.0728L139.383 88.3965C139.354 88.6063 139.32 88.9111 139.258 89.325C139.145 90.1476 138.952 91.352 138.706 92.8839C138.452 94.4152 138.138 96.2733 137.741 98.3984C137.356 100.526 136.872 102.916 136.351 105.525C135.81 108.13 135.217 110.95 134.528 113.919C133.857 116.892 133.079 120.011 132.269 123.235C131.437 126.454 130.561 129.776 129.588 133.128C129.346 133.967 129.103 134.809 128.859 135.652L128.091 138.181C127.59 139.874 127.035 141.558 126.497 143.247C125.959 144.936 125.366 146.604 124.815 148.283C124.234 149.95 123.648 151.606 123.059 153.25C122.44 154.881 121.852 156.51 121.223 158.099L120.278 160.467L119.813 161.639C119.65 162.023 119.488 162.408 119.327 162.793L118.365 165.067C118.205 165.443 118.046 165.816 117.888 166.188C117.721 166.556 117.556 166.922 117.392 167.287C116.723 168.738 116.123 170.184 115.448 171.549C115.12 172.235 114.796 172.913 114.477 173.581L114.005 174.574L113.513 175.539C112.854 176.811 112.242 178.053 111.611 179.222L109.769 182.561C109.17 183.613 108.574 184.595 108.029 185.527L107.23 186.874L106.443 188.102C105.939 188.889 105.476 189.612 105.057 190.264C104.639 190.917 104.224 191.471 103.888 191.971L103.016 193.23C102.543 193.912 102.29 194.28 102.29 194.28L102.286 194.284C102.276 194.299 102.269 194.315 102.265 194.332C102.261 194.35 102.26 194.368 102.263 194.385C102.266 194.403 102.272 194.419 102.282 194.435C102.291 194.45 102.303 194.463 102.318 194.473C102.332 194.483 102.349 194.491 102.366 194.495C102.383 194.499 102.401 194.499 102.419 194.496C102.436 194.494 102.453 194.487 102.468 194.478C102.483 194.468 102.496 194.456 102.507 194.442L103.262 193.411C103.747 192.735 104.491 191.764 105.378 190.485L106.81 188.342L107.622 187.125C107.889 186.695 108.165 186.249 108.45 185.788C109.014 184.864 109.635 183.891 110.251 182.843L112.14 179.512C112.788 178.347 113.417 177.107 114.093 175.84C114.261 175.522 114.43 175.201 114.599 174.877L115.087 173.886L116.084 171.857C117.425 169.111 118.743 166.168 120.038 163.097L120.529 161.942L121.001 160.769L121.956 158.397C122.593 156.804 123.187 155.172 123.814 153.538C124.413 151.895 125.007 150.236 125.598 148.563C125.88 147.723 126.162 146.883 126.445 146.04C126.727 145.201 127.013 144.357 127.275 143.508C127.808 141.812 128.359 140.122 128.857 138.423L129.618 135.885C129.86 135.037 130.101 134.193 130.34 133.352C131.304 129.988 132.171 126.656 132.995 123.428C133.789 120.192 134.525 117.057 135.171 114.072C135.831 111.09 136.397 108.259 136.912 105.645C137.918 100.411 138.62 96.0246 139.075 92.9494C139.298 91.4103 139.457 90.1995 139.554 89.3712C139.606 88.9609 139.636 88.6299 139.659 88.4138C139.674 88.1992 139.682 88.0885 139.682 88.0885C139.685 88.0529 139.674 88.0174 139.651 87.99C139.628 87.9626 139.595 87.9455 139.559 87.9424C139.523 87.9394 139.488 87.9506 139.461 87.9737C139.433 87.9968 139.416 88.0298 139.413 88.0655L139.414 88.0728Z" fill="white"/>
</g>
<path d="M57.0354 57.644C57.0354 57.644 62.1397 76.7812 75.638 72.2078C89.1363 67.6343 83.0201 51.8729 80.9364 47.9626C80.9364 47.9626 77.4395 35.7815 65.0181 39.8209C55.9426 42.7712 54.8609 49.4687 57.0354 57.644Z" fill="#7D97F4"/>
<g style="mix-blend-mode:overlay" opacity="0.3">
<path d="M66.4775 45.8215C65.1393 43.8485 63.7187 42.2171 62.2472 41.0247C55.6667 44.3585 55.0183 50.4684 56.9593 57.7487C56.9593 57.7487 62.0636 76.8859 75.5619 72.313C77.0906 71.7952 77.3057 71.9038 78.3654 71.1327C73.8512 63.5439 71.2886 52.9177 66.4775 45.8215Z" fill="white"/>
</g>
<path d="M79.3291 61.3849C79.8657 63.0568 78.07 67.3548 74.5149 68.4952C70.9597 69.6357 66.999 67.1837 66.4623 65.5134C65.9257 63.8431 69.4525 64.9259 73.0035 63.7859C76.5545 62.646 78.7924 59.713 79.3291 61.3849Z" fill="url(#paint24_linear)"/>
<path d="M62.9731 58.1564C62.8424 57.5169 63.6802 56.0014 65.0389 55.7233C66.3976 55.4453 67.7637 56.5102 67.8948 57.1502C68.026 57.7902 66.7664 57.2468 65.4077 57.5248C64.049 57.8028 63.1037 58.798 62.9731 58.1564Z" fill="url(#paint25_linear)"/>
<path d="M73.1983 55.5607C72.8002 55.0435 72.8836 53.3139 73.9852 52.4656C75.0869 51.6173 76.7787 51.9756 77.1769 52.4924C77.575 53.0091 76.2064 53.0752 75.1073 53.9219C74.0083 54.7686 73.597 56.0774 73.1983 55.5607Z" fill="url(#paint26_linear)"/>
<path d="M112.582 51.4695C112.582 51.4695 108.392 70.827 122.49 72.917C136.588 75.007 138.34 58.1901 138.268 53.7599C138.268 53.7599 140.714 41.327 127.818 39.2522C118.396 37.7372 114.377 43.2029 112.582 51.4695Z" fill="#7D97F4"/>
<g style="mix-blend-mode:overlay" opacity="0.3">
<g style="mix-blend-mode:overlay" opacity="0.3">
<path d="M126.271 57.7886C128.065 52.4015 128.826 48.219 128.498 42.984C128.384 41.1679 127.887 39.3077 127.816 39.2961C118.396 37.7816 114.377 43.2474 112.582 51.5124C112.582 51.5124 108.392 70.8699 122.49 72.9604C123.321 73.0842 125.139 61.1838 126.271 57.7886Z" fill="white"/>
</g>
</g>
<path d="M130.168 68.28C130.454 66.5488 128.045 62.5593 124.363 61.9529C120.681 61.3464 117.12 64.3503 116.835 66.083C116.549 67.8157 119.877 66.2262 123.559 66.8326C127.24 67.4391 129.883 70.0127 130.168 68.28Z" fill="url(#paint27_linear)"/>
<path d="M133.599 54.5672C133.362 55.1757 131.837 55.9967 130.544 55.4947C129.251 54.9927 128.68 53.3575 128.918 52.749C129.156 52.1404 129.919 53.2783 131.212 53.7803C132.505 54.2824 133.835 53.9587 133.599 54.5672Z" fill="url(#paint28_linear)"/>
<path d="M123.596 51.214C123.648 51.8645 122.642 53.2719 121.26 53.3895C119.878 53.507 118.645 52.2878 118.59 51.6389C118.535 50.99 119.722 51.6746 121.104 51.5576C122.486 51.4406 123.541 50.5635 123.596 51.214Z" fill="url(#paint29_linear)"/>
<path d="M87.3381 214.873C87.3366 214.809 87.3431 214.745 87.3575 214.682C88.3102 210.905 92.2042 208.971 92.2042 208.971L94.0776 209.118C95.1546 212.446 95.8486 214.071 95.676 214.98C95.6713 215.006 95.6634 215.03 95.6566 215.054C94.1111 215.195 90.931 215.283 87.3381 214.873Z" fill="url(#paint30_linear)"/>
<path d="M95.6564 215.054C95.573 215.358 95.349 215.594 95.062 215.655C92.864 216.117 89.3702 215.745 87.9034 215.553C87.5803 215.511 87.3437 215.212 87.3379 214.871C90.9308 215.283 94.1109 215.195 95.6564 215.054Z" fill="#7D97F4"/>
<path d="M90.6616 206.057L91.4816 210.005C91.5419 210.294 91.7643 210.51 92.0334 210.536C92.4563 210.578 92.8827 210.572 93.304 210.516C93.7268 210.453 94.0216 210.024 93.9466 209.562L93.3764 206.057H90.6616Z" fill="url(#paint31_linear)"/>
<path d="M111.572 215.022C109.572 214.966 108.537 214.73 108.002 214.512C108.002 214.71 108.002 214.913 108.008 215.123C108.016 215.347 108.181 215.526 108.385 215.524L119.37 215.453C119.72 215.453 119.925 215.045 119.773 214.723C118.333 214.842 114.665 215.109 111.572 215.022Z" fill="#7D97F4"/>
<path d="M119.773 214.723C119.761 214.694 119.747 214.666 119.73 214.64C118.76 213.285 116.289 210.586 111.407 209.415L109.065 209.341C109.065 209.341 108.022 211.154 108.002 214.511C108.537 214.73 109.572 214.966 111.572 215.022C114.665 215.108 118.333 214.842 119.773 214.723Z" fill="url(#paint32_linear)"/>
<path d="M108.63 205.792C108.657 205.966 108.978 208.62 109.103 209.649C109.112 209.762 109.16 209.87 109.238 209.953C109.316 210.036 109.42 210.091 109.533 210.109C109.931 210.156 110.577 210.2 111.141 210.084C111.446 210.022 111.666 209.729 111.666 209.389V205.224L108.63 205.792Z" fill="url(#paint33_linear)"/>
<path d="M92.2265 154.213C92.2265 154.213 88.4788 187.524 90.5609 208.347C90.5609 208.347 93.0596 208.347 94.3086 207.93C94.3086 207.93 98.2032 175.358 99.4633 166.037C99.5105 165.686 100.012 165.67 100.081 166.018C101.636 173.86 107.74 204.61 108.467 207.513C108.467 207.513 110.549 208.346 112.215 207.513C112.215 207.513 108.883 162.956 106.385 155.045L92.2265 154.213Z" fill="url(#paint34_linear)"/>
<path d="M84.7313 115.485C84.7313 115.485 100.555 112.987 113.048 116.318L112.215 129.227C112.215 129.227 108.884 147.133 106.387 155.045C106.387 155.045 96.809 156.711 92.2283 154.213C92.2283 154.213 88.4806 131.726 86.3985 128.394C86.3995 128.394 84.3148 119.65 84.7313 115.485Z" fill="url(#paint35_linear)"/>
<path d="M95.7242 104.107L94.1504 114.767C94.1504 114.767 98.557 116.79 101.638 114.68L100.974 107.157L95.7242 104.107Z" fill="url(#paint36_linear)"/>
<path d="M102.511 97.1651C102.561 97.2554 103.508 102.631 104.096 105.958C104.153 106.283 104.14 106.615 104.06 106.934C103.979 107.254 103.832 107.552 103.627 107.81C103.423 108.069 103.167 108.281 102.875 108.433C102.583 108.585 102.262 108.673 101.933 108.693L100.657 108.768C99.5259 108.835 98.4103 108.477 97.5289 107.765C96.6475 107.052 96.0639 106.036 95.8924 104.916L94.9702 98.8884C94.9702 98.8884 101.306 94.9791 102.511 97.1651Z" fill="url(#paint37_linear)"/>
<path d="M93.5946 98.9036C93.1051 98.2951 92.6786 97.3115 93.7205 96.277C94.7754 95.2278 95.972 95.4901 96.7311 95.8421C97.0668 95.9995 97.4807 95.9287 97.72 95.6459C97.7798 95.5745 97.8573 95.5199 97.9447 95.4875C98.032 95.4551 98.1264 95.4461 98.2183 95.4612C98.6595 95.5106 99.0535 95.2194 99.1059 94.7793C99.1956 94.0233 99.598 93.1331 100.935 92.875C103.386 92.4029 104.607 94.8548 104.565 96.5792C104.524 98.3035 101.838 98.666 100.31 98.3796C99.1904 98.1697 98.2225 99.1533 97.7871 99.691C97.7097 99.7873 97.6553 99.8999 97.628 100.02C97.6008 100.141 97.6013 100.266 97.6297 100.386L98.0174 102.052C97.7488 102.569 97.4855 103.101 97.1083 103.541C96.8371 103.858 96.5391 104.034 96.2238 104.108C95.7664 103.258 94.4879 103.111 93.8941 103.094C93.782 103.091 93.6718 103.064 93.5704 103.016C93.4691 102.968 93.3787 102.9 93.305 102.816C92.857 102.301 92.1556 101.155 93.498 100.028C93.6574 99.8904 93.7567 99.6956 93.7747 99.4856C93.7927 99.2755 93.7281 99.0668 93.5946 98.9036Z" fill="url(#paint38_linear)"/>
<path d="M96.6624 105.89C96.6624 105.89 96.61 102.882 95.3924 102.6C94.1748 102.318 92.8618 103.197 93.9025 104.998C95.1978 107.238 96.6624 105.89 96.6624 105.89Z" fill="url(#paint39_linear)"/>
<path d="M84.7315 115.486C84.7315 115.486 60.1626 142.135 89.104 152.338V150.256C89.104 150.256 78.2769 141.095 86.6053 128.603C86.6053 128.603 85.5645 116.735 84.7315 115.486Z" fill="url(#paint40_linear)"/>
<path d="M89.3122 150.464C89.3122 150.464 93.0599 147.966 94.7254 148.799C96.391 149.631 96.391 150.881 96.391 150.881C96.391 150.881 95.5585 152.546 94.3089 152.13C93.0593 151.713 90.1447 152.546 88.8956 152.13C88.8956 152.13 88.4791 150.464 89.3122 150.464Z" fill="url(#paint41_linear)"/>
<path d="M113.049 116.318C113.049 116.318 138.659 142.136 109.718 152.338V150.256C109.718 150.256 120.544 141.095 112.216 128.603C112.215 128.603 111.382 118.4 113.049 116.318Z" fill="url(#paint42_linear)"/>
<path d="M109.509 150.464C109.509 150.464 105.761 147.966 104.095 148.799C102.429 149.631 102.429 150.881 102.429 150.881C102.429 150.881 103.262 152.546 104.511 152.13C105.76 151.713 108.676 152.546 109.925 152.13C109.925 152.13 110.341 150.464 109.509 150.464Z" fill="url(#paint43_linear)"/>
</g>
<g filter="url(#filter10_i)">
<path d="M91.7852 8.96049C91.7852 8.33065 92.2957 7.82007 92.9256 7.82007H103.352C103.982 7.82007 104.493 8.33065 104.493 8.96049C104.493 9.59033 103.982 10.1009 103.352 10.1009H92.9256C92.2957 10.1009 91.7852 9.59033 91.7852 8.96049Z" fill="#161616"/>
</g>
<g filter="url(#filter11_f)">
<path d="M91.9481 8.96049C91.9481 8.42063 92.3857 7.98299 92.9256 7.98299H103.352C103.892 7.98299 104.33 8.42063 104.33 8.96049C104.33 9.50035 103.892 9.938 103.352 9.938H92.9256C92.3857 9.938 91.9481 9.50035 91.9481 8.96049Z" stroke="black" stroke-opacity="0.32" stroke-width="0.325835"/>
</g>
<path d="M91.8666 8.96049C91.8666 8.37564 92.3407 7.90153 92.9256 7.90153H103.352C103.937 7.90153 104.411 8.37564 104.411 8.96049C104.411 9.54534 103.937 10.0195 103.352 10.0195H92.9256C92.3407 10.0195 91.8666 9.54534 91.8666 8.96049Z" stroke="url(#paint44_linear)" stroke-width="0.162918"/>
<path d="M107.1 8.96047C107.1 7.7008 108.121 6.67963 109.38 6.67963C110.64 6.67963 111.661 7.7008 111.661 8.96047C111.661 10.2201 110.64 11.2413 109.38 11.2413C108.121 11.2413 107.1 10.2201 107.1 8.96047Z" fill="url(#paint45_radial)"/>
<path d="M107.1 8.96047C107.1 7.7008 108.121 6.67963 109.38 6.67963C110.64 6.67963 111.661 7.7008 111.661 8.96047C111.661 10.2201 110.64 11.2413 109.38 11.2413C108.121 11.2413 107.1 10.2201 107.1 8.96047Z" fill="url(#paint46_radial)"/>
<path d="M110.521 8.96049C110.521 8.33065 110.01 7.82007 109.38 7.82007C108.75 7.82007 108.24 8.33065 108.24 8.96049C108.24 9.59033 108.75 10.1009 109.38 10.1009C110.01 10.1009 110.521 9.59033 110.521 8.96049Z" fill="url(#paint47_linear)"/>
<path d="M110.521 8.96049C110.521 8.33065 110.01 7.82007 109.38 7.82007C108.75 7.82007 108.24 8.33065 108.24 8.96049C108.24 9.59033 108.75 10.1009 109.38 10.1009C110.01 10.1009 110.521 9.59033 110.521 8.96049Z" fill="url(#paint48_radial)"/>
<path d="M110.521 8.96049C110.521 8.33065 110.01 7.82007 109.38 7.82007C108.75 7.82007 108.24 8.33065 108.24 8.96049C108.24 9.59033 108.75 10.1009 109.38 10.1009C110.01 10.1009 110.521 9.59033 110.521 8.96049Z" fill="url(#paint49_radial)"/>
<path d="M110.521 8.96049C110.521 8.33065 110.01 7.82007 109.38 7.82007C108.75 7.82007 108.24 8.33065 108.24 8.96049C108.24 9.59033 108.75 10.1009 109.38 10.1009C110.01 10.1009 110.521 9.59033 110.521 8.96049Z" fill="url(#paint50_radial)"/>
<path d="M110.521 8.96049C110.521 8.33065 110.01 7.82007 109.38 7.82007C108.75 7.82007 108.24 8.33065 108.24 8.96049C108.24 9.59033 108.75 10.1009 109.38 10.1009C110.01 10.1009 110.521 9.59033 110.521 8.96049Z" fill="url(#paint51_radial)"/>
<path d="M131.988 140.3C131.988 140.3 138.279 154.816 142.149 152.881C146.02 150.945 148.924 134.978 148.924 134.978C148.924 134.978 136.827 132.074 131.988 140.3Z" fill="url(#paint52_linear)"/>
<path d="M153.89 230.38C153.89 230.38 154.416 233.357 154.673 236.304C154.696 236.577 154.664 236.852 154.578 237.113C154.492 237.373 154.354 237.613 154.172 237.819C153.991 238.024 153.77 238.191 153.522 238.309C153.274 238.426 153.005 238.493 152.731 238.504C148.807 238.667 140.412 238.985 137.4 238.85C137.295 238.845 137.193 238.815 137.102 238.762C137.011 238.71 136.934 238.636 136.877 238.547C136.82 238.459 136.785 238.358 136.775 238.253C136.765 238.149 136.78 238.043 136.819 237.945C136.96 237.593 137.231 237.307 137.576 237.149L151.441 230.776L153.89 230.38Z" fill="url(#paint53_linear)"/>
<path d="M154.32 228.63L153.898 232.191C153.898 232.191 151.469 233.322 149.811 232.049L150.816 228.081L154.32 228.63Z" fill="url(#paint54_linear)"/>
<path d="M154.004 161.686C154.187 162.616 154.983 208.088 150.123 228.468C150.083 228.628 150.102 228.798 150.177 228.945C150.251 229.093 150.376 229.209 150.528 229.273C151.274 229.577 152.738 230.018 154.487 230.077C154.751 230.086 155.01 230.006 155.224 229.852C155.438 229.697 155.595 229.475 155.669 229.222C157.059 224.494 163.716 200.805 164.585 178.176C165.555 152.889 164.585 177.315 164.585 177.315L164.012 161.684L154.004 161.686Z" fill="url(#paint55_linear)"/>
<path d="M169.841 231.933C169.841 231.933 170.678 233.436 171.488 237.429C171.523 237.599 171.522 237.775 171.485 237.944C171.448 238.114 171.376 238.274 171.273 238.414C171.17 238.554 171.039 238.67 170.888 238.756C170.737 238.842 170.57 238.895 170.398 238.913C169.102 239.043 167.107 239.204 165.509 239.193C165.335 239.193 165.163 239.155 165.005 239.084C164.846 239.012 164.705 238.908 164.589 238.778C164.474 238.648 164.387 238.495 164.335 238.329C164.283 238.163 164.266 237.988 164.287 237.815C164.463 236.358 165.015 233.966 166.719 232.102L169.841 231.933Z" fill="url(#paint56_linear)"/>
<path d="M170.576 227.353L169.589 232.738C169.589 232.738 168.614 233.464 166.682 232.937L167.153 227.144L170.576 227.353Z" fill="url(#paint57_linear)"/>
<path d="M173.241 163.081C177.216 187.074 172.378 222.38 170.747 229.291C170.699 229.498 170.591 229.686 170.436 229.832C170.281 229.977 170.087 230.074 169.877 230.109C169.148 230.23 167.949 230.329 166.767 229.985C166.568 229.927 166.393 229.808 166.266 229.644C166.138 229.481 166.065 229.282 166.057 229.075C165.838 223.486 166.232 189.19 162.529 175.636C162.341 174.949 161.921 174.349 161.341 173.937L154.151 168.826L153.6 160.564L173.241 163.081Z" fill="url(#paint58_linear)"/>
<path d="M147.473 118.527C161.989 117.075 172.97 120.749 172.97 120.749C176.521 141.47 173.591 165.371 173.591 165.371C164.367 167.79 153.964 163.892 153.964 163.892C152.431 155.231 145.279 130.856 145.279 130.856C139.457 130.133 143.816 118.892 147.473 118.527Z" fill="url(#paint59_linear)"/>
<path d="M168.399 132.284L172.97 120.749C172.97 120.749 184.098 128.31 185.928 137.896C183.825 138.051 179.999 138.598 176.253 140.489C175.431 135.963 168.399 132.284 168.399 132.284Z" fill="url(#paint60_linear)"/>
<path d="M157.708 143.14C157.708 143.14 170.202 150.201 174.418 144.172C175.293 142.919 175.502 141.675 175.286 140.489C179.032 138.598 182.858 138.051 184.961 137.896C185.513 140.786 185.221 143.86 183.523 146.967C176.138 160.475 156.055 146.22 156.055 146.22L157.708 143.14Z" fill="url(#paint61_linear)"/>
<path d="M159.209 152.072L152.39 128.261C152.353 128.129 152.277 128.011 152.173 127.922C152.069 127.833 151.941 127.777 151.805 127.76C150.57 127.616 146.99 127.212 142.857 126.862C137.878 126.441 132.096 126.1 128.641 126.39C128.528 126.399 128.418 126.436 128.322 126.497C128.227 126.558 128.147 126.642 128.091 126.741C128.035 126.839 128.004 126.951 128 127.064C127.997 127.178 128.021 127.291 128.072 127.393C130.036 131.367 138.118 147.536 142.165 152.833C142.23 152.919 142.316 152.989 142.413 153.037C142.511 153.085 142.618 153.11 142.727 153.109L158.548 152.962C158.655 152.961 158.761 152.935 158.856 152.886C158.951 152.837 159.034 152.767 159.098 152.681C159.162 152.595 159.206 152.495 159.225 152.39C159.244 152.284 159.238 152.176 159.209 152.072Z" fill="url(#paint62_linear)"/>
<path d="M142.146 124.797L137.203 123.972C137.142 123.961 137.081 123.967 137.023 123.988C136.966 124.009 136.915 124.044 136.875 124.09C136.835 124.137 136.808 124.193 136.796 124.252C136.784 124.312 136.788 124.374 136.808 124.432L137.297 125.915C137.318 125.979 137.356 126.035 137.407 126.077C137.459 126.12 137.521 126.147 137.587 126.156L142.345 126.792C142.401 126.799 142.459 126.792 142.513 126.772C142.566 126.752 142.614 126.719 142.653 126.677C142.691 126.634 142.718 126.583 142.733 126.528C142.747 126.472 142.748 126.414 142.735 126.359L142.432 125.064C142.416 124.996 142.38 124.935 142.329 124.888C142.279 124.84 142.215 124.809 142.146 124.797Z" fill="#7D97F4"/>
<path d="M145.848 128.982L145.442 126.861C145.422 126.757 145.369 126.663 145.291 126.592C145.213 126.52 145.114 126.476 145.009 126.465L135.027 125.452C134.949 125.444 134.87 125.455 134.797 125.484C134.724 125.512 134.659 125.558 134.608 125.617C134.556 125.676 134.52 125.747 134.501 125.823C134.482 125.899 134.482 125.978 134.5 126.054L135.135 128.698C135.16 128.801 135.218 128.893 135.299 128.961C135.38 129.028 135.481 129.068 135.587 129.073L145.345 129.565C145.419 129.568 145.493 129.555 145.561 129.525C145.629 129.496 145.689 129.452 145.738 129.396C145.786 129.34 145.821 129.273 145.841 129.202C145.86 129.13 145.862 129.055 145.848 128.982Z" fill="#7D97F4"/>
<path d="M157.562 146.32C157.562 146.32 158.511 142.414 158.128 141.028C157.745 139.642 157.003 137.86 154.528 138.256C152.054 138.652 149.134 139.695 149.134 139.695C149.134 139.695 149.282 141.5 151.162 140.918L149.996 141.82C149.996 141.82 150.162 143.265 151.751 142.493L150.666 143.689C150.666 143.689 151.348 144.877 152.517 144.115C153.686 143.353 154.247 146.79 157.562 146.32Z" fill="url(#paint63_linear)"/>
<path d="M132.208 140.508C132.208 140.508 129.328 137.704 128.917 136.326C128.506 134.948 128.188 133.045 130.495 132.066C132.802 131.087 135.829 130.419 135.829 130.419C135.829 130.419 136.662 132.027 134.76 132.533L136.227 132.678C136.227 132.678 136.854 133.99 135.097 134.18L136.652 134.618C136.652 134.618 136.705 135.983 135.31 135.962C133.915 135.94 135.266 139.146 132.208 140.508Z" fill="url(#paint64_linear)"/>
<path d="M158.527 108.849L162.318 119.812C162.349 119.9 162.347 119.996 162.315 120.083C162.282 120.17 162.219 120.243 162.138 120.288C161.104 120.859 157.381 122.511 152.895 119.666C152.663 119.521 152.467 119.327 152.319 119.097C152.171 118.868 152.075 118.608 152.038 118.338L150.811 108.849H158.527Z" fill="url(#paint65_linear)"/>
<path d="M150.278 98.6976C150.278 98.6976 146.115 106.533 146.649 109.698C147.182 112.863 152.342 112.637 156.846 110.066L159.994 101.605L150.278 98.6976Z" fill="url(#paint66_linear)"/>
<path d="M156.648 105.911C156.605 105.892 156.566 105.864 156.536 105.828C156.505 105.793 156.482 105.752 156.468 105.707C156.455 105.662 156.451 105.614 156.458 105.568C156.465 105.522 156.481 105.477 156.507 105.438C156.84 104.929 157.465 103.889 157.665 102.979C157.665 102.979 158.413 102.5 155.76 101.865C153.106 101.23 149.151 100.244 148.319 97.986C147.509 95.7841 149.639 90.2476 153.037 94.6591C153.067 94.6982 153.106 94.7298 153.15 94.7517C153.194 94.7736 153.243 94.7852 153.292 94.7856C153.341 94.7859 153.39 94.7751 153.435 94.7539C153.479 94.7327 153.518 94.7016 153.549 94.663C154.106 93.9378 155.571 92.4326 157.605 93.3451C159.508 94.199 159.722 95.5937 159.696 96.2962C159.694 96.3444 159.704 96.3922 159.723 96.4362C159.743 96.4803 159.772 96.5195 159.808 96.5509C159.844 96.5824 159.887 96.6054 159.934 96.6182C159.98 96.631 160.029 96.6334 160.076 96.6251C161.038 96.4418 163.347 96.2839 164.425 98.6528C165.313 100.602 164.736 101.707 164.21 102.248C164.172 102.288 164.145 102.337 164.131 102.391C164.117 102.444 164.117 102.5 164.13 102.554C164.144 102.607 164.172 102.656 164.21 102.697C164.248 102.737 164.295 102.766 164.348 102.783C164.981 102.978 165.797 103.512 165.713 104.993C165.6 107.041 163.308 106.86 162.658 106.767C162.606 106.759 162.553 106.764 162.503 106.782C162.453 106.8 162.408 106.829 162.372 106.868C161.813 107.487 159.294 110.114 156.568 110.43C156.514 110.436 156.459 110.428 156.408 110.407C156.357 110.386 156.313 110.352 156.279 110.309C156.245 110.266 156.222 110.215 156.213 110.161C156.204 110.107 156.208 110.052 156.226 110L157.406 106.57C157.432 106.494 157.429 106.41 157.396 106.335C157.364 106.261 157.305 106.201 157.231 106.168L156.648 105.911Z" fill="url(#paint67_linear)"/>
<path d="M156.174 106.398C156.174 106.398 159.138 104.364 159.354 106.077C159.571 107.789 156.685 108.557 155.256 107.918L156.174 106.398Z" fill="url(#paint68_linear)"/>
<path d="M4.71219 213.164L3.58936 233.958L11.1228 235.777L12.6226 215.464L4.71219 213.164Z" fill="#AA6550"/>
<path d="M3.36805 233.78L2.08203 239.421H10.75L11.123 235.749L3.36805 233.78Z" fill="#E8505B"/>
<g opacity="0.6">
<path opacity="0.6" d="M2.08203 239.421H10.75L10.8355 238.601L2.24132 238.387L2.08203 239.324" fill="white"/>
</g>
<path d="M33.3076 223.274L35.1337 237.051L41.8008 236.585L40.4021 223.958L33.3076 223.274Z" fill="#AA6550"/>
<path d="M41.8705 235.093C41.8705 235.093 49.3613 237.622 49.4856 238.978L35.1646 239.405L35.0364 235.664L35.5648 235.769C37.6865 236.19 39.8862 235.954 41.8705 235.093Z" fill="#E8505B"/>
<g opacity="0.6">
<path opacity="0.6" d="M35.1648 239.405V238.24L48.8952 238.275C48.8952 238.275 49.5402 238.535 49.4819 238.986L35.1648 239.405Z" fill="white"/>
</g>
<path d="M10.299 153.541C10.299 153.541 4.99565 162.376 4.99565 167.656L3.69409 231.996L12.0474 233.989L18.4192 171.11C18.4192 171.11 33.8514 234.152 34.3487 234.152C34.846 234.152 42.4416 232.789 42.4416 232.789L30.918 153.829L10.299 153.541Z" fill="#263238"/>
<path d="M13.9592 103.006C14.2467 103.837 13.2599 104.56 12.4051 104.743C11.5504 104.925 10.5091 105.061 10.1167 105.85C9.7748 106.534 10.1167 107.404 9.80977 108.1C9.21921 109.424 6.83367 109.149 6.36744 110.524C6.02554 111.48 6.92692 112.439 6.80259 113.422C6.70546 114.273 5.92452 114.856 5.24849 115.365C4.57246 115.874 3.84203 116.593 3.94693 117.447C4.07126 118.43 5.27569 119.11 5.16302 120.097C5.05034 121.084 3.74878 121.519 3.55841 122.479C3.33695 123.613 4.75895 124.344 5.21741 125.408C5.56708 126.22 5.34951 127.269 5.94006 127.93C6.53062 128.59 7.61849 128.47 8.50433 128.283L17.351 126.407C16.7527 125.012 17.3122 123.372 18.1669 122.114C19.0217 120.855 20.1523 119.782 20.8866 118.461C21.6209 117.141 21.8579 115.353 20.8866 114.164" fill="#263238"/>
<path d="M29.5117 110.077C29.4504 109.604 29.353 109.137 29.2203 108.678C29.1516 108.462 29.0301 108.265 28.8668 108.107C28.6919 107.94 28.4782 108.045 28.3228 108.282C28.0631 108.844 27.9285 109.456 27.9285 110.075C27.9285 110.694 28.0631 111.306 28.3228 111.868C28.4666 112.109 28.7114 112.214 28.8668 112.047C29.0294 111.887 29.1508 111.689 29.2203 111.472C29.3527 111.015 29.4501 110.549 29.5117 110.077C29.5451 110.204 29.5556 110.335 29.5428 110.466C29.5365 110.825 29.4802 111.182 29.3757 111.526C29.3046 111.778 29.1709 112.008 28.9872 112.195C28.926 112.253 28.85 112.295 28.7672 112.314C28.6844 112.333 28.598 112.329 28.5171 112.303C28.3565 112.244 28.2199 112.133 28.1286 111.989C27.8372 111.394 27.6858 110.74 27.6858 110.077C27.6858 109.415 27.8372 108.761 28.1286 108.166C28.2199 108.021 28.3565 107.91 28.5171 107.851C28.598 107.825 28.6844 107.821 28.7672 107.84C28.85 107.86 28.926 107.901 28.9872 107.96C29.1709 108.146 29.3046 108.376 29.3757 108.628C29.4799 108.971 29.5361 109.326 29.5428 109.685C29.5554 109.816 29.5449 109.949 29.5117 110.077Z" fill="#263238"/>
<path d="M15.0821 118.221C13.4814 115.501 13.0229 111.915 12.6189 108.803C12.4285 107.334 12.0944 105.248 13.124 104.331C14.2313 103.348 14.3362 101.833 15.6066 101.075C16.8771 100.317 18.5983 100.255 19.7949 101.122" fill="#263238"/>
<path d="M19.515 127.798C20.0956 127.843 20.6794 127.77 21.2313 127.584C21.7832 127.398 22.292 127.103 22.7272 126.716C23.1625 126.329 23.5152 125.858 23.7643 125.332C24.0135 124.805 24.1539 124.234 24.1772 123.652C24.2783 121.29 24.3637 118.904 24.3637 118.904C24.3637 118.904 27.942 118.578 28.214 115.019C28.486 111.46 28.3889 103.301 28.3889 103.301C26.4285 102.309 24.2386 101.857 22.0455 101.994C19.8523 102.131 17.7354 102.85 15.9133 104.078L16.0959 116.542L16.0765 123.248C16.127 125.505 17.2926 127.619 19.515 127.798Z" fill="#AA6550"/>
<path d="M24.7095 110.703C24.1034 109.945 23.1088 109.642 22.2929 110.17C21.891 110.447 21.6005 110.858 21.4731 111.329C21.3458 111.8 21.3898 112.301 21.5975 112.742C21.7805 113.07 22.0292 113.356 22.3281 113.583C22.627 113.809 22.9695 113.972 23.3342 114.06C23.6601 114.132 23.9481 114.322 24.1436 114.592C24.3391 114.863 24.4285 115.196 24.3948 115.528C24.2899 116.414 22.8097 116.744 22.1375 117.471C21.0963 118.613 18.8195 119.091 17.2848 119.266C15.7502 119.441 15.9561 119.456 15.0819 118.213C14.4948 117.372 14.195 116.363 14.2272 115.338C14.1831 112.724 14.1378 110.112 14.0912 107.501C14.0324 106.561 14.0951 105.617 14.2777 104.692C14.4589 103.754 14.9911 102.92 15.7657 102.361C16.6282 101.794 17.7083 101.751 18.703 101.436C19.9307 101.048 20.9758 100.232 22.122 99.6492C23.2681 99.0664 24.6823 98.7167 25.8324 99.2995C26.6561 99.7191 27.2078 100.543 28.012 101.005C29.1543 101.658 30.7317 101.514 31.264 103.2C31.4505 103.788 31.4423 104.42 31.2406 105.003C30.4636 107.291 27.6157 108.204 25.576 107.21C25.5371 107.598 25.914 108.461 25.5021 109.689C25.37 110.077 25.3234 110.675 24.7251 110.683" fill="#263238"/>
<path d="M24.0684 112.913C24.0684 112.913 24.0684 112.979 24.0218 113.065C23.9749 113.124 23.916 113.172 23.849 113.206C23.7819 113.24 23.7084 113.26 23.6333 113.263C23.3846 113.248 23.1511 113.138 22.9812 112.956C22.8112 112.774 22.7178 112.533 22.7203 112.284C22.7112 112.148 22.7296 112.011 22.7743 111.883C22.819 111.754 22.8892 111.635 22.9806 111.534C23.1284 111.373 23.3225 111.262 23.5362 111.215C23.9014 111.142 24.1112 111.278 24.0956 111.297C24.0801 111.317 23.8781 111.297 23.5867 111.386C23.4024 111.444 23.2419 111.56 23.1297 111.717C23.0175 111.874 22.9597 112.064 22.965 112.257C22.9647 112.447 23.0302 112.632 23.1506 112.78C23.2709 112.928 23.4387 113.03 23.6255 113.069C23.9247 113.104 24.0451 112.89 24.0684 112.913Z" fill="#995037"/>
<path d="M29.5194 109.926C28.7434 110.17 27.9459 110.34 27.1378 110.435C26.3411 110.601 25.5309 110.695 24.7173 110.714C24.7173 110.648 25.7741 110.423 27.0989 110.205C27.8953 110.037 28.7056 109.943 29.5194 109.926Z" fill="#263238"/>
<path d="M15.35 121.678C15.4642 121.893 15.6504 122.06 15.8757 122.15C16.1011 122.24 16.3511 122.248 16.5816 122.172C17.0382 122.004 17.4465 121.727 17.7705 121.364C18.0905 121.003 18.4893 120.721 18.9361 120.54C19.8802 120.253 21.038 120.882 21.8306 120.295C22.5533 119.763 22.46 118.555 23.171 118.003C23.5595 117.712 24.0724 117.673 24.457 117.389C25.1758 116.861 25.0554 115.676 24.457 115.015C23.8587 114.355 22.9457 114.091 22.087 113.85L14.4758 117.094L15.35 121.678Z" fill="#263238"/>
<path d="M25.2458 122.211L24.325 120.315L16.3253 120.016L15.0703 122.475H25.1176" fill="#E8505B"/>
<path d="M52.7454 139.325C52.6872 139.038 54.859 127.739 55.4651 124.639C55.4828 124.544 55.4794 124.447 55.4552 124.354C55.4309 124.26 55.3864 124.173 55.3249 124.099C55.2633 124.025 55.1862 123.965 55.099 123.924C55.0117 123.883 54.9165 123.862 54.8202 123.862H38.7974C38.6491 123.861 38.5047 123.91 38.3882 124.002C38.2717 124.094 38.1899 124.223 38.1563 124.367L34.8772 138.195L26.792 138.797L27.0756 139.329L52.7454 139.325Z" fill="#455A64"/>
<path d="M52.0423 138.319L54.6337 124.623L38.8868 124.721L35.429 138.338L52.0423 138.319Z" fill="#EBEBEB"/>
<path d="M35.4172 138.35L38.8751 124.725L54.6337 124.627L52.0383 138.331L35.4172 138.35ZM38.8945 124.752L35.4406 138.35L52.0344 138.331L54.622 124.655L38.8945 124.752Z" fill="#263238"/>
<path d="M52.0267 138.416C52.0267 138.471 47.4188 138.517 41.7385 138.517C36.0583 138.517 31.4465 138.471 31.4465 138.416C31.4465 138.362 36.0506 138.315 41.7385 138.315C47.4265 138.315 52.0267 138.362 52.0267 138.416Z" fill="#263238"/>
<path d="M50.9387 134.958C50.8718 134.969 50.8036 134.969 50.7367 134.958L50.1462 134.978L47.9743 135.009C46.1405 135.009 43.6112 135.04 40.8138 135.04H38.3894L38.4205 134.919C38.98 132.763 39.4656 130.879 39.8231 129.48C39.9979 128.827 40.1416 128.315 40.2504 127.895C40.2958 127.703 40.3556 127.515 40.4292 127.332C40.4074 127.529 40.3698 127.723 40.3165 127.914C40.2232 128.303 40.0989 128.851 39.928 129.511C39.5899 130.894 39.1276 132.783 38.5953 134.951L38.5021 134.83H40.7983C43.5956 134.83 46.1249 134.83 47.9588 134.861L50.1306 134.892H50.7212C50.7971 134.901 50.8707 134.923 50.9387 134.958Z" fill="#455A64"/>
<path d="M39.5356 134.438L39.827 133.117H41.8551L41.5948 134.438H39.5356Z" fill="#E8505B"/>
<path d="M42.2903 134.438L42.9003 131.838H44.9284L44.3534 134.438H42.2903Z" fill="#E8505B"/>
<path d="M45.0449 134.438L45.3402 133.117H47.3683L47.108 134.438H45.0449Z" fill="#E8505B"/>
<path d="M47.7996 134.438L48.9613 129.387H50.9893L49.8626 134.438H47.7996Z" fill="#E8505B"/>
<path d="M41.1249 135.914C40.8632 136.011 40.5819 136.043 40.3052 136.007C39.8545 136.007 39.4893 135.957 39.4893 135.899C40.0262 135.764 40.588 135.764 41.1249 135.899V135.914Z" fill="#455A64"/>
<path d="M43.7939 135.91C43.533 136.005 43.2535 136.037 42.978 136.003C42.7 136.031 42.4193 135.994 42.1582 135.895C42.4203 135.799 42.7012 135.767 42.978 135.801C43.2547 135.771 43.5346 135.809 43.7939 135.91Z" fill="#455A64"/>
<path d="M46.467 135.906C46.2047 136.001 45.924 136.033 45.6472 136C45.3705 136.028 45.091 135.991 44.8313 135.891C45.0932 135.795 45.3743 135.763 45.6511 135.797C45.9278 135.768 46.2077 135.805 46.467 135.906Z" fill="#455A64"/>
<path d="M49.1515 135.902C48.6133 136.037 48.0502 136.037 47.512 135.902C48.0502 135.768 48.6133 135.768 49.1515 135.902Z" fill="#455A64"/>
<path d="M45.2082 126.772C44.4575 126.872 43.6996 126.906 42.9431 126.873C42.1852 126.906 41.426 126.872 40.6741 126.772C41.426 126.672 42.1852 126.638 42.9431 126.671C43.6996 126.638 44.4575 126.672 45.2082 126.772Z" fill="#455A64"/>
<path d="M42.8263 126.209C42.1627 126.349 41.4773 126.349 40.8137 126.209C41.4778 126.074 42.1622 126.074 42.8263 126.209Z" fill="#455A64"/>
<path d="M38.4825 147.651L47.7527 140.942L47.4069 140.382C46.9001 139.557 46.1393 138.919 45.2389 138.564L43.7897 138.824L35.1956 140.133L38.4825 147.651Z" fill="#E8505B"/>
<path d="M5.52404 146.109L13.2285 143.047L11.5073 136.668L5.22876 138.801L5.52404 146.109Z" fill="#C42C37"/>
<path d="M38.1602 147.83C40.0795 146.878 40.5729 144.59 39.6366 142.663L31.6679 125.606C31.4844 125.185 31.2098 124.809 30.8637 124.507C29.9685 123.71 28.9233 123.099 27.7891 122.711C26.655 122.322 25.4548 122.164 24.2588 122.246L15.9366 122.028C15.9366 122.028 9.39769 122.028 6.9461 127.18C6.76738 127.569 2.96761 135.094 0.461625 140.06C0.188261 140.6 0.0324925 141.193 0.00456251 141.798C-0.0233675 142.404 0.0771759 143.008 0.299578 143.572C0.52198 144.136 0.861202 144.646 1.29494 145.069C1.72867 145.492 2.24709 145.819 2.81609 146.027C3.8364 146.408 4.96346 146.384 5.96714 145.962C6.97081 145.54 7.77538 144.75 8.21658 143.754L10.9362 137.686L12.6302 146.377L10.1631 153.541L30.7976 153.825L29.2124 144.24L28.7112 137.41L32.9112 146.058C33.1345 146.524 33.4483 146.94 33.8344 147.283C34.2205 147.626 34.6711 147.889 35.1598 148.056C35.6485 148.222 36.1655 148.29 36.6807 148.255C37.1959 148.219 37.6988 148.081 38.1602 147.849V147.83Z" fill="#E8505B"/>
<g opacity="0.2">
<path opacity="0.2" d="M26.085 132.783C26.5706 136.707 26.353 136.411 27.1728 140.281C27.5613 142.181 28.0626 144.166 29.3758 145.604L28.7269 137.41L26.085 132.783Z" fill="black"/>
</g>
<path d="M14.0872 121.065C13.6921 121.218 13.3367 121.459 13.0474 121.769C12.7581 122.078 12.5423 122.45 12.4161 122.854C12.29 123.259 12.2566 123.687 12.3186 124.106C12.3805 124.525 12.5362 124.925 12.774 125.276C12.9719 125.492 13.0981 125.763 13.1353 126.053C13.0965 126.753 11.9698 126.772 11.6123 127.374C11.5184 127.589 11.4972 127.829 11.5519 128.057C11.6066 128.284 11.7342 128.488 11.9154 128.637C12.2809 128.929 12.6709 129.189 13.0809 129.414C13.2843 129.531 13.4558 129.696 13.5805 129.894C13.7052 130.093 13.7791 130.319 13.7958 130.552C14.1843 130.552 14.4252 130.063 14.367 129.674C14.2601 129.293 14.0964 128.93 13.8813 128.598C13.775 128.432 13.7143 128.241 13.7054 128.044C13.6966 127.846 13.7398 127.65 13.8308 127.475C14.0872 127.106 14.6078 127.087 15.0352 126.928C15.4351 126.754 15.7515 126.431 15.9176 126.028C16.0837 125.624 16.0863 125.172 15.9249 124.767C15.6685 124.2 15.0779 123.625 15.3655 123.073C15.5248 122.766 15.8938 122.65 16.1969 122.479C16.5111 122.306 16.7774 122.058 16.9719 121.756C17.1663 121.455 17.2829 121.11 17.311 120.753C17.3391 120.395 17.278 120.036 17.133 119.708C16.988 119.38 16.7638 119.093 16.4805 118.873" fill="#263238"/>
<path d="M47.753 140.942L51.5139 139.321H46.502L47.5976 140.74" fill="#AA6550"/>
<defs>
<filter id="filter0_i" x="39.8145" y="0" width="116.486" height="239" filterUnits="userSpaceOnUse" color-interpolation-filters="sRGB">
<feFlood flood-opacity="0" result="BackgroundImageFix"/>
<feBlend mode="normal" in="SourceGraphic" in2="BackgroundImageFix" result="shape"/>
<feColorMatrix in="SourceAlpha" type="matrix" values="0 0 0 0 0 0 0 0 0 0 0 0 0 0 0 0 0 0 127 0" result="hardAlpha"/>
<feOffset/>
<feGaussianBlur stdDeviation="1.30334"/>
<feComposite in2="hardAlpha" operator="arithmetic" k2="-1" k3="1"/>
<feColorMatrix type="matrix" values="0 0 0 0 0 0 0 0 0 0 0 0 0 0 0 0 0 0 0.32 0"/>
<feBlend mode="normal" in2="shape" result="effect1_innerShadow"/>
</filter>
<filter id="filter1_ii" x="39" y="37.471" width="0.814588" height="10.1009" filterUnits="userSpaceOnUse" color-interpolation-filters="sRGB">
<feFlood flood-opacity="0" result="BackgroundImageFix"/>
<feBlend mode="normal" in="SourceGraphic" in2="BackgroundImageFix" result="shape"/>
<feColorMatrix in="SourceAlpha" type="matrix" values="0 0 0 0 0 0 0 0 0 0 0 0 0 0 0 0 0 0 127 0" result="hardAlpha"/>
<feOffset dy="0.65167"/>
<feGaussianBlur stdDeviation="0.162918"/>
<feComposite in2="hardAlpha" operator="arithmetic" k2="-1" k3="1"/>
<feColorMatrix type="matrix" values="0 0 0 0 1 0 0 0 0 1 0 0 0 0 1 0 0 0 0.64 0"/>
<feBlend mode="normal" in2="shape" result="effect1_innerShadow"/>
<feColorMatrix in="SourceAlpha" type="matrix" values="0 0 0 0 0 0 0 0 0 0 0 0 0 0 0 0 0 0 127 0" result="hardAlpha"/>
<feOffset dy="-0.65167"/>
<feGaussianBlur stdDeviation="0.162918"/>
<feComposite in2="hardAlpha" operator="arithmetic" k2="-1" k3="1"/>
<feColorMatrix type="matrix" values="0 0 0 0 1 0 0 0 0 1 0 0 0 0 1 0 0 0 0.64 0"/>
<feBlend mode="normal" in2="effect1_innerShadow" result="effect2_innerShadow"/>
</filter>
<filter id="filter2_ii" x="39" y="54.5774" width="0.814588" height="18.8984" filterUnits="userSpaceOnUse" color-interpolation-filters="sRGB">
<feFlood flood-opacity="0" result="BackgroundImageFix"/>
<feBlend mode="normal" in="SourceGraphic" in2="BackgroundImageFix" result="shape"/>
<feColorMatrix in="SourceAlpha" type="matrix" values="0 0 0 0 0 0 0 0 0 0 0 0 0 0 0 0 0 0 127 0" result="hardAlpha"/>
<feOffset dy="0.65167"/>
<feGaussianBlur stdDeviation="0.162918"/>
<feComposite in2="hardAlpha" operator="arithmetic" k2="-1" k3="1"/>
<feColorMatrix type="matrix" values="0 0 0 0 1 0 0 0 0 1 0 0 0 0 1 0 0 0 0.64 0"/>
<feBlend mode="normal" in2="shape" result="effect1_innerShadow"/>
<feColorMatrix in="SourceAlpha" type="matrix" values="0 0 0 0 0 0 0 0 0 0 0 0 0 0 0 0 0 0 127 0" result="hardAlpha"/>
<feOffset dy="-0.65167"/>
<feGaussianBlur stdDeviation="0.162918"/>
<feComposite in2="hardAlpha" operator="arithmetic" k2="-1" k3="1"/>
<feColorMatrix type="matrix" values="0 0 0 0 1 0 0 0 0 1 0 0 0 0 1 0 0 0 0.64 0"/>
<feBlend mode="normal" in2="effect1_innerShadow" result="effect2_innerShadow"/>
</filter>
<filter id="filter3_ii" x="156.3" y="61.0941" width="0.814588" height="28.9993" filterUnits="userSpaceOnUse" color-interpolation-filters="sRGB">
<feFlood flood-opacity="0" result="BackgroundImageFix"/>
<feBlend mode="normal" in="SourceGraphic" in2="BackgroundImageFix" result="shape"/>
<feColorMatrix in="SourceAlpha" type="matrix" values="0 0 0 0 0 0 0 0 0 0 0 0 0 0 0 0 0 0 127 0" result="hardAlpha"/>
<feOffset dy="0.65167"/>
<feGaussianBlur stdDeviation="0.162918"/>
<feComposite in2="hardAlpha" operator="arithmetic" k2="-1" k3="1"/>
<feColorMatrix type="matrix" values="0 0 0 0 1 0 0 0 0 1 0 0 0 0 1 0 0 0 0.64 0"/>
<feBlend mode="normal" in2="shape" result="effect1_innerShadow"/>
<feColorMatrix in="SourceAlpha" type="matrix" values="0 0 0 0 0 0 0 0 0 0 0 0 0 0 0 0 0 0 127 0" result="hardAlpha"/>
<feOffset dy="-0.65167"/>
<feGaussianBlur stdDeviation="0.162918"/>
<feComposite in2="hardAlpha" operator="arithmetic" k2="-1" k3="1"/>
<feColorMatrix type="matrix" values="0 0 0 0 1 0 0 0 0 1 0 0 0 0 1 0 0 0 0.64 0"/>
<feBlend mode="normal" in2="effect1_innerShadow" result="effect2_innerShadow"/>
</filter>
<filter id="filter4_ii" x="39" y="76.8971" width="0.814588" height="18.8984" filterUnits="userSpaceOnUse" color-interpolation-filters="sRGB">
<feFlood flood-opacity="0" result="BackgroundImageFix"/>
<feBlend mode="normal" in="SourceGraphic" in2="BackgroundImageFix" result="shape"/>
<feColorMatrix in="SourceAlpha" type="matrix" values="0 0 0 0 0 0 0 0 0 0 0 0 0 0 0 0 0 0 127 0" result="hardAlpha"/>
<feOffset dy="0.65167"/>
<feGaussianBlur stdDeviation="0.162918"/>
<feComposite in2="hardAlpha" operator="arithmetic" k2="-1" k3="1"/>
<feColorMatrix type="matrix" values="0 0 0 0 1 0 0 0 0 1 0 0 0 0 1 0 0 0 0.64 0"/>
<feBlend mode="normal" in2="shape" result="effect1_innerShadow"/>
<feColorMatrix in="SourceAlpha" type="matrix" values="0 0 0 0 0 0 0 0 0 0 0 0 0 0 0 0 0 0 127 0" result="hardAlpha"/>
<feOffset dy="-0.65167"/>
<feGaussianBlur stdDeviation="0.162918"/>
<feComposite in2="hardAlpha" operator="arithmetic" k2="-1" k3="1"/>
<feColorMatrix type="matrix" values="0 0 0 0 1 0 0 0 0 1 0 0 0 0 1 0 0 0 0.64 0"/>
<feBlend mode="normal" in2="effect1_innerShadow" result="effect2_innerShadow"/>
</filter>
<filter id="filter5_ii" x="39.8145" y="0" width="116.486" height="239" filterUnits="userSpaceOnUse" color-interpolation-filters="sRGB">
<feFlood flood-opacity="0" result="BackgroundImageFix"/>
<feBlend mode="normal" in="SourceGraphic" in2="BackgroundImageFix" result="shape"/>
<feColorMatrix in="SourceAlpha" type="matrix" values="0 0 0 0 0 0 0 0 0 0 0 0 0 0 0 0 0 0 127 0" result="hardAlpha"/>
<feOffset/>
<feGaussianBlur stdDeviation="0.814588"/>
<feComposite in2="hardAlpha" operator="arithmetic" k2="-1" k3="1"/>
<feColorMatrix type="matrix" values="0 0 0 0 1 0 0 0 0 1 0 0 0 0 1 0 0 0 0.88 0"/>
<feBlend mode="normal" in2="shape" result="effect1_innerShadow"/>
<feColorMatrix in="SourceAlpha" type="matrix" values="0 0 0 0 0 0 0 0 0 0 0 0 0 0 0 0 0 0 127 0" result="hardAlpha"/>
<feOffset/>
<feGaussianBlur stdDeviation="0.407294"/>
<feComposite in2="hardAlpha" operator="arithmetic" k2="-1" k3="1"/>
<feColorMatrix type="matrix" values="0 0 0 0 0 0 0 0 0 0 0 0 0 0 0 0 0 0 1 0"/>
<feBlend mode="normal" in2="effect1_innerShadow" result="effect2_innerShadow"/>
</filter>
<filter id="filter6_iiii" x="39" y="37.471" width="0.814588" height="10.1009" filterUnits="userSpaceOnUse" color-interpolation-filters="sRGB">
<feFlood flood-opacity="0" result="BackgroundImageFix"/>
<feBlend mode="normal" in="SourceGraphic" in2="BackgroundImageFix" result="shape"/>
<feColorMatrix in="SourceAlpha" type="matrix" values="0 0 0 0 0 0 0 0 0 0 0 0 0 0 0 0 0 0 127 0" result="hardAlpha"/>
<feOffset dy="0.65167"/>
<feGaussianBlur stdDeviation="0.162918"/>
<feComposite in2="hardAlpha" operator="arithmetic" k2="-1" k3="1"/>
<feColorMatrix type="matrix" values="0 0 0 0 1 0 0 0 0 1 0 0 0 0 1 0 0 0 0.08 0"/>
<feBlend mode="normal" in2="shape" result="effect1_innerShadow"/>
<feColorMatrix in="SourceAlpha" type="matrix" values="0 0 0 0 0 0 0 0 0 0 0 0 0 0 0 0 0 0 127 0" result="hardAlpha"/>
<feOffset dy="-0.65167"/>
<feGaussianBlur stdDeviation="0.162918"/>
<feComposite in2="hardAlpha" operator="arithmetic" k2="-1" k3="1"/>
<feColorMatrix type="matrix" values="0 0 0 0 1 0 0 0 0 1 0 0 0 0 1 0 0 0 0.08 0"/>
<feBlend mode="normal" in2="effect1_innerShadow" result="effect2_innerShadow"/>
<feColorMatrix in="SourceAlpha" type="matrix" values="0 0 0 0 0 0 0 0 0 0 0 0 0 0 0 0 0 0 127 0" result="hardAlpha"/>
<feOffset dy="0.162918"/>
<feGaussianBlur stdDeviation="0.0814588"/>
<feComposite in2="hardAlpha" operator="arithmetic" k2="-1" k3="1"/>
<feColorMatrix type="matrix" values="0 0 0 0 1 0 0 0 0 1 0 0 0 0 1 0 0 0 0.32 0"/>
<feBlend mode="normal" in2="effect2_innerShadow" result="effect3_innerShadow"/>
<feColorMatrix in="SourceAlpha" type="matrix" values="0 0 0 0 0 0 0 0 0 0 0 0 0 0 0 0 0 0 127 0" result="hardAlpha"/>
<feOffset dy="-0.162918"/>
<feGaussianBlur stdDeviation="0.0814588"/>
<feComposite in2="hardAlpha" operator="arithmetic" k2="-1" k3="1"/>
<feColorMatrix type="matrix" values="0 0 0 0 1 0 0 0 0 1 0 0 0 0 1 0 0 0 0.32 0"/>
<feBlend mode="normal" in2="effect3_innerShadow" result="effect4_innerShadow"/>
</filter>
<filter id="filter7_iiii" x="39" y="54.5774" width="0.814588" height="18.8984" filterUnits="userSpaceOnUse" color-interpolation-filters="sRGB">
<feFlood flood-opacity="0" result="BackgroundImageFix"/>
<feBlend mode="normal" in="SourceGraphic" in2="BackgroundImageFix" result="shape"/>
<feColorMatrix in="SourceAlpha" type="matrix" values="0 0 0 0 0 0 0 0 0 0 0 0 0 0 0 0 0 0 127 0" result="hardAlpha"/>
<feOffset dy="0.65167"/>
<feGaussianBlur stdDeviation="0.162918"/>
<feComposite in2="hardAlpha" operator="arithmetic" k2="-1" k3="1"/>
<feColorMatrix type="matrix" values="0 0 0 0 1 0 0 0 0 1 0 0 0 0 1 0 0 0 0.08 0"/>
<feBlend mode="normal" in2="shape" result="effect1_innerShadow"/>
<feColorMatrix in="SourceAlpha" type="matrix" values="0 0 0 0 0 0 0 0 0 0 0 0 0 0 0 0 0 0 127 0" result="hardAlpha"/>
<feOffset dy="-0.65167"/>
<feGaussianBlur stdDeviation="0.162918"/>
<feComposite in2="hardAlpha" operator="arithmetic" k2="-1" k3="1"/>
<feColorMatrix type="matrix" values="0 0 0 0 1 0 0 0 0 1 0 0 0 0 1 0 0 0 0.08 0"/>
<feBlend mode="normal" in2="effect1_innerShadow" result="effect2_innerShadow"/>
<feColorMatrix in="SourceAlpha" type="matrix" values="0 0 0 0 0 0 0 0 0 0 0 0 0 0 0 0 0 0 127 0" result="hardAlpha"/>
<feOffset dy="0.162918"/>
<feGaussianBlur stdDeviation="0.0814588"/>
<feComposite in2="hardAlpha" operator="arithmetic" k2="-1" k3="1"/>
<feColorMatrix type="matrix" values="0 0 0 0 1 0 0 0 0 1 0 0 0 0 1 0 0 0 0.32 0"/>
<feBlend mode="normal" in2="effect2_innerShadow" result="effect3_innerShadow"/>
<feColorMatrix in="SourceAlpha" type="matrix" values="0 0 0 0 0 0 0 0 0 0 0 0 0 0 0 0 0 0 127 0" result="hardAlpha"/>
<feOffset dy="-0.162918"/>
<feGaussianBlur stdDeviation="0.0814588"/>
<feComposite in2="hardAlpha" operator="arithmetic" k2="-1" k3="1"/>
<feColorMatrix type="matrix" values="0 0 0 0 1 0 0 0 0 1 0 0 0 0 1 0 0 0 0.32 0"/>
<feBlend mode="normal" in2="effect3_innerShadow" result="effect4_innerShadow"/>
</filter>
<filter id="filter8_iiii" x="156.3" y="61.0941" width="0.814588" height="28.9993" filterUnits="userSpaceOnUse" color-interpolation-filters="sRGB">
<feFlood flood-opacity="0" result="BackgroundImageFix"/>
<feBlend mode="normal" in="SourceGraphic" in2="BackgroundImageFix" result="shape"/>
<feColorMatrix in="SourceAlpha" type="matrix" values="0 0 0 0 0 0 0 0 0 0 0 0 0 0 0 0 0 0 127 0" result="hardAlpha"/>
<feOffset dy="0.65167"/>
<feGaussianBlur stdDeviation="0.162918"/>
<feComposite in2="hardAlpha" operator="arithmetic" k2="-1" k3="1"/>
<feColorMatrix type="matrix" values="0 0 0 0 1 0 0 0 0 1 0 0 0 0 1 0 0 0 0.08 0"/>
<feBlend mode="normal" in2="shape" result="effect1_innerShadow"/>
<feColorMatrix in="SourceAlpha" type="matrix" values="0 0 0 0 0 0 0 0 0 0 0 0 0 0 0 0 0 0 127 0" result="hardAlpha"/>
<feOffset dy="-0.65167"/>
<feGaussianBlur stdDeviation="0.162918"/>
<feComposite in2="hardAlpha" operator="arithmetic" k2="-1" k3="1"/>
<feColorMatrix type="matrix" values="0 0 0 0 1 0 0 0 0 1 0 0 0 0 1 0 0 0 0.08 0"/>
<feBlend mode="normal" in2="effect1_innerShadow" result="effect2_innerShadow"/>
<feColorMatrix in="SourceAlpha" type="matrix" values="0 0 0 0 0 0 0 0 0 0 0 0 0 0 0 0 0 0 127 0" result="hardAlpha"/>
<feOffset dy="0.162918"/>
<feGaussianBlur stdDeviation="0.0814588"/>
<feComposite in2="hardAlpha" operator="arithmetic" k2="-1" k3="1"/>
<feColorMatrix type="matrix" values="0 0 0 0 1 0 0 0 0 1 0 0 0 0 1 0 0 0 0.32 0"/>
<feBlend mode="normal" in2="effect2_innerShadow" result="effect3_innerShadow"/>
<feColorMatrix in="SourceAlpha" type="matrix" values="0 0 0 0 0 0 0 0 0 0 0 0 0 0 0 0 0 0 127 0" result="hardAlpha"/>
<feOffset dy="-0.162918"/>
<feGaussianBlur stdDeviation="0.0814588"/>
<feComposite in2="hardAlpha" operator="arithmetic" k2="-1" k3="1"/>
<feColorMatrix type="matrix" values="0 0 0 0 1 0 0 0 0 1 0 0 0 0 1 0 0 0 0.32 0"/>
<feBlend mode="normal" in2="effect3_innerShadow" result="effect4_innerShadow"/>
</filter>
<filter id="filter9_iiii" x="39" y="76.8971" width="0.814588" height="18.8984" filterUnits="userSpaceOnUse" color-interpolation-filters="sRGB">
<feFlood flood-opacity="0" result="BackgroundImageFix"/>
<feBlend mode="normal" in="SourceGraphic" in2="BackgroundImageFix" result="shape"/>
<feColorMatrix in="SourceAlpha" type="matrix" values="0 0 0 0 0 0 0 0 0 0 0 0 0 0 0 0 0 0 127 0" result="hardAlpha"/>
<feOffset dy="0.65167"/>
<feGaussianBlur stdDeviation="0.162918"/>
<feComposite in2="hardAlpha" operator="arithmetic" k2="-1" k3="1"/>
<feColorMatrix type="matrix" values="0 0 0 0 1 0 0 0 0 1 0 0 0 0 1 0 0 0 0.08 0"/>
<feBlend mode="normal" in2="shape" result="effect1_innerShadow"/>
<feColorMatrix in="SourceAlpha" type="matrix" values="0 0 0 0 0 0 0 0 0 0 0 0 0 0 0 0 0 0 127 0" result="hardAlpha"/>
<feOffset dy="-0.65167"/>
<feGaussianBlur stdDeviation="0.162918"/>
<feComposite in2="hardAlpha" operator="arithmetic" k2="-1" k3="1"/>
<feColorMatrix type="matrix" values="0 0 0 0 1 0 0 0 0 1 0 0 0 0 1 0 0 0 0.08 0"/>
<feBlend mode="normal" in2="effect1_innerShadow" result="effect2_innerShadow"/>
<feColorMatrix in="SourceAlpha" type="matrix" values="0 0 0 0 0 0 0 0 0 0 0 0 0 0 0 0 0 0 127 0" result="hardAlpha"/>
<feOffset dy="0.162918"/>
<feGaussianBlur stdDeviation="0.0814588"/>
<feComposite in2="hardAlpha" operator="arithmetic" k2="-1" k3="1"/>
<feColorMatrix type="matrix" values="0 0 0 0 1 0 0 0 0 1 0 0 0 0 1 0 0 0 0.32 0"/>
<feBlend mode="normal" in2="effect2_innerShadow" result="effect3_innerShadow"/>
<feColorMatrix in="SourceAlpha" type="matrix" values="0 0 0 0 0 0 0 0 0 0 0 0 0 0 0 0 0 0 127 0" result="hardAlpha"/>
<feOffset dy="-0.162918"/>
<feGaussianBlur stdDeviation="0.0814588"/>
<feComposite in2="hardAlpha" operator="arithmetic" k2="-1" k3="1"/>
<feColorMatrix type="matrix" values="0 0 0 0 1 0 0 0 0 1 0 0 0 0 1 0 0 0 0.32 0"/>
<feBlend mode="normal" in2="effect3_innerShadow" result="effect4_innerShadow"/>
</filter>
<filter id="filter10_i" x="91.7852" y="7.82007" width="12.7076" height="2.28085" filterUnits="userSpaceOnUse" color-interpolation-filters="sRGB">
<feFlood flood-opacity="0" result="BackgroundImageFix"/>
<feBlend mode="normal" in="SourceGraphic" in2="BackgroundImageFix" result="shape"/>
<feColorMatrix in="SourceAlpha" type="matrix" values="0 0 0 0 0 0 0 0 0 0 0 0 0 0 0 0 0 0 127 0" result="hardAlpha"/>
<feOffset/>
<feGaussianBlur stdDeviation="0.65167"/>
<feComposite in2="hardAlpha" operator="arithmetic" k2="-1" k3="1"/>
<feColorMatrix type="matrix" values="0 0 0 0 0 0 0 0 0 0 0 0 0 0 0 0 0 0 0.48 0"/>
<feBlend mode="normal" in2="shape" result="effect1_innerShadow"/>
</filter>
<filter id="filter11_f" x="91.6222" y="7.65715" width="13.0334" height="2.60668" filterUnits="userSpaceOnUse" color-interpolation-filters="sRGB">
<feFlood flood-opacity="0" result="BackgroundImageFix"/>
<feBlend mode="normal" in="SourceGraphic" in2="BackgroundImageFix" result="shape"/>
<feGaussianBlur stdDeviation="0.0814588" result="effect1_foregroundBlur"/>
</filter>
<linearGradient id="paint0_linear" x1="39.1631" y1="21.5866" x2="41.9327" y2="21.5866" gradientUnits="userSpaceOnUse">
<stop offset="0.109375" stop-color="#D1D1D1"/>
<stop offset="0.317708" stop-color="#E3E3E3"/>
<stop offset="0.552083" stop-color="#D2D2D2"/>
<stop offset="0.807292" stop-color="#E6E6E6"/>
</linearGradient>
<linearGradient id="paint1_linear" x1="39.1631" y1="218.554" x2="41.9327" y2="218.554" gradientUnits="userSpaceOnUse">
<stop offset="0.109375" stop-color="#D1D1D1"/>
<stop offset="0.317708" stop-color="#E3E3E3"/>
<stop offset="0.552083" stop-color="#D2D2D2"/>
<stop offset="0.807292" stop-color="#E6E6E6"/>
</linearGradient>
<linearGradient id="paint2_linear" x1="154.183" y1="21.5866" x2="156.952" y2="21.5866" gradientUnits="userSpaceOnUse">
<stop offset="0.0988321" stop-color="#E6E6E6"/>
<stop offset="0.368786" stop-color="#D2D2D2"/>
<stop offset="0.624532" stop-color="#E3E3E3"/>
<stop offset="0.798581" stop-color="#D1D1D1"/>
</linearGradient>
<linearGradient id="paint3_linear" x1="154.183" y1="218.554" x2="156.952" y2="218.554" gradientUnits="userSpaceOnUse">
<stop offset="0.0988321" stop-color="#E6E6E6"/>
<stop offset="0.368786" stop-color="#D2D2D2"/>
<stop offset="0.624532" stop-color="#E3E3E3"/>
<stop offset="0.798581" stop-color="#D1D1D1"/>
</linearGradient>
<linearGradient id="paint4_linear" x1="131.537" y1="0.0814394" x2="134.307" y2="0.0814394" gradientUnits="userSpaceOnUse">
<stop offset="0.238306" stop-color="#D1D1D1"/>
<stop offset="0.416703" stop-color="#E3E3E3"/>
<stop offset="0.700226" stop-color="#D2D2D2"/>
<stop offset="0.926408" stop-color="#E6E6E6"/>
</linearGradient>
<linearGradient id="paint5_linear" x1="62.949" y1="238.104" x2="65.7186" y2="238.104" gradientUnits="userSpaceOnUse">
<stop offset="0.0988321" stop-color="#E6E6E6"/>
<stop offset="0.368786" stop-color="#D2D2D2"/>
<stop offset="0.624532" stop-color="#E3E3E3"/>
<stop offset="0.798581" stop-color="#D1D1D1"/>
</linearGradient>
<linearGradient id="paint6_linear" x1="48.3964" y1="4.32464" x2="146.117" y2="231.738" gradientUnits="userSpaceOnUse">
<stop stop-color="white" stop-opacity="0.16"/>
<stop offset="1" stop-color="white" stop-opacity="0.05"/>
</linearGradient>
<linearGradient id="paint7_linear" x1="39" y1="42.44" x2="39.8146" y2="42.44" gradientUnits="userSpaceOnUse">
<stop stop-opacity="0"/>
<stop offset="0.333333" stop-color="#D0D0D0" stop-opacity="0.42"/>
<stop offset="1" stop-opacity="0.24"/>
</linearGradient>
<linearGradient id="paint8_linear" x1="39" y1="63.8693" x2="39.8146" y2="63.8693" gradientUnits="userSpaceOnUse">
<stop stop-opacity="0"/>
<stop offset="0.333333" stop-color="#D0D0D0" stop-opacity="0.42"/>
<stop offset="1" stop-opacity="0.24"/>
</linearGradient>
<linearGradient id="paint9_linear" x1="156.3" y1="75.3494" x2="157.115" y2="75.3494" gradientUnits="userSpaceOnUse">
<stop stop-opacity="0.24"/>
<stop offset="0.573835" stop-color="#D0D0D0" stop-opacity="0.42"/>
<stop offset="1" stop-opacity="0"/>
</linearGradient>
<linearGradient id="paint10_linear" x1="39" y1="86.189" x2="39.8146" y2="86.189" gradientUnits="userSpaceOnUse">
<stop stop-opacity="0"/>
<stop offset="0.333333" stop-color="#D0D0D0" stop-opacity="0.42"/>
<stop offset="1" stop-opacity="0.24"/>
</linearGradient>
<linearGradient id="paint11_linear" x1="98.0575" y1="0" x2="98.0575" y2="239" gradientUnits="userSpaceOnUse">
<stop stop-color="white" stop-opacity="0.64"/>
<stop offset="1" stop-color="white" stop-opacity="0.32"/>
</linearGradient>
<linearGradient id="paint12_linear" x1="39.1631" y1="21.5866" x2="41.9327" y2="21.5866" gradientUnits="userSpaceOnUse">
<stop offset="0.123628" stop-color="#8F8F8F"/>
<stop offset="0.365738" stop-color="#525252"/>
<stop offset="0.827659" stop-color="#141414"/>
</linearGradient>
<linearGradient id="paint13_linear" x1="39.1631" y1="218.554" x2="41.9327" y2="218.554" gradientUnits="userSpaceOnUse">
<stop offset="0.123628" stop-color="#8F8F8F"/>
<stop offset="0.365738" stop-color="#525252"/>
<stop offset="0.827659" stop-color="#141414"/>
</linearGradient>
<linearGradient id="paint14_linear" x1="154.183" y1="21.5866" x2="156.952" y2="21.5866" gradientUnits="userSpaceOnUse">
<stop offset="0.088176" stop-color="#141414"/>
<stop offset="0.536358" stop-color="#525252"/>
<stop offset="0.756584" stop-color="#8F8F8F"/>
</linearGradient>
<linearGradient id="paint15_linear" x1="154.183" y1="218.554" x2="156.952" y2="218.554" gradientUnits="userSpaceOnUse">
<stop offset="0.088176" stop-color="#141414"/>
<stop offset="0.529254" stop-color="#525252"/>
<stop offset="0.770792" stop-color="#8F8F8F"/>
</linearGradient>
<linearGradient id="paint16_linear" x1="131.537" y1="0.0814394" x2="134.307" y2="0.0814394" gradientUnits="userSpaceOnUse">
<stop offset="0.420124" stop-color="#8F8F8F"/>
<stop offset="0.610413" stop-color="#525252"/>
<stop offset="0.976264" stop-color="#141414"/>
</linearGradient>
<linearGradient id="paint17_linear" x1="62.949" y1="238.104" x2="65.7186" y2="238.104" gradientUnits="userSpaceOnUse">
<stop offset="0.122861"/>
<stop offset="0.584624" stop-color="#292929"/>
<stop offset="0.87589" stop-color="#7A7A7A"/>
</linearGradient>
<linearGradient id="paint18_linear" x1="48.3964" y1="4.32464" x2="146.117" y2="231.738" gradientUnits="userSpaceOnUse">
<stop stop-color="white" stop-opacity="0.16"/>
<stop offset="1" stop-color="white" stop-opacity="0.05"/>
</linearGradient>
<linearGradient id="paint19_linear" x1="39" y1="42.44" x2="39.8146" y2="42.44" gradientUnits="userSpaceOnUse">
<stop stop-color="white" stop-opacity="0.08"/>
<stop offset="0.276042" stop-color="white" stop-opacity="0.24"/>
<stop offset="1" stop-color="white" stop-opacity="0"/>
</linearGradient>
<linearGradient id="paint20_linear" x1="39" y1="63.8693" x2="39.8146" y2="63.8693" gradientUnits="userSpaceOnUse">
<stop stop-color="white" stop-opacity="0.08"/>
<stop offset="0.276042" stop-color="white" stop-opacity="0.24"/>
<stop offset="1" stop-color="white" stop-opacity="0"/>
</linearGradient>
<linearGradient id="paint21_linear" x1="156.3" y1="75.3494" x2="157.115" y2="75.3494" gradientUnits="userSpaceOnUse">
<stop stop-color="white" stop-opacity="0"/>
<stop offset="0.630208" stop-color="white" stop-opacity="0.24"/>
<stop offset="1" stop-color="white" stop-opacity="0.08"/>
</linearGradient>
<linearGradient id="paint22_linear" x1="39" y1="86.189" x2="39.8146" y2="86.189" gradientUnits="userSpaceOnUse">
<stop stop-color="white" stop-opacity="0.08"/>
<stop offset="0.276042" stop-color="white" stop-opacity="0.24"/>
<stop offset="1" stop-color="white" stop-opacity="0"/>
</linearGradient>
<linearGradient id="paint23_linear" x1="194.696" y1="241.512" x2="80.9017" y2="120.376" gradientUnits="userSpaceOnUse">
<stop stop-color="#DAE3FE"/>
<stop offset="1" stop-color="#E9EFFD"/>
</linearGradient>
<linearGradient id="paint24_linear" x1="20495.2" y1="-22878.6" x2="19957.8" y2="-25936.8" gradientUnits="userSpaceOnUse">
<stop stop-color="#4F52FF"/>
<stop offset="1" stop-color="#4042E2"/>
</linearGradient>
<linearGradient id="paint25_linear" x1="-3469.02" y1="-29496.4" x2="-3385.33" y2="-28441.3" gradientUnits="userSpaceOnUse">
<stop stop-color="#4F52FF"/>
<stop offset="1" stop-color="#4042E2"/>
</linearGradient>
<linearGradient id="paint26_linear" x1="-27053.4" y1="-43760.6" x2="-26408.5" y2="-42468.1" gradientUnits="userSpaceOnUse">
<stop stop-color="#4F52FF"/>
<stop offset="1" stop-color="#4042E2"/>
</linearGradient>
<linearGradient id="paint27_linear" x1="30834.8" y1="5707.72" x2="30466.8" y2="7353.11" gradientUnits="userSpaceOnUse">
<stop stop-color="#4F52FF"/>
<stop offset="1" stop-color="#4042E2"/>
</linearGradient>
<linearGradient id="paint28_linear" x1="11987.8" y1="3805.38" x2="11301.8" y2="4266.91" gradientUnits="userSpaceOnUse">
<stop stop-color="#4F52FF"/>
<stop offset="1" stop-color="#4042E2"/>
</linearGradient>
<linearGradient id="paint29_linear" x1="12913.3" y1="-2045.15" x2="12638.2" y2="-1395.33" gradientUnits="userSpaceOnUse">
<stop stop-color="#4F52FF"/>
<stop offset="1" stop-color="#4042E2"/>
</linearGradient>
<linearGradient id="paint30_linear" x1="92.3648" y1="240.1" x2="91.8674" y2="225.169" gradientUnits="userSpaceOnUse">
<stop stop-color="#7C27DD"/>
<stop offset="1" stop-color="#2B41D9"/>
</linearGradient>
<linearGradient id="paint31_linear" x1="11688.5" y1="13610.8" x2="11494.5" y2="14848.8" gradientUnits="userSpaceOnUse">
<stop stop-color="#FF928E"/>
<stop offset="1" stop-color="#FEB3B1"/>
</linearGradient>
<linearGradient id="paint32_linear" x1="46200.2" y1="22269.9" x2="46226.4" y2="20646.8" gradientUnits="userSpaceOnUse">
<stop stop-color="#7C27DD"/>
<stop offset="1" stop-color="#2B41D9"/>
</linearGradient>
<linearGradient id="paint33_linear" x1="11797.1" y1="15056.9" x2="11563.2" y2="16312.4" gradientUnits="userSpaceOnUse">
<stop stop-color="#FF928E"/>
<stop offset="1" stop-color="#FEB3B1"/>
</linearGradient>
<linearGradient id="paint34_linear" x1="48857.9" y1="107095" x2="17332.6" y2="134792" gradientUnits="userSpaceOnUse">
<stop stop-color="#09005D"/>
<stop offset="1" stop-color="#1A0F91"/>
</linearGradient>
<linearGradient id="paint35_linear" x1="127.085" y1="87.1862" x2="112.953" y2="108.738" gradientUnits="userSpaceOnUse">
<stop stop-color="#FF928E"/>
<stop offset="1" stop-color="#FE7062"/>
</linearGradient>
<linearGradient id="paint36_linear" x1="13959.5" y1="13024.6" x2="13412.2" y2="15944" gradientUnits="userSpaceOnUse">
<stop stop-color="#FF928E"/>
<stop offset="1" stop-color="#FEB3B1"/>
</linearGradient>
<linearGradient id="paint37_linear" x1="5694" y1="-15428.6" x2="8435.77" y2="-11780.5" gradientUnits="userSpaceOnUse">
<stop stop-color="#FF928E"/>
<stop offset="1" stop-color="#FEB3B1"/>
</linearGradient>
<linearGradient id="paint38_linear" x1="18836.8" y1="-661.133" x2="21522.3" y2="-2125.97" gradientUnits="userSpaceOnUse">
<stop stop-color="#09005D"/>
<stop offset="1" stop-color="#1A0F91"/>
</linearGradient>
<linearGradient id="paint39_linear" x1="1982.47" y1="-4674.02" x2="2803.02" y2="-3545.81" gradientUnits="userSpaceOnUse">
<stop stop-color="#FF928E"/>
<stop offset="1" stop-color="#FEB3B1"/>
</linearGradient>
<linearGradient id="paint40_linear" x1="31873.8" y1="25730" x2="22448.9" y2="31230.4" gradientUnits="userSpaceOnUse">
<stop stop-color="#FF928E"/>
<stop offset="1" stop-color="#FE7062"/>
</linearGradient>
<linearGradient id="paint41_linear" x1="13710.5" y1="7180.12" x2="12918" y2="8600.67" gradientUnits="userSpaceOnUse">
<stop stop-color="#FF928E"/>
<stop offset="1" stop-color="#FEB3B1"/>
</linearGradient>
<linearGradient id="paint42_linear" x1="36385.6" y1="34044.1" x2="27172.9" y2="39421.6" gradientUnits="userSpaceOnUse">
<stop stop-color="#FF928E"/>
<stop offset="1" stop-color="#FE7062"/>
</linearGradient>
<linearGradient id="paint43_linear" x1="14885.7" y1="7222.45" x2="15287.6" y2="8065.82" gradientUnits="userSpaceOnUse">
<stop stop-color="#FF928E"/>
<stop offset="1" stop-color="#FEB3B1"/>
</linearGradient>
<linearGradient id="paint44_linear" x1="98.1389" y1="7.82007" x2="98.1389" y2="10.1009" gradientUnits="userSpaceOnUse">
<stop/>
<stop offset="0.483028" stop-color="#484848"/>
<stop offset="1"/>
</linearGradient>
<radialGradient id="paint45_radial" cx="0" cy="0" r="1" gradientUnits="userSpaceOnUse" gradientTransform="translate(109.788 10.0194) rotate(-127.694) scale(2.26479)">
<stop stop-color="#242424"/>
<stop offset="1" stop-color="#161616"/>
</radialGradient>
<radialGradient id="paint46_radial" cx="0" cy="0" r="1" gradientUnits="userSpaceOnUse" gradientTransform="translate(109.38 8.96047) rotate(90) scale(2.28085)">
<stop offset="0.463542" stop-opacity="0.25"/>
<stop offset="0.645833" stop-opacity="0"/>
</radialGradient>
<linearGradient id="paint47_linear" x1="109.38" y1="7.82007" x2="109.38" y2="10.1009" gradientUnits="userSpaceOnUse">
<stop stop-color="#0B528D"/>
<stop offset="0.276042" stop-color="#3625AF"/>
<stop offset="0.510417" stop-color="#070D17"/>
<stop offset="0.734375" stop-color="#16618F"/>
<stop offset="1" stop-color="#021762"/>
</linearGradient>
<radialGradient id="paint48_radial" cx="0" cy="0" r="1" gradientUnits="userSpaceOnUse" gradientTransform="translate(108.484 8.71611) rotate(58.3925) scale(1.24341)">
<stop stop-color="#070D17"/>
<stop offset="1" stop-color="#070D17" stop-opacity="0"/>
</radialGradient>
<radialGradient id="paint49_radial" cx="0" cy="0" r="1" gradientUnits="userSpaceOnUse" gradientTransform="translate(109.543 9.12341) rotate(106.699) scale(0.850454)">
<stop offset="0.146834" stop-color="#070D17"/>
<stop offset="1" stop-color="#070D17" stop-opacity="0"/>
</radialGradient>
<radialGradient id="paint50_radial" cx="0" cy="0" r="1" gradientUnits="userSpaceOnUse" gradientTransform="translate(109.706 8.71611) rotate(128.66) scale(0.521591)">
<stop stop-color="#6356D7"/>
<stop offset="1" stop-color="#15368A" stop-opacity="0"/>
</radialGradient>
<radialGradient id="paint51_radial" cx="0" cy="0" r="1" gradientUnits="userSpaceOnUse" gradientTransform="translate(109.38 8.96049) rotate(90) scale(1.14042)">
<stop offset="0.828125" stop-opacity="0"/>
<stop offset="1" stop-opacity="0.85"/>
</radialGradient>
<linearGradient id="paint52_linear" x1="44788.7" y1="32564.4" x2="40375.4" y2="32564.4" gradientUnits="userSpaceOnUse">
<stop stop-color="#FF928E"/>
<stop offset="1" stop-color="#FEB3B1"/>
</linearGradient>
<linearGradient id="paint53_linear" x1="3804.06" y1="23016.5" x2="3781.57" y2="28227.4" gradientUnits="userSpaceOnUse">
<stop stop-color="#4F52FF"/>
<stop offset="1" stop-color="#4042E2"/>
</linearGradient>
<linearGradient id="paint54_linear" x1="1500.27" y1="14306" x2="1187.3" y2="14306" gradientUnits="userSpaceOnUse">
<stop stop-color="#FF928E"/>
<stop offset="1" stop-color="#FEB3B1"/>
</linearGradient>
<linearGradient id="paint55_linear" x1="6223.18" y1="228747" x2="-8232.89" y2="144171" gradientUnits="userSpaceOnUse">
<stop stop-color="#09005D"/>
<stop offset="1" stop-color="#1A0F91"/>
</linearGradient>
<linearGradient id="paint56_linear" x1="3961.63" y1="19713.9" x2="3921.04" y2="24163.9" gradientUnits="userSpaceOnUse">
<stop stop-color="#4F52FF"/>
<stop offset="1" stop-color="#4042E2"/>
</linearGradient>
<linearGradient id="paint57_linear" x1="2247.15" y1="18629.4" x2="2013.81" y2="18629.4" gradientUnits="userSpaceOnUse">
<stop stop-color="#FF928E"/>
<stop offset="1" stop-color="#FEB3B1"/>
</linearGradient>
<linearGradient id="paint58_linear" x1="11328" y1="232664" x2="619.836" y2="145323" gradientUnits="userSpaceOnUse">
<stop stop-color="#09005D"/>
<stop offset="1" stop-color="#1A0F91"/>
</linearGradient>
<linearGradient id="paint59_linear" x1="87560.7" y1="65770.1" x2="110972" y2="102307" gradientUnits="userSpaceOnUse">
<stop stop-color="#4F52FF"/>
<stop offset="1" stop-color="#4042E2"/>
</linearGradient>
<linearGradient id="paint60_linear" x1="51500" y1="25254.3" x2="59833.4" y2="42414" gradientUnits="userSpaceOnUse">
<stop stop-color="#4F52FF"/>
<stop offset="1" stop-color="#4042E2"/>
</linearGradient>
<linearGradient id="paint61_linear" x1="23775.1" y1="26484" x2="10691.7" y2="26484" gradientUnits="userSpaceOnUse">
<stop stop-color="#FF928E"/>
<stop offset="1" stop-color="#FEB3B1"/>
</linearGradient>
<linearGradient id="paint62_linear" x1="78457.1" y1="47244.8" x2="84845" y2="35696.7" gradientUnits="userSpaceOnUse">
<stop stop-color="#09005D"/>
<stop offset="1" stop-color="#1A0F91"/>
</linearGradient>
<linearGradient id="paint63_linear" x1="3608.66" y1="14202.4" x2="2338.78" y2="14202.4" gradientUnits="userSpaceOnUse">
<stop stop-color="#FF928E"/>
<stop offset="1" stop-color="#FEB3B1"/>
</linearGradient>
<linearGradient id="paint64_linear" x1="26680.5" y1="10481.7" x2="27631" y2="9885.73" gradientUnits="userSpaceOnUse">
<stop stop-color="#FF928E"/>
<stop offset="1" stop-color="#FEB3B1"/>
</linearGradient>
<linearGradient id="paint65_linear" x1="31652.8" y1="14998.6" x2="32461.3" y2="18996.5" gradientUnits="userSpaceOnUse">
<stop stop-color="#FF928E"/>
<stop offset="1" stop-color="#FEB3B1"/>
</linearGradient>
<linearGradient id="paint66_linear" x1="37361.3" y1="12982.2" x2="35660" y2="17088.9" gradientUnits="userSpaceOnUse">
<stop stop-color="#FF928E"/>
<stop offset="1" stop-color="#FEB3B1"/>
</linearGradient>
<linearGradient id="paint67_linear" x1="99588" y1="31135.1" x2="95172.6" y2="34629.2" gradientUnits="userSpaceOnUse">
<stop stop-color="#09005D"/>
<stop offset="1" stop-color="#1A0F91"/>
</linearGradient>
<linearGradient id="paint68_linear" x1="11846.7" y1="2838.53" x2="11590.2" y2="3759.58" gradientUnits="userSpaceOnUse">
<stop stop-color="#FF928E"/>
<stop offset="1" stop-color="#FEB3B1"/>
</linearGradient>
</defs>
</svg>
