<svg width="74" height="45" viewBox="0 0 74 45" fill="none" xmlns="http://www.w3.org/2000/svg">
<path d="M72.25 22.25H53C52.0335 22.25 51.25 23.0335 51.25 24V43.25C51.25 44.2165 52.0335 45 53 45H72.25C73.2165 45 74 44.2165 74 43.25V24C74 23.0335 73.2165 22.25 72.25 22.25ZM72.25 43.25H53V24H72.25V43.25Z" fill="black"/>
<path d="M47.75 18.75H67V20.5H68.75V18.75C68.75 17.7835 67.9665 17 67 17H47.75C46.7835 17 46 17.7835 46 18.75V38C46 38.9665 46.7835 39.75 47.75 39.75H49.5V38H47.75V18.75Z" fill="black"/>
<path d="M55.6249 38.875H69.6249C70.1081 38.8778 70.5022 38.4884 70.505 38.0051C70.5064 37.77 70.4131 37.5443 70.2462 37.3788L66.7462 33.8788C66.4049 33.5395 65.8537 33.5395 65.5124 33.8788L64.3749 35.0163L61.4962 32.1375C61.1549 31.7982 60.6037 31.7982 60.2624 32.1375L55.0124 37.3875C54.6741 37.7326 54.6795 38.2866 55.0246 38.6249C55.1852 38.7823 55.4001 38.8718 55.6249 38.875Z" fill="black"/>
<path d="M67 31.875C67.9665 31.875 68.75 31.0915 68.75 30.125C68.75 29.1585 67.9665 28.375 67 28.375C66.0335 28.375 65.25 29.1585 65.25 30.125C65.25 31.0915 66.0335 31.875 67 31.875Z" fill="black"/>
<path d="M26.25 0H3.75003C1.68275 0 0 1.68179 0 3.75003V41.2501C0 43.3182 1.68275 45 3.75003 45H26.25C28.3173 45 30.0001 43.3182 30.0001 41.25V3.75003C30.0001 1.68179 28.3173 0 26.25 0ZM28.125 41.25C28.125 42.2836 27.2845 43.1249 26.25 43.1249H3.75003C2.71547 43.1249 1.87506 42.2836 1.87506 41.25V37.4999H2.81259H27.1876H28.1251V41.25H28.125ZM12.7607 27.7743C11.7609 26.7746 11.3032 25.2887 11.2939 24.9554C11.2939 24.5562 11.0431 24.2147 10.6915 24.0792C10.4132 23.5811 10.1367 21.9479 10.1331 21.4736C10.1331 21.2978 10.1862 21.0754 10.2393 20.9536C10.5616 20.9133 10.8673 20.7567 10.99 20.4583C11.1347 20.1076 11.109 19.7771 10.8399 19.5098C10.6934 19.1445 10.7044 17.5725 10.7099 16.8163L10.7136 16.2504C10.7136 15.1371 11.8214 14.3306 12.0979 14.2857C12.3707 14.2857 12.6509 14.1411 12.8303 13.9342C12.8578 13.9012 13.5481 13.1249 15.5805 13.1249C18.5157 13.1249 20.182 14.9651 20.4164 16.4711L20.1399 16.7467C19.9641 16.9225 19.8652 17.1614 19.8652 17.4104C19.8652 18.423 19.4532 19.1755 19.2664 19.3633C18.9991 19.6315 18.9185 20.0343 19.0631 20.385C19.1858 20.6808 19.4495 20.8904 19.7571 20.948C19.812 21.0689 19.8651 21.295 19.8651 21.4726C19.8614 21.9487 19.5832 23.5903 19.3048 24.0837C18.9606 24.222 18.7153 24.5644 18.7043 24.9535C18.6951 25.2776 18.2227 26.79 17.2394 27.7742C17.0068 28.0077 16.9135 28.3455 16.9922 28.6641L17.5726 30.9859C17.677 31.4034 18.0523 31.6963 18.4826 31.6963H19.1418C19.8266 32.7226 20.8484 33.5027 22.0184 33.8927L23.8402 34.5016C24.2779 34.6462 24.7668 35.0225 25.3033 35.6249H4.6967C5.23318 35.0225 5.72212 34.6462 6.15973 34.5006L7.98161 33.8926C9.1517 33.5026 10.1734 32.7235 10.8582 31.6963H11.5174C11.9477 31.6963 12.3231 31.4033 12.4274 30.9858L13.0078 28.664C13.0866 28.3447 12.9932 28.0069 12.7607 27.7743ZM28.125 35.625H27.6716C26.8857 34.5015 25.7874 33.1724 24.4336 32.7227L22.6117 32.1148C21.8335 31.8548 21.156 31.3366 20.6982 30.6527L20.4199 30.2371C20.246 29.9771 19.9548 29.8215 19.6417 29.8215H19.2151L18.9331 28.6963C19.7754 27.6864 20.3156 26.4221 20.5042 25.5496C21.6559 24.5178 21.7402 21.5104 21.7402 21.4737C21.7402 20.8448 21.5644 20.2112 21.222 19.7553C21.4765 19.2233 21.6724 18.5559 21.7255 17.8134L22.046 17.4948C22.2217 17.319 22.3206 17.08 22.3206 16.8311C22.3206 14.1467 19.7443 11.25 15.5805 11.25C13.3447 11.25 12.1546 12.019 11.6455 12.4732C10.3949 12.8 8.83846 14.3674 8.83846 16.2506L8.83477 16.8027C8.82563 18.0533 8.83661 18.9367 8.93549 19.5685C8.48874 20.0272 8.25803 20.7532 8.25803 21.4737C8.25803 21.5104 8.34223 24.5178 9.49403 25.5496C9.68265 26.4221 10.2228 27.6874 11.0669 28.6963L10.785 29.8215H10.3565C10.0434 29.8215 9.75041 29.978 9.57648 30.2398L9.29997 30.6546C8.84399 31.3366 8.16653 31.8548 7.38835 32.1149L5.56647 32.7219C4.2126 33.1723 3.11432 34.5016 2.32849 35.625H1.87506V3.75003C1.87506 2.71644 2.71556 1.87506 3.75003 1.87506H26.25C27.2846 1.87506 28.125 2.71644 28.125 3.75003V35.625Z" fill="black"/>
<path d="M17.8125 39.375H12.1875C11.6693 39.375 11.25 39.7943 11.25 40.3125C11.25 40.8307 11.6693 41.2501 12.1875 41.2501H17.8125C18.3307 41.2501 18.7501 40.8307 18.7501 40.3125C18.7501 39.7943 18.3307 39.375 17.8125 39.375Z" fill="black"/>
<path d="M15.0005 7.49994C16.036 7.49994 16.8754 6.66049 16.8754 5.62497C16.8754 4.58945 16.036 3.75 15.0005 3.75C13.9649 3.75 13.1255 4.58945 13.1255 5.62497C13.1255 6.66049 13.9649 7.49994 15.0005 7.49994Z" fill="black"/>
</svg>
