<svg width="143" height="242" viewBox="0 0 143 242" fill="none" xmlns="http://www.w3.org/2000/svg">
<path d="M24.8146 27.1095C24.8146 17.6203 24.8146 12.8757 26.6613 9.25127C28.2857 6.06316 30.8777 3.47115 34.0659 1.84672C37.6903 0 42.4349 0 51.9241 0H114.191C123.68 0 128.425 0 132.049 1.84672C135.237 3.47115 137.829 6.06316 139.454 9.25127C141.301 12.8757 141.301 17.6203 141.301 27.1095V61.4199H141.789C141.969 61.4199 142.115 61.5658 142.115 61.7457V89.4417C142.115 89.6217 141.969 89.7676 141.789 89.7676H141.301V211.891C141.301 221.38 141.301 226.124 139.454 229.749C137.829 232.937 135.237 235.529 132.049 237.153C128.425 239 123.68 239 114.191 239H51.9241C42.4349 239 37.6903 239 34.0659 237.153C30.8777 235.529 28.2857 232.937 26.6613 229.749C24.8146 226.124 24.8146 221.38 24.8146 211.891V95.4697H24.3258C24.1459 95.4697 24 95.3238 24 95.1438V77.5487C24 77.3688 24.1459 77.2229 24.3258 77.2229H24.8146V73.15H24.3258C24.1459 73.15 24 73.0041 24 72.8241V55.229C24 55.0491 24.1459 54.9032 24.3258 54.9032H24.8146V47.2461H24.3258C24.1459 47.2461 24 47.1002 24 46.9202V38.1227C24 37.9427 24.1459 37.7969 24.3258 37.7969H24.8146V27.1095Z" fill="#7A602C"/>
<g style="mix-blend-mode:multiply">
<mask id="mask0" mask-type="alpha" maskUnits="userSpaceOnUse" x="24" y="0" width="118" height="239">
<path d="M24.8145 27.1095C24.8145 17.6203 24.8145 12.8757 26.6612 9.25127C28.2856 6.06316 30.8776 3.47115 34.0657 1.84672C37.6901 0 42.4347 0 51.9239 0H114.191C123.68 0 128.425 0 132.049 1.84672C135.237 3.47115 137.829 6.06316 139.454 9.25127C141.3 12.8757 141.3 17.6203 141.3 27.1095V211.891C141.3 221.38 141.3 226.124 139.454 229.749C137.829 232.937 135.237 235.529 132.049 237.153C128.425 239 123.68 239 114.191 239H51.9239C42.4347 239 37.6901 239 34.0657 237.153C30.8776 235.529 28.2856 232.937 26.6612 229.749C24.8145 226.124 24.8145 221.38 24.8145 211.891V27.1095Z" fill="black"/>
</mask>
<g mask="url(#mask0)">
<g filter="url(#filter0_i)">
<path d="M24.8145 27.1095C24.8145 17.6203 24.8145 12.8757 26.6612 9.25127C28.2856 6.06316 30.8776 3.47115 34.0657 1.84672C37.6901 0 42.4347 0 51.9239 0H114.191C123.68 0 128.425 0 132.049 1.84672C135.237 3.47115 137.829 6.06316 139.454 9.25127C141.3 12.8757 141.3 17.6203 141.3 27.1095V211.891C141.3 221.38 141.3 226.124 139.454 229.749C137.829 232.937 135.237 235.529 132.049 237.153C128.425 239 123.68 239 114.191 239H51.9239C42.4347 239 37.6901 239 34.0657 237.153C30.8776 235.529 28.2856 232.937 26.6612 229.749C24.8145 226.124 24.8145 221.38 24.8145 211.891V27.1095Z" fill="#EBEBEB"/>
</g>
<rect x="24.1631" y="20.3647" width="2.7696" height="2.28085" fill="url(#paint0_linear)"/>
<rect x="24.1631" y="217.332" width="2.7696" height="2.28085" fill="url(#paint1_linear)"/>
<rect x="139.183" y="20.3647" width="2.7696" height="2.28085" fill="url(#paint2_linear)"/>
<rect x="139.183" y="217.332" width="2.7696" height="2.28085" fill="url(#paint3_linear)"/>
<rect x="116.537" y="-1.14041" width="2.7696" height="2.28085" transform="rotate(90 116.537 -1.14041)" fill="url(#paint4_linear)"/>
<rect x="47.949" y="236.882" width="2.7696" height="2.28085" transform="rotate(90 47.949 236.882)" fill="url(#paint5_linear)"/>
</g>
<path d="M26.1584 26.5881C26.1584 22.1622 26.1584 18.8452 26.3736 16.2121C26.5887 13.5794 27.0186 11.6339 27.8764 9.95042C29.3876 6.98456 31.7989 4.57324 34.7648 3.06206C36.4483 2.20426 38.3937 1.77434 41.0264 1.55924C43.6596 1.34411 46.9765 1.34407 51.4025 1.34407H114.712C119.138 1.34407 122.455 1.34411 125.088 1.55924C127.721 1.77434 129.666 2.20426 131.35 3.06206C134.316 4.57324 136.727 6.98456 138.238 9.95042C139.096 11.6339 139.526 13.5794 139.741 16.2121C139.956 18.8452 139.956 22.1622 139.956 26.5881V212.412C139.956 216.838 139.956 220.155 139.741 222.788C139.526 225.421 139.096 227.366 138.238 229.05C136.727 232.015 134.316 234.427 131.35 235.938C129.666 236.796 127.721 237.226 125.088 237.441C122.455 237.656 119.138 237.656 114.712 237.656H51.4025C46.9765 237.656 43.6596 237.656 41.0264 237.441C38.3937 237.226 36.4483 236.796 34.7648 235.938C31.7989 234.427 29.3876 232.015 27.8764 229.05C27.0186 227.366 26.5887 225.421 26.3736 222.788C26.1584 220.155 26.1584 216.838 26.1584 212.412V26.5881Z" fill="black" stroke="url(#paint6_linear)" stroke-width="0.0814588"/>
<g filter="url(#filter1_ii)">
<path d="M24 38.1227C24 37.9428 24.1459 37.7969 24.3258 37.7969H24.8146V47.2461H24.3258C24.1459 47.2461 24 47.1002 24 46.9203V38.1227Z" fill="url(#paint7_linear)"/>
</g>
<g filter="url(#filter2_ii)">
<path d="M24 55.229C24 55.0491 24.1459 54.9032 24.3258 54.9032H24.8146V73.15H24.3258C24.1459 73.15 24 73.0041 24 72.8241V55.229Z" fill="url(#paint8_linear)"/>
</g>
<g filter="url(#filter3_ii)">
<path d="M141.3 61.4199H141.789C141.969 61.4199 142.115 61.5658 142.115 61.7458V89.4417C142.115 89.6217 141.969 89.7676 141.789 89.7676H141.3V61.4199Z" fill="url(#paint9_linear)"/>
</g>
<g filter="url(#filter4_ii)">
<path d="M24 77.5488C24 77.3688 24.1459 77.2229 24.3258 77.2229H24.8146V95.4697H24.3258C24.1459 95.4697 24 95.3238 24 95.1439V77.5488Z" fill="url(#paint10_linear)"/>
</g>
</g>
<g style="mix-blend-mode:screen">
<mask id="mask1" mask-type="alpha" maskUnits="userSpaceOnUse" x="23" y="3" width="118" height="239">
<path d="M23.8145 30.1095C23.8145 20.6203 23.8145 15.8757 25.6612 12.2513C27.2856 9.06316 29.8776 6.47115 33.0657 4.84672C36.6901 3 41.4347 3 50.9239 3H113.191C122.68 3 127.425 3 131.049 4.84672C134.237 6.47115 136.829 9.06316 138.454 12.2513C140.3 15.8757 140.3 20.6203 140.3 30.1095V214.891C140.3 224.38 140.3 229.124 138.454 232.749C136.829 235.937 134.237 238.529 131.049 240.153C127.425 242 122.68 242 113.191 242H50.9239C41.4347 242 36.6901 242 33.0657 240.153C29.8776 238.529 27.2856 235.937 25.6612 232.749C23.8145 229.124 23.8145 224.38 23.8145 214.891V30.1095Z" fill="black"/>
</mask>
<g mask="url(#mask1)">
<g filter="url(#filter5_ii)">
<path d="M23.8145 30.1095C23.8145 20.6203 23.8145 15.8757 25.6612 12.2513C27.2856 9.06316 29.8776 6.47115 33.0657 4.84672C36.6901 3 41.4347 3 50.9239 3H113.191C122.68 3 127.425 3 131.049 4.84672C134.237 6.47115 136.829 9.06316 138.454 12.2513C140.3 15.8757 140.3 20.6203 140.3 30.1095V214.891C140.3 224.38 140.3 229.124 138.454 232.749C136.829 235.937 134.237 238.529 131.049 240.153C127.425 242 122.68 242 113.191 242H50.9239C41.4347 242 36.6901 242 33.0657 240.153C29.8776 238.529 27.2856 235.937 25.6612 232.749C23.8145 229.124 23.8145 224.38 23.8145 214.891V30.1095Z" fill="#050505"/>
</g>
<path d="M23.9774 30.1095C23.9774 25.3622 23.9775 21.8115 24.2077 18.9943C24.4377 16.1791 24.8966 14.1106 25.8063 12.3252C27.4151 9.16778 29.9822 6.60069 33.1397 4.99188C34.9251 4.08217 36.9935 3.62323 39.8088 3.39322C42.626 3.16304 46.1766 3.16292 50.9239 3.16292H113.191C117.938 3.16292 121.489 3.16304 124.306 3.39322C127.121 3.62323 129.19 4.08217 130.975 4.99188C134.133 6.60069 136.7 9.16778 138.309 12.3252C139.218 14.1106 139.677 16.1791 139.907 18.9943C140.137 21.8115 140.138 25.3622 140.138 30.1095V214.891C140.138 219.638 140.137 223.188 139.907 226.006C139.677 228.821 139.218 230.889 138.309 232.675C136.7 235.832 134.133 238.399 130.975 240.008C129.19 240.918 127.121 241.377 124.306 241.607C121.489 241.837 117.938 241.837 113.191 241.837H50.9239C46.1766 241.837 42.626 241.837 39.8088 241.607C36.9935 241.377 34.9251 240.918 33.1397 240.008C29.9822 238.399 27.4151 235.832 25.8063 232.675C24.8966 230.889 24.4377 228.821 24.2077 226.006C23.9775 223.188 23.9774 219.638 23.9774 214.891V30.1095Z" stroke="url(#paint11_linear)" stroke-width="0.325835"/>
<rect x="23.1631" y="23.3647" width="2.7696" height="2.28085" fill="url(#paint12_linear)"/>
<rect x="23.1631" y="220.332" width="2.7696" height="2.28085" fill="url(#paint13_linear)"/>
<rect x="138.183" y="23.3647" width="2.7696" height="2.28085" fill="url(#paint14_linear)"/>
<rect x="138.183" y="220.332" width="2.7696" height="2.28085" fill="url(#paint15_linear)"/>
<rect x="115.537" y="1.85959" width="2.7696" height="2.28085" transform="rotate(90 115.537 1.85959)" fill="url(#paint16_linear)"/>
<rect x="46.949" y="239.882" width="2.7696" height="2.28085" transform="rotate(90 46.949 239.882)" fill="url(#paint17_linear)"/>
</g>
<path d="M25.1584 29.5881C25.1584 25.1622 25.1584 21.8452 25.3736 19.2121C25.5887 16.5794 26.0186 14.6339 26.8764 12.9504C28.3876 9.98456 30.7989 7.57324 33.7648 6.06206C35.4483 5.20426 37.3937 4.77434 40.0264 4.55924C42.6596 4.34411 45.9765 4.34407 50.4025 4.34407H113.712C118.138 4.34407 121.455 4.34411 124.088 4.55924C126.721 4.77434 128.666 5.20426 130.35 6.06206C133.316 7.57324 135.727 9.98456 137.238 12.9504C138.096 14.6339 138.526 16.5794 138.741 19.2121C138.956 21.8452 138.956 25.1622 138.956 29.5881V215.412C138.956 219.838 138.956 223.155 138.741 225.788C138.526 228.421 138.096 230.366 137.238 232.05C135.727 235.015 133.316 237.427 130.35 238.938C128.666 239.796 126.721 240.226 124.088 240.441C121.455 240.656 118.138 240.656 113.712 240.656H50.4025C45.9765 240.656 42.6596 240.656 40.0264 240.441C37.3937 240.226 35.4483 239.796 33.7648 238.938C30.7989 237.427 28.3876 235.015 26.8764 232.05C26.0186 230.366 25.5887 228.421 25.3736 225.788C25.1584 223.155 25.1584 219.838 25.1584 215.412V29.5881Z" fill="black" stroke="url(#paint18_linear)" stroke-width="0.0814588"/>
<path d="M30.7243 14.914C29.5168 17.2838 29.5168 20.386 29.5168 26.5905V218.41C29.5168 224.614 29.5168 227.716 30.7243 230.086C31.7864 232.171 33.4812 233.865 35.5658 234.928C37.9355 236.135 41.0378 236.135 47.2423 236.135H116.873C123.078 236.135 126.18 236.135 128.55 234.928C130.634 233.865 132.329 232.171 133.391 230.086C134.599 227.716 134.599 224.614 134.599 218.41V26.5905C134.599 20.386 134.599 17.2838 133.391 14.914C132.329 12.8294 130.634 11.1346 128.55 10.0725C126.18 8.86505 123.078 8.86505 116.873 8.86505H111.428C111.158 8.86505 111.024 8.86505 110.916 8.90435C110.735 8.97023 110.592 9.11283 110.526 9.29384C110.487 9.40181 110.487 9.53666 110.487 9.80635C110.487 11.9639 110.487 13.0427 110.172 13.9065C109.645 15.3546 108.505 16.4953 107.057 17.0224C106.193 17.3368 105.114 17.3368 102.956 17.3368H61.159C59.0015 17.3368 57.9227 17.3368 57.0589 17.0224C55.6108 16.4953 54.4701 15.3546 53.943 13.9065C53.6286 13.0427 53.6286 11.9639 53.6286 9.80635C53.6286 9.53666 53.6286 9.40181 53.5893 9.29384C53.5235 9.11283 53.3809 8.97023 53.1999 8.90435C53.0919 8.86505 52.957 8.86505 52.6873 8.86505H47.2423C41.0378 8.86505 37.9355 8.86505 35.5658 10.0725C33.4812 11.1346 31.7864 12.8294 30.7243 14.914Z" fill="black"/>
<g filter="url(#filter6_iiii)">
<path d="M23 41.1227C23 40.9428 23.1459 40.7969 23.3258 40.7969H23.8146V50.2461H23.3258C23.1459 50.2461 23 50.1002 23 49.9203V41.1227Z" fill="url(#paint19_linear)"/>
</g>
<g filter="url(#filter7_iiii)">
<path d="M23 58.229C23 58.0491 23.1459 57.9032 23.3258 57.9032H23.8146V76.15H23.3258C23.1459 76.15 23 76.0041 23 75.8241V58.229Z" fill="url(#paint20_linear)"/>
</g>
<g filter="url(#filter8_iiii)">
<path d="M140.3 64.4199H140.789C140.969 64.4199 141.115 64.5658 141.115 64.7458V92.4417C141.115 92.6217 140.969 92.7676 140.789 92.7676H140.3V64.4199Z" fill="url(#paint21_linear)"/>
</g>
<g filter="url(#filter9_iiii)">
<path d="M23 80.5488C23 80.3688 23.1459 80.2229 23.3258 80.2229H23.8146V98.4697H23.3258C23.1459 98.4697 23 98.3238 23 98.1439V80.5488Z" fill="url(#paint22_linear)"/>
</g>
</g>
<mask id="mask2" mask-type="alpha" maskUnits="userSpaceOnUse" x="30" y="5" width="106" height="229">
<path d="M31.7243 11.914C30.5168 14.2838 30.5168 17.386 30.5168 23.5905V215.41C30.5168 221.614 30.5168 224.716 31.7243 227.086C32.7864 229.171 34.4812 230.865 36.5658 231.928C38.9355 233.135 42.0378 233.135 48.2423 233.135H117.873C124.078 233.135 127.18 233.135 129.55 231.928C131.634 230.865 133.329 229.171 134.391 227.086C135.599 224.716 135.599 221.614 135.599 215.41V23.5905C135.599 17.386 135.599 14.2838 134.391 11.914C133.329 9.82942 131.634 8.13465 129.55 7.07252C127.18 5.86505 124.078 5.86505 117.873 5.86505H112.428C112.158 5.86505 112.024 5.86505 111.916 5.90435C111.735 5.97023 111.592 6.11283 111.526 6.29384C111.487 6.40181 111.487 6.53666 111.487 6.80635C111.487 8.96389 111.487 10.0427 111.172 10.9065C110.645 12.3546 109.505 13.4953 108.057 14.0224C107.193 14.3368 106.114 14.3368 103.956 14.3368H62.159C60.0015 14.3368 58.9227 14.3368 58.0589 14.0224C56.6108 13.4953 55.4701 12.3546 54.943 10.9065C54.6286 10.0427 54.6286 8.96389 54.6286 6.80635C54.6286 6.53666 54.6286 6.40181 54.5893 6.29384C54.5235 6.11283 54.3809 5.97023 54.1999 5.90435C54.0919 5.86505 53.957 5.86505 53.6873 5.86505H48.2423C42.0378 5.86505 38.9355 5.86505 36.5658 7.07252C34.4812 8.13465 32.7864 9.82942 31.7243 11.914Z" fill="#161616"/>
</mask>
<g mask="url(#mask2)">
<rect x="31" y="-5" width="105" height="238" fill="white"/>
<path d="M96.4497 71.0887C96.4497 71.4284 96.4362 71.7665 96.4062 72.0998C96.1023 75.7639 94.1493 79.056 91.248 81.2156C89.1477 82.7811 86.6303 83.6884 84.0142 83.8228C76.8513 84.2002 70.8833 78.8019 70.8833 71.7565C70.8833 68.1181 72.4765 64.8319 75.0058 62.5081C75.3909 62.1535 75.7969 61.8223 76.2217 61.5163C78.4898 59.8787 81.2166 58.9981 84.0142 59C90.964 59 96.4497 64.4123 96.4497 71.0887Z" fill="#A737D5"/>
<path d="M83.4041 80.1962C78.6426 80.1962 74.7695 76.3232 74.7695 71.5616C74.7695 66.8001 78.6426 62.9276 83.4041 62.9276C88.1657 62.9276 92.0381 66.8007 92.0381 71.5616C92.0381 76.3226 88.1645 80.1962 83.4041 80.1962ZM83.4041 63.5086C78.963 63.5086 75.3505 67.1211 75.3505 71.5616C75.3505 76.0022 78.963 79.6153 83.4041 79.6153C87.8453 79.6153 91.4572 76.0022 91.4572 71.5616C91.4572 67.1211 87.8429 63.5086 83.4041 63.5086Z" fill="white"/>
<path d="M80.0109 70.5404C80.4456 70.1057 80.4456 69.4009 80.0109 68.9661C79.5762 68.5314 78.8713 68.5314 78.4366 68.9661C78.0018 69.4009 78.0018 70.1057 78.4366 70.5405C78.8713 70.9752 79.5762 70.9752 80.0109 70.5404Z" fill="white"/>
<path d="M88.2877 70.5406C88.7225 70.1059 88.7225 69.4011 88.2877 68.9663C87.853 68.5316 87.1482 68.5316 86.7134 68.9663C86.2787 69.4011 86.2787 70.1059 86.7134 70.5406C87.1482 70.9754 87.853 70.9754 88.2877 70.5406Z" fill="white"/>
<path d="M79.4202 74.2306C79.4759 74.2308 79.5303 74.2469 79.5772 74.2769C79.624 74.307 79.6614 74.3497 79.6849 74.4002C80.2336 75.602 81.7505 76.4089 83.4605 76.4089C85.1829 76.4089 86.6576 75.6202 87.2162 74.4002C87.2492 74.3316 87.3078 74.2787 87.3793 74.2529C87.4509 74.227 87.5297 74.2303 87.5989 74.262C87.6681 74.2936 87.7221 74.3512 87.7493 74.4222C87.7765 74.4933 87.7747 74.5722 87.7444 74.6419C87.0913 76.0679 85.4094 76.9892 83.4605 76.9892C81.497 76.9892 79.8075 76.0673 79.1562 74.6419C79.1249 74.5717 79.1225 74.4921 79.1494 74.4201C79.1763 74.3481 79.2303 74.2895 79.2999 74.257C79.3376 74.2395 79.3787 74.2305 79.4202 74.2306Z" fill="white"/>
<path d="M66.4504 99.0841C66.4504 99.4239 66.4363 99.7619 66.4064 100.096C66.1024 103.759 64.1494 107.052 61.2486 109.211C59.1486 110.778 56.6308 111.687 54.0141 111.822C46.8547 112.2 40.8831 106.802 40.8831 99.7561C40.8831 96.1177 42.4763 92.8314 45.0056 90.5069C45.3908 90.1524 45.797 89.8214 46.2221 89.5158C48.4901 87.8784 51.2168 86.998 54.0141 87C60.9646 87 66.4504 92.4106 66.4504 99.0841Z" fill="#EB5757"/>
<path d="M53.1967 108.194C48.4357 108.194 44.562 104.321 44.562 99.56C44.562 94.799 48.4351 90.9259 53.1967 90.9259C57.9583 90.9259 61.8309 94.799 61.8309 99.56C61.8309 104.321 57.9577 108.194 53.1967 108.194ZM53.1967 91.5063C48.7561 91.5063 45.143 95.1194 45.143 99.56C45.143 104.001 48.7561 107.613 53.1967 107.613C57.6373 107.613 61.2499 104.001 61.2499 99.56C61.2499 95.1194 57.6373 91.5063 53.1967 91.5063Z" fill="white"/>
<path d="M49.8447 99.9906C50.2794 99.5559 50.2794 98.851 49.8447 98.4163C49.4099 97.9815 48.7051 97.9815 48.2703 98.4163C47.8356 98.851 47.8356 99.5559 48.2703 99.9906C48.7051 100.425 49.4099 100.425 49.8447 99.9906Z" fill="white"/>
<path d="M58.1225 99.9907C58.5572 99.556 58.5572 98.8511 58.1225 98.4164C57.6878 97.9816 56.9829 97.9816 56.5482 98.4164C56.1134 98.8511 56.1134 99.556 56.5482 99.9907C56.9829 100.425 57.6878 100.425 58.1225 99.9907Z" fill="white"/>
<path d="M54.7201 103.093C54.6516 103.093 54.5855 103.068 54.5332 103.024C54.4809 102.98 54.4457 102.919 54.4337 102.852C54.2817 101.954 53.7618 101.302 53.1966 101.302C52.6315 101.302 52.1128 101.952 51.9596 102.847C51.9547 102.886 51.942 102.923 51.9223 102.957C51.9025 102.991 51.876 103.021 51.8446 103.044C51.8131 103.067 51.7772 103.084 51.739 103.093C51.7009 103.103 51.6613 103.104 51.6226 103.097C51.5839 103.091 51.547 103.076 51.514 103.055C51.481 103.034 51.4527 103.006 51.4307 102.974C51.4087 102.941 51.3936 102.905 51.3861 102.866C51.3787 102.827 51.3791 102.788 51.3874 102.75C51.5916 101.555 52.3352 100.721 53.1966 100.721C54.0581 100.721 54.804 101.558 55.0064 102.754C55.0186 102.83 55.0005 102.908 54.956 102.97C54.9116 103.033 54.8444 103.076 54.7688 103.089C54.7527 103.092 54.7364 103.093 54.7201 103.093Z" fill="white"/>
<path d="M50.5369 98.1716C50.4599 98.1713 50.3862 98.1407 50.3315 98.0865L48.7617 96.5161C48.7082 96.4615 48.6783 96.3879 48.6787 96.3114C48.6791 96.2348 48.7097 96.1615 48.7638 96.1074C48.8179 96.0533 48.8912 96.0227 48.9677 96.0223C49.0443 96.022 49.1179 96.0518 49.1725 96.1054L50.7429 97.6757C50.7821 97.7169 50.8086 97.7685 50.819 97.8244C50.8295 97.8803 50.8234 97.938 50.8017 97.9906C50.7799 98.0431 50.7434 98.0882 50.6965 98.1203C50.6496 98.1524 50.5944 98.1703 50.5375 98.1716H50.5369Z" fill="white"/>
<path d="M55.5014 98.1716C55.4445 98.1703 55.3893 98.1524 55.3424 98.1203C55.2955 98.0882 55.2589 98.0431 55.2372 97.9906C55.2154 97.938 55.2094 97.8803 55.2198 97.8244C55.2303 97.7685 55.2567 97.7169 55.296 97.6757L56.8687 96.1054C56.9233 96.0518 56.9969 96.022 57.0735 96.0223C57.15 96.0227 57.2233 96.0533 57.2774 96.1074C57.3315 96.1615 57.3621 96.2348 57.3625 96.3114C57.3629 96.3879 57.333 96.4615 57.2795 96.5161L55.7091 98.0865C55.6539 98.1413 55.5791 98.1719 55.5014 98.1716Z" fill="white"/>
<path d="M83.7839 91.5537L83.7839 91.561L83.7612 93.2119C83.7602 93.2842 83.745 93.3555 83.7165 93.4219C83.6879 93.4883 83.6465 93.5484 83.5946 93.5987C83.5428 93.6491 83.4815 93.6887 83.4143 93.7153C83.3471 93.7419 83.2753 93.755 83.203 93.7538C83.058 93.7494 82.9205 93.6888 82.8193 93.5848C82.7182 93.4808 82.6615 93.3415 82.6611 93.1965L82.6839 91.5464C82.6848 91.4005 82.7437 91.261 82.8476 91.1585C82.9514 91.056 83.0917 90.999 83.2376 91C83.3834 91.001 83.523 91.0598 83.6254 91.1637C83.7279 91.2675 83.7849 91.4078 83.7839 91.5537Z" fill="#CFCFCF"/>
<path d="M83.9886 96.4261L83.9886 96.4335L83.9431 99.6557C83.9421 99.7279 83.9268 99.7992 83.8982 99.8656C83.8697 99.9319 83.8283 99.992 83.7765 100.042C83.7247 100.093 83.6635 100.132 83.5964 100.159C83.5293 100.186 83.4575 100.199 83.3853 100.198C83.3131 100.197 83.2418 100.182 83.1754 100.153C83.1091 100.125 83.049 100.083 82.9986 100.031C82.9483 99.9796 82.9086 99.9184 82.8819 99.8513C82.8552 99.7842 82.842 99.7125 82.843 99.6402L82.8877 96.4188C82.894 96.2765 82.9553 96.1421 83.0586 96.044C83.1618 95.9458 83.2992 95.8915 83.4416 95.8925C83.5841 95.8934 83.7207 95.9496 83.8227 96.0491C83.9247 96.1486 83.9841 96.2837 83.9886 96.4261ZM83.8976 102.87L83.8976 102.878L83.8529 106.1C83.8518 106.172 83.8365 106.244 83.8079 106.31C83.7793 106.376 83.7379 106.436 83.6861 106.487C83.6342 106.537 83.573 106.577 83.5058 106.603C83.4387 106.63 83.367 106.643 83.2947 106.642C83.2221 106.642 83.1502 106.628 83.0833 106.6C83.0164 106.572 82.9558 106.53 82.9052 106.478C82.8545 106.426 82.8149 106.365 82.7886 106.297C82.7623 106.229 82.7498 106.157 82.752 106.085L82.7975 102.862C82.7985 102.717 82.8573 102.577 82.9612 102.475C83.065 102.372 83.2053 102.315 83.3512 102.316C83.4971 102.317 83.6366 102.376 83.739 102.48C83.8415 102.584 83.8985 102.724 83.8976 102.87ZM83.8074 109.314L83.8074 109.322L83.7627 112.544C83.7643 112.618 83.751 112.691 83.7236 112.76C83.6961 112.829 83.6551 112.891 83.603 112.944C83.5509 112.996 83.4887 113.038 83.4202 113.066C83.3517 113.094 83.2783 113.108 83.2043 113.106C83.1303 113.105 83.0573 113.09 82.9896 113.06C82.9219 113.03 82.8609 112.987 82.8103 112.933C82.7596 112.879 82.7204 112.815 82.6949 112.746C82.6694 112.676 82.6581 112.602 82.6618 112.528L82.7073 109.307C82.7083 109.161 82.7672 109.021 82.871 108.919C82.9748 108.817 83.1151 108.76 83.261 108.76C83.4069 108.761 83.5464 108.82 83.6489 108.924C83.7513 109.028 83.8084 109.168 83.8074 109.314Z" fill="#CFCFCF"/>
<path d="M83.7848 115.758L83.7848 115.766L83.7613 117.416C83.7592 117.562 83.6993 117.701 83.5947 117.803C83.4901 117.905 83.3494 117.961 83.2035 117.959C83.0576 117.957 82.9185 117.897 82.8168 117.792C82.7151 117.687 82.6591 117.547 82.6612 117.401L82.6848 115.751C82.6857 115.605 82.7446 115.465 82.8484 115.363C82.9523 115.26 83.0926 115.203 83.2384 115.204C83.3843 115.205 83.5238 115.264 83.6263 115.368C83.7288 115.472 83.7858 115.612 83.7848 115.758Z" fill="#CFCFCF"/>
<path d="M108.201 167.107C108.2 167.325 108.134 167.537 108.012 167.718C107.89 167.898 107.717 168.038 107.515 168.12C107.314 168.202 107.092 168.222 106.879 168.179C106.666 168.135 106.47 168.029 106.317 167.874C106.164 167.719 106.061 167.522 106.02 167.308C105.979 167.095 106.002 166.873 106.087 166.673C106.171 166.472 106.313 166.301 106.495 166.181C106.677 166.062 106.89 165.999 107.108 166C107.4 166.002 107.679 166.12 107.884 166.327C108.089 166.535 108.203 166.815 108.201 167.107Z" fill="#0CC0F4"/>
<path d="M108.201 172.108C108.2 172.325 108.134 172.538 108.012 172.718C107.889 172.898 107.717 173.038 107.515 173.12C107.313 173.202 107.092 173.222 106.879 173.178C106.665 173.135 106.47 173.028 106.317 172.874C106.164 172.719 106.061 172.522 106.02 172.308C105.979 172.094 106.002 171.873 106.087 171.673C106.171 171.472 106.313 171.301 106.495 171.181C106.677 171.062 106.89 170.999 107.108 171C107.252 171.001 107.395 171.03 107.528 171.087C107.662 171.143 107.782 171.225 107.884 171.328C107.985 171.43 108.066 171.552 108.12 171.686C108.174 171.82 108.202 171.963 108.201 172.108Z" fill="#0CC0F4"/>
<path d="M108.201 177.107C108.2 177.325 108.134 177.537 108.012 177.718C107.89 177.898 107.717 178.038 107.515 178.12C107.314 178.202 107.092 178.222 106.879 178.179C106.666 178.135 106.47 178.029 106.317 177.874C106.164 177.719 106.061 177.522 106.02 177.308C105.979 177.095 106.002 176.873 106.087 176.673C106.171 176.472 106.313 176.301 106.495 176.182C106.677 176.062 106.89 175.999 107.108 176C107.4 176.002 107.679 176.12 107.884 176.327C108.089 176.535 108.203 176.815 108.201 177.107Z" fill="#0CC0F4"/>
<path d="M110 166.921L110.003 167.098C110.01 167.577 110.185 167.956 110.398 167.958L126.602 168C126.822 168 127 167.602 127 167.107C127 166.624 126.827 166.227 126.613 166.218L110.404 166C110.177 165.989 109.992 166.41 110 166.921Z" fill="#CFCFCF"/>
<path d="M110 171.922L110.003 172.099C110.01 172.577 110.185 172.956 110.398 172.958L126.602 173C126.822 173 127 172.601 127 172.108C127 171.626 126.827 171.229 126.613 171.219L110.406 171C110.177 170.987 109.992 171.409 110 171.922Z" fill="#CFCFCF"/>
<path d="M110 177.078L110.003 176.901C110.01 176.423 110.185 176.044 110.398 176.042L126.602 176C126.822 176 127 176.398 127 176.892C127 177.375 126.827 177.771 126.613 177.781L110.406 178C110.177 178.01 109.992 177.589 110 177.078Z" fill="#CFCFCF"/>
<path d="M126.45 99.0842C126.45 99.4237 126.435 99.7608 126.406 100.095C126.102 103.759 124.149 107.052 121.248 109.211C119.148 110.778 116.631 111.686 114.014 111.822C106.851 112.199 100.883 106.801 100.883 99.7555C100.883 96.1171 102.476 92.8308 105.006 90.5069C105.39 90.152 105.796 89.8208 106.222 89.5152C108.49 87.8779 111.217 86.9977 114.014 87C120.964 87 126.45 92.4101 126.45 99.0842Z" fill="#27AE60"/>
<path d="M113.666 108.558C108.627 108.558 104.528 104.459 104.528 99.4204C104.528 94.3818 108.627 90.2822 113.666 90.2822C118.704 90.2822 122.804 94.3818 122.804 99.4204C122.804 104.459 118.704 108.558 113.666 108.558ZM113.666 91.0773C109.066 91.0773 105.323 94.8196 105.323 99.4204C105.323 104.021 109.066 107.763 113.666 107.763C118.266 107.763 122.007 104.021 122.007 99.4204C122.007 94.8202 118.267 91.0773 113.666 91.0773Z" fill="white"/>
<path d="M109.286 98.6915C109.93 98.6915 110.452 98.1695 110.452 97.5255C110.452 96.8815 109.93 96.3594 109.286 96.3594C108.642 96.3594 108.12 96.8815 108.12 97.5255C108.12 98.1695 108.642 98.6915 109.286 98.6915Z" fill="white"/>
<path d="M117.958 98.6915C118.602 98.6915 119.124 98.1695 119.124 97.5255C119.124 96.8815 118.602 96.3594 117.958 96.3594C117.314 96.3594 116.792 96.8815 116.792 97.5255C116.792 98.1695 117.314 98.6915 117.958 98.6915Z" fill="white"/>
<path d="M118.186 100.905C118.186 102.891 116.18 104.403 113.705 104.403C111.23 104.403 109.224 102.891 109.224 100.905H118.186Z" fill="white"/>
<path d="M130.711 206.117C129.887 203.597 128.436 201.356 126.533 199.54C124.129 197.243 121.003 195.627 117.516 194.982C117.516 194.982 112.987 194.2 108.019 192.92C106.396 192.502 104.659 192.852 103.357 193.852C99.886 196.518 93.3681 199.991 83.1299 199.757C73.8558 199.545 68.525 196.769 65.6355 194.38C64.2908 193.268 62.4384 192.873 60.7177 193.345C56.978 194.371 53.8656 194.983 53.8656 194.983C47.6195 196.137 39.6749 200.409 37.809 206.118C36.0211 211.587 34.1965 223.463 34.0015 231C33.9311 233.74 36.2694 233.132 39.1907 233.132H129.327C132.251 233.132 134.587 233.24 134.516 230.5C134.323 222.963 132.499 211.587 130.711 206.117Z" fill="#131F30"/>
<path d="M83.1312 200.224C95.7556 200.532 104.606 195.467 107.181 192.775C102.062 191.189 95.3777 188.468 95.2977 186.21L94.5271 164.475H74.1944L73.4238 186.21C73.3382 188.619 65.5464 191.765 60.719 193.384C62.783 196.022 71.166 199.933 83.1312 200.224Z" fill="#E9AB8B"/>
<path d="M66.5285 145.2C66.5285 145.2 69.4542 176.895 77.9992 180.302C77.9992 180.302 84.9332 183.288 90.725 179.909C90.725 179.909 100.278 171.214 99.5918 145.441C99.5918 145.441 100.383 130.507 83.9052 129.271C64.5977 127.823 66.5285 145.2 66.5285 145.2Z" fill="#FBBD9D"/>
<path d="M97.9026 156.343C97.9026 156.343 99.3507 151.999 101.764 151.999C104.177 151.999 101.281 163.584 97.9026 163.584V156.343Z" fill="url(#paint23_linear)"/>
<path d="M69.7012 155.352C69.7012 155.352 67.712 151.673 65.3189 151.999C62.9259 152.324 66.3533 164.018 69.7012 163.563V155.352Z" fill="url(#paint24_linear)"/>
<path d="M69.1621 153.224C68.9427 153.321 68.7058 153.372 68.4658 153.374C68.2259 153.376 67.9882 153.328 67.7674 153.234C67.5466 153.141 67.3475 153.002 67.1824 152.828C67.0173 152.654 66.8897 152.448 66.8076 152.222C66.1985 150.546 65.2632 147.997 64.5057 146.049C63.2724 142.878 56.7529 138.825 63.6249 130.896C70.4968 122.967 74.3882 131.572 78.9618 129.296C83.5354 127.02 88.9978 121.734 93.7553 125.081C98.5127 128.428 95.3411 131.601 96.9269 132.481C98.5127 133.361 100.979 128.781 102.741 134.948C104.105 139.719 101.884 148.503 100.809 152.235C100.748 152.447 100.64 152.643 100.494 152.808C100.347 152.973 100.165 153.103 99.9616 153.188C99.758 153.273 99.5379 153.312 99.3174 153.301C99.097 153.29 98.8818 153.23 98.6877 153.124C98.4723 153.008 98.2892 152.84 98.1551 152.635C98.021 152.431 97.94 152.196 97.9195 151.952C97.8002 150.546 97.5217 147.431 97.1035 143.934C96.5358 139.175 92.1929 145.768 83.7236 146.701C75.2543 147.635 75.9593 143.053 71.9076 143.053C70.1969 143.053 70.1463 149.017 70.2032 151.588C70.2106 151.932 70.1158 152.272 69.9308 152.563C69.7459 152.854 69.4789 153.083 69.1637 153.223L69.1621 153.224Z" fill="url(#paint25_linear)"/>
<g opacity="0.31">
<path opacity="0.31" d="M66.6664 148.793C66.839 148.681 66.8462 148.428 66.8024 148.211C66.7774 148.096 66.7453 147.983 66.7061 147.872C66.6664 147.759 66.6369 147.645 66.594 147.533C66.4266 147.087 66.2306 146.651 66.0071 146.23C65.5532 145.388 65.0364 144.578 64.5295 143.752C64.2793 143.337 64.0275 142.921 63.8019 142.486C63.5763 142.05 63.3642 141.607 63.2027 141.137C62.8626 140.205 62.7138 139.205 62.7277 138.213C62.7514 137.217 62.9474 136.233 63.307 135.305C63.6702 134.375 64.2063 133.524 64.8868 132.794C66.2431 131.344 68.1336 130.412 70.0819 130.265C70.0996 130.263 70.1175 130.268 70.1316 130.279C70.1457 130.29 70.1548 130.306 70.1571 130.324C70.1593 130.342 70.1544 130.36 70.1434 130.374C70.1324 130.388 70.1163 130.397 70.0986 130.399C68.2199 130.736 66.5068 131.689 65.229 133.107C63.9789 134.504 63.268 136.352 63.2151 138.226C63.1964 139.162 63.3173 140.105 63.628 140.992C63.9256 141.884 64.3752 142.731 64.851 143.564C65.3268 144.398 65.8396 145.224 66.2566 146.107C66.4656 146.548 66.6459 147.003 66.7965 147.467C66.8362 147.583 66.8625 147.703 66.8959 147.82C66.9325 147.939 66.9601 148.06 66.9787 148.184C66.9982 148.313 66.9951 148.445 66.9695 148.573C66.9561 148.643 66.9283 148.708 66.888 148.766C66.8477 148.824 66.7958 148.873 66.7356 148.91C66.7203 148.919 66.702 148.922 66.6847 148.917C66.6673 148.913 66.6525 148.902 66.6433 148.887C66.6341 148.871 66.6314 148.853 66.6357 148.836C66.64 148.818 66.6511 148.803 66.6664 148.794V148.793Z" fill="white"/>
</g>
<path opacity="0.31" d="M67.5257 149.134C67.5214 149.134 67.5172 149.134 67.5129 149.134C67.5042 149.132 67.4958 149.129 67.4884 149.124C67.4809 149.119 67.4745 149.112 67.4695 149.105C67.4645 149.098 67.461 149.089 67.4593 149.081C67.4575 149.072 67.4575 149.063 67.4592 149.054C67.8248 147.138 66.8748 145.3 65.9562 143.522C65.0658 141.799 64.1448 140.017 64.3735 138.126C64.695 135.472 67.1584 133.653 68.985 132.516C68.9924 132.511 69.0008 132.508 69.0095 132.507C69.0182 132.505 69.0272 132.505 69.0358 132.507C69.0444 132.509 69.0526 132.513 69.0597 132.518C69.0669 132.523 69.073 132.53 69.0777 132.538C69.087 132.553 69.09 132.571 69.086 132.588C69.0819 132.606 69.0712 132.621 69.0562 132.63C67.2539 133.753 64.8219 135.546 64.5072 138.142C64.2832 139.992 65.1947 141.756 66.0759 143.461C67.0053 145.259 67.9661 147.119 67.5917 149.08C67.5885 149.095 67.5802 149.109 67.5682 149.118C67.5562 149.128 67.5412 149.134 67.5257 149.134Z" fill="white"/>
<g opacity="0.31">
<path opacity="0.31" d="M79.8917 142.303C80.0547 142.805 80.3684 143.244 80.79 143.562C81.2026 143.886 81.6983 144.097 82.2083 144.208C82.7238 144.308 83.2536 144.309 83.7695 144.211C84.2867 144.122 84.7915 143.947 85.2777 143.734C85.7642 143.513 86.2363 143.261 86.6912 142.981C87.1492 142.7 87.6063 142.416 88.0539 142.115C88.9534 141.518 89.8366 140.892 90.7477 140.297C91.2012 139.997 91.6671 139.713 92.1401 139.437C92.6139 139.164 93.1014 138.916 93.6006 138.693C94.6068 138.252 95.6591 137.894 96.7834 137.818C97.0668 137.799 97.3515 137.812 97.632 137.857C97.9174 137.9 98.1945 137.987 98.4535 138.114L98.5502 138.163L98.6421 138.221C98.703 138.261 98.7654 138.296 98.8247 138.337C98.9361 138.429 99.0543 138.512 99.1509 138.619C99.3528 138.82 99.5243 139.05 99.6602 139.3C99.9387 139.794 100.084 140.335 100.183 140.875C100.282 141.415 100.323 141.96 100.346 142.502C100.347 142.52 100.341 142.537 100.329 142.55C100.317 142.564 100.301 142.572 100.284 142.573C100.266 142.574 100.249 142.569 100.235 142.557C100.222 142.546 100.213 142.53 100.212 142.512C100.151 141.976 100.085 141.438 99.9645 140.921C99.9059 140.662 99.8315 140.406 99.7418 140.156C99.6924 140.034 99.6475 139.91 99.5894 139.793L99.505 139.616L99.4084 139.447C99.2792 139.225 99.1184 139.022 98.9309 138.846C98.8434 138.753 98.736 138.684 98.6369 138.607C98.5836 138.573 98.5279 138.543 98.4738 138.51L98.3942 138.462L98.3087 138.422C97.8504 138.208 97.3248 138.164 96.8088 138.2C96.5476 138.22 96.288 138.257 96.0318 138.313C95.7744 138.368 95.5186 138.446 95.262 138.512C94.7568 138.675 94.2535 138.849 93.7701 139.076C93.2815 139.289 92.8121 139.548 92.3418 139.804C91.8776 140.072 91.4168 140.349 90.9653 140.643C90.059 141.225 89.1722 141.846 88.2599 142.44C87.8064 142.739 87.3449 143.028 86.8719 143.3C86.399 143.579 85.9089 143.827 85.4046 144.044C84.8954 144.254 84.3646 144.426 83.8132 144.509C83.2618 144.593 82.6933 144.596 82.1474 144.462C81.6016 144.328 81.0876 144.083 80.6595 143.723C80.2211 143.369 79.9061 142.885 79.7596 142.341C79.7543 142.324 79.7561 142.306 79.7645 142.29C79.7728 142.274 79.7872 142.262 79.8043 142.257C79.8215 142.251 79.84 142.253 79.8559 142.262C79.8717 142.27 79.8836 142.284 79.8889 142.301L79.8917 142.303Z" fill="white"/>
</g>
<path d="M78.363 170.622C81.9608 175.344 85.492 174.727 90.0529 170.622C86.374 171.387 82.0435 171.63 78.363 170.622Z" fill="white"/>
<path d="M86.7376 153.119C86.7373 153.208 86.7584 153.296 86.7989 153.376C86.8394 153.456 86.8982 153.524 86.9706 153.577C87.0429 153.629 87.1266 153.664 87.2149 153.678C87.3032 153.691 87.3935 153.684 87.4783 153.656C89.248 153.068 93.8303 151.88 97.2932 153.926C97.2932 153.926 95.3577 149.475 87.0996 152.591C86.9929 152.632 86.9012 152.704 86.8365 152.799C86.7719 152.893 86.7374 153.005 86.7376 153.119Z" fill="url(#paint26_linear)"/>
<path d="M80.7951 153.119C80.7953 153.208 80.7742 153.296 80.7336 153.376C80.6931 153.456 80.6342 153.524 80.5618 153.577C80.4895 153.629 80.4057 153.664 80.3174 153.678C80.2291 153.691 80.1388 153.684 80.0539 153.656C78.2843 153.068 73.7019 151.88 70.2395 153.926C70.2395 153.926 72.1746 149.475 80.4327 152.591C80.5395 152.632 80.6313 152.704 80.6961 152.798C80.7608 152.893 80.7953 153.004 80.7951 153.119Z" fill="url(#paint27_linear)"/>
<path d="M66.1849 146.124C66.0008 146.124 65.8242 146.051 65.6941 145.921C65.5639 145.79 65.4907 145.614 65.4907 145.43V140.417C65.4913 139.776 65.7461 139.162 66.1992 138.709C66.6523 138.256 67.2667 138.001 67.9076 138H71.377C71.5612 138 71.7377 138.073 71.8679 138.203C71.9981 138.334 72.0713 138.51 72.0713 138.694C72.0713 138.878 71.9981 139.055 71.8679 139.185C71.7377 139.315 71.5612 139.388 71.377 139.388H67.908C67.6353 139.389 67.3738 139.497 67.181 139.69C66.9882 139.883 66.8798 140.145 66.8796 140.417V145.43C66.8796 145.521 66.8616 145.611 66.8267 145.696C66.7918 145.78 66.7406 145.856 66.6761 145.921C66.6116 145.985 66.535 146.036 66.4507 146.071C66.3665 146.106 66.2761 146.124 66.1849 146.124Z" fill="#603BE6"/>
<path d="M99.8151 146.124C99.631 146.124 99.4544 146.051 99.3242 145.921C99.194 145.79 99.1209 145.614 99.1209 145.43V140.417C99.1207 140.145 99.0123 139.883 98.8195 139.69C98.6266 139.497 98.3652 139.389 98.0925 139.388H94.6234C94.4393 139.388 94.2627 139.315 94.1325 139.185C94.0023 139.055 93.9292 138.878 93.9292 138.694C93.9292 138.51 94.0023 138.334 94.1325 138.203C94.2627 138.073 94.4393 138 94.6234 138H98.0925C98.7333 138.001 99.3477 138.256 99.8009 138.709C100.254 139.162 100.509 139.776 100.509 140.417V145.43C100.509 145.521 100.491 145.611 100.456 145.695C100.422 145.78 100.37 145.856 100.306 145.921C100.242 145.985 100.165 146.036 100.081 146.071C99.9965 146.106 99.9063 146.124 99.8151 146.124Z" fill="#603BE6"/>
<path d="M71.3769 185.788H67.9078C67.267 185.787 66.6525 185.532 66.1994 185.079C65.7463 184.626 65.4915 184.012 65.491 183.371V178.358C65.491 178.174 65.5641 177.998 65.6943 177.867C65.8245 177.737 66.0011 177.664 66.1852 177.664C66.3693 177.664 66.5459 177.737 66.6761 177.867C66.8063 177.998 66.8794 178.174 66.8794 178.358V183.371C66.8796 183.643 66.988 183.905 67.1808 184.098C67.3736 184.291 67.6351 184.399 67.9078 184.4H71.3769C71.561 184.4 71.7376 184.473 71.8678 184.603C71.998 184.733 72.0711 184.91 72.0711 185.094C72.0711 185.278 71.998 185.454 71.8678 185.585C71.7376 185.715 71.561 185.788 71.3769 185.788Z" fill="#603BE6"/>
<path d="M98.0925 185.788H94.6234C94.4393 185.788 94.2627 185.715 94.1325 185.585C94.0023 185.454 93.9292 185.278 93.9292 185.094C93.9292 184.91 94.0023 184.733 94.1325 184.603C94.2627 184.473 94.4393 184.4 94.6234 184.4H98.0925C98.3652 184.399 98.6266 184.291 98.8195 184.098C99.0123 183.905 99.1207 183.643 99.1209 183.371V178.358C99.1209 178.174 99.194 177.998 99.3242 177.867C99.4544 177.737 99.631 177.664 99.8151 177.664C99.9992 177.664 100.176 177.737 100.306 177.867C100.436 177.998 100.509 178.174 100.509 178.358V183.371C100.509 184.012 100.254 184.626 99.8009 185.079C99.3477 185.532 98.7333 185.787 98.0925 185.788Z" fill="#603BE6"/>
<path d="M97.1762 183.472H68.7776C68.5079 183.472 68.2493 183.364 68.0586 183.174C67.8679 182.983 67.7606 182.724 67.7603 182.455V141.209C67.7606 140.939 67.8679 140.68 68.0586 140.49C68.2493 140.299 68.5079 140.192 68.7776 140.191H97.1762C97.4462 140.191 97.7051 140.298 97.896 140.489C98.087 140.68 98.1945 140.939 98.1948 141.209V182.455C98.1945 182.725 98.087 182.983 97.896 183.174C97.7051 183.365 97.4462 183.472 97.1762 183.472ZM68.7776 140.608C68.6187 140.609 68.4665 140.672 68.3543 140.785C68.2421 140.897 68.179 141.05 68.1789 141.209V182.455C68.179 182.614 68.2424 182.767 68.355 182.879C68.4676 182.992 68.6204 183.055 68.7796 183.055H97.1783C97.3376 183.055 97.4903 182.992 97.6029 182.879C97.7156 182.767 97.7789 182.614 97.779 182.455V141.209C97.7789 141.049 97.7156 140.897 97.6029 140.784C97.4903 140.671 97.3376 140.608 97.1783 140.608H68.7776Z" fill="#FCFCFC"/>
<path opacity="0.4" d="M30 6H136.886V27.2812C136.886 30.6393 134.164 33.3616 130.806 33.3616H36.0803C32.7223 33.3616 30 30.6393 30 27.2812V6Z" fill="#DADADA"/>
<path d="M75.1271 22.151V21.119H77.0551V26.951H75.9031V22.151H75.1271ZM78.7855 27.007C78.5829 27.007 78.4149 26.9457 78.2815 26.823C78.1535 26.695 78.0895 26.5377 78.0895 26.351C78.0895 26.1643 78.1535 26.0097 78.2815 25.887C78.4149 25.759 78.5829 25.695 78.7855 25.695C78.9829 25.695 79.1455 25.759 79.2735 25.887C79.4015 26.0097 79.4655 26.1643 79.4655 26.351C79.4655 26.5377 79.4015 26.695 79.2735 26.823C79.1455 26.9457 78.9829 27.007 78.7855 27.007ZM78.7855 23.695C78.5829 23.695 78.4149 23.6337 78.2815 23.511C78.1535 23.383 78.0895 23.2257 78.0895 23.039C78.0895 22.8523 78.1535 22.6977 78.2815 22.575C78.4149 22.447 78.5829 22.383 78.7855 22.383C78.9829 22.383 79.1455 22.447 79.2735 22.575C79.4015 22.6977 79.4655 22.8523 79.4655 23.039C79.4655 23.2257 79.4015 23.383 79.2735 23.511C79.1455 23.6337 78.9829 23.695 78.7855 23.695ZM80.2631 23.959C80.2631 23.0363 80.4284 22.3137 80.7591 21.791C81.0951 21.2683 81.6498 21.007 82.4231 21.007C83.1964 21.007 83.7484 21.2683 84.0791 21.791C84.4151 22.3137 84.5831 23.0363 84.5831 23.959C84.5831 24.887 84.4151 25.615 84.0791 26.143C83.7484 26.671 83.1964 26.935 82.4231 26.935C81.6498 26.935 81.0951 26.671 80.7591 26.143C80.4284 25.615 80.2631 24.887 80.2631 23.959ZM83.4791 23.959C83.4791 23.5643 83.4524 23.2337 83.3991 22.967C83.3511 22.695 83.2498 22.4737 83.0951 22.303C82.9458 22.1323 82.7218 22.047 82.4231 22.047C82.1244 22.047 81.8978 22.1323 81.7431 22.303C81.5938 22.4737 81.4924 22.695 81.4391 22.967C81.3911 23.2337 81.3671 23.5643 81.3671 23.959C81.3671 24.3643 81.3911 24.7057 81.4391 24.983C81.4871 25.255 81.5884 25.4763 81.7431 25.647C81.8978 25.8123 82.1244 25.895 82.4231 25.895C82.7218 25.895 82.9484 25.8123 83.1031 25.647C83.2578 25.4763 83.3591 25.255 83.4071 24.983C83.4551 24.7057 83.4791 24.3643 83.4791 23.959ZM85.451 22.655C85.4777 22.1217 85.6643 21.711 86.011 21.423C86.363 21.1297 86.8243 20.983 87.395 20.983C87.7843 20.983 88.1177 21.0523 88.395 21.191C88.6723 21.3243 88.8803 21.5083 89.019 21.743C89.163 21.9723 89.235 22.2337 89.235 22.527C89.235 22.863 89.147 23.1483 88.971 23.383C88.8003 23.6123 88.595 23.767 88.355 23.847V23.879C88.6643 23.975 88.9043 24.1457 89.075 24.391C89.251 24.6363 89.339 24.951 89.339 25.335C89.339 25.655 89.2643 25.9403 89.115 26.191C88.971 26.4417 88.755 26.639 88.467 26.783C88.1843 26.9217 87.843 26.991 87.443 26.991C86.8403 26.991 86.3497 26.839 85.971 26.535C85.5923 26.231 85.3923 25.783 85.371 25.191H86.459C86.4697 25.4523 86.5577 25.663 86.723 25.823C86.8937 25.9777 87.1257 26.055 87.419 26.055C87.691 26.055 87.899 25.9803 88.043 25.831C88.1923 25.6763 88.267 25.479 88.267 25.239C88.267 24.919 88.1657 24.6897 87.963 24.551C87.7603 24.4123 87.4457 24.343 87.019 24.343H86.787V23.423H87.019C87.7763 23.423 88.155 23.1697 88.155 22.663C88.155 22.4337 88.0857 22.255 87.947 22.127C87.8137 21.999 87.619 21.935 87.363 21.935C87.1123 21.935 86.9177 22.0043 86.779 22.143C86.6457 22.2763 86.5683 22.447 86.547 22.655H85.451Z" fill="#FF4444"/>
<g filter="url(#filter10_d)">
<path d="M35.6934 207.159C35.6934 202.961 39.0962 199.558 43.2938 199.558H122.586C126.784 199.558 130.187 202.961 130.187 207.159C130.187 211.356 126.784 214.759 122.586 214.759H43.2938C39.0962 214.759 35.6934 211.356 35.6934 207.159Z" fill="white"/>
</g>
<path d="M80.4953 208.918C80.1808 208.918 79.8978 208.864 79.6463 208.756C79.3947 208.644 79.197 208.487 79.0533 208.285C78.9095 208.083 78.8376 207.847 78.8376 207.577H79.6597C79.6777 207.779 79.7563 207.946 79.8956 208.076C80.0393 208.206 80.2392 208.271 80.4953 208.271C80.7604 208.271 80.967 208.208 81.1153 208.083C81.2635 207.952 81.3376 207.786 81.3376 207.584C81.3376 207.427 81.2905 207.299 81.1961 207.2C81.1063 207.101 80.9917 207.025 80.8525 206.971C80.7177 206.917 80.529 206.858 80.2864 206.795C79.9809 206.715 79.7316 206.634 79.5384 206.553C79.3498 206.468 79.188 206.337 79.0533 206.162C78.9185 205.987 78.8511 205.753 78.8511 205.461C78.8511 205.192 78.9185 204.956 79.0533 204.754C79.188 204.552 79.3767 204.397 79.6193 204.289C79.8619 204.181 80.1427 204.127 80.4616 204.127C80.9153 204.127 81.286 204.242 81.5735 204.471C81.8655 204.695 82.0272 205.005 82.0587 205.401H81.2096C81.1961 205.23 81.1153 205.084 80.967 204.963C80.8188 204.841 80.6233 204.781 80.3808 204.781C80.1606 204.781 79.9809 204.837 79.8417 204.949C79.7024 205.061 79.6328 205.223 79.6328 205.434C79.6328 205.578 79.6755 205.697 79.7608 205.791C79.8507 205.881 79.963 205.953 80.0977 206.007C80.2325 206.061 80.4167 206.119 80.6503 206.182C80.9603 206.268 81.2118 206.353 81.405 206.438C81.6027 206.524 81.7689 206.656 81.9037 206.836C82.0429 207.011 82.1126 207.247 82.1126 207.543C82.1126 207.782 82.0474 208.006 81.9171 208.217C81.7914 208.428 81.6049 208.599 81.3578 208.729C81.1153 208.855 80.8277 208.918 80.4953 208.918ZM83.9152 205.785V207.84C83.9152 207.979 83.9467 208.08 84.0096 208.143C84.077 208.202 84.1893 208.231 84.3465 208.231H84.8182V208.871H84.2117C83.8658 208.871 83.6008 208.79 83.4166 208.628C83.2324 208.467 83.1403 208.204 83.1403 207.84V205.785H82.7023V205.158H83.1403V204.235H83.9152V205.158H84.8182V205.785H83.9152ZM87.1367 208.932C86.7863 208.932 86.4696 208.853 86.1866 208.696C85.9036 208.534 85.6812 208.309 85.5195 208.022C85.3578 207.73 85.2769 207.393 85.2769 207.011C85.2769 206.634 85.36 206.299 85.5262 206.007C85.6924 205.715 85.9193 205.49 86.2068 205.333C86.4943 205.176 86.8155 205.097 87.1704 205.097C87.5253 205.097 87.8465 205.176 88.1341 205.333C88.4216 205.49 88.6484 205.715 88.8147 206.007C88.9809 206.299 89.064 206.634 89.064 207.011C89.064 207.388 88.9786 207.723 88.8079 208.015C88.6372 208.307 88.4036 208.534 88.1071 208.696C87.8151 208.853 87.4916 208.932 87.1367 208.932ZM87.1367 208.265C87.3344 208.265 87.5186 208.217 87.6893 208.123C87.8645 208.029 88.006 207.887 88.1138 207.698C88.2217 207.51 88.2756 207.281 88.2756 207.011C88.2756 206.742 88.2239 206.515 88.1206 206.331C88.0173 206.142 87.8802 206 87.7095 205.906C87.5388 205.812 87.3546 205.764 87.157 205.764C86.9593 205.764 86.7751 205.812 86.6044 205.906C86.4382 206 86.3057 206.142 86.2068 206.331C86.108 206.515 86.0586 206.742 86.0586 207.011C86.0586 207.411 86.1597 207.721 86.3618 207.941C86.5685 208.157 86.8268 208.265 87.1367 208.265ZM90.5916 205.704C90.7219 205.533 90.8993 205.389 91.1239 205.273C91.3485 205.156 91.6024 205.097 91.8854 205.097C92.2088 205.097 92.5031 205.178 92.7681 205.34C93.0377 205.497 93.2488 205.72 93.4016 206.007C93.5543 206.295 93.6307 206.625 93.6307 206.998C93.6307 207.371 93.5543 207.705 93.4016 208.002C93.2488 208.294 93.0377 208.523 92.7681 208.689C92.5031 208.851 92.2088 208.932 91.8854 208.932C91.6024 208.932 91.3508 208.875 91.1307 208.763C90.9105 208.646 90.7308 208.503 90.5916 208.332V210.636H89.8234V205.158H90.5916V205.704ZM92.849 206.998C92.849 206.742 92.7951 206.521 92.6873 206.337C92.584 206.149 92.4447 206.007 92.2695 205.913C92.0988 205.814 91.9146 205.764 91.7169 205.764C91.5238 205.764 91.3396 205.814 91.1644 205.913C90.9937 206.012 90.8544 206.155 90.7466 206.344C90.6432 206.533 90.5916 206.755 90.5916 207.011C90.5916 207.267 90.6432 207.492 90.7466 207.685C90.8544 207.874 90.9937 208.017 91.1644 208.116C91.3396 208.215 91.5238 208.265 91.7169 208.265C91.9146 208.265 92.0988 208.215 92.2695 208.116C92.4447 208.013 92.584 207.865 92.6873 207.672C92.7951 207.478 92.849 207.254 92.849 206.998Z" fill="#14142B"/>
<rect x="70.7085" y="204.398" width="4.90279" height="4.81105" rx="0.962211" fill="#FF4444"/>
</g>
<g filter="url(#filter11_i)">
<path d="M76.7852 8.96046C76.7852 8.33062 77.2957 7.82004 77.9256 7.82004H88.3523C88.9821 7.82004 89.4927 8.33062 89.4927 8.96046C89.4927 9.5903 88.9821 10.1009 88.3523 10.1009H77.9256C77.2957 10.1009 76.7852 9.5903 76.7852 8.96046Z" fill="#161616"/>
</g>
<g filter="url(#filter12_f)">
<path d="M76.9481 8.96046C76.9481 8.4206 77.3857 7.98296 77.9256 7.98296H88.3523C88.8922 7.98296 89.3298 8.4206 89.3298 8.96046C89.3298 9.50032 88.8922 9.93797 88.3523 9.93797H77.9256C77.3857 9.93797 76.9481 9.50032 76.9481 8.96046Z" stroke="black" stroke-opacity="0.32" stroke-width="0.325835"/>
</g>
<path d="M76.8666 8.96046C76.8666 8.37561 77.3407 7.9015 77.9256 7.9015H88.3523C88.9372 7.9015 89.4113 8.37561 89.4113 8.96046C89.4113 9.54531 88.9372 10.0194 88.3523 10.0194H77.9256C77.3407 10.0194 76.8666 9.54531 76.8666 8.96046Z" stroke="url(#paint28_linear)" stroke-width="0.162918"/>
<path d="M92.0994 8.96047C92.0994 7.7008 93.1205 6.67963 94.3802 6.67963C95.6399 6.67963 96.6611 7.7008 96.6611 8.96047C96.6611 10.2201 95.6399 11.2413 94.3802 11.2413C93.1205 11.2413 92.0994 10.2201 92.0994 8.96047Z" fill="url(#paint29_radial)"/>
<path d="M92.0994 8.96047C92.0994 7.7008 93.1205 6.67963 94.3802 6.67963C95.6399 6.67963 96.6611 7.7008 96.6611 8.96047C96.6611 10.2201 95.6399 11.2413 94.3802 11.2413C93.1205 11.2413 92.0994 10.2201 92.0994 8.96047Z" fill="url(#paint30_radial)"/>
<path d="M95.5206 8.96046C95.5206 8.33062 95.01 7.82004 94.3802 7.82004C93.7503 7.82004 93.2397 8.33062 93.2397 8.96046C93.2397 9.5903 93.7503 10.1009 94.3802 10.1009C95.01 10.1009 95.5206 9.5903 95.5206 8.96046Z" fill="url(#paint31_linear)"/>
<path d="M95.5206 8.96046C95.5206 8.33062 95.01 7.82004 94.3802 7.82004C93.7503 7.82004 93.2397 8.33062 93.2397 8.96046C93.2397 9.5903 93.7503 10.1009 94.3802 10.1009C95.01 10.1009 95.5206 9.5903 95.5206 8.96046Z" fill="url(#paint32_radial)"/>
<path d="M95.5206 8.96046C95.5206 8.33062 95.01 7.82004 94.3802 7.82004C93.7503 7.82004 93.2397 8.33062 93.2397 8.96046C93.2397 9.5903 93.7503 10.1009 94.3802 10.1009C95.01 10.1009 95.5206 9.5903 95.5206 8.96046Z" fill="url(#paint33_radial)"/>
<path d="M95.5206 8.96046C95.5206 8.33062 95.01 7.82004 94.3802 7.82004C93.7503 7.82004 93.2397 8.33062 93.2397 8.96046C93.2397 9.5903 93.7503 10.1009 94.3802 10.1009C95.01 10.1009 95.5206 9.5903 95.5206 8.96046Z" fill="url(#paint34_radial)"/>
<path d="M95.5206 8.96046C95.5206 8.33062 95.01 7.82004 94.3802 7.82004C93.7503 7.82004 93.2397 8.33062 93.2397 8.96046C93.2397 9.5903 93.7503 10.1009 94.3802 10.1009C95.01 10.1009 95.5206 9.5903 95.5206 8.96046Z" fill="url(#paint35_radial)"/>
<path d="M26.3813 133.616C26.3813 133.616 24.1069 134.722 23.6883 135.992C23.3531 137.012 20.8344 137.144 20.5892 139.149C20.4612 140.185 19.695 141.014 18.6639 141.172C16.0954 141.566 12.1364 142.9 11.5035 147.359C11.0197 150.763 12.7555 152.054 14.5769 152.501C15.9146 152.829 16.8037 154.129 16.533 155.48C16.2732 156.776 16.6603 158.273 18.9047 159.457C23.9327 162.11 28.9549 153.171 28.9549 153.171L29.9838 137.562L26.3813 133.616Z" fill="url(#paint36_linear)"/>
<path d="M53.7424 129.915C53.7424 129.915 43.7024 145.795 31.7634 148.863C31.7634 148.863 34.0898 155.488 35.8855 156.247C35.8855 156.247 50.5731 143.991 54.3483 132.172L53.7424 129.915Z" fill="#FEB3B1"/>
<path d="M5.7123 231.487L5.38666 234.162C5.35739 234.409 5.24584 234.638 5.07004 234.814C4.89424 234.989 4.66445 235.1 4.41778 235.129C3.56014 235.227 2.18366 235.327 0.83719 235.184C0.698475 235.168 0.565037 235.122 0.446458 235.048C0.327878 234.974 0.227096 234.875 0.151339 234.758C0.0755811 234.64 0.0267301 234.508 0.00828805 234.369C-0.010154 234.231 0.00226969 234.09 0.0446715 233.957C0.37324 232.925 0.974033 231.375 1.83973 230.462H4.80709C4.93623 230.463 5.06383 230.49 5.18148 230.544C5.29912 230.597 5.40416 230.674 5.48967 230.771C5.57518 230.868 5.63923 230.982 5.6776 231.105C5.71597 231.228 5.7278 231.358 5.7123 231.487Z" fill="url(#paint37_linear)"/>
<path d="M28.9543 200.15L29.4549 203.097C29.4549 203.097 27.7776 220.086 27.4791 226.88C27.433 227.945 27.7075 228.999 28.2672 229.906L31.1841 234.642L23.7719 230.268L23.6255 229.364L24.8373 227.697L23.2479 208.665C23.1549 207.547 23.3855 206.426 23.9124 205.435L25.4491 202.555L28.9543 200.15Z" fill="#FEB3B1"/>
<path d="M31.672 235.331H29.3062C29.088 235.331 28.8726 235.281 28.6767 235.185C28.4808 235.089 28.3096 234.949 28.1763 234.777C27.4387 233.818 25.9078 231.949 25.1804 231.9C24.1969 231.834 24.3228 235.331 24.3228 235.331H23.7717L23.0729 230.99C22.9872 230.457 23.0715 229.91 23.3138 229.428C23.5562 228.945 23.9442 228.551 24.423 228.302C24.423 228.302 24.6477 229.965 25.8668 230.7C27.086 231.435 30.8268 234.066 30.8268 234.066C31.1469 234.029 31.4707 234.038 31.7884 234.092C32.5355 234.226 32.4301 235.331 31.672 235.331Z" fill="url(#paint38_linear)"/>
<path d="M18.8016 201.55C18.8016 201.55 8.97601 220.189 7.41366 224.445C5.85131 228.701 5.30467 232.25 5.28345 232.586C5.25125 233.111 4.59778 233.615 2.7954 233.615C1.86604 233.615 1.41088 233.243 1.18549 232.884C1.0932 232.731 1.04115 232.558 1.03424 232.38C1.02733 232.202 1.06577 232.025 1.14597 231.866C1.71383 230.716 3.51767 227.04 4.18578 225.373C4.98342 223.382 6.69944 214.361 7.63978 211.224C8.58011 208.088 9.64485 204.685 13.7421 201.552C13.7457 201.55 16.5587 198.795 18.8016 201.55Z" fill="#FEB3B1"/>
<path d="M25.0093 171.009C27.5434 160.269 21.1199 154.195 21.1199 154.195C25.171 150.305 32.5532 148.536 32.5532 148.536C32.5532 148.536 39.5966 153.685 38.7616 157.716C38.2713 160.079 33.8104 171.867 33.8104 171.867C33.8104 171.867 29.6875 173.82 25.0093 171.009Z" fill="url(#paint39_linear)"/>
<path d="M19.3891 176.326C20.4209 173.218 25.0091 171.009 25.0091 171.009C29.6874 173.819 33.8132 171.866 33.8132 171.866C33.8132 171.866 34.7381 175.402 34.0993 178.689C33.4604 181.975 29.4547 203.097 29.4547 203.097C23.1424 204.376 13.436 201.81 13.436 201.81C17.4542 194.672 18.3572 179.434 19.3891 176.326Z" fill="url(#paint40_linear)"/>
<path d="M27.951 141.438L25.8903 150.695C25.6928 151.51 26.4362 151.377 27.261 151.221C28.6104 150.967 30.3505 150.442 30.9323 149.391C30.9886 149.282 31.0243 149.164 31.0377 149.042L31.9231 142.624C31.9572 142.376 31.9097 142.124 31.7878 141.905C31.666 141.686 31.4764 141.513 31.2477 141.412L29.5397 140.655C29.3852 140.586 29.2176 140.552 29.0486 140.556C28.8796 140.559 28.7135 140.6 28.5619 140.674C28.4103 140.749 28.2771 140.856 28.1715 140.988C28.0659 141.12 27.9907 141.274 27.951 141.438Z" fill="#EA9F9D"/>
<path d="M21.1198 154.195C21.1198 154.195 1.22933 173.885 30.0753 166.025C30.0753 166.025 30.4039 163.537 29.9751 163.578C20.6207 164.512 16.7079 166.652 24.3118 159.28C24.5811 159.019 24.4977 158.036 24.325 157.703C23.8018 156.691 22.5973 154.683 21.1198 154.195Z" fill="#FEB3B1"/>
<path d="M31.8981 133C31.8981 133 34.0934 134.485 35.0345 138.269C35.9756 142.053 34.4491 143.408 32.875 143.325C31.301 143.242 29.0273 142.756 27.0545 140.043C25.0816 137.329 29.0229 131.185 31.8981 133Z" fill="#FEB3B1"/>
<path d="M29.0442 138.515C29.0442 138.515 28.2392 133.1 32.7397 133.925L33.6493 134.872C33.6493 134.872 35.8519 132.392 33.4144 130.517C30.9768 128.642 27.5953 129.122 25.7241 132.535C23.8529 135.948 23.1746 138.347 24.7428 140.469C26.311 142.591 27.4906 140.77 27.4906 140.77C27.4906 140.77 26.7713 138.935 27.3684 138.147C27.9655 137.359 28.7346 138.605 28.7346 138.605L29.0442 138.515Z" fill="url(#paint41_linear)"/>
<path d="M28.4295 138.979C28.4295 138.979 28.0322 136.191 26.6089 136.988C25.1855 137.785 27.1211 139.593 27.8982 140.208L28.4295 138.979Z" fill="#EA9F9D"/>
<path d="M53.6737 133.185C53.7037 133.512 52.4853 133.739 52.0981 132.342C52.2043 131.736 52.3909 129.081 52.8585 128.668C55.3348 126.473 59.7496 124 59.7496 124C60.2436 124.754 59.596 125.251 59.596 125.251L57.3918 126.738C57.6216 127.499 57.9575 128.173 57.9956 129.042C58.0178 129.704 57.7843 130.349 57.3435 130.844C56.9045 131.345 56.3147 131.992 55.7827 132.484C54.775 133.413 53.6737 133.185 53.6737 133.185Z" fill="#FEB3B1"/>
<path d="M54.8701 132.102L54.5335 131.963C54.5781 131.855 55.6363 129.285 56.1478 128.75C56.3417 128.547 56.4361 128.373 56.4273 128.233C56.4174 128.147 56.3772 128.066 56.3139 128.006L54.5305 128.958L53.7431 130.192L53.4358 129.995L54.2744 128.678L56.3636 127.561L56.458 127.634C56.6688 127.807 56.7786 127.992 56.791 128.201C56.8064 128.451 56.682 128.713 56.4112 128.993C56.0256 129.405 55.1686 131.376 54.8701 132.102Z" fill="url(#paint42_linear)"/>
<path d="M28.9155 170.086L33.7291 153.275C33.7555 153.182 33.8089 153.098 33.8826 153.035C33.9564 152.972 34.0471 152.933 34.1433 152.921C35.0156 152.82 37.5432 152.534 40.4608 152.288C43.9733 151.991 48.0566 151.749 50.4964 151.954C50.5764 151.96 50.6536 151.986 50.7213 152.03C50.789 152.073 50.845 152.132 50.8847 152.202C50.9243 152.272 50.9462 152.35 50.9485 152.43C50.9509 152.511 50.9336 152.59 50.8981 152.662C49.5129 155.47 43.805 166.886 40.9511 170.622C40.9047 170.683 40.8446 170.733 40.7758 170.767C40.7069 170.8 40.6311 170.818 40.5544 170.817L29.386 170.713C29.31 170.713 29.2351 170.695 29.1672 170.661C29.0992 170.627 29.0401 170.578 28.9945 170.517C28.9489 170.456 28.918 170.385 28.9043 170.311C28.8906 170.236 28.8944 170.159 28.9155 170.086Z" fill="url(#paint43_linear)"/>
<path d="M40.9599 150.831L44.4504 150.25C44.4929 150.242 44.5366 150.246 44.5772 150.261C44.6177 150.275 44.6538 150.3 44.6819 150.333C44.71 150.366 44.7291 150.405 44.7374 150.448C44.7457 150.49 44.7429 150.534 44.7293 150.575L44.3839 151.622C44.3692 151.666 44.3422 151.706 44.3059 151.736C44.2697 151.766 44.2256 151.785 44.179 151.791L40.8208 152.24C40.7806 152.246 40.7397 152.241 40.7015 152.227C40.6634 152.213 40.6292 152.19 40.6019 152.16C40.5746 152.13 40.5551 152.094 40.5449 152.055C40.5347 152.016 40.5342 151.974 40.5435 151.935L40.7572 151.021C40.7684 150.973 40.7937 150.929 40.8298 150.895C40.8658 150.861 40.9111 150.839 40.9599 150.831Z" fill="url(#paint44_linear)"/>
<path d="M38.3467 153.787L38.6343 152.289C38.6484 152.216 38.6857 152.149 38.7407 152.099C38.7957 152.049 38.8654 152.018 38.9394 152.01L45.9887 151.295C46.0436 151.289 46.0991 151.297 46.1505 151.317C46.2018 151.338 46.2476 151.37 46.2839 151.411C46.3202 151.453 46.346 151.503 46.3592 151.556C46.3724 151.61 46.3726 151.666 46.3597 151.72L45.9118 153.587C45.8943 153.659 45.8537 153.724 45.7963 153.772C45.7388 153.82 45.6674 153.848 45.5928 153.851L38.7045 154.198C38.6522 154.2 38.5998 154.191 38.5515 154.171C38.5033 154.15 38.4602 154.119 38.4258 154.079C38.3913 154.04 38.3663 153.993 38.3526 153.942C38.3389 153.892 38.3369 153.839 38.3467 153.787Z" fill="url(#paint45_linear)"/>
<path d="M30.0782 166.025C30.0782 166.025 29.4079 163.267 29.6779 162.289C29.9479 161.31 30.4726 160.053 32.2193 160.333C33.9661 160.612 36.0246 161.348 36.0246 161.348C36.0246 161.348 35.9207 162.622 34.5932 162.211L35.4165 162.848C35.4165 162.848 35.2987 163.868 34.1769 163.323L34.943 164.168C34.943 164.168 34.4615 165.006 33.6361 164.469C32.8106 163.932 32.4177 166.357 30.0782 166.025Z" fill="url(#paint46_linear)"/>
<defs>
<filter id="filter0_i" x="24.8145" y="0" width="116.486" height="239" filterUnits="userSpaceOnUse" color-interpolation-filters="sRGB">
<feFlood flood-opacity="0" result="BackgroundImageFix"/>
<feBlend mode="normal" in="SourceGraphic" in2="BackgroundImageFix" result="shape"/>
<feColorMatrix in="SourceAlpha" type="matrix" values="0 0 0 0 0 0 0 0 0 0 0 0 0 0 0 0 0 0 127 0" result="hardAlpha"/>
<feOffset/>
<feGaussianBlur stdDeviation="1.30334"/>
<feComposite in2="hardAlpha" operator="arithmetic" k2="-1" k3="1"/>
<feColorMatrix type="matrix" values="0 0 0 0 0 0 0 0 0 0 0 0 0 0 0 0 0 0 0.32 0"/>
<feBlend mode="normal" in2="shape" result="effect1_innerShadow"/>
</filter>
<filter id="filter1_ii" x="24" y="37.471" width="0.814588" height="10.1009" filterUnits="userSpaceOnUse" color-interpolation-filters="sRGB">
<feFlood flood-opacity="0" result="BackgroundImageFix"/>
<feBlend mode="normal" in="SourceGraphic" in2="BackgroundImageFix" result="shape"/>
<feColorMatrix in="SourceAlpha" type="matrix" values="0 0 0 0 0 0 0 0 0 0 0 0 0 0 0 0 0 0 127 0" result="hardAlpha"/>
<feOffset dy="0.65167"/>
<feGaussianBlur stdDeviation="0.162918"/>
<feComposite in2="hardAlpha" operator="arithmetic" k2="-1" k3="1"/>
<feColorMatrix type="matrix" values="0 0 0 0 1 0 0 0 0 1 0 0 0 0 1 0 0 0 0.64 0"/>
<feBlend mode="normal" in2="shape" result="effect1_innerShadow"/>
<feColorMatrix in="SourceAlpha" type="matrix" values="0 0 0 0 0 0 0 0 0 0 0 0 0 0 0 0 0 0 127 0" result="hardAlpha"/>
<feOffset dy="-0.65167"/>
<feGaussianBlur stdDeviation="0.162918"/>
<feComposite in2="hardAlpha" operator="arithmetic" k2="-1" k3="1"/>
<feColorMatrix type="matrix" values="0 0 0 0 1 0 0 0 0 1 0 0 0 0 1 0 0 0 0.64 0"/>
<feBlend mode="normal" in2="effect1_innerShadow" result="effect2_innerShadow"/>
</filter>
<filter id="filter2_ii" x="24" y="54.5774" width="0.814588" height="18.8984" filterUnits="userSpaceOnUse" color-interpolation-filters="sRGB">
<feFlood flood-opacity="0" result="BackgroundImageFix"/>
<feBlend mode="normal" in="SourceGraphic" in2="BackgroundImageFix" result="shape"/>
<feColorMatrix in="SourceAlpha" type="matrix" values="0 0 0 0 0 0 0 0 0 0 0 0 0 0 0 0 0 0 127 0" result="hardAlpha"/>
<feOffset dy="0.65167"/>
<feGaussianBlur stdDeviation="0.162918"/>
<feComposite in2="hardAlpha" operator="arithmetic" k2="-1" k3="1"/>
<feColorMatrix type="matrix" values="0 0 0 0 1 0 0 0 0 1 0 0 0 0 1 0 0 0 0.64 0"/>
<feBlend mode="normal" in2="shape" result="effect1_innerShadow"/>
<feColorMatrix in="SourceAlpha" type="matrix" values="0 0 0 0 0 0 0 0 0 0 0 0 0 0 0 0 0 0 127 0" result="hardAlpha"/>
<feOffset dy="-0.65167"/>
<feGaussianBlur stdDeviation="0.162918"/>
<feComposite in2="hardAlpha" operator="arithmetic" k2="-1" k3="1"/>
<feColorMatrix type="matrix" values="0 0 0 0 1 0 0 0 0 1 0 0 0 0 1 0 0 0 0.64 0"/>
<feBlend mode="normal" in2="effect1_innerShadow" result="effect2_innerShadow"/>
</filter>
<filter id="filter3_ii" x="141.3" y="61.0941" width="0.814588" height="28.9993" filterUnits="userSpaceOnUse" color-interpolation-filters="sRGB">
<feFlood flood-opacity="0" result="BackgroundImageFix"/>
<feBlend mode="normal" in="SourceGraphic" in2="BackgroundImageFix" result="shape"/>
<feColorMatrix in="SourceAlpha" type="matrix" values="0 0 0 0 0 0 0 0 0 0 0 0 0 0 0 0 0 0 127 0" result="hardAlpha"/>
<feOffset dy="0.65167"/>
<feGaussianBlur stdDeviation="0.162918"/>
<feComposite in2="hardAlpha" operator="arithmetic" k2="-1" k3="1"/>
<feColorMatrix type="matrix" values="0 0 0 0 1 0 0 0 0 1 0 0 0 0 1 0 0 0 0.64 0"/>
<feBlend mode="normal" in2="shape" result="effect1_innerShadow"/>
<feColorMatrix in="SourceAlpha" type="matrix" values="0 0 0 0 0 0 0 0 0 0 0 0 0 0 0 0 0 0 127 0" result="hardAlpha"/>
<feOffset dy="-0.65167"/>
<feGaussianBlur stdDeviation="0.162918"/>
<feComposite in2="hardAlpha" operator="arithmetic" k2="-1" k3="1"/>
<feColorMatrix type="matrix" values="0 0 0 0 1 0 0 0 0 1 0 0 0 0 1 0 0 0 0.64 0"/>
<feBlend mode="normal" in2="effect1_innerShadow" result="effect2_innerShadow"/>
</filter>
<filter id="filter4_ii" x="24" y="76.8971" width="0.814588" height="18.8984" filterUnits="userSpaceOnUse" color-interpolation-filters="sRGB">
<feFlood flood-opacity="0" result="BackgroundImageFix"/>
<feBlend mode="normal" in="SourceGraphic" in2="BackgroundImageFix" result="shape"/>
<feColorMatrix in="SourceAlpha" type="matrix" values="0 0 0 0 0 0 0 0 0 0 0 0 0 0 0 0 0 0 127 0" result="hardAlpha"/>
<feOffset dy="0.65167"/>
<feGaussianBlur stdDeviation="0.162918"/>
<feComposite in2="hardAlpha" operator="arithmetic" k2="-1" k3="1"/>
<feColorMatrix type="matrix" values="0 0 0 0 1 0 0 0 0 1 0 0 0 0 1 0 0 0 0.64 0"/>
<feBlend mode="normal" in2="shape" result="effect1_innerShadow"/>
<feColorMatrix in="SourceAlpha" type="matrix" values="0 0 0 0 0 0 0 0 0 0 0 0 0 0 0 0 0 0 127 0" result="hardAlpha"/>
<feOffset dy="-0.65167"/>
<feGaussianBlur stdDeviation="0.162918"/>
<feComposite in2="hardAlpha" operator="arithmetic" k2="-1" k3="1"/>
<feColorMatrix type="matrix" values="0 0 0 0 1 0 0 0 0 1 0 0 0 0 1 0 0 0 0.64 0"/>
<feBlend mode="normal" in2="effect1_innerShadow" result="effect2_innerShadow"/>
</filter>
<filter id="filter5_ii" x="23.8145" y="3" width="116.486" height="239" filterUnits="userSpaceOnUse" color-interpolation-filters="sRGB">
<feFlood flood-opacity="0" result="BackgroundImageFix"/>
<feBlend mode="normal" in="SourceGraphic" in2="BackgroundImageFix" result="shape"/>
<feColorMatrix in="SourceAlpha" type="matrix" values="0 0 0 0 0 0 0 0 0 0 0 0 0 0 0 0 0 0 127 0" result="hardAlpha"/>
<feOffset/>
<feGaussianBlur stdDeviation="0.814588"/>
<feComposite in2="hardAlpha" operator="arithmetic" k2="-1" k3="1"/>
<feColorMatrix type="matrix" values="0 0 0 0 1 0 0 0 0 1 0 0 0 0 1 0 0 0 0.88 0"/>
<feBlend mode="normal" in2="shape" result="effect1_innerShadow"/>
<feColorMatrix in="SourceAlpha" type="matrix" values="0 0 0 0 0 0 0 0 0 0 0 0 0 0 0 0 0 0 127 0" result="hardAlpha"/>
<feOffset/>
<feGaussianBlur stdDeviation="0.407294"/>
<feComposite in2="hardAlpha" operator="arithmetic" k2="-1" k3="1"/>
<feColorMatrix type="matrix" values="0 0 0 0 0 0 0 0 0 0 0 0 0 0 0 0 0 0 1 0"/>
<feBlend mode="normal" in2="effect1_innerShadow" result="effect2_innerShadow"/>
</filter>
<filter id="filter6_iiii" x="23" y="40.471" width="0.814588" height="10.1009" filterUnits="userSpaceOnUse" color-interpolation-filters="sRGB">
<feFlood flood-opacity="0" result="BackgroundImageFix"/>
<feBlend mode="normal" in="SourceGraphic" in2="BackgroundImageFix" result="shape"/>
<feColorMatrix in="SourceAlpha" type="matrix" values="0 0 0 0 0 0 0 0 0 0 0 0 0 0 0 0 0 0 127 0" result="hardAlpha"/>
<feOffset dy="0.65167"/>
<feGaussianBlur stdDeviation="0.162918"/>
<feComposite in2="hardAlpha" operator="arithmetic" k2="-1" k3="1"/>
<feColorMatrix type="matrix" values="0 0 0 0 1 0 0 0 0 1 0 0 0 0 1 0 0 0 0.08 0"/>
<feBlend mode="normal" in2="shape" result="effect1_innerShadow"/>
<feColorMatrix in="SourceAlpha" type="matrix" values="0 0 0 0 0 0 0 0 0 0 0 0 0 0 0 0 0 0 127 0" result="hardAlpha"/>
<feOffset dy="-0.65167"/>
<feGaussianBlur stdDeviation="0.162918"/>
<feComposite in2="hardAlpha" operator="arithmetic" k2="-1" k3="1"/>
<feColorMatrix type="matrix" values="0 0 0 0 1 0 0 0 0 1 0 0 0 0 1 0 0 0 0.08 0"/>
<feBlend mode="normal" in2="effect1_innerShadow" result="effect2_innerShadow"/>
<feColorMatrix in="SourceAlpha" type="matrix" values="0 0 0 0 0 0 0 0 0 0 0 0 0 0 0 0 0 0 127 0" result="hardAlpha"/>
<feOffset dy="0.162918"/>
<feGaussianBlur stdDeviation="0.0814588"/>
<feComposite in2="hardAlpha" operator="arithmetic" k2="-1" k3="1"/>
<feColorMatrix type="matrix" values="0 0 0 0 1 0 0 0 0 1 0 0 0 0 1 0 0 0 0.32 0"/>
<feBlend mode="normal" in2="effect2_innerShadow" result="effect3_innerShadow"/>
<feColorMatrix in="SourceAlpha" type="matrix" values="0 0 0 0 0 0 0 0 0 0 0 0 0 0 0 0 0 0 127 0" result="hardAlpha"/>
<feOffset dy="-0.162918"/>
<feGaussianBlur stdDeviation="0.0814588"/>
<feComposite in2="hardAlpha" operator="arithmetic" k2="-1" k3="1"/>
<feColorMatrix type="matrix" values="0 0 0 0 1 0 0 0 0 1 0 0 0 0 1 0 0 0 0.32 0"/>
<feBlend mode="normal" in2="effect3_innerShadow" result="effect4_innerShadow"/>
</filter>
<filter id="filter7_iiii" x="23" y="57.5774" width="0.814588" height="18.8984" filterUnits="userSpaceOnUse" color-interpolation-filters="sRGB">
<feFlood flood-opacity="0" result="BackgroundImageFix"/>
<feBlend mode="normal" in="SourceGraphic" in2="BackgroundImageFix" result="shape"/>
<feColorMatrix in="SourceAlpha" type="matrix" values="0 0 0 0 0 0 0 0 0 0 0 0 0 0 0 0 0 0 127 0" result="hardAlpha"/>
<feOffset dy="0.65167"/>
<feGaussianBlur stdDeviation="0.162918"/>
<feComposite in2="hardAlpha" operator="arithmetic" k2="-1" k3="1"/>
<feColorMatrix type="matrix" values="0 0 0 0 1 0 0 0 0 1 0 0 0 0 1 0 0 0 0.08 0"/>
<feBlend mode="normal" in2="shape" result="effect1_innerShadow"/>
<feColorMatrix in="SourceAlpha" type="matrix" values="0 0 0 0 0 0 0 0 0 0 0 0 0 0 0 0 0 0 127 0" result="hardAlpha"/>
<feOffset dy="-0.65167"/>
<feGaussianBlur stdDeviation="0.162918"/>
<feComposite in2="hardAlpha" operator="arithmetic" k2="-1" k3="1"/>
<feColorMatrix type="matrix" values="0 0 0 0 1 0 0 0 0 1 0 0 0 0 1 0 0 0 0.08 0"/>
<feBlend mode="normal" in2="effect1_innerShadow" result="effect2_innerShadow"/>
<feColorMatrix in="SourceAlpha" type="matrix" values="0 0 0 0 0 0 0 0 0 0 0 0 0 0 0 0 0 0 127 0" result="hardAlpha"/>
<feOffset dy="0.162918"/>
<feGaussianBlur stdDeviation="0.0814588"/>
<feComposite in2="hardAlpha" operator="arithmetic" k2="-1" k3="1"/>
<feColorMatrix type="matrix" values="0 0 0 0 1 0 0 0 0 1 0 0 0 0 1 0 0 0 0.32 0"/>
<feBlend mode="normal" in2="effect2_innerShadow" result="effect3_innerShadow"/>
<feColorMatrix in="SourceAlpha" type="matrix" values="0 0 0 0 0 0 0 0 0 0 0 0 0 0 0 0 0 0 127 0" result="hardAlpha"/>
<feOffset dy="-0.162918"/>
<feGaussianBlur stdDeviation="0.0814588"/>
<feComposite in2="hardAlpha" operator="arithmetic" k2="-1" k3="1"/>
<feColorMatrix type="matrix" values="0 0 0 0 1 0 0 0 0 1 0 0 0 0 1 0 0 0 0.32 0"/>
<feBlend mode="normal" in2="effect3_innerShadow" result="effect4_innerShadow"/>
</filter>
<filter id="filter8_iiii" x="140.3" y="64.0941" width="0.814588" height="28.9993" filterUnits="userSpaceOnUse" color-interpolation-filters="sRGB">
<feFlood flood-opacity="0" result="BackgroundImageFix"/>
<feBlend mode="normal" in="SourceGraphic" in2="BackgroundImageFix" result="shape"/>
<feColorMatrix in="SourceAlpha" type="matrix" values="0 0 0 0 0 0 0 0 0 0 0 0 0 0 0 0 0 0 127 0" result="hardAlpha"/>
<feOffset dy="0.65167"/>
<feGaussianBlur stdDeviation="0.162918"/>
<feComposite in2="hardAlpha" operator="arithmetic" k2="-1" k3="1"/>
<feColorMatrix type="matrix" values="0 0 0 0 1 0 0 0 0 1 0 0 0 0 1 0 0 0 0.08 0"/>
<feBlend mode="normal" in2="shape" result="effect1_innerShadow"/>
<feColorMatrix in="SourceAlpha" type="matrix" values="0 0 0 0 0 0 0 0 0 0 0 0 0 0 0 0 0 0 127 0" result="hardAlpha"/>
<feOffset dy="-0.65167"/>
<feGaussianBlur stdDeviation="0.162918"/>
<feComposite in2="hardAlpha" operator="arithmetic" k2="-1" k3="1"/>
<feColorMatrix type="matrix" values="0 0 0 0 1 0 0 0 0 1 0 0 0 0 1 0 0 0 0.08 0"/>
<feBlend mode="normal" in2="effect1_innerShadow" result="effect2_innerShadow"/>
<feColorMatrix in="SourceAlpha" type="matrix" values="0 0 0 0 0 0 0 0 0 0 0 0 0 0 0 0 0 0 127 0" result="hardAlpha"/>
<feOffset dy="0.162918"/>
<feGaussianBlur stdDeviation="0.0814588"/>
<feComposite in2="hardAlpha" operator="arithmetic" k2="-1" k3="1"/>
<feColorMatrix type="matrix" values="0 0 0 0 1 0 0 0 0 1 0 0 0 0 1 0 0 0 0.32 0"/>
<feBlend mode="normal" in2="effect2_innerShadow" result="effect3_innerShadow"/>
<feColorMatrix in="SourceAlpha" type="matrix" values="0 0 0 0 0 0 0 0 0 0 0 0 0 0 0 0 0 0 127 0" result="hardAlpha"/>
<feOffset dy="-0.162918"/>
<feGaussianBlur stdDeviation="0.0814588"/>
<feComposite in2="hardAlpha" operator="arithmetic" k2="-1" k3="1"/>
<feColorMatrix type="matrix" values="0 0 0 0 1 0 0 0 0 1 0 0 0 0 1 0 0 0 0.32 0"/>
<feBlend mode="normal" in2="effect3_innerShadow" result="effect4_innerShadow"/>
</filter>
<filter id="filter9_iiii" x="23" y="79.8971" width="0.814588" height="18.8984" filterUnits="userSpaceOnUse" color-interpolation-filters="sRGB">
<feFlood flood-opacity="0" result="BackgroundImageFix"/>
<feBlend mode="normal" in="SourceGraphic" in2="BackgroundImageFix" result="shape"/>
<feColorMatrix in="SourceAlpha" type="matrix" values="0 0 0 0 0 0 0 0 0 0 0 0 0 0 0 0 0 0 127 0" result="hardAlpha"/>
<feOffset dy="0.65167"/>
<feGaussianBlur stdDeviation="0.162918"/>
<feComposite in2="hardAlpha" operator="arithmetic" k2="-1" k3="1"/>
<feColorMatrix type="matrix" values="0 0 0 0 1 0 0 0 0 1 0 0 0 0 1 0 0 0 0.08 0"/>
<feBlend mode="normal" in2="shape" result="effect1_innerShadow"/>
<feColorMatrix in="SourceAlpha" type="matrix" values="0 0 0 0 0 0 0 0 0 0 0 0 0 0 0 0 0 0 127 0" result="hardAlpha"/>
<feOffset dy="-0.65167"/>
<feGaussianBlur stdDeviation="0.162918"/>
<feComposite in2="hardAlpha" operator="arithmetic" k2="-1" k3="1"/>
<feColorMatrix type="matrix" values="0 0 0 0 1 0 0 0 0 1 0 0 0 0 1 0 0 0 0.08 0"/>
<feBlend mode="normal" in2="effect1_innerShadow" result="effect2_innerShadow"/>
<feColorMatrix in="SourceAlpha" type="matrix" values="0 0 0 0 0 0 0 0 0 0 0 0 0 0 0 0 0 0 127 0" result="hardAlpha"/>
<feOffset dy="0.162918"/>
<feGaussianBlur stdDeviation="0.0814588"/>
<feComposite in2="hardAlpha" operator="arithmetic" k2="-1" k3="1"/>
<feColorMatrix type="matrix" values="0 0 0 0 1 0 0 0 0 1 0 0 0 0 1 0 0 0 0.32 0"/>
<feBlend mode="normal" in2="effect2_innerShadow" result="effect3_innerShadow"/>
<feColorMatrix in="SourceAlpha" type="matrix" values="0 0 0 0 0 0 0 0 0 0 0 0 0 0 0 0 0 0 127 0" result="hardAlpha"/>
<feOffset dy="-0.162918"/>
<feGaussianBlur stdDeviation="0.0814588"/>
<feComposite in2="hardAlpha" operator="arithmetic" k2="-1" k3="1"/>
<feColorMatrix type="matrix" values="0 0 0 0 1 0 0 0 0 1 0 0 0 0 1 0 0 0 0.32 0"/>
<feBlend mode="normal" in2="effect3_innerShadow" result="effect4_innerShadow"/>
</filter>
<filter id="filter10_d" x="34.68" y="198.798" width="96.5203" height="17.2277" filterUnits="userSpaceOnUse" color-interpolation-filters="sRGB">
<feFlood flood-opacity="0" result="BackgroundImageFix"/>
<feColorMatrix in="SourceAlpha" type="matrix" values="0 0 0 0 0 0 0 0 0 0 0 0 0 0 0 0 0 0 127 0"/>
<feOffset dy="0.253348"/>
<feGaussianBlur stdDeviation="0.506696"/>
<feColorMatrix type="matrix" values="0 0 0 0 0 0 0 0 0 0 0 0 0 0 0 0 0 0 0.25 0"/>
<feBlend mode="normal" in2="BackgroundImageFix" result="effect1_dropShadow"/>
<feBlend mode="normal" in="SourceGraphic" in2="effect1_dropShadow" result="shape"/>
</filter>
<filter id="filter11_i" x="76.7852" y="7.82004" width="12.7076" height="2.28085" filterUnits="userSpaceOnUse" color-interpolation-filters="sRGB">
<feFlood flood-opacity="0" result="BackgroundImageFix"/>
<feBlend mode="normal" in="SourceGraphic" in2="BackgroundImageFix" result="shape"/>
<feColorMatrix in="SourceAlpha" type="matrix" values="0 0 0 0 0 0 0 0 0 0 0 0 0 0 0 0 0 0 127 0" result="hardAlpha"/>
<feOffset/>
<feGaussianBlur stdDeviation="0.65167"/>
<feComposite in2="hardAlpha" operator="arithmetic" k2="-1" k3="1"/>
<feColorMatrix type="matrix" values="0 0 0 0 0 0 0 0 0 0 0 0 0 0 0 0 0 0 0.48 0"/>
<feBlend mode="normal" in2="shape" result="effect1_innerShadow"/>
</filter>
<filter id="filter12_f" x="76.6222" y="7.65712" width="13.0334" height="2.60668" filterUnits="userSpaceOnUse" color-interpolation-filters="sRGB">
<feFlood flood-opacity="0" result="BackgroundImageFix"/>
<feBlend mode="normal" in="SourceGraphic" in2="BackgroundImageFix" result="shape"/>
<feGaussianBlur stdDeviation="0.0814588" result="effect1_foregroundBlur"/>
</filter>
<linearGradient id="paint0_linear" x1="24.1631" y1="21.5866" x2="26.9327" y2="21.5866" gradientUnits="userSpaceOnUse">
<stop offset="0.109375" stop-color="#D1D1D1"/>
<stop offset="0.317708" stop-color="#E3E3E3"/>
<stop offset="0.552083" stop-color="#D2D2D2"/>
<stop offset="0.807292" stop-color="#E6E6E6"/>
</linearGradient>
<linearGradient id="paint1_linear" x1="24.1631" y1="218.554" x2="26.9327" y2="218.554" gradientUnits="userSpaceOnUse">
<stop offset="0.109375" stop-color="#D1D1D1"/>
<stop offset="0.317708" stop-color="#E3E3E3"/>
<stop offset="0.552083" stop-color="#D2D2D2"/>
<stop offset="0.807292" stop-color="#E6E6E6"/>
</linearGradient>
<linearGradient id="paint2_linear" x1="139.183" y1="21.5866" x2="141.952" y2="21.5866" gradientUnits="userSpaceOnUse">
<stop offset="0.0988321" stop-color="#E6E6E6"/>
<stop offset="0.368786" stop-color="#D2D2D2"/>
<stop offset="0.624532" stop-color="#E3E3E3"/>
<stop offset="0.798581" stop-color="#D1D1D1"/>
</linearGradient>
<linearGradient id="paint3_linear" x1="139.183" y1="218.554" x2="141.952" y2="218.554" gradientUnits="userSpaceOnUse">
<stop offset="0.0988321" stop-color="#E6E6E6"/>
<stop offset="0.368786" stop-color="#D2D2D2"/>
<stop offset="0.624532" stop-color="#E3E3E3"/>
<stop offset="0.798581" stop-color="#D1D1D1"/>
</linearGradient>
<linearGradient id="paint4_linear" x1="116.537" y1="0.0814699" x2="119.307" y2="0.0814699" gradientUnits="userSpaceOnUse">
<stop offset="0.238306" stop-color="#D1D1D1"/>
<stop offset="0.416703" stop-color="#E3E3E3"/>
<stop offset="0.700226" stop-color="#D2D2D2"/>
<stop offset="0.926408" stop-color="#E6E6E6"/>
</linearGradient>
<linearGradient id="paint5_linear" x1="47.949" y1="238.104" x2="50.7186" y2="238.104" gradientUnits="userSpaceOnUse">
<stop offset="0.0988321" stop-color="#E6E6E6"/>
<stop offset="0.368786" stop-color="#D2D2D2"/>
<stop offset="0.624532" stop-color="#E3E3E3"/>
<stop offset="0.798581" stop-color="#D1D1D1"/>
</linearGradient>
<linearGradient id="paint6_linear" x1="33.3964" y1="4.32464" x2="131.117" y2="231.738" gradientUnits="userSpaceOnUse">
<stop stop-color="white" stop-opacity="0.16"/>
<stop offset="1" stop-color="white" stop-opacity="0.05"/>
</linearGradient>
<linearGradient id="paint7_linear" x1="24" y1="42.44" x2="24.8146" y2="42.44" gradientUnits="userSpaceOnUse">
<stop stop-opacity="0"/>
<stop offset="0.333333" stop-color="#D0D0D0" stop-opacity="0.42"/>
<stop offset="1" stop-opacity="0.24"/>
</linearGradient>
<linearGradient id="paint8_linear" x1="24" y1="63.8693" x2="24.8146" y2="63.8693" gradientUnits="userSpaceOnUse">
<stop stop-opacity="0"/>
<stop offset="0.333333" stop-color="#D0D0D0" stop-opacity="0.42"/>
<stop offset="1" stop-opacity="0.24"/>
</linearGradient>
<linearGradient id="paint9_linear" x1="141.3" y1="75.3494" x2="142.115" y2="75.3494" gradientUnits="userSpaceOnUse">
<stop stop-opacity="0.24"/>
<stop offset="0.573835" stop-color="#D0D0D0" stop-opacity="0.42"/>
<stop offset="1" stop-opacity="0"/>
</linearGradient>
<linearGradient id="paint10_linear" x1="24" y1="86.189" x2="24.8146" y2="86.189" gradientUnits="userSpaceOnUse">
<stop stop-opacity="0"/>
<stop offset="0.333333" stop-color="#D0D0D0" stop-opacity="0.42"/>
<stop offset="1" stop-opacity="0.24"/>
</linearGradient>
<linearGradient id="paint11_linear" x1="82.0575" y1="3" x2="82.0575" y2="242" gradientUnits="userSpaceOnUse">
<stop stop-color="white" stop-opacity="0.64"/>
<stop offset="1" stop-color="white" stop-opacity="0.32"/>
</linearGradient>
<linearGradient id="paint12_linear" x1="23.1631" y1="24.5866" x2="25.9327" y2="24.5866" gradientUnits="userSpaceOnUse">
<stop offset="0.123628" stop-color="#8F8F8F"/>
<stop offset="0.365738" stop-color="#525252"/>
<stop offset="0.827659" stop-color="#141414"/>
</linearGradient>
<linearGradient id="paint13_linear" x1="23.1631" y1="221.554" x2="25.9327" y2="221.554" gradientUnits="userSpaceOnUse">
<stop offset="0.123628" stop-color="#8F8F8F"/>
<stop offset="0.365738" stop-color="#525252"/>
<stop offset="0.827659" stop-color="#141414"/>
</linearGradient>
<linearGradient id="paint14_linear" x1="138.183" y1="24.5866" x2="140.952" y2="24.5866" gradientUnits="userSpaceOnUse">
<stop offset="0.088176" stop-color="#141414"/>
<stop offset="0.536358" stop-color="#525252"/>
<stop offset="0.756584" stop-color="#8F8F8F"/>
</linearGradient>
<linearGradient id="paint15_linear" x1="138.183" y1="221.554" x2="140.952" y2="221.554" gradientUnits="userSpaceOnUse">
<stop offset="0.088176" stop-color="#141414"/>
<stop offset="0.529254" stop-color="#525252"/>
<stop offset="0.770792" stop-color="#8F8F8F"/>
</linearGradient>
<linearGradient id="paint16_linear" x1="115.537" y1="3.08147" x2="118.307" y2="3.08147" gradientUnits="userSpaceOnUse">
<stop offset="0.420124" stop-color="#8F8F8F"/>
<stop offset="0.610413" stop-color="#525252"/>
<stop offset="0.976264" stop-color="#141414"/>
</linearGradient>
<linearGradient id="paint17_linear" x1="46.949" y1="241.104" x2="49.7186" y2="241.104" gradientUnits="userSpaceOnUse">
<stop offset="0.122861"/>
<stop offset="0.584624" stop-color="#292929"/>
<stop offset="0.87589" stop-color="#7A7A7A"/>
</linearGradient>
<linearGradient id="paint18_linear" x1="32.3964" y1="7.32464" x2="130.117" y2="234.738" gradientUnits="userSpaceOnUse">
<stop stop-color="white" stop-opacity="0.16"/>
<stop offset="1" stop-color="white" stop-opacity="0.05"/>
</linearGradient>
<linearGradient id="paint19_linear" x1="23" y1="45.44" x2="23.8146" y2="45.44" gradientUnits="userSpaceOnUse">
<stop stop-color="white" stop-opacity="0.08"/>
<stop offset="0.276042" stop-color="white" stop-opacity="0.24"/>
<stop offset="1" stop-color="white" stop-opacity="0"/>
</linearGradient>
<linearGradient id="paint20_linear" x1="23" y1="66.8693" x2="23.8146" y2="66.8693" gradientUnits="userSpaceOnUse">
<stop stop-color="white" stop-opacity="0.08"/>
<stop offset="0.276042" stop-color="white" stop-opacity="0.24"/>
<stop offset="1" stop-color="white" stop-opacity="0"/>
</linearGradient>
<linearGradient id="paint21_linear" x1="140.3" y1="78.3494" x2="141.115" y2="78.3494" gradientUnits="userSpaceOnUse">
<stop stop-color="white" stop-opacity="0"/>
<stop offset="0.630208" stop-color="white" stop-opacity="0.24"/>
<stop offset="1" stop-color="white" stop-opacity="0.08"/>
</linearGradient>
<linearGradient id="paint22_linear" x1="23" y1="89.189" x2="23.8146" y2="89.189" gradientUnits="userSpaceOnUse">
<stop stop-color="white" stop-opacity="0.08"/>
<stop offset="0.276042" stop-color="white" stop-opacity="0.24"/>
<stop offset="1" stop-color="white" stop-opacity="0"/>
</linearGradient>
<linearGradient id="paint23_linear" x1="10969.8" y1="20676.5" x2="10089.4" y2="10269.6" gradientUnits="userSpaceOnUse">
<stop stop-color="#F9B776"/>
<stop offset="0.05" stop-color="#F9B475"/>
<stop offset="1" stop-color="#F47960"/>
</linearGradient>
<linearGradient id="paint24_linear" x1="7621" y1="20914.5" x2="6769.29" y2="9949.45" gradientUnits="userSpaceOnUse">
<stop stop-color="#F9B776"/>
<stop offset="0.05" stop-color="#F9B475"/>
<stop offset="1" stop-color="#F47960"/>
</linearGradient>
<linearGradient id="paint25_linear" x1="101.725" y1="168.847" x2="73.6486" y2="126.372" gradientUnits="userSpaceOnUse">
<stop stop-color="#2B3582"/>
<stop offset="1" stop-color="#150E42"/>
</linearGradient>
<linearGradient id="paint26_linear" x1="21850.2" y1="3094.57" x2="21855.6" y2="2863.28" gradientUnits="userSpaceOnUse">
<stop stop-color="#2B3582"/>
<stop offset="1" stop-color="#150E42"/>
</linearGradient>
<linearGradient id="paint27_linear" x1="-5086.6" y1="3094.57" x2="-5092.01" y2="2863.27" gradientUnits="userSpaceOnUse">
<stop stop-color="#2B3582"/>
<stop offset="1" stop-color="#150E42"/>
</linearGradient>
<linearGradient id="paint28_linear" x1="83.1389" y1="7.82004" x2="83.1389" y2="10.1009" gradientUnits="userSpaceOnUse">
<stop/>
<stop offset="0.483028" stop-color="#484848"/>
<stop offset="1"/>
</linearGradient>
<radialGradient id="paint29_radial" cx="0" cy="0" r="1" gradientUnits="userSpaceOnUse" gradientTransform="translate(94.7875 10.0194) rotate(-127.694) scale(2.26479)">
<stop stop-color="#242424"/>
<stop offset="1" stop-color="#161616"/>
</radialGradient>
<radialGradient id="paint30_radial" cx="0" cy="0" r="1" gradientUnits="userSpaceOnUse" gradientTransform="translate(94.3802 8.96047) rotate(90) scale(2.28085)">
<stop offset="0.463542" stop-opacity="0.25"/>
<stop offset="0.645833" stop-opacity="0"/>
</radialGradient>
<linearGradient id="paint31_linear" x1="94.3802" y1="7.82004" x2="94.3802" y2="10.1009" gradientUnits="userSpaceOnUse">
<stop stop-color="#0B528D"/>
<stop offset="0.276042" stop-color="#3625AF"/>
<stop offset="0.510417" stop-color="#070D17"/>
<stop offset="0.734375" stop-color="#16618F"/>
<stop offset="1" stop-color="#021762"/>
</linearGradient>
<radialGradient id="paint32_radial" cx="0" cy="0" r="1" gradientUnits="userSpaceOnUse" gradientTransform="translate(93.4841 8.71608) rotate(58.3925) scale(1.24341)">
<stop stop-color="#070D17"/>
<stop offset="1" stop-color="#070D17" stop-opacity="0"/>
</radialGradient>
<radialGradient id="paint33_radial" cx="0" cy="0" r="1" gradientUnits="userSpaceOnUse" gradientTransform="translate(94.5431 9.12338) rotate(106.699) scale(0.850454)">
<stop offset="0.146834" stop-color="#070D17"/>
<stop offset="1" stop-color="#070D17" stop-opacity="0"/>
</radialGradient>
<radialGradient id="paint34_radial" cx="0" cy="0" r="1" gradientUnits="userSpaceOnUse" gradientTransform="translate(94.706 8.71608) rotate(128.66) scale(0.521591)">
<stop stop-color="#6356D7"/>
<stop offset="1" stop-color="#15368A" stop-opacity="0"/>
</radialGradient>
<radialGradient id="paint35_radial" cx="0" cy="0" r="1" gradientUnits="userSpaceOnUse" gradientTransform="translate(94.3802 8.96046) rotate(90) scale(1.14042)">
<stop offset="0.828125" stop-opacity="0"/>
<stop offset="1" stop-opacity="0.85"/>
</radialGradient>
<linearGradient id="paint36_linear" x1="39103" y1="45847.3" x2="36078.6" y2="51194.6" gradientUnits="userSpaceOnUse">
<stop stop-color="#2B3582"/>
<stop offset="1" stop-color="#150E42"/>
</linearGradient>
<linearGradient id="paint37_linear" x1="9410.73" y1="10541.5" x2="9615.01" y2="14489.4" gradientUnits="userSpaceOnUse">
<stop stop-color="#53D8FF"/>
<stop offset="1" stop-color="#3840F7"/>
</linearGradient>
<linearGradient id="paint38_linear" x1="18439.6" y1="15201.7" x2="18711.1" y2="20993.5" gradientUnits="userSpaceOnUse">
<stop stop-color="#53D8FF"/>
<stop offset="1" stop-color="#3840F7"/>
</linearGradient>
<linearGradient id="paint39_linear" x1="29.689" y1="158.387" x2="25.5727" y2="196.579" gradientUnits="userSpaceOnUse">
<stop stop-color="#FDF53F"/>
<stop offset="1" stop-color="#D93C65"/>
</linearGradient>
<linearGradient id="paint40_linear" x1="23915.6" y1="68825.7" x2="4118.8" y2="92441.8" gradientUnits="userSpaceOnUse">
<stop stop-color="#53D8FF"/>
<stop offset="1" stop-color="#3840F7"/>
</linearGradient>
<linearGradient id="paint41_linear" x1="20289" y1="21748" x2="18592.3" y2="24153.9" gradientUnits="userSpaceOnUse">
<stop stop-color="#2B3582"/>
<stop offset="1" stop-color="#150E42"/>
</linearGradient>
<linearGradient id="paint42_linear" x1="4301.42" y1="8341.55" x2="4455.38" y2="8341.55" gradientUnits="userSpaceOnUse">
<stop stop-color="#F9B776"/>
<stop offset="1" stop-color="#F47960"/>
</linearGradient>
<linearGradient id="paint43_linear" x1="27869.5" y1="26843.2" x2="28649.9" y2="22689.4" gradientUnits="userSpaceOnUse">
<stop stop-color="#2B3582"/>
<stop offset="1" stop-color="#150E42"/>
</linearGradient>
<linearGradient id="paint44_linear" x1="4846.71" y1="4127.26" x2="4814.25" y2="4427.52" gradientUnits="userSpaceOnUse">
<stop stop-color="#A737D5"/>
<stop offset="1" stop-color="#EF497A"/>
</linearGradient>
<linearGradient id="paint45_linear" x1="9075.96" y1="6115.2" x2="9059" y2="6396.43" gradientUnits="userSpaceOnUse">
<stop stop-color="#A737D5"/>
<stop offset="1" stop-color="#EF497A"/>
</linearGradient>
<linearGradient id="paint46_linear" x1="6056.25" y1="13208.9" x2="6618.09" y2="13208.9" gradientUnits="userSpaceOnUse">
<stop stop-color="#F9B776"/>
<stop offset="1" stop-color="#F47960"/>
</linearGradient>
</defs>
</svg>
