<svg width="99" height="80" viewBox="0 0 99 80" fill="none" xmlns="http://www.w3.org/2000/svg">
<path d="M12.4815 70.9921L9.47877 71.8263L7.31006 68.1562L10.3128 67.1553L12.4815 70.9921Z" fill="#FFD15C"/>
<path d="M44.1782 69.8244L41.6759 72.9939L39.8408 68.1561L43.344 66.1543L44.1782 69.8244Z" fill="#FFD15C"/>
<path d="M41.3416 29.2864L42.6761 27.6182C42.6761 27.6182 45.512 30.6209 46.513 33.9573C47.5139 37.2936 48.0143 40.9637 48.8484 42.9655C49.6824 44.9674 52.018 49.6384 51.1838 52.4743C50.5165 55.3102 46.8465 64.6522 46.5128 65.6531C46.0123 66.8209 46.0123 66.8209 46.0123 66.8209L43.51 70.9914C43.51 70.9914 42.3422 68.656 39.0059 67.6551L40.5073 63.8183C40.5073 63.8183 41.3413 62.3169 41.5082 60.8155C41.6751 59.3142 41.5082 58.4801 41.8418 56.8119C42.1754 55.3105 42.5091 53.1418 42.6758 52.4746C42.8427 51.6405 43.5099 50.6396 43.0094 49.6387C42.509 48.6378 38.8389 40.964 38.8389 40.964L41.3416 29.2864Z" fill="#DA4766"/>
<path d="M10.5613 29.5013L9.22677 27.833C9.22677 27.833 6.39088 30.8358 5.38997 34.1721C4.38905 37.5085 3.88859 41.3454 2.88767 43.3473C1.88675 45.3491 -0.281965 50.0201 0.552239 52.856C1.21957 55.6919 4.8895 65.0339 5.22325 66.0348C5.55699 67.0357 5.72371 67.2026 5.72371 67.2026L8.22601 71.3732C8.22601 71.3732 9.3938 69.0377 12.7301 68.0368L11.2288 64.2C11.2288 64.2 10.3947 62.6986 10.2278 61.1973C10.061 59.6959 10.2278 58.8618 9.89426 57.1936C9.56067 55.6922 9.22693 53.5235 9.06021 52.8563C8.72662 52.0223 8.05929 51.0213 8.55975 50.0204C9.06021 49.0195 12.7303 41.3457 12.7303 41.3457L10.5613 29.5013Z" fill="#DA4766"/>
<path d="M30.9989 14.4416C30.9989 14.4416 30.8321 17.9448 30.3316 19.1126V22.9494L26.4948 27.7871L20.6561 24.6175V19.9465C20.6561 19.9465 19.6552 17.2773 19.4884 14.4414C19.3215 11.7722 18.821 8.76949 19.1548 7.43498C19.4885 6.10047 25.1603 4.09863 26.9953 4.09863C28.8302 4.09863 30.9989 6.43406 31.1658 7.60185C31.3327 8.43606 31.4994 13.7744 30.9989 14.4416Z" fill="#FFD15C"/>
<path d="M32.4641 13.3147C32.7263 12.0518 32.5001 10.937 31.9589 10.8246C31.4176 10.7122 30.7663 11.6449 30.5041 12.9077C30.2419 14.1706 30.4681 15.2854 31.0093 15.3978C31.5505 15.5102 32.2019 14.5776 32.4641 13.3147Z" fill="#FFD15C"/>
<path d="M17.9152 13.1721C18.1774 14.435 18.8287 15.3676 19.37 15.2552C19.9112 15.1429 20.1374 14.028 19.8752 12.7651C19.613 11.5023 18.9616 10.5696 18.4204 10.682C17.8792 10.7944 17.653 11.9092 17.9152 13.1721Z" fill="#FFD15C"/>
<path d="M19.3213 14.1057H19.6549C19.6549 14.1057 19.1545 11.9369 19.488 11.1029C19.8216 10.2689 20.1554 9.43465 20.1554 8.6006C20.1554 7.76655 20.1554 6.76563 21.3232 6.93235C22.491 7.09922 28.1627 7.26594 29.4974 7.09922C30.8321 6.9325 30.8319 9.10106 30.8319 9.76839C30.8319 10.4357 31.3324 11.9371 31.3324 12.4376C31.3324 13.1049 31.1655 13.9389 31.1655 13.9389H31.3324C31.3324 13.9389 32.5002 10.6026 32.6669 8.43388C32.8336 6.26517 31.3324 1.59432 26.3278 0.259655C21.3232 -1.07501 18.8209 3.09554 19.3213 4.59692C19.3213 4.59692 16.9859 5.09738 17.6531 8.43373C18.3202 11.7701 19.3213 14.1057 19.3213 14.1057Z" fill="#415A6B"/>
<path d="M24.8263 22.9472C22.4909 22.7803 20.6558 19.7775 20.6558 19.7775V24.4485L23.3249 25.9499C29.8309 23.4476 30.3314 19.1104 30.3314 19.1104C29.6642 20.6117 27.1619 23.114 24.8263 22.9472Z" fill="#F7B64C"/>
<path d="M31.1664 22.1125C31.1664 22.1125 32.3341 23.2803 34.336 24.2812C36.3378 25.2821 41.676 26.9504 42.6769 27.6175C42.6769 27.6175 43.0105 34.7909 39.0068 40.7964C39.0068 40.7964 38.1728 58.1456 39.0068 61.9826C39.0068 61.9826 30.1654 64.4849 27.1627 64.4849C24.1599 64.4849 14.1507 61.9825 13.1498 61.3152C11.982 60.6479 14.4843 51.9734 14.6512 50.472C14.6512 49.1375 12.9829 41.1301 12.9829 41.1301C12.9829 41.1301 8.1452 32.4554 9.14612 27.6177C9.14612 27.6177 12.8162 26.2832 15.3185 24.9485C17.9877 23.614 20.1562 21.4453 20.1562 21.4453L24.6604 25.1154L26.1618 24.9485L29.8318 23.9476L31.1664 22.1125Z" fill="#FF5B7E"/>
<path d="M25.1604 27.9516C25.8278 27.7848 26.1614 27.7848 26.6618 27.9516C26.8287 27.2843 27.6627 26.6171 28.4968 26.1167L25.6609 25.6162H24.9936L23.4922 26.1167C24.4931 26.4503 24.9936 27.2845 25.1604 27.9516Z" fill="white"/>
<path d="M29.1645 54.31C28.1636 55.3109 27.6631 55.9782 26.4953 56.9792C25.9949 56.4787 24.3266 54.8104 23.8262 54.31C23.8262 54.31 24.3266 32.6233 24.4935 31.4557C24.6604 30.2879 25.1608 27.9525 25.1608 27.9525L26.3286 27.2852L26.8291 28.1192C26.8291 28.1192 27.6631 31.122 27.6631 32.9569C27.6631 34.2916 28.6641 47.3035 29.1645 54.31Z" fill="white"/>
<path d="M30.3309 21.2793C30.3309 21.2793 28.1622 24.4489 25.9937 25.4498C25.9937 25.4498 28.3291 27.1181 28.496 28.119C28.496 28.119 31.4987 24.4489 31.4987 23.1144C31.4987 21.7798 30.3309 21.2793 30.3309 21.2793Z" fill="#F3F3F3"/>
<path d="M25.3269 25.4502C25.3269 25.4502 24.1591 26.2842 23.3251 28.1193C23.3251 28.1193 20.4892 25.1166 19.655 23.1147C19.4881 22.6143 19.4881 22.1138 19.9886 21.6133L20.8226 20.7793C20.6561 20.7793 21.3232 23.7821 25.3269 25.4502Z" fill="#F3F3F3"/>
<path d="M38.84 61.3162C38.84 61.3162 40.0078 66.6544 41.1754 69.1566C42.3432 71.6589 41.8428 72.8267 41.8428 72.8267C41.8428 72.8267 40.3414 73.9945 40.3414 80.0001H25.828L25.6612 79.3327L25.3276 80.0001H11.3147C11.3147 80.0001 11.4816 75.329 9.146 71.3254C9.146 71.3254 9.98004 68.1557 11.3147 65.6534C12.6494 63.1511 13.1497 60.9824 13.1497 60.9824C21.4906 63.1511 30.1653 63.318 38.84 61.3162Z" fill="#415A6B"/>
<path d="M80.4365 66.7157H72.3486C71.378 66.7157 70.731 66.1432 70.731 65.2845V40.0253V14.7661C70.731 13.9075 71.378 13.335 72.3486 13.335H80.4365V16.1972H73.9661V63.8534H80.4365V66.7157Z" fill="#1E2021"/>
<path d="M80.4365 37.5986H57.3857V41.2382H80.4365V37.5986Z" fill="#1E2021"/>
<path d="M98.6345 8.89547V21.3479C98.6345 22.9044 97.3609 24.1779 95.8044 24.1779H83.352C81.7955 24.1779 80.522 22.9044 80.522 21.3479V8.89547C80.522 7.33897 81.7955 6.06543 83.352 6.06543H95.8044C97.3609 6.0653 98.6345 7.33883 98.6345 8.89547Z" fill="#F3705A"/>
<path d="M94.3888 10.3096H84.7666V19.9318H94.3888V10.3096Z" fill="#FF4444"/>
<path d="M98.6345 33.7988V46.2512C98.6345 47.8077 97.3609 49.0812 95.8044 49.0812H83.352C81.7955 49.0812 80.522 47.8077 80.522 46.2512V33.7988C80.522 32.2423 81.7955 30.9688 83.352 30.9688H95.8044C97.3609 30.9687 98.6345 32.2423 98.6345 33.7988Z" fill="#66C6B9"/>
<path d="M94.3888 35.2139H84.7666V44.8361H94.3888V35.2139Z" fill="#308E7D"/>
<path d="M98.6345 58.7041V71.1565C98.6345 72.713 97.3609 73.9865 95.8044 73.9865H83.352C81.7955 73.9865 80.522 72.713 80.522 71.1565V58.7041C80.522 57.1476 81.7955 55.874 83.352 55.874H95.8044C97.3609 55.874 98.6345 57.1476 98.6345 58.7041Z" fill="#FFD15C"/>
<path d="M94.3888 60.1191H84.7666V69.7414H94.3888V60.1191Z" fill="#EC9A16"/>
</svg>
