<svg width="50" height="40" viewBox="0 0 50 40" fill="none" xmlns="http://www.w3.org/2000/svg">
<path d="M6.0584 35.4965L4.55701 35.9136L3.47266 34.0786L4.97404 33.5781L6.0584 35.4965Z" fill="#FFD15C"/>
<path d="M21.907 34.9122L20.6558 36.4969L19.7383 34.0781L21.4899 33.0771L21.907 34.9122Z" fill="#FFD15C"/>
<path d="M20.4882 14.6427L21.1555 13.8086C21.1555 13.8086 22.5734 15.31 23.0739 16.9782C23.5743 18.6463 23.8246 20.4814 24.2416 21.4823C24.6586 22.4832 25.8264 24.8187 25.4093 26.2367C25.0756 27.6546 23.2407 32.3257 23.0738 32.8261C22.8236 33.41 22.8236 33.41 22.8236 33.41L21.5724 35.4953C21.5724 35.4953 20.9885 34.3276 19.3203 33.8271L20.071 31.9087C20.071 31.9087 20.488 31.158 20.5715 30.4073C20.6549 29.6566 20.5715 29.2396 20.7383 28.4055C20.9051 27.6548 21.0719 26.5704 21.1553 26.2368C21.2387 25.8198 21.5723 25.3194 21.3221 24.8189C21.0719 24.3184 19.2368 20.4815 19.2368 20.4815L20.4882 14.6427Z" fill="#DA4766"/>
<path d="M5.09803 14.7501L4.43078 13.916C4.43078 13.916 3.01283 15.4174 2.51237 17.0856C2.01191 18.7538 1.76168 20.6722 1.26122 21.6732C0.760758 22.6741 -0.3236 25.0096 0.0935026 26.4275C0.427169 27.8455 2.26214 32.5165 2.42901 33.017C2.59589 33.5174 2.67924 33.6009 2.67924 33.6009L3.9304 35.6861C3.9304 35.6861 4.51429 34.5184 6.18247 34.018L5.43178 32.0996C5.43178 32.0996 5.01475 31.3489 4.93132 30.5982C4.84788 29.8475 4.93132 29.4305 4.76452 28.5963C4.59773 27.8456 4.43086 26.7613 4.3475 26.4277C4.18071 26.0107 3.84704 25.5102 4.09727 25.0098C4.3475 24.5093 6.18255 20.6724 6.18255 20.6724L5.09803 14.7501Z" fill="#DA4766"/>
<path d="M15.3171 7.22031C15.3171 7.22031 15.2337 8.97192 14.9834 9.55582V11.4742L13.065 13.8931L10.1457 12.3083V9.97277C10.1457 9.97277 9.64524 8.63818 9.56181 7.22023C9.47837 5.88564 9.22814 4.38426 9.39501 3.71701C9.56188 3.04975 12.3978 2.04883 13.3153 2.04883C14.2328 2.04883 15.3171 3.21654 15.4005 3.80044C15.484 4.21754 15.5673 6.88672 15.3171 7.22031Z" fill="#FFD15C"/>
<path d="M16.0494 6.65686C16.1805 6.02542 16.0674 5.46799 15.7968 5.4118C15.5262 5.35561 15.2005 5.82194 15.0694 6.45337C14.9383 7.0848 15.0514 7.64223 15.322 7.69842C15.5927 7.75461 15.9183 7.28829 16.0494 6.65686Z" fill="#FFD15C"/>
<path d="M8.77497 6.58508C8.90609 7.21651 9.23175 7.68284 9.50237 7.62665C9.77299 7.57045 9.88609 7.01302 9.75498 6.38159C9.62387 5.75016 9.2982 5.28383 9.02758 5.34002C8.75696 5.39622 8.64386 5.95364 8.77497 6.58508Z" fill="#FFD15C"/>
<path d="M9.47805 7.05285H9.64484C9.64484 7.05285 9.39461 5.96849 9.56141 5.55146C9.7282 5.13444 9.89507 4.71733 9.89507 4.30031C9.89507 3.88329 9.89507 3.38282 10.479 3.46618C11.0629 3.54962 13.8988 3.63298 14.5661 3.54962C15.2334 3.46626 15.2333 4.55054 15.2333 4.88421C15.2333 5.21787 15.4836 5.96857 15.4836 6.2188C15.4836 6.55246 15.4001 6.96949 15.4001 6.96949H15.4836C15.4836 6.96949 16.0675 5.30131 16.1508 4.21695C16.2342 3.13259 15.4836 0.797161 12.9813 0.129828C10.479 -0.537506 9.22782 1.54777 9.47805 2.29847C9.47805 2.29847 8.31033 2.5487 8.64392 4.21687C8.97751 5.88505 9.47805 7.05285 9.47805 7.05285Z" fill="#415A6B"/>
<path d="M12.2308 11.4741C11.0631 11.3906 10.1455 9.88925 10.1455 9.88925V12.2248L11.4801 12.9755C14.7331 11.7243 14.9833 9.55566 14.9833 9.55566C14.6497 10.3064 13.3986 11.5575 12.2308 11.4741Z" fill="#F7B64C"/>
<path d="M15.4006 11.0562C15.4006 11.0562 15.9845 11.6401 16.9854 12.1406C17.9863 12.6411 20.6554 13.4752 21.1559 13.8088C21.1559 13.8088 21.3227 17.3954 19.3208 20.3982C19.3208 20.3982 18.9038 29.0728 19.3208 30.9913C19.3208 30.9913 14.9001 32.2425 13.3987 32.2425C11.8974 32.2425 6.89275 30.9913 6.39229 30.6577C5.80839 30.324 7.05954 25.9867 7.14298 25.236C7.14298 24.5688 6.30885 20.5651 6.30885 20.5651C6.30885 20.5651 3.88998 16.2277 4.39044 13.8089C4.39044 13.8089 6.22549 13.1416 7.47665 12.4743C8.81124 11.807 9.89552 10.7227 9.89552 10.7227L12.1476 12.5577L12.8983 12.4743L14.7333 11.9738L15.4006 11.0562Z" fill="#FF5B7E"/>
<path d="M12.3976 13.9763C12.7313 13.8929 12.8981 13.8929 13.1483 13.9763C13.2317 13.6426 13.6488 13.3091 14.0658 13.0588L12.6478 12.8086H12.3142L11.5635 13.0588C12.0639 13.2256 12.3142 13.6427 12.3976 13.9763Z" fill="white"/>
<path d="M14.3996 27.155C13.8992 27.6555 13.649 27.9892 13.0651 28.4896C12.8148 28.2394 11.9807 27.4053 11.7305 27.155C11.7305 27.155 11.9807 16.3117 12.0641 15.7279C12.1476 15.144 12.3978 13.9762 12.3978 13.9762L12.9817 13.6426L13.2319 14.0596C13.2319 14.0596 13.649 15.561 13.649 16.4785C13.649 17.1458 14.1494 23.6518 14.3996 27.155Z" fill="white"/>
<path d="M14.9831 10.6396C14.9831 10.6396 13.8987 12.2245 12.8145 12.7249C12.8145 12.7249 13.9822 13.5591 14.0656 14.0595C14.0656 14.0595 15.567 12.2245 15.567 11.5572C15.567 10.8899 14.9831 10.6396 14.9831 10.6396Z" fill="#F3F3F3"/>
<path d="M12.4811 12.7251C12.4811 12.7251 11.8972 13.1421 11.4802 14.0597C11.4802 14.0597 10.0622 12.5583 9.64512 11.5574C9.56168 11.3071 9.56168 11.0569 9.81191 10.8067L10.2289 10.3896C10.1457 10.3896 10.4792 11.891 12.4811 12.7251Z" fill="#F3F3F3"/>
<path d="M19.2377 30.6581C19.2377 30.6581 19.8216 33.3272 20.4054 34.5783C20.9893 35.8295 20.739 36.4134 20.739 36.4134C20.739 36.4134 19.9884 36.9973 19.9884 40H12.7317L12.6482 39.6664L12.4814 40H5.47498C5.47498 40 5.55842 37.6645 4.39062 35.6627C4.39062 35.6627 4.80765 34.0779 5.47498 32.8267C6.14232 31.5756 6.39247 30.4912 6.39247 30.4912C10.563 31.5756 14.9003 31.659 19.2377 30.6581Z" fill="#415A6B"/>
<path d="M40.0359 33.3564H35.9919C35.5067 33.3564 35.1831 33.0702 35.1831 32.6409V20.0112V7.3816C35.1831 6.95226 35.5067 6.66602 35.9919 6.66602H40.0359V8.09711H36.8007V31.9253H40.0359V33.3564Z" fill="#1E2021"/>
<path d="M40.0357 18.7979H28.5103V20.6177H40.0357V18.7979Z" fill="#1E2021"/>
<path d="M49.1349 4.44725V10.6735C49.1349 11.4517 48.4981 12.0885 47.7199 12.0885H41.4936C40.7154 12.0885 40.0786 11.4517 40.0786 10.6735V4.44725C40.0786 3.669 40.7154 3.03223 41.4936 3.03223H47.7199C48.4981 3.03216 49.1349 3.66893 49.1349 4.44725Z" fill="#F3705A"/>
<path d="M47.0118 5.1543H42.2007V9.96543H47.0118V5.1543Z" fill="#FF4444"/>
<path d="M49.1349 16.8994V23.1256C49.1349 23.9039 48.4981 24.5406 47.7199 24.5406H41.4936C40.7154 24.5406 40.0786 23.9039 40.0786 23.1256V16.8994C40.0786 16.1211 40.7154 15.4844 41.4936 15.4844H47.7199C48.4981 15.4844 49.1349 16.1211 49.1349 16.8994Z" fill="#66C6B9"/>
<path d="M47.0118 17.6064H42.2007V22.4176H47.0118V17.6064Z" fill="#308E7D"/>
<path d="M49.1349 29.3515V35.5778C49.1349 36.356 48.4981 36.9928 47.7199 36.9928H41.4936C40.7154 36.9928 40.0786 36.356 40.0786 35.5778V29.3515C40.0786 28.5733 40.7154 27.9365 41.4936 27.9365H47.7199C48.4981 27.9365 49.1349 28.5733 49.1349 29.3515Z" fill="#FFD15C"/>
<path d="M47.0118 30.0596H42.2007V34.8707H47.0118V30.0596Z" fill="#EC9A16"/>
</svg>
