<svg width="40" height="58" viewBox="0 0 40 58" fill="none" xmlns="http://www.w3.org/2000/svg">
<path d="M24.2108 47.6072L17.7028 55.5679L18.2749 55.9161C19.683 51.7615 23.6274 49.3185 25.9279 45.7217C26.1217 45.4166 25.798 44.9826 25.4645 45.2278C23.848 46.4196 22.562 47.9311 21.3359 49.5079C19.9607 51.2785 18.6129 53.0666 17.2583 54.8522L17.8802 55.2285C18.868 53.5991 19.8708 51.976 20.8888 50.3591C21.3547 49.6159 21.824 48.8755 22.2966 48.1381C22.7239 47.4746 23.1688 46.4098 23.9741 46.1373L23.5511 45.5513C21.0302 47.9616 18.7951 50.803 17.2874 53.9723C17.0899 54.3902 17.7211 54.6451 17.9374 54.2546C19.6432 51.2075 21.5966 48.4505 24.1285 46.0311C24.4185 45.7549 24.0216 45.3443 23.707 45.4482C23.0468 45.6632 22.6923 46.1578 22.3273 46.7188C21.7121 47.6635 21.1074 48.6223 20.5068 49.5696C19.3894 51.345 18.2901 53.1329 17.2088 54.9333C16.9947 55.2883 17.5846 55.6376 17.8299 55.3118C19.1062 53.6152 20.3818 51.921 21.6741 50.2378C22.9253 48.605 24.2119 47.0184 25.8625 45.7816L25.3983 45.2899C23.1006 48.9449 19.0276 51.3993 17.662 55.639C17.541 55.9803 17.9813 56.3051 18.2341 55.9872C20.3643 53.3025 22.4941 50.6168 24.6233 47.93C24.6525 47.8758 24.6619 47.8131 24.6498 47.7528C24.6378 47.6924 24.605 47.6382 24.5573 47.5994C24.5095 47.5606 24.4496 47.5397 24.3881 47.5403C24.3266 47.5409 24.2672 47.563 24.2202 47.6028L24.2108 47.6072Z" fill="#7E819E"/>
<path d="M18.2443 54.2909C16.5344 51.866 14.7472 49.5029 12.8828 47.2015C12.6666 46.9328 12.1875 47.1497 12.3318 47.4967C13.4545 50.1866 15.7447 52.1095 17.1884 54.6043L17.6572 54.1606C15.4765 51.9288 13.5902 49.4379 11.7131 46.9503C11.6561 46.8769 11.5728 46.8284 11.4809 46.815C11.3889 46.8016 11.2953 46.8244 11.2197 46.8785C11.1441 46.9326 11.0924 47.0139 11.0755 47.1053C11.0585 47.1966 11.0776 47.291 11.1287 47.3687C12.923 49.98 14.8358 52.5062 16.8366 54.9598C16.9783 54.7868 17.117 54.6154 17.2565 54.4416C16.3826 54.1318 15.8494 53.1173 15.319 52.4024C14.7557 51.6438 14.2056 50.8795 13.6688 50.1095C12.6412 48.6152 11.655 47.0898 10.7101 45.5332C10.4805 45.1559 9.96093 45.5012 10.0691 45.8769C10.2647 46.6368 10.6578 47.3313 11.2086 47.8901C11.4508 48.1292 11.7727 47.7631 11.6026 47.5107C11.2309 46.9226 10.9403 46.287 10.7386 45.6211L10.0976 45.9649C11.1742 47.7309 12.3108 49.4567 13.5076 51.1424C14.0843 51.956 14.679 52.7629 15.2916 53.5633C15.7664 54.1858 16.1966 54.8029 16.9558 55.0773C17.2532 55.1828 17.6048 54.8428 17.3757 54.5591C15.3928 52.0989 13.4983 49.5507 11.689 46.9522L11.1047 47.3705C13.0515 49.8958 14.9978 52.4079 17.2445 54.6657C17.5216 54.9457 17.8841 54.5162 17.7133 54.222C16.2919 51.774 14.0607 49.8825 12.911 47.2686L12.3599 47.5638C14.2687 49.8376 16.0919 52.1772 17.8295 54.5824C17.8487 54.6094 17.8731 54.6323 17.9012 54.6498C17.9293 54.6673 17.9605 54.6791 17.9932 54.6845C18.0259 54.69 18.0593 54.6889 18.0915 54.6814C18.1238 54.674 18.1542 54.6602 18.1812 54.6409C18.2081 54.6217 18.231 54.5973 18.2485 54.5692C18.266 54.5411 18.2778 54.5099 18.2833 54.4772C18.2887 54.4445 18.2877 54.4111 18.2802 54.3789C18.2727 54.3466 18.2589 54.3162 18.2397 54.2892L18.2443 54.2909Z" fill="#7E819E"/>
<path d="M17.2282 50.5561C18.0129 34.8586 18.5259 19.175 18.767 3.50526C18.7739 2.99622 18.0792 3.07838 18.0034 3.55296C16.7523 11.5497 17.3293 19.5045 17.5398 27.4153C17.6783 31.5492 17.5774 35.7119 17.2376 39.8771C16.8902 43.8657 16.4657 47.8834 17.0408 51.7778L17.8494 51.6022C16.6421 43.8517 18.0526 35.835 18.3327 27.9241C18.6263 19.5292 17.5761 11.27 18.175 2.85075L17.3584 2.90514C17.7236 18.0405 17.2914 33.2637 16.0641 48.4947L16.8938 48.5631C17.4586 40.3829 17.9677 32.2052 18.4212 24.0302C18.652 19.9417 18.8704 15.8538 19.0763 11.7665C19.1556 10.142 19.3655 8.4161 19.0838 6.8219C18.837 5.4265 18.0142 3.74757 18.8886 2.35888L18.1574 2.18244C18.3356 10.7241 18.4495 19.2723 18.4989 27.827C18.5203 32.011 18.5262 36.1902 18.5165 40.3645C18.501 44.4261 18.4062 48.506 17.5148 52.5476L18.3166 52.4952C17.7838 48.0226 17.824 43.4323 18.4361 38.8622L17.6543 38.9142C18.0109 44.0801 17.6762 49.3434 16.6613 54.5297L17.459 54.5915C17.5639 52.3654 17.5219 50.1477 17.3335 47.9569C17.289 47.4584 16.5583 47.4734 16.5291 48.0085C16.4195 50.0523 16.3111 52.0954 16.2038 54.1377C16.1731 54.7054 16.9481 54.7766 16.9816 54.2C17.0964 52.1577 17.2129 50.1161 17.3311 48.0749L16.5267 48.1265C16.7069 50.2415 16.7518 52.3814 16.6613 54.5297C16.6522 54.6461 16.6824 54.7582 16.7458 54.8434C16.8092 54.9285 16.901 54.9803 17.0025 54.9882C17.1041 54.996 17.2078 54.9594 17.2926 54.8857C17.3774 54.8121 17.4369 54.7069 17.459 54.5915C18.4739 49.3268 18.7999 43.9866 18.4263 38.7471C18.4137 38.6431 18.3684 38.5508 18.2983 38.4866C18.2283 38.4225 18.1382 38.3907 18.0442 38.3969C17.9501 38.4032 17.8583 38.447 17.785 38.5207C17.7118 38.5944 17.662 38.6931 17.6445 38.799C17.0406 43.448 16.9987 48.1146 17.5202 52.6679C17.5323 52.7756 17.5785 52.8714 17.6505 52.9382C17.7224 53.005 17.8154 53.0382 17.9125 53.032C18.0097 53.0258 18.1046 52.9805 18.1802 52.9042C18.2558 52.828 18.307 52.7259 18.3246 52.6164C19.1915 48.7915 19.3245 44.9279 19.343 41.0585C19.3724 36.7408 19.3574 32.429 19.3336 28.1179C19.2881 19.4039 19.1688 10.699 18.9758 2.00326C18.9655 1.91401 18.9324 1.83224 18.8803 1.76779C18.8282 1.70334 18.7595 1.65897 18.6823 1.64C18.6052 1.62104 18.5229 1.6283 18.4454 1.66092C18.3679 1.69353 18.2985 1.75009 18.2455 1.82381C17.5901 2.8712 17.6086 3.95865 17.8329 5.09645C17.9767 5.83346 18.2116 6.53265 18.3167 7.29397C18.4183 8.25412 18.4259 9.23292 18.3395 10.2131C18.1343 14.4633 17.9126 18.7151 17.6743 22.9684C17.2031 31.4699 16.6679 39.9737 16.0687 48.4796C16.0268 49.0834 16.8425 49.1606 16.8985 48.548C18.1312 33.2437 18.5652 17.9473 18.1981 2.73918C18.1836 2.21693 17.4185 2.26083 17.3815 2.79356C16.7763 11.3526 17.8681 19.7435 17.5221 28.2804C17.2059 36.1241 15.831 44.0991 17.0485 51.7802C17.1521 52.3629 17.958 52.1964 17.8702 51.6086C17.2673 47.5011 17.7697 43.2866 18.1049 39.0897C18.3834 35.2719 18.4613 31.458 18.338 27.6685C18.1314 19.6897 17.5112 11.682 18.7716 3.61881L18.0081 3.66652C17.7874 19.2701 17.3436 34.886 16.6767 50.5143C16.6588 50.921 17.2153 50.9743 17.2308 50.5569L17.2282 50.5561Z" fill="#7E819E"/>
</svg>
