<svg width="95" height="63" viewBox="0 0 95 63" fill="none" xmlns="http://www.w3.org/2000/svg">
<path d="M78.4299 23.435L92.026 33.8754L92.5772 32.9042C85.5825 30.7689 81.3112 24.3201 75.2006 20.6694C74.6824 20.362 73.9757 20.9234 74.4011 21.4667C76.4693 24.0999 79.0534 26.1661 81.7433 28.1291C84.7636 30.3308 87.8117 32.4858 90.8561 34.6524L91.4515 33.5969C88.6862 32.0337 85.9305 30.4451 83.1844 28.8309C81.9222 28.0922 80.6646 27.3479 79.4118 26.5979C78.2844 25.9195 76.4875 25.2321 75.9924 23.9042L75.0374 24.6388C79.1821 28.7171 84.0304 32.2972 89.3883 34.6487C90.0948 34.9565 90.4875 33.8918 89.8258 33.5512C84.6614 30.8634 79.968 27.7484 75.8076 23.6522C75.3328 23.183 74.6686 23.8653 74.8578 24.3842C75.2495 25.4734 76.0918 26.0389 77.0452 26.6187C78.6507 27.5959 80.2791 28.5548 81.8882 29.5075C84.9035 31.2794 87.9387 33.0205 90.9937 34.7308C91.5961 35.0695 92.1482 34.0687 91.593 33.6765C88.7009 31.6359 85.8128 29.5964 82.9424 27.5284C80.1578 25.5265 77.4487 23.463 75.3037 20.7753L74.5081 21.5738C80.7153 25.217 85.0123 31.8796 92.1467 33.9397C92.7215 34.124 93.2404 33.3738 92.6979 32.9686C88.1159 29.5553 83.5322 26.1428 78.9467 22.7312C78.855 22.6853 78.7501 22.6728 78.6501 22.696C78.5502 22.7191 78.4614 22.7765 78.3992 22.858C78.337 22.9396 78.3053 23.0404 78.3094 23.1429C78.3136 23.2454 78.3534 23.3433 78.422 23.4196L78.4299 23.435Z" fill="#7E819E"/>
<path d="M89.87 33.0386C85.9162 36.0112 82.0692 39.1093 78.3289 42.3331C77.8921 42.707 78.2778 43.4945 78.8488 43.2364C83.2742 41.2288 86.362 37.3148 90.446 34.7823L89.6828 34.0236C86.0745 37.7708 82.0196 41.0407 77.9697 44.2951C77.8503 44.3939 77.7737 44.535 77.7561 44.689C77.7384 44.8429 77.7811 44.9977 77.8751 45.1209C77.9691 45.2441 78.1071 45.3261 78.2603 45.3498C78.4134 45.3734 78.5698 45.3368 78.6965 45.2477C82.9569 42.125 87.0693 38.8092 91.0562 35.3505C90.7608 35.123 90.468 34.9007 90.1714 34.6771C89.6995 36.149 88.0362 37.0891 86.8718 38.0093C85.6362 38.9866 84.3905 39.942 83.1347 40.8757C80.6969 42.6639 78.2051 44.3849 75.6591 46.0385C75.0421 46.4403 75.6439 47.2885 76.2645 47.0892C77.5208 46.7246 78.6582 46.0343 79.5614 45.0881C79.9475 44.6722 79.3211 44.1545 78.9092 44.4507C77.948 45.0999 76.9036 45.6165 75.8043 45.9865L76.4097 47.0372C79.2978 45.1535 82.116 43.1717 84.8642 41.0918C86.1906 40.0894 87.5051 39.0575 88.8076 37.996C89.8209 37.173 90.8274 36.4249 91.246 35.1458C91.4066 34.6448 90.8223 34.0763 90.3612 34.4724C86.3623 37.9016 82.2122 41.1881 77.9741 44.3351L78.7009 45.2876C82.81 41.9151 86.8973 38.5442 90.5455 34.6857C90.9979 34.2097 90.2638 33.6274 89.7822 33.927C85.7752 36.42 82.7365 40.2341 78.4392 42.2828L78.9591 43.1861C82.6513 39.8898 86.4572 36.7328 90.377 33.7151C90.4209 33.6817 90.4578 33.6399 90.4855 33.5922C90.5133 33.5445 90.5314 33.4918 90.5388 33.4371C90.5462 33.3824 90.5427 33.3267 90.5286 33.2734C90.5145 33.22 90.4901 33.1699 90.4566 33.126C90.4232 33.0821 90.3814 33.0452 90.3337 33.0175C90.286 32.9897 90.2333 32.9716 90.1786 32.9642C90.1239 32.9568 90.0682 32.9603 90.0149 32.9744C89.9615 32.9885 89.9115 33.013 89.8675 33.0464L89.87 33.0386Z" fill="#7E819E"/>
<path d="M83.6977 34.9208C57.4998 34.4106 31.3389 34.3527 5.21476 34.7471C4.36617 34.7614 4.53836 35.915 5.33305 36.0171C18.7222 37.6957 31.9486 36.33 45.1204 35.5772C52.002 35.1364 58.9438 35.0931 65.9019 35.4476C72.5662 35.824 79.2826 36.3272 85.743 35.171L85.4094 33.8324C72.5554 36.2381 59.1248 34.295 45.928 34.2301C31.924 34.1674 18.2143 36.3371 4.15418 35.7668L4.2863 37.1249C29.489 35.7473 54.8787 35.6941 80.3218 36.9654L80.3936 35.5792C66.7335 35.0537 53.0805 34.6208 39.4348 34.2805C32.6101 34.1036 25.787 33.9474 18.9654 33.812C16.2544 33.7624 13.3677 33.5002 10.7255 34.0507C8.41273 34.5328 5.6568 35.9892 3.29828 34.6027L3.04142 35.8301C17.2661 35.0991 31.5049 34.4751 45.7578 33.9581C52.7288 33.7099 59.6926 33.4878 66.6492 33.2918C73.4181 33.1112 80.2216 33.062 87.0017 34.342L86.8737 33.0085C79.4477 34.1237 71.7965 34.2899 64.1499 33.5021L64.2762 34.8023C72.8664 33.9455 81.6542 34.2358 90.3481 35.6636L90.4106 34.331C86.6957 34.2695 83.0023 34.452 79.3611 34.8773C78.5326 34.9768 78.5947 36.1937 79.4879 36.2151C82.8993 36.294 86.3094 36.3708 89.7181 36.4458C90.6656 36.4682 90.745 35.1732 89.7823 35.1466C86.3734 35.0591 82.9652 34.9686 79.5578 34.8753L79.6846 36.2132C83.2 35.8055 86.7635 35.6218 90.3481 35.6636C90.5425 35.6728 90.7278 35.6168 90.8665 35.5068C91.0052 35.3969 91.0868 35.2413 91.0947 35.0716C91.1027 34.902 91.0364 34.731 90.9093 34.5934C90.7822 34.4559 90.6039 34.3621 90.4106 34.331C81.586 32.9074 72.6705 32.6354 63.9585 33.5242C63.7859 33.5505 63.6343 33.6308 63.531 33.7507C63.4276 33.8706 63.3792 34.0224 63.3944 34.1788C63.4096 34.3352 63.4874 34.486 63.6139 34.6043C63.7404 34.7227 63.9073 34.8007 64.0848 34.8245C71.8623 35.5946 79.6409 35.4272 87.202 34.3269C87.3807 34.3013 87.5381 34.2194 87.6457 34.0961C87.7534 33.9728 87.8041 33.8162 87.7888 33.6546C87.7735 33.493 87.6931 33.3371 87.5622 33.2151C87.4314 33.093 87.2586 33.0128 87.0752 32.9891C80.6575 31.7387 74.2124 31.7134 67.7637 31.8792C60.5671 32.0496 53.3829 32.2938 46.2001 32.5523C31.6816 33.071 17.1819 33.7121 2.70125 34.4755C2.55306 34.4971 2.41847 34.5565 2.31372 34.6466C2.20897 34.7366 2.13852 34.8534 2.11084 34.9829C2.08316 35.1125 2.09944 35.2493 2.15772 35.3767C2.216 35.5042 2.31379 35.617 2.43932 35.7014C4.21798 36.7405 6.02914 36.6543 7.91377 36.2229C9.13459 35.9457 10.2878 35.5187 11.5511 35.3049C13.1459 35.0868 14.7766 35.0244 16.4142 35.1187C23.5073 35.2447 30.6036 35.3981 37.7033 35.579C51.8941 35.9322 66.0918 36.392 80.2965 36.9584C81.3047 36.9975 81.3919 35.6344 80.3683 35.5722C54.8028 34.2956 29.291 34.3496 3.96708 35.7339C3.09755 35.7846 3.20958 37.0575 4.0992 37.092C18.3927 37.6657 32.3196 35.42 46.563 35.5628C59.6497 35.6911 73.0089 37.5771 85.7466 35.158C86.7125 34.9558 86.394 33.6213 85.419 33.7975C78.605 35.0108 71.5564 34.3878 64.5457 34.0424C58.1696 33.7722 51.8104 33.8363 45.5018 34.2343C32.2165 34.9839 18.9041 36.4243 5.40374 34.7337L5.52205 36.0036C31.5347 35.5784 57.5794 35.5246 83.6561 35.8419C84.3348 35.8511 84.3952 34.9211 83.6989 34.9164L83.6977 34.9208Z" fill="#7E819E"/>
</svg>
