<svg width="81" height="81" viewBox="0 0 81 81" fill="none" xmlns="http://www.w3.org/2000/svg">
<path d="M59.7981 75.5074C59.6275 75.5076 59.4591 75.469 59.3056 75.3945C59.1522 75.32 59.0177 75.2116 58.9123 75.0774L53.5264 68.2335H40.0728C39.774 68.2335 39.4875 68.1148 39.2762 67.9035C39.065 67.6923 38.9463 67.4057 38.9463 67.107C38.9463 66.8082 39.065 66.5217 39.2762 66.3104C39.4875 66.0992 39.774 65.9805 40.0728 65.9805H54.0735C54.244 65.9805 54.4122 66.0192 54.5655 66.0937C54.7189 66.1682 54.8533 66.2765 54.9587 66.4105L60.6825 73.6844C60.8132 73.8506 60.8946 74.0501 60.9172 74.2603C60.9398 74.4705 60.9029 74.6828 60.8105 74.8729C60.7182 75.0631 60.5742 75.2234 60.3951 75.3356C60.2159 75.4478 60.0088 75.5074 59.7974 75.5074H59.7981Z" fill="#06DAF7"/>
<path d="M54.0735 59.2217H40.0728C39.774 59.2217 39.4875 59.1031 39.2762 58.8918C39.065 58.6805 38.9463 58.394 38.9463 58.0952C38.9463 57.7965 39.065 57.51 39.2762 57.2987C39.4875 57.0874 39.774 56.9688 40.0728 56.9688H54.0735C54.3723 56.9688 54.6588 57.0874 54.8701 57.2987C55.0814 57.51 55.2 57.7965 55.2 58.0952C55.2 58.394 55.0814 58.6805 54.8701 58.8918C54.6588 59.1031 54.3723 59.2217 54.0735 59.2217Z" fill="#06DAF7"/>
<path d="M61.1537 50.21H40.0728C39.774 50.21 39.4875 50.0913 39.2762 49.8801C39.065 49.6688 38.9463 49.3823 38.9463 49.0835C38.9463 48.7848 39.065 48.4982 39.2762 48.287C39.4875 48.0757 39.774 47.957 40.0728 47.957H61.1537C61.4525 47.957 61.739 48.0757 61.9503 48.287C62.1616 48.4982 62.2802 48.7848 62.2802 49.0835C62.2802 49.3823 62.1616 49.6688 61.9503 49.8801C61.739 50.0913 61.4525 50.21 61.1537 50.21Z" fill="#06DAF7"/>
<path d="M48.92 41.1973H40.0728C39.774 41.1973 39.4875 41.0787 39.2762 40.8674C39.065 40.6561 38.9463 40.3696 38.9463 40.0708C38.9463 39.7721 39.065 39.4855 39.2762 39.2743C39.4875 39.063 39.774 38.9443 40.0728 38.9443H48.92C49.2187 38.9443 49.5053 39.063 49.7165 39.2743C49.9278 39.4855 50.0465 39.7721 50.0465 40.0708C50.0465 40.3696 49.9278 40.6561 49.7165 40.8674C49.5053 41.0787 49.2187 41.1973 48.92 41.1973Z" fill="#06DAF7"/>
<path d="M74.4438 47.4867C74.2959 47.4868 74.1494 47.4577 74.0127 47.401C73.8761 47.3444 73.752 47.2612 73.6476 47.1565L58.6761 32.1856H40.0728C39.774 32.1856 39.4875 32.0669 39.2762 31.8557C39.065 31.6444 38.9463 31.3579 38.9463 31.0591C38.9463 30.7603 39.065 30.4738 39.2762 30.2626C39.4875 30.0513 39.774 29.9326 40.0728 29.9326H59.1428C59.4415 29.9328 59.7279 30.0515 59.9391 30.2628L75.2401 45.5639C75.3976 45.7214 75.5047 45.9221 75.5482 46.1406C75.5916 46.359 75.5693 46.5854 75.4841 46.7912C75.3988 46.997 75.2545 47.1729 75.0694 47.2966C74.8843 47.4204 74.6666 47.4866 74.4438 47.4867Z" fill="#06DAF7"/>
<path d="M73.4654 22.9591H40.0728C39.774 22.9591 39.4875 22.8404 39.2762 22.6291C39.065 22.4178 38.9463 22.1313 38.9463 21.8326C38.9463 21.5338 39.065 21.2473 39.2762 21.036C39.4875 20.8247 39.774 20.7061 40.0728 20.7061H73.4654C73.7642 20.7061 74.0507 20.8247 74.262 21.036C74.4732 21.2473 74.5919 21.5338 74.5919 21.8326C74.5919 22.1313 74.4732 22.4178 74.262 22.6291C74.0507 22.8404 73.7642 22.9591 73.4654 22.9591Z" fill="#06DAF7"/>
<path d="M59.1428 15.6652H40.0728C39.774 15.6652 39.4875 15.5465 39.2762 15.3353C39.065 15.124 38.9463 14.8375 38.9463 14.5387C38.9463 14.2399 39.065 13.9534 39.2762 13.7422C39.4875 13.5309 39.774 13.4122 40.0728 13.4122H58.6761L63.8316 8.25672C64.0429 8.04545 64.3294 7.92676 64.6282 7.92676C64.927 7.92676 65.2135 8.04545 65.4248 8.25672C65.6361 8.46799 65.7547 8.75453 65.7547 9.05331C65.7547 9.35209 65.6361 9.63864 65.4248 9.84991L59.9397 15.335C59.8351 15.4397 59.7108 15.5227 59.5741 15.5794C59.4374 15.6361 59.2908 15.6652 59.1428 15.6652Z" fill="#06DAF7"/>
<path d="M28.3645 0C25.2594 0.000170717 22.2817 1.23375 20.0862 3.42938C17.8907 5.62501 16.6572 8.60285 16.6572 11.7079V11.7349C15.0101 11.8191 13.4095 12.3108 11.9993 13.166C10.589 14.0212 9.41303 15.2131 8.57693 16.6348C7.74083 18.0565 7.27072 19.6636 7.20878 21.3117C7.14684 22.9599 7.495 24.5977 8.22202 26.0781C5.75197 27.6165 3.70601 29.7485 2.27046 32.2797C0.834906 34.8109 0.055372 37.6611 0.00284294 40.5706C-0.0496861 43.4801 0.626459 46.3565 1.96971 48.9379C3.31295 51.5193 5.28062 53.7237 7.69354 55.3503C7.21799 56.8062 7.08412 58.352 7.30231 59.868C7.5205 61.3839 8.08488 62.8293 8.9517 64.0919C9.81853 65.3546 10.9645 66.4007 12.3008 67.149C13.6371 67.8974 15.1277 68.328 16.6572 68.4074V68.4344C16.6458 69.9792 16.9402 71.5109 17.5234 72.9414C18.1066 74.3719 18.9672 75.6728 20.0554 76.7692C21.1437 77.8656 22.4382 78.7357 23.8643 79.3296C25.2904 79.9234 26.82 80.2291 28.3648 80.2291C29.9096 80.2291 31.4391 79.9234 32.8652 79.3296C34.2913 78.7357 35.5858 77.8656 36.6741 76.7692C37.7624 75.6728 38.6229 74.3719 39.2062 72.9414C39.7894 71.5109 40.0838 69.9792 40.0723 68.4344V11.7079C40.0723 8.60274 38.8388 5.6248 36.6432 3.42915C34.4475 1.2335 31.4696 0 28.3645 0Z" fill="#FF6CA8"/>
<path d="M6.04984 42.0103C5.75107 42.0103 5.46454 41.8916 5.25328 41.6803C5.04202 41.4691 4.92334 41.1826 4.92334 40.8838C4.92709 37.5635 6.24772 34.3803 8.59551 32.0325C10.9433 29.6847 14.1265 28.3641 17.4468 28.3604C17.7455 28.3604 18.0321 28.479 18.2433 28.6903C18.4546 28.9016 18.5733 29.1881 18.5733 29.4868C18.5733 29.7856 18.4546 30.0721 18.2433 30.2834C18.0321 30.4947 17.7455 30.6133 17.4468 30.6133C14.7243 30.6171 12.1144 31.7004 10.1895 33.6258C8.26467 35.5511 7.18198 38.1613 7.17891 40.8838C7.17891 41.0319 7.14969 41.1786 7.09292 41.3155C7.03614 41.4523 6.95293 41.5766 6.84806 41.6813C6.74318 41.7859 6.61869 41.8688 6.48172 41.9253C6.34475 41.9817 6.19799 42.0106 6.04984 42.0103Z" fill="#EF4A8A"/>
<path d="M33.7762 13.0823C33.4775 13.0823 33.1909 12.9637 32.9797 12.7524C32.7684 12.5411 32.6497 12.2546 32.6497 11.9558C32.6497 11.3932 32.5389 10.836 32.3236 10.3162C32.1083 9.79639 31.7927 9.32406 31.3948 8.9262C30.997 8.52835 30.5246 8.21275 30.0048 7.99743C29.485 7.78211 28.9278 7.67129 28.3652 7.67129C27.8025 7.67129 27.2454 7.78211 26.7256 7.99743C26.2057 8.21275 25.7334 8.52835 25.3355 8.9262C24.9377 9.32406 24.6221 9.79639 24.4068 10.3162C24.1915 10.836 24.0806 11.3932 24.0806 11.9558C24.0806 12.2546 23.9619 12.5411 23.7507 12.7524C23.5394 12.9637 23.2529 13.0823 22.9541 13.0823C22.6554 13.0823 22.3688 12.9637 22.1576 12.7524C21.9463 12.5411 21.8276 12.2546 21.8276 11.9558C21.8276 10.2219 22.5164 8.55896 23.7425 7.33287C24.9686 6.10678 26.6316 5.41797 28.3655 5.41797C30.0995 5.41797 31.7624 6.10678 32.9885 7.33287C34.2146 8.55896 34.9034 10.2219 34.9034 11.9558C34.9034 12.1038 34.8742 12.2504 34.8176 12.3871C34.7609 12.5238 34.6779 12.648 34.5732 12.7526C34.4685 12.8572 34.3443 12.9402 34.2075 12.9968C34.0708 13.0533 33.9242 13.0824 33.7762 13.0823Z" fill="#EF4A8A"/>
<path d="M22.4525 38.8637C22.1538 38.8637 21.8673 38.7451 21.656 38.5338C21.4447 38.3225 21.326 38.036 21.326 37.7372C21.326 37.4385 21.4447 37.1519 21.656 36.9407C21.8673 36.7294 22.1538 36.6107 22.4525 36.6107C23.9218 36.6092 25.3305 36.0249 26.3694 34.9859C27.4084 33.947 27.9927 32.5383 27.9943 31.069V27.4275C27.9927 25.9582 27.4084 24.5496 26.3694 23.5106C25.3305 22.4717 23.9218 21.8873 22.4525 21.8858H21.9698C21.671 21.8858 21.3845 21.7671 21.1732 21.5559C20.9619 21.3446 20.8433 21.0581 20.8433 20.7593C20.8433 20.4605 20.9619 20.174 21.1732 19.9628C21.3845 19.7515 21.671 19.6328 21.9698 19.6328H22.4525C24.5191 19.6352 26.5003 20.4572 27.9616 21.9185C29.4229 23.3797 30.2449 25.361 30.2473 27.4275V31.069C30.2449 33.1356 29.4229 35.1168 27.9616 36.5781C26.5003 38.0394 24.5191 38.8614 22.4525 38.8637Z" fill="#EF4A8A"/>
<path d="M29.1296 50.2096H22.6925C20.3672 50.2069 18.1379 49.2819 16.4937 47.6377C14.8495 45.9935 13.9246 43.7643 13.9219 41.439C13.9219 41.1402 14.0406 40.8537 14.2518 40.6424C14.4631 40.4312 14.7496 40.3125 15.0484 40.3125C15.3471 40.3125 15.6337 40.4312 15.8449 40.6424C16.0562 40.8537 16.1749 41.1402 16.1749 41.439C16.1767 43.167 16.864 44.8237 18.0859 46.0456C19.3078 47.2674 20.9645 47.9547 22.6925 47.9566H29.1296C29.4284 47.9566 29.7149 48.0753 29.9262 48.2865C30.1374 48.4978 30.2561 48.7843 30.2561 49.0831C30.2561 49.3819 30.1374 49.6684 29.9262 49.8796C29.7149 50.0909 29.4284 50.2096 29.1296 50.2096Z" fill="#EF4A8A"/>
<path d="M33.233 65.8195C30.5024 65.8164 27.8845 64.7303 25.9536 62.7994C24.0228 60.8686 22.9367 58.2507 22.9336 55.5201C22.9336 55.2213 23.0523 54.9348 23.2635 54.7235C23.4748 54.5122 23.7613 54.3936 24.0601 54.3936C24.3589 54.3936 24.6454 54.5122 24.8566 54.7235C25.0679 54.9348 25.1866 55.2213 25.1866 55.5201C25.189 57.6534 26.0375 59.6986 27.546 61.2071C29.0544 62.7156 31.0997 63.5641 33.233 63.5665C33.5318 63.5665 33.8183 63.6852 34.0296 63.8964C34.2408 64.1077 34.3595 64.3942 34.3595 64.693C34.3595 64.9917 34.2408 65.2783 34.0296 65.4895C33.8183 65.7008 33.5318 65.8195 33.233 65.8195Z" fill="#EF4A8A"/>
<path d="M17.0845 63.4617C17.0283 63.4617 16.9721 63.4576 16.9165 63.4495C15.4229 63.224 14.0797 62.4153 13.1816 61.2009C12.2834 59.9864 11.9035 58.4653 12.1253 56.9712C12.1455 56.8234 12.1949 56.681 12.2705 56.5525C12.3461 56.4239 12.4465 56.3116 12.5659 56.2221C12.6853 56.1327 12.8213 56.0678 12.9659 56.0313C13.1106 55.9948 13.261 55.9874 13.4085 56.0095C13.5561 56.0316 13.6977 56.0829 13.8253 56.1602C13.9529 56.2375 14.0639 56.3394 14.1517 56.4599C14.2396 56.5805 14.3027 56.7173 14.3373 56.8624C14.3719 57.0075 14.3773 57.158 14.3532 57.3053C14.2193 58.2085 14.449 59.1279 14.992 59.862C15.5351 60.5961 16.3471 61.0848 17.2499 61.221C17.5312 61.2628 17.7863 61.4094 17.964 61.6315C18.1417 61.8535 18.2288 62.1346 18.2078 62.4182C18.1869 62.7018 18.0595 62.967 17.8511 63.1606C17.6427 63.3541 17.3689 63.4617 17.0845 63.4617Z" fill="#EF4A8A"/>
<path d="M28.6468 75.3704C26.7694 75.3684 24.9696 74.6217 23.6421 73.2942C22.3146 71.9668 21.568 70.1669 21.5659 68.2896C21.5659 67.9908 21.6846 67.7043 21.8959 67.493C22.1071 67.2818 22.3936 67.1631 22.6924 67.1631C22.9912 67.1631 23.2777 67.2818 23.489 67.493C23.7002 67.7043 23.8189 67.9908 23.8189 68.2896C23.8203 69.5696 24.3294 70.7968 25.2345 71.7019C26.1396 72.607 27.3668 73.1161 28.6468 73.1174C28.9455 73.1174 29.2321 73.2361 29.4433 73.4474C29.6546 73.6586 29.7733 73.9452 29.7733 74.2439C29.7733 74.5427 29.6546 74.8292 29.4433 75.0405C29.2321 75.2517 28.9455 75.3704 28.6468 75.3704Z" fill="#EF4A8A"/>
<path d="M57.4123 61.435C59.2567 61.435 60.7519 59.9398 60.7519 58.0954C60.7519 56.251 59.2567 54.7559 57.4123 54.7559C55.5679 54.7559 54.0728 56.251 54.0728 58.0954C54.0728 59.9398 55.5679 61.435 57.4123 61.435Z" fill="#284CB2"/>
<path d="M61.9586 80.2638C63.8026 80.2638 65.2975 78.7689 65.2975 76.9249C65.2975 75.0808 63.8026 73.5859 61.9586 73.5859C60.1145 73.5859 58.6196 75.0808 58.6196 76.9249C58.6196 78.7689 60.1145 80.2638 61.9586 80.2638Z" fill="#284CB2"/>
<path d="M64.4923 52.423C66.3363 52.423 67.8312 50.9281 67.8312 49.0841C67.8312 47.24 66.3363 45.7451 64.4923 45.7451C62.6482 45.7451 61.1533 47.24 61.1533 49.0841C61.1533 50.9281 62.6482 52.423 64.4923 52.423Z" fill="#284CB2"/>
<path d="M76.8039 52.062C78.6483 52.062 80.1435 50.5668 80.1435 48.7224C80.1435 46.878 78.6483 45.3828 76.8039 45.3828C74.9595 45.3828 73.4644 46.878 73.4644 48.7224C73.4644 50.5668 74.9595 52.062 76.8039 52.062Z" fill="#284CB2"/>
<path d="M73.4649 35.8068C75.309 35.8068 76.8039 34.3119 76.8039 32.4678C76.8039 30.6238 75.309 29.1289 73.4649 29.1289C71.6209 29.1289 70.126 30.6238 70.126 32.4678C70.126 34.3119 71.6209 35.8068 73.4649 35.8068Z" fill="#284CB2"/>
<path d="M73.4649 66.4152C75.309 66.4152 76.8039 64.9203 76.8039 63.0762C76.8039 61.2322 75.309 59.7373 73.4649 59.7373C71.6209 59.7373 70.126 61.2322 70.126 63.0762C70.126 64.9203 71.6209 66.4152 73.4649 66.4152Z" fill="#284CB2"/>
<path d="M76.8039 25.1723C78.6483 25.1723 80.1435 23.6771 80.1435 21.8327C80.1435 19.9883 78.6483 18.4932 76.8039 18.4932C74.9595 18.4932 73.4644 19.9883 73.4644 21.8327C73.4644 23.6771 74.9595 25.1723 76.8039 25.1723Z" fill="#284CB2"/>
<path d="M66.8264 9.88424C68.6708 9.88424 70.166 8.38906 70.166 6.54466C70.166 4.70026 68.6708 3.20508 66.8264 3.20508C64.982 3.20508 63.4868 4.70026 63.4868 6.54466C63.4868 8.38906 64.982 9.88424 66.8264 9.88424Z" fill="#284CB2"/>
<path d="M52.2584 43.3039C54.1024 43.3039 55.5973 41.809 55.5973 39.9649C55.5973 38.1209 54.1024 36.626 52.2584 36.626C50.4143 36.626 48.9194 38.1209 48.9194 39.9649C48.9194 41.809 50.4143 43.3039 52.2584 43.3039Z" fill="#284CB2"/>
</svg>
