<svg width="397" height="397" viewBox="0 0 397 397" fill="none" xmlns="http://www.w3.org/2000/svg">
<circle cx="198.5" cy="198.5" r="198.5" fill="url(#paint0_radial)"/>
<path d="M198.996 366.048C291.522 366.048 366.53 291.041 366.53 198.515C366.53 105.988 291.522 30.9805 198.996 30.9805C106.469 30.9805 31.4619 105.988 31.4619 198.515C31.4619 291.041 106.469 366.048 198.996 366.048Z" stroke="#515151" stroke-width="5.52668" stroke-miterlimit="10"/>
<path d="M200 8C225.082 8 249.919 12.9404 273.093 22.539C296.266 32.1377 317.321 46.2066 335.057 63.9426C352.793 81.6786 366.862 102.734 376.461 125.907C386.06 149.081 391 173.918 391 199L385.604 199C385.604 174.626 380.804 150.491 371.476 127.972C362.149 105.454 348.477 84.9928 331.242 67.7578C314.007 50.5229 293.546 36.8514 271.028 27.5239C248.509 18.1964 224.374 13.3956 200 13.3956L200 8Z" fill="#515151"/>
<path d="M358.902 304.977C344.985 325.844 327.094 343.766 306.251 357.719C285.408 371.672 262.02 381.383 237.424 386.298C212.828 391.212 187.504 391.234 162.9 386.362C138.295 381.49 114.891 371.819 94.0234 357.902L97.0171 353.414C117.295 366.937 140.038 376.335 163.948 381.069C187.857 385.804 212.466 385.783 236.367 381.007C260.268 376.231 282.995 366.794 303.25 353.235C323.504 339.676 340.89 322.261 354.414 301.983L358.902 304.977Z" fill="#515151"/>
<defs>
<radialGradient id="paint0_radial" cx="0" cy="0" r="1" gradientUnits="userSpaceOnUse" gradientTransform="translate(198.5 198.5) rotate(90) scale(198.5)">
<stop stop-color="#CFF9B9"/>
<stop offset="1" stop-color="#CFF9B9" stop-opacity="0"/>
</radialGradient>
</defs>
</svg>
