<svg width="58" height="39" viewBox="0 0 58 39" fill="none" xmlns="http://www.w3.org/2000/svg">
<path d="M47.2429 14.7983L55.3772 21.0878L55.7098 20.5064C51.5185 19.2116 48.9693 15.3349 45.3114 13.133C45.0012 12.9475 44.5761 13.2829 44.8302 13.6096C46.0655 15.1932 47.6114 16.4377 49.2209 17.6205C51.0282 18.9472 52.8522 20.2458 54.6739 21.5515L55.0331 20.9196C53.3776 19.9765 51.7278 19.018 50.0839 18.0443C49.3283 17.5987 48.5755 17.1498 47.8255 16.6974C47.1506 16.2883 46.0742 15.8723 45.7799 15.0748L45.2056 15.5135C47.6835 17.9681 50.5845 20.1252 53.7935 21.5463C54.2167 21.7324 54.4544 21.0945 54.0581 20.8889C50.9658 19.2664 48.1568 17.3886 45.6695 14.9233C45.3856 14.641 44.9859 15.0488 45.0983 15.3605C45.3311 16.0146 45.8352 16.3555 46.4059 16.7052C47.367 17.2945 48.3418 17.8729 49.3051 18.4476C51.1102 19.5164 52.9273 20.5668 54.7563 21.5988C55.117 21.8032 55.4501 21.204 55.1179 20.9676C53.3872 19.7378 51.6589 18.5088 49.9413 17.2626C48.2751 16.0562 46.6542 14.8131 45.373 13.1967L44.8942 13.6741C48.6101 15.8717 51.1743 19.8766 55.4495 21.1266C55.7939 21.2383 56.1066 20.7894 55.782 20.5452C53.0405 18.4887 50.2979 16.4327 47.5543 14.3772C47.4993 14.3494 47.4364 14.3418 47.3764 14.3554C47.3164 14.3691 47.2631 14.4033 47.2256 14.4521C47.1881 14.501 47.1689 14.5613 47.1712 14.6228C47.1735 14.6843 47.1971 14.7431 47.2381 14.789L47.2429 14.7983Z" fill="#7E819E"/>
<path d="M54.086 20.5812C51.7085 22.3563 49.3948 24.2069 47.1449 26.1331C46.8821 26.3565 47.1119 26.8296 47.4549 26.676C50.1133 25.4806 51.9733 23.1391 54.428 21.6282L53.9717 21.1716C51.7999 23.412 49.3612 25.3653 46.9255 27.3093C46.8537 27.3682 46.8074 27.4527 46.7966 27.5451C46.7857 27.6374 46.8109 27.7303 46.8671 27.8044C46.9232 27.8785 47.0059 27.9279 47.0977 27.9424C47.1895 27.9569 47.2833 27.9353 47.3596 27.8821C49.9212 26.0175 52.3946 24.0369 54.7929 21.9702C54.6162 21.8332 54.441 21.6992 54.2635 21.5645C53.9775 22.4465 52.9779 23.0071 52.2777 23.5567C51.5346 24.1404 50.7855 24.711 50.0304 25.2685C48.5646 26.3363 47.0665 27.3636 45.5361 28.3504C45.1652 28.5901 45.5244 29.1001 45.8971 28.9818C46.6514 28.7656 47.335 28.3538 47.8787 27.7881C48.111 27.5394 47.7364 27.2276 47.4887 27.4045C46.9109 27.792 46.2834 28.0997 45.6233 28.3195L45.9843 28.9509C47.7204 27.8268 49.4147 26.6437 51.0674 25.4016C51.865 24.803 52.6555 24.1866 53.4388 23.5526C54.0483 23.061 54.6535 22.6142 54.9072 21.8478C55.0045 21.5476 54.6551 21.2055 54.3778 21.4421C51.9723 23.4911 49.4764 25.4541 46.928 27.3332L47.3621 27.906C49.8336 25.8914 52.2919 23.8776 54.4879 21.5704C54.7602 21.2858 54.321 20.9351 54.0316 21.1139C51.6231 22.6012 49.7928 24.8829 47.2111 26.1032L47.5212 26.646C49.7424 24.6762 52.0316 22.7902 54.3887 20.9879C54.4152 20.968 54.4374 20.943 54.4541 20.9144C54.4709 20.8858 54.4818 20.8543 54.4864 20.8215C54.4909 20.7887 54.4889 20.7553 54.4806 20.7233C54.4722 20.6912 54.4577 20.6612 54.4377 20.6348C54.4177 20.6084 54.3927 20.5861 54.3642 20.5694C54.3356 20.5526 54.304 20.5417 54.2712 20.5371C54.2384 20.5326 54.2051 20.5346 54.173 20.5429C54.141 20.5513 54.1109 20.5658 54.0845 20.5858L54.086 20.5812Z" fill="#7E819E"/>
<path d="M50.3803 21.6986C34.6673 21.3402 18.9756 21.2533 3.30503 21.4377C2.796 21.4445 2.89698 22.1368 3.37345 22.1996C11.4012 23.2332 19.3374 22.4405 27.2395 22.0153C31.3681 21.7646 35.5321 21.7524 39.705 21.979C43.7016 22.2181 47.7292 22.5333 51.6066 21.8527L51.4092 21.0491C43.6943 22.4665 35.6422 21.2741 27.7267 21.2088C19.3269 21.1433 11.0992 22.4173 2.66684 22.0472L2.74338 22.862C17.8632 22.0861 33.0925 22.1048 48.3513 22.9182L48.3971 22.0869C40.2046 21.7444 32.0161 21.4575 23.8318 21.2261C19.7386 21.1064 15.6462 20.9991 11.5548 20.9042C9.92879 20.869 8.19782 20.706 6.61185 21.0309C5.22367 21.3155 3.56769 22.1835 2.15578 21.3472L1.99925 22.0829C10.533 21.6728 19.0749 21.327 27.6251 21.0454C31.807 20.9104 35.9844 20.7911 40.1575 20.6874C44.218 20.5926 48.299 20.5767 52.3633 21.358L52.2891 20.5579C47.8327 21.2119 43.243 21.2963 38.658 20.8085L38.7311 21.5887C43.8854 21.092 49.1559 21.2836 54.3679 22.1574L54.408 21.3582C52.1799 21.3139 49.9641 21.416 47.7792 21.6638C47.2821 21.7218 47.3169 22.4519 47.8526 22.4665C49.8987 22.5206 51.9439 22.5735 53.9884 22.6253C54.5567 22.6406 54.6069 21.864 54.0295 21.8461C51.9849 21.7868 49.9408 21.7258 47.8972 21.663L47.9706 22.4657C50.08 22.2282 52.2178 22.1252 54.3679 22.1574C54.4844 22.1633 54.5957 22.1301 54.6791 22.0644C54.7625 21.9987 54.8118 21.9055 54.8169 21.8038C54.822 21.702 54.7826 21.5994 54.7066 21.5166C54.6307 21.4338 54.5239 21.3772 54.408 21.3582C49.1177 20.4866 43.7705 20.3057 38.5431 20.8215C38.4395 20.8369 38.3485 20.8847 38.2862 20.9564C38.224 21.0282 38.1946 21.1191 38.2034 21.2129C38.2122 21.3068 38.2586 21.3974 38.3343 21.4686C38.4099 21.5399 38.5099 21.587 38.6163 21.6016C43.2799 22.0791 47.9459 21.9942 52.4834 21.3494C52.5907 21.3343 52.6853 21.2855 52.7501 21.2118C52.8149 21.138 52.8456 21.0442 52.8367 20.9473C52.8279 20.8503 52.78 20.7566 52.7017 20.6832C52.6235 20.6097 52.52 20.5612 52.4101 20.5466C48.5631 19.7838 44.6973 19.7558 40.8288 19.8424C36.5118 19.9302 32.2021 20.0623 27.8932 20.203C19.1837 20.4851 10.4853 20.8407 1.79792 21.2697C1.70899 21.2824 1.62814 21.3177 1.56513 21.3715C1.50212 21.4253 1.45963 21.4952 1.44277 21.5729C1.4259 21.6505 1.4354 21.7326 1.4701 21.8092C1.5048 21.8858 1.56324 21.9536 1.63836 22.0045C2.70316 22.6313 3.7897 22.5832 4.921 22.3282C5.65383 22.1644 6.34639 21.9106 7.10458 21.7848C8.06161 21.6572 9.03985 21.623 10.022 21.6829C14.2762 21.7726 18.5325 21.8788 22.7906 22.0015C31.3018 22.2417 39.817 22.5459 48.3361 22.914C48.9408 22.9395 48.9958 22.122 48.3819 22.0827C33.0498 21.2658 17.7472 21.2473 2.55468 22.0271C2.03301 22.0557 2.09767 22.8194 2.63121 22.8419C11.2036 23.2146 19.5617 21.8954 28.1049 22.0095C35.9543 22.1126 43.9636 23.2705 51.6088 21.8449C52.1885 21.7256 52.0002 20.9245 51.415 21.0282C47.3254 21.7424 43.0988 21.3546 38.8943 21.1334C35.0704 20.9587 31.2558 20.9844 27.471 21.2105C19.5007 21.6336 11.5128 22.471 3.41841 21.43L3.48684 22.1919C19.0906 21.9888 34.7128 22.0086 50.3535 22.251C50.7606 22.2578 50.7987 21.7001 50.381 21.6959L50.3803 21.6986Z" fill="#7E819E"/>
</svg>
