<svg width="162" height="81" viewBox="0 0 162 81" fill="none" xmlns="http://www.w3.org/2000/svg">
<path d="M48.1482 20.8651C48.2121 20.8651 48.2759 20.8634 48.3397 20.8584C48.109 22.3789 47.6554 23.8696 46.9894 25.2969C46.7668 25.2409 46.5356 25.2127 46.3032 25.2132H45.6589V21.5881C45.6589 21.3454 45.647 21.1044 45.623 20.8651H48.1482Z" fill="#4A5160"/>
<path d="M16.877 20.8648H19.9726C19.9467 21.1025 19.9347 21.3435 19.9347 21.5878V25.2129H19.2925C18.9485 25.2128 18.6084 25.2744 18.2951 25.3937L17.5113 23.7401C17.0696 22.8061 16.7467 21.8356 16.5479 20.8447C16.6568 20.8582 16.7668 20.8649 16.877 20.8648Z" fill="#4A5160"/>
<path d="M35.1691 2.26074H29.8554C28.1766 2.26019 26.5141 2.53713 24.9629 3.07573C23.4117 3.61433 22.0021 4.40406 20.8146 5.3998C19.6272 6.39554 18.6851 7.5778 18.0422 8.87906C17.3993 10.1803 17.0683 11.5751 17.0679 12.9837V16.8599H47.9566V12.9837C47.9562 11.5751 47.6252 10.1803 46.9823 8.87906C46.3394 7.5778 45.3973 6.39554 44.2099 5.3998C43.0224 4.40406 41.6128 3.61433 40.0616 3.07573C38.5104 2.53713 36.8479 2.26019 35.1691 2.26074Z" fill="#FCCA3D"/>
<path d="M48.1484 16.8604H16.8767C16.2724 16.8602 15.6905 17.0526 15.2486 17.3985C14.8067 17.7444 14.5377 18.2181 14.4959 18.7239C14.4542 19.2298 14.6427 19.7301 15.0235 20.1239C15.4043 20.5176 15.949 20.7754 16.5476 20.8453L48.3399 20.8587C48.9545 20.8175 49.5263 20.5783 49.9353 20.1912C50.3444 19.8041 50.5591 19.2992 50.5343 18.7823C50.5096 18.2654 50.2473 17.7765 49.8025 17.4183C49.3578 17.06 48.765 16.86 48.1484 16.8604Z" fill="#EDB740"/>
<path d="M34.3635 0.642671C33.9972 0.335721 33.5307 0.126735 33.023 0.0421101C32.5152 -0.0425149 31.9889 0.00101647 31.5106 0.167206C31.0323 0.333396 30.6235 0.614789 30.3356 0.975846C30.0478 1.3369 29.894 1.76143 29.8936 2.1958L29.8975 11.5933H35.1274L35.1314 2.1958C35.1317 1.90723 35.064 1.62146 34.9322 1.35492C34.8005 1.08838 34.6072 0.846323 34.3635 0.642671Z" fill="#FADF4A"/>
<path d="M35.1269 10.7578C36.0523 11.2833 36.722 12.0701 37.0143 12.975C37.3067 13.8799 37.2022 14.8428 36.7199 15.6886C36.2376 16.5343 35.4095 17.2067 34.3863 17.5834C33.3631 17.9601 32.2127 18.0161 31.1445 17.7412C30.0762 17.4664 29.161 16.8789 28.5653 16.0857C27.9696 15.2924 27.7331 14.3462 27.8987 13.4189C28.0643 12.4917 28.6211 11.6452 29.4677 11.0334C30.3144 10.4215 31.3946 10.085 32.512 10.085C33.4443 10.0846 34.3552 10.319 35.1269 10.7578Z" fill="#FB6771"/>
<path d="M53.3981 47.6069C53.1408 47.555 52.9044 47.5015 52.6491 47.4446L52.6581 47.4747L48.3377 46.3032L48.3577 46.2597C46.6445 45.6886 44.9749 45.0296 43.3582 44.2864L40.2914 42.8906L24.7334 43.2615L20.9934 44.8242C19.598 45.4115 18.1612 45.9267 16.691 46.3671L12.3667 47.4456C12.1672 47.5025 11.861 47.5555 11.6017 47.6074C8.292 48.279 5.34788 49.8656 3.24339 52.1118C1.13889 54.3579 -0.00354699 57.133 8.27296e-06 59.9901V80.0001H65.0248V59.9901C65.0231 57.1309 63.8757 54.3553 61.7669 52.1093C59.6582 49.8633 56.7106 48.2776 53.3981 47.6069Z" fill="#4689D3"/>
<path d="M52.6184 47.4447L52.6084 47.4748V60.6497H48.3379V46.3033L48.3578 46.2598C49.7482 46.7265 51.171 47.1222 52.6184 47.4447Z" fill="#56568C"/>
<path d="M52.6082 60.585H12.4166C12.1955 60.5972 11.9874 60.6768 11.8313 60.8087C11.6753 60.9406 11.5819 61.1157 11.5688 61.3013V79.9991H53.456V61.3013C53.4429 61.1157 53.3496 60.9406 53.1935 60.8087C53.0374 60.6768 52.8293 60.5972 52.6082 60.585Z" fill="#67679B"/>
<path d="M24.7334 43.2617L20.9934 44.8244C19.598 45.4117 18.1612 45.9269 16.691 46.3673L12.3667 47.4458C12.1672 47.5027 11.861 47.5558 11.6017 47.6076C8.292 48.2792 5.34788 49.8658 3.24339 52.112C1.13889 54.3582 -0.00354699 57.1332 8.27296e-06 59.9904V80.0003H5.98388V59.9904C5.98033 57.1332 7.12276 54.3582 9.22726 52.112C11.3318 49.8658 14.2759 48.2792 17.5856 47.6076C17.8449 47.5558 18.1511 47.5027 18.3506 47.4458L22.6749 46.3673C24.1451 45.9269 25.5819 45.4117 26.9773 44.8244L30.7172 43.2617H24.7334Z" fill="#407CB2"/>
<path d="M16.687 60.5995V60.6497H12.4165V47.4447C13.8466 47.1385 15.2588 46.782 16.6431 46.3652L16.687 46.4657V60.5995Z" fill="#56568C"/>
<path d="M24.7334 40.502V47.086C25.6839 48.0426 26.8734 48.8122 28.2177 49.3403C29.562 49.8684 31.0281 50.1421 32.5124 50.1421C33.9967 50.1421 35.4629 49.8684 36.8072 49.3403C38.1514 48.8122 39.3409 48.0426 40.2915 47.086V40.9672L40.3224 40.9438L24.7334 40.502Z" fill="#EFC597"/>
<path d="M24.6779 40.5548C22.6828 39.0134 21.3688 36.9504 20.95 34.7021L19.9347 29.2662H19.2924C18.6521 29.2662 18.0379 29.0527 17.5851 28.6728C17.1323 28.2929 16.8779 27.7776 16.8779 27.2402C16.8779 26.7029 17.1323 26.1876 17.5851 25.8077C18.0379 25.4278 18.6521 25.2143 19.2924 25.2143H19.9347V21.5892C19.9347 21.3449 19.9467 21.1039 19.9726 20.8662H45.6235C45.6474 21.1055 45.6594 21.3465 45.6594 21.5892V25.2143H46.3036C46.536 25.2138 46.7672 25.242 46.9898 25.298C47.546 25.4365 48.0242 25.7384 48.3369 26.1484C48.6496 26.5585 48.7758 27.0494 48.6925 27.5311C48.6092 28.0129 48.3219 28.4534 47.8832 28.772C47.4446 29.0906 46.8838 29.2661 46.3036 29.2662H45.6594L44.6441 34.7021C44.1863 37.158 42.6625 39.385 40.3656 40.9548C39.7674 41.3649 39.1227 41.7248 38.4408 42.0293C36.2476 43.0108 33.745 43.3961 31.2794 43.132C28.8137 42.8678 26.5069 41.9673 24.6779 40.5548Z" fill="#FFD8B7"/>
<path d="M30.6618 40.5548C28.6667 39.0134 27.3527 36.9504 26.9338 34.7021L25.9186 21.5892C25.9186 21.3449 25.9305 21.1039 25.9565 20.8662H19.9726C19.9467 21.1039 19.9347 21.3449 19.9347 21.5892V25.2143H19.2924C18.6521 25.2143 18.0379 25.4278 17.5851 25.8077C17.1323 26.1876 16.8779 26.7029 16.8779 27.2402C16.8779 27.7776 17.1323 28.2929 17.5851 28.6728C18.0379 29.0527 18.6521 29.2662 19.2924 29.2662H19.9347L20.95 34.7021C21.2062 36.0898 21.8062 37.417 22.7112 38.5983C23.6161 39.7795 24.806 40.7885 26.2042 41.5602C27.6024 42.3319 29.1777 42.8493 30.8287 43.0789C32.4798 43.3086 34.1698 43.2454 35.79 42.8934C33.8767 42.4811 32.1149 41.6777 30.6618 40.5548Z" fill="#E2BDA1"/>
<path d="M4.38818 75.8458C4.07078 75.8458 3.76637 75.74 3.54193 75.5517C3.3175 75.3634 3.19141 75.108 3.19141 74.8417V66.347C3.19141 66.0806 3.3175 65.8252 3.54193 65.6369C3.76637 65.4486 4.07078 65.3428 4.38818 65.3428C4.70559 65.3428 5.00999 65.4486 5.23443 65.6369C5.45887 65.8252 5.58496 66.0806 5.58496 66.347V74.8417C5.58496 75.108 5.45887 75.3634 5.23443 75.5517C5.00999 75.74 4.70559 75.8458 4.38818 75.8458Z" fill="#F4F8FC"/>
<path d="M4.38965 64.2232C4.07224 64.2232 3.76784 64.1174 3.5434 63.9291C3.31896 63.7408 3.19287 63.4854 3.19287 63.219V62.4016C3.19287 62.1353 3.31896 61.8799 3.5434 61.6916C3.76784 61.5033 4.07224 61.3975 4.38965 61.3975C4.70705 61.3975 5.01145 61.5033 5.23589 61.6916C5.46033 61.8799 5.58642 62.1353 5.58642 62.4016V63.219C5.58642 63.4854 5.46033 63.7408 5.23589 63.9291C5.01145 64.1174 4.70705 64.2232 4.38965 64.2232Z" fill="#F4F8FC"/>
<g clip-path="url(#clip0)">
<path d="M109.538 26.4256C109.798 29.42 108.345 31.9939 106.294 32.1725C104.238 32.3526 102.36 30.0706 102.097 27.0762C101.836 24.0818 103.289 21.5095 105.343 21.3293C107.396 21.1491 109.275 23.4312 109.538 26.4256Z" fill="#F8B64C"/>
<path d="M140.409 27.0772C140.147 30.0716 138.269 32.3536 136.215 32.1734C134.16 31.9933 132.705 29.421 132.969 26.4266C133.231 23.4322 135.107 21.1501 137.164 21.3303C139.216 21.5087 140.669 24.0828 140.409 27.0772Z" fill="#F8B64C"/>
<path d="M161.266 63.6014V80.0844H81.1943V63.6014C81.1943 60.4168 83.1461 57.5477 86.1155 56.3966L94.6231 53.0436L100.996 50.5414L106.332 48.4378L109.385 47.2384L109.42 47.2552H109.437C109.487 47.3202 109.537 47.3886 109.588 47.4536H109.605V47.4704C109.92 47.9058 110.256 48.3044 110.589 48.6882C113.442 51.8077 117.327 53.3606 121.232 53.3606C125.154 53.3606 129.089 51.7925 131.923 48.6564C132.259 48.2728 132.591 47.8875 132.891 47.4536C132.891 47.4536 132.909 47.4536 132.909 47.4369C132.959 47.3886 132.993 47.3201 133.043 47.255H133.059L133.078 47.2383L136.164 48.4544L141.483 50.5395L147.856 53.0418L156.364 56.3948C159.314 57.5644 161.266 60.417 161.266 63.6014Z" fill="#40596B"/>
<path d="M145.908 67.3922C145.908 67.3922 143.758 72.9955 138.22 80.0853H125.11C125.358 79.4515 125.627 78.8009 125.892 78.1669C126.478 76.7656 127.11 75.3811 127.796 74.1132C127.796 74.1132 131.566 66.4063 132.867 57.5651C133.1 56.0788 133.249 54.5607 133.301 53.0261C133.384 51.1594 133.301 49.256 133 47.4378C132.85 46.4702 132.633 45.5193 132.35 44.6035C132.35 44.6035 145.228 60.3493 145.91 63.3353C145.91 63.3353 139.706 65.6206 137.286 64.6032C137.284 64.6047 139.187 67.524 145.908 67.3922Z" fill="#334A5E"/>
<path d="M117.569 80.0857H104.457C98.9351 72.9961 96.7832 67.3926 96.7832 67.3926C103.489 67.5244 105.391 64.6051 105.391 64.6051C102.989 65.6227 96.7832 63.3372 96.7832 63.3372C97.4505 60.3513 110.329 44.6055 110.329 44.6055C110.043 45.5396 109.828 46.4889 109.678 47.4563C109.376 49.2747 109.294 51.1613 109.376 53.028C109.426 54.5627 109.576 56.0807 109.811 57.5671C111.111 66.4083 114.881 74.1152 114.881 74.1152C115.582 75.4146 116.234 76.8176 116.816 78.2522C117.085 78.8662 117.318 79.4684 117.569 80.0857Z" fill="#334A5E"/>
<path d="M133.208 53.025C133.158 54.5596 133.008 56.0777 132.774 57.564C131.473 66.4052 127.703 74.1121 127.703 74.1121C127.019 75.38 126.385 76.7645 125.799 78.1658C125.734 78.3492 125.649 78.5178 125.584 78.6995C125.382 79.1649 125.201 79.6354 125.017 80.084H117.477C117.277 79.5819 117.095 79.0999 116.876 78.6145C116.828 78.4994 116.776 78.366 116.726 78.2491C116.142 76.8146 115.492 75.4116 114.791 74.1121C114.791 74.1121 111.021 66.4052 109.722 57.564C109.487 56.0777 109.338 54.5596 109.286 53.025C109.203 51.1583 109.286 49.2716 109.588 47.4533H109.605V47.47C109.92 47.9054 110.256 48.304 110.589 48.6878C113.442 51.8073 117.327 53.3603 121.232 53.3603C125.154 53.3603 129.089 51.7921 131.923 48.6561C132.259 48.2724 132.591 47.8871 132.891 47.4533C132.891 47.4533 132.909 47.4533 132.909 47.4365C133.208 49.2549 133.29 51.1583 133.208 53.025Z" fill="#CDD6E0"/>
<path d="M123.632 65.2541L125.584 78.7012C125.382 79.1666 125.2 79.637 125.017 80.0857H117.477C117.276 79.5835 117.095 79.1015 116.876 78.6161L118.795 65.2541L117.645 64.32C117.512 63.4025 117.543 62.5016 117.477 61.7026C117.427 61.0671 117.293 60.4999 116.926 60.0512C116.359 59.3338 115.909 58.8834 115.909 58.8834L117.493 58.4313L119.212 57.8325L121.212 57.1318L123.28 57.8492L124.965 58.433L126.552 58.8851C126.552 58.8851 126.099 59.3373 125.534 60.0529C125.184 60.5033 125.033 61.0538 124.983 61.6526C124.883 62.4701 124.933 63.3892 124.783 64.3233L123.632 65.2541Z" fill="#54C0EB"/>
<path d="M109.412 48.9051V48.9018L109.417 48.9051L109.419 48.9018V48.9051C112.382 52.8319 116.814 57.1325 121.242 57.1325C125.67 57.1325 130.101 52.8336 133.065 48.9084L133.072 48.9017V48.9049V40.2422H109.406V48.9082L109.412 48.9051Z" fill="#F8B64C"/>
<path d="M138.519 17.1757V22.8475C138.519 22.9476 138.519 23.0644 138.501 23.1645C138.519 23.2479 138.501 23.3147 138.501 23.398C138.501 23.4981 138.501 23.6149 138.484 23.715C138.466 24.6326 138.4 25.5334 138.284 26.4342C138.284 26.4509 138.284 26.4842 138.267 26.501C138.217 26.9514 138.15 27.385 138.083 27.8354C137.818 29.32 137.483 30.7881 137.033 32.2061C135.615 36.7268 133.231 40.8971 130.01 44.417L128.358 46.2186C126.858 47.8701 124.722 48.8027 122.485 48.8027H119.982C117.765 48.8027 115.63 47.8535 114.127 46.2186L112.494 44.417C110.209 41.9315 108.34 39.0955 106.957 36.0763C105.754 33.4907 104.905 30.7548 104.437 27.9172C104.353 27.4668 104.303 27.0164 104.236 26.566C104.236 26.516 104.22 26.4827 104.22 26.4326C104.103 25.5485 104.038 24.631 104.02 23.7302V23.5467C104.02 23.53 104.003 23.53 104.003 23.5134C103.985 23.3966 103.985 23.2799 103.985 23.1631V22.8461C103.968 22.7127 103.968 22.5959 103.968 22.4625V17.2746C103.968 16.3237 104.053 15.3896 104.218 14.4721V14.422C104.32 13.7714 104.453 13.1542 104.635 12.537C104.835 11.8197 105.085 11.1191 105.384 10.4519C108.02 4.31264 114.125 0.00878906 121.25 0.00878906C128.34 0.00878906 134.445 4.29591 137.079 10.4181C137.381 11.102 137.63 11.8026 137.848 12.5367C138.03 13.154 138.18 13.7711 138.282 14.4217V14.4717C138.434 15.3591 138.519 16.2599 138.519 17.1757Z" fill="#FFD15C"/>
<g opacity="0.1">
<g opacity="0.1">
<path opacity="0.1" d="M130.02 44.4148L128.368 46.2164C126.868 47.8679 124.732 48.802 122.496 48.802H119.994C118.916 48.802 117.86 48.5685 116.883 48.1497L126.485 55.3444C129.03 53.6429 130.914 51.7062 132.999 48.9837C133.024 48.952 133.042 48.9287 133.066 48.8969L133.072 40.4326C132.148 41.8242 131.156 43.1721 130.02 44.4148Z" fill="#40596B"/>
</g>
</g>
<path d="M126.552 58.8834C126.552 58.8834 126.1 59.3355 125.534 60.0512C125.184 60.5016 125.034 61.0521 124.984 61.6509C123.465 60.635 122.114 59.7174 121.265 59.1486C120.413 59.7174 119.011 60.65 117.477 61.7026C117.427 61.0671 117.293 60.4999 116.926 60.0512C116.359 59.3338 115.909 58.8834 115.909 58.8834L117.493 58.4313L119.212 57.8325L121.212 57.1318L123.28 57.8492L124.965 58.433L126.552 58.8834Z" fill="#54C0EB"/>
<path d="M121.242 57.132C116.818 57.132 112.394 52.8415 109.431 48.918C108.597 55.8775 111.116 63.9647 111.116 63.9647C111.116 63.9647 120.659 57.5207 121.283 57.1319H121.28C121.267 57.132 121.255 57.132 121.242 57.132Z" fill="#F2F2F2"/>
<path d="M133.072 48.6875V48.906V48.8993L133.066 48.9093C130.103 52.8328 125.671 57.1349 121.242 57.1333C121.867 57.5204 131.411 63.9662 131.411 63.9662C131.411 63.9662 133.991 55.6988 133.072 48.6875Z" fill="#F2F2F2"/>
<path d="M138.519 21.8429C138.519 21.8429 135.062 22.2816 134.573 17.529C134.573 17.529 136.07 12.0959 132.054 10.7562C132.054 10.7562 125.362 20.1196 114.292 20.1196C111.304 20.1196 106.125 17.0902 103.979 22.7553C103.979 22.7553 103.064 21.8595 103.127 19.9861C103.127 19.9861 101.654 13.9239 102.066 12.7413C103.492 8.65264 105.816 3.25452 117.603 0.365214C117.603 0.365214 135.776 -2.60745 137.666 8.40914C137.666 8.40914 141.036 8.55755 139.858 15.9191C139.861 15.9191 140.791 19.5992 138.519 21.8429Z" fill="#454545"/>
</g>
<defs>
<clipPath id="clip0">
<rect width="80.085" height="80.085" fill="white" transform="translate(81.1875)"/>
</clipPath>
</defs>
</svg>
