<svg width="397" height="397" viewBox="0 0 397 397" fill="none" xmlns="http://www.w3.org/2000/svg">
<circle cx="198.5" cy="198.5" r="198.5" fill="url(#paint0_radial)"/>
<path d="M198.996 366.048C291.522 366.048 366.53 291.041 366.53 198.514C366.53 105.988 291.522 30.9803 198.996 30.9803C106.469 30.9803 31.4619 105.988 31.4619 198.514C31.4619 291.041 106.469 366.048 198.996 366.048Z" stroke="#515151" stroke-width="5.52668" stroke-miterlimit="10"/>
<path d="M377.646 138.709C368.36 111.063 352.796 85.9438 332.174 65.3219C311.552 44.6999 286.433 29.1356 258.787 19.8496" stroke="#545454" stroke-width="4.60557" stroke-miterlimit="10"/>
<path d="M199 8C224.082 8 248.919 12.9404 272.093 22.539C295.266 32.1377 316.321 46.2066 334.057 63.9426C351.793 81.6786 365.862 102.734 375.461 125.907C385.06 149.081 390 173.918 390 199L384.604 199C384.604 174.626 379.804 150.491 370.476 127.972C361.149 105.454 347.477 84.9928 330.242 67.7578C313.007 50.5229 292.546 36.8514 270.028 27.5239C247.509 18.1964 223.374 13.3956 199 13.3956L199 8Z" fill="#515151"/>
<defs>
<radialGradient id="paint0_radial" cx="0" cy="0" r="1" gradientUnits="userSpaceOnUse" gradientTransform="translate(198.5 198.5) rotate(90) scale(198.5)">
<stop stop-color="#F6CFFA"/>
<stop offset="1" stop-color="#F6CFFA" stop-opacity="0"/>
</radialGradient>
</defs>
</svg>
