<svg width="41" height="57" viewBox="0 0 41 57" fill="none" xmlns="http://www.w3.org/2000/svg">
<path d="M24.6228 47.1724L17.984 55.0243L18.5503 55.3819C20.0269 51.2511 24.0112 48.8738 26.3709 45.3155C26.5697 45.0137 26.2532 44.5744 25.9157 44.814C24.2797 45.9789 22.9689 47.4689 21.7168 49.0253C20.3125 50.7728 18.9354 52.5384 17.5514 54.3014L18.167 54.6878C19.1816 53.0751 20.2111 51.4688 21.2557 49.8689C21.7339 49.1335 22.2153 48.401 22.7 47.6715C23.1383 47.0151 23.6008 45.9579 24.4104 45.6987L23.9972 45.1058C21.4368 47.4741 19.155 50.2781 17.595 53.422C17.3906 53.8366 18.0175 54.102 18.2402 53.7151C19.9963 50.6966 21.995 47.9723 24.5666 45.5951C24.8611 45.3238 24.4711 44.9067 24.1548 45.0053C23.4911 45.2093 23.1285 45.6981 22.7543 46.253C22.1235 47.1873 21.503 48.136 20.8869 49.0732C19.7402 50.8299 18.6114 52.5994 17.5005 54.3816C17.2806 54.733 17.8647 55.092 18.1153 54.7704C19.4195 53.0951 20.7229 51.4222 22.0429 49.7606C23.3209 48.1487 24.6337 46.5837 26.3045 45.3743L25.8485 44.8751C23.4907 48.4915 19.3775 50.8782 17.942 55.0948C17.8154 55.434 18.2502 55.766 18.5083 55.4524C20.6826 52.8033 22.8565 50.1531 25.0299 47.5019C25.06 47.4482 25.0704 47.3857 25.0594 47.3252C25.0483 47.2646 25.0165 47.2099 24.9693 47.1703C24.9222 47.1307 24.8627 47.1088 24.8012 47.1084C24.7396 47.108 24.6799 47.1291 24.6322 47.1681L24.6228 47.1724Z" fill="#7E819E"/>
<path d="M18.5463 53.7559C16.8768 51.3031 15.129 48.9107 13.3029 46.5788C13.0912 46.3065 12.6085 46.5154 12.747 46.8648C13.8251 49.5729 16.0831 51.5334 17.4854 54.0518L17.9614 53.6159C15.818 51.3483 13.9731 48.8266 12.1374 46.3083C12.0817 46.2339 11.9992 46.184 11.9075 46.1691C11.8157 46.1542 11.7218 46.1754 11.6453 46.2283C11.5689 46.2811 11.5158 46.3615 11.4974 46.4526C11.4789 46.5437 11.4964 46.6384 11.5462 46.7169C13.2971 49.3576 15.1678 51.915 17.1277 54.4014C17.2723 54.2308 17.4138 54.0616 17.5561 53.8902C16.6875 53.566 16.1711 52.5429 15.6527 51.8192C15.1019 51.0514 14.5646 50.2781 14.0406 49.4993C13.0379 47.9883 12.077 46.4467 11.158 44.8747C10.9347 44.4936 10.4095 44.8303 10.5114 45.2078C10.6944 45.9708 11.076 46.6717 11.6174 47.2396C11.8557 47.4826 12.1836 47.1219 12.0177 46.8668C11.6558 46.2725 11.3758 45.6322 11.1851 44.9631L10.5385 45.2962C11.5857 47.0798 12.6936 48.8242 13.8623 50.5295C14.4255 51.3525 15.0068 52.1692 15.606 52.9795C16.0705 53.6099 16.4904 54.234 17.245 54.5209C17.5406 54.6312 17.8977 54.2971 17.6734 54.0097C15.7315 51.5171 13.8794 48.9378 12.1134 46.3097L11.5222 46.7183C13.4269 49.2755 15.3314 51.8194 17.5404 54.1141C17.8129 54.3986 18.1824 53.9752 18.0165 53.6782C16.6358 51.207 14.4362 49.2788 13.3299 46.6463L12.774 46.9323C14.6449 49.2375 16.4291 51.6069 18.1267 54.0405C18.1455 54.0678 18.1695 54.0911 18.1973 54.109C18.2251 54.127 18.2562 54.1393 18.2887 54.1453C18.3213 54.1513 18.3547 54.1508 18.3871 54.1438C18.4195 54.1369 18.4502 54.1237 18.4774 54.1048C18.5047 54.086 18.5279 54.0621 18.5459 54.0343C18.5639 54.0065 18.5762 53.9754 18.5822 53.9428C18.5882 53.9103 18.5877 53.8768 18.5807 53.8445C18.5738 53.8121 18.5605 53.7814 18.5417 53.7541L18.5463 53.7559Z" fill="#7E819E"/>
<path d="M17.5926 50.0056C18.637 34.3233 19.4093 18.6503 19.9097 2.98668C19.9251 2.47783 19.2291 2.54848 19.1455 3.02175C17.7622 10.9967 18.2075 18.9599 18.2871 26.8731C18.3572 31.0087 18.1874 35.1692 17.7787 39.3282C17.3653 43.3106 16.8744 47.3206 17.3849 51.224L18.1964 51.0619C17.1175 43.2925 18.6604 35.3002 19.0715 27.395C19.5039 19.0062 18.5905 10.7306 19.3287 2.32247L18.5112 2.36334C18.6259 17.5026 17.9419 32.7166 16.4627 47.9252L17.2912 48.0074C17.9913 39.8376 18.6356 31.6695 19.2243 23.5031C19.5228 19.419 19.8088 15.3353 20.0823 11.2519C20.1884 9.62896 20.4269 7.90676 20.1716 6.30811C19.948 4.90882 19.153 3.21651 20.0503 1.84247L19.3222 1.65396C19.359 10.1975 19.3314 18.7464 19.2392 27.3007C19.1914 31.4844 19.1281 35.6631 19.0493 39.8368C18.9667 43.8975 18.8043 47.9753 17.8462 52.0016L18.6488 51.9625C18.19 47.4817 18.3062 42.8927 18.9938 38.3334L18.2112 38.3724C18.4823 43.5434 18.0606 48.8005 16.96 53.9693L17.7566 54.0443C17.8983 51.8203 17.893 49.6022 17.7409 47.4085C17.7047 46.9093 16.9738 46.9122 16.9357 47.4468C16.7923 49.4885 16.6501 51.5295 16.5091 53.5698C16.4689 54.1369 17.2426 54.2209 17.2857 53.6449C17.4343 51.6049 17.5845 49.5654 17.7365 47.5265L16.9314 47.5647C17.0765 49.6825 17.0861 51.8228 16.96 53.9693C16.949 54.0855 16.9773 54.1981 17.0393 54.2843C17.1013 54.3705 17.1922 54.4238 17.2936 54.4334C17.395 54.4429 17.4993 54.408 17.5853 54.3357C17.6713 54.2635 17.7326 54.1593 17.7566 54.0443C18.8585 48.7971 19.2728 43.463 18.9859 38.2181C18.9751 38.1139 18.9312 38.0208 18.8623 37.9555C18.7934 37.8902 18.7038 37.8569 18.6097 37.8616C18.5155 37.8663 18.4229 37.9087 18.3485 37.9811C18.274 38.0536 18.2226 38.1514 18.2033 38.2571C17.5226 42.8953 17.4035 47.5606 17.8496 52.122C17.8599 52.2298 17.9045 52.3264 17.9754 52.3944C18.0462 52.4623 18.1386 52.4971 18.2358 52.4925C18.3331 52.4879 18.4288 52.4442 18.5056 52.3692C18.5824 52.2942 18.6353 52.193 18.6547 52.0838C19.5848 48.2738 19.7818 44.4129 19.8643 40.5444C19.9651 36.2276 20.0214 31.9163 20.069 27.6053C20.1677 18.8918 20.1924 10.1861 20.1433 1.48834C20.1346 1.39894 20.1028 1.31663 20.0518 1.25133C20.0008 1.18603 19.9328 1.14052 19.8559 1.12028C19.7791 1.10005 19.6967 1.10595 19.6187 1.13727C19.5407 1.1686 19.4703 1.22401 19.4162 1.29684C18.7435 2.33324 18.744 3.42085 18.9494 4.5622C19.081 5.30149 19.3044 6.00447 19.3969 6.76743C19.4825 7.72913 19.474 8.70792 19.3713 9.68649C19.0958 13.9328 18.8037 18.1803 18.4951 22.429C17.8834 30.9216 17.2075 39.4154 16.4676 47.9103C16.4157 48.5133 17.23 48.604 17.2961 47.9924C18.7819 32.7106 19.469 17.4234 19.3536 2.21129C19.3478 1.68888 18.582 1.72011 18.5362 2.25216C17.7894 10.8 18.7422 19.2078 18.255 27.7379C17.8091 35.5753 16.3024 43.5264 17.3927 51.2266C17.4866 51.811 18.2951 51.6578 18.217 51.0686C17.6822 46.9517 18.2543 42.7461 18.6589 38.5553C19.0006 34.7426 19.1415 30.9306 19.0809 27.1395C19.0065 19.1583 18.5188 11.1415 19.9124 3.10029L19.1482 3.13537C18.6694 18.7331 17.9673 34.3396 17.0418 49.9547C17.0172 50.3611 17.5727 50.4235 17.5951 50.0065L17.5926 50.0056Z" fill="#7E819E"/>
</svg>
