<svg width="40" height="57" viewBox="0 0 40 57" fill="none" xmlns="http://www.w3.org/2000/svg">
<path d="M24.3482 47.1128L17.8996 55.1216L18.4744 55.4656C19.8515 51.3006 23.7776 48.8283 26.0512 45.2145C26.2427 44.908 25.9158 44.4764 25.5841 44.724C23.9766 45.9279 22.7018 47.4489 21.4875 49.0348C20.1255 50.8156 18.7911 52.6137 17.4498 54.4093L18.0745 54.7809C19.0501 53.1443 20.0409 51.5137 21.0467 49.8893C21.5072 49.1426 21.9709 48.3988 22.4379 47.6579C22.8603 46.9912 23.2973 45.9232 24.1005 45.6446L23.6732 45.0618C21.1703 47.4908 18.9565 50.3488 17.4723 53.5292C17.278 53.9486 17.911 54.1988 18.1244 53.8067C19.8075 50.7469 21.7403 47.9755 24.2541 45.5373C24.5421 45.259 24.1421 44.8513 23.8283 44.9576C23.1698 45.1774 22.819 45.6747 22.4582 46.2384C21.85 47.1877 21.2524 48.1509 20.6589 49.1027C19.5548 50.8864 18.4688 52.6824 17.4009 54.4908C17.1895 54.8473 17.782 55.1922 18.0248 54.8647C19.2885 53.1586 20.5514 51.4549 21.8312 49.7622C23.0701 48.12 24.3449 46.524 25.9863 45.2749L25.5184 44.7867C23.248 48.4586 19.1933 50.9433 17.8594 55.1931C17.7409 55.5353 18.1836 55.8568 18.4341 55.5371C20.5442 52.8365 22.6539 50.135 24.763 47.4324C24.7919 47.378 24.8008 47.3153 24.7883 47.255C24.7758 47.1948 24.7426 47.1408 24.6946 47.1023C24.6465 47.0639 24.5865 47.0435 24.525 47.0446C24.4635 47.0456 24.4042 47.0681 24.3575 47.1082L24.3482 47.1128Z" fill="#7E819E"/>
<path d="M18.4316 53.8405C16.7037 51.4284 14.899 49.0787 13.0175 46.7913C12.7993 46.5242 12.3218 46.7446 12.4686 47.0905C13.6114 49.772 15.9158 51.6778 17.3781 54.1618L17.8435 53.7145C15.6463 51.499 13.7415 49.0223 11.8459 46.5488C11.7884 46.4758 11.7048 46.4279 11.6127 46.4152C11.5206 46.4025 11.4272 46.4259 11.352 46.4806C11.2768 46.5353 11.2258 46.6169 11.2095 46.7084C11.1932 46.7999 11.213 46.8942 11.2647 46.9714C13.0784 49.5694 15.0099 52.0812 17.0289 54.5198C17.1694 54.3458 17.3068 54.1733 17.4449 53.9985C16.5688 53.6952 16.028 52.6848 15.4923 51.9738C14.9234 51.2194 14.3676 50.4592 13.8251 49.6932C12.7864 48.2067 11.7888 46.6887 10.8324 45.1391C10.6 44.7635 10.083 45.1127 10.194 45.4876C10.3952 46.246 10.7935 46.9376 11.3484 47.4923C11.5925 47.7295 11.9116 47.3611 11.7396 47.11C11.3636 46.5246 11.0682 45.8912 10.8616 45.2269L10.2232 45.5754C11.3128 47.3333 12.4623 49.0506 13.6716 50.7274C14.2544 51.5366 14.855 52.3391 15.4735 53.1349C15.953 53.7539 16.3877 54.3678 17.149 54.6365C17.4472 54.7397 17.7962 54.3971 17.565 54.1152C15.5639 51.6698 13.6504 49.1358 11.8219 46.5508L11.2407 46.9735C13.2062 49.4842 15.1712 51.9817 17.4346 54.2228C17.7138 54.5006 18.0731 54.0684 17.9001 53.7755C16.4605 51.3382 14.2153 49.4633 13.0461 46.8581L12.4973 47.1574C14.4229 49.417 16.2635 51.7429 18.019 54.1351C18.0384 54.1619 18.063 54.1846 18.0912 54.2019C18.1194 54.2192 18.1508 54.2308 18.1835 54.236C18.2162 54.2412 18.2496 54.2399 18.2818 54.2322C18.3139 54.2244 18.3443 54.2105 18.3711 54.191C18.3979 54.1716 18.4206 54.147 18.4379 54.1188C18.4552 54.0906 18.4668 54.0592 18.472 54.0265C18.4772 53.9938 18.4759 53.9604 18.4681 53.9282C18.4604 53.896 18.4464 53.8657 18.427 53.8389L18.4316 53.8405Z" fill="#7E819E"/>
<path d="M17.3877 50.1133C18.0556 34.4104 18.4517 18.7234 18.5761 3.05226C18.5793 2.54319 17.8852 2.63052 17.813 3.10565C16.6214 11.1115 17.2576 19.0617 17.527 26.9707C17.6964 31.1035 17.6264 35.2669 17.3177 39.4345C16.9999 43.4256 16.6053 47.4463 17.2094 51.3363L18.0168 51.1547C16.7517 43.4134 18.1025 35.3864 18.3237 27.4737C18.5548 19.0769 17.4431 10.8256 17.9793 2.40218L17.1631 2.46265C17.641 17.5948 17.3222 32.8208 16.2083 48.0606L17.0385 48.1228C17.5424 39.9386 17.9906 31.7574 18.3832 23.5792C18.5836 19.4891 18.7715 15.3997 18.9469 11.3109C19.0142 9.68594 19.2112 7.95851 18.9176 6.36645C18.6605 4.97293 17.8252 3.30018 18.6892 1.90501L17.9568 1.73402C18.1986 10.2742 18.3761 18.8213 18.4892 27.3753C18.5417 31.559 18.5787 35.7381 18.6001 39.9124C18.6149 43.974 18.5504 48.0544 17.6892 52.1025L18.4906 52.0442C17.9244 47.5757 17.9305 42.9853 18.5085 38.4107L17.7271 38.4685C18.1222 43.6316 17.8267 48.8973 16.8504 54.091L17.6486 54.1469C17.7369 51.92 17.6784 49.7027 17.4737 47.5134C17.4255 47.0152 16.6949 47.0356 16.6697 47.5709C16.5753 49.6155 16.4821 51.6593 16.3901 53.7024C16.3635 54.2703 17.139 54.3358 17.1683 53.7589C17.2678 51.7158 17.3692 49.6733 17.4722 47.6314L16.6682 47.6889C16.8641 49.8026 16.925 51.942 16.8504 54.091C16.8422 54.2074 16.8733 54.3193 16.9373 54.404C17.0013 54.4887 17.0935 54.5398 17.1951 54.5469C17.2967 54.554 17.4002 54.5166 17.4844 54.4423C17.5686 54.368 17.6274 54.2624 17.6486 54.1469C18.6243 48.8747 18.9105 43.5322 18.4979 38.2957C18.4845 38.1918 18.4385 38.0998 18.368 38.0361C18.2975 37.9725 18.2072 37.9414 18.1132 37.9483C18.0192 37.9553 17.9276 37.9999 17.855 38.0741C17.7823 38.1483 17.7332 38.2473 17.7165 38.3534C17.1472 43.0067 17.1401 47.6735 17.6954 52.2229C17.7083 52.3304 17.7553 52.4259 17.8277 52.4921C17.9002 52.5584 17.9934 52.591 18.0905 52.584C18.1876 52.5771 18.2822 52.531 18.3572 52.4542C18.4322 52.3775 18.4827 52.275 18.4994 52.1653C19.3379 48.3341 19.4421 44.4696 19.4318 40.6002C19.429 36.2823 19.3819 31.9708 19.3261 27.66C19.2156 18.9466 19.0315 10.2429 18.7737 1.54875C18.7628 1.45959 18.7291 1.37806 18.6765 1.314C18.624 1.24994 18.5549 1.20608 18.4776 1.18769C18.4003 1.1693 18.3181 1.17718 18.2408 1.21037C18.1636 1.24355 18.0946 1.30064 18.0422 1.37474C17.3946 2.42699 17.4212 3.51427 17.6539 4.65037C17.8032 5.38628 18.0434 6.08371 18.1541 6.84423C18.2629 7.80359 18.2778 8.78231 18.1986 9.76306C18.0251 14.0147 17.835 18.268 17.6284 22.523C17.2206 31.0278 16.7487 39.5353 16.2128 48.0455C16.1754 48.6496 16.9917 48.7207 17.0431 48.1077C18.1618 32.7946 18.4819 17.4954 18.0016 2.29044C17.9833 1.76831 17.2184 1.81791 17.1854 2.3509C16.6439 10.9142 17.7982 19.2967 17.5158 27.836C17.258 35.6819 15.9425 43.6669 17.2172 51.3386C17.3251 51.9206 18.1297 51.7481 18.0375 51.161C17.4041 47.0581 17.8751 42.8399 18.179 38.6406C18.4291 34.8209 18.4786 31.0065 18.3271 27.218C18.0611 19.2409 17.3813 11.2381 18.5816 3.16577L17.8185 3.21917C17.714 18.8239 17.3865 34.4427 16.8359 50.0756C16.8211 50.4824 17.3779 50.5315 17.3903 50.114L17.3877 50.1133Z" fill="#7E819E"/>
</svg>
