<svg width="397" height="397" viewBox="0 0 397 397" fill="none" xmlns="http://www.w3.org/2000/svg">
<circle cx="198.5" cy="198.5" r="198.5" fill="url(#paint0_radial)"/>
<path d="M198.996 366.048C291.522 366.048 366.53 291.041 366.53 198.515C366.53 105.988 291.522 30.9805 198.996 30.9805C106.469 30.9805 31.4619 105.988 31.4619 198.515C31.4619 291.041 106.469 366.048 198.996 366.048Z" stroke="#515151" stroke-width="5.52668" stroke-miterlimit="10"/>
<path d="M199 8C224.082 8 248.919 12.9404 272.093 22.539C295.266 32.1377 316.321 46.2066 334.057 63.9426C351.793 81.6786 365.862 102.734 375.461 125.907C385.06 149.081 390 173.918 390 199L384.604 199C384.604 174.626 379.804 150.491 370.476 127.972C361.149 105.454 347.477 84.9928 330.242 67.7578C313.007 50.5229 292.546 36.8514 270.028 27.5239C247.509 18.1964 223.374 13.3956 199 13.3956L199 8Z" fill="#515151"/>
<path d="M357.902 304.977C343.985 325.844 326.094 343.766 305.251 357.719C284.408 371.672 261.02 381.383 236.424 386.298C211.828 391.212 186.504 391.234 161.9 386.362C137.295 381.49 113.891 371.819 93.0234 357.902L96.0171 353.414C116.295 366.937 139.038 376.335 162.948 381.069C186.857 385.804 211.466 385.783 235.367 381.007C259.268 376.231 281.995 366.794 302.25 353.235C322.504 339.676 339.89 322.261 353.414 301.983L357.902 304.977Z" fill="#515151"/>
<path d="M34.5336 296.117C21.7799 274.519 13.4052 250.621 9.8876 225.786C6.36999 200.952 7.77835 175.667 14.0323 151.377C20.2862 127.087 31.2633 104.266 46.3366 84.218C61.41 64.17 80.2846 47.2872 101.883 34.5335L104.626 39.1796C83.6382 51.5729 65.2968 67.9788 50.6492 87.4605C36.0017 106.942 25.3347 129.118 19.2574 152.722C13.1802 176.326 11.8116 200.896 15.2298 225.03C18.6481 249.163 26.7862 272.386 39.1796 293.374L34.5336 296.117Z" fill="#515151"/>
<defs>
<radialGradient id="paint0_radial" cx="0" cy="0" r="1" gradientUnits="userSpaceOnUse" gradientTransform="translate(198.5 198.5) rotate(90) scale(198.5)">
<stop stop-color="#8CDAFB"/>
<stop offset="1" stop-color="#8CDAFB" stop-opacity="0"/>
</radialGradient>
</defs>
</svg>
