<svg width="23" height="23" viewBox="0 0 23 23" fill="none" xmlns="http://www.w3.org/2000/svg">
<path d="M20.6102 11.6049C20.4508 11.5791 20.2911 11.5554 20.131 11.534C20.1211 11.5401 20.1105 11.5456 20.0993 11.5504L20.0999 11.5575L20.0619 11.5664C19.9963 11.5817 19.9307 11.5962 19.8652 11.6098C19.8189 11.6204 19.7726 11.6307 19.7264 11.6407C19.7238 11.6474 19.7208 11.6539 19.7176 11.6604C20.0151 11.6334 20.3127 11.6149 20.6102 11.6049ZM20.6102 11.6049C20.6873 11.6173 20.7643 11.6303 20.8412 11.6438C20.9122 11.6563 20.983 11.6692 21.0538 11.6825C21.0536 11.6837 21.0533 11.685 21.0531 11.6863C21.0599 11.6862 21.0667 11.6862 21.0734 11.6862L21.0981 11.6908C21.0811 11.7788 21.0138 11.8637 20.9101 11.8625M19.1993 11.5189C19.3469 11.5211 19.4945 11.5233 19.6421 11.5254C19.6472 11.5338 19.6506 11.5456 19.6511 11.5597C19.4162 11.6025 19.1811 11.635 18.946 11.6591C18.9275 11.6428 18.9054 11.63 18.8799 11.6219L18.8809 11.6155L18.8479 11.6145C18.8406 11.6134 18.8332 11.6126 18.8255 11.6122L18.8255 11.6122L18.8249 11.6122C18.7838 11.6104 18.7428 11.6086 18.7017 11.6068L18.7029 11.5739C18.8684 11.5579 19.0339 11.5395 19.1993 11.5189ZM18.6116 11.603C18.5823 11.6018 18.553 11.6006 18.5236 11.5994C18.525 11.5962 18.5264 11.5931 18.5279 11.59C18.556 11.5876 18.5842 11.585 18.6124 11.5825L18.6116 11.603ZM19.7402 11.5429C19.7396 11.5375 19.7388 11.5321 19.7377 11.5268C19.7637 11.5272 19.7897 11.5276 19.8157 11.5279C19.7905 11.5331 19.7653 11.538 19.7402 11.5429ZM19.5448 11.3009C19.6493 11.2798 19.7538 11.2574 19.8584 11.2336C19.8999 11.2405 19.9414 11.2477 19.9829 11.2552L19.9836 11.2632C19.8373 11.2737 19.691 11.2863 19.5448 11.3009ZM19.9126 11.4153C19.9403 11.4107 19.968 11.4061 19.9957 11.4014L19.9978 11.4258C19.9695 11.4222 19.941 11.4187 19.9126 11.4153ZM19.5581 11.1877C19.2316 11.2445 18.9052 11.2818 18.5788 11.3046C17.9581 11.2763 17.3346 11.28 16.7101 11.3157C16.4455 11.3055 16.1807 11.2925 15.9156 11.2795C15.7087 11.2693 15.5017 11.2591 15.2945 11.2502L15.2941 11.2502C15.2833 11.2499 15.2725 11.2495 15.2617 11.2491L15.2636 11.1958C16.576 11.337 17.9067 11.3205 19.2319 11.1475C19.3409 11.1594 19.4496 11.1727 19.5581 11.1877ZM19.8255 11.1368C19.7422 11.1232 19.6589 11.1107 19.5754 11.0991C19.5819 11.0981 19.5885 11.0971 19.595 11.0961C19.689 11.1053 19.783 11.1153 19.8768 11.1259C19.8597 11.1296 19.8426 11.1332 19.8255 11.1368ZM20.0894 11.4375L20.0849 11.386C20.1066 11.3822 20.1283 11.3783 20.15 11.3744C20.1407 11.3992 20.1261 11.4218 20.1064 11.4398C20.1007 11.439 20.0951 11.4383 20.0894 11.4375ZM18.4757 11.504C18.1414 11.5322 17.8071 11.5509 17.473 11.5601C17.4727 11.5601 17.4725 11.5601 17.4722 11.5601C17.7189 11.5455 17.9658 11.526 18.2128 11.5006C18.3011 11.5008 18.3894 11.5011 18.4778 11.5013C18.4771 11.5022 18.4764 11.5031 18.4757 11.504ZM15.9099 11.3695C15.9313 11.3706 15.9527 11.3716 15.9741 11.3727C15.8501 11.3847 15.7261 11.3981 15.6022 11.4127C15.4867 11.4131 15.3713 11.4137 15.2558 11.4142L15.2585 11.3392C15.2693 11.3396 15.2801 11.34 15.2909 11.3403C15.497 11.3492 15.7034 11.3593 15.9099 11.3695ZM15.1732 11.2L15.1716 11.2463C15.1507 11.2456 15.1298 11.245 15.1089 11.2444C15.1268 11.2226 15.1494 11.2075 15.1732 11.2ZM18.798 11.1079C17.7371 11.2196 16.6744 11.2304 15.6223 11.14L15.7947 11.1215C15.7947 11.1215 15.7947 11.1215 15.7947 11.1215C16.801 11.0699 17.8065 11.0342 18.798 11.1079ZM19.5925 11.0053C18.3275 10.8823 17.0461 10.8914 15.7658 11.0328C14.1938 11.1163 12.6194 11.2071 11.0425 11.3052L11.0424 11.3052C10.4626 11.3417 9.88272 11.3792 9.30286 11.4176C8.07384 11.4015 6.84461 11.389 5.61519 11.3802C7.47435 11.2426 9.33362 11.1159 11.193 11L11.193 11C12.826 10.8977 14.4587 10.7994 16.0917 10.7217L16.0918 10.7217C17.4789 10.6522 18.8554 10.6311 20.1918 10.9028C19.9922 10.9405 19.7925 10.9747 19.5925 11.0053Z" fill="#7E819E" stroke="#7E819E" stroke-width="0.0901636"/>
<path d="M11.1311 21.7886C11.131 21.7961 11.131 21.8037 11.131 21.8112L11.1259 21.8338C11.0259 21.8096 10.9283 21.7323 10.9307 21.6252L11.1757 21.6036C11.1627 21.6658 11.1494 21.7278 11.1357 21.7898C11.1342 21.7894 11.1326 21.789 11.1311 21.7886ZM11.1311 21.7886C11.0904 21.7778 11.0511 21.757 11.0224 21.7293C10.992 21.7001 10.9749 21.6651 10.9757 21.6263L10.9757 21.6262C10.9875 21.0397 10.9995 20.4532 11.0119 19.8665C11.0938 20.5104 11.1336 21.152 11.1311 21.7886ZM11.3373 19.9271C11.3333 20.0756 11.3293 20.2241 11.3254 20.3726C11.3138 20.3775 11.2972 20.3797 11.2774 20.3775C11.2318 20.1344 11.1978 19.8922 11.1733 19.6507C11.1911 19.6337 11.2053 19.6127 11.2146 19.5878L11.2223 19.5896L11.2238 19.5541C11.2251 19.5468 11.2261 19.5393 11.2266 19.5315L11.2266 19.5315L11.2267 19.5308C11.2291 19.4902 11.2314 19.4496 11.2337 19.409L11.2807 19.4146C11.2969 19.5853 11.3158 19.7561 11.3373 19.9271ZM11.2389 19.3188C11.2406 19.2885 11.2423 19.2582 11.244 19.2279C11.2512 19.231 11.2581 19.2344 11.2649 19.2381C11.2672 19.2663 11.2697 19.2946 11.2722 19.3228L11.2389 19.3188ZM11.295 20.4685C11.3044 20.4684 11.3137 20.4676 11.3229 20.4662C11.3219 20.5063 11.3208 20.5465 11.3198 20.5866C11.3188 20.5824 11.3178 20.5783 11.3168 20.5741C11.3093 20.5389 11.302 20.5037 11.295 20.4685ZM11.2565 19.1359C11.2541 19.1351 11.2517 19.1342 11.2493 19.1334C11.2503 19.1156 11.2513 19.0978 11.2522 19.0799C11.2536 19.0986 11.2551 19.1173 11.2565 19.1359ZM11.5576 20.2038C11.5854 20.3432 11.6157 20.4828 11.6486 20.6227C11.6406 20.6631 11.6323 20.7035 11.6238 20.7438L11.6042 20.7437C11.592 20.564 11.5765 20.384 11.5576 20.2038ZM11.2289 20.5941C11.2434 20.6619 11.2588 20.7297 11.2752 20.7977L11.2835 20.832L11.2905 20.832C11.2962 20.8457 11.3029 20.8585 11.3105 20.8706C11.2824 21.0465 11.2514 21.2217 11.2175 21.3963C11.2101 21.0759 11.1921 20.7545 11.1636 20.4323C11.1739 20.4383 11.1845 20.4436 11.1953 20.4482C11.2062 20.4968 11.2174 20.5454 11.2289 20.5941ZM11.3511 19.1873C11.3231 18.8454 11.3057 18.5044 11.2989 18.1646C11.3006 18.1301 11.3022 18.0957 11.3038 18.0613C11.3176 18.3495 11.3385 18.6385 11.368 18.9283C11.3668 19.0184 11.3656 19.1084 11.3644 19.1984C11.3601 19.1946 11.3556 19.1909 11.3511 19.1873ZM11.4582 18.9244C11.4588 18.8801 11.4593 18.8359 11.4599 18.7916C11.4613 18.8607 11.4634 18.9297 11.466 18.9989C11.4633 18.974 11.4607 18.9492 11.4582 18.9244ZM11.6986 20.3484C11.6352 20.0004 11.5952 19.6546 11.5724 19.3104C11.6104 18.6836 11.6129 18.0509 11.5796 17.4142C11.5938 17.1469 11.6111 16.8796 11.6284 16.6121C11.6419 16.4033 11.6554 16.1943 11.6675 15.985L11.6675 15.9846C11.668 15.9745 11.6685 15.9645 11.669 15.9545L11.7394 15.9628C11.5677 17.2816 11.572 18.6339 11.7513 19.9955C11.7357 20.1136 11.7182 20.2312 11.6986 20.3484ZM11.7467 20.5908C11.7645 20.4981 11.7809 20.405 11.796 20.3117C11.7989 20.3307 11.8018 20.3497 11.8048 20.3687C11.7926 20.4712 11.7794 20.5734 11.7653 20.6755C11.7589 20.6472 11.7527 20.619 11.7467 20.5908ZM11.1504 20.2382C11.1558 20.2647 11.1613 20.2911 11.1669 20.3176C11.1558 20.3023 11.15 20.2857 11.1502 20.2682L11.1502 20.2681C11.1502 20.2581 11.1503 20.2482 11.1504 20.2382ZM11.3814 17.7414C11.3656 17.2331 11.3698 16.7264 11.3849 16.2203C11.3876 16.2422 11.3903 16.2642 11.3929 16.2861C11.39 16.7713 11.3861 17.2564 11.3814 17.7414ZM11.4709 17.8128C11.4729 17.6076 11.4748 17.4024 11.4765 17.1971C11.4812 17.2693 11.4855 17.3414 11.4893 17.4134C11.4822 17.5464 11.476 17.6795 11.4709 17.8128ZM11.5384 16.605C11.5357 16.647 11.533 16.689 11.5303 16.7311C11.5165 16.5812 11.5008 16.4312 11.4831 16.2811C11.4837 16.165 11.4844 16.0489 11.485 15.9327L11.5792 15.9439C11.5786 15.9559 11.5781 15.968 11.5775 15.98C11.5655 16.1883 11.552 16.3965 11.5384 16.605ZM11.7341 15.8714L11.6731 15.8642C11.6741 15.8415 11.675 15.8188 11.676 15.7962C11.6782 15.7978 11.6804 15.7996 11.6826 15.8013C11.708 15.8222 11.7253 15.8468 11.7341 15.8714ZM11.7955 19.6069C11.6746 18.4873 11.6732 17.3758 11.7916 16.2862C11.7999 16.3543 11.8078 16.4224 11.8153 16.4904C11.8156 16.4977 11.816 16.505 11.8163 16.5123C11.8641 17.5543 11.8935 18.5936 11.7955 19.6069ZM11.8524 19.9151C11.8496 19.9458 11.8467 19.9765 11.8438 20.0071C11.8432 20.0032 11.8427 19.9993 11.8422 19.9954C11.8457 19.9687 11.8491 19.9419 11.8524 19.9151ZM12.0093 21.0125C11.9671 20.7973 11.9292 20.5821 11.8957 20.3671C12.0462 19.0957 12.0495 17.7953 11.9052 16.4834C11.8285 14.8811 11.7437 13.2757 11.6508 11.6671L11.6508 11.667C11.6162 11.0755 11.5804 10.4839 11.5436 9.8922C11.5755 8.61028 11.6029 7.32778 11.626 6.04468C11.7634 7.9831 11.8881 9.92056 12.0002 11.8571L12.0002 11.8571C12.0972 13.523 12.1897 15.1882 12.2593 16.8517L12.2593 16.8519C12.3226 18.2728 12.3314 19.6776 12.0093 21.0125ZM11.5833 15.8536L11.4854 15.842C11.4855 15.8163 11.4857 15.7906 11.4858 15.7649C11.5101 15.7549 11.5399 15.7507 11.5721 15.7545C11.5772 15.7551 11.5823 15.7559 11.5874 15.7569C11.5861 15.7891 11.5847 15.8214 11.5833 15.8536ZM11.2056 17.7937C11.1898 18.197 11.1736 18.6001 11.1568 19.0033C11.159 18.4341 11.1601 17.8648 11.1602 17.2954C11.1753 17.0402 11.193 16.7851 11.2107 16.5301C11.218 16.4247 11.2253 16.3194 11.2324 16.214L11.2325 16.2137C11.3257 14.6591 11.2988 13.0854 11.1518 11.5022C11.1486 11.0985 11.1347 10.6938 11.1132 10.2885C11.1179 10.1003 11.1226 9.91211 11.1271 9.72387C11.1393 9.23248 11.1507 8.741 11.1613 8.24945C11.209 8.80854 11.2635 9.36806 11.318 9.92682C11.3193 9.93983 11.3206 9.95284 11.3218 9.96585C11.35 11.4188 11.3527 12.8686 11.3299 14.315C11.3046 15.0977 11.2776 15.8803 11.2487 16.6625C11.2211 17.0376 11.2068 17.4148 11.2056 17.7937ZM11.5826 15.665C11.5498 15.6611 11.517 15.6628 11.4862 15.6703C11.4886 15.1289 11.4898 14.5873 11.4898 14.0456C11.5156 13.5696 11.5393 13.093 11.5534 12.6158C11.6164 13.6383 11.6289 14.6559 11.5909 15.6661C11.5882 15.6657 11.5854 15.6653 11.5826 15.665ZM11.4782 8.85757C11.4686 8.70798 11.4589 8.55839 11.4491 8.40879C11.4244 6.70568 11.3883 5.00111 11.3409 3.29507C11.3808 3.40076 11.4179 3.50288 11.4462 3.6001C11.4842 4.09831 11.5214 4.59646 11.5577 5.09455C11.5573 5.10729 11.5568 5.12002 11.5564 5.13275C11.5517 5.2623 11.547 5.39154 11.5451 5.5203C11.5261 6.63317 11.5038 7.74559 11.4782 8.85757ZM11.316 1.93283C11.351 2.37091 11.3854 2.80896 11.4192 3.24694C11.4107 3.22453 11.4021 3.20207 11.3936 3.17959L11.3838 3.15392C11.3667 3.10912 11.3497 3.06422 11.3332 3.01935C11.327 2.80286 11.3207 2.58634 11.3142 2.3698C11.3148 2.36562 11.3155 2.36145 11.3162 2.35727L11.3239 2.31082L11.3123 2.30942C11.3123 2.30772 11.3122 2.30602 11.3122 2.30433L11.3122 2.30422C11.3096 2.2248 11.2643 2.16971 11.2061 2.13618C11.2284 2.06387 11.264 1.99582 11.316 1.93283ZM10.9748 1.80714L11.2308 1.89503C11.1802 1.96084 11.1448 2.03077 11.1217 2.10362C11.1086 2.10064 11.0955 2.09851 11.0827 2.09721C11.0597 2.09489 11.0362 2.09491 11.0131 2.09755C11.0093 2.05066 11.0054 2.00377 11.0015 1.95688L11.0015 1.95666C10.9992 1.9301 10.9918 1.90586 10.9808 1.88404C10.9788 1.85841 10.9768 1.83277 10.9748 1.80714ZM11.3074 1.82601L10.9455 1.70174C10.9609 1.68208 10.9774 1.66266 10.995 1.64349C11.0134 1.62711 11.0392 1.61512 11.0704 1.61051C11.1024 1.60579 11.1376 1.60921 11.1717 1.62102C11.2058 1.63283 11.2362 1.65219 11.2594 1.67622C11.2818 1.69952 11.2958 1.72551 11.3014 1.75059C11.3034 1.77573 11.3054 1.80087 11.3074 1.82601ZM10.7362 1.82842C10.744 1.82937 10.7517 1.83065 10.7594 1.83225C10.7444 1.86427 10.7314 1.89671 10.7204 1.92954L10.5785 1.91279C10.5785 1.91276 10.5785 1.91272 10.5785 1.91268L10.5785 1.9126C10.5799 1.87962 10.5958 1.8583 10.622 1.84432C10.6502 1.82922 10.6912 1.82297 10.7362 1.82842ZM10.6171 4.50767C10.5853 3.99927 10.5642 3.49207 10.56 2.98657C10.5867 3.34371 10.6119 3.7007 10.6355 4.05755C10.6277 4.20735 10.6216 4.3574 10.6171 4.50767ZM10.8387 8.11292C10.8212 7.90254 10.8048 7.69228 10.7897 7.4822C10.8038 7.62287 10.8177 7.76351 10.8314 7.90411C10.8339 7.97372 10.8363 8.04333 10.8387 8.11292ZM10.9961 11.3144C10.9945 11.1138 10.9924 10.9132 10.9898 10.7126C10.9956 10.7753 11.0014 10.838 11.0072 10.9007C11.0036 11.0386 10.9998 11.1765 10.9961 11.3144ZM10.9275 19.5963C10.873 19.5754 10.8289 19.5391 10.8078 19.4951L10.9291 19.5228C10.9285 19.5473 10.928 19.5718 10.9275 19.5963ZM11.1393 12.5173C11.2086 13.6586 11.215 14.7938 11.1584 15.9193C11.1553 14.8099 11.1482 13.7001 11.1371 12.5898C11.1379 12.5656 11.1386 12.5415 11.1393 12.5173ZM11.09 7.32861C11.0844 7.61468 11.0786 7.90072 11.0724 8.18673C11.0595 7.5224 11.0452 6.8579 11.0295 6.19321C11.0433 6.57094 11.0642 6.94953 11.09 7.32861ZM11.2905 8.68688C11.2515 8.25856 11.2155 7.83063 11.1856 7.40354C11.218 7.72659 11.2502 8.04951 11.2808 8.37219C11.2841 8.4771 11.2874 8.582 11.2905 8.68688ZM11.1846 2.23092C11.2052 2.24926 11.2183 2.27229 11.2214 2.29841L11.1778 2.29314C11.1792 2.27213 11.1815 2.25138 11.1846 2.23092ZM10.5746 2.00313L10.6955 2.01739C10.6398 2.25683 10.675 2.5148 10.7492 2.78034C10.7224 2.98895 10.6998 3.19819 10.6812 3.408C10.6481 2.94412 10.6124 2.48001 10.5741 2.01567C10.5743 2.01149 10.5745 2.00731 10.5746 2.00313ZM10.7016 5.62306C10.6982 5.43415 10.6969 5.24554 10.6978 5.05726C10.7221 5.47492 10.7444 5.89237 10.7646 6.3096C10.7427 6.08061 10.7215 5.85175 10.7016 5.62306ZM10.9693 9.55038C10.9683 9.50779 10.9674 9.46521 10.9664 9.42262C10.9761 9.55039 10.9853 9.6781 10.9938 9.80574C10.9856 9.72062 10.9774 9.6355 10.9693 9.55038ZM10.7958 19.3999C10.7973 19.3662 10.7988 19.3325 10.8002 19.2988C10.8281 18.8144 10.853 18.3296 10.875 17.8443C10.8917 18.2861 10.9241 18.7293 10.9781 19.1746C10.9525 19.2016 10.9363 19.2378 10.9343 19.2823L10.9262 19.2813L10.9333 19.3253C10.9325 19.3604 10.9318 19.3956 10.931 19.4307L10.7958 19.3999ZM11.07 17.2918C11.0395 17.8104 11.0198 18.3314 11.0336 18.8558C10.9466 17.9822 10.9381 17.1147 10.9627 16.2491C10.9807 15.6199 11.0161 14.9923 11.0516 14.3641C11.0545 14.3127 11.0574 14.2613 11.0603 14.2099C11.067 15.2376 11.0702 16.2649 11.07 17.2918ZM11.2435 3.03663C11.2774 4.22854 11.3057 5.41974 11.3286 6.61022C11.2954 6.12826 11.2616 5.64624 11.227 5.16415C11.2245 5.12078 11.222 5.07741 11.2194 5.03404C11.2203 4.97582 11.2211 4.9176 11.2219 4.85938C11.2475 4.48831 11.2247 4.10986 11.1539 3.73063C11.1725 3.4825 11.1963 3.23515 11.2261 2.98865C11.2318 3.00467 11.2376 3.02066 11.2435 3.03663ZM11.1766 2.38381L11.2197 2.38903C11.2111 2.44202 11.2028 2.49507 11.1948 2.54815C11.1849 2.49204 11.1785 2.43719 11.1766 2.38381ZM11.0998 2.19095C11.0943 2.22103 11.0904 2.2515 11.0882 2.28229L11.0275 2.27493C11.0251 2.24579 11.0228 2.21663 11.0204 2.18748C11.0373 2.18532 11.0553 2.18506 11.0736 2.18692C11.0826 2.18783 11.0914 2.18919 11.0998 2.19095ZM10.8436 1.86547C10.8482 1.86843 10.8527 1.87153 10.8571 1.87478C10.8716 1.88575 10.8836 1.89799 10.8925 1.91135C10.8936 1.92431 10.8946 1.93727 10.8956 1.95022L10.8122 1.94039C10.8214 1.9151 10.8318 1.89012 10.8436 1.86547ZM10.7835 2.5302C10.7516 2.35242 10.7473 2.18465 10.7857 2.02805L10.8999 2.04152C10.8984 2.07451 10.8971 2.10751 10.8959 2.14052C10.8614 2.16561 10.8352 2.20202 10.827 2.25023L10.827 2.25042C10.8115 2.34354 10.7971 2.43681 10.7835 2.5302ZM10.8464 2.7923C10.8446 2.78604 10.8428 2.77979 10.841 2.77356C10.8423 2.7636 10.8436 2.75365 10.8449 2.7437C10.8454 2.75989 10.8459 2.7761 10.8464 2.7923ZM10.8145 2.98966C10.8279 3.02906 10.8419 3.06833 10.856 3.10748C10.9118 4.95025 10.9567 6.79164 10.9907 8.63165C10.9686 8.38715 10.9453 8.14258 10.9214 7.89801C10.876 6.61953 10.8107 5.33885 10.7258 4.05632C10.7447 3.69919 10.7736 3.34354 10.8145 2.98966ZM11.2197 6.83633C11.2111 6.75018 11.2027 6.66405 11.1943 6.57793C11.1958 6.49618 11.1972 6.41444 11.1986 6.33269C11.2074 6.51486 11.2159 6.69699 11.2239 6.87908C11.2225 6.86483 11.2211 6.85058 11.2197 6.83633ZM11.1605 2.78977C11.1391 2.95033 11.1203 3.11127 11.1038 3.27255C11.0819 2.97068 11.0589 2.66871 11.0348 2.36665L11.0861 2.37286C11.0887 2.48583 11.1097 2.60195 11.1403 2.71758C11.1466 2.74159 11.1534 2.76566 11.1605 2.78977ZM11.023 4.4895C11.0023 4.14148 10.9869 3.79405 10.9787 3.44738C10.9933 3.49012 11.0072 3.53285 11.0201 3.57567C11.0295 3.702 11.039 3.82833 11.0483 3.95465C11.0374 4.13258 11.029 4.31088 11.023 4.4895ZM11.1289 5.05724C11.1255 5.29115 11.1219 5.52505 11.1181 5.75892C11.1133 5.70431 11.1086 5.64971 11.1039 5.59512C11.0996 5.31005 11.1 5.02566 11.1061 4.74208C11.1137 4.84714 11.1213 4.95219 11.1289 5.05724ZM10.9737 3.16684C10.9728 3.09171 10.9723 3.01662 10.9721 2.94157C10.9792 3.0344 10.9863 3.12723 10.9933 3.22005C10.989 3.20831 10.9847 3.19659 10.9804 3.18488C10.9781 3.17886 10.9759 3.17285 10.9737 3.16684ZM11.2521 21.8795L11.5268 21.9411C11.5176 21.9517 11.5056 21.9609 11.491 21.9681C11.4589 21.984 11.4165 21.9888 11.3722 21.9789C11.3279 21.9689 11.2876 21.9456 11.2596 21.9145C11.2503 21.9042 11.2428 21.8936 11.2369 21.8829C11.242 21.8819 11.2471 21.8808 11.2521 21.8795ZM11.8019 21.3021C11.7875 21.3004 11.7732 21.2972 11.7593 21.2926C11.7651 21.2598 11.7708 21.227 11.7764 21.1941L11.9578 21.2157C11.953 21.2422 11.9368 21.2659 11.9097 21.2823C11.8818 21.2992 11.8438 21.3072 11.8019 21.3021ZM11.8558 20.6789C11.8816 20.8268 11.9094 20.9747 11.9393 21.1227L11.7913 21.1051C11.8147 20.9634 11.8362 20.8214 11.8558 20.6789ZM11.4595 20.7429L11.4216 20.7426C11.4276 20.703 11.4334 20.6632 11.4391 20.6235C11.4458 20.6633 11.4525 20.7031 11.4595 20.7429ZM11.2297 21.7821C11.2534 21.6742 11.2759 21.566 11.2973 21.4575C11.2952 21.5436 11.293 21.6296 11.2908 21.7157L11.3359 21.7168L11.2909 21.7156C11.2898 21.7538 11.2731 21.7738 11.2498 21.785C11.249 21.7854 11.2482 21.7857 11.2474 21.7861L11.2297 21.7821ZM11.381 21.718C11.3873 21.4649 11.3938 21.2119 11.4003 20.959C11.4334 20.9798 11.47 20.9944 11.5067 21.0029C11.5149 21.0463 11.5233 21.0897 11.5319 21.1332L11.5239 21.164L11.5366 21.1656C11.5456 21.3954 11.5491 21.6247 11.5472 21.8533L11.354 21.81C11.3703 21.785 11.38 21.7542 11.381 21.7181L11.381 21.718ZM11.6868 21.1834C11.6833 21.2035 11.6799 21.2235 11.6764 21.2435C11.6551 21.2231 11.6406 21.2 11.6333 21.1771L11.6868 21.1834ZM11.7208 20.9759C11.7146 21.0155 11.7082 21.055 11.7017 21.0944L11.6368 21.0867C11.6439 21.0588 11.6508 21.031 11.6575 21.0031C11.6801 20.9972 11.7016 20.9883 11.7208 20.9759ZM11.6355 21.4683C11.6346 21.4204 11.6335 21.3725 11.6321 21.3246C11.6406 21.3314 11.6494 21.3378 11.6586 21.3437C11.651 21.3853 11.6433 21.4268 11.6355 21.4683ZM11.4754 20.8331C11.4796 20.8564 11.4838 20.8797 11.4881 20.9031C11.4565 20.8903 11.4278 20.8714 11.4056 20.8468C11.4063 20.8421 11.4071 20.8374 11.4078 20.8327L11.4754 20.8331ZM11.7069 20.8345C11.7073 20.8613 11.6972 20.879 11.6837 20.8912C11.688 20.8723 11.6923 20.8534 11.6964 20.8344L11.7069 20.8345Z" fill="#7E819E" stroke="#7E819E" stroke-width="0.0901636"/>
<path d="M11.5244 1.71094C11.8685 6.72155 11.3727 11.7599 11.5968 16.7752C11.6496 17.9566 11.8798 19.1266 11.8798 20.3093" stroke="#7E819E" stroke-width="0.593089" stroke-linecap="round" stroke-linejoin="round"/>
<path d="M10.399 1C10.399 2.82152 10.2552 4.72694 10.4582 6.54135C10.5471 7.33576 10.5352 8.13916 10.5899 8.93689C10.6548 9.88544 10.7419 10.8287 10.784 11.78C10.8845 14.05 10.7783 16.3175 11.0209 18.5816C11.1099 19.4121 11.178 20.2522 11.2908 21.0792C11.3353 21.4055 11.3998 21.7295 11.4059 22.0597C11.4111 22.3398 11.0297 21.5569 10.9913 21.4938" stroke="#7E819E" stroke-width="0.593089" stroke-linecap="round" stroke-linejoin="round"/>
<path d="M1.04053 12.9651C3.28128 13.0764 5.51049 13.0885 7.75332 13.0835C9.99897 13.0785 12.2323 12.8496 14.4793 12.919C16.506 12.9816 18.5157 12.8041 20.5405 12.7874C20.7338 12.7858 21.8483 12.9021 21.9818 12.7018C22.1783 12.4071 20.7196 11.2586 20.5866 11.1289" stroke="#7E819E" stroke-width="0.593089" stroke-linecap="round" stroke-linejoin="round"/>
<path d="M8.2666 3.42871C9.22556 6.4782 9.68268 9.71833 9.89215 12.9023C9.9872 14.347 10.0069 15.7962 10.1916 17.2327C10.3009 18.0829 10.4296 18.9301 10.5174 19.7829C10.5399 20.0024 10.5766 20.2263 10.5766 20.4476C10.5766 20.6301 10.4174 20.1192 10.3397 19.954" stroke="#7E819E" stroke-width="0.593089" stroke-linecap="round" stroke-linejoin="round"/>
<path d="M2.16602 12.6095C4.01227 12.6442 5.85581 12.6945 7.70078 12.5865C9.05288 12.5073 10.3977 12.3348 11.7482 12.2344C14.2659 12.0474 16.7898 12.0172 19.3133 12.0172C19.8913 12.0172 20.4693 12.0172 21.0474 12.0172C21.1618 12.0172 21.3616 12.0666 21.4159 11.958" stroke="#7E819E" stroke-width="0.593089" stroke-linecap="round" stroke-linejoin="round"/>
<path d="M5.54199 12.3722C9.38444 12.3077 13.2439 12.2976 17.0821 12.1057C17.4945 12.0851 17.6126 12.0926 17.4473 11.7207" stroke="#7E819E" stroke-width="0.593089" stroke-linecap="round" stroke-linejoin="round"/>
<path d="M10.6951 1.11914C10.4637 4.37025 10.3137 7.63038 10.241 10.8889C10.1952 12.942 10.2588 14.9684 10.4813 17.0094C10.5299 17.4556 10.7762 18.7705 10.6227 18.3486C10.2865 17.4239 10.1761 16.4114 9.98438 15.4529" stroke="#7E819E" stroke-width="0.593089" stroke-linecap="round" stroke-linejoin="round"/>
<path d="M11.6099 19.8062C11.531 18.8598 11.4324 17.9153 11.3169 16.9727C11.392 18.007 11.4526 19.0422 11.6033 20.0695C11.6095 20.1121 11.6362 20.2376 11.6362 20.1945C11.6362 20.1023 11.6152 19.8699 11.6099 19.8062Z" fill="#7E819E"/>
<path d="M9.03662 4.49512C10.162 9.54088 11.1798 14.645 11.6099 19.8062C11.6152 19.8699 11.6362 20.1023 11.6362 20.1945C11.6362 20.2376 11.6095 20.1121 11.6033 20.0695C11.4335 18.9116 11.378 17.7436 11.2874 16.5781" stroke="#7E819E" stroke-width="0.593089" stroke-linecap="round" stroke-linejoin="round"/>
<path d="M10.7544 3.36914C11.5305 7.45729 11.9099 11.6306 12.1759 15.7812C12.2038 16.2155 12.2352 16.6857 12.2352 17.1106" stroke="#7E819E" stroke-width="0.593089" stroke-linecap="round" stroke-linejoin="round"/>
</svg>
