<svg width="37" height="38" viewBox="0 0 37 38" fill="none" xmlns="http://www.w3.org/2000/svg">
<path d="M25.6543 18.097C27.4283 18.2496 29.22 18.2312 31.0088 18.0429C29.3371 17.9188 27.6418 17.9789 25.9451 18.0659C25.9451 18.0659 25.9451 18.0659 25.945 18.0659L25.6543 18.097ZM25.6543 18.097C25.7391 18.087 25.8239 18.0772 25.9088 18.0678L25.6543 18.097ZM34.8111 19.0181C34.8226 19.0181 34.834 19.018 34.8455 19.018L34.8871 19.0258C34.8583 19.1742 34.7448 19.3172 34.57 19.3154L34.8124 19.0117C34.812 19.0139 34.8116 19.016 34.8111 19.0181ZM34.8111 19.0181C34.785 19.141 34.694 19.2407 34.5709 19.2393L34.5707 19.2393C33.6309 19.2311 32.6908 19.2224 31.7506 19.2132C32.7701 19.089 33.7918 19.0239 34.8111 19.0181ZM31.6855 18.7359C31.9344 18.7396 32.1832 18.7433 32.4321 18.7469C32.4406 18.7611 32.4463 18.7809 32.4472 18.8047C32.0511 18.8769 31.6548 18.9317 31.2584 18.9723C31.2273 18.9448 31.19 18.9233 31.1469 18.9097L31.1486 18.8988L31.093 18.8972C31.0808 18.8953 31.0682 18.894 31.0553 18.8932L31.0553 18.8932L31.0543 18.8932C30.985 18.8902 30.9157 18.8872 30.8465 18.8842L30.8486 18.8287C31.1276 18.8017 31.4066 18.7707 31.6855 18.7359ZM30.6946 18.8778C30.6451 18.8757 30.5957 18.8737 30.5462 18.8716C30.5485 18.8662 30.5509 18.861 30.5534 18.8558C30.6009 18.8517 30.6484 18.8474 30.6959 18.8431L30.6946 18.8778ZM32.5975 18.7764C32.5965 18.7673 32.5951 18.7583 32.5933 18.7493C32.6371 18.7499 32.6809 18.7505 32.7247 18.7512C32.6823 18.7598 32.6399 18.7682 32.5975 18.7764ZM32.268 18.3683C32.4442 18.3329 32.6205 18.2951 32.7968 18.2548C32.8668 18.2666 32.9368 18.2787 33.0067 18.2913L33.0079 18.3048C32.7612 18.3225 32.5146 18.3437 32.268 18.3683ZM32.8882 18.5613C32.9349 18.5536 32.9816 18.5457 33.0283 18.5378L33.0319 18.579C32.984 18.573 32.9361 18.5671 32.8882 18.5613ZM32.2905 18.1776C31.7399 18.2733 31.1895 18.3361 30.6392 18.3747C29.5928 18.327 28.5414 18.3332 27.4886 18.3934C27.0423 18.3762 26.5958 18.3542 26.1488 18.3322C25.8001 18.3151 25.451 18.2979 25.1017 18.283L25.101 18.2829C25.0828 18.2823 25.0646 18.2817 25.0464 18.2811L25.0496 18.1912C27.2624 18.4293 29.506 18.4015 31.7405 18.1097C31.9242 18.1297 32.1075 18.1523 32.2905 18.1776ZM32.7413 18.0916C32.6009 18.0688 32.4604 18.0477 32.3196 18.0281C32.3306 18.0265 32.3417 18.0248 32.3527 18.0231C32.5112 18.0386 32.6696 18.0554 32.8278 18.0733C32.799 18.0795 32.7701 18.0856 32.7413 18.0916ZM33.1863 18.5988L33.1786 18.5118C33.2152 18.5054 33.2519 18.4989 33.2885 18.4923C33.2728 18.534 33.2482 18.5722 33.215 18.6025C33.2054 18.6013 33.1958 18.6 33.1863 18.5988ZM32.8082 18.8892C32.9188 18.8663 33.0293 18.8419 33.1398 18.816L33.204 18.801L33.203 18.789C33.2219 18.7809 33.2397 18.7717 33.2565 18.7614C33.5263 18.7976 33.7956 18.8374 34.0643 18.8809C33.5628 18.8978 33.0609 18.9291 32.5593 18.9745C32.5649 18.9636 32.5698 18.9525 32.5742 18.9413C32.6522 18.9244 32.7302 18.9071 32.8082 18.8892ZM30.4654 18.7108C29.9018 18.7584 29.3381 18.7899 28.7749 18.8054L28.7734 18.8054C29.1895 18.7808 29.6057 18.7479 30.0221 18.7051C30.1711 18.7055 30.32 18.7059 30.4689 18.7063C30.4678 18.7078 30.4666 18.7093 30.4654 18.7108ZM26.1393 18.484C26.1754 18.4858 26.2114 18.4876 26.2475 18.4894C26.0384 18.5097 25.8294 18.5322 25.6204 18.5568C25.4258 18.5576 25.2311 18.5585 25.0365 18.5594L25.041 18.433C25.0592 18.4336 25.0773 18.4342 25.0955 18.4349C25.4432 18.4497 25.7911 18.4669 26.1393 18.484ZM24.8972 18.1983L24.8944 18.2763C24.8592 18.2752 24.824 18.2742 24.7887 18.2732C24.819 18.2364 24.857 18.2109 24.8972 18.1983ZM32.3485 17.87C30.2155 17.6627 28.0551 17.6779 25.8964 17.9163C23.2458 18.0571 20.5911 18.2102 17.9324 18.3756L17.9323 18.3756C16.9546 18.4372 15.9769 18.5004 14.9992 18.5652C12.927 18.5379 10.8544 18.5169 8.78151 18.5021C11.9162 18.2701 15.0511 18.0565 18.1862 17.8611L18.1862 17.8611C20.9396 17.6885 23.6924 17.5228 26.4458 17.3918L26.446 17.3918C28.7848 17.2747 31.1056 17.2391 33.3589 17.6971C33.0225 17.7608 32.6856 17.8184 32.3485 17.87ZM33.1968 18.1719C33.1825 18.1692 33.1682 18.1665 33.1539 18.1638C33.1698 18.1646 33.184 18.1675 33.1968 18.1719ZM33.4014 18.6087C33.427 18.5626 33.4442 18.5126 33.4533 18.4624C33.5228 18.4495 33.5922 18.4364 33.6617 18.4231L33.7198 18.436L33.7206 18.4154C34.1004 18.3982 34.4802 18.3894 34.8596 18.3889L34.8178 18.6641C34.775 18.6405 34.724 18.627 34.6657 18.6261L34.6655 18.626C34.2441 18.6204 33.8227 18.6147 33.4014 18.6087ZM27.5206 18.7039C26.912 18.7179 26.3032 18.7178 25.6942 18.7086C26.303 18.7062 26.9118 18.7046 27.5206 18.7039ZM24.889 18.4282L24.8843 18.5602C24.8421 18.5604 24.7999 18.5606 24.7576 18.5608C24.7371 18.5246 24.7263 18.4807 24.7279 18.434C24.728 18.4305 24.7282 18.427 24.7285 18.4235C24.782 18.425 24.8355 18.4266 24.889 18.4282ZM28.1609 18.968C28.679 18.9815 29.1972 18.9955 29.7153 19.0099C28.9272 19.015 28.1389 19.0212 27.3507 19.0285C26.9245 19.0097 26.4983 18.987 26.072 18.9642C25.896 18.9548 25.72 18.9454 25.544 18.9363L25.5434 18.9363C22.9482 18.8198 20.3382 18.885 17.7294 19.1316C17.0593 19.1427 16.389 19.17 15.7188 19.2088C15.4055 19.2046 15.0921 19.2006 14.7787 19.1967C14.011 19.1867 13.2433 19.1776 12.4756 19.1697C13.3431 19.0926 14.2104 19.0068 15.0765 18.9212C15.0981 18.9191 15.1197 18.9169 15.1413 18.9148C17.5508 18.8496 19.9589 18.8229 22.3648 18.8347C23.6687 18.8606 24.9724 18.8892 26.276 18.9206C26.9029 18.9564 27.5314 18.9722 28.1609 18.968ZM24.576 18.4286C24.5744 18.4742 24.5803 18.5192 24.5934 18.5617C23.6976 18.5666 22.8017 18.5732 21.9057 18.5815C21.1724 18.5525 20.4385 18.526 19.7048 18.5113C21.3309 18.41 22.956 18.3794 24.5764 18.4196C24.5762 18.4226 24.5761 18.4256 24.576 18.4286ZM7.72561 18.6471C9.51371 18.6581 11.3016 18.6736 13.0892 18.6938C12.909 18.7062 12.7289 18.7186 12.5487 18.731C9.73493 18.7947 6.9203 18.8754 4.10485 18.973C4.25801 18.9177 4.4065 18.8666 4.54931 18.8264C5.37167 18.7612 6.19406 18.6973 7.01645 18.6347C7.03782 18.6352 7.05919 18.6356 7.08056 18.6362C7.29638 18.6412 7.51161 18.6462 7.72561 18.6471ZM30.7295 19.5407C29.9857 19.509 29.2415 19.481 28.4971 19.4567C29.161 19.4235 29.8252 19.37 30.4895 19.2896C30.5386 19.3292 30.6016 19.3531 30.6767 19.3545L30.6763 19.3659L30.7432 19.3552C30.8032 19.3558 30.8633 19.3564 30.9233 19.357L30.8939 19.5457C30.8391 19.544 30.7843 19.5423 30.7295 19.5407ZM27.3465 19.1805C28.1401 19.2154 28.9357 19.2364 29.732 19.2173C28.3695 19.343 27.0059 19.3654 25.6409 19.3429C24.6022 19.3258 23.5599 19.2825 22.5167 19.239C24.1269 19.2149 25.7368 19.1954 27.3465 19.1805ZM24.7056 19.0571C23.0237 19.0779 21.3415 19.1037 19.6591 19.1346C21.3439 19.0328 23.0275 19.0069 24.7056 19.0571ZM3.64227 19.1413C5.50714 19.0754 7.37165 19.0169 9.2358 18.9659C8.55421 19.0155 7.87263 19.0659 7.19103 19.1171C7.11925 19.1215 7.04747 19.126 6.97568 19.1305C6.87874 19.1302 6.7818 19.1298 6.68486 19.1295C6.06523 19.0967 5.44003 19.137 4.82012 19.2498C4.414 19.2262 4.00836 19.1949 3.60328 19.155C3.61629 19.1504 3.62929 19.1459 3.64227 19.1413ZM3.82989 18.9117C3.75787 18.9381 3.6857 18.9645 3.61351 18.9902C3.25441 19.0029 2.8953 19.0159 2.53617 19.0291C2.52891 19.0281 2.52164 19.0271 2.51437 19.0261L2.43122 19.0146L2.4305 19.033C2.42977 19.0331 2.42903 19.0331 2.4283 19.0331L2.42814 19.0331C2.32335 19.0372 2.24205 19.0853 2.18829 19.1559C2.1786 19.1686 2.16987 19.1819 2.16207 19.1958C2.04593 19.1652 1.93421 19.1168 1.82775 19.0467C2.52755 18.9889 3.22735 18.9319 3.92717 18.8759C3.90851 18.8828 3.88983 18.8897 3.87114 18.8965L3.82989 18.9117ZM1.49781 19.074C1.54068 19.0705 1.58355 19.0669 1.62642 19.0633L1.47604 19.5957C1.44043 19.5723 1.40506 19.5472 1.36995 19.5204C1.33943 19.4922 1.31646 19.4537 1.30485 19.4086C1.29297 19.3625 1.29369 19.3118 1.30764 19.2631C1.32158 19.2143 1.34789 19.1704 1.38281 19.1368C1.41667 19.1041 1.45671 19.0828 1.49781 19.074ZM1.71478 19.9136C1.71506 19.9064 1.71554 19.8993 1.71621 19.8923C1.77146 19.9143 1.82711 19.9333 1.88315 19.9494L1.87614 20.1468C1.82049 20.1436 1.78234 20.1181 1.75627 20.0801C1.72768 20.0384 1.71223 19.9786 1.71478 19.9136ZM5.99782 20.0605C5.30859 20.1044 4.61966 20.1369 3.93101 20.1529C4.42909 20.1147 4.92716 20.0782 5.42522 20.0433C5.61599 20.0506 5.80686 20.0563 5.99782 20.0605ZM16.9526 19.3784C16.8486 19.3803 16.7445 19.3824 16.6404 19.3845C16.6733 19.3814 16.7062 19.3783 16.739 19.3752C16.8102 19.3762 16.8814 19.3773 16.9526 19.3784ZM31.0769 19.3586C31.1171 19.359 31.1573 19.3594 31.1975 19.3598C31.1707 19.436 31.119 19.4987 31.0504 19.5286L31.0769 19.3586ZM10.7939 19.3059C11.1303 19.3088 11.4667 19.3118 11.8031 19.315C11.1095 19.3341 10.4158 19.3541 9.72215 19.375C10.0793 19.3548 10.4366 19.3316 10.7939 19.3059ZM12.752 18.9921C12.3456 19.029 11.9392 19.0643 11.533 19.097C11.8554 19.0647 12.1777 19.0327 12.5 19.0017C12.584 18.9984 12.668 18.9952 12.752 18.9921ZM3.96119 19.3406C3.49626 19.376 3.03133 19.413 2.56639 19.4513L2.56881 19.389C2.7534 19.3828 2.94086 19.3496 3.12681 19.3021C3.16598 19.2921 3.20519 19.2815 3.24439 19.2703C3.48313 19.2967 3.72207 19.3201 3.96119 19.3406ZM2.57473 19.2367L2.57662 19.1881C2.64766 19.1977 2.71872 19.2071 2.78979 19.2161C2.7171 19.2268 2.64537 19.2339 2.57473 19.2367ZM2.42458 19.1856L2.42263 19.2358C2.3907 19.2341 2.35903 19.2313 2.32764 19.2274C2.3519 19.2045 2.38352 19.1891 2.42458 19.1856ZM1.75181 19.1787C1.86841 19.2544 1.98981 19.3068 2.11447 19.3405C2.11194 19.3589 2.11054 19.3773 2.11023 19.3957C2.10971 19.4259 2.11231 19.4574 2.11821 19.4887C2.04402 19.495 1.96983 19.5012 1.89565 19.5076L1.89532 19.5076C1.85115 19.5116 1.81165 19.523 1.77665 19.54C1.73336 19.5435 1.69007 19.547 1.64678 19.5505L1.75181 19.1787ZM2.0281 20.1513L2.03399 19.9856C2.43673 20.0645 2.85775 20.0075 3.28731 19.8915C3.60392 19.9252 3.9209 19.9535 4.2382 19.9771C3.51009 20.0319 2.78198 20.0902 2.05385 20.152C2.04527 20.1518 2.03668 20.1515 2.0281 20.1513ZM8.02805 19.9031C7.80874 19.9088 7.58952 19.9129 7.3704 19.9154C7.8451 19.8863 8.31977 19.8586 8.79441 19.8325C8.53891 19.8567 8.28346 19.8804 8.02805 19.9031ZM9.39194 19.1433C9.50516 19.1374 9.61836 19.1315 9.73157 19.1258C9.66899 19.132 9.60642 19.1382 9.54385 19.1444C9.49322 19.144 9.44258 19.1437 9.39194 19.1433ZM2.41673 19.3877L2.41376 19.4639C2.36591 19.4679 2.31805 19.4719 2.2702 19.4759C2.26454 19.4517 2.26176 19.4256 2.26223 19.3983C2.26238 19.3894 2.2629 19.3807 2.26378 19.3721C2.31437 19.3799 2.36539 19.385 2.41673 19.3877ZM1.88874 19.7922C1.84728 19.7792 1.80614 19.7645 1.76529 19.748C1.7816 19.7239 1.80145 19.7037 1.8243 19.6887C1.84707 19.6868 1.86984 19.685 1.89261 19.6831L1.88874 19.7922ZM2.03946 19.8315L2.04499 19.6758C2.09915 19.6774 2.15331 19.6789 2.20748 19.6802C2.25321 19.7325 2.31587 19.7709 2.39711 19.7825L2.3974 19.7825C2.53782 19.8021 2.67831 19.8205 2.81888 19.8378C2.54852 19.8798 2.28869 19.8841 2.03946 19.8315ZM11.7756 19.5357C9.65833 19.6244 7.54025 19.7428 5.42187 19.8911L3.81511 19.7252C6.79422 19.6149 9.77261 19.5203 12.7503 19.4415C12.4254 19.4719 12.1004 19.5035 11.7756 19.5357ZM7.01545 19.2827C7.35199 19.284 7.68856 19.2856 8.02509 19.2873C7.99152 19.2902 7.95795 19.2932 7.92438 19.2961C7.51133 19.3057 7.09861 19.3099 6.68629 19.3076C6.79601 19.2993 6.90573 19.291 7.01545 19.2827ZM5.91064 19.4474C5.412 19.4776 4.91354 19.5016 4.41523 19.5174C4.46651 19.501 4.51787 19.4852 4.5694 19.4702C4.7781 19.4539 4.9868 19.4377 5.1955 19.4216C5.43374 19.4326 5.67212 19.4412 5.91064 19.4474ZM3.76524 19.5333C3.82387 19.5287 3.88251 19.5241 3.94114 19.5195C3.94037 19.5197 3.9396 19.52 3.93882 19.5203C3.92909 19.5237 3.91936 19.5272 3.90964 19.5306C3.86151 19.5316 3.81337 19.5325 3.76524 19.5333ZM33.9085 18.0095C33.9078 18.0269 33.9055 18.0441 33.9016 18.061C33.8459 18.0527 33.7902 18.0446 33.7345 18.0366L33.7438 17.7797C33.7896 17.788 33.8311 17.8133 33.8613 17.8528C33.8932 17.8944 33.9107 17.9497 33.9085 18.0095ZM32.9202 17.9309C33.1439 17.8924 33.3674 17.8511 33.5907 17.8072L33.5831 18.0153C33.3625 17.9848 33.1415 17.9566 32.9202 17.9309ZM34.1203 18.2483C34.0728 18.2497 34.0254 18.2513 33.9779 18.2529C33.9836 18.2451 33.9891 18.237 33.9943 18.2288C34.0363 18.2352 34.0783 18.2417 34.1203 18.2483ZM33.8198 18.2026C33.7919 18.228 33.7598 18.2458 33.7265 18.2551L33.7289 18.1894C33.7592 18.1937 33.7895 18.1981 33.8198 18.2026ZM33.3942 18.1431C33.4553 18.1512 33.5164 18.1595 33.5775 18.168L33.5746 18.2485C33.5275 18.2384 33.4805 18.2285 33.4334 18.2188C33.4233 18.1921 33.4102 18.1666 33.3942 18.1431ZM34.9479 18.8196L35.0087 18.4195C35.0285 18.4338 35.0459 18.4522 35.0601 18.4742C35.0905 18.5216 35.1035 18.5829 35.0939 18.646C35.0843 18.7092 35.0531 18.767 35.0078 18.8078C34.9915 18.8225 34.9739 18.8344 34.9557 18.8436C34.9534 18.8355 34.9508 18.8275 34.9479 18.8196ZM34.7891 18.8527C34.642 18.8253 34.4947 18.799 34.3473 18.7738L34.7907 18.842L34.7891 18.8527ZM27.6507 18.5517C27.5609 18.5518 27.4711 18.5519 27.3813 18.552C27.4171 18.5498 27.4529 18.5477 27.4887 18.5457C27.5427 18.5477 27.5967 18.5498 27.6507 18.5517Z" fill="#7E819E" stroke="#7E819E" stroke-width="0.152024"/>
<path d="M18.0515 16.6619C18.0595 16.3446 18.0673 16.0272 18.0749 15.7098C18.0955 14.8813 18.1147 14.0526 18.1326 13.2238C18.213 14.1665 18.305 15.1099 18.3969 16.052C18.399 16.0739 18.4011 16.0959 18.4033 16.1178C18.4507 18.5675 18.4553 21.0121 18.4169 23.4508C18.3743 24.7706 18.3287 26.09 18.28 27.409C18.2334 28.0414 18.2093 28.6774 18.2074 29.3163C18.1807 29.9962 18.1533 30.676 18.125 31.3557C18.1287 30.396 18.1306 29.4361 18.1308 28.476C18.1561 28.0458 18.186 27.6158 18.2159 27.1856C18.2282 27.0081 18.2405 26.8304 18.2526 26.6528L18.2526 26.6522C18.4098 24.031 18.3644 21.3776 18.1167 18.7082C18.1112 18.0275 18.0878 17.3453 18.0515 16.6619ZM18.0515 16.6619C18.0499 16.728 18.0482 16.794 18.0465 16.86C18.0527 17.2793 18.0585 17.6986 18.064 18.1178C18.0776 18.2704 18.091 18.4229 18.1042 18.5753M18.4293 32.9134C18.4226 33.1638 18.4159 33.4141 18.4093 33.6645C18.3898 33.6727 18.3618 33.6765 18.3283 33.6728C18.2514 33.2629 18.1941 32.8545 18.1528 32.4473C18.1828 32.4186 18.2067 32.3832 18.2225 32.3413L18.2354 32.3442L18.238 32.2845C18.2402 32.2722 18.2418 32.2595 18.2428 32.2463L18.2428 32.2463L18.2429 32.2452C18.2469 32.1767 18.2508 32.1082 18.2548 32.0397L18.3339 32.0492C18.3613 32.337 18.3931 32.6251 18.4293 32.9134ZM18.2635 31.8877C18.2664 31.8366 18.2693 31.7855 18.2721 31.7345C18.2841 31.7397 18.2959 31.7455 18.3072 31.7517C18.3112 31.7993 18.3154 31.8468 18.3197 31.8944L18.2635 31.8877ZM18.358 33.8262C18.3739 33.826 18.3896 33.8248 18.4052 33.8223C18.4034 33.89 18.4016 33.9577 18.3998 34.0253C18.3982 34.0183 18.3965 34.0113 18.3948 34.0042C18.3821 33.9449 18.3699 33.8855 18.358 33.8262ZM18.2932 31.5794C18.2891 31.5779 18.2851 31.5765 18.281 31.5752C18.2826 31.5451 18.2843 31.5151 18.2859 31.485C18.2883 31.5164 18.2907 31.5479 18.2932 31.5794ZM18.8009 33.3799C18.8477 33.6149 18.8987 33.8503 18.9543 34.0861C18.9408 34.1543 18.9268 34.2224 18.9124 34.2905L18.8794 34.2903C18.8589 33.9872 18.8327 33.6838 18.8009 33.3799ZM18.2466 34.0379C18.271 34.1522 18.297 34.2667 18.3247 34.3813L18.3387 34.4391L18.3505 34.4391C18.3601 34.4622 18.3714 34.4839 18.3843 34.5042C18.3369 34.8007 18.2846 35.0962 18.2273 35.3905C18.2149 34.8504 18.1846 34.3084 18.1365 33.7652C18.1538 33.7753 18.1718 33.7843 18.19 33.7919C18.2083 33.8739 18.2272 33.9559 18.2466 34.0379ZM18.4526 31.666C18.4054 31.0895 18.3761 30.5145 18.3647 29.9416C18.3675 29.8835 18.3702 29.8255 18.3729 29.7674C18.3962 30.2534 18.4314 30.7407 18.4811 31.2294C18.4791 31.3812 18.4771 31.5329 18.4751 31.6847C18.4678 31.6782 18.4603 31.672 18.4526 31.666ZM18.6332 31.2227C18.6342 31.1481 18.6351 31.0735 18.6361 30.9989C18.6385 31.1153 18.6419 31.2317 18.6464 31.3483C18.6419 31.3064 18.6375 31.2645 18.6332 31.2227ZM19.0386 33.6237C18.9316 33.037 18.8643 32.454 18.8257 31.8735C18.8899 30.8168 18.894 29.7499 18.8379 28.6765C18.8618 28.2257 18.891 27.7751 18.9202 27.324C18.943 26.9719 18.9658 26.6196 18.9861 26.2667L18.9862 26.2659C18.987 26.249 18.9878 26.2321 18.9886 26.2152L19.1074 26.2292C18.8178 28.4528 18.8251 30.7329 19.1274 33.0288C19.1012 33.2278 19.0717 33.4261 19.0386 33.6237ZM19.1196 34.0325C19.1497 33.8761 19.1774 33.7192 19.2028 33.5619C19.2077 33.5939 19.2126 33.626 19.2175 33.658C19.197 33.8307 19.1748 34.0031 19.151 34.1752C19.1402 34.1276 19.1298 34.08 19.1196 34.0325ZM18.1142 33.4379C18.1234 33.4825 18.1327 33.5272 18.1421 33.5718C18.1233 33.5461 18.1136 33.518 18.1139 33.4885L18.1139 33.4884C18.114 33.4715 18.1141 33.4547 18.1142 33.4379ZM18.5037 29.2281C18.4771 28.3711 18.4842 27.5167 18.5097 26.6633C18.5142 26.7003 18.5187 26.7374 18.523 26.7744C18.5182 27.5925 18.5117 28.4104 18.5037 29.2281ZM18.6546 29.3485C18.658 29.0025 18.6612 28.6565 18.6641 28.3104C18.672 28.4321 18.6792 28.5536 18.6856 28.6751C18.6737 28.8993 18.6632 29.1238 18.6546 29.3485ZM18.7685 27.312C18.7639 27.3829 18.7593 27.4537 18.7548 27.5246C18.7315 27.272 18.705 27.0191 18.6751 26.7659C18.6763 26.5701 18.6774 26.3743 18.6783 26.1785L18.8372 26.1973C18.8363 26.2176 18.8353 26.238 18.8343 26.2583C18.8141 26.6093 18.7913 26.9605 18.7685 27.312ZM19.0984 26.0751L18.9955 26.0629C18.9972 26.0247 18.9988 25.9865 19.0004 25.9483C19.0042 25.9511 19.0079 25.954 19.0115 25.9569C19.0544 25.9921 19.0836 26.0337 19.0984 26.0751ZM19.2019 32.3735C18.9981 30.4857 18.9957 28.6116 19.1953 26.7744C19.2093 26.8893 19.2226 27.0041 19.2353 27.1189C19.2359 27.1311 19.2365 27.1434 19.2371 27.1557C19.3176 28.9126 19.3672 30.665 19.2019 32.3735ZM19.2979 32.8931C19.2931 32.9449 19.2883 32.9966 19.2833 33.0483C19.2824 33.0417 19.2815 33.0351 19.2807 33.0286C19.2866 32.9834 19.2923 32.9383 19.2979 32.8931ZM19.3036 34.181C19.3471 34.4303 19.394 34.6797 19.4444 34.9292L19.1949 34.8995C19.2343 34.6607 19.2705 34.4212 19.3036 34.181ZM19.0349 34.4432L19.0526 34.4433C19.0532 34.4886 19.0362 34.5183 19.0135 34.5389C19.0207 34.5071 19.0279 34.4751 19.0349 34.4432ZM18.601 34.0876C18.6122 34.1546 18.6237 34.2217 18.6353 34.2888L18.5716 34.2884C18.5816 34.2215 18.5915 34.1546 18.601 34.0876ZM18.248 36.0411C18.2879 35.8591 18.3259 35.6767 18.362 35.4938C18.3583 35.6389 18.3547 35.784 18.351 35.9291L18.427 35.931L18.3511 35.9289C18.3493 35.9933 18.3212 36.027 18.2818 36.046C18.2805 36.0466 18.2792 36.0472 18.2779 36.0478L18.248 36.0411ZM18.503 35.9329C18.5137 35.5063 18.5246 35.0797 18.5356 34.6532C18.5914 34.6884 18.6532 34.7129 18.715 34.7273C18.7288 34.8005 18.743 34.8737 18.7574 34.9469L18.7439 34.999L18.7654 35.0015C18.7806 35.389 18.7865 35.7756 18.7832 36.161L18.4575 36.0881C18.485 36.046 18.5013 35.9941 18.503 35.9331L18.503 35.9329ZM18.2857 36.2053L18.7488 36.3091C18.7333 36.327 18.7132 36.3425 18.6885 36.3547C18.6344 36.3814 18.5629 36.3896 18.4881 36.3728C18.4135 36.3561 18.3455 36.3167 18.2983 36.2643C18.2827 36.247 18.27 36.229 18.2601 36.2109C18.2687 36.2094 18.2773 36.2075 18.2857 36.2053ZM17.8808 32.8112C18.0188 33.8968 18.0859 34.9787 18.0817 36.052C18.013 36.0338 17.9469 35.9987 17.8984 35.952C17.8472 35.9028 17.8183 35.8438 17.8197 35.7783L17.8198 35.7781C17.8395 34.7893 17.8599 33.8004 17.8808 32.8112ZM18.8441 26.045L18.6791 26.0255C18.6793 25.9822 18.6795 25.9389 18.6797 25.8956C18.7207 25.8786 18.7709 25.8716 18.8252 25.878C18.8338 25.8791 18.8424 25.8804 18.851 25.8821C18.8488 25.9364 18.8465 25.9907 18.8441 26.045ZM19.371 33.6552C19.6246 31.5116 19.6302 29.3189 19.3869 27.1069C19.2576 24.4054 19.1146 21.6985 18.958 18.9863L18.958 18.9862C18.8996 17.9888 18.8393 16.9913 18.7772 15.9937C18.8309 13.8322 18.8773 11.6698 18.9162 9.5064C19.1477 12.7747 19.358 16.0415 19.547 19.3066L19.547 19.3066C19.7106 22.1155 19.8666 24.9231 19.9839 27.7281L19.9839 27.7283C20.0907 30.1241 20.1055 32.4927 19.5624 34.7435C19.4912 34.3805 19.4274 34.0177 19.371 33.6552ZM18.3934 2.57347C18.4525 3.31211 18.5105 4.05068 18.5674 4.78916C18.5531 4.75138 18.5386 4.7135 18.5242 4.67559L18.5077 4.63232C18.479 4.55678 18.4503 4.48109 18.4224 4.40544C18.4121 4.04041 18.4014 3.67534 18.3903 3.31024C18.3915 3.30319 18.3927 3.29614 18.3938 3.2891L18.4068 3.21079L18.3873 3.20843C18.3872 3.20556 18.3871 3.2027 18.387 3.19983L18.387 3.19966C18.3826 3.06575 18.3063 2.97285 18.2081 2.91632C18.2457 2.79441 18.3058 2.67967 18.3934 2.57347ZM17.8182 2.36153L18.2498 2.50973C18.1645 2.62068 18.1048 2.73858 18.0658 2.86143C18.0437 2.8564 18.0216 2.85281 18.0001 2.85062C17.9613 2.8467 17.9217 2.84674 17.8827 2.85119C17.8763 2.77213 17.8698 2.69307 17.8632 2.61401L17.8632 2.61365C17.8592 2.56885 17.8469 2.52796 17.8284 2.49118C17.825 2.44796 17.8216 2.40475 17.8182 2.36153ZM18.379 2.39336L17.7688 2.18382C17.7947 2.15068 17.8225 2.11794 17.8522 2.0856C17.8833 2.05799 17.9268 2.03778 17.9794 2.03C18.0332 2.02204 18.0927 2.0278 18.1502 2.04772C18.2077 2.06764 18.259 2.10027 18.298 2.14078C18.3358 2.18007 18.3594 2.22389 18.3688 2.26617C18.3722 2.30857 18.3756 2.35096 18.379 2.39336Z" fill="#7E819E" stroke="#7E819E" stroke-width="0.152024"/>
<path d="M18.7451 2.19922C19.3253 10.6476 18.4892 19.1427 18.8672 27.5989C18.9562 29.5909 19.3443 31.5635 19.3443 33.5577" stroke="#7E819E" stroke-linecap="round" stroke-linejoin="round"/>
<path d="M16.8475 1C16.8475 4.07124 16.605 7.28394 16.9473 10.3432C17.0972 11.6826 17.0771 13.0372 17.1693 14.3823C17.2788 15.9816 17.4256 17.572 17.4966 19.1759C17.666 23.0034 17.4871 26.8266 17.8961 30.6441C18.0461 32.0443 18.1609 33.4609 18.351 34.8552C18.4261 35.4055 18.5349 35.9517 18.5452 36.5086C18.554 36.9807 17.9109 35.6607 17.8461 35.5543" stroke="#7E819E" stroke-linecap="round" stroke-linejoin="round"/>
<path d="M1.06836 21.174C4.84646 21.3618 8.60511 21.3821 12.3867 21.3738C16.1731 21.3654 19.9387 20.9793 23.7273 21.0964C27.1445 21.2019 30.5331 20.9026 33.9471 20.8744C34.273 20.8717 36.1521 21.0678 36.3772 20.7302C36.7085 20.2332 34.2489 18.2968 34.0247 18.0781" stroke="#7E819E" stroke-linecap="round" stroke-linejoin="round"/>
<path d="M13.252 5.0957C14.8688 10.2374 15.6396 15.7006 15.9928 21.069C16.153 23.5049 16.1862 25.9484 16.4977 28.3705C16.682 29.8039 16.899 31.2324 17.0469 32.6703C17.085 33.0404 17.1468 33.4179 17.1468 33.7911C17.1468 34.0988 16.8784 33.2373 16.7473 32.9588" stroke="#7E819E" stroke-linecap="round" stroke-linejoin="round"/>
<path d="M2.96582 20.5751C6.07876 20.6335 9.18713 20.7184 12.2979 20.5363C14.5777 20.4028 16.8451 20.1118 19.1222 19.9426C23.3673 19.6272 27.6228 19.5764 31.8776 19.5764C32.8522 19.5764 33.8268 19.5764 34.8015 19.5764C34.9943 19.5764 35.3313 19.6597 35.4229 19.4766" stroke="#7E819E" stroke-linecap="round" stroke-linejoin="round"/>
<path d="M8.6582 20.1747C15.1369 20.0658 21.6442 20.0489 28.1158 19.7253C28.8111 19.6905 29.0103 19.7032 28.7316 19.0762" stroke="#7E819E" stroke-linecap="round" stroke-linejoin="round"/>
<path d="M17.3469 1.2002C16.9566 6.68185 16.7037 12.1787 16.5812 17.6728C16.504 21.1345 16.6111 24.5512 16.9862 27.9925C17.0682 28.745 17.4835 30.962 17.2248 30.2506C16.6578 28.6915 16.4716 26.9843 16.1484 25.3682" stroke="#7E819E" stroke-linecap="round" stroke-linejoin="round"/>
<path d="M18.889 32.7084C18.756 31.1127 18.5897 29.5202 18.3951 27.9309C18.5217 29.6748 18.6239 31.4202 18.8779 33.1523C18.8884 33.2242 18.9334 33.4358 18.9334 33.3631C18.9334 33.2076 18.8979 32.8157 18.889 32.7084Z" fill="#7E819E"/>
<path d="M14.5503 6.89258C16.4478 15.4002 18.1638 24.0062 18.889 32.7084C18.8979 32.8157 18.9334 33.2076 18.9334 33.3631C18.9334 33.4358 18.8884 33.2242 18.8779 33.1523C18.5916 31.1999 18.4981 29.2306 18.3453 27.2656" stroke="#7E819E" stroke-linecap="round" stroke-linejoin="round"/>
<path d="M17.4468 4.99512C18.7554 11.8881 19.395 18.9246 19.8436 25.923C19.8905 26.6552 19.9435 27.4479 19.9435 28.1645" stroke="#7E819E" stroke-linecap="round" stroke-linejoin="round"/>
</svg>
