<svg width="51" height="41" viewBox="0 0 51 41" fill="none" xmlns="http://www.w3.org/2000/svg">
<path d="M28.7587 4.62824C28.7587 3.00821 28.7587 2.19819 29.096 1.57942C29.3927 1.03513 29.8661 0.592609 30.4484 0.31528C31.1104 0 31.9771 0 33.7103 0H45.0836C46.8168 0 47.6834 0 48.3454 0.31528C48.9278 0.592609 49.4012 1.03513 49.6979 1.57942C50.0352 2.19819 50.0352 3.00821 50.0352 4.62824V10.4859H50.1245C50.1574 10.4859 50.184 10.5108 50.184 10.5415V15.2699C50.184 15.3006 50.1574 15.3255 50.1245 15.3255H50.0352V36.1748C50.0352 37.7949 50.0352 38.6049 49.6979 39.2237C49.4012 39.768 48.9278 40.2105 48.3454 40.4878C47.6834 40.8031 46.8168 40.8031 45.0836 40.8031H33.7103C31.9771 40.8031 31.1104 40.8031 30.4484 40.4878C29.8661 40.2105 29.3927 39.768 29.096 39.2237C28.7587 38.6049 28.7587 37.7949 28.7587 36.1748V16.299H28.6694C28.6365 16.299 28.6099 16.2741 28.6099 16.2434V13.2394C28.6099 13.2087 28.6365 13.1838 28.6694 13.1838H28.7587V12.4885H28.6694C28.6365 12.4885 28.6099 12.4636 28.6099 12.4328V9.42893C28.6099 9.39821 28.6365 9.37331 28.6694 9.37331H28.7587V8.06605H28.6694C28.6365 8.06605 28.6099 8.04114 28.6099 8.01042V6.50847C28.6099 6.47774 28.6365 6.45284 28.6694 6.45284H28.7587V4.62824Z" fill="#7A602C"/>
<g style="mix-blend-mode:multiply">
<mask id="mask0" mask-type="alpha" maskUnits="userSpaceOnUse" x="28" y="0" width="23" height="41">
<path d="M28.7578 4.62824C28.7578 3.00821 28.7578 2.19819 29.0951 1.57942C29.3918 1.03513 29.8653 0.592609 30.4476 0.31528C31.1096 0 31.9762 0 33.7094 0H45.0827C46.816 0 47.6826 0 48.3446 0.31528C48.9269 0.592609 49.4004 1.03513 49.6971 1.57942C50.0344 2.19819 50.0344 3.00821 50.0344 4.62824V36.1748C50.0344 37.7949 50.0344 38.6049 49.6971 39.2237C49.4004 39.768 48.9269 40.2105 48.3446 40.4878C47.6826 40.8031 46.816 40.8031 45.0827 40.8031H33.7094C31.9762 40.8031 31.1096 40.8031 30.4476 40.4878C29.8653 40.2105 29.3918 39.768 29.0951 39.2237C28.7578 38.6049 28.7578 37.7949 28.7578 36.1748V4.62824Z" fill="black"/>
</mask>
<g mask="url(#mask0)">
<g filter="url(#filter0_i)">
<path d="M28.7578 4.62824C28.7578 3.00821 28.7578 2.19819 29.0951 1.57942C29.3918 1.03513 29.8653 0.592609 30.4476 0.31528C31.1096 0 31.9762 0 33.7094 0H45.0827C46.816 0 47.6826 0 48.3446 0.31528C48.9269 0.592609 49.4004 1.03513 49.6971 1.57942C50.0344 2.19819 50.0344 3.00821 50.0344 4.62824V36.1748C50.0344 37.7949 50.0344 38.6049 49.6971 39.2237C49.4004 39.768 48.9269 40.2105 48.3446 40.4878C47.6826 40.8031 46.816 40.8031 45.0827 40.8031H33.7094C31.9762 40.8031 31.1096 40.8031 30.4476 40.4878C29.8653 40.2105 29.3918 39.768 29.0951 39.2237C28.7578 38.6049 28.7578 37.7949 28.7578 36.1748V4.62824Z" fill="#EBEBEB"/>
</g>
<rect x="28.6382" y="3.47656" width="0.505876" height="0.389395" fill="url(#paint0_linear)"/>
<rect x="28.6382" y="37.1035" width="0.505876" height="0.389395" fill="url(#paint1_linear)"/>
<rect x="49.6465" y="3.47656" width="0.505876" height="0.389395" fill="url(#paint2_linear)"/>
<rect x="49.6465" y="37.1035" width="0.505876" height="0.389395" fill="url(#paint3_linear)"/>
<rect x="45.5107" y="-0.194336" width="0.472837" height="0.416604" transform="rotate(90 45.5107 -0.194336)" fill="url(#paint4_linear)"/>
<rect x="32.9829" y="40.4414" width="0.472837" height="0.416604" transform="rotate(90 32.9829 40.4414)" fill="url(#paint5_linear)"/>
</g>
<path d="M29.0036 4.53938C29.0036 3.78374 29.0036 3.21753 29.0429 2.76807C29.0822 2.31872 29.1607 1.98679 29.3172 1.69959C29.5931 1.19348 30.0334 0.781902 30.5751 0.523933C30.8825 0.377507 31.2379 0.304108 31.7187 0.267385C32.1997 0.230656 32.8055 0.230651 33.614 0.230651H45.1777C45.9861 0.230651 46.592 0.230656 47.0729 0.267385C47.5538 0.304108 47.9091 0.377507 48.2166 0.523933C48.7582 0.781902 49.1985 1.19348 49.4744 1.69959C49.631 1.98679 49.7095 2.31872 49.7488 2.76807C49.788 3.21753 49.7881 3.78374 49.7881 4.53938V36.264C49.7881 37.0196 49.788 37.5858 49.7488 38.0353C49.7095 38.4847 49.631 38.8166 49.4744 39.1038C49.1985 39.6099 48.7582 40.0215 48.2166 40.2794C47.9091 40.4259 47.5538 40.4993 47.0729 40.536C46.592 40.5727 45.9861 40.5727 45.1777 40.5727H33.614C32.8055 40.5727 32.1997 40.5727 31.7187 40.536C31.2379 40.4993 30.8825 40.4259 30.5751 40.2794C30.0334 40.0215 29.5931 39.6099 29.3172 39.1038C29.1607 38.8166 29.0822 38.4847 29.0429 38.0353C29.0036 37.5858 29.0036 37.0196 29.0036 36.264V4.53938Z" fill="black" stroke="url(#paint6_linear)" stroke-width="0.0159889"/>
<g filter="url(#filter1_ii)">
<path d="M28.6099 6.50778C28.6099 6.47705 28.6365 6.45215 28.6694 6.45215H28.7587V8.06536H28.6694C28.6365 8.06536 28.6099 8.04045 28.6099 8.00973V6.50778Z" fill="url(#paint7_linear)"/>
</g>
<g filter="url(#filter2_ii)">
<path d="M28.6089 9.4277C28.6089 9.39698 28.6355 9.37207 28.6684 9.37207H28.7577V12.4872H28.6684C28.6355 12.4872 28.6089 12.4623 28.6089 12.4316V9.4277Z" fill="url(#paint8_linear)"/>
</g>
<g filter="url(#filter3_ii)">
<path d="M50.0342 10.4854H50.1235C50.1563 10.4854 50.183 10.5103 50.183 10.541V15.2694C50.183 15.3001 50.1563 15.325 50.1235 15.325H50.0342V10.4854Z" fill="url(#paint9_linear)"/>
</g>
<g filter="url(#filter4_ii)">
<path d="M28.6089 13.2392C28.6089 13.2085 28.6355 13.1836 28.6684 13.1836H28.7577V16.2988H28.6684C28.6355 16.2988 28.6089 16.2739 28.6089 16.2431V13.2392Z" fill="url(#paint10_linear)"/>
</g>
</g>
<g style="mix-blend-mode:screen">
<mask id="mask1" mask-type="alpha" maskUnits="userSpaceOnUse" x="28" y="0" width="23" height="41">
<path d="M28.7578 4.62824C28.7578 3.00821 28.7578 2.19819 29.0951 1.57942C29.3918 1.03513 29.8653 0.592609 30.4476 0.31528C31.1096 0 31.9762 0 33.7094 0H45.0827C46.816 0 47.6826 0 48.3446 0.31528C48.9269 0.592609 49.4004 1.03513 49.6971 1.57942C50.0344 2.19819 50.0344 3.00821 50.0344 4.62824V36.1748C50.0344 37.7949 50.0344 38.6049 49.6971 39.2237C49.4004 39.768 48.9269 40.2105 48.3446 40.4878C47.6826 40.8031 46.816 40.8031 45.0827 40.8031H33.7094C31.9762 40.8031 31.1096 40.8031 30.4476 40.4878C29.8653 40.2105 29.3918 39.768 29.0951 39.2237C28.7578 38.6049 28.7578 37.7949 28.7578 36.1748V4.62824Z" fill="black"/>
</mask>
<g mask="url(#mask1)">
<g filter="url(#filter5_ii)">
<path d="M28.7578 4.62824C28.7578 3.00821 28.7578 2.19819 29.0951 1.57942C29.3918 1.03513 29.8653 0.592609 30.4476 0.31528C31.1096 0 31.9762 0 33.7094 0H45.0827C46.816 0 47.6826 0 48.3446 0.31528C48.9269 0.592609 49.4004 1.03513 49.6971 1.57942C50.0344 2.19819 50.0344 3.00821 50.0344 4.62824V36.1748C50.0344 37.7949 50.0344 38.6049 49.6971 39.2237C49.4004 39.768 48.9269 40.2105 48.3446 40.4878C47.6826 40.8031 46.816 40.8031 45.0827 40.8031H33.7094C31.9762 40.8031 31.1096 40.8031 30.4476 40.4878C29.8653 40.2105 29.3918 39.768 29.0951 39.2237C28.7578 38.6049 28.7578 37.7949 28.7578 36.1748V4.62824Z" fill="#050505"/>
</g>
<path d="M28.7898 4.62824C28.7898 3.81766 28.7898 3.21178 28.8318 2.73114C28.8738 2.25094 28.9575 1.89866 29.1232 1.59472C29.4165 1.0566 29.8848 0.618706 30.4613 0.344151C30.7873 0.188922 31.165 0.110566 31.6792 0.0712951C32.1938 0.0319996 32.8423 0.0319779 33.7094 0.0319779H45.0827C45.9499 0.0319779 46.5984 0.0319996 47.1129 0.0712951C47.6272 0.110566 48.0049 0.188922 48.3309 0.344151C48.9073 0.618706 49.3756 1.0566 49.669 1.59472C49.8347 1.89866 49.9184 2.25094 49.9604 2.73114C50.0024 3.21178 50.0024 3.81766 50.0024 4.62824V36.1748C50.0024 36.9854 50.0024 37.5913 49.9604 38.0719C49.9184 38.5521 49.8347 38.9044 49.669 39.2084C49.3756 39.7465 48.9073 40.1844 48.3309 40.4589C48.0049 40.6142 47.6272 40.6925 47.1129 40.7318C46.5984 40.7711 45.9499 40.7711 45.0827 40.7711H33.7094C32.8423 40.7711 32.1938 40.7711 31.6792 40.7318C31.165 40.6925 30.7873 40.6142 30.4613 40.4589C29.8848 40.1844 29.4165 39.7465 29.1232 39.2084C28.9575 38.9044 28.8738 38.5521 28.8318 38.0719C28.7898 37.5913 28.7898 36.9854 28.7898 36.1748V4.62824Z" stroke="url(#paint11_linear)" stroke-width="0.0639558"/>
<rect x="28.6382" y="3.47656" width="0.505876" height="0.389395" fill="url(#paint12_linear)"/>
<rect x="28.6382" y="37.1035" width="0.505876" height="0.389395" fill="url(#paint13_linear)"/>
<rect x="49.6465" y="3.47656" width="0.505876" height="0.389395" fill="url(#paint14_linear)"/>
<rect x="49.6465" y="37.1035" width="0.505876" height="0.389395" fill="url(#paint15_linear)"/>
<rect x="45.5107" y="-0.194336" width="0.472837" height="0.416604" transform="rotate(90 45.5107 -0.194336)" fill="url(#paint16_linear)"/>
<rect x="32.9829" y="40.4414" width="0.472837" height="0.416604" transform="rotate(90 32.9829 40.4414)" fill="url(#paint17_linear)"/>
</g>
<path d="M29.0036 4.53938C29.0036 3.78374 29.0036 3.21753 29.0429 2.76807C29.0822 2.31872 29.1607 1.98679 29.3172 1.69959C29.5931 1.19348 30.0334 0.781902 30.5751 0.523933C30.8825 0.377507 31.2379 0.304108 31.7187 0.267385C32.1997 0.230656 32.8055 0.230651 33.614 0.230651H45.1777C45.9861 0.230651 46.592 0.230656 47.0729 0.267385C47.5538 0.304108 47.9091 0.377507 48.2166 0.523933C48.7582 0.781902 49.1985 1.19348 49.4744 1.69959C49.631 1.98679 49.7095 2.31872 49.7488 2.76807C49.788 3.21753 49.7881 3.78374 49.7881 4.53938V36.264C49.7881 37.0196 49.788 37.5858 49.7488 38.0353C49.7095 38.4847 49.631 38.8166 49.4744 39.1038C49.1985 39.6099 48.7582 40.0215 48.2166 40.2794C47.9091 40.4259 47.5538 40.4993 47.0729 40.536C46.592 40.5727 45.9861 40.5727 45.1777 40.5727H33.614C32.8055 40.5727 32.1997 40.5727 31.7187 40.536C31.2379 40.4993 30.8825 40.4259 30.5751 40.2794C30.0334 40.0215 29.5931 39.6099 29.3172 39.1038C29.1607 38.8166 29.0822 38.4847 29.0429 38.0353C29.0036 37.5858 29.0036 37.0196 29.0036 36.264V4.53938Z" fill="#2E2E2E" stroke="url(#paint18_linear)" stroke-width="0.0159889"/>
<path d="M30.0204 2.03367C29.7998 2.43825 29.7998 2.96788 29.7998 4.02714V36.7753C29.7998 37.8346 29.7998 38.3642 30.0204 38.7688C30.2144 39.1246 30.5239 39.414 30.9047 39.5953C31.3375 39.8015 31.9041 39.8015 33.0374 39.8015H45.7557C46.889 39.8015 47.4556 39.8015 47.8885 39.5953C48.2692 39.414 48.5788 39.1246 48.7728 38.7688C48.9933 38.3642 48.9933 37.8346 48.9933 36.7753V4.02714C48.9933 2.96788 48.9933 2.43825 48.7728 2.03367C48.5788 1.67779 48.2692 1.38845 47.8885 1.20712C47.4556 1.00098 46.889 1.00098 45.7557 1.00098H44.7612C44.7119 1.00098 44.6873 1.00098 44.6676 1.00769C44.6345 1.01893 44.6085 1.04328 44.5964 1.07418C44.5892 1.09262 44.5892 1.11564 44.5892 1.16168C44.5892 1.53002 44.5892 1.7142 44.5318 1.86167C44.4355 2.10889 44.2272 2.30364 43.9627 2.39363C43.8049 2.4473 43.6079 2.4473 43.2138 2.4473H35.5794C35.1853 2.4473 34.9882 2.4473 34.8305 2.39363C34.566 2.30364 34.3576 2.10889 34.2613 1.86167C34.2039 1.7142 34.2039 1.53002 34.2039 1.16168C34.2039 1.11564 34.2039 1.09262 34.1967 1.07418C34.1847 1.04328 34.1586 1.01893 34.1256 1.00769C34.1059 1.00098 34.0812 1.00098 34.032 1.00098H33.0374C31.9041 1.00098 31.3375 1.00098 30.9047 1.20712C30.5239 1.38845 30.2144 1.67779 30.0204 2.03367Z" fill="black"/>
<g filter="url(#filter6_iiii)">
<path d="M28.6099 6.50778C28.6099 6.47705 28.6365 6.45215 28.6694 6.45215H28.7587V8.06536H28.6694C28.6365 8.06536 28.6099 8.04045 28.6099 8.00973V6.50778Z" fill="url(#paint19_linear)"/>
</g>
<g filter="url(#filter7_iiii)">
<path d="M28.6089 9.4277C28.6089 9.39698 28.6355 9.37207 28.6684 9.37207H28.7577V12.4872H28.6684C28.6355 12.4872 28.6089 12.4623 28.6089 12.4316V9.4277Z" fill="url(#paint20_linear)"/>
</g>
<g filter="url(#filter8_iiii)">
<path d="M50.0342 10.4854H50.1235C50.1563 10.4854 50.183 10.5103 50.183 10.541V15.2694C50.183 15.3001 50.1563 15.325 50.1235 15.325H50.0342V10.4854Z" fill="url(#paint21_linear)"/>
</g>
<g filter="url(#filter9_iiii)">
<path d="M28.6089 13.2392C28.6089 13.2085 28.6355 13.1836 28.6684 13.1836H28.7577V16.2988H28.6684C28.6355 16.2988 28.6089 16.2739 28.6089 16.2431V13.2392Z" fill="url(#paint22_linear)"/>
</g>
</g>
<mask id="mask2" mask-type="alpha" maskUnits="userSpaceOnUse" x="29" y="1" width="20" height="39">
<path d="M30.0204 2.03465C29.7998 2.43923 29.7998 2.96886 29.7998 4.02811V36.7763C29.7998 37.8355 29.7998 38.3652 30.0204 38.7697C30.2144 39.1256 30.5239 39.415 30.9047 39.5963C31.3375 39.8024 31.9041 39.8024 33.0374 39.8024H45.7557C46.889 39.8024 47.4556 39.8024 47.8885 39.5963C48.2692 39.415 48.5788 39.1256 48.7728 38.7697C48.9933 38.3652 48.9933 37.8355 48.9933 36.7763V4.02811C48.9933 2.96886 48.9933 2.43923 48.7728 2.03465C48.5788 1.67877 48.2692 1.38943 47.8885 1.2081C47.4556 1.00195 46.889 1.00195 45.7557 1.00195H44.7612C44.7119 1.00195 44.6873 1.00195 44.6676 1.00866C44.6345 1.01991 44.6085 1.04425 44.5964 1.07516C44.5892 1.09359 44.5892 1.11661 44.5892 1.16266C44.5892 1.531 44.5892 1.71517 44.5318 1.86265C44.4355 2.10987 44.2272 2.30462 43.9627 2.3946C43.8049 2.44828 43.6079 2.44828 43.2138 2.44828H35.5794C35.1853 2.44828 34.9882 2.44828 34.8305 2.3946C34.566 2.30462 34.3576 2.10987 34.2613 1.86265C34.2039 1.71517 34.2039 1.531 34.2039 1.16266C34.2039 1.11661 34.2039 1.09359 34.1967 1.07516C34.1847 1.04425 34.1586 1.01991 34.1256 1.00866C34.1059 1.00195 34.0812 1.00195 34.032 1.00195H33.0374C31.9041 1.00195 31.3375 1.00195 30.9047 1.2081C30.5239 1.38943 30.2144 1.67877 30.0204 2.03465Z" fill="#161616"/>
</mask>
<g mask="url(#mask2)">
<rect x="29.6509" y="0.983398" width="19.4603" height="39.0825" fill="#FFFDF4"/>
<path d="M46.7507 30.8915L42.6259 29.6885H36.1687L32.0424 30.8916C30.5633 31.3228 29.5474 32.6709 29.5474 34.2022V40.0369H49.2455V34.2021C49.2455 32.6708 48.2296 31.3228 46.7507 30.8915Z" fill="#FEB546"/>
<path d="M46.7505 30.8915L42.6257 29.6885H39.4146L39.4438 31.3109L42.6828 32.3058C44.1618 32.7371 45.1776 34.0851 45.1776 35.6164V40.0369H49.2453V34.202C49.2453 32.6708 48.2295 31.3228 46.7505 30.8915Z" fill="#F4A640"/>
<path d="M40.0259 33.6562H38.7672L37.6304 40.0276L37.6355 40.0372H41.165L40.0259 33.6562Z" fill="#EB5757"/>
<path d="M41.6618 29.9565V26.3379H37.1294V29.9565C37.1294 31.1999 39.3956 31.3103 39.3956 31.3103C39.3956 31.3103 41.6618 31.1999 41.6618 29.9565Z" fill="#F7CFBE"/>
<path d="M46.4508 40.0363V38.0391C46.4508 37.7748 46.2352 37.5605 45.9691 37.5605C45.703 37.5605 45.4873 37.7748 45.4873 38.0391V40.0363H46.4508Z" fill="#DE9630"/>
<path fill-rule="evenodd" clip-rule="evenodd" d="M43.1897 17.6115H43.232C43.9244 17.6115 44.4858 18.1692 44.4858 18.8571V21.5769L43.9077 21.9945H40.6687V21.9954H34.8837L34.3057 21.5778V18.8128C34.3057 17.2296 35.5976 15.9462 37.1913 15.9462H40.4175L40.4181 15.9471V15.9453H41.5125C42.205 15.9453 42.7663 16.503 42.7663 17.1909C42.7663 17.4232 42.9559 17.6115 43.1897 17.6115Z" fill="black"/>
<path d="M36.246 29.4498L35.6006 29.7376C35.2322 29.9019 35.1432 30.3817 35.4286 30.6656L37.2161 32.4441C37.4428 32.6633 37.7997 32.6768 38.0426 32.4753L39.4442 31.3122L37.0545 29.5384C36.8212 29.3652 36.5117 29.3313 36.246 29.4498Z" fill="#F1F9FF"/>
<path d="M41.7359 29.5486L39.4443 31.3114L40.7617 32.4303C41.0031 32.6353 41.3616 32.625 41.5906 32.4065L43.379 30.6764C43.6713 30.3936 43.584 29.907 43.2112 29.742L42.5533 29.4508C42.2835 29.3314 41.9695 29.369 41.7359 29.5486Z" fill="#F1F9FF"/>
<path d="M39.4442 31.3115L38.064 32.4566L38.7672 33.6565H40.0259L40.7292 32.4045L39.4442 31.3115Z" fill="#EB5757"/>
<path d="M33.3038 40.0383V38.0411C33.3038 37.7767 33.0882 37.5625 32.8221 37.5625C32.556 37.5625 32.3403 37.7767 32.3403 38.0411V40.0383H33.3038Z" fill="#DE9630"/>
<path d="M40.6688 24.0945V19.5907C39.5354 19.8046 38.3607 19.7303 37.256 19.3677L37.2544 19.3672C36.6585 19.1716 36.0445 19.6125 36.0445 20.2359V20.7104C36.0445 21.1891 35.6539 21.5771 35.1721 21.5771H34.3057V22.9944C34.3057 23.3565 34.6012 23.6501 34.9658 23.6501C35.0808 23.6501 35.1744 23.7397 35.1816 23.8537C35.3038 25.7787 36.7319 27.3515 38.5962 27.7063C39.8219 26.9582 40.6455 25.6231 40.6688 24.0945Z" fill="#F7CFBE"/>
<path d="M43.6194 21.5769C43.1375 21.5769 42.7469 21.1889 42.7469 20.7102V20.2359C42.7469 19.6124 42.1329 19.1715 41.5369 19.3672C41.1703 19.4876 40.7959 19.5753 40.418 19.6322V24.0328C40.3945 25.577 39.5313 26.918 38.2622 27.6271C38.6231 27.7269 39.003 27.7812 39.396 27.7812C41.6378 27.7812 43.4706 26.0457 43.6098 23.8536C43.617 23.7395 43.7107 23.65 43.8256 23.65C44.1902 23.65 44.4857 23.3564 44.4857 22.9942V21.577H43.6194V21.5769Z" fill="#FFBAA9"/>
</g>
<g filter="url(#filter10_i)">
<path d="M38.2505 1.53064C38.2505 1.42311 38.3437 1.33594 38.4588 1.33594H40.3633C40.4783 1.33594 40.5716 1.42311 40.5716 1.53064C40.5716 1.63816 40.4783 1.72533 40.3633 1.72533H38.4588C38.3437 1.72533 38.2505 1.63816 38.2505 1.53064Z" fill="#161616"/>
</g>
<g filter="url(#filter11_f)">
<path d="M38.2825 1.53064C38.2825 1.44277 38.3593 1.36792 38.4588 1.36792H40.3633C40.4627 1.36792 40.5396 1.44277 40.5396 1.53064C40.5396 1.6185 40.4627 1.69336 40.3633 1.69336H38.4588C38.3593 1.69336 38.2825 1.6185 38.2825 1.53064Z" stroke="black" stroke-opacity="0.32" stroke-width="0.0639558"/>
</g>
<path d="M38.2665 1.53064C38.2665 1.43294 38.3515 1.35193 38.4588 1.35193H40.3633C40.4705 1.35193 40.5556 1.43294 40.5556 1.53064C40.5556 1.62833 40.4705 1.70934 40.3633 1.70934H38.4588C38.3515 1.70934 38.2665 1.62833 38.2665 1.53064Z" stroke="url(#paint23_linear)" stroke-width="0.0319779"/>
<path d="M41.0479 1.53002C41.0479 1.31496 41.2344 1.14062 41.4645 1.14062C41.6945 1.14062 41.8811 1.31496 41.8811 1.53002C41.8811 1.74508 41.6945 1.91942 41.4645 1.91942C41.2344 1.91942 41.0479 1.74508 41.0479 1.53002Z" fill="url(#paint24_radial)"/>
<path d="M41.0479 1.53002C41.0479 1.31496 41.2344 1.14062 41.4645 1.14062C41.6945 1.14062 41.8811 1.31496 41.8811 1.53002C41.8811 1.74508 41.6945 1.91942 41.4645 1.91942C41.2344 1.91942 41.0479 1.74508 41.0479 1.53002Z" fill="url(#paint25_radial)"/>
<path d="M41.673 1.53064C41.673 1.42311 41.5797 1.33594 41.4646 1.33594C41.3496 1.33594 41.2563 1.42311 41.2563 1.53064C41.2563 1.63816 41.3496 1.72533 41.4646 1.72533C41.5797 1.72533 41.673 1.63816 41.673 1.53064Z" fill="url(#paint26_linear)"/>
<path d="M41.673 1.53064C41.673 1.42311 41.5797 1.33594 41.4646 1.33594C41.3496 1.33594 41.2563 1.42311 41.2563 1.53064C41.2563 1.63816 41.3496 1.72533 41.4646 1.72533C41.5797 1.72533 41.673 1.63816 41.673 1.53064Z" fill="url(#paint27_radial)"/>
<path d="M41.673 1.53064C41.673 1.42311 41.5797 1.33594 41.4646 1.33594C41.3496 1.33594 41.2563 1.42311 41.2563 1.53064C41.2563 1.63816 41.3496 1.72533 41.4646 1.72533C41.5797 1.72533 41.673 1.63816 41.673 1.53064Z" fill="url(#paint28_radial)"/>
<path d="M41.673 1.53064C41.673 1.42311 41.5797 1.33594 41.4646 1.33594C41.3496 1.33594 41.2563 1.42311 41.2563 1.53064C41.2563 1.63816 41.3496 1.72533 41.4646 1.72533C41.5797 1.72533 41.673 1.63816 41.673 1.53064Z" fill="url(#paint29_radial)"/>
<path d="M41.673 1.53064C41.673 1.42311 41.5797 1.33594 41.4646 1.33594C41.3496 1.33594 41.2563 1.42311 41.2563 1.53064C41.2563 1.63816 41.3496 1.72533 41.4646 1.72533C41.5797 1.72533 41.673 1.63816 41.673 1.53064Z" fill="url(#paint30_radial)"/>
<path d="M14.811 29.2262V25.1387H18.527V29.2262H14.811Z" fill="#F6CFBE"/>
<path d="M17.2261 28.1116V26.4395H18.5266V28.1116H17.2261Z" fill="#FFBAA9"/>
<path fill-rule="evenodd" clip-rule="evenodd" d="M21.871 21.4224L21.3137 21.0508H12.0239L11.4258 21.4224C11.4258 21.7261 11.4973 22.0385 11.5591 22.3552C11.8406 23.8303 12.7396 25.4031 13.92 26.4704L16.483 27.3678L19.4157 26.4704C20.598 25.4031 21.4969 23.8303 21.7785 22.3552C21.8384 22.0384 21.871 21.7261 21.871 21.4224Z" fill="#F6CFBE"/>
<path fill-rule="evenodd" clip-rule="evenodd" d="M27.6894 35.5743V40.2017C27.6894 40.3717 27.6664 40.4846 27.6218 40.5588C27.5624 40.6591 27.4643 40.691 27.3344 40.6992C27.2386 40.7059 27.1242 40.6992 26.992 40.6992H6.2161C5.91237 40.6992 5.6911 40.7333 5.58709 40.5588C5.54399 40.4846 5.521 40.3717 5.521 40.2017V35.5743C5.521 32.8277 8.36075 30.7791 10.8418 30.2816C12.3656 29.5718 19.9328 29.4612 22.3671 30.2816C22.9768 30.4049 23.6079 30.6195 24.214 30.9172C26.072 31.829 27.6894 33.5019 27.6894 35.5743Z" fill="#FEB546"/>
<path fill-rule="evenodd" clip-rule="evenodd" d="M19.8208 28.0654H13.3885H12.5191C12.3108 28.0654 12.2598 28.2737 12.1387 28.4438L10.842 30.2803C10.7208 30.4504 11.012 30.6587 11.2225 30.6587H21.989C22.1973 30.6587 22.4758 30.4589 22.3674 30.2803L21.262 28.4438C21.1557 28.2652 21.092 28.0654 20.8836 28.0654H19.8208Z" fill="#F1F9FF"/>
<path fill-rule="evenodd" clip-rule="evenodd" d="M21.9344 30.7171L20.5708 30.7124C20.7743 30.7906 20.7919 30.8798 20.9931 30.9728C22.9472 31.8795 24.6486 33.5428 24.6486 35.6035V40.2046C24.6486 40.3737 24.6241 40.4857 24.5771 40.5597C24.5144 40.659 24.4116 40.6907 24.2753 40.6992H25.7866H27.1974C27.3359 40.6992 27.4567 40.7055 27.5573 40.6992C27.6937 40.6907 27.7966 40.659 27.8591 40.5597C27.906 40.4857 27.9307 40.3737 27.9307 40.2046V35.6035C27.9307 33.5428 26.2293 31.8795 24.2752 30.9728C23.638 30.6769 22.974 30.4634 22.3323 30.3408C22.4464 30.5184 22.1535 30.7171 21.9344 30.7171Z" fill="#F4A640"/>
<path fill-rule="evenodd" clip-rule="evenodd" d="M18.2705 28.6245L18.4342 28.8945L18.9634 29.7744L19.2696 30.2803C19.3759 30.4589 19.0974 30.6587 18.8891 30.6587H20.5364H22.0096C22.2179 30.6587 22.4964 30.4589 22.388 30.2803L21.2826 28.4438C21.1763 28.2652 21.1126 28.0654 20.9042 28.0654H19.8413H17.7837C17.992 28.0654 18.0558 28.2652 18.1621 28.4438L18.2705 28.6245Z" fill="#DCDCDC"/>
<path d="M8.08154 40.6983V37.4289C8.08154 37.1215 8.33107 36.8721 8.63848 36.8721C8.94589 36.8721 9.19542 37.1215 9.19542 37.4289V40.6983H8.08154Z" fill="#DE9630"/>
<path d="M23.299 37.4289V40.6983H22.1851V37.4289C22.1851 37.1215 22.4346 36.8721 22.742 36.8721C23.0502 36.8721 23.299 37.1215 23.299 37.4289Z" fill="#DE9630"/>
<path d="M20.7557 22.909C20.1983 25.51 18.0307 26.4391 17.2256 27.1823C19.901 27.1823 20.8796 24.9527 21.3131 23.2806C21.3131 22.7232 21.1736 20.9591 20.7557 22.909Z" fill="#FFBAA9"/>
<path fill-rule="evenodd" clip-rule="evenodd" d="M12.7695 17.1517H12.7271C12.0309 17.1517 11.6522 17.4298 11.4665 18.404C11.2807 19.3783 12.7671 25.138 12.7671 25.138L15.5425 24.9529H18.1552L20.5706 25.1387C20.5706 25.1387 21.6853 21.0512 21.701 18.3596C21.7167 15.6679 20.4021 15.4775 18.7999 15.4775H15.5562L15.5561 15.4777V15.4766H14.4558C13.7596 15.4766 13.1952 16.0372 13.1952 16.7288C13.1952 16.9624 13.0046 17.1517 12.7695 17.1517Z" fill="black"/>
<path fill-rule="evenodd" clip-rule="evenodd" d="M1.99474 4.2207C0.893074 4.2207 0 5.11378 0 6.21544V10.7036C0 11.8053 0.893072 12.6983 1.99473 12.6983H8.59538L11.0297 15.1166C11.2416 15.3271 11.6039 15.178 11.6039 14.8803V12.6983H12.4671C13.5688 12.6983 14.4618 11.8053 14.4618 10.7036V6.21544C14.4618 5.11378 13.5688 4.2207 12.4671 4.2207H1.99474Z" fill="#603BE6"/>
<path d="M2.60538 6.93732H11.3932C11.7303 6.93732 12.0034 6.66417 12.0034 6.32706C12.0034 5.98995 11.7303 5.7168 11.3932 5.7168H2.60538C2.26827 5.7168 1.99512 5.98995 1.99512 6.32706C1.99512 6.66417 2.26827 6.93732 2.60538 6.93732Z" fill="white"/>
<path d="M2.60538 9.13459H6.13391C6.47102 9.13459 6.74418 8.86143 6.74418 8.52432C6.74418 8.18722 6.47102 7.91406 6.13391 7.91406H2.60538C2.26827 7.91406 1.99512 8.18722 1.99512 8.52432C1.99512 8.86143 2.26827 9.13459 2.60538 9.13459Z" fill="white"/>
<path d="M11.3925 7.91406H8.33585C7.99874 7.91406 7.72559 8.18722 7.72559 8.52432C7.72559 8.86143 7.99874 9.13459 8.33585 9.13459H11.3925C11.7296 9.13459 12.0027 8.86143 12.0027 8.52432C12.0027 8.18722 11.7295 7.91406 11.3925 7.91406Z" fill="white"/>
<path d="M11.3931 10.1113H2.60538C2.26827 10.1113 1.99512 10.3845 1.99512 10.7216C1.99512 11.0587 2.26827 11.3319 2.60538 11.3319H11.3931C11.7303 11.3319 12.0034 11.0587 12.0034 10.7216C12.0034 10.3845 11.7302 10.1113 11.3931 10.1113Z" fill="white"/>
<defs>
<filter id="filter0_i" x="28.7578" y="0" width="21.2766" height="40.8031" filterUnits="userSpaceOnUse" color-interpolation-filters="sRGB">
<feFlood flood-opacity="0" result="BackgroundImageFix"/>
<feBlend mode="normal" in="SourceGraphic" in2="BackgroundImageFix" result="shape"/>
<feColorMatrix in="SourceAlpha" type="matrix" values="0 0 0 0 0 0 0 0 0 0 0 0 0 0 0 0 0 0 127 0" result="hardAlpha"/>
<feOffset/>
<feGaussianBlur stdDeviation="0.255823"/>
<feComposite in2="hardAlpha" operator="arithmetic" k2="-1" k3="1"/>
<feColorMatrix type="matrix" values="0 0 0 0 0 0 0 0 0 0 0 0 0 0 0 0 0 0 0.32 0"/>
<feBlend mode="normal" in2="shape" result="effect1_innerShadow"/>
</filter>
<filter id="filter1_ii" x="28.6099" y="6.38819" width="0.148787" height="1.74112" filterUnits="userSpaceOnUse" color-interpolation-filters="sRGB">
<feFlood flood-opacity="0" result="BackgroundImageFix"/>
<feBlend mode="normal" in="SourceGraphic" in2="BackgroundImageFix" result="shape"/>
<feColorMatrix in="SourceAlpha" type="matrix" values="0 0 0 0 0 0 0 0 0 0 0 0 0 0 0 0 0 0 127 0" result="hardAlpha"/>
<feOffset dy="0.127912"/>
<feGaussianBlur stdDeviation="0.0319779"/>
<feComposite in2="hardAlpha" operator="arithmetic" k2="-1" k3="1"/>
<feColorMatrix type="matrix" values="0 0 0 0 1 0 0 0 0 1 0 0 0 0 1 0 0 0 0.64 0"/>
<feBlend mode="normal" in2="shape" result="effect1_innerShadow"/>
<feColorMatrix in="SourceAlpha" type="matrix" values="0 0 0 0 0 0 0 0 0 0 0 0 0 0 0 0 0 0 127 0" result="hardAlpha"/>
<feOffset dy="-0.127912"/>
<feGaussianBlur stdDeviation="0.0319779"/>
<feComposite in2="hardAlpha" operator="arithmetic" k2="-1" k3="1"/>
<feColorMatrix type="matrix" values="0 0 0 0 1 0 0 0 0 1 0 0 0 0 1 0 0 0 0.64 0"/>
<feBlend mode="normal" in2="effect1_innerShadow" result="effect2_innerShadow"/>
</filter>
<filter id="filter2_ii" x="28.6089" y="9.30811" width="0.148787" height="3.24308" filterUnits="userSpaceOnUse" color-interpolation-filters="sRGB">
<feFlood flood-opacity="0" result="BackgroundImageFix"/>
<feBlend mode="normal" in="SourceGraphic" in2="BackgroundImageFix" result="shape"/>
<feColorMatrix in="SourceAlpha" type="matrix" values="0 0 0 0 0 0 0 0 0 0 0 0 0 0 0 0 0 0 127 0" result="hardAlpha"/>
<feOffset dy="0.127912"/>
<feGaussianBlur stdDeviation="0.0319779"/>
<feComposite in2="hardAlpha" operator="arithmetic" k2="-1" k3="1"/>
<feColorMatrix type="matrix" values="0 0 0 0 1 0 0 0 0 1 0 0 0 0 1 0 0 0 0.64 0"/>
<feBlend mode="normal" in2="shape" result="effect1_innerShadow"/>
<feColorMatrix in="SourceAlpha" type="matrix" values="0 0 0 0 0 0 0 0 0 0 0 0 0 0 0 0 0 0 127 0" result="hardAlpha"/>
<feOffset dy="-0.127912"/>
<feGaussianBlur stdDeviation="0.0319779"/>
<feComposite in2="hardAlpha" operator="arithmetic" k2="-1" k3="1"/>
<feColorMatrix type="matrix" values="0 0 0 0 1 0 0 0 0 1 0 0 0 0 1 0 0 0 0.64 0"/>
<feBlend mode="normal" in2="effect1_innerShadow" result="effect2_innerShadow"/>
</filter>
<filter id="filter3_ii" x="50.0342" y="10.4214" width="0.148787" height="4.96754" filterUnits="userSpaceOnUse" color-interpolation-filters="sRGB">
<feFlood flood-opacity="0" result="BackgroundImageFix"/>
<feBlend mode="normal" in="SourceGraphic" in2="BackgroundImageFix" result="shape"/>
<feColorMatrix in="SourceAlpha" type="matrix" values="0 0 0 0 0 0 0 0 0 0 0 0 0 0 0 0 0 0 127 0" result="hardAlpha"/>
<feOffset dy="0.127912"/>
<feGaussianBlur stdDeviation="0.0319779"/>
<feComposite in2="hardAlpha" operator="arithmetic" k2="-1" k3="1"/>
<feColorMatrix type="matrix" values="0 0 0 0 1 0 0 0 0 1 0 0 0 0 1 0 0 0 0.64 0"/>
<feBlend mode="normal" in2="shape" result="effect1_innerShadow"/>
<feColorMatrix in="SourceAlpha" type="matrix" values="0 0 0 0 0 0 0 0 0 0 0 0 0 0 0 0 0 0 127 0" result="hardAlpha"/>
<feOffset dy="-0.127912"/>
<feGaussianBlur stdDeviation="0.0319779"/>
<feComposite in2="hardAlpha" operator="arithmetic" k2="-1" k3="1"/>
<feColorMatrix type="matrix" values="0 0 0 0 1 0 0 0 0 1 0 0 0 0 1 0 0 0 0.64 0"/>
<feBlend mode="normal" in2="effect1_innerShadow" result="effect2_innerShadow"/>
</filter>
<filter id="filter4_ii" x="28.6089" y="13.1196" width="0.148787" height="3.24308" filterUnits="userSpaceOnUse" color-interpolation-filters="sRGB">
<feFlood flood-opacity="0" result="BackgroundImageFix"/>
<feBlend mode="normal" in="SourceGraphic" in2="BackgroundImageFix" result="shape"/>
<feColorMatrix in="SourceAlpha" type="matrix" values="0 0 0 0 0 0 0 0 0 0 0 0 0 0 0 0 0 0 127 0" result="hardAlpha"/>
<feOffset dy="0.127912"/>
<feGaussianBlur stdDeviation="0.0319779"/>
<feComposite in2="hardAlpha" operator="arithmetic" k2="-1" k3="1"/>
<feColorMatrix type="matrix" values="0 0 0 0 1 0 0 0 0 1 0 0 0 0 1 0 0 0 0.64 0"/>
<feBlend mode="normal" in2="shape" result="effect1_innerShadow"/>
<feColorMatrix in="SourceAlpha" type="matrix" values="0 0 0 0 0 0 0 0 0 0 0 0 0 0 0 0 0 0 127 0" result="hardAlpha"/>
<feOffset dy="-0.127912"/>
<feGaussianBlur stdDeviation="0.0319779"/>
<feComposite in2="hardAlpha" operator="arithmetic" k2="-1" k3="1"/>
<feColorMatrix type="matrix" values="0 0 0 0 1 0 0 0 0 1 0 0 0 0 1 0 0 0 0.64 0"/>
<feBlend mode="normal" in2="effect1_innerShadow" result="effect2_innerShadow"/>
</filter>
<filter id="filter5_ii" x="28.7578" y="0" width="21.2766" height="40.8031" filterUnits="userSpaceOnUse" color-interpolation-filters="sRGB">
<feFlood flood-opacity="0" result="BackgroundImageFix"/>
<feBlend mode="normal" in="SourceGraphic" in2="BackgroundImageFix" result="shape"/>
<feColorMatrix in="SourceAlpha" type="matrix" values="0 0 0 0 0 0 0 0 0 0 0 0 0 0 0 0 0 0 127 0" result="hardAlpha"/>
<feOffset/>
<feGaussianBlur stdDeviation="0.159889"/>
<feComposite in2="hardAlpha" operator="arithmetic" k2="-1" k3="1"/>
<feColorMatrix type="matrix" values="0 0 0 0 1 0 0 0 0 1 0 0 0 0 1 0 0 0 0.88 0"/>
<feBlend mode="normal" in2="shape" result="effect1_innerShadow"/>
<feColorMatrix in="SourceAlpha" type="matrix" values="0 0 0 0 0 0 0 0 0 0 0 0 0 0 0 0 0 0 127 0" result="hardAlpha"/>
<feOffset/>
<feGaussianBlur stdDeviation="0.0799447"/>
<feComposite in2="hardAlpha" operator="arithmetic" k2="-1" k3="1"/>
<feColorMatrix type="matrix" values="0 0 0 0 0 0 0 0 0 0 0 0 0 0 0 0 0 0 1 0"/>
<feBlend mode="normal" in2="effect1_innerShadow" result="effect2_innerShadow"/>
</filter>
<filter id="filter6_iiii" x="28.6099" y="6.38819" width="0.148787" height="1.74112" filterUnits="userSpaceOnUse" color-interpolation-filters="sRGB">
<feFlood flood-opacity="0" result="BackgroundImageFix"/>
<feBlend mode="normal" in="SourceGraphic" in2="BackgroundImageFix" result="shape"/>
<feColorMatrix in="SourceAlpha" type="matrix" values="0 0 0 0 0 0 0 0 0 0 0 0 0 0 0 0 0 0 127 0" result="hardAlpha"/>
<feOffset dy="0.127912"/>
<feGaussianBlur stdDeviation="0.0319779"/>
<feComposite in2="hardAlpha" operator="arithmetic" k2="-1" k3="1"/>
<feColorMatrix type="matrix" values="0 0 0 0 1 0 0 0 0 1 0 0 0 0 1 0 0 0 0.08 0"/>
<feBlend mode="normal" in2="shape" result="effect1_innerShadow"/>
<feColorMatrix in="SourceAlpha" type="matrix" values="0 0 0 0 0 0 0 0 0 0 0 0 0 0 0 0 0 0 127 0" result="hardAlpha"/>
<feOffset dy="-0.127912"/>
<feGaussianBlur stdDeviation="0.0319779"/>
<feComposite in2="hardAlpha" operator="arithmetic" k2="-1" k3="1"/>
<feColorMatrix type="matrix" values="0 0 0 0 1 0 0 0 0 1 0 0 0 0 1 0 0 0 0.08 0"/>
<feBlend mode="normal" in2="effect1_innerShadow" result="effect2_innerShadow"/>
<feColorMatrix in="SourceAlpha" type="matrix" values="0 0 0 0 0 0 0 0 0 0 0 0 0 0 0 0 0 0 127 0" result="hardAlpha"/>
<feOffset dy="0.0319779"/>
<feGaussianBlur stdDeviation="0.0159889"/>
<feComposite in2="hardAlpha" operator="arithmetic" k2="-1" k3="1"/>
<feColorMatrix type="matrix" values="0 0 0 0 1 0 0 0 0 1 0 0 0 0 1 0 0 0 0.32 0"/>
<feBlend mode="normal" in2="effect2_innerShadow" result="effect3_innerShadow"/>
<feColorMatrix in="SourceAlpha" type="matrix" values="0 0 0 0 0 0 0 0 0 0 0 0 0 0 0 0 0 0 127 0" result="hardAlpha"/>
<feOffset dy="-0.0319779"/>
<feGaussianBlur stdDeviation="0.0159889"/>
<feComposite in2="hardAlpha" operator="arithmetic" k2="-1" k3="1"/>
<feColorMatrix type="matrix" values="0 0 0 0 1 0 0 0 0 1 0 0 0 0 1 0 0 0 0.32 0"/>
<feBlend mode="normal" in2="effect3_innerShadow" result="effect4_innerShadow"/>
</filter>
<filter id="filter7_iiii" x="28.6089" y="9.30811" width="0.148787" height="3.24308" filterUnits="userSpaceOnUse" color-interpolation-filters="sRGB">
<feFlood flood-opacity="0" result="BackgroundImageFix"/>
<feBlend mode="normal" in="SourceGraphic" in2="BackgroundImageFix" result="shape"/>
<feColorMatrix in="SourceAlpha" type="matrix" values="0 0 0 0 0 0 0 0 0 0 0 0 0 0 0 0 0 0 127 0" result="hardAlpha"/>
<feOffset dy="0.127912"/>
<feGaussianBlur stdDeviation="0.0319779"/>
<feComposite in2="hardAlpha" operator="arithmetic" k2="-1" k3="1"/>
<feColorMatrix type="matrix" values="0 0 0 0 1 0 0 0 0 1 0 0 0 0 1 0 0 0 0.08 0"/>
<feBlend mode="normal" in2="shape" result="effect1_innerShadow"/>
<feColorMatrix in="SourceAlpha" type="matrix" values="0 0 0 0 0 0 0 0 0 0 0 0 0 0 0 0 0 0 127 0" result="hardAlpha"/>
<feOffset dy="-0.127912"/>
<feGaussianBlur stdDeviation="0.0319779"/>
<feComposite in2="hardAlpha" operator="arithmetic" k2="-1" k3="1"/>
<feColorMatrix type="matrix" values="0 0 0 0 1 0 0 0 0 1 0 0 0 0 1 0 0 0 0.08 0"/>
<feBlend mode="normal" in2="effect1_innerShadow" result="effect2_innerShadow"/>
<feColorMatrix in="SourceAlpha" type="matrix" values="0 0 0 0 0 0 0 0 0 0 0 0 0 0 0 0 0 0 127 0" result="hardAlpha"/>
<feOffset dy="0.0319779"/>
<feGaussianBlur stdDeviation="0.0159889"/>
<feComposite in2="hardAlpha" operator="arithmetic" k2="-1" k3="1"/>
<feColorMatrix type="matrix" values="0 0 0 0 1 0 0 0 0 1 0 0 0 0 1 0 0 0 0.32 0"/>
<feBlend mode="normal" in2="effect2_innerShadow" result="effect3_innerShadow"/>
<feColorMatrix in="SourceAlpha" type="matrix" values="0 0 0 0 0 0 0 0 0 0 0 0 0 0 0 0 0 0 127 0" result="hardAlpha"/>
<feOffset dy="-0.0319779"/>
<feGaussianBlur stdDeviation="0.0159889"/>
<feComposite in2="hardAlpha" operator="arithmetic" k2="-1" k3="1"/>
<feColorMatrix type="matrix" values="0 0 0 0 1 0 0 0 0 1 0 0 0 0 1 0 0 0 0.32 0"/>
<feBlend mode="normal" in2="effect3_innerShadow" result="effect4_innerShadow"/>
</filter>
<filter id="filter8_iiii" x="50.0342" y="10.4214" width="0.148787" height="4.96754" filterUnits="userSpaceOnUse" color-interpolation-filters="sRGB">
<feFlood flood-opacity="0" result="BackgroundImageFix"/>
<feBlend mode="normal" in="SourceGraphic" in2="BackgroundImageFix" result="shape"/>
<feColorMatrix in="SourceAlpha" type="matrix" values="0 0 0 0 0 0 0 0 0 0 0 0 0 0 0 0 0 0 127 0" result="hardAlpha"/>
<feOffset dy="0.127912"/>
<feGaussianBlur stdDeviation="0.0319779"/>
<feComposite in2="hardAlpha" operator="arithmetic" k2="-1" k3="1"/>
<feColorMatrix type="matrix" values="0 0 0 0 1 0 0 0 0 1 0 0 0 0 1 0 0 0 0.08 0"/>
<feBlend mode="normal" in2="shape" result="effect1_innerShadow"/>
<feColorMatrix in="SourceAlpha" type="matrix" values="0 0 0 0 0 0 0 0 0 0 0 0 0 0 0 0 0 0 127 0" result="hardAlpha"/>
<feOffset dy="-0.127912"/>
<feGaussianBlur stdDeviation="0.0319779"/>
<feComposite in2="hardAlpha" operator="arithmetic" k2="-1" k3="1"/>
<feColorMatrix type="matrix" values="0 0 0 0 1 0 0 0 0 1 0 0 0 0 1 0 0 0 0.08 0"/>
<feBlend mode="normal" in2="effect1_innerShadow" result="effect2_innerShadow"/>
<feColorMatrix in="SourceAlpha" type="matrix" values="0 0 0 0 0 0 0 0 0 0 0 0 0 0 0 0 0 0 127 0" result="hardAlpha"/>
<feOffset dy="0.0319779"/>
<feGaussianBlur stdDeviation="0.0159889"/>
<feComposite in2="hardAlpha" operator="arithmetic" k2="-1" k3="1"/>
<feColorMatrix type="matrix" values="0 0 0 0 1 0 0 0 0 1 0 0 0 0 1 0 0 0 0.32 0"/>
<feBlend mode="normal" in2="effect2_innerShadow" result="effect3_innerShadow"/>
<feColorMatrix in="SourceAlpha" type="matrix" values="0 0 0 0 0 0 0 0 0 0 0 0 0 0 0 0 0 0 127 0" result="hardAlpha"/>
<feOffset dy="-0.0319779"/>
<feGaussianBlur stdDeviation="0.0159889"/>
<feComposite in2="hardAlpha" operator="arithmetic" k2="-1" k3="1"/>
<feColorMatrix type="matrix" values="0 0 0 0 1 0 0 0 0 1 0 0 0 0 1 0 0 0 0.32 0"/>
<feBlend mode="normal" in2="effect3_innerShadow" result="effect4_innerShadow"/>
</filter>
<filter id="filter9_iiii" x="28.6089" y="13.1196" width="0.148787" height="3.24308" filterUnits="userSpaceOnUse" color-interpolation-filters="sRGB">
<feFlood flood-opacity="0" result="BackgroundImageFix"/>
<feBlend mode="normal" in="SourceGraphic" in2="BackgroundImageFix" result="shape"/>
<feColorMatrix in="SourceAlpha" type="matrix" values="0 0 0 0 0 0 0 0 0 0 0 0 0 0 0 0 0 0 127 0" result="hardAlpha"/>
<feOffset dy="0.127912"/>
<feGaussianBlur stdDeviation="0.0319779"/>
<feComposite in2="hardAlpha" operator="arithmetic" k2="-1" k3="1"/>
<feColorMatrix type="matrix" values="0 0 0 0 1 0 0 0 0 1 0 0 0 0 1 0 0 0 0.08 0"/>
<feBlend mode="normal" in2="shape" result="effect1_innerShadow"/>
<feColorMatrix in="SourceAlpha" type="matrix" values="0 0 0 0 0 0 0 0 0 0 0 0 0 0 0 0 0 0 127 0" result="hardAlpha"/>
<feOffset dy="-0.127912"/>
<feGaussianBlur stdDeviation="0.0319779"/>
<feComposite in2="hardAlpha" operator="arithmetic" k2="-1" k3="1"/>
<feColorMatrix type="matrix" values="0 0 0 0 1 0 0 0 0 1 0 0 0 0 1 0 0 0 0.08 0"/>
<feBlend mode="normal" in2="effect1_innerShadow" result="effect2_innerShadow"/>
<feColorMatrix in="SourceAlpha" type="matrix" values="0 0 0 0 0 0 0 0 0 0 0 0 0 0 0 0 0 0 127 0" result="hardAlpha"/>
<feOffset dy="0.0319779"/>
<feGaussianBlur stdDeviation="0.0159889"/>
<feComposite in2="hardAlpha" operator="arithmetic" k2="-1" k3="1"/>
<feColorMatrix type="matrix" values="0 0 0 0 1 0 0 0 0 1 0 0 0 0 1 0 0 0 0.32 0"/>
<feBlend mode="normal" in2="effect2_innerShadow" result="effect3_innerShadow"/>
<feColorMatrix in="SourceAlpha" type="matrix" values="0 0 0 0 0 0 0 0 0 0 0 0 0 0 0 0 0 0 127 0" result="hardAlpha"/>
<feOffset dy="-0.0319779"/>
<feGaussianBlur stdDeviation="0.0159889"/>
<feComposite in2="hardAlpha" operator="arithmetic" k2="-1" k3="1"/>
<feColorMatrix type="matrix" values="0 0 0 0 1 0 0 0 0 1 0 0 0 0 1 0 0 0 0.32 0"/>
<feBlend mode="normal" in2="effect3_innerShadow" result="effect4_innerShadow"/>
</filter>
<filter id="filter10_i" x="38.2505" y="1.33594" width="2.32108" height="0.389395" filterUnits="userSpaceOnUse" color-interpolation-filters="sRGB">
<feFlood flood-opacity="0" result="BackgroundImageFix"/>
<feBlend mode="normal" in="SourceGraphic" in2="BackgroundImageFix" result="shape"/>
<feColorMatrix in="SourceAlpha" type="matrix" values="0 0 0 0 0 0 0 0 0 0 0 0 0 0 0 0 0 0 127 0" result="hardAlpha"/>
<feOffset/>
<feGaussianBlur stdDeviation="0.127912"/>
<feComposite in2="hardAlpha" operator="arithmetic" k2="-1" k3="1"/>
<feColorMatrix type="matrix" values="0 0 0 0 0 0 0 0 0 0 0 0 0 0 0 0 0 0 0.48 0"/>
<feBlend mode="normal" in2="shape" result="effect1_innerShadow"/>
</filter>
<filter id="filter11_f" x="38.2185" y="1.30396" width="2.38504" height="0.453351" filterUnits="userSpaceOnUse" color-interpolation-filters="sRGB">
<feFlood flood-opacity="0" result="BackgroundImageFix"/>
<feBlend mode="normal" in="SourceGraphic" in2="BackgroundImageFix" result="shape"/>
<feGaussianBlur stdDeviation="0.0159889" result="effect1_foregroundBlur"/>
</filter>
<linearGradient id="paint0_linear" x1="28.6382" y1="3.68517" x2="29.1441" y2="3.68517" gradientUnits="userSpaceOnUse">
<stop offset="0.109375" stop-color="#D1D1D1"/>
<stop offset="0.317708" stop-color="#E3E3E3"/>
<stop offset="0.552083" stop-color="#D2D2D2"/>
<stop offset="0.807292" stop-color="#E6E6E6"/>
</linearGradient>
<linearGradient id="paint1_linear" x1="28.6382" y1="37.3121" x2="29.1441" y2="37.3121" gradientUnits="userSpaceOnUse">
<stop offset="0.109375" stop-color="#D1D1D1"/>
<stop offset="0.317708" stop-color="#E3E3E3"/>
<stop offset="0.552083" stop-color="#D2D2D2"/>
<stop offset="0.807292" stop-color="#E6E6E6"/>
</linearGradient>
<linearGradient id="paint2_linear" x1="49.6465" y1="3.68517" x2="50.1524" y2="3.68517" gradientUnits="userSpaceOnUse">
<stop offset="0.0988321" stop-color="#E6E6E6"/>
<stop offset="0.368786" stop-color="#D2D2D2"/>
<stop offset="0.624532" stop-color="#E3E3E3"/>
<stop offset="0.798581" stop-color="#D1D1D1"/>
</linearGradient>
<linearGradient id="paint3_linear" x1="49.6465" y1="37.3121" x2="50.1524" y2="37.3121" gradientUnits="userSpaceOnUse">
<stop offset="0.0988321" stop-color="#E6E6E6"/>
<stop offset="0.368786" stop-color="#D2D2D2"/>
<stop offset="0.624532" stop-color="#E3E3E3"/>
<stop offset="0.798581" stop-color="#D1D1D1"/>
</linearGradient>
<linearGradient id="paint4_linear" x1="45.5107" y1="0.0288448" x2="45.9836" y2="0.0288448" gradientUnits="userSpaceOnUse">
<stop offset="0.238306" stop-color="#D1D1D1"/>
<stop offset="0.416703" stop-color="#E3E3E3"/>
<stop offset="0.700226" stop-color="#D2D2D2"/>
<stop offset="0.926408" stop-color="#E6E6E6"/>
</linearGradient>
<linearGradient id="paint5_linear" x1="32.9829" y1="40.6646" x2="33.4557" y2="40.6646" gradientUnits="userSpaceOnUse">
<stop offset="0.0988321" stop-color="#E6E6E6"/>
<stop offset="0.368786" stop-color="#D2D2D2"/>
<stop offset="0.624532" stop-color="#E3E3E3"/>
<stop offset="0.798581" stop-color="#D1D1D1"/>
</linearGradient>
<linearGradient id="paint6_linear" x1="30.3251" y1="0.738464" x2="46.2321" y2="40.3435" gradientUnits="userSpaceOnUse">
<stop stop-color="white" stop-opacity="0.16"/>
<stop offset="1" stop-color="white" stop-opacity="0.05"/>
</linearGradient>
<linearGradient id="paint7_linear" x1="28.6099" y1="7.24485" x2="28.7587" y2="7.24485" gradientUnits="userSpaceOnUse">
<stop stop-opacity="0"/>
<stop offset="0.333333" stop-color="#D0D0D0" stop-opacity="0.42"/>
<stop offset="1" stop-opacity="0.24"/>
</linearGradient>
<linearGradient id="paint8_linear" x1="28.6089" y1="10.9028" x2="28.7577" y2="10.9028" gradientUnits="userSpaceOnUse">
<stop stop-opacity="0"/>
<stop offset="0.333333" stop-color="#D0D0D0" stop-opacity="0.42"/>
<stop offset="1" stop-opacity="0.24"/>
</linearGradient>
<linearGradient id="paint9_linear" x1="50.0342" y1="12.8634" x2="50.183" y2="12.8634" gradientUnits="userSpaceOnUse">
<stop stop-opacity="0.24"/>
<stop offset="0.573835" stop-color="#D0D0D0" stop-opacity="0.42"/>
<stop offset="1" stop-opacity="0"/>
</linearGradient>
<linearGradient id="paint10_linear" x1="28.6089" y1="14.7143" x2="28.7577" y2="14.7143" gradientUnits="userSpaceOnUse">
<stop stop-opacity="0"/>
<stop offset="0.333333" stop-color="#D0D0D0" stop-opacity="0.42"/>
<stop offset="1" stop-opacity="0.24"/>
</linearGradient>
<linearGradient id="paint11_linear" x1="39.3961" y1="0" x2="39.3961" y2="40.8031" gradientUnits="userSpaceOnUse">
<stop stop-color="white" stop-opacity="0.64"/>
<stop offset="1" stop-color="white" stop-opacity="0.32"/>
</linearGradient>
<linearGradient id="paint12_linear" x1="28.6382" y1="3.68517" x2="29.1441" y2="3.68517" gradientUnits="userSpaceOnUse">
<stop offset="0.123628" stop-color="#8F8F8F"/>
<stop offset="0.365738" stop-color="#525252"/>
<stop offset="0.827659" stop-color="#141414"/>
</linearGradient>
<linearGradient id="paint13_linear" x1="28.6382" y1="37.3121" x2="29.1441" y2="37.3121" gradientUnits="userSpaceOnUse">
<stop offset="0.123628" stop-color="#8F8F8F"/>
<stop offset="0.365738" stop-color="#525252"/>
<stop offset="0.827659" stop-color="#141414"/>
</linearGradient>
<linearGradient id="paint14_linear" x1="49.6465" y1="3.68517" x2="50.1524" y2="3.68517" gradientUnits="userSpaceOnUse">
<stop offset="0.088176" stop-color="#141414"/>
<stop offset="0.536358" stop-color="#525252"/>
<stop offset="0.756584" stop-color="#8F8F8F"/>
</linearGradient>
<linearGradient id="paint15_linear" x1="49.6465" y1="37.3121" x2="50.1524" y2="37.3121" gradientUnits="userSpaceOnUse">
<stop offset="0.088176" stop-color="#141414"/>
<stop offset="0.529254" stop-color="#525252"/>
<stop offset="0.770792" stop-color="#8F8F8F"/>
</linearGradient>
<linearGradient id="paint16_linear" x1="45.5107" y1="0.0288448" x2="45.9836" y2="0.0288448" gradientUnits="userSpaceOnUse">
<stop offset="0.420124" stop-color="#8F8F8F"/>
<stop offset="0.610413" stop-color="#525252"/>
<stop offset="0.976264" stop-color="#141414"/>
</linearGradient>
<linearGradient id="paint17_linear" x1="32.9829" y1="40.6646" x2="33.4557" y2="40.6646" gradientUnits="userSpaceOnUse">
<stop offset="0.122861"/>
<stop offset="0.584624" stop-color="#292929"/>
<stop offset="0.87589" stop-color="#7A7A7A"/>
</linearGradient>
<linearGradient id="paint18_linear" x1="30.3251" y1="0.738464" x2="46.2321" y2="40.3435" gradientUnits="userSpaceOnUse">
<stop stop-color="white" stop-opacity="0.16"/>
<stop offset="1" stop-color="white" stop-opacity="0.05"/>
</linearGradient>
<linearGradient id="paint19_linear" x1="28.6099" y1="7.24485" x2="28.7587" y2="7.24485" gradientUnits="userSpaceOnUse">
<stop stop-color="white" stop-opacity="0.08"/>
<stop offset="0.276042" stop-color="white" stop-opacity="0.24"/>
<stop offset="1" stop-color="white" stop-opacity="0"/>
</linearGradient>
<linearGradient id="paint20_linear" x1="28.6089" y1="10.9028" x2="28.7577" y2="10.9028" gradientUnits="userSpaceOnUse">
<stop stop-color="white" stop-opacity="0.08"/>
<stop offset="0.276042" stop-color="white" stop-opacity="0.24"/>
<stop offset="1" stop-color="white" stop-opacity="0"/>
</linearGradient>
<linearGradient id="paint21_linear" x1="50.0342" y1="12.8634" x2="50.183" y2="12.8634" gradientUnits="userSpaceOnUse">
<stop stop-color="white" stop-opacity="0"/>
<stop offset="0.630208" stop-color="white" stop-opacity="0.24"/>
<stop offset="1" stop-color="white" stop-opacity="0.08"/>
</linearGradient>
<linearGradient id="paint22_linear" x1="28.6089" y1="14.7143" x2="28.7577" y2="14.7143" gradientUnits="userSpaceOnUse">
<stop stop-color="white" stop-opacity="0.08"/>
<stop offset="0.276042" stop-color="white" stop-opacity="0.24"/>
<stop offset="1" stop-color="white" stop-opacity="0"/>
</linearGradient>
<linearGradient id="paint23_linear" x1="39.411" y1="1.33594" x2="39.411" y2="1.72533" gradientUnits="userSpaceOnUse">
<stop/>
<stop offset="0.483028" stop-color="#484848"/>
<stop offset="1"/>
</linearGradient>
<radialGradient id="paint24_radial" cx="0" cy="0" r="1" gradientUnits="userSpaceOnUse" gradientTransform="translate(41.5388 1.71081) rotate(-129.581) scale(0.39697 0.402921)">
<stop stop-color="#242424"/>
<stop offset="1" stop-color="#161616"/>
</radialGradient>
<radialGradient id="paint25_radial" cx="0" cy="0" r="1" gradientUnits="userSpaceOnUse" gradientTransform="translate(41.4645 1.53002) rotate(90) scale(0.389395 0.416604)">
<stop offset="0.463542" stop-opacity="0.25"/>
<stop offset="0.645833" stop-opacity="0"/>
</radialGradient>
<linearGradient id="paint26_linear" x1="41.4646" y1="1.33594" x2="41.4646" y2="1.72533" gradientUnits="userSpaceOnUse">
<stop stop-color="#0B528D"/>
<stop offset="0.276042" stop-color="#3625AF"/>
<stop offset="0.510417" stop-color="#070D17"/>
<stop offset="0.734375" stop-color="#16618F"/>
<stop offset="1" stop-color="#021762"/>
</linearGradient>
<radialGradient id="paint27_radial" cx="0" cy="0" r="1" gradientUnits="userSpaceOnUse" gradientTransform="translate(41.301 1.48891) rotate(56.6397) scale(0.216456 0.222733)">
<stop stop-color="#070D17"/>
<stop offset="1" stop-color="#070D17" stop-opacity="0"/>
</radialGradient>
<radialGradient id="paint28_radial" cx="0" cy="0" r="1" gradientUnits="userSpaceOnUse" gradientTransform="translate(41.4944 1.55845) rotate(107.795) scale(0.146058 0.154419)">
<stop offset="0.146834" stop-color="#070D17"/>
<stop offset="1" stop-color="#070D17" stop-opacity="0"/>
</radialGradient>
<radialGradient id="paint29_radial" cx="0" cy="0" r="1" gradientUnits="userSpaceOnUse" gradientTransform="translate(41.5242 1.48891) rotate(130.56) scale(0.0915266 0.0926904)">
<stop stop-color="#6356D7"/>
<stop offset="1" stop-color="#15368A" stop-opacity="0"/>
</radialGradient>
<radialGradient id="paint30_radial" cx="0" cy="0" r="1" gradientUnits="userSpaceOnUse" gradientTransform="translate(41.4646 1.53064) rotate(90) scale(0.194698 0.208302)">
<stop offset="0.828125" stop-opacity="0"/>
<stop offset="1" stop-opacity="0.85"/>
</radialGradient>
</defs>
</svg>
