<svg width="40" height="40" viewBox="0 0 40 40" fill="none" xmlns="http://www.w3.org/2000/svg">
<g clip-path="url(#clip0)">
<path d="M25.8086 11.7186H18.6924L18.4158 10.9383C17.2985 7.78672 14.3077 7.23172 14.0625 7.08867V0L15.4675 0.285234C20.549 1.31664 24.4962 5.25305 25.5234 10.3136L25.8086 11.7186Z" fill="#6AA9FF"/>
<path d="M7.03125 12.8905C7.03125 8.25937 11.6904 7.10883 11.7188 7.08867V0L10.3138 0.285234C4.34313 1.49711 0 6.74523 0 12.8905C0 16.4445 1.4457 19.6671 3.77984 22.0013L8.16406 20.9373L8.74937 17.0317C7.68836 15.9708 7.03125 14.5059 7.03125 12.8905Z" fill="#FF641A"/>
<path d="M25.8082 14.0625L25.523 15.4672C24.3238 21.3734 19.0988 25.7812 12.8902 25.7812C9.33633 25.7812 6.11367 24.3359 3.7793 22.0016L8.74883 17.032C9.80977 18.093 11.2746 18.75 12.8902 18.75C17.6316 18.75 18.5973 14.1961 18.6918 14.0625H25.8082Z" fill="#FFE14D"/>
<path d="M25.8086 14.0625L25.5234 15.4672C24.3242 21.3734 19.0992 25.7812 12.8906 25.7812V18.75C17.632 18.75 18.5977 14.1961 18.6922 14.0625H25.8086Z" fill="#FFB64C"/>
<path d="M30.5469 20.137C30.5469 19.4573 31.0979 18.9062 31.7776 18.9062H36.3474C37.0271 18.9062 37.5781 19.4573 37.5781 20.137V37.5974C37.5781 38.2771 37.0271 38.8281 36.3474 38.8281H31.7776C31.0979 38.8281 30.5469 38.2771 30.5469 37.5974V20.137Z" fill="#8BBC43"/>
<path d="M21.1719 31.8558C21.1719 31.176 21.7229 30.625 22.4026 30.625H26.9724C27.6521 30.625 28.2031 31.176 28.2031 31.8558V37.5974C28.2031 38.2771 27.6521 38.8281 26.9724 38.8281H22.4026C21.7229 38.8281 21.1719 38.2771 21.1719 37.5974V31.8558Z" fill="#6AA9FF"/>
<path d="M11.7969 29.512C11.7969 28.8323 12.3479 28.2812 13.0276 28.2812H17.5974C18.2771 28.2812 18.8281 28.8323 18.8281 29.512V37.5974C18.8281 38.2771 18.2771 38.8281 17.5974 38.8281H13.0276C12.3479 38.8281 11.7969 38.2771 11.7969 37.5974V29.512Z" fill="#FFE14D"/>
<path d="M2.42188 34.1995C2.42188 33.5198 2.97291 32.9688 3.65264 32.9688H8.22236C8.90209 32.9688 9.45312 33.5198 9.45312 34.1995V37.5974C9.45312 38.2771 8.90209 38.8281 8.22236 38.8281H3.65264C2.97291 38.8281 2.42188 38.2771 2.42188 37.5974V34.1995Z" fill="#FF641A"/>
<path d="M0 37.6562H40V40H0V37.6562Z" fill="#61729B"/>
<path d="M20 37.6562H40V40H20V37.6562Z" fill="#47568C"/>
</g>
<defs>
<clipPath id="clip0">
<rect width="40" height="40" fill="white"/>
</clipPath>
</defs>
</svg>
