<svg width="80" height="80" viewBox="0 0 80 80" fill="none" xmlns="http://www.w3.org/2000/svg">
<g clip-path="url(#clip0)">
<path d="M51.6172 23.4372H37.3848L36.8316 21.8766C34.597 15.5734 28.6155 14.4634 28.125 14.1773V0L30.935 0.570469C41.098 2.63328 48.9923 10.5061 51.0469 20.6272L51.6172 23.4372Z" fill="#6AA9FF"/>
<path d="M14.0625 25.7809C14.0625 16.5187 23.3808 14.2177 23.4375 14.1773V0L20.6275 0.570469C8.68625 2.99422 0 13.4905 0 25.7809C0 32.8889 2.89141 39.3342 7.55969 44.0025L16.3281 41.8747L17.4987 34.0634C15.3767 31.9416 14.0625 29.0119 14.0625 25.7809Z" fill="#FF641A"/>
<path d="M51.6169 28.125L51.0466 30.9344C48.6481 42.7469 38.1981 51.5625 25.781 51.5625C18.6731 51.5625 12.2278 48.6719 7.55908 44.0031L17.4981 34.0641C19.62 36.1859 22.5497 37.5 25.781 37.5C35.2638 37.5 37.195 28.3922 37.3841 28.125H51.6169Z" fill="#FFE14D"/>
<path d="M51.6172 28.125L51.0469 30.9344C48.6484 42.7469 38.1984 51.5625 25.7812 51.5625V37.5C35.2641 37.5 37.1953 28.3922 37.3844 28.125H51.6172Z" fill="#FFB64C"/>
<path d="M61.0938 40.274C61.0938 38.9146 62.1958 37.8125 63.5553 37.8125H72.6947C74.0542 37.8125 75.1563 38.9146 75.1563 40.274V75.1947C75.1563 76.5542 74.0542 77.6562 72.6947 77.6562H63.5553C62.1958 77.6562 61.0938 76.5542 61.0938 75.1947V40.274Z" fill="#8BBC43"/>
<path d="M42.3438 63.7115C42.3438 62.3521 43.4458 61.25 44.8053 61.25H53.9447C55.3042 61.25 56.4062 62.3521 56.4062 63.7115V75.1947C56.4062 76.5542 55.3042 77.6562 53.9447 77.6562H44.8053C43.4458 77.6562 42.3438 76.5542 42.3438 75.1947V63.7115Z" fill="#6AA9FF"/>
<path d="M23.5938 59.024C23.5938 57.6646 24.6958 56.5625 26.0553 56.5625H35.1947C36.5542 56.5625 37.6562 57.6646 37.6562 59.024V75.1947C37.6562 76.5542 36.5542 77.6562 35.1947 77.6562H26.0553C24.6958 77.6562 23.5938 76.5542 23.5938 75.1947V59.024Z" fill="#FFE14D"/>
<path d="M4.84375 68.399C4.84375 67.0396 5.94582 65.9375 7.30529 65.9375H16.4447C17.8042 65.9375 18.9062 67.0396 18.9062 68.399V75.1947C18.9062 76.5542 17.8042 77.6562 16.4447 77.6562H7.30529C5.94582 77.6562 4.84375 76.5542 4.84375 75.1947V68.399Z" fill="#FF641A"/>
<path d="M0 75.3125H80V80H0V75.3125Z" fill="#61729B"/>
<path d="M40 75.3125H80V80H40V75.3125Z" fill="#47568C"/>
</g>
<defs>
<clipPath id="clip0">
<rect width="80" height="80" fill="white"/>
</clipPath>
</defs>
</svg>
