<svg width="80" height="80" viewBox="0 0 80 80" fill="none" xmlns="http://www.w3.org/2000/svg">
<path d="M38.3365 5.72266L35.5982 8.46098H31.4907V11.1993C31.4907 15.7366 35.169 19.4143 39.7057 19.4143C44.2424 19.4143 47.9206 15.7366 47.9206 11.1993V8.46098H39.7057L38.3365 5.72266Z" fill="#FFC272"/>
<path d="M31.4907 8.46105H35.5982L38.3365 5.72273L39.7057 8.46105H47.9206C47.9206 3.92437 44.2424 0.246094 39.7057 0.246094C35.169 0.246094 31.4907 3.92437 31.4907 8.46105Z" fill="#787680"/>
<path d="M31.3399 23.3711C28.4171 24.6968 26.0485 27.0019 24.6446 29.8886C23.7407 31.7432 23.2721 33.7802 23.2754 35.844V45.4281C23.2754 46.1842 23.8885 46.7972 24.6446 46.7972H39.7053V31.7365L31.3399 23.3711Z" fill="#5AAAE7"/>
<path d="M39.7055 31.7365L48.0708 23.3711C46.3039 22.5682 44.3852 22.153 42.4438 22.1523H36.9671C35.025 22.1517 33.1057 22.5662 31.3374 23.3684L39.7055 31.7365Z" fill="#FFC477"/>
<path d="M54.7668 29.8903C53.3636 27.0036 50.9969 24.6972 48.0741 23.3701L39.7061 31.7382V46.7989H54.7668C55.5229 46.7989 56.136 46.1859 56.136 45.4298V35.8456C56.1393 33.7819 55.6707 31.7449 54.7668 29.8903Z" fill="#3D9AE2"/>
<path d="M45.1826 33.1064H50.6593V35.8448H45.1826V33.1064Z" fill="#1A6FB0"/>
<path d="M79.4933 56.6978C78.8816 55.3814 77.7712 54.3632 76.4067 53.8672C75.0429 53.3711 73.5373 53.4393 72.223 54.0557L53.6203 62.7166C52.8956 63.0542 52.1068 63.2287 51.3079 63.2287H47.9204C50.9449 63.2287 53.397 60.7772 53.397 57.752C53.397 54.7276 50.9449 52.2754 47.9204 52.2754H27.383C23.9026 52.2721 20.7999 54.4682 19.6474 57.752H13.6914V75.5511H50.8145C51.6141 75.5511 52.4029 75.376 53.1276 75.039L76.8506 63.9821C78.774 63.0749 80.0007 61.1388 80.0001 59.0116C79.9994 58.2133 79.8262 57.4238 79.4933 56.6978Z" fill="#FFC272"/>
<path d="M52.6583 60.4893C51.6849 62.1867 49.8772 63.2316 47.9211 63.2276H35.5986V60.4893H52.6583Z" fill="#FFDAAA"/>
<path d="M13.6916 52.2754H0V79.6586H13.6916V52.2754Z" fill="#3D9AE2"/>
<path d="M13.6914 57.751H16.4297V75.5501H13.6914V57.751Z" fill="#E7B069"/>
<path d="M52.6583 60.4893C51.6849 62.1867 49.8772 63.2316 47.9211 63.2276H35.5986V60.4893H52.6583Z" fill="#E7B069"/>
</svg>
