<svg width="40" height="40" viewBox="0 0 40 40" fill="none" xmlns="http://www.w3.org/2000/svg">
<g clip-path="url(#clip0)">
<path d="M19.168 2.86133L17.7989 4.23049H15.7451V5.59965C15.7451 7.86832 17.5843 9.70713 19.8526 9.70713C22.1209 9.70713 23.9601 7.86832 23.9601 5.59965V4.23049H19.8526L19.168 2.86133Z" fill="#FFC272"/>
<path d="M15.7451 4.23053H17.7989L19.168 2.86137L19.8526 4.23053H23.9601C23.9601 1.96219 22.1209 0.123047 19.8526 0.123047C17.5843 0.123047 15.7451 1.96219 15.7451 4.23053Z" fill="#787680"/>
<path d="M15.67 11.6855C14.2086 12.3484 13.0242 13.501 12.3223 14.9443C11.8704 15.8716 11.636 16.8901 11.6377 17.922V22.714C11.6377 23.0921 11.9442 23.3986 12.3223 23.3986H19.8527V15.8682L15.67 11.6855Z" fill="#5AAAE7"/>
<path d="M19.853 15.8682L24.0357 11.6855C23.1522 11.2841 22.1928 11.0765 21.2221 11.0762H18.4838C17.5128 11.0758 16.5531 11.2831 15.6689 11.6842L19.853 15.8682Z" fill="#FFC477"/>
<path d="M27.3834 14.9457C26.6818 13.5023 25.4985 12.3491 24.0371 11.6855L19.853 15.8696V23.4H27.3834C27.7615 23.4 28.068 23.0934 28.068 22.7154V17.9233C28.0697 16.8914 27.8353 15.8729 27.3834 14.9457Z" fill="#3D9AE2"/>
<path d="M22.5913 16.5527H25.3296V17.9219H22.5913V16.5527Z" fill="#1A6FB0"/>
<path d="M39.7467 28.3489C39.4408 27.6907 38.8856 27.1816 38.2033 26.9336C37.5214 26.6856 36.7687 26.7197 36.1115 27.0279L26.8102 31.3583C26.4478 31.5271 26.0534 31.6143 25.6539 31.6143H23.9602C25.4724 31.6143 26.6985 30.3886 26.6985 28.876C26.6985 27.3638 25.4724 26.1377 23.9602 26.1377H13.6915C11.9513 26.136 10.4 27.2341 9.82369 28.876H6.8457V37.7756H25.4072C25.807 37.7756 26.2015 37.688 26.5638 37.5195L38.4253 31.9911C39.387 31.5375 40.0004 30.5694 40 29.5058C39.9997 29.1067 39.9131 28.7119 39.7467 28.3489Z" fill="#FFC272"/>
<path d="M26.3292 30.2441C25.8425 31.0928 24.9386 31.6153 23.9605 31.6133H17.7993V30.2441H26.3292Z" fill="#FFDAAA"/>
<path d="M6.8458 26.1377H0V39.8293H6.8458V26.1377Z" fill="#3D9AE2"/>
<path d="M6.8457 28.875H8.21486V37.7745H6.8457V28.875Z" fill="#E7B069"/>
<path d="M26.3292 30.2441C25.8425 31.0928 24.9386 31.6153 23.9605 31.6133H17.7993V30.2441H26.3292Z" fill="#E7B069"/>
</g>
<defs>
<clipPath id="clip0">
<rect width="40" height="40" fill="white"/>
</clipPath>
</defs>
</svg>
