<svg width="80" height="80" viewBox="0 0 80 80" fill="none" xmlns="http://www.w3.org/2000/svg">
<g clip-path="url(#clip0)">
<path d="M24.6228 41.5932C24.5721 41.5932 24.5215 41.5914 24.4702 41.5883L2.44503 40.2132C1.60702 40.1613 0.855068 39.6822 0.453456 38.9455C0.0524553 38.2088 0.0573381 37.3171 0.467495 36.5847C0.582851 36.3784 3.35873 31.484 8.64499 27.2152C15.7885 21.4473 24.093 19.5766 32.6599 21.8056C33.371 21.9906 33.9606 22.4862 34.2657 23.1545C34.5709 23.8228 34.5587 24.5931 34.2322 25.2511L26.8097 40.2358C26.3959 41.0708 25.5456 41.5932 24.6228 41.5932Z" fill="#FF5B5B"/>
<path d="M42.3786 79.9999C41.977 79.9999 41.5754 79.901 41.211 79.7021C40.4743 79.3005 39.9952 78.5491 39.9427 77.7111L38.5682 55.6859C38.5072 54.7051 39.04 53.7829 39.9208 53.3465L54.9055 45.9234C55.5641 45.5974 56.3337 45.5852 57.0021 45.8904C57.671 46.195 58.166 46.7852 58.3509 47.4962C60.5806 56.0631 58.7098 64.3676 52.9414 71.5111C48.6732 76.7974 43.7782 79.5727 43.5719 79.6886C43.2014 79.8962 42.79 79.9999 42.3786 79.9999Z" fill="#FF193D"/>
<path d="M76.2412 19.6981L60.4599 3.91686C59.8276 3.28454 58.8999 3.04894 58.0423 3.30224C47.4777 6.42724 38.8052 11.3284 32.2641 17.8689C30.9 19.2336 29.5895 20.7125 28.3701 22.264C24.8239 26.7727 21.8619 32.1035 19.567 38.1088C18.1052 41.9363 16.915 46.0366 16.0294 50.2957C14.4827 57.7352 14.3997 63.0673 14.3967 63.2907C14.3887 63.948 14.6463 64.5816 15.1114 65.0466C15.5691 65.5044 16.1905 65.7614 16.8375 65.7614H16.8674C17.0914 65.7589 22.4234 65.6759 29.8624 64.1293C34.1214 63.2437 38.2218 62.0535 42.0499 60.5911C48.0545 58.2962 53.3853 55.3347 57.8928 51.7892C59.4455 50.5691 60.9244 49.2587 62.2891 47.8939C68.8303 41.3528 73.7314 32.6803 76.8558 22.1157C77.1097 21.2582 76.8735 20.3304 76.2412 19.6981Z" fill="#E1F1FA"/>
<path d="M31.5295 60.4506L19.7058 48.6268C18.833 47.754 17.4456 47.6704 16.474 48.4321C15.719 49.0242 15.0006 49.6602 14.339 50.3218C6.11202 58.5487 5.85751 71.2959 5.85079 71.8343C5.84225 72.4922 6.09982 73.1258 6.56551 73.5908C7.02328 74.0492 7.64401 74.3062 8.29098 74.3062C8.30135 74.3062 8.31173 74.3062 8.32211 74.3056C8.86044 74.2989 21.6082 74.0443 29.8346 65.8174C30.4962 65.1558 31.1322 64.4374 31.7242 63.6824C32.4859 62.7107 32.4023 61.3234 31.5295 60.4506Z" fill="#FDBF00"/>
<path d="M19.7555 37.6191L12.5015 44.8738C12.0437 45.3309 11.7861 45.9517 11.7861 46.5992C11.7861 47.2462 12.0437 47.8669 12.5015 48.3247L31.8319 67.6552C32.2891 68.1129 32.9098 68.3699 33.5574 68.3699C34.205 68.3699 34.8251 68.1129 35.2828 67.6552L42.5369 60.4011L19.7555 37.6191Z" fill="#1B3B6B"/>
<path d="M51.422 36.1808C49.4335 36.1808 47.5634 35.4063 46.1571 34C43.2543 31.0972 43.2543 26.3743 46.1571 23.4708C47.5634 22.0646 49.4335 21.29 51.422 21.29C53.4105 21.29 55.2806 22.0646 56.6869 23.4708C58.0931 24.8771 58.8677 26.7466 58.8677 28.7357C58.8677 30.7242 58.0931 32.5938 56.6869 34C55.2806 35.4063 53.4105 36.1808 51.422 36.1808Z" fill="#06CCAB"/>
<path d="M51.4218 38.5667C48.7955 38.5667 46.3266 37.5437 44.4699 35.687C40.6363 31.8534 40.6363 25.6156 44.4699 21.782C46.3266 19.9253 48.7961 18.9023 51.4218 18.9023C54.0482 18.9023 56.5171 19.9253 58.3744 21.782C60.2317 23.6393 61.254 26.1082 61.254 28.7345C61.254 31.3608 60.2317 33.8297 58.3744 35.687C56.5171 37.5437 54.0482 38.5667 51.4218 38.5667ZM51.4218 23.7833C50.0998 23.7833 48.8559 24.2985 47.9209 25.2335C45.9909 27.1641 45.9909 30.3049 47.9209 32.2355C48.8559 33.1705 50.0998 33.6857 51.4218 33.6857C52.7445 33.6857 53.9878 33.1705 54.9228 32.2355C55.8579 31.3004 56.373 30.0571 56.373 28.7345C56.373 27.4119 55.8579 26.1686 54.9228 25.2335C53.9878 24.2985 52.7445 23.7833 51.4218 23.7833Z" fill="#1B3B6B"/>
<path d="M79.4415 0.715172C78.9758 0.249473 78.3386 -0.0123679 77.6843 0.000449512C77.3224 0.00472197 68.6951 0.149986 58.042 3.30062L76.8555 22.1141C80.0061 11.461 80.1514 2.8337 80.1556 2.47176C80.1642 1.8138 79.9066 1.18026 79.4415 0.715172Z" fill="#FF5B5B"/>
</g>
<defs>
<clipPath id="clip0">
<rect width="80" height="80" fill="white"/>
</clipPath>
</defs>
</svg>
