<svg width="40" height="40" viewBox="0 0 40 40" fill="none" xmlns="http://www.w3.org/2000/svg">
<g clip-path="url(#clip0)">
<path d="M12.3114 20.7966C12.2861 20.7966 12.2607 20.7957 12.2351 20.7942L1.22252 20.1066C0.803511 20.0807 0.427534 19.8411 0.226728 19.4728C0.0262276 19.1044 0.028669 18.6585 0.233747 18.2923C0.291425 18.1892 1.67937 15.742 4.32249 13.6076C7.89427 10.7237 12.0465 9.7883 16.3299 10.9028C16.6855 10.9953 16.9803 11.2431 17.1329 11.5772C17.2855 11.9114 17.2793 12.2965 17.1161 12.6255L13.4048 20.1179C13.1979 20.5354 12.7728 20.7966 12.3114 20.7966Z" fill="#FF5B5B"/>
<path d="M21.1893 40C20.9885 40 20.7877 39.9505 20.6055 39.851C20.2372 39.6502 19.9976 39.2746 19.9714 38.8556L19.2841 27.843C19.2536 27.3526 19.52 26.8914 19.9604 26.6732L27.4528 22.9617C27.782 22.7987 28.1669 22.7926 28.501 22.9452C28.8355 23.0975 29.083 23.3926 29.1755 23.7481C30.2903 28.0316 29.3549 32.1838 26.4707 35.7556C24.3366 38.3987 21.8891 39.7863 21.7859 39.8443C21.6007 39.9481 21.395 40 21.1893 40Z" fill="#FF193D"/>
<path d="M38.1206 9.84955L30.23 1.95892C29.9138 1.64276 29.4499 1.52496 29.0212 1.65161C23.7389 3.21411 19.4026 5.66467 16.1321 8.93494C15.45 9.61731 14.7948 10.3568 14.185 11.1325C12.412 13.3868 10.9309 16.0522 9.78348 19.0549C9.05258 20.9686 8.45749 23.0188 8.01468 25.1483C7.24136 28.8681 7.19986 31.5341 7.19833 31.6458C7.19436 31.9745 7.32315 32.2913 7.55569 32.5238C7.78457 32.7527 8.09524 32.8812 8.41873 32.8812H8.43368C8.54568 32.88 11.2117 32.8384 14.9312 32.0651C17.0607 31.6223 19.1109 31.0272 21.0249 30.296C24.0273 29.1486 26.6927 27.6679 28.9464 25.8951C29.7228 25.285 30.4622 24.6298 31.1446 23.9475C34.4151 20.6769 36.8657 16.3406 38.4279 11.0583C38.5549 10.6296 38.4368 10.1657 38.1206 9.84955Z" fill="#E1F1FA"/>
<path d="M15.7648 30.2253L9.85289 24.3134C9.41649 23.877 8.72282 23.8352 8.23698 24.2161C7.85948 24.5121 7.50029 24.8301 7.16948 25.1609C3.05601 29.2744 2.92875 35.648 2.9254 35.9171C2.92112 36.2461 3.04991 36.5629 3.28276 36.7954C3.51164 37.0246 3.822 37.1531 4.14549 37.1531C4.15068 37.1531 4.15587 37.1531 4.16105 37.1528C4.43022 37.1494 10.8041 37.0222 14.9173 32.9087C15.2481 32.5779 15.5661 32.2187 15.8621 31.8412C16.243 31.3554 16.2012 30.6617 15.7648 30.2253Z" fill="#FDBF00"/>
<path d="M9.87775 18.8096L6.25073 22.4369C6.02185 22.6655 5.89307 22.9758 5.89307 23.2996C5.89307 23.6231 6.02185 23.9335 6.25073 24.1624L15.916 33.8276C16.1445 34.0565 16.4549 34.1849 16.7787 34.1849C17.1025 34.1849 17.4125 34.0565 17.6414 33.8276L21.2684 30.2006L9.87775 18.8096Z" fill="#1B3B6B"/>
<path d="M25.7112 18.0899C24.717 18.0899 23.7819 17.7026 23.0788 16.9995C21.6274 15.5481 21.6274 13.1866 23.0788 11.7349C23.7819 11.0318 24.717 10.6445 25.7112 10.6445C26.7055 10.6445 27.6406 11.0318 28.3437 11.7349C29.0468 12.4381 29.4341 13.3728 29.4341 14.3674C29.4341 15.3616 29.0468 16.2964 28.3437 16.9995C27.6406 17.7026 26.7055 18.0899 25.7112 18.0899Z" fill="#06CCAB"/>
<path d="M25.7109 19.2833C24.3978 19.2833 23.1633 18.7719 22.235 17.8435C20.3182 15.9267 20.3182 12.8078 22.235 10.891C23.1633 9.96265 24.3981 9.45117 25.7109 9.45117C27.0241 9.45117 28.2585 9.96265 29.1872 10.891C30.1158 11.8196 30.627 13.0541 30.627 14.3673C30.627 15.6804 30.1158 16.9149 29.1872 17.8435C28.2585 18.7719 27.0241 19.2833 25.7109 19.2833ZM25.7109 11.8917C25.0499 11.8917 24.428 12.1492 23.9604 12.6168C22.9955 13.582 22.9955 15.1525 23.9604 16.1177C24.428 16.5853 25.0499 16.8428 25.7109 16.8428C26.3722 16.8428 26.9939 16.5853 27.4614 16.1177C27.9289 15.6502 28.1865 15.0286 28.1865 14.3673C28.1865 13.7059 27.9289 13.0843 27.4614 12.6168C26.9939 12.1492 26.3722 11.8917 25.7109 11.8917Z" fill="#1B3B6B"/>
<path d="M39.7208 0.357586C39.4879 0.124737 39.1693 -0.00618394 38.8422 0.000224756C38.6612 0.00236099 34.3475 0.0749928 29.021 1.65031L38.4277 11.0571C40.0031 5.73051 40.0757 1.41685 40.0778 1.23588C40.0821 0.906902 39.9533 0.59013 39.7208 0.357586Z" fill="#FF5B5B"/>
</g>
<defs>
<clipPath id="clip0">
<rect width="40" height="40" fill="white"/>
</clipPath>
</defs>
</svg>
