<svg width="80" height="80" viewBox="0 0 80 80" fill="none" xmlns="http://www.w3.org/2000/svg">
<path d="M44.1378 30.3448V16.5517C44.1378 12.1619 42.3939 7.95194 39.2899 4.84789C36.1858 1.74384 31.9758 0 27.5861 0C23.1963 0 18.9863 1.74384 15.8822 4.84789C12.7782 7.95194 11.0343 12.1619 11.0343 16.5517V30.3448C9.57107 30.3448 8.16774 30.9261 7.13305 31.9608C6.09837 32.9955 5.51709 34.3988 5.51709 35.8621V44.1379H49.655V35.8621C49.655 34.3988 49.0737 32.9955 48.0391 31.9608C47.0044 30.9261 45.601 30.3448 44.1378 30.3448Z" fill="#454545"/>
<path d="M77.2414 57.9308V68.9653H49.6552L44.1379 57.9308V79.9998H0L5.51724 44.1377H49.6552L57.931 57.9308H77.2414Z" fill="#FFB800"/>
<path d="M23.4482 37.2412H31.7241V44.1378H23.4482V37.2412Z" fill="#F0C6A4"/>
<path d="M17 28C15.4087 28 13.8826 27.3679 12.7574 26.2426C11.6321 25.1174 11 23.5913 11 22C11 20.4087 11.6321 18.8826 12.7574 17.7574C13.8826 16.6321 15.4087 16 17 16V28Z" fill="#F0C6A4"/>
<path d="M39 16C40.3261 16 41.5979 16.6321 42.5355 17.7574C43.4732 18.8826 44 20.4087 44 22C44 23.5913 43.4732 25.1174 42.5355 26.2426C41.5979 27.3679 40.3261 28 39 28V16Z" fill="#F0C6A4"/>
<path d="M15 16.5L33.4782 8L40 17L15 16.5Z" fill="#F7CCA9"/>
<path d="M23.4482 44.1377H31.7241L27.5862 52.4136L23.4482 44.1377Z" fill="#F0C6A4"/>
<path d="M74.4827 63.9211V49.6553H68.9655V63.9211C67.1249 64.5719 65.5736 65.8524 64.5858 67.5363C63.598 69.2201 63.2373 71.199 63.5674 73.1232C63.8976 75.0473 64.8973 76.7928 66.3899 78.0511C67.8825 79.3094 69.7719 79.9996 71.7241 79.9996C73.6764 79.9996 75.5658 79.3094 77.0584 78.0511C78.551 76.7928 79.5507 75.0473 79.8808 73.1232C80.2109 71.199 79.8502 69.2201 78.8624 67.5363C77.8746 65.8524 76.3233 64.5719 74.4827 63.9211Z" fill="#1194FF"/>
<path d="M70.345 55.1729H78.6209V63.4487H70.345C69.6134 63.4487 68.9117 63.1581 68.3944 62.6407C67.8771 62.1234 67.5864 61.4217 67.5864 60.6901V57.9315C67.5864 57.1998 67.8771 56.4982 68.3944 55.9808C68.9117 55.4635 69.6134 55.1729 70.345 55.1729Z" fill="#F7CCA9"/>
<path d="M77.2415 44.1383C78.7651 44.1383 80.0002 42.9033 80.0002 41.3797C80.0002 39.8562 78.7651 38.6211 77.2415 38.6211C75.718 38.6211 74.4829 39.8562 74.4829 41.3797C74.4829 42.9033 75.718 44.1383 77.2415 44.1383Z" fill="#1194FF"/>
<path d="M66.2069 35.862C67.7304 35.862 68.9655 34.6269 68.9655 33.1033C68.9655 31.5798 67.7304 30.3447 66.2069 30.3447C64.6833 30.3447 63.4482 31.5798 63.4482 33.1033C63.4482 34.6269 64.6833 35.862 66.2069 35.862Z" fill="#1194FF"/>
<path d="M12.4139 57.9311V80H9.65527V57.9311C9.65527 57.5653 9.80059 57.2144 10.0593 56.9557C10.3179 56.6971 10.6688 56.5518 11.0346 56.5518C11.4004 56.5518 11.7512 56.6971 12.0099 56.9557C12.2686 57.2144 12.4139 57.5653 12.4139 57.9311Z" fill="#EDEDED"/>
<path d="M26.207 52.4141H28.9657V80.0003H26.207V52.4141Z" fill="white"/>
<path d="M77.2414 51.034H66.2069C65.8411 51.034 65.4903 50.8887 65.2316 50.63C64.973 50.3714 64.8276 50.0205 64.8276 49.6547C64.8276 49.2889 64.973 48.9381 65.2316 48.6794C65.4903 48.4207 65.8411 48.2754 66.2069 48.2754H77.2414C77.6072 48.2754 77.9581 48.4207 78.2168 48.6794C78.4754 48.9381 78.6207 49.2889 78.6207 49.6547C78.6207 50.0205 78.4754 50.3714 78.2168 50.63C77.9581 50.8887 77.6072 51.034 77.2414 51.034Z" fill="#2978B8"/>
<path d="M66.2069 45.5174C66.9687 45.5174 67.5863 44.8999 67.5863 44.1381C67.5863 43.3763 66.9687 42.7588 66.2069 42.7588C65.4452 42.7588 64.8276 43.3763 64.8276 44.1381C64.8276 44.8999 65.4452 45.5174 66.2069 45.5174Z" fill="#3397E8"/>
<path d="M77.2416 31.7244C78.0034 31.7244 78.6209 31.1069 78.6209 30.3451C78.6209 29.5834 78.0034 28.9658 77.2416 28.9658C76.4798 28.9658 75.8623 29.5834 75.8623 30.3451C75.8623 31.1069 76.4798 31.7244 77.2416 31.7244Z" fill="#3397E8"/>
<path d="M23.4481 44.1396H13.793L19.3102 48.2776V52.4155L27.5861 63.45V52.4155L23.4481 44.1396Z" fill="white"/>
<path d="M31.7239 44.1387H41.379L35.8618 48.2766V52.4145L27.5859 63.449V52.4145L31.7239 44.1387Z" fill="white"/>
<path d="M45.5174 57.932V80.001H42.7588V57.932C42.7588 57.5662 42.9041 57.2154 43.1628 56.9567C43.4214 56.6981 43.7723 56.5527 44.1381 56.5527C44.5039 56.5527 44.8547 56.6981 45.1134 56.9567C45.3721 57.2154 45.5174 57.5662 45.5174 57.932Z" fill="#EDEDED"/>
<path d="M17.5517 27.5269L17.5517 27.5202L17.5258 21.7567L17.5068 17.5035L37.5 17.5503V21.7904V27.5269C37.5 30.074 36.1957 32.6388 34.3111 34.6004C32.5203 36.4645 30.1046 37.5 27.5991 37.5C25.0935 37.5 22.6778 36.4645 20.887 34.6004C18.9651 32.5999 17.5517 30.035 17.5517 27.5269Z" fill="#F7CCA9" stroke="#F7CCA9" stroke-width="3"/>
</svg>
