<svg width="40" height="40" viewBox="0 0 40 40" fill="none" xmlns="http://www.w3.org/2000/svg">
<path d="M26.3157 4.28266C26.2507 4.23312 25.6495 3.78586 24.5785 3.35547C23.1987 2.80094 21.6155 2.50781 20.0001 2.50781C18.3847 2.50781 16.8016 2.80094 15.4217 3.35547C14.3507 3.78586 13.7495 4.23312 13.6845 4.28273C13.3584 4.53141 13.167 4.91805 13.167 5.32813V7.3907L14.4816 8.09383L15.7963 7.3907V6.07258C16.5178 5.70438 17.9606 5.13703 20 5.13703C22.0396 5.13703 23.4823 5.70438 24.2038 6.07258V7.39062L25.5184 8.09375L26.8331 7.39062V5.32813C26.8332 4.91797 26.6418 4.53133 26.3157 4.28266Z" fill="#E8834D"/>
<path d="M13.167 7.39062V8.84219L14.4817 9.54531L15.7964 8.84219V7.39062H13.167Z" fill="#D66E41"/>
<path d="M26.8329 7.39062H24.2036V8.84219L25.5183 9.54531L26.8329 8.84219V7.39062Z" fill="#D66E41"/>
<path d="M1.03467 23.3057V34.9847C1.03467 36.3712 2.15865 37.4952 3.54514 37.4952H36.4543C37.8408 37.4952 38.9648 36.3712 38.9648 34.9847V23.3057H1.03467Z" fill="#365E7D"/>
<path d="M1.03467 21.8526V23.3043C3.12029 24.9602 8.63248 28.1748 19.9997 28.1748C31.367 28.1748 36.8792 24.9602 38.9648 23.3042V21.8525H1.03467V21.8526Z" fill="#2B4D66"/>
<path d="M0.925938 21.0175C2.92477 22.6448 8.4293 25.9756 20 25.9756C31.5707 25.9756 37.0752 22.6448 39.0741 21.0175C39.66 20.5404 40 19.1225 40 18.3669V11.3532C40 9.96676 38.876 8.84277 37.4895 8.84277H2.51047C1.12398 8.84277 0 9.96676 0 11.3532V18.3669C0 19.1225 0.34 20.5404 0.925938 21.0175Z" fill="#407093"/>
<path d="M39.0741 20.3136C37.0752 21.941 31.5707 25.2718 20 25.2718C8.4293 25.2718 2.92484 21.9409 0.925938 20.3136C0.34 19.8366 0 19.1218 0 18.3662V19.8179C0 20.5734 0.34 21.2882 0.925938 21.7653C2.92477 23.3926 8.4293 26.7234 20 26.7234C31.5707 26.7234 37.0752 23.3926 39.0741 21.7653C39.66 21.2882 40 20.5734 40 19.8179V18.3662C40 19.1218 39.66 19.8366 39.0741 20.3136Z" fill="#365E7D"/>
<path d="M19.9995 29.1386C21.2983 29.1386 22.3511 28.1742 22.3511 26.0839V24.6581C22.3511 24.1959 21.9764 23.8213 21.5143 23.8213H18.4847C18.0226 23.8213 17.6479 24.196 17.6479 24.6581V26.0841C17.6479 28.1742 18.7008 29.1386 19.9995 29.1386Z" fill="#FFE27A"/>
<path d="M19.9995 28.4355C18.7008 28.4355 17.6479 27.3827 17.6479 26.084V27.5356C17.6479 28.8344 18.7008 29.8872 19.9995 29.8872C21.2983 29.8872 22.3511 28.8344 22.3511 27.5356V26.084C22.3511 27.3827 21.2983 28.4355 19.9995 28.4355Z" fill="#F9CF58"/>
</svg>
