<svg width="80" height="80" viewBox="0 0 80 80" fill="none" xmlns="http://www.w3.org/2000/svg">
<g clip-path="url(#clip0)">
<path d="M52.6308 8.56336C52.501 8.4643 51.2985 7.56977 49.1565 6.70898C46.3969 5.59992 43.2305 5.01367 39.9997 5.01367C36.769 5.01367 33.6027 5.59992 30.8429 6.70898C28.701 7.56977 27.4985 8.4643 27.3685 8.56352C26.7163 9.06086 26.3335 9.83414 26.3335 10.6543V14.7795L28.9627 16.1857L31.5921 14.7795V12.1432C33.0351 11.4068 35.9207 10.2721 39.9996 10.2721C44.0786 10.2721 46.9641 11.4068 48.4071 12.1432V14.7793L51.0363 16.1855L53.6657 14.7793V10.6543C53.666 9.83398 53.2832 9.0607 52.6308 8.56336Z" fill="#E8834D"/>
<path d="M26.3335 14.7793V17.6824L28.9629 19.0887L31.5922 17.6824V14.7793H26.3335Z" fill="#D66E41"/>
<path d="M53.6653 14.7793H48.4067V17.6824L51.0361 19.0887L53.6653 17.6824V14.7793Z" fill="#D66E41"/>
<path d="M2.06982 46.6074V69.9655C2.06982 72.7385 4.31779 74.9865 7.09076 74.9865H72.9092C75.6822 74.9865 77.9301 72.7385 77.9301 69.9655V46.6074H2.06982Z" fill="#365E7D"/>
<path d="M2.06982 43.7033V46.6066C6.24107 49.9184 17.2654 56.3477 40 56.3477C62.7345 56.3477 73.7589 49.9184 77.9301 46.6064V43.7031H2.06982V43.7033Z" fill="#2B4D66"/>
<path d="M1.85188 42.032C5.84953 45.2867 16.8586 51.9482 40 51.9482C63.1414 51.9482 74.1503 45.2867 78.1481 42.032C79.32 41.0779 80 38.242 80 36.7309V22.7036C80 19.9306 77.752 17.6826 74.9791 17.6826H5.02094C2.24797 17.6826 0 19.9306 0 22.7036V36.7309C0 38.242 0.68 41.0779 1.85188 42.032Z" fill="#407093"/>
<path d="M78.1481 40.6263C74.1505 43.881 63.1414 50.5425 40 50.5425C16.8586 50.5425 5.84969 43.8808 1.85188 40.6263C0.68 39.6722 0 38.2425 0 36.7314V39.6347C0 41.1458 0.68 42.5755 1.85188 43.5296C5.84953 46.7843 16.8586 53.4458 40 53.4458C63.1414 53.4458 74.1503 46.7843 78.1481 43.5296C79.32 42.5755 80 41.1458 80 39.6347V36.7314C80 38.2425 79.32 39.6722 78.1481 40.6263Z" fill="#365E7D"/>
<path d="M39.9995 58.2761C42.597 58.2761 44.7026 56.3474 44.7026 52.1668V49.3152C44.7026 48.3908 43.9533 47.6416 43.029 47.6416H36.97C36.0456 47.6416 35.2964 48.391 35.2964 49.3152V52.1672C35.2962 56.3474 37.402 58.2761 39.9995 58.2761Z" fill="#FFE27A"/>
<path d="M39.9995 56.8711C37.402 56.8711 35.2964 54.7655 35.2964 52.168V55.0712C35.2964 57.6687 37.402 59.7744 39.9995 59.7744C42.597 59.7744 44.7026 57.6687 44.7026 55.0712V52.168C44.7026 54.7653 42.597 56.8711 39.9995 56.8711Z" fill="#F9CF58"/>
</g>
<defs>
<clipPath id="clip0">
<rect width="80" height="80" fill="white"/>
</clipPath>
</defs>
</svg>
