<svg width="23" height="24" viewBox="0 0 23 24" fill="none" xmlns="http://www.w3.org/2000/svg">
<path d="M10.9984 19.0583C16.2612 19.0583 20.5275 14.7919 20.5275 9.52913C20.5275 4.26634 16.2612 0 10.9984 0C5.73558 0 1.46924 4.26634 1.46924 9.52913C1.46924 14.7919 5.73558 19.0583 10.9984 19.0583Z" fill="#FFD15C"/>
<path d="M3.27874 15.104L0 20.7875L3.82677 20.5843L5.56535 24.0001L8.59843 18.7418C6.4252 18.1796 4.55906 16.8709 3.27874 15.104Z" fill="#40596B"/>
<path d="M18.737 15.0756C17.4661 16.8472 15.6 18.1606 13.4315 18.7323L16.474 24L18.2126 20.5842L22.0393 20.7874L18.737 15.0756Z" fill="#40596B"/>
<path d="M10.9984 16.4362C14.8131 16.4362 17.9055 13.3438 17.9055 9.52916C17.9055 5.71448 14.8131 2.62207 10.9984 2.62207C7.18372 2.62207 4.09131 5.71448 4.09131 9.52916C4.09131 13.3438 7.18372 16.4362 10.9984 16.4362Z" fill="#F8B64C"/>
<path d="M15.7322 8.78267C15.9448 8.5748 15.8267 8.21102 15.5338 8.1685L12.8078 7.77165C12.6897 7.75275 12.5905 7.68189 12.5385 7.57323L11.3196 5.10236C11.1873 4.83307 10.8047 4.83307 10.6724 5.10236L9.45821 7.57323C9.40624 7.67716 9.3023 7.75275 9.18891 7.77165L6.46293 8.1685C6.17002 8.21102 6.05191 8.5748 6.26451 8.78267L8.23458 10.7055C8.31962 10.7905 8.35742 10.9087 8.33852 11.022L7.87553 13.7339C7.82356 14.0268 8.13537 14.2535 8.39994 14.1118L10.8377 12.8315C10.9417 12.7748 11.0692 12.7748 11.1732 12.8315L13.611 14.1118C13.8755 14.2488 14.1826 14.0268 14.1354 13.7339L13.6677 11.022C13.6488 10.9039 13.6866 10.7858 13.7716 10.7055L15.7322 8.78267Z" fill="white"/>
</svg>
