<svg width="34" height="26" viewBox="0 0 34 26" fill="none" xmlns="http://www.w3.org/2000/svg">
<path d="M24.8275 6.75994C20.7917 6.36675 16.7189 6.78427 12.8429 7.9885C8.96692 9.19273 5.36415 11.16 2.24139 13.7773L1.86307 14.1602C1.18522 14.8457 0.669308 15.6774 0.353944 16.5933C0.0385801 17.5091 -0.068056 18.4852 0.0419823 19.4487C0.152021 20.4121 0.475883 21.3379 0.989371 22.1567C1.50286 22.9756 2.19265 23.6663 3.00715 24.1772C3.82165 24.6881 4.73975 25.0059 5.69277 25.107C6.64579 25.208 7.60905 25.0896 8.51047 24.7606C9.41188 24.4316 10.2281 23.9005 10.8981 23.2072C11.5681 22.5138 12.0745 21.676 12.3793 20.7566L12.6894 20.0764C14.3863 16.3525 19.6158 16.3525 21.3134 20.0764L21.6207 20.7545C21.9251 21.6741 22.431 22.5122 23.1007 23.206C23.7704 23.8997 24.5865 24.4312 25.4878 24.7606C26.3891 25.09 27.3523 25.2088 28.3054 25.1081C29.2585 25.0074 30.1768 24.6899 30.9915 24.1792C31.8062 23.6685 32.4962 22.9779 33.0099 22.1591C33.5236 21.3403 33.8476 20.4146 33.9578 19.4511C34.068 18.4876 33.9614 17.5114 33.6461 16.5955C33.3308 15.6796 32.8149 14.8478 32.137 14.1622L24.8275 6.75994ZM18.3292 15.2466C18.066 15.5123 17.7309 15.6931 17.3662 15.7661C17.0016 15.8392 16.6237 15.8012 16.2804 15.657C15.937 15.5127 15.6436 15.2688 15.4372 14.9558C15.2308 14.6429 15.1206 14.2751 15.1206 13.8989C15.1206 13.5226 15.2308 13.1549 15.4372 12.8419C15.6436 12.529 15.937 12.2851 16.2804 12.1408C16.6237 11.9966 17.0016 11.9586 17.3662 12.0317C17.7309 12.1047 18.066 12.2855 18.3292 12.5511C18.5044 12.728 18.6434 12.938 18.7382 13.1693C18.8331 13.4006 18.8819 13.6485 18.8819 13.8989C18.8819 14.1493 18.8331 14.3972 18.7382 14.6285C18.6434 14.8598 18.5044 15.0698 18.3292 15.2466Z" fill="#5E5CD8"/>
<path d="M22.9523 4.86194L20.4059 2.28462C19.5022 1.37057 18.2769 0.857117 16.9994 0.857117C15.7218 0.857117 14.4965 1.37057 13.5928 2.28462L4.63623 11.3505C9.79509 7.07016 16.2822 4.77209 22.9523 4.86194Z" fill="#5E5CD8"/>
<path d="M24.8277 6.75976C20.7918 6.36634 16.7188 6.78387 12.8428 7.98835C8.96677 9.19284 5.36407 11.1606 2.24163 13.7785L1.86265 14.16C0.671277 15.3666 0.00201416 17.0026 0.00201416 18.7085C0.00201416 20.4143 0.671277 22.0503 1.86265 23.257C3.15328 5.37675 24.8305 6.75976 24.8305 6.75976" fill="#4643C0"/>
</svg>
