<svg width="50" height="50" viewBox="0 0 50 50" fill="none" xmlns="http://www.w3.org/2000/svg">
<path d="M49.1809 49.9681H42.1539C42.0493 49.9827 41.9429 49.9734 41.842 49.9408C41.741 49.9083 41.6477 49.8532 41.5684 49.7794C41.4891 49.7056 41.4255 49.6146 41.382 49.5127C41.3384 49.4107 41.3159 49.3001 41.3159 49.1881C41.3159 49.0762 41.3384 48.9655 41.382 48.8636C41.4255 48.7616 41.4891 48.6707 41.5684 48.5968C41.6477 48.523 41.741 48.468 41.842 48.4354C41.9429 48.4029 42.0493 48.3936 42.1539 48.4081H48.5021V41.6214C48.5255 41.432 48.613 41.2582 48.7483 41.1323C48.8836 41.0063 49.0575 40.9369 49.2375 40.9369C49.4175 40.9369 49.5914 41.0063 49.7267 41.1323C49.862 41.2582 49.9495 41.432 49.9729 41.6214V49.1415C49.9806 49.2533 49.9653 49.3655 49.928 49.4704C49.8908 49.5753 49.8324 49.6704 49.7571 49.749C49.6818 49.8277 49.5912 49.888 49.4917 49.9258C49.3922 49.9637 49.2862 49.9781 49.1809 49.9681Z" fill="#14142B"/>
<path d="M7.80639 49.8664H0.729099C0.53573 49.8664 0.350281 49.785 0.213548 49.6399C0.0768155 49.4949 0 49.2982 0 49.0931V41.5197C0 41.3146 0.0768155 41.1179 0.213548 40.9729C0.350281 40.8279 0.53573 40.7464 0.729099 40.7464C0.923644 40.7464 1.11041 40.8274 1.24914 40.9721C1.38788 41.1167 1.46747 41.3134 1.47077 41.5197V48.2531H7.75611C7.86075 48.2386 7.96711 48.2479 8.06808 48.2804C8.16906 48.313 8.26233 48.368 8.34165 48.4418C8.42097 48.5156 8.48453 48.6066 8.52807 48.7085C8.57161 48.8105 8.59413 48.9212 8.59413 49.0331C8.59413 49.145 8.57161 49.2557 8.52807 49.3577C8.48453 49.4596 8.42097 49.5506 8.34165 49.6244C8.26233 49.6982 8.16906 49.7532 8.06808 49.7858C7.96711 49.8183 7.86075 49.8276 7.75611 49.8131L7.80639 49.8664Z" fill="#14142B"/>
<path d="M0.731319 9.12677C0.537951 9.12677 0.352503 9.04529 0.215771 8.90026C0.0790394 8.75523 0.00222441 8.55853 0.00222441 8.35343V0.833343C-0.00468128 0.72739 0.00906219 0.621065 0.0425978 0.520994C0.0761335 0.420923 0.128742 0.329251 0.197146 0.251693C0.265549 0.174134 0.348281 0.112351 0.440183 0.0701953C0.532086 0.0280393 0.631191 0.00641393 0.731319 0.00666682H7.80856C7.9132 -0.00787541 8.01956 0.00143634 8.12054 0.03398C8.22151 0.0665237 8.31478 0.12155 8.3941 0.195382C8.47342 0.269214 8.53698 0.360152 8.58052 0.46212C8.62406 0.564088 8.64658 0.674737 8.64658 0.786676C8.64658 0.898614 8.62406 1.00926 8.58052 1.11123C8.53698 1.2132 8.47342 1.30414 8.3941 1.37797C8.31478 1.4518 8.22151 1.50683 8.12054 1.53937C8.01956 1.57191 7.9132 1.58123 7.80856 1.56668H1.52327V8.35343C1.52179 8.46025 1.49982 8.56564 1.45868 8.66317C1.41755 8.76069 1.35812 8.8483 1.28402 8.92066C1.20991 8.99303 1.12269 9.04862 1.02767 9.08406C0.932644 9.11949 0.831811 9.13402 0.731319 9.12677Z" fill="#14142B"/>
<path d="M49.1809 9.00675C48.9875 9.00675 48.8021 8.92527 48.6653 8.78025C48.5286 8.63522 48.4518 8.43851 48.4518 8.23341V1.56668H42.1539C42.0493 1.58122 41.9429 1.57191 41.842 1.53937C41.741 1.50682 41.6477 1.4518 41.5684 1.37797C41.4891 1.30413 41.4255 1.2132 41.382 1.11123C41.3384 1.00926 41.3159 0.898612 41.3159 0.786674C41.3159 0.674736 41.3384 0.564087 41.382 0.462119C41.4255 0.360152 41.4891 0.269214 41.5684 0.195382C41.6477 0.12155 41.741 0.0665239 41.842 0.0339802C41.9429 0.00143658 42.0493 -0.00787547 42.1539 0.00666673H49.1809C49.2777 0.00489624 49.3738 0.0235919 49.4638 0.0616625C49.5537 0.099733 49.6355 0.156416 49.7046 0.228404C49.7736 0.300393 49.8284 0.386245 49.8659 0.48095C49.9033 0.575656 49.9226 0.677319 49.9225 0.780008V8.23341C49.9226 8.3361 49.9033 8.43776 49.8659 8.53247C49.8284 8.62717 49.7736 8.71303 49.7046 8.78501C49.6355 8.857 49.5537 8.91369 49.4638 8.95176C49.3738 8.98983 49.2777 9.00852 49.1809 9.00675Z" fill="#14142B"/>
<path d="M25.3524 10C22.1638 10 19.5698 12.7213 19.5698 16.0667C19.5698 19.4121 22.1637 22.1333 25.3524 22.1333C28.5411 22.1333 31.135 19.412 31.135 16.0667C31.135 12.7214 28.5411 10 25.3524 10ZM25.3524 20.4C23.0757 20.4 21.222 18.4552 21.222 16.0667C21.222 13.6782 23.0757 11.7334 25.3524 11.7334C27.629 11.7334 29.4827 13.6782 29.4827 16.0667C29.4827 18.4552 27.6291 20.4 25.3524 20.4Z" fill="#14142B"/>
<path d="M36.9184 16.9335C34.6418 16.9335 32.7881 18.8782 32.7881 21.2667C32.7881 23.6552 34.6418 25.6 36.9184 25.6C39.1951 25.6 41.0488 23.6552 41.0488 21.2667C41.0488 18.8782 39.1951 16.9335 36.9184 16.9335ZM36.9184 23.8667C35.5521 23.8667 34.4402 22.7002 34.4402 21.2667C34.4402 19.8332 35.5521 18.6668 36.9184 18.6668C38.2848 18.6668 39.3967 19.8332 39.3967 21.2667C39.3967 22.7002 38.2847 23.8667 36.9184 23.8667Z" fill="#14142B"/>
<path d="M13.9053 16.9335C11.6269 16.9335 9.7749 18.8782 9.7749 21.2667C9.7749 23.6552 11.6286 25.6 13.9053 25.6C16.1819 25.6 18.0356 23.6552 18.0356 21.2667C18.0356 18.8782 16.1835 16.9335 13.9053 16.9335ZM13.9053 23.8667C12.5389 23.8667 11.427 22.7002 11.427 21.2667C11.427 19.8332 12.5389 18.6668 13.9053 18.6668C15.2716 18.6668 16.3835 19.8332 16.3835 21.2667C16.3835 22.7002 15.2715 23.8667 13.9053 23.8667Z" fill="#14142B"/>
<path d="M25.3523 23.8667C19.431 23.8667 14.6133 28.9211 14.6133 35.1334C14.6133 35.6118 14.9834 36 15.4394 36C15.8954 36 16.2655 35.6118 16.2655 35.1334C16.2655 29.8762 20.3413 25.6001 25.3523 25.6001C30.3633 25.6001 34.4392 29.8762 34.4392 35.1334C34.4392 35.6118 34.8093 36 35.2653 36C35.7213 36 36.0914 35.6118 36.0914 35.1334C36.0914 28.9211 31.2737 23.8667 25.3523 23.8667Z" fill="#14142B"/>
<path d="M36.9176 27.3333C35.5579 27.3333 34.2262 27.7233 33.0664 28.4599C32.6782 28.7095 32.5526 29.2416 32.7888 29.6507C33.0284 30.0598 33.5339 30.1898 33.9239 29.9419C34.8242 29.3682 35.8585 29.0666 36.9176 29.0666C40.1062 29.0666 42.7001 31.7878 42.7001 35.1332C42.7001 35.6116 43.0702 35.9999 43.5262 35.9999C43.9822 35.9999 44.3523 35.6116 44.3523 35.1332C44.3523 30.8328 41.0166 27.3333 36.9176 27.3333Z" fill="#14142B"/>
<path d="M17.6368 28.4582C16.4786 27.7233 15.147 27.3333 13.7872 27.3333C9.68824 27.3333 6.35254 30.8328 6.35254 35.1332C6.35254 35.6116 6.72265 35.9999 7.17864 35.9999C7.63464 35.9999 8.00474 35.6116 8.00474 35.1332C8.00467 31.7878 10.5986 29.0666 13.7872 29.0666C14.8463 29.0666 15.8805 29.3682 16.7793 29.9402C17.1675 30.188 17.6764 30.058 17.9143 29.649C18.1522 29.2399 18.0266 28.7078 17.6368 28.4582Z" fill="#14142B"/>
</svg>
