<svg width="50" height="51" viewBox="0 0 50 51" fill="none" xmlns="http://www.w3.org/2000/svg">
<path d="M49.1748 50.9934H41.871C41.7623 51.0078 41.6517 50.9986 41.5468 50.9662C41.4418 50.9338 41.3449 50.879 41.2624 50.8054C41.18 50.7319 41.1139 50.6414 41.0687 50.5398C41.0234 50.4383 41 50.3281 41 50.2166C41 50.1052 41.0234 49.995 41.0687 49.8934C41.1139 49.7919 41.18 49.7013 41.2624 49.6278C41.3449 49.5543 41.4418 49.4995 41.5468 49.4671C41.6517 49.4347 41.7623 49.4254 41.871 49.4399H48.4693V42.6816C48.4936 42.4931 48.5845 42.32 48.7252 42.1946C48.8658 42.0692 49.0465 42 49.2336 42C49.4207 42 49.6015 42.0692 49.7421 42.1946C49.8827 42.32 49.9737 42.4931 49.998 42.6816V50.1702C50.006 50.2815 49.9901 50.3933 49.9514 50.4977C49.9126 50.6022 49.852 50.6969 49.7737 50.7752C49.6954 50.8535 49.6013 50.9136 49.4979 50.9512C49.3945 50.9889 49.2843 51.0033 49.1748 50.9934Z" fill="#14142B"/>
<path d="M8.17506 51H0.763532C0.561031 51 0.366823 50.9196 0.223633 50.7765C0.0804432 50.6334 0 50.4392 0 50.2368V42.7632C0 42.5608 0.0804432 42.3666 0.223633 42.2235C0.366823 42.0804 0.561031 42 0.763532 42C0.967264 42 1.16285 42.08 1.30814 42.2227C1.45342 42.3655 1.53678 42.5596 1.54023 42.7632V49.4079H8.1224C8.23198 49.3935 8.34337 49.4027 8.44911 49.4348C8.55486 49.467 8.65252 49.5213 8.73559 49.5941C8.81866 49.667 8.88522 49.7567 8.93082 49.8573C8.97641 49.958 9 50.0672 9 50.1776C9 50.2881 8.97641 50.3973 8.93082 50.4979C8.88522 50.5985 8.81866 50.6883 8.73559 50.7611C8.65252 50.834 8.55486 50.8883 8.44911 50.9204C8.34337 50.9525 8.23198 50.9617 8.1224 50.9474L8.17506 51Z" fill="#14142B"/>
<path d="M0.760745 8.99821C0.559462 8.99821 0.366424 8.91788 0.224095 8.77489C0.0817664 8.63191 0.00180719 8.43797 0.00180719 8.23576V0.821604C-0.00538117 0.717144 0.00892487 0.612317 0.0438332 0.513655C0.0787416 0.414994 0.133504 0.324613 0.204707 0.248147C0.27591 0.171681 0.362028 0.110769 0.457693 0.0692065C0.553358 0.0276444 0.656519 0.00632358 0.760745 0.00657291H8.12768C8.2366 -0.00776448 8.34732 0.0014161 8.45243 0.0335014C8.55753 0.0655867 8.65462 0.119838 8.73719 0.19263C8.81976 0.265422 8.88591 0.355079 8.93123 0.45561C8.97655 0.556142 9 0.665233 9 0.775594C9 0.885956 8.97655 0.995047 8.93123 1.09558C8.88591 1.19611 8.81976 1.28577 8.73719 1.35856C8.65462 1.43135 8.55753 1.4856 8.45243 1.51769C8.34732 1.54977 8.2366 1.55895 8.12768 1.54462H1.58511V8.23576C1.58357 8.34108 1.5607 8.44499 1.51788 8.54114C1.47507 8.63729 1.4132 8.72367 1.33607 8.79501C1.25893 8.86635 1.16814 8.92116 1.06922 8.9561C0.970312 8.99103 0.865351 9.00536 0.760745 8.99821Z" fill="#14142B"/>
<path d="M49.2244 8.99989C49.0222 8.99989 48.8283 8.91847 48.6853 8.77355C48.5423 8.62863 48.462 8.43208 48.462 8.22713V1.56549H41.8763C41.7669 1.58002 41.6557 1.57071 41.5501 1.53819C41.4445 1.50568 41.347 1.45069 41.264 1.37692C41.1811 1.30314 41.1146 1.21227 41.0691 1.11038C41.0235 1.00849 41 0.897927 41 0.786074C41 0.674222 41.0235 0.563657 41.0691 0.461767C41.1146 0.359877 41.1811 0.269009 41.264 0.195233C41.347 0.121457 41.4445 0.0664731 41.5501 0.0339543C41.6557 0.00143548 41.7669 -0.00786947 41.8763 0.00666165H49.2244C49.3257 0.00489251 49.4262 0.0235739 49.5202 0.0616155C49.6143 0.099657 49.6999 0.156297 49.7721 0.22823C49.8443 0.300164 49.9016 0.38595 49.9407 0.480584C49.9799 0.575217 50 0.676803 50 0.779413V8.22713C50 8.32974 49.9799 8.43133 49.9407 8.52596C49.9016 8.6206 49.8443 8.70638 49.7721 8.77832C49.6999 8.85025 49.6143 8.90689 49.5202 8.94493C49.4262 8.98297 49.3257 9.00165 49.2244 8.99989Z" fill="#14142B"/>
<path d="M23.9814 9C15.1594 9 7.98145 16.1775 7.98145 25C7.98145 33.8225 15.1594 41 23.9814 41C32.8035 41 39.9814 33.8225 39.9814 25C39.9814 16.1775 32.8035 9 23.9814 9ZM23.9814 39.0606C16.2287 39.0606 9.92084 32.7527 9.92084 25C9.92084 17.2473 16.2287 10.9394 23.9814 10.9394C31.7342 10.9394 38.0421 17.2473 38.0421 25C38.0421 32.7527 31.7342 39.0606 23.9814 39.0606Z" fill="#14142B"/>
<path d="M32.4195 15.4157C32.4036 15.1386 32.269 14.8826 32.0511 14.7112C29.7187 12.8778 26.9279 11.9091 23.982 11.9091C16.7633 11.9091 10.8911 17.7818 10.8911 25C10.8911 27.9455 11.8598 30.7358 13.6933 33.0686C13.8647 33.2868 14.1214 33.4209 14.3978 33.4374C14.4167 33.4388 14.4366 33.4393 14.4555 33.4393C14.7122 33.4393 14.9583 33.3375 15.141 33.1552L32.1371 16.159C32.3333 15.9631 32.4365 15.6921 32.4195 15.4157ZM14.5796 30.9741C13.432 29.1847 12.8305 27.1404 12.8305 25C12.8305 18.8509 17.8334 13.8485 23.982 13.8485C26.1221 13.8485 28.1667 14.4502 29.9556 15.598L14.5796 30.9741Z" fill="#14142B"/>
<path d="M34.2699 16.9313C34.0985 16.7131 33.8418 16.5791 33.5654 16.5626C33.2946 16.5478 33.019 16.6491 32.8221 16.8448L15.826 33.8409C15.6299 34.037 15.5268 34.3078 15.5438 34.5842C15.5598 34.8613 15.6943 35.1173 15.9123 35.2887C18.2447 37.1219 21.0354 38.0908 23.9814 38.0908C31.2001 38.0908 37.0723 32.2181 37.0723 24.9999C37.0721 22.0545 36.1034 19.2642 34.2699 16.9313ZM23.9812 36.1514C21.841 36.1514 19.7964 35.5497 18.0076 34.4019L33.3836 19.0259C34.5312 20.8152 35.1327 22.8595 35.1327 24.9999C35.1327 31.149 30.1298 36.1514 23.9812 36.1514Z" fill="#14142B"/>
</svg>
