<svg width="50" height="50" viewBox="0 0 50 50" fill="none" xmlns="http://www.w3.org/2000/svg">
<path d="M44.4187 39.5361L40.6248 33.0561C40.4714 32.7941 40.1318 32.7045 39.8664 32.8557C39.6008 33.0069 39.5098 33.3417 39.6632 33.6036L43.4571 40.0837C43.6017 40.3307 43.5053 40.5489 43.4571 40.6312C43.4088 40.7135 43.2656 40.905 42.9761 40.905H30.8635C30.5742 40.905 30.4308 40.7135 30.3825 40.6312C30.3344 40.5489 30.2379 40.3307 30.3826 40.0837L36.4389 29.7391C36.5836 29.492 36.8234 29.4653 36.9198 29.4653C37.0162 29.4653 37.256 29.4919 37.4007 29.7391L39.7654 33.7782C39.9187 34.0402 40.2584 34.1297 40.5238 33.9786C40.7894 33.8274 40.8804 33.4926 40.7271 33.2307L38.3623 29.1915C38.0612 28.6773 37.5219 28.3702 36.9197 28.3702C36.3176 28.3702 35.7783 28.6772 35.4772 29.1915L35.0953 29.8439C33.2354 27.5912 30.5801 26.1104 27.6653 25.7111V23.7558C27.6653 23.7536 27.665 23.7515 27.665 23.7493C28.4079 22.951 28.9735 22.0125 29.3291 20.993C30.5218 20.936 31.8736 19.5816 32.5382 18.1898C33.3051 16.5839 32.963 15.2536 31.6229 14.6312C30.9799 14.3327 30.3375 14.3173 29.7638 14.5671V13.1254C29.7638 12.3324 28.956 10.007 28.697 9.2635C28.5973 8.97748 28.2814 8.82524 27.9915 8.92361C27.7016 9.02176 27.5472 9.33326 27.6469 9.61928C27.7707 9.97492 28.5352 11.8869 28.5895 12.2588C28.3851 12.181 28.1634 12.1378 27.9315 12.1378H16.4234C16.1916 12.1378 15.97 12.1809 15.7656 12.2587C16.1932 9.34282 18.7432 7.09507 21.8166 7.09507H22.5382C24.3747 7.09507 26.5909 8.42776 27.7583 9.82855C27.9529 10.0622 28.3029 10.0959 28.5398 9.90394C28.7767 9.71196 28.8109 9.36687 28.6162 9.13332C27.2369 7.47841 24.7082 6 22.5382 6H21.8166C17.8324 6 14.5911 9.19644 14.5911 13.1254V14.5675C14.0168 14.3179 13.3735 14.3332 12.732 14.6311C11.3918 15.2535 11.0496 16.5838 11.8166 18.1897C12.4831 19.5852 13.8331 20.9367 15.0258 20.993C15.3813 22.0124 15.9467 22.9507 16.6895 23.7489V25.711C13.9893 26.0804 11.5059 27.3737 9.66175 29.3807C7.7161 31.4983 6.64453 34.2394 6.64453 37.0992V38.4249C6.64453 38.9281 7.05964 39.3375 7.56989 39.3375H29.5371L29.4209 39.536C29.1198 40.0503 29.1198 40.6643 29.4208 41.1786C29.7219 41.6929 30.2612 42 30.8634 42H42.9761C43.5783 42 44.1176 41.693 44.4187 41.1787C44.7198 40.6644 44.7198 40.0504 44.4187 39.5361ZM31.1498 15.6218C31.4306 15.7523 32.2853 16.1492 31.5336 17.7231C31.054 18.7274 30.2375 19.5372 29.6403 19.8063C29.7213 19.3555 29.7638 18.8947 29.7638 18.4279V15.8986C30.1714 15.461 30.613 15.3725 31.1498 15.6218ZM16.4234 13.2329H27.9315C28.3295 13.2329 28.6533 13.5522 28.6533 13.9447V18.4279C28.6533 20.6896 27.5169 22.7931 25.6134 24.0547L23.5701 25.4091C22.724 25.9698 21.6308 25.9699 20.7846 25.4091L18.7413 24.0547C16.8379 22.793 15.7014 20.6896 15.7014 18.4279V13.9447C15.7016 13.5522 16.0254 13.2329 16.4234 13.2329ZM12.8213 17.7232C12.0696 16.1493 12.9243 15.7523 13.2051 15.6219C13.742 15.3726 14.1826 15.4603 14.5911 15.8978V18.428C14.5911 18.895 14.6336 19.3561 14.7146 19.8071C14.1178 19.5389 13.3023 18.7306 12.8213 17.7232ZM7.75499 38.2425V37.0992C7.75499 31.9215 11.5656 27.5841 16.6979 26.8156C16.7393 27.5099 17.5774 29.1193 17.9219 29.724C18.0728 29.9902 18.4154 30.08 18.6779 29.9333C18.9452 29.7852 19.0402 29.4514 18.8901 29.1878C18.5942 28.6682 17.8 27.1459 17.8 26.5457V24.7377C17.9568 24.8658 19.9468 26.1691 20.1652 26.3181C20.7764 26.7232 21.4769 26.9257 22.1773 26.9257C22.8779 26.9257 23.5784 26.7232 24.1895 26.3181C24.4176 26.1626 26.3896 24.8715 26.5548 24.7377V26.5457C26.5548 28.476 24.9623 30.0464 23.0049 30.0464H21.3498C20.847 30.0464 19.092 29.1578 18.6371 28.9579C18.3569 28.8348 18.0288 28.9591 17.904 29.2352C17.7792 29.5115 17.9051 29.8351 18.1851 29.9582C18.7832 30.221 20.6903 31.091 21.3498 31.091L23.0049 31.1414C25.4823 31.1414 27.5138 29.2248 27.6565 26.8164C30.3761 27.227 32.8356 28.6801 34.4968 30.8658L30.1782 38.2424L7.75499 38.2425Z" fill="#14142B"/>
<path d="M36.9217 39.7888C37.2665 39.7888 37.546 39.5132 37.546 39.1732C37.546 38.8331 37.2665 38.5575 36.9217 38.5575C36.5769 38.5575 36.2974 38.8331 36.2974 39.1732C36.2974 39.5132 36.5769 39.7888 36.9217 39.7888Z" fill="#14142B"/>
<path d="M36.9258 37.6715C37.2325 37.6715 37.481 37.4264 37.481 37.124V32.5718C37.481 32.2694 37.2325 32.0243 36.9258 32.0243C36.6192 32.0243 36.3706 32.2694 36.3706 32.5718V37.124C36.3706 37.4264 36.6192 37.6715 36.9258 37.6715Z" fill="#14142B"/>
<path d="M49.0609 49.9077H40.7668C40.558 49.8801 40.3664 49.7778 40.2276 49.6197C40.0887 49.4617 40.0122 49.2587 40.0122 49.0485C40.0122 48.8383 40.0887 48.6353 40.2276 48.4772C40.3664 48.3191 40.558 48.2168 40.7668 48.1893H48.2524V40.7181C48.2524 40.6062 48.2745 40.4955 48.3174 40.3921C48.3603 40.2888 48.4231 40.1949 48.5024 40.1158C48.5816 40.0367 48.6757 39.974 48.7792 39.9312C48.8828 39.8884 48.9937 39.8663 49.1058 39.8663C49.3335 39.8663 49.5522 39.9556 49.7146 40.1149C49.877 40.2742 49.9702 40.4908 49.9741 40.7181V49.0111C49.9785 49.1313 49.9577 49.251 49.9131 49.3628C49.8685 49.4745 49.8012 49.5757 49.7153 49.6601C49.6294 49.7444 49.5268 49.8099 49.4142 49.8526C49.3015 49.8952 49.1812 49.914 49.0609 49.9077Z" fill="#14142B"/>
<path d="M9.13242 49.9076H0.838386C0.614666 49.9036 0.401438 49.8122 0.244626 49.6529C0.0878146 49.4936 -3.44268e-05 49.2792 1.01207e-08 49.0558V40.7629C0.003847 40.5421 0.0934118 40.3315 0.249813 40.1754C0.406215 40.0193 0.617234 39.9299 0.838386 39.9261C1.06611 39.9261 1.28473 40.0153 1.44715 40.1746C1.60957 40.3339 1.70279 40.5505 1.70671 40.7778V48.249H9.1923C9.31488 48.2328 9.43949 48.2429 9.55782 48.2787C9.67615 48.3145 9.78546 48.3751 9.87844 48.4564C9.97142 48.5378 10.0459 48.638 10.097 48.7504C10.148 48.8628 10.1744 48.9847 10.1744 49.1081C10.1744 49.2315 10.148 49.3535 10.097 49.4659C10.0459 49.5783 9.97142 49.6785 9.87844 49.7599C9.78546 49.8412 9.67615 49.9018 9.55782 49.9376C9.43949 49.9734 9.31488 49.9835 9.1923 49.9673L9.13242 49.9076Z" fill="#14142B"/>
<path d="M0.838386 10.0413C0.617234 10.0375 0.406215 9.9481 0.249814 9.792C0.0934118 9.6359 0.00384699 9.42528 0 9.20456V0.911554C0 0.685665 0.0899072 0.469028 0.249943 0.309301C0.409978 0.149573 0.627033 0.0598393 0.853357 0.0598393H9.13242C9.25499 0.043671 9.37961 0.0538149 9.49794 0.0895918C9.61627 0.125369 9.72558 0.185954 9.81855 0.267295C9.91153 0.348635 9.98603 0.448856 10.0371 0.561251C10.0881 0.673646 10.1145 0.795624 10.1145 0.919025C10.1145 1.04243 10.0881 1.1644 10.0371 1.2768C9.98603 1.38919 9.91153 1.48941 9.81855 1.57075C9.72558 1.6521 9.61627 1.71268 9.49794 1.74846C9.37961 1.78423 9.25499 1.79438 9.13242 1.77821H1.64683V9.24938C1.62936 9.45611 1.53816 9.64973 1.38981 9.79505C1.24146 9.94037 1.0458 10.0278 0.838386 10.0413Z" fill="#14142B"/>
<path d="M49.0614 10.0413C48.8351 10.0413 48.618 9.95156 48.458 9.79184C48.2979 9.63211 48.208 9.41547 48.208 9.18958V1.71838H40.7223C40.5136 1.69084 40.3219 1.58851 40.1831 1.43045C40.0443 1.27239 39.9678 1.06937 39.9678 0.859188C39.9678 0.649005 40.0443 0.445983 40.1831 0.287923C40.3219 0.129864 40.5136 0.027539 40.7223 9.58764e-09H49.0165C49.2442 -3.37751e-05 49.4628 0.0892208 49.6253 0.248533C49.7877 0.407846 49.8809 0.624464 49.8848 0.851717V9.20452C49.8776 9.42161 49.789 9.62808 49.6365 9.78305C49.484 9.93802 49.2787 10.0302 49.0614 10.0413Z" fill="#14142B"/>
</svg>
