<svg width="340" height="345" viewBox="0 0 340 345" fill="none" xmlns="http://www.w3.org/2000/svg">
<path fill-rule="evenodd" clip-rule="evenodd" d="M56.5328 121.966C66.3663 104.44 75.2697 86.0575 91.3631 74.0199C107.597 61.8773 127.822 58.1283 147.635 53.8235C169.559 49.0599 192.712 39.0219 213.492 47.4842C234.337 55.9723 245.486 78.4329 256.399 98.1142C266.43 116.204 269.31 136.372 273.956 156.527C279.245 179.475 293.828 202.902 285.641 224.98C277.454 247.057 253.343 258.989 232.152 269.258C213.067 278.506 191.681 277.853 170.663 280.698C148.887 283.645 127.312 292.082 106.104 286.319C83.5224 280.183 62.5265 266.698 48.9652 247.629C35.4357 228.605 29.8756 204.405 31.2787 181.106C32.5896 159.338 45.8621 140.984 56.5328 121.966Z" fill="#E6EDFD"/>
<path d="M323.596 283H17.4034C17.1817 283 16.9998 282.502 16.9998 281.895V281.105C16.9998 280.498 17.1817 280 17.4034 280H323.596C323.818 280 324 280.498 324 281.105V281.895C324 282.505 323.818 283 323.596 283Z" fill="#182E56"/>
<path d="M226.271 98.1672C225.437 98.0399 222.924 100.363 222.924 100.363C217.558 100.984 209.712 102.407 206.888 102.951C204.886 103.336 199.503 101.502 194.243 99.3953C187.988 96.8889 181.91 93.9988 181.91 93.9988C178.439 93.8213 174.497 100.15 181.537 104.175C182.611 104.79 186.649 105.837 191.297 106.794C191.297 106.794 191.297 106.794 191.299 106.794C197.712 108.116 205.288 109.261 207.868 108.858C210.863 108.39 219.343 105.29 224.388 102.915C224.388 102.915 224.393 102.913 224.4 102.907C224.42 102.899 224.438 102.89 224.456 102.881C224.759 102.739 225.993 102.19 226.817 102.239C227.762 102.294 229.866 100.566 229.931 100.105C229.994 99.6427 227.105 98.2927 226.271 98.1672Z" fill="#ED975D"/>
<path d="M219.719 177.892L216.765 178.492C216.765 178.492 203.244 163.31 201.158 156.92C200.042 153.507 192.904 152.031 185.443 150.104C178.951 148.426 172.215 146.405 168.997 142.461C162.081 133.988 173.34 123.575 173.34 123.575C173.34 123.575 185.309 130.686 195.636 138.029C202.853 143.162 209.268 148.41 210.235 151.425C212.583 158.762 217.561 172.703 219.719 177.892Z" fill="#2B478B"/>
<path d="M215.764 182.901H217.425C217.981 182.813 218.392 182.652 218.964 182.578C219.83 182.465 220.23 182.82 220.309 182.901C220.32 182.912 220.326 182.917 220.326 182.917H227.385C227.562 182.664 227.392 182.076 227.225 181.644C227.112 181.35 226.868 181.128 226.565 181.04C225.817 180.823 224.34 180.63 222.99 179.407C222.229 178.72 219.317 176.882 219.317 176.882L219.301 176.879C219.237 176.881 218.933 176.974 217.608 178.091C216.923 178.668 215.757 177.277 215.757 177.277C215.757 177.277 215.538 177.458 215.374 177.795C215.243 178.062 215.147 178.428 215.222 178.878C215.328 179.514 214.987 180.696 214.716 181.494C214.551 181.978 214.413 182.322 214.413 182.322C214.413 182.322 214.334 182.722 215.764 182.901Z" fill="#233862"/>
<path d="M195.636 138.031L185.443 150.106C178.951 148.428 172.215 146.407 168.997 142.463C162.081 133.99 173.34 123.577 173.34 123.577C173.34 123.577 185.31 130.686 195.636 138.031Z" fill="#1E3D70"/>
<path d="M186.374 131.724C186.374 131.724 185.553 134.313 184.214 138.209C182.523 143.135 180.004 150.149 177.27 156.653C176.669 158.082 176.059 159.488 175.444 160.842C173.171 165.847 170.844 170.138 168.798 172.319C165.117 176.24 156.17 201.441 156.17 201.441L153.941 200.824C153.941 200.824 150.832 179.304 161.843 167.059C161.961 166.928 162.053 166.778 162.065 166.602C162.067 166.6 162.067 166.598 162.067 166.597C162.214 164.784 162.738 156.666 163.877 148.442C164.157 146.423 164.474 144.401 164.831 142.463C164.853 142.339 164.878 142.216 164.899 142.094C166.575 133.129 168.179 129.142 170.249 127.138L185.472 131.469L186.374 131.724Z" fill="#2B478B"/>
<path d="M153.691 204.537H155.352C155.908 204.449 156.319 204.288 156.891 204.214C157.758 204.101 158.158 204.456 158.237 204.537C158.248 204.548 158.253 204.553 158.253 204.553H165.312C165.49 204.3 165.319 203.712 165.152 203.28C165.039 202.986 164.795 202.764 164.492 202.676C163.744 202.459 162.268 202.267 160.917 201.045C160.156 200.358 157.245 198.52 157.245 198.52L157.229 198.517C157.164 198.518 156.861 198.612 155.535 199.729C154.85 200.306 153.684 198.915 153.684 198.915C153.684 198.915 153.465 199.096 153.302 199.433C153.171 199.698 153.074 200.066 153.151 200.516C153.257 201.152 152.916 202.334 152.645 203.131C152.48 203.615 152.342 203.96 152.342 203.96C152.342 203.96 152.261 204.358 153.691 204.537Z" fill="#233862"/>
<path d="M156.956 102.457C156.956 102.457 154.409 108.685 151.472 114.747C149.002 119.844 146.257 124.823 144.517 125.884C142.063 127.383 135.304 131.609 130.918 134.761C130.918 134.761 127.495 134.736 126.964 135.39C126.433 136.044 125.206 138.986 125.563 139.284C125.922 139.582 128.641 139.444 129.303 138.766C129.879 138.176 131.163 137.751 131.483 137.653C131.502 137.647 131.522 137.64 131.542 137.635C131.551 137.633 131.556 137.631 131.556 137.631C136.886 135.992 145.244 132.579 147.773 130.91C149.951 129.472 154.782 123.527 158.633 118.236C158.635 118.236 158.635 118.236 158.635 118.236C161.428 114.401 163.707 110.909 164.087 109.731C166.582 102.018 159.403 99.99 156.956 102.457Z" fill="#FFB27D"/>
<path d="M170.278 78.0347C169.975 77.5936 169.67 77.2046 169.365 76.8568C169.741 76.864 170.15 76.8281 170.49 76.6883C171.383 76.3189 171.792 73.4826 171.657 72.64C171.523 71.7991 170.281 69.3662 168.749 69.1224C167.217 68.8804 165.635 70.58 165.635 70.58C165.919 69.3537 168.509 68.6455 168.509 68.6455C163.172 69.6298 163.443 73.1868 163.481 73.5149C158.594 71.7758 155.728 80.9714 155.728 80.9714L168.383 88.4243C168.383 88.4243 168.416 86.393 169.625 86.5239C171.507 86.73 173.074 82.1081 170.278 78.0347Z" fill="#2C3A64"/>
<path d="M171.085 97.3292C168.181 98.6971 164.327 96.7268 164.349 96.7052C164.598 96.456 164.51 95.712 164.283 94.7367C164.055 93.7201 163.515 92.3325 162.519 90.6741C162.311 90.3209 162.105 89.9695 161.855 89.5966L162.187 89.4729L167.829 87.2139C167.829 87.2139 168.742 88.8507 169.697 90.3442C170.506 91.5884 171.356 92.7072 171.729 92.6659C171.749 92.6444 175.482 95.2154 171.085 97.3292Z" fill="#FFB27D"/>
<path d="M167.827 87.7734C167.682 89.7832 166.996 93.412 164.28 94.7387C164.052 93.7221 163.512 92.3345 162.517 90.6761L167.827 87.7734Z" fill="#ED975D"/>
<path d="M162.187 92.9632C162.187 92.9632 169.531 90.0696 167.658 85.5265C165.785 80.9834 165.472 77.55 160.703 79.2049C155.935 80.8597 155.743 82.9663 156 84.6354C156.256 86.3028 160.228 93.5979 162.187 92.9632Z" fill="#FFB27D"/>
<path d="M164.927 84.4909C168.317 84.0122 169.307 82.6424 169.307 82.6424C169.307 82.6424 166.184 81.746 164.349 78.6892C164.349 78.6892 160.537 77.4037 157.712 79.5516C157.539 79.7757 157.416 80.0374 157.355 80.3476C156.707 80.136 155.733 80.1898 155.171 82.0203C154.326 84.767 157.329 87.7682 157.329 87.7682C158.058 87.562 157.236 85.1148 157.121 83.8078C157.037 82.8468 157.555 81.6151 157.835 81.0307C158.194 81.4968 161.773 85.9897 166.141 86.169C166.141 86.169 163.834 85.3694 161.733 83.8042C162.781 84.317 163.892 84.6361 164.927 84.4909Z" fill="#2C3A64"/>
<path d="M185.068 106.692C185.006 106.473 184.939 106.245 184.869 106.012C185.96 103.929 186.496 102.05 186.722 100.462C187.221 97.1037 186.371 95.0311 186.371 95.0311C186.371 95.0311 181.276 92.3311 179.027 91.9869C179.018 91.9833 179.007 91.9797 178.998 91.9779C178.971 91.9743 178.941 91.9707 178.908 91.9689C176.637 91.6552 171.722 92.6592 171.722 92.6592C171.722 92.6592 172.671 95.1817 169.994 96.8652C167.32 98.5469 164.462 96.4349 164.462 96.4349C164.376 96.4923 164.284 96.5569 164.189 96.6232C164.189 96.6232 157.15 101.265 156.517 102.326C155.885 103.388 153.177 108.639 153.177 108.639C153.177 108.639 154.036 113.049 163.545 113.417C164.327 115.312 164.925 117.16 165.12 118.702C165.876 124.689 164.998 129.409 165.879 132.903C166.76 136.398 182.627 134.406 185.501 133.733C188.375 133.061 187.729 129.995 187.95 127.016C188.228 123.27 186.005 109.993 185.068 106.692Z" fill="#699DEE"/>
<path d="M186.722 100.46C186.494 102.055 185.954 103.941 184.855 106.036C184.605 104.936 183.59 100.915 181.95 99.0918C181.952 99.0918 184.711 99.341 186.722 100.46Z" fill="#4A82D3"/>
<path d="M120.142 139.69C120.142 139.69 123.098 136.109 123.735 135.686C124.372 135.263 127.163 134.521 127.323 134.67C127.483 134.819 127.49 135.036 127.144 135.34C126.797 135.645 125.477 136.416 125.666 136.502C125.854 136.588 129.838 134.607 130.412 135.274C130.986 135.941 130.087 138.693 128.552 140.013C127.016 141.332 122.435 141.895 122.146 142.078C119.703 143.641 120.142 139.69 120.142 139.69Z" fill="#ED975D"/>
<path d="M68.0955 131.422C68.0955 131.422 72.3416 136.458 77.7502 134.352C77.7502 134.352 78.9145 131.539 78.9306 129.466C78.9324 129.212 78.936 128.964 78.9396 128.729C78.9683 126.395 79.0472 125.084 79.0472 125.084C79.0472 125.084 79.0454 125.084 79.0418 125.083C78.7961 124.981 70.7737 121.689 70.7809 121.961C70.9191 128.276 68.0955 131.422 68.0955 131.422Z" fill="#FFB27D"/>
<path d="M71.5862 123.467C72.3594 124.9 75.0144 127.704 78.9395 128.728C78.9682 126.393 79.0471 125.083 79.0471 125.083C79.0471 125.083 79.0453 125.083 79.0417 125.081C78.8193 125.024 71.3566 123.044 71.5862 123.467Z" fill="#ED975D"/>
<path d="M80.7282 124.842C80.7282 124.842 71.7067 126.961 70.4725 121.326C69.2383 115.691 67.2434 112.17 72.9498 110.578C78.658 108.986 80.251 110.891 81.121 112.672C81.9911 114.454 83.0423 124.146 80.7282 124.842Z" fill="#FFB27D"/>
<path d="M70.781 122.862C70.6572 122.941 68.7162 123.536 65.0405 116.217C64.4629 115.068 64.07 112.583 65.4155 110.387C66.7609 108.191 71.5309 106.464 75.4936 105.713C79.4563 104.962 80.4071 107.19 81.3417 109.43C82.3212 111.78 85.1502 113.716 85.1502 113.716C81.7328 115.624 77.6176 112.895 76.1914 113.343C74.7653 113.792 74.2612 116.038 74.1554 116.759C74.0477 117.478 73.8845 118.077 72.0906 117.433C70.2967 116.789 71.2797 119.973 71.5667 120.581C71.565 120.581 71.8089 122.202 70.781 122.862Z" fill="#A9453D"/>
<path d="M47.5424 263.564H42.08C40.9354 263.564 39.6618 262.402 39.3443 260.277C39.0249 258.149 36.6714 256.991 36.1619 255.25C35.6524 253.509 38.2625 251.06 38.2625 251.06L38.6985 250.492L39.1523 249.9L43.4792 250.931C43.4792 250.931 43.585 251.975 43.6532 253.303C43.6998 254.262 43.725 255.372 43.6711 256.346C43.5438 258.667 44.3134 261.165 46.3476 261.617C48.3837 262.067 47.5424 263.564 47.5424 263.564Z" fill="#2C3A64"/>
<path d="M85.5676 263.615H71.089C70.9509 263.587 70.845 263.556 70.7823 263.524C69.8153 263.025 70.1185 259.217 70.2351 258.041C70.2584 257.824 70.2728 257.695 70.2728 257.695C70.2728 257.695 75.3639 253.505 76.0653 256.713C76.0868 256.813 76.1137 256.912 76.1406 257.009V257.01C77.025 260.013 80.9752 261.376 83.257 261.756C85.0007 262.048 85.4528 263.094 85.5676 263.615Z" fill="#2C3A64"/>
<path d="M82.6505 179.934C82.6505 179.934 81.8773 189.576 80.9678 201.165C79.7318 216.91 78.2465 236.248 78.0994 239.911C77.8446 246.272 76.8257 256.448 76.8257 256.448C76.8257 256.448 74.4093 258.865 69.5712 257.846C69.5712 257.846 65.2604 243.321 64.028 227.95C64.0083 227.698 63.9903 227.445 63.9706 227.19C62.8261 211.544 61.043 178.597 61.043 178.597L82.6505 179.934Z" fill="#EE9849"/>
<path d="M82.6509 179.933C82.6509 179.933 81.8778 189.575 80.9682 201.164L64.0302 227.951C64.0105 227.699 63.9925 227.446 63.9728 227.191C62.8283 211.545 61.0452 178.598 61.0452 178.598L82.6509 179.933Z" fill="#E58638"/>
<path d="M79.1191 181.08C79.1191 181.08 65.1823 215.997 56.0173 232.407C46.854 248.817 43.9892 253.396 43.9892 253.396C43.9892 253.396 38.7384 251.297 38.2612 249.866C38.2612 249.866 41.7665 218.186 47.9034 210.463C51.3711 206.099 55.445 193.004 55.6352 188.425C55.8253 183.846 56.8765 174.781 56.8765 174.781L79.1191 181.08Z" fill="#EE9849"/>
<path d="M47.2094 175.264C47.2094 175.264 46.8488 179.624 46.5833 180.295C46.3196 180.964 44.5562 183.04 44.3535 183.011C44.1508 182.982 44.027 182.817 44.131 182.396C44.2351 181.973 44.8414 180.668 44.6495 180.702C44.4575 180.736 42.4394 184.413 41.6375 184.205C40.8338 183.997 40.0481 181.383 40.5271 179.536C41.0061 177.69 44.2494 174.791 44.3732 174.493C45.4227 171.971 47.2094 175.264 47.2094 175.264Z" fill="#ED975D"/>
<path d="M45.7132 176.37C47.2559 176.865 47.5035 176.753 47.5035 176.753C47.5035 176.753 55.011 163.092 55.7716 161.84C56.5322 160.589 71.714 146.521 71.714 146.521L67.8122 131.98C67.8122 131.98 50.5459 154.327 48.6803 157.534C45.5984 162.832 43.7937 175.14 43.7937 175.14C43.7937 175.14 44.5023 175.981 45.7132 176.37Z" fill="#1E3D70"/>
<path d="M85.5932 152.229C85.5394 155.216 85.3653 158.572 85.1321 161.98C85.1178 162.183 85.1034 162.385 85.0891 162.586C84.9402 164.698 84.7769 166.816 84.5904 168.879C84.515 169.707 84.4361 170.525 84.3536 171.328L84.341 171.436C84.3338 171.737 84.298 172.063 84.2639 172.361C83.5033 180.093 82.705 186.202 82.5561 186.295C82.3785 186.413 82.1794 186.472 81.9623 186.446C79.9334 186.191 73.8808 186.652 68.9243 185.572C64.7427 184.69 61.1423 183.019 57.3249 180.766C56.819 180.466 55.6638 179.674 55.757 179.082C55.8485 178.431 56.019 177.49 56.236 176.309C56.9877 172.196 58.2846 165.121 58.7277 156.842C58.8138 155.3 58.9394 153.776 59.1027 152.279C59.5278 148.378 60.2095 144.672 61.1244 141.38C62.8232 135.265 65.3203 130.584 68.4525 128.751C68.8615 128.522 71.0644 129.922 73.0861 131.22C74.9536 132.418 76.9215 132.748 78.8338 132.581L80.5164 134.442C82.5543 136.81 84.7249 139.964 85.3187 144.444C85.3636 144.776 85.4012 145.127 85.4335 145.5C85.5986 147.329 85.6398 149.64 85.5932 152.229Z" fill="#2A4E96"/>
<path d="M85.5932 152.229C85.5394 155.216 85.3654 158.572 85.1321 161.98C85.1178 162.183 85.1034 162.385 85.0891 162.586C73.5005 155.336 71.7156 142.07 71.7156 142.07C77.4166 142.32 81.9462 143.63 85.4371 145.504C85.5986 147.329 85.6398 149.64 85.5932 152.229Z" fill="#1E3D70"/>
<path d="M121.902 140.048C121.304 138.433 120.375 138.539 120.375 138.539C120.375 138.539 103.145 142.831 101.598 143.014C100.052 143.199 83.044 136.377 83.044 136.377C83.044 136.377 76.3492 133.374 73.2135 136.115C70.4885 138.498 70.3647 141.515 71.0016 144.05C71.7622 147.071 74.3185 149.301 77.4094 149.696C84.3482 150.58 98.1935 152.242 101.094 151.838C107.552 150.94 122.187 142.497 122.187 142.497C122.187 142.497 122.37 141.316 121.902 140.048Z" fill="#2A4E96"/>
<path d="M300.238 171.61C300.238 171.61 302.632 173.828 302.165 175.404C301.699 176.98 299.537 178.03 299.246 179.956C298.956 181.881 297.786 182.932 296.735 182.932C295.684 182.932 291.725 182.932 291.725 182.932C291.725 182.932 290.951 181.577 292.819 181.168C294.688 180.759 295.391 178.497 295.275 176.395C295.158 174.294 295.451 171.494 295.451 171.494L299.42 170.56L300.238 171.61Z" fill="#2C3A64"/>
<path d="M270.402 182.668C270.16 182.79 269.306 182.875 268.135 182.93H256.805C256.842 182.593 257.106 181.392 258.959 181.094C261.053 180.754 264.678 179.538 265.487 176.863C265.514 176.777 265.537 176.689 265.557 176.601C266.199 173.742 270.869 177.476 270.869 177.476C270.869 177.476 270.883 177.591 270.903 177.786C271.012 178.835 271.289 182.227 270.402 182.668Z" fill="#2C3A64"/>
<path d="M259.514 106.191C259.514 106.191 260.224 115.037 261.056 125.671C262.19 140.116 263.554 157.858 263.688 161.219C263.921 167.055 264.856 176.392 264.856 176.392C264.856 176.392 267.073 178.61 271.513 177.676C271.513 177.676 275.469 164.348 276.599 150.247C276.617 150.016 276.635 149.783 276.651 149.55C277.702 135.194 279.336 104.967 279.336 104.967L259.514 106.191Z" fill="#35488B"/>
<path d="M259.514 106.191C259.514 106.191 260.224 115.037 261.056 125.671L276.597 150.245C276.615 150.014 276.633 149.781 276.649 149.548C277.7 135.192 279.334 104.965 279.334 104.965L259.514 106.191Z" fill="#2C3A64"/>
<path d="M262.753 107.241C262.753 107.241 275.54 139.278 283.948 154.333C292.356 169.387 294.984 173.59 294.984 173.59C294.984 173.59 299.801 171.664 300.239 170.352C300.239 170.352 297.024 141.286 291.393 134.202C288.21 130.199 284.474 118.185 284.3 113.983C284.124 109.782 283.161 101.465 283.161 101.465L262.753 107.241Z" fill="#35488B"/>
<path d="M223.312 89.8648C223.312 89.8648 219.845 89.0723 219.26 89.1118C218.677 89.1512 216.634 90.0064 216.607 90.1714C216.58 90.3363 216.677 90.4708 217.028 90.4959C217.382 90.5192 218.542 90.3704 218.469 90.5102C218.395 90.65 215.05 91.308 215.014 91.9803C214.976 92.6527 216.809 93.9041 218.358 93.9883C219.906 94.0726 222.95 92.2744 223.212 92.2511C225.427 92.0592 223.312 89.8648 223.312 89.8648Z" fill="#FFB27D"/>
<path d="M221.829 90.7449C221.332 89.1618 221.448 88.909 221.448 88.909C221.448 88.909 235.507 81.3109 236.795 80.54C238.083 79.769 252.612 64.3164 252.612 64.3164L267.494 68.4095C267.494 68.4095 244.464 85.9418 241.163 87.8315C235.71 90.9511 223.079 92.717 223.079 92.717C223.079 92.717 222.218 91.9891 221.829 90.7449Z" fill="#E58638"/>
<path d="M257.12 56.8075C257.12 56.8075 251.904 65.9815 246.804 67.1791C246.804 67.1791 247.015 64.0972 248.259 61.9888C247.751 61.39 247.304 60.8396 246.917 60.3466C245.632 58.7025 245.022 57.6967 245.022 57.6967L246.754 53.046L247.929 49.8906C248.494 50.9143 249.114 51.7875 249.764 52.5333C253.104 56.3736 257.12 56.8075 257.12 56.8075Z" fill="#FFB27D"/>
<path d="M249.762 52.5325C249.762 52.5325 250.384 57.1294 246.915 60.3458C245.63 58.7017 245.021 57.6959 245.021 57.6959L246.752 53.0453C248.608 52.4805 249.762 52.5325 249.762 52.5325Z" fill="#ED975D"/>
<path d="M243.647 58.3732C243.647 58.3732 251.443 55.3361 249.475 50.5133C247.507 45.6905 247.19 42.051 242.129 43.7865C237.068 45.522 236.859 47.7541 237.124 49.5236C237.388 51.2914 241.569 59.0383 243.647 58.3732Z" fill="#FFB27D"/>
<path d="M283.916 103.886C280.771 108.404 257.26 114.442 257.539 111.314C257.644 110.116 257.788 108.006 257.535 105.144C257.476 104.474 257.393 103.764 257.286 103.013C256.688 98.9035 255.269 93.6182 252.105 87.5027C251.868 87.0438 251.62 86.583 251.364 86.1151C250.062 83.7467 248.951 81.2439 248.104 78.7949C246.476 74.0904 245.819 69.5885 246.641 66.6465C246.644 66.6321 246.648 66.6196 246.653 66.6052C251.568 64.3337 253.472 55.5254 253.472 55.5254C253.472 55.5254 270.239 58.5338 279.63 80.871C279.632 80.871 286.652 99.9541 283.916 103.886Z" fill="#EE9849"/>
<path d="M257.535 105.146C257.475 104.475 257.393 103.765 257.285 103.014C256.688 98.9049 255.269 93.6196 252.104 87.5041C252.648 84.2125 253.398 81.4748 254.221 80.2431C257.565 75.2338 259.513 74.4521 259.513 74.4521C259.513 74.4521 264.527 95.5881 257.535 105.146Z" fill="#E58638"/>
<path d="M231.105 100.117C231.105 100.117 226.466 100.361 225.748 100.619C225.029 100.877 222.77 102.679 222.796 102.896C222.821 103.113 222.991 103.248 223.441 103.152C223.893 103.056 225.298 102.455 225.255 102.658C225.212 102.86 221.247 104.881 221.441 105.738C221.635 106.597 224.383 107.511 226.358 107.064C228.333 106.616 231.512 103.271 231.832 103.149C234.544 102.114 231.105 100.117 231.105 100.117Z" fill="#FFB27D"/>
<path d="M230.23 101.874C229.3 100.374 229.969 99.6887 229.969 99.6887C229.969 99.6887 244.297 88.4762 245.42 87.3431C246.543 86.2101 251.746 68.1739 251.746 68.1739C251.746 68.1739 253.536 60.8752 257.73 60.0702C261.373 59.371 263.892 61.1728 265.541 63.2848C267.505 65.802 267.697 69.2729 266.068 72.0178C262.41 78.1781 255.03 90.4089 252.874 92.4976C248.077 97.1483 232.029 103.646 232.029 103.646C232.029 103.646 230.96 103.052 230.23 101.874Z" fill="#EE9849"/>
<path d="M250.594 41.5551C250.648 41.4475 250.808 41.3328 251.195 41.2145C251.195 41.2145 250.833 41.0925 250.41 41.1858C250.191 40.6515 249.66 39.7425 248.661 39.7354C248.661 39.7354 249.233 39.8842 249.444 40.4561C248.078 39.5901 245.543 39.3391 239.216 41.4439C230.878 44.2193 235.043 49.0582 236.306 49.4455C237.571 49.8327 239.897 47.3442 241.989 47.0036C244.082 46.6629 245.214 49.5763 246.011 49.8184C246.809 50.0604 246.355 49.397 247.191 48.7337C248.027 48.0703 248.506 49.6319 248.488 50.7291C248.47 51.8264 250.099 52.8662 250.099 52.8662C250.099 52.8662 250.099 52.8662 251.055 51.1146C252.012 49.363 251.751 43.0055 250.838 41.8599C250.758 41.7613 250.677 41.6591 250.594 41.5551Z" fill="#2B478B"/>
<path d="M143.586 279.908H196.696V204.553H143.586V279.908Z" fill="#D86713"/>
<path d="M127.211 279.908H180.321V204.553H127.211V279.908Z" fill="#F1A34F"/>
<path d="M180.32 204.554L196.697 215.868V204.554H180.32Z" fill="#C95C12"/>
<path d="M298.721 182.932H225.987V279.909H298.721V182.932Z" fill="#4A75CB"/>
<path d="M276.295 182.934H203.56V279.911H276.295V182.934Z" fill="#699DEE"/>
<path d="M298.721 182.934V197.434L276.295 182.934H298.721Z" fill="#4271BC"/>
<path d="M120.907 263.562H49.5815V279.912H120.907V263.562Z" fill="#4A75CB"/>
<path d="M98.9158 263.563H27.5903V279.914H98.9158V263.563Z" fill="#699DEE"/>
<path d="M120.909 263.378V272.81L98.9163 263.378H120.909Z" fill="#4271BC"/>
</svg>
