<svg width="326" height="279" viewBox="0 0 326 279" fill="none" xmlns="http://www.w3.org/2000/svg">
<path d="M294.915 188.436C313.022 130.531 297.603 53.6377 242.68 24.3233C187.757 -4.99097 97.6494 31.1034 69.4544 71.1495C41.2593 111.196 17.4243 206.153 97.0863 248.038C176.748 289.923 274.402 254.158 294.915 188.436Z" fill="#EDF4FA"/>
<path d="M12.0713 138.837H20.8235L55.016 161.34L52.1917 185.712L33.796 190.373L12.0713 138.837Z" fill="#6033C6"/>
<path d="M12.0705 138.837L42.7299 165.255L33.7952 190.373L0 150.58L12.0705 138.837Z" fill="#3E1F93"/>
<path d="M42.7316 165.255L55.0169 161.341L52.1925 185.713L33.7969 190.373L42.7316 165.255Z" fill="#8768DD"/>
<path d="M136.648 131.883C147.333 127.18 151.451 124.796 153.621 119.158C155.79 113.52 157.675 108.322 157.707 107.023C157.739 105.723 150.802 95.5107 150.802 95.5107L140.149 102.078L136.675 120.462L136.648 131.883Z" fill="#49347A"/>
<path d="M169.718 77.7002C153.739 79.1983 138.409 99.2638 138.409 99.2638V113.353L177.005 83.4616L169.718 77.7002Z" fill="#6E57A3"/>
<path d="M200.561 64.185C199.991 65.9173 199.25 67.5883 198.349 69.1732C193.146 78.2368 198.349 83.5257 198.349 83.5257C198.349 83.5257 181.456 80.841 183.459 65.3824C183.513 64.9636 183.577 64.534 183.663 64.0937C186.804 47.5183 195.267 45.1826 195.267 45.1826C202.279 46.0578 203.358 55.7389 200.561 64.185Z" fill="#263238"/>
<path opacity="0.24" d="M198.348 69.1741C193.145 78.2377 198.348 83.5266 198.348 83.5266C198.348 83.5266 188.474 81.9426 184.715 74.2589C183.455 71.5713 183.013 68.5727 183.443 65.6356C183.443 65.5551 183.443 65.4692 183.47 65.3833C184.194 64.1859 185.054 62.9295 185.816 61.3992C188.087 56.8513 197.119 49.0065 195.384 54.4189C193.65 59.8313 194.697 71.295 200.566 64.1537C199.997 65.8972 199.254 67.5791 198.348 69.1741Z" fill="#263238"/>
<path opacity="0.37" d="M184.715 74.2593C183.455 71.5716 183.013 68.573 183.443 65.636C187.035 61.4478 194.085 53.5011 194.182 55.3106C194.278 57.7375 192.098 69.314 184.715 74.2593Z" fill="#2D241B"/>
<path d="M187.401 40.5174C188.96 40.1992 190.575 40.294 192.087 40.7926C193.598 41.2912 194.952 42.1761 196.016 43.3597C197.08 44.5433 197.815 45.9843 198.15 47.54C198.485 49.0956 198.408 50.7117 197.925 52.2281C195.81 58.9346 185.828 59.5306 185.828 59.5306L187.401 40.5174Z" fill="#7C7C7C"/>
<path d="M194.149 51.197C194.042 55.5624 192.539 59.6753 190.235 62.3225C187.421 65.5441 183.722 68.2288 180.661 70.1457C178.787 71.3317 176.846 72.4074 174.846 73.3674L155.516 43.6637C159.275 32.2268 170.733 27.7326 183.652 33.8108C191.427 37.462 194.337 44.6248 194.149 51.197Z" fill="#263238"/>
<path opacity="0.24" d="M194.15 51.1978C194.042 55.5631 192.539 59.6761 190.235 62.3232C187.422 65.5449 183.722 68.2296 180.662 70.1465C180.345 70.227 180.184 70.2539 180.184 70.2539L178.89 57.0666L179.588 46.8646L185.553 38.6709C191.642 46.1129 192.007 52.6744 194.15 51.1978Z" fill="#030302"/>
<path d="M248.348 89.6952C251.875 86.7957 249.089 82.3606 250.759 80.0303C252.428 77.6999 255.784 75.5629 257.272 73.3722C258.759 71.1814 259.505 76.3844 257.272 78.9886C257.272 78.9886 264.526 75.4555 268.064 75.826C271.603 76.1965 266.018 78.1026 266.018 78.1026C266.018 78.1026 272.902 76.4918 274.948 78.1026C276.994 79.7135 269.922 81.276 269.922 81.276C269.922 81.276 273.273 80.245 274.019 81.9418C274.765 83.6385 266.577 85.1312 266.577 85.1312C266.577 85.1312 270.48 85.7326 270.298 86.9192C270.115 88.1059 256.337 89.2281 252.81 94.7156C249.282 100.203 248.348 89.6952 248.348 89.6952Z" fill="#FABB8A"/>
<path d="M261.837 82.7314C256.344 83.059 255.85 86.4525 255.85 86.4525" stroke="#BD8B63" stroke-width="0.472527" stroke-miterlimit="10" stroke-linecap="round"/>
<path d="M255.849 96.1549C252.901 101.103 249.702 105.897 246.265 110.518C239.961 118.975 231.639 128.2 224.787 129.134C218.129 130.041 209.683 125.032 201.849 118.658C198.413 115.866 195.089 112.806 192.087 109.868C188.64 106.491 185.607 103.275 183.303 100.783C177.279 94.2917 177.311 85.9798 177.934 81.2923C178.093 80.0667 178.347 78.8551 178.691 77.668C190.267 79.5956 199.739 81.4534 210.15 93.5078C220.562 105.562 223.826 107.071 223.826 107.071L249.374 86.4524L255.849 96.1549Z" fill="#6E57A3"/>
<path d="M202.87 111.527C202.639 113.713 202.285 116.129 201.839 118.663C199.208 133.574 193.527 152.604 193.527 152.604H152.596C152.596 152.604 152.532 152.254 152.43 151.61C151.893 148.389 150.175 137.902 149.294 126.911C148.435 116.081 148.365 104.789 151.018 99.618C156.924 88.1543 160.527 80.8572 171.421 79.5686C173.338 79.343 175.561 80.0142 177.929 81.276C189.012 87.2361 203.133 106.158 203.133 106.158C203.163 107.952 203.075 109.745 202.87 111.527Z" fill="#6E57A3"/>
<path d="M162.444 79.5417C162.337 89.9477 178.053 98.4367 185.812 79.0048C185.79 78.9887 178.149 72.8084 162.444 79.5417Z" fill="#D3BAE0"/>
<path opacity="0.22" d="M140.316 91.7471C140.552 91.9513 140.823 92.1113 141.116 92.2196C144.096 93.4116 151.468 92.2196 151.468 92.2196L142.152 97.9595H139.435" fill="#180E3D"/>
<path d="M206.73 222.675C203.755 244.733 201.13 263.396 201.13 263.396L176.131 266.237L169.681 216.312L157.382 265.669L147.155 264.533L136.36 262.26L143.236 216.033L151.924 157.168L152.595 152.62H193.527C209.05 165.555 209.699 200.601 206.73 222.675Z" fill="#152747"/>
<path d="M167.743 152.593V180.836L170.374 185.711V152.593" stroke="#495772" stroke-width="0.472527" stroke-miterlimit="10"/>
<path d="M169.058 71.9117C169.058 71.9117 170.132 73.6299 169.552 80.4598C169.391 82.2693 170.535 84.3312 172.344 84.5191C175.807 84.8735 178.326 83.123 178.412 81.1256L178.89 70.4941L169.058 71.9117Z" fill="#FABB8A"/>
<path d="M178.809 71.9982C176.93 77.7381 169.617 79.5852 169.617 79.5852L169.042 71.9123L179.572 71.0156L178.809 71.9982Z" fill="#BD8B63"/>
<path d="M154.863 47.1485C154.863 47.1485 155.008 52.4266 154.643 57.6027C154.436 60.3078 154.833 63.0249 155.804 65.558C156.776 68.0911 158.297 70.3769 160.259 72.2505L160.452 72.4331C161.874 73.7769 163.623 74.7257 165.524 75.1853C167.426 75.645 169.415 75.5995 171.293 75.0534L174.467 74.1352C176.742 73.4808 178.752 72.1216 180.207 70.2531L183.562 65.9576C183.562 65.9576 186.328 66.1723 189.442 62.5587C192.556 58.9451 190.983 52.083 183.981 60.2176L182.236 62.6661L183.047 48.0183C183.047 48.0183 170.944 38.7722 163.953 38.6594C156.962 38.5466 154.917 39.9534 154.863 47.1485Z" fill="#FABB8A"/>
<path d="M185.134 61.2531C186.868 57.4032 189.596 58.5684 189.193 59.7765C188.791 60.9846 186.38 63.7015 184.361 64.1794L185.134 61.2531Z" fill="#BD8B63"/>
<path d="M155.631 41.8702C153.359 50.7942 171.685 52.6091 174.848 49.9243C178.01 47.2396 171.438 43.6367 171.438 43.6367C171.438 43.6367 180.061 54.3756 185.812 50.8157C191.563 47.2557 187.799 38.3747 181.173 35.4376C174.547 32.5006 158.782 29.4829 155.631 41.8702Z" fill="#263238"/>
<path opacity="0.6" d="M169.212 9.35352L138.645 82.7987L153.056 107.139L237.237 54.4199L169.212 9.35352Z" fill="url(#paint0_linear)"/>
<path d="M138.426 99.2373C130.399 108.72 121.485 122.938 124.465 129.752C127.445 136.566 136.777 133.65 139.328 129.129C142.818 122.943 144.799 109.627 144.799 109.627L138.426 99.2373Z" fill="#6E57A3"/>
<path d="M139.767 84.1435L143.193 104.655C143.234 104.961 143.388 105.24 143.624 105.439C143.861 105.637 144.163 105.741 144.471 105.729L152.643 105.084C152.972 105.038 153.27 104.867 153.477 104.607C153.683 104.348 153.783 104.019 153.755 103.688L153.073 82.6347C153.081 82.3967 153.039 82.1597 152.95 81.9387C152.862 81.7177 152.728 81.5175 152.558 81.3509C152.388 81.1843 152.185 81.0549 151.962 80.9709C151.739 80.8868 151.501 80.85 151.263 80.8628L141.223 81.9958C140.985 82.0402 140.759 82.1311 140.558 82.2634C140.356 82.3956 140.182 82.5665 140.047 82.7662C139.912 82.9659 139.817 83.1905 139.769 83.4269C139.721 83.6633 139.721 83.9069 139.767 84.1435Z" fill="#395D6F"/>
<path d="M138.431 84.1433L141.857 104.654C141.897 104.961 142.05 105.241 142.287 105.44C142.523 105.639 142.826 105.742 143.134 105.728L151.301 105.084C151.63 105.036 151.928 104.865 152.135 104.606C152.342 104.347 152.443 104.019 152.418 103.688L151.736 82.6344C151.743 82.3967 151.701 82.16 151.612 81.9394C151.523 81.7187 151.389 81.5189 151.219 81.3525C151.049 81.186 150.847 81.0566 150.624 80.9722C150.402 80.8879 150.164 80.8506 149.927 80.8625L139.886 81.9901C139.648 82.0345 139.422 82.1256 139.22 82.2582C139.017 82.3908 138.844 82.5622 138.708 82.7625C138.573 82.9628 138.479 83.188 138.431 83.425C138.383 83.6621 138.383 83.9062 138.431 84.1433Z" fill="#263238"/>
<path d="M150.023 84.4815C149.996 84.7043 149.906 84.9145 149.762 85.087C149.619 85.2595 149.428 85.3869 149.214 85.4539C149 85.5209 148.771 85.5247 148.555 85.4647C148.339 85.4048 148.145 85.2837 147.995 85.116C147.846 84.9483 147.749 84.7412 147.715 84.5194C147.681 84.2977 147.711 84.0708 147.803 83.866C147.894 83.6612 148.043 83.4872 148.231 83.365C148.42 83.2427 148.639 83.1773 148.863 83.1768C149.19 83.1961 149.496 83.3444 149.713 83.5891C149.931 83.8338 150.042 84.1547 150.023 84.4815Z" fill="white"/>
<path d="M138.41 99.2377C138.329 96.4348 138.85 89.5727 139.881 90.8668C140.912 92.1608 140.864 96.1342 140.864 96.1342C140.864 96.1342 149.455 91.3715 153.552 92.2896C157.649 93.2078 154.577 95.2697 153.552 96.3006C153.552 96.3006 155.163 102.475 153.401 106.443C151.64 110.411 141.224 107.619 141.224 107.619C141.224 107.619 138.469 101.326 138.41 99.2377Z" fill="#FABB8A"/>
<path d="M80.123 54.0368C80.123 56.9842 79.5425 59.9028 78.4146 62.6258C77.2866 65.3489 75.6334 67.8231 73.5493 69.9072C71.4651 71.9914 68.9909 73.6446 66.2678 74.7725C63.5448 75.9005 60.6262 76.481 57.6788 76.481C54.7314 76.481 51.8129 75.9005 49.0898 74.7725C46.3667 73.6446 43.8925 71.9914 41.8084 69.9072C39.7242 67.8231 38.071 65.3489 36.9431 62.6258C35.8152 59.9028 35.2346 56.9842 35.2346 54.0368C35.2372 52.6919 35.3575 51.3498 35.5944 50.0258C36.594 44.5102 39.6213 39.5683 44.0809 36.1722C48.5405 32.7761 54.1095 31.1717 59.6924 31.6745C65.2752 32.1774 70.4679 34.7512 74.2488 38.8896C78.0297 43.0279 80.1252 48.4313 80.123 54.0368Z" fill="#F99746"/>
<path d="M36.0913 38.6445C53.95 39.3694 42.1802 57.6362 51.5875 61.7062C60.9947 65.7762 58.6805 73.1055 54.1004 78.5018" stroke="#C05C0A" stroke-width="1.41758" stroke-miterlimit="10"/>
<path d="M57.6658 26.5732C47.0505 41.5271 70.6062 43.938 70.6062 57.7159C70.6062 65.8828 60.4633 71.2254 63.4058 80.2675" stroke="#C05C0A" stroke-width="1.41758" stroke-miterlimit="10"/>
<path d="M72.6038 33.5645C68.5016 45.1463 73.0549 54.1562 81.3882 52.0621" stroke="#C05C0A" stroke-width="1.41758" stroke-miterlimit="10"/>
<path opacity="0.24" d="M79.6688 58.4886C78.5652 63.9435 75.4743 68.7939 70.996 72.0983C66.5176 75.4026 60.9713 76.9253 55.4335 76.3706C49.8958 75.816 44.7616 73.2236 41.0275 69.0967C37.2935 64.9698 35.2259 59.6028 35.2261 54.0373C35.2286 52.6924 35.349 51.3503 35.5858 50.0264C52.5586 69.5281 70.9059 67.7723 79.6688 58.4886Z" fill="#2D241B"/>
<path d="M238.627 61.0015L269.077 18.5186L268.009 72.8357L238.627 61.0015Z" fill="#6033C6"/>
<path d="M269.079 18.5186L283.238 52.9527L268.01 72.8357L269.079 18.5186Z" fill="#8768DD"/>
<path d="M319.706 158.064L310.16 154.654L284.08 169.764L289.933 196.815L302.358 200.466L319.706 158.064Z" fill="#E98FA2"/>
<path d="M294.32 171.226L319.707 158.065L326 189.294L302.358 200.468L294.32 171.226Z" fill="#FF5B7E"/>
<path d="M294.32 171.226L284.08 169.766L289.933 196.817L302.358 200.468L294.32 171.226Z" fill="#E98FA2"/>
<path d="M97.2433 111.791C99.5445 111.791 101.41 109.926 101.41 107.625C101.41 105.323 99.5445 103.458 97.2433 103.458C94.9421 103.458 93.0767 105.323 93.0767 107.625C93.0767 109.926 94.9421 111.791 97.2433 111.791Z" fill="#603BE6"/>
<path d="M208.268 27.1963C208.269 27.7902 208.094 28.371 207.765 28.8653C207.436 29.3596 206.968 29.7452 206.419 29.9732C205.871 30.2012 205.267 30.2614 204.685 30.1462C204.102 30.031 203.567 29.7455 203.146 29.326C202.726 28.9064 202.44 28.3716 202.323 27.7893C202.207 27.2069 202.266 26.6031 202.493 26.0543C202.72 25.5056 203.105 25.0365 203.599 24.7064C204.092 24.3764 204.673 24.2002 205.267 24.2002C206.062 24.2002 206.825 24.5157 207.387 25.0774C207.95 25.6391 208.267 26.4012 208.268 27.1963Z" fill="#F99746"/>
<path d="M224.986 149.274C224.986 149.734 224.849 150.184 224.594 150.566C224.338 150.948 223.975 151.246 223.55 151.422C223.126 151.598 222.658 151.644 222.207 151.554C221.756 151.465 221.342 151.243 221.017 150.918C220.692 150.593 220.47 150.179 220.38 149.728C220.291 149.277 220.337 148.809 220.513 148.384C220.689 147.96 220.987 147.597 221.369 147.341C221.751 147.086 222.201 146.949 222.661 146.949C223.277 146.949 223.869 147.194 224.305 147.63C224.741 148.066 224.986 148.658 224.986 149.274Z" fill="#F99746"/>
<path d="M222.824 207.201C222.824 207.661 222.687 208.11 222.432 208.493C222.176 208.875 221.813 209.173 221.389 209.349C220.964 209.525 220.496 209.571 220.045 209.481C219.594 209.392 219.18 209.17 218.855 208.845C218.53 208.52 218.308 208.106 218.219 207.655C218.129 207.204 218.175 206.736 218.351 206.311C218.527 205.886 218.825 205.523 219.207 205.268C219.589 205.012 220.039 204.876 220.499 204.876C221.115 204.876 221.707 205.121 222.143 205.557C222.579 205.993 222.824 206.584 222.824 207.201Z" fill="#3EB4B3"/>
<path d="M128.509 57.2058C128.509 57.6657 128.372 58.1152 128.117 58.4975C127.862 58.8798 127.498 59.1778 127.074 59.3538C126.649 59.5298 126.181 59.5758 125.73 59.4861C125.279 59.3964 124.865 59.175 124.54 58.8498C124.215 58.5247 123.993 58.1104 123.904 57.6594C123.814 57.2084 123.86 56.7409 124.036 56.3161C124.212 55.8913 124.51 55.5282 124.892 55.2727C125.275 55.0172 125.724 54.8809 126.184 54.8809C126.8 54.8809 127.392 55.1258 127.828 55.5618C128.264 55.9978 128.509 56.5892 128.509 57.2058Z" fill="#8768DD"/>
<path d="M157.707 23.8771C157.707 24.1075 157.639 24.3328 157.511 24.5244C157.383 24.716 157.201 24.8654 156.988 24.9536C156.775 25.0417 156.541 25.0648 156.315 25.0199C156.089 24.9749 155.881 24.8639 155.718 24.701C155.555 24.538 155.444 24.3304 155.399 24.1044C155.354 23.8784 155.377 23.6441 155.465 23.4312C155.554 23.2183 155.703 23.0363 155.895 22.9083C156.086 22.7802 156.311 22.7119 156.542 22.7119C156.851 22.7119 157.147 22.8347 157.366 23.0532C157.584 23.2717 157.707 23.5681 157.707 23.8771Z" fill="#F2D4F9"/>
<path d="M116.872 106.937C117.513 106.937 118.032 106.418 118.032 105.777C118.032 105.136 117.513 104.617 116.872 104.617C116.232 104.617 115.713 105.136 115.713 105.777C115.713 106.418 116.232 106.937 116.872 106.937Z" fill="#3EB4B3"/>
<path d="M255.852 133.789L262.929 138.836L258.59 144.012L250.788 139.969L255.852 133.789Z" fill="#3EB4B3"/>
<path d="M111.359 207.148H119.086L119.349 214.392H111.359V207.148Z" fill="#FF5B7E"/>
<path d="M77.3081 156.85L73.4448 163.541L67.0403 160.147L71.0352 153.228L77.3081 156.85Z" fill="#F99746"/>
<path d="M219.572 76.4707L223.272 79.1661L220.871 82.7315L217.038 79.9393L219.572 76.4707Z" fill="#3EB4B3"/>
<path d="M118.434 154.876L122.133 157.577L119.733 161.137L115.905 158.345L118.434 154.876Z" fill="#8768DD"/>
<defs>
<linearGradient id="paint0_linear" x1="151.355" y1="102.888" x2="192.595" y2="37.8389" gradientUnits="userSpaceOnUse">
<stop stop-color="white"/>
<stop offset="1" stop-color="white" stop-opacity="0"/>
</linearGradient>
</defs>
</svg>
