<svg width="395" height="263" viewBox="0 0 395 263" fill="none" xmlns="http://www.w3.org/2000/svg">
<path d="M29.9998 256C33.6993 251.682 54.0326 228.553 67.2799 224.697C81.9102 220.443 68.1208 237.342 68.1208 237.342C68.1208 237.342 94.0732 211.848 103.598 214.147C112.328 216.253 103.598 232.055 103.598 232.055C103.598 232.055 113.43 223.304 125.354 223.304C136.958 223.304 117.244 254.338 116.182 256H29.9998Z" fill="#96D9C9"/>
<path d="M40.9998 262C42.5319 260.252 50.9528 250.89 56.439 249.33C62.498 247.608 56.7873 254.448 56.7873 254.448C56.7873 254.448 67.5352 244.129 71.4799 245.059C75.0951 245.912 71.4799 252.308 71.4799 252.308C71.4799 252.308 75.5518 248.766 80.4901 248.766C85.2957 248.766 77.1311 261.327 76.6915 262H40.9998Z" fill="#458B7A"/>
<path d="M-0.000213623 192.937L291.144 192.938V0.00012207L-0.000213623 0.00012207V192.937Z" fill="#EDEDED"/>
<path d="M364.01 87.7759C357.945 87.7058 352.037 85.8369 347.035 82.406C342.034 78.975 338.163 74.1366 335.913 68.5037C333.664 62.8707 333.138 56.6969 334.4 50.7644C335.663 44.8319 338.659 39.4078 343.007 35.1794C347.356 30.951 352.862 28.1086 358.827 27.0124C364.793 25.9161 370.95 26.6153 376.517 29.0214C382.085 31.4276 386.813 35.4324 390.103 40.5284C393.392 45.6243 395.095 51.5819 394.996 57.6465C394.873 65.7477 391.541 73.4695 385.733 79.1178C379.924 84.7661 372.112 87.8799 364.01 87.7759ZM364.282 71.7873C367.181 71.8447 370.031 71.0405 372.473 69.4768C374.914 67.9131 376.836 65.6601 377.996 63.0031C379.155 60.3461 379.501 57.4047 378.988 54.5514C378.475 51.6981 377.126 49.0612 375.113 46.9748C373.101 44.8883 370.514 43.4462 367.681 42.8309C364.847 42.2156 361.896 42.4549 359.199 43.5185C356.502 44.5821 354.181 46.4222 352.531 48.8056C350.88 51.1891 349.974 54.0086 349.927 56.9074C349.891 58.8273 350.234 60.7356 350.936 62.523C351.639 64.3103 352.686 65.9418 354.02 67.3238C355.353 68.7059 356.946 69.8114 358.707 70.5773C360.468 71.3432 362.362 71.7544 364.282 71.7873Z" fill="#FF5B7E"/>
<path d="M394.995 57.6281C395.132 49.5282 392.022 41.7048 386.346 35.8717C380.67 30.0386 372.891 26.6714 364.714 26.5078L364.459 42.4959C368.38 42.5578 372.117 44.1603 374.846 46.9507C377.575 49.7411 379.073 53.4909 379.01 57.3753C378.948 61.2596 377.33 64.9603 374.513 67.6632C371.695 70.3661 367.909 71.8498 363.987 71.7879L363.712 87.7759C371.895 87.8799 379.785 84.7636 385.65 79.1113C391.515 73.459 394.876 65.7325 394.995 57.6281Z" fill="#F3BA4C"/>
<path d="M368.058 23.9104C363.431 23.7999 358.829 24.6081 354.521 26.2876C350.213 27.9672 346.284 30.4844 342.966 33.6919C339.648 36.8993 337.007 40.7327 335.197 44.9675C333.387 49.2023 332.445 53.7536 332.425 58.3549L351.009 58.6639C351.164 49.2804 358.349 43.3723 367.728 43.5267L368.058 23.9104Z" fill="#603BE6"/>
<path d="M308.526 4.78027H6.95239V202.932H308.526V4.78027Z" fill="#F8F8F8"/>
<path d="M217.108 114.049L187.3 114.451C187.525 122.047 190.767 129.256 196.337 134.54C201.906 139.823 209.36 142.762 217.108 142.728H217.284L217.108 114.049Z" fill="#7752FF"/>
<path d="M221.031 109.715L221.436 138.619C227.109 138.442 232.605 136.596 237.236 133.314C241.868 130.032 245.43 125.458 247.479 120.163C249.528 114.869 249.973 109.087 248.758 103.542C247.542 97.9957 244.721 92.9305 240.646 88.9783C236.571 85.0261 231.423 82.3617 225.843 81.3179C220.264 80.2741 214.501 80.897 209.273 83.1088C204.045 85.3206 199.585 89.0234 196.448 93.7551C193.311 98.4868 191.636 104.038 191.633 109.715H221.031Z" fill="#64BD72"/>
<path d="M117.761 52.2389L117.896 34.3291C123.344 34.4371 128.574 36.4854 132.649 40.1065C135.262 42.3815 137.277 45.2639 138.518 48.5007C139.759 51.7375 140.187 55.2298 139.766 58.671C139.669 59.5442 139.527 60.4119 139.342 61.2708L117.781 56.4179L117.761 52.2389Z" fill="#233C6F"/>
<path d="M94.9116 46.5717C96.505 43.1825 98.9755 40.2667 102.074 38.1176C105.173 35.9685 108.791 34.6619 112.565 34.3291H113.252H113.703H115.036H115.154L115.036 52.316V56.5516L93.0483 61.2708C92.7174 59.7322 92.553 58.1631 92.558 56.5903C92.5729 53.1192 93.3771 49.6957 94.9116 46.5717Z" fill="#6958A5"/>
<path d="M116.25 58.6631L137.751 63.5294C136.645 68.4514 133.907 72.8471 129.987 75.9913C126.066 79.1355 121.199 80.8405 116.187 80.8247C111.175 80.809 106.318 79.0735 102.417 75.9047C98.5164 72.7359 95.8053 68.3231 94.7307 63.3942L116.231 58.6631" fill="#4A75CB"/>
<path d="M31.2874 55.4118C31.2874 55.524 42.584 55.622 56.4908 55.622C70.3975 55.622 81.6944 55.524 81.6944 55.4118C81.6944 55.2997 70.417 55.1875 56.4908 55.1875C42.5646 55.1875 31.2874 55.2857 31.2874 55.4118Z" fill="#263238"/>
<path d="M31.2874 49.7623C31.2874 49.8745 42.584 49.9726 56.4908 49.9726C70.3975 49.9726 81.6944 49.8745 81.6944 49.7623C81.6944 49.6502 70.417 49.5381 56.4908 49.5381C42.5646 49.5381 31.2874 49.5661 31.2874 49.7623Z" fill="#263238"/>
<path d="M31.2874 44.3372C31.2874 44.5614 42.584 44.7578 56.4908 44.7578C70.3975 44.7578 81.6944 44.5614 81.6944 44.3372C81.6944 44.1129 70.417 43.8887 56.4908 43.8887C42.5646 43.8887 31.2874 44.0848 31.2874 44.3372Z" fill="#263238"/>
<path d="M31.2874 60.836C31.2874 61.0678 42.584 61.2705 56.4908 61.2705C70.3975 61.2705 81.6944 61.0678 81.6944 60.836C81.6944 60.6042 70.417 60.4014 56.4908 60.4014C42.5646 60.4014 31.2874 60.6042 31.2874 60.836Z" fill="#263238"/>
<path d="M47.365 66.4853C47.365 66.717 55.0924 66.9199 64.5198 66.9199C73.9472 66.9199 81.6939 66.717 81.6939 66.4853C81.6939 66.2536 73.9665 66.0508 64.5198 66.0508C55.0731 66.0508 47.365 66.2246 47.365 66.4853Z" fill="#263238"/>
<path d="M129.494 165.995H134.274V108.201H129.494V165.995Z" fill="#603BE6"/>
<path d="M69.5264 165.995H74.741V114.284H69.5264V165.995Z" fill="#603BE6"/>
<path d="M49.5381 165.995H54.3181L54.3181 115.588H49.5381L49.5381 165.995Z" fill="#603BE6"/>
<path d="M29.1144 165.995H34.7634L34.7634 125.583H29.1144L29.1144 165.995Z" fill="#603BE6"/>
<path d="M119.065 165.995H124.714V127.321H119.065V165.995Z" fill="#699DEE"/>
<path d="M79.5215 165.995H84.3015V136.446H79.5215V165.995Z" fill="#699DEE"/>
<path d="M59.0982 165.995H64.7473V123.41H59.0982L59.0982 165.995Z" fill="#699DEE"/>
<path d="M39.5435 165.995H44.7581L44.7581 131.666H39.5435L39.5435 165.995Z" fill="#699DEE"/>
<path d="M271.589 41.698C271.585 42.6449 271.888 43.5716 272.46 44.3605C273.031 45.1494 273.845 45.7649 274.799 46.129C275.753 46.4931 276.803 46.5894 277.816 46.4056C278.83 46.2217 279.761 45.766 280.491 45.0964C281.222 44.4268 281.719 43.5735 281.919 42.6445C282.12 41.7155 282.015 40.7529 281.618 39.8787C281.22 39.0045 280.549 38.2582 279.688 37.7344C278.828 37.2106 277.817 36.9329 276.784 36.9366C275.406 36.9366 274.085 37.4381 273.111 38.331C272.137 39.224 271.589 40.4352 271.589 41.698Z" fill="#603BE6"/>
<path d="M185.984 38.022C185.984 38.1378 202.808 38.2392 223.562 38.2392C244.316 38.2392 261.16 38.1378 261.16 38.022C261.16 37.9061 244.335 37.8047 223.562 37.8047C202.789 37.8047 185.984 37.8916 185.984 38.022Z" fill="#182E56"/>
<path d="M231.177 43.8886C231.559 44.0162 231.949 44.0746 232.341 44.0624L235.502 44.2073C238.179 44.2073 241.864 44.2073 245.957 44.2073C250.05 44.2073 253.716 44.2073 256.393 44.2073L259.574 44.0624C259.603 44.2735 259.683 44.461 259.799 44.5887C259.915 44.7163 260.059 44.7749 260.202 44.7533C260.346 44.7317 260.479 44.6312 260.576 44.4714C260.672 44.3117 260.726 44.104 260.726 43.8886C260.726 43.6732 260.672 43.4656 260.576 43.3058C260.479 43.146 260.346 43.0456 260.202 43.0239C260.059 43.0023 259.915 43.0609 259.799 43.1886C259.683 43.3162 259.603 43.5038 259.574 43.7148H256.393C253.735 43.7148 250.031 43.7148 245.957 43.7148C241.884 43.7148 238.198 43.7148 235.502 43.7148H232.341C231.949 43.7027 231.559 43.761 231.177 43.8886Z" fill="#182E56"/>
<g filter="url(#filter0_d)">
<path d="M371.635 125.583H263V249.428H371.635V125.583Z" fill="#F9F9F9"/>
</g>
<path d="M271.69 188.715C271.69 188.715 272.903 188.104 275.192 187.375C278.451 186.365 281.894 186.109 285.265 186.626C287.581 186.979 289.827 187.704 291.915 188.774C294.285 190.062 296.481 191.652 298.448 193.504C300.58 195.474 302.712 197.563 305.157 199.573C307.659 201.725 310.586 203.317 313.744 204.243C315.378 204.671 317.078 204.778 318.751 204.559C320.361 204.313 321.925 203.821 323.387 203.1C326.08 201.699 328.692 200.146 331.211 198.45C333.444 196.951 335.91 195.838 338.507 195.159C340.783 194.596 343.135 194.41 345.47 194.607C348.869 194.904 352.154 195.983 355.074 197.76C357.03 199.021 358.106 199.987 358.165 199.908C357.945 199.663 357.71 199.433 357.46 199.218C356.759 198.594 356.013 198.021 355.231 197.504C352.763 195.892 349.997 194.8 347.1 194.292C344.202 193.784 341.233 193.871 338.37 194.548C335.694 195.22 333.148 196.339 330.84 197.859C328.356 199.524 325.783 201.05 323.133 202.431C320.307 203.9 317.047 204.285 313.959 203.514C310.912 202.61 308.087 201.073 305.666 199.002C303.241 197.031 301.109 194.903 298.937 193.09C296.92 191.209 294.664 189.605 292.228 188.321C289.598 187.003 286.734 186.225 283.802 186.032C280.871 185.839 277.931 186.235 275.153 187.198C274.261 187.495 273.397 187.871 272.571 188.321C272.263 188.417 271.967 188.549 271.69 188.715Z" fill="#6958A5"/>
<path d="M341.652 205.539H332.526V230.743H341.652V205.539Z" fill="#64BD72"/>
<path d="M302.543 205.539H293.417V230.743H302.543V205.539Z" fill="#F3BA4C"/>
<path d="M289.072 190.765H280.381V230.743H289.072V190.765Z" fill="#64BD72"/>
<path d="M353.385 222.921H344.259V231.177H353.385V222.921Z" fill="#FF5B7E"/>
<path d="M328.181 216.838H319.055V230.743H328.181V216.838Z" fill="#FF5B7E"/>
<path d="M315.144 213.795H306.019V230.742H315.144V213.795Z" fill="#F3BA4C"/>
<path d="M331.657 233.568C334.97 234.437 338.339 234.437 341.652 233.568C338.339 232.699 334.97 232.699 331.657 233.568Z" fill="#263238"/>
<path d="M343.824 233.568C346.993 234.437 350.215 234.437 353.384 233.568C350.215 232.699 346.993 232.699 343.824 233.568Z" fill="#263238"/>
<path d="M278.208 233.568C281.814 234.437 285.467 234.437 289.072 233.568C285.467 232.699 281.814 232.699 278.208 233.568Z" fill="#263238"/>
<path d="M297.762 234.219C300.882 234.219 303.411 234.024 303.411 233.784C303.411 233.544 300.882 233.35 297.762 233.35C294.642 233.35 292.113 233.544 292.113 233.784C292.113 234.024 294.642 234.219 297.762 234.219Z" fill="#263238"/>
<path d="M306.019 233.568C309.476 234.437 312.991 234.437 316.448 233.568C312.991 232.699 309.476 232.699 306.019 233.568Z" fill="#263238"/>
<path d="M319.924 233.568C323.094 234.437 326.315 234.437 329.484 233.568C326.315 232.699 323.094 232.699 319.924 233.568Z" fill="#263238"/>
<path d="M278.208 174.687H353.384V143.399H278.208V174.687Z" fill="#E1E1E0"/>
<path d="M338.175 153.829C338.175 154.516 338.379 155.189 338.761 155.76C339.143 156.332 339.686 156.777 340.321 157.041C340.956 157.304 341.655 157.373 342.33 157.238C343.004 157.104 343.624 156.773 344.11 156.287C344.596 155.801 344.927 155.181 345.061 154.507C345.195 153.833 345.126 153.134 344.863 152.499C344.6 151.863 344.155 151.32 343.583 150.938C343.011 150.556 342.339 150.353 341.652 150.353C340.73 150.353 339.845 150.719 339.194 151.371C338.542 152.023 338.175 152.907 338.175 153.829Z" fill="#603BE6"/>
<path d="M310.365 152.525H334.699V151.222H310.365V152.525Z" fill="#A9A9A9"/>
<path d="M287.334 155.566H334.699V154.697H287.334V155.566Z" fill="white"/>
<path d="M338.175 164.258C338.175 164.945 338.379 165.617 338.761 166.189C339.143 166.761 339.686 167.206 340.321 167.469C340.956 167.732 341.655 167.801 342.33 167.667C343.004 167.533 343.624 167.202 344.11 166.716C344.596 166.23 344.927 165.61 345.061 164.936C345.195 164.261 345.126 163.563 344.863 162.927C344.6 162.292 344.155 161.749 343.583 161.367C343.011 160.985 342.339 160.781 341.652 160.781C340.73 160.781 339.845 161.148 339.194 161.799C338.542 162.451 338.175 163.336 338.175 164.258Z" fill="#603BE6"/>
<path d="M287.334 166.431H334.699V165.127H287.334V166.431Z" fill="white"/>
<path d="M25.2034 262.03H201.628L198.524 255.512H28.3182L25.2034 262.03Z" fill="url(#paint0_linear)"/>
<path d="M106.147 86.8635C106.147 86.8635 112.316 89.6628 110.764 97.2934C109.211 104.924 108.574 105.94 110.27 108.926C111.967 111.912 113.961 124.612 112.44 127.028C110.918 129.444 93.5527 116.432 91.1468 105.525C88.741 94.6186 92.6787 89.7769 94.0667 87.9729C95.4547 86.1689 100.739 84.2923 106.147 86.8635Z" fill="#0E2D3D"/>
<path d="M107.766 114.285C109.738 114.702 111.506 115.757 112.784 117.278C114.033 118.951 114.139 122.656 114.319 123.358C114.499 124.06 116.892 131.956 116.892 131.956L110.201 136.012L107.766 114.285Z" fill="#295274"/>
<path d="M131.928 249.085C131.928 249.085 136.098 254.384 135.523 255.259C134.947 256.134 130.575 256.216 127.909 255.259C125.243 254.302 125.172 248.056 123.97 245.422C123.465 244.3 124.546 241.007 126.06 240.77C127.139 240.662 128.227 240.821 129.231 241.233C129.231 241.233 127.656 244.959 131.928 249.085Z" fill="#1D3C55"/>
<path d="M129.067 240.857C129.656 242.312 130.1 243.82 130.394 245.359C130.672 247.185 133.539 251.047 133.4 251.54C133.261 252.033 129.634 252.474 128.158 251.215C126.682 249.955 125.719 246.282 125.398 244.089C125.271 243.052 125.042 242.029 124.714 241.035C124.714 241.035 127.655 239.513 129.067 240.857Z" fill="#EFA986"/>
<path d="M95.01 249.211C95.01 249.211 99.197 254.425 98.5794 255.27C97.9618 256.114 93.4504 256.228 90.687 255.27C87.9236 254.311 87.8503 248.057 86.6047 245.42C86.0813 244.297 87.2014 241 88.7715 240.763C89.9377 240.667 91.1106 240.843 92.1943 241.278C92.1943 241.278 90.5823 245.07 95.01 249.211Z" fill="#1D3C55"/>
<path d="M92.1971 241.066C92.3812 242.497 92.6503 243.913 93.0027 245.308C93.494 247.064 96.1568 251.056 96.029 251.545C95.9013 252.033 92.5705 252.47 91.2145 251.223C89.8585 249.975 88.8071 246.347 88.6794 244.164C88.5864 242.949 88.6895 241.725 88.984 240.546C89.5145 240.321 90.0925 240.25 90.6577 240.342C91.2229 240.433 91.7545 240.683 92.1971 241.066Z" fill="#EFA986"/>
<path d="M112.486 154.878C112.486 154.878 116.079 170.604 116.901 174.571C117.723 178.539 120.037 197.717 120.29 200.983C120.544 204.25 124.036 216.534 123.873 217.698C123.711 218.863 129.059 242.276 129.059 242.276C128.514 242.666 127.867 242.886 127.2 242.908C126.533 242.93 125.874 242.753 125.304 242.399C124.289 241.75 113.551 220.481 113.551 214.658C113.551 206.61 107.228 196.109 106.447 194.295C98.8656 177.56 100.357 172.438 99.3426 171.346C98.3276 170.253 98.2667 172.026 97.6882 174.437C97.1097 176.849 95.8817 197.665 95.1306 200.303C94.3796 202.941 94.9683 211.886 94.5522 216.389C94.1361 220.893 92.3294 241.276 92.3294 241.276C92.3294 241.276 90.9289 243.337 88.96 241.328C88.5337 240.895 85.5599 218.657 85.4787 213.267C85.3976 207.877 85.3164 200.509 85.154 198.191C83.6215 175.983 79.8663 172.809 85.7833 157.094C96.856 127.632 112.486 154.878 112.486 154.878Z" fill="#EFA986"/>
<path d="M87.8836 150.354C87.8836 150.354 77.4587 163.739 81.9472 192.229C81.9472 192.229 106.686 195.299 119.934 188.658C119.934 188.658 114.453 159.288 112.467 154.723C110.481 150.159 87.8836 150.354 87.8836 150.354Z" fill="#1D3C55"/>
<path d="M123.844 244.648V250.298H124.279V245.927L123.844 244.648Z" fill="#1D3C55"/>
<path d="M86.4744 244.648V250.298H87.3435V245.927L86.4744 244.648Z" fill="#1D3C55"/>
<path d="M102.161 112.329C103.847 113.082 105.581 113.725 107.352 114.254C108.692 114.501 113.883 120.706 114.797 122.97C115.71 125.234 114.797 128.629 112.917 132.612C111.038 136.594 112.813 137.932 111.962 141.873C111.058 146.705 110.572 151.604 110.509 156.517C110.675 158.729 88.8398 159.151 83.8665 155.117C83.8665 155.117 88.871 148.223 89.5147 147.235C90.1585 146.247 89.6186 140.885 89.0268 139.507C88.435 138.128 84.5206 126.407 84.5206 126.407C84.5206 126.407 81.3124 117.402 84.2092 115.334C86.7322 113.533 93.5536 112.895 94.8203 112.504C97.2411 112.049 99.7207 111.99 102.161 112.329Z" fill="#2A4E96"/>
<path d="M103.137 119.934L105.594 117.542L103.42 111.243C102.961 114.121 102.866 117.037 103.137 119.934Z" fill="#D6C5BE"/>
<path d="M104.291 108.285C104.291 108.285 104.183 109.171 104.053 110.397C103.988 110.943 103.934 111.562 103.869 112.19C103.695 113.757 103.623 115.333 103.653 116.909C103.653 116.909 99.4783 120.607 94.7307 112.602C95.968 110.163 96.1466 107.357 95.2281 104.793C93.7249 100.301 104.291 108.285 104.291 108.285Z" fill="#EFA986"/>
<path d="M103.421 116.892V119.933L98.6414 117.078L103.421 116.892Z" fill="#EFA986"/>
<path d="M94.1594 112.981C94.1594 112.981 99.6601 120.474 99.9241 123.771C100.188 127.068 97.8864 151.729 96.0388 159.65C94.1911 167.571 80.825 158.762 80.825 158.762C80.825 158.762 89.7991 145.727 86.3572 135.285C82.9154 124.842 81.6591 120.688 81.6591 120.688C81.6591 120.688 82.8415 114.88 87.0435 114.063C90.7282 113.349 94.1594 112.981 94.1594 112.981Z" fill="#FF5B7E"/>
<path d="M115.044 123.843C115.044 123.843 115.996 126.994 112.29 133.973C112.29 133.973 112.35 142.905 112.451 145.699C112.553 148.492 114.659 158.52 114.659 158.52L109.595 161.057C109.435 161.16 109.25 161.215 109.061 161.216C108.871 161.217 108.685 161.165 108.524 161.064C108.363 160.964 108.232 160.82 108.148 160.649C108.063 160.478 108.028 160.286 108.046 160.096C109.059 152.073 112.462 121.612 105.159 113.416L108.086 114.235C108.086 114.235 113.252 118.225 115.044 123.843Z" fill="#FF5B7E"/>
<path d="M105.557 117.489L108.636 118.196L103.422 111.243L105.557 117.489Z" fill="#FAE6DD"/>
<path d="M101.248 118.001L98.6937 121.238L93.4265 112.788L95.1231 112.112L101.248 118.001Z" fill="#FAE6DD"/>
<path d="M104.92 138.522C105.294 138.524 105.663 138.421 105.987 138.224C106.721 137.678 106.965 136.35 108.277 136.453C109.588 136.556 110.175 140.499 109.852 141.25C109.529 142.002 107.729 142.372 105.076 141.858C102.424 141.343 104.92 138.522 104.92 138.522Z" fill="#EFA986"/>
<path d="M107.861 136.187C107.861 136.187 109.845 135.541 112.132 135.11C114.137 134.701 116.539 134.561 116.779 134.895C117.02 135.228 114.816 135.584 112.853 136.122C110.889 136.661 111.474 136.79 111.474 136.79C111.474 136.79 111.349 136.79 113.417 136.553C115.484 136.316 117.938 136.359 118.158 136.779C118.273 136.984 118.158 137.124 117.395 137.318C117.876 137.318 117.939 137.425 117.959 137.608C118.053 138.567 114.826 139.331 113.521 139.633C114.565 139.407 115.265 139.331 114.91 139.978C114.555 140.624 109.866 141.593 108.237 142.067C106.451 142.573 107.861 136.187 107.861 136.187Z" fill="#EFA986"/>
<path d="M87.9429 113.92C86.6024 113.521 82.6835 114.811 82.0184 118.539C81.3532 122.267 81.0872 126.426 80.4732 128.433C79.8593 130.441 78.2733 139.351 79.6035 140.089C81.9067 141.146 84.4297 141.634 86.9606 141.512C90.6033 141.512 104.704 142.096 104.704 142.096L105.594 137.446C105.594 137.446 100.232 137.19 97.4079 136.791C94.9316 136.453 91.514 135.469 87.4824 135.06C87.825 132.672 88.3171 130.308 88.9559 127.982C89.621 126.426 93.9493 115.723 87.9429 113.92Z" fill="#FF5B7E"/>
<path d="M106.029 145.572L120.241 142.959L130.798 122.106L115.613 123.576L106.029 145.572Z" fill="#E8744E"/>
<path d="M122.139 139.489C122.693 139.005 123.195 138.468 123.638 137.885C124.346 136.946 126.656 133.371 126.438 133.146C126.219 132.922 122.805 132.84 122.181 133.351C121.556 133.861 122.795 134.066 122.795 134.066C122.795 134.066 120.921 134.239 121.046 134.719C121.171 135.199 122.316 135.066 122.316 135.066C122.316 135.066 120.807 135.332 121.036 135.751C121.265 136.17 121.983 136.169 121.983 136.169C121.983 136.169 120.651 136.323 120.817 136.782C120.984 137.242 123.097 137.681 122.816 138.069C122.547 138.521 122.321 138.997 122.139 139.489Z" fill="#EFA986"/>
<path d="M105.367 87.5681C105.367 87.5681 114.13 90.1907 109.415 104.605C104.699 119.019 92.6977 102.94 93.9525 94.1975C95.2073 85.4554 105.367 87.5681 105.367 87.5681Z" fill="#EFAA87"/>
<path d="M110.195 96.0219C106.866 98.685 102.79 100.247 98.5325 100.49C98.5325 100.49 95.7235 103.53 95.4902 104.725C95.4902 104.725 88.9796 94.4413 96.9809 88.2809C104.982 82.1205 113.136 93.4888 110.195 96.0219Z" fill="#0E2D3D"/>
<path d="M98.6362 101.025C98.6362 100.008 97.9085 97.6687 96.2711 98.3197C94.6338 98.9707 96.3721 103.731 97.4536 103.406C97.4131 103.436 98.7372 103.457 98.6362 101.025Z" fill="#EFAA87"/>
<path d="M103.856 110.387C103.795 110.913 103.744 111.507 103.682 112.112C98.5785 109.842 97.7926 106.572 97.7722 106.463C101.406 110.705 103.856 110.387 103.856 110.387Z" fill="#A77961"/>
<defs>
<filter id="filter0_d" x="253" y="115.583" width="128.636" height="143.845" filterUnits="userSpaceOnUse" color-interpolation-filters="sRGB">
<feFlood flood-opacity="0" result="BackgroundImageFix"/>
<feColorMatrix in="SourceAlpha" type="matrix" values="0 0 0 0 0 0 0 0 0 0 0 0 0 0 0 0 0 0 127 0"/>
<feOffset/>
<feGaussianBlur stdDeviation="5"/>
<feColorMatrix type="matrix" values="0 0 0 0 0 0 0 0 0 0 0 0 0 0 0 0 0 0 0.1 0"/>
<feBlend mode="normal" in2="BackgroundImageFix" result="effect1_dropShadow"/>
<feBlend mode="normal" in="SourceGraphic" in2="effect1_dropShadow" result="shape"/>
</filter>
<linearGradient id="paint0_linear" x1="1.34874e+06" y1="6361.99" x2="1.31846e+06" y2="6361.99" gradientUnits="userSpaceOnUse">
<stop stop-color="#131F30"/>
<stop offset="1" stop-color="#182E56"/>
</linearGradient>
</defs>
</svg>
