<svg width="342" height="287" viewBox="0 0 342 287" fill="none" xmlns="http://www.w3.org/2000/svg">
<path d="M264.905 87.551L261.365 89.7896C259.949 90.6851 256.735 91.7474 255.336 92.1951C255.336 92.1951 254.615 94.2519 254.412 99.351L260.104 97.4168C264.481 95.2101 265.976 95.1221 266.176 95.354C268.547 96.7738 270.69 96.4258 271.465 96.0743C272.233 96.4798 273.211 96.7344 274.376 96.577C276.934 96.2316 276.814 94.3491 276.434 93.451C278.374 93.2719 277.77 91.2337 277.226 90.237C277.26 90.1754 277.173 90.0926 276.854 90.0142L274.263 88.4622L278.404 86.9191C278.662 86.8498 279.044 86.8327 278.512 87.3188C277.98 87.8049 278.134 88.9924 278.277 89.5254C279.533 92.96 280.375 91.676 280.639 90.6047C280.882 89.9678 281.479 88.4924 281.925 87.6865C283.176 84.949 281.615 84.4832 280.678 84.5925C278.36 85.2162 273.914 86.2412 274.669 85.3521C275.424 84.4631 279.589 82.5991 281.578 81.7782C283.617 81.6583 284.966 77.4369 282.37 78.5643C280.293 79.4661 276.755 80.7896 275.246 81.3386C273.38 83.1269 269.849 86.2205 270.655 84.2889C271.461 82.3573 271.375 80.8084 271.124 79.8757C272.131 77.4612 269.03 74.0984 269.105 76.9896C269.149 78.6926 269.085 79.9957 268.699 80.0996C265.644 82.2935 264.897 85.9813 264.905 87.551Z" fill="#FDA581"/>
<path opacity="0.36" d="M267.668 89.8913C263.904 91.5749 265.813 94.6961 268.658 95.2889C269.568 95.4784 270.338 95.6101 270.985 95.6914C269.054 93.6547 272.57 93.1595 272.57 93.1595C272.382 92.9808 270.242 90.2378 274.154 89.6436C276.729 89.2525 268.724 89.4456 267.668 89.8913Z" fill="#ED9672"/>
<path d="M155.606 84.8398C153.031 87.4147 148.393 88.1905 146.395 88.2566L181.603 137.181C187.711 126.485 197.241 103.182 186.506 95.5359C175.77 87.8901 173.416 85.2194 173.581 84.8398C168.662 83.7668 158.181 82.2648 155.606 84.8398Z" fill="#FDA581"/>
<path d="M256.013 89.2461C236.125 98.0102 206.434 97.954 194.075 96.8304L185.689 95.1963C185.548 97.1626 185.689 102.367 184.179 111.048C182.907 118.361 180.451 128.291 179.327 132.224C184.047 136.943 198.148 149.92 204.608 155.819C205.957 150.763 207.417 142.477 207.979 138.965C226.181 138.965 243.372 131.943 249.693 128.432C253.738 117.645 255.592 97.8135 256.013 89.2461Z" fill="#F5E0CF"/>
<path d="M214.719 106.942L207.977 138.965C224.831 138.965 242.809 132.504 249.691 129.274L250.112 125.903C243.511 129.274 232.247 134.33 240 127.588C247.752 120.847 249.41 109.892 249.269 105.257C245.898 116.718 235.505 128.291 230.73 132.645L218.089 136.437L223.988 132.645L231.573 110.313C226.179 124.807 215.561 131.24 210.926 132.645C213.96 125.566 214.719 112.56 214.719 106.942Z" fill="#C3C3DF"/>
<path d="M183.118 132.645C183.455 116.128 192.247 101.887 196.601 96.8306C193.23 96.8306 187.321 95.2841 184.934 94.4414C184.597 105.565 181.151 123.937 179.325 131.803L204.606 155.819C205.955 147.73 205.168 129.134 204.606 120.847C204.943 134.331 202.219 144.724 200.814 148.235L183.118 132.645Z" fill="#E1C9C7"/>
<path d="M135.162 274.233V268.407C137.667 269.124 142.17 269.304 144.108 269.304C142.676 272.889 142.915 276.175 143.213 277.37C146.076 278.446 145.599 280.507 145.002 281.403L130.689 286.333L119.507 280.507L135.162 274.233Z" fill="#DC6257"/>
<path d="M190.071 276.925C185.779 276.925 187.836 271.566 188.73 265.314L187.836 252.81L195.122 251.868C194.049 260.085 194.84 264.421 195.436 265.314C200.055 267.845 210.993 273.084 217.789 273.799C224.584 274.513 222.408 276.181 220.471 276.925H190.071Z" fill="#DC6257"/>
<path d="M116.365 251.818C125.139 193.22 129.583 124.068 130.707 96.8164L158.971 193.22L177.11 212.122C183.86 220.062 193.703 222.361 197.781 222.519L197.359 251.345C188.247 253.992 175.564 254.653 170.361 254.653C166.311 262.97 157.424 261.899 153.487 260.324L152.222 268.358C150.956 268.83 146.484 269.681 138.723 269.303C130.961 268.925 127.333 260.324 126.489 256.071C122.777 256.827 118.193 253.551 116.365 251.818Z" fill="#B2B4DB"/>
<path d="M137.879 174.316L126.489 255.598C127.164 265.805 134.645 269.145 138.301 269.302C134.588 232.253 136.473 190.384 137.879 174.316Z" fill="#7D9ECB"/>
<path d="M153.487 189.438V260.323C155.174 261.268 155.174 261.268 157.283 261.268L153.487 189.438Z" fill="#7D9ECB"/>
<path d="M170.723 252.855C171.733 245.852 173.111 222.155 173.735 209.287C174.748 235.751 177.251 245.202 178.376 246.62C176.351 245.486 174.157 241.737 173.314 240.004L170.723 252.855C170.596 253.739 170.474 254.357 170.361 254.653L170.723 252.855Z" fill="#7D9ECB"/>
<path d="M127.032 97.2891C131.081 90.4842 141.656 87.8378 146.437 87.3652L206.76 157.305V166.284C210.81 171.954 211.823 174.632 211.823 175.262C210.81 179.421 205.776 185.186 203.386 187.549L208.026 197.473C210.388 203.9 207.042 206.767 205.073 207.397L207.182 225.354C204.482 229.513 199.87 231.813 197.902 232.443V223.464C188.115 224.976 167.951 204.246 159.092 193.692C137.156 195.961 127.735 176.68 125.766 166.756C122.813 204.089 119.86 247.565 116.907 254.653C114.545 260.324 110.58 256.386 108.892 253.708L108.471 246.147C104.421 245.013 100.877 241.264 99.6119 239.531C98.6276 237.956 97.2495 234.144 99.6119 231.498C101.974 228.851 103.549 218.266 103.83 213.068C102.143 210.232 100.962 208.058 102.987 205.034C105.011 202.01 104.955 195.11 105.096 190.857C104.421 189.723 104.252 188.179 104.252 187.549L103.83 166.756C98.0932 169.403 90.4719 167.544 87.3784 166.284C93.4529 147.759 87.0971 130.841 83.1599 124.698L87.8002 123.28L88.222 121.863L92.8623 120.917C98.5994 114.49 103.971 112.254 105.94 111.939H108.892C111.255 108.158 118.032 101.227 121.126 98.2342L127.032 97.2891Z" fill="#D21515"/>
<path d="M118.595 115.719L108.893 111.939C110.58 108.914 117.33 101.542 120.704 98.707C132.516 102.488 137.156 115.719 139.266 122.335C140.953 127.628 154.874 163.921 161.623 181.406C177.147 213.54 195.09 212.438 202.121 207.87C191.996 207.87 184.966 196.843 182.716 191.33C192.84 193.976 195.371 176.68 195.371 167.702C199.421 177.531 207.886 176.838 211.823 175.263C211.823 175.263 211.823 178.098 203.808 187.549C205.495 190.857 203.808 189.44 207.605 196.056C211.402 202.673 207.605 206.61 205.073 207.87L207.183 225.355C205.833 228.379 201.699 231.025 197.902 232.443V223.464C188.453 225.733 168.232 204.562 159.092 193.693C153.018 187.266 129.563 139.033 118.595 115.719Z" fill="#9A1F21"/>
<path d="M100.034 148.069L88.2222 122.55C110.158 114.989 119.861 146.651 121.126 152.794C122.138 157.709 124.641 164.608 125.766 167.444C124.754 203.359 119.157 240.691 116.486 254.868C114.798 247.78 111.845 245.89 108.893 245.89C105.94 245.89 92.4406 238.329 100.456 230.295C108.471 222.261 108.471 219.426 105.096 214.7C101.721 209.975 100.034 207.612 105.096 204.304C110.158 200.996 105.518 193.435 105.096 191.072C104.674 188.709 103.409 184.456 104.252 171.224C104.927 160.639 101.721 151.377 100.034 148.069Z" fill="#9A1F21"/>
<path d="M83.1602 124.698C81.4728 133.204 79.9541 153.808 87.3786 166.284C90.3314 157.305 93.2844 141.238 83.1602 124.698Z" fill="#9A1F21"/>
<path d="M132.094 96.3443L127.875 97.2894L133.359 93.9814C144.159 101.164 150.796 111.466 152.764 115.719C148.04 110.049 137.015 100.44 132.094 96.3443Z" fill="#9A1F21"/>
<path d="M157.405 108.159L206.76 159.669V166.285L157.405 108.159Z" fill="#9A1F21"/>
<path d="M111.845 184.242C115.558 146.059 102.705 126.431 95.8152 121.391C114.039 124.037 123.094 151.32 125.344 162.031C127.032 166.757 124.219 176.838 123.657 180.934C124.669 159.763 117.892 142.814 114.376 136.985C117.414 148.705 113.955 173.373 111.845 184.242Z" fill="#731A20"/>
<path d="M118.173 115.607L108.471 111.827C130.407 102.375 130.407 111.354 139.265 136.873C146.352 157.288 161.342 189.8 167.951 203.505L157.827 193.108C149.812 179.876 145.171 166.172 138.844 145.852C133.781 129.595 124.923 116.08 121.126 111.354H111.845L116.486 111.827C122.898 116.363 127.313 130.729 128.719 137.345L118.173 115.607Z" fill="#731A20"/>
<path d="M135.047 101.422C134.034 100.288 129.281 98.234 127.031 97.2889C131.756 95.7767 135.75 99.3742 137.156 101.422C142.218 110.495 145.733 118.434 146.858 121.27L166.685 171.362L194.949 205.979C185.499 202.955 174.841 189.949 170.482 184.121C147.28 125.05 136.312 102.84 135.047 101.422Z" fill="#731A20"/>
<path d="M195.371 167.701L203.808 187.549L207.182 183.296C204.145 181.406 197.902 172.269 195.371 167.701Z" fill="#731A20"/>
<path d="M194.527 216.376L205.073 207.87L205.917 214.486L194.527 216.376Z" fill="#731A20"/>
<path d="M174.78 49.8698C178.59 48.5318 179.248 52.0306 179.258 52.2864C179.267 52.5473 183.915 52.2958 184.034 59.2281C182.34 66.6121 171.028 52.1074 174.78 49.8698Z" fill="white"/>
<path d="M160.934 51.3513C160.934 51.3513 168.374 52.6271 170.372 48.2601C165.14 49.0622 162.83 44.7191 157.992 48.0913C157.992 48.0913 152.917 47.0964 150.444 49.7182C146.671 53.7254 147.952 55.8313 147.952 55.8313C147.952 55.8313 145.175 55.1446 144.049 60.7039C142.63 67.7324 147.029 68.8494 149.67 74.0849C153.204 81.0895 164.031 74.3746 171.699 68.3096C164.855 65.9352 162.392 60.86 160.934 51.3513Z" fill="#F5E0CF"/>
<path d="M146.595 87.7276L149.247 70.1104L164.693 73.6675L164.133 89.9132C164.128 89.914 153.851 98.7351 146.595 87.7276Z" fill="#F7A27C"/>
<path d="M181.01 77.3608C183.06 73.4313 188.197 51.1647 170.428 48.0172C158.041 48.0309 152.222 61.7143 152.139 66.4404C152.055 71.1614 153.73 80.3312 158.779 82.5198C163.827 84.7033 176.117 86.7244 181.01 77.3608Z" fill="#FDA581"/>
<path d="M161.206 82.5457C156.157 80.3571 156.769 72.0488 156.852 67.3227C156.932 62.7422 154.627 51.5795 172.429 48.5084C172.059 48.2363 170.054 48.027 170.054 48.027C157.667 48.0408 152.221 61.7086 152.138 66.4347C152.053 71.1557 153.728 80.3255 158.777 82.514C161.097 83.5207 164.947 84.479 168.906 84.3227C165.85 84.1179 163.043 83.3465 161.206 82.5457Z" fill="#F7A27C"/>
<path d="M180.558 123.593C163.446 121.436 147.948 108.026 148.487 71.0344L152.966 59.8439C154.348 70.0426 155.78 72.5267 159.688 74.4344C163.472 76.2783 170.64 70.3314 175.148 71.6603C178.049 72.5103 177.06 76.0546 181.299 76.6426C191.821 99.3194 172.143 113.198 180.558 123.593Z" fill="white"/>
<path d="M174.189 77.4267C172.585 77.942 168.868 76.1655 168.759 72.6137L172.98 70.9928C172.98 70.9928 176.173 76.7859 174.189 77.4267Z" fill="#EA926E"/>
<path d="M155.494 90.9627C152.07 79.0311 151.734 69.4437 153.279 61.9867C153.133 60.6263 153.263 58.0632 153.162 57.3018C150.589 57.7843 147.738 70.6778 147.738 70.6778C147.229 105.769 162.983 122.013 180.559 123.593C169.558 120.758 160.072 106.939 155.494 90.9627Z" fill="#F5E0CF"/>
<path d="M163.141 66.1772C163.69 64.2855 164.503 62.1875 166.319 62.5773C168.134 62.9671 166.236 66.8009 166.236 66.8009L163.141 66.1772Z" fill="#946655"/>
<path d="M176.355 68.9222C176.898 67.0261 177.7 64.9246 179.514 65.3043C181.333 65.6832 179.457 69.524 179.457 69.524L176.355 68.9222Z" fill="#946655"/>
<path d="M176.203 76.9838C173.657 77.374 169.748 72.7214 169.768 71.092C169.789 69.4728 175.135 63.8726 175.729 64.2321C176.323 64.5917 178.576 76.6199 176.203 76.9838Z" fill="#FDA581"/>
<path d="M170.458 60.798C169.807 61.4831 161.911 61.7043 161.745 60.1811C161.622 59.0398 169.659 55.8188 171.533 57.2666C172.161 57.7504 171.501 59.6954 170.458 60.798Z" fill="white"/>
<path d="M176.662 61.7315C176.69 62.6906 183.18 65.8701 184.192 64.3631C184.932 63.276 180.795 57.7416 178.394 58.0992C177.478 58.2346 176.595 59.3333 176.662 61.7315Z" fill="white"/>
<path d="M166.401 68.1533L167.116 66.2257L160.862 65.8379L166.401 68.1533Z" fill="#D97C52"/>
<path d="M175.348 69.2057L175.975 67.2139L180.362 70.2549L175.348 69.2057Z" fill="#D97C52"/>
<path opacity="0.8" d="M169.646 83.1648C166.472 82.9041 164.694 79.8502 166.101 78.4855C167.507 77.1208 175.482 78.5619 175.624 79.1147C175.951 80.3703 174.965 83.6029 169.646 83.1648Z" fill="#946655"/>
<path d="M170.351 81.62C173.303 82.0532 174.466 81.8335 174.989 80.4843C174.974 80.3831 174.959 80.2869 174.94 80.1966C174.794 79.582 167.817 77.6889 166.642 79.1484C166.624 79.1666 166.624 79.1978 166.612 79.2203C166.925 80.721 168.47 81.3438 170.351 81.62Z" fill="#FFEACF"/>
<path d="M150.731 63.5381C153.378 65.7686 154.72 65.7752 156.114 63.5468C158.184 60.2253 160.699 51.0605 156.457 49.7064C155.177 49.2967 148.381 61.5572 150.731 63.5381Z" fill="#F5E0CF"/>
<path d="M152.677 65.2179C152.561 61.4909 146.269 60.2491 145.297 61.3719C144.325 62.4998 143.504 66.505 144.364 67.8234C145.224 69.1418 150.094 71.2077 151.235 70.1729C152.382 69.1424 152.742 67.4039 152.677 65.2179Z" fill="#FFCD9C"/>
<path d="M150.997 65.7139C150.924 63.3839 146.978 62.5749 146.371 63.2791C145.768 63.9725 145.249 66.4707 145.792 67.3043C146.332 68.1278 149.383 69.447 150.099 68.809C150.817 68.1602 151.04 67.0798 150.997 65.7139Z" fill="#F7A27C"/>
<path d="M151.202 67.5927C151.158 66.1233 148.676 65.644 148.288 66.0918C147.911 66.533 147.579 68.117 147.923 68.6392C148.261 69.157 150.182 69.9657 150.637 69.5541C151.086 69.1383 151.23 68.4533 151.202 67.5927Z" fill="#FDA581"/>
<path d="M70.9713 124.779L76.136 126.327C78.2019 126.947 82.5659 127.184 84.4596 127.27C84.4596 127.27 86.0491 129.513 88.0126 135.588L80.2678 135.103C74.0701 133.864 72.1764 134.243 72.0042 134.587C69.5252 137.065 66.7364 137.34 65.6518 137.168C64.8307 137.905 63.6966 138.529 62.1913 138.717C58.8859 139.13 58.4038 136.824 58.576 135.62C56.0969 136.033 56.1658 133.382 56.5101 132.006C56.447 131.943 56.5274 131.815 56.8991 131.617L59.6089 128.908L53.9277 128.392C53.5834 128.392 53.1014 128.495 53.9277 128.908C54.7541 129.321 54.9607 130.801 54.9607 131.49C54.5475 136.033 53.0669 134.759 52.3783 133.555C51.8618 132.866 50.6223 131.283 49.796 130.457C47.3169 127.566 49.1073 126.499 50.3124 126.327C53.4113 126.327 59.299 126.121 58.0595 125.295C56.82 124.469 51.001 123.574 48.2464 123.23C45.6641 123.746 42.5652 119.1 46.1805 119.616C49.0728 120.029 53.9276 120.477 55.9935 120.649C58.9202 122.197 64.3603 124.778 62.7076 122.714C61.0549 120.649 60.6418 118.756 60.6419 117.551C58.576 114.97 61.3147 109.915 62.1913 113.421C62.7076 115.486 63.2242 117.035 63.7407 117.035C68.2856 118.687 70.4548 122.886 70.9713 124.779Z" fill="#FDA581"/>
<path d="M63.397 132.697C62.1206 132.88 59.3488 133.573 58.4735 134.886C57.3794 136.527 62.3029 133.244 63.397 132.697Z" fill="#E68C67"/>
<path d="M167.59 62.5557C168.069 63.2159 168.739 65.0613 167.59 67.1609C168.646 66.3191 170.125 64.2195 167.59 62.5557Z" fill="#D97C52"/>
<path d="M178.299 64.1572C177.562 64.4133 175.955 65.4913 175.423 67.7542C175.232 66.5238 175.54 64.0819 178.299 64.1572Z" fill="#D97C52"/>
<path d="M272.52 93.209C271.278 93.2285 269.248 93.7708 271.065 95.784C270.696 95.1207 270.471 93.6772 272.52 93.209Z" fill="#E58C67"/>
<path d="M274.303 89.6426C272.666 89.6681 269.99 90.3773 272.384 93.0099C271.898 92.1425 271.602 90.2548 274.303 89.6426Z" fill="#E58C67"/>
<path d="M272.817 83.8496C273.247 83.9652 274.125 84.4735 274.204 85.5828C274.039 85.2196 273.53 84.3646 272.817 83.8496Z" fill="#E58C67"/>
<path d="M274.434 85.8809C274.775 86.1653 275.36 86.9944 274.968 88.0351C274.97 87.6362 274.866 86.6469 274.434 85.8809Z" fill="#E58C67"/>
<rect x="295.267" y="205.506" width="29.5459" height="22.1595" rx="6.33127" transform="rotate(-18.2992 295.267 205.506)" fill="#5E5CD8"/>
<rect x="294.517" y="203.531" width="15.8282" height="28.4907" rx="7.91409" transform="rotate(-3.46379 294.517 203.531)" fill="#5E5CD8"/>
<rect width="15.8282" height="28.4907" rx="7.91409" transform="matrix(-0.837389 0.546608 0.546608 0.837389 324.159 193.729)" fill="#5E5CD8"/>
<circle cx="302.591" cy="212.53" r="3.69324" transform="rotate(-18.2992 302.591 212.53)" fill="white"/>
<circle cx="302.591" cy="212.531" r="2.63803" transform="rotate(-18.2992 302.591 212.531)" fill="#3E3E3E"/>
<path fill-rule="evenodd" clip-rule="evenodd" d="M321.469 202.397C320.824 202.61 320.474 203.307 320.687 203.952L321.074 205.121L319.904 205.507C319.259 205.721 318.909 206.417 319.122 207.063C319.336 207.708 320.032 208.059 320.678 207.845L321.847 207.458L322.233 208.628C322.447 209.273 323.143 209.623 323.789 209.41C324.434 209.196 324.784 208.5 324.571 207.855L324.184 206.685L325.353 206.299C325.998 206.086 326.349 205.389 326.135 204.744C325.922 204.098 325.225 203.748 324.58 203.961L323.411 204.348L323.025 203.179C322.811 202.534 322.115 202.183 321.469 202.397Z" fill="white"/>
<rect x="310.255" y="217.22" width="10.5521" height="1.05521" rx="0.527606" transform="rotate(-18.2992 310.255 217.22)" fill="white"/>
<rect x="311.249" y="220.226" width="3.16564" height="1.05521" rx="0.527606" transform="rotate(-18.2992 311.249 220.226)" fill="white"/>
<rect x="315.256" y="218.901" width="1.05521" height="1.05521" rx="0.527606" transform="rotate(-18.2992 315.256 218.901)" fill="white"/>
<rect x="320.266" y="217.244" width="1.05521" height="1.05521" rx="0.527606" transform="rotate(-18.2992 320.266 217.244)" fill="white"/>
<rect x="35.8491" y="39.2012" width="7.98738" height="16.8622" rx="3.99369" transform="rotate(8.82317 35.8491 39.2012)" fill="#4A498E"/>
<rect width="7.98738" height="16.8622" rx="3.99369" transform="matrix(-0.988166 -0.153386 -0.153386 0.988166 66.1052 43.8965)" fill="#4A498E"/>
<rect x="33.6084" y="43.1094" width="4.43743" height="7.98738" rx="2.21872" transform="rotate(8.82317 33.6084 43.1094)" fill="#5C5BAB"/>
<rect width="4.43743" height="7.98738" rx="2.21872" transform="matrix(-0.988166 -0.153386 -0.153386 0.988166 66.9844 48.7578)" fill="#5C5BAB"/>
<path fill-rule="evenodd" clip-rule="evenodd" d="M60.1649 44.3225C60.3388 38.0806 56.5899 33.3505 52.1326 32.6586C47.6752 31.9667 42.6688 35.3378 40.9424 41.3387L37.9421 40.873C39.8987 33.5766 46.1284 28.6712 52.5957 29.675C59.0629 30.6789 63.5125 37.242 63.1651 44.7882L60.1649 44.3225Z" fill="#4A498E"/>
<path opacity="0.9" d="M265.587 10.2449C265.705 8.03935 268.589 7.29122 269.765 9.16085L271.585 12.0543C271.759 12.3314 271.991 12.5674 272.266 12.746L275.13 14.6118C276.981 15.8173 276.187 18.6884 273.98 18.7721L270.564 18.9016C270.237 18.914 269.916 18.9972 269.624 19.1454L266.576 20.6931C264.607 21.6931 262.518 19.5702 263.549 17.6168L265.144 14.5938C265.297 14.3043 265.385 13.9852 265.403 13.6584L265.587 10.2449Z" fill="#3EB4B3"/>
<path opacity="0.5" d="M25.3404 231.514C27.2132 230.343 29.4831 232.272 28.6296 234.309L26.3489 239.753C26.2224 240.055 26.1629 240.381 26.1744 240.708L26.3821 246.606C26.4599 248.814 23.6544 249.815 22.3169 248.057L18.7429 243.36C18.5447 243.1 18.2924 242.885 18.0033 242.732L12.7913 239.962C10.8407 238.926 11.3763 235.996 13.5673 235.716L19.422 234.97C19.7467 234.928 20.0585 234.817 20.3361 234.643L25.3404 231.514Z" fill="#5E5CD8"/>
<path opacity="0.9" d="M278.199 247.852C280.072 246.681 282.342 248.61 281.488 250.647L281.347 250.985C281.22 251.287 281.161 251.613 281.172 251.94L281.185 252.307C281.263 254.514 278.457 255.516 277.12 253.758L276.897 253.466C276.699 253.205 276.447 252.991 276.158 252.837L275.834 252.665C273.883 251.629 274.419 248.698 276.61 248.419L276.974 248.373C277.299 248.331 277.61 248.22 277.888 248.046L278.199 247.852Z" fill="#EB24EF"/>
<circle cx="241.169" cy="11.4091" r="8.68057" fill="#F99746"/>
<circle cx="269.475" cy="219.366" r="4.52899" fill="#2FCCFD"/>
<circle r="5.28383" transform="matrix(1 0 0 -1 46.0446 193.702)" fill="#FF5B7E"/>
<path d="M89.6095 19.7232L78.2775 37.9586L68.192 18.2285L89.6095 19.7232Z" fill="#49861A"/>
</svg>
