<svg width="295" height="245" viewBox="0 0 295 245" fill="none" xmlns="http://www.w3.org/2000/svg">
<path d="M50.6201 238.816H268.712L279.839 244.167H38.1577L50.6201 238.816Z" fill="#0A1B3D"/>
<rect x="12.9854" y="13.877" width="242.465" height="145.257" stroke="url(#paint0_linear)"/>
<rect x="4" y="4" width="260.705" height="164.431" stroke="#5E359A" stroke-width="8"/>
<path d="M98.8302 108.433H90.801C90.6079 108.433 90.4182 108.382 90.251 108.286C90.0838 108.189 89.945 108.05 89.8485 107.883C89.7519 107.716 89.7011 107.526 89.7011 107.333C89.7011 107.14 89.7519 106.95 89.8485 106.783C89.876 106.735 92.4585 102.212 92.0736 98.8013C89.6329 97.9005 81.6102 94.1939 83.6736 84.9548C83.701 84.8098 83.7572 84.6718 83.8389 84.549C83.9206 84.4263 84.0262 84.3212 84.1494 84.24C84.2726 84.1589 84.4108 84.1033 84.5559 84.0767C84.701 84.05 84.8499 84.0529 84.9939 84.085C85.1378 84.1171 85.2739 84.1778 85.3939 84.2635C85.5139 84.3493 85.6155 84.4583 85.6925 84.5841C85.7695 84.7099 85.8205 84.8499 85.8423 84.9957C85.8641 85.1416 85.8564 85.2904 85.8195 85.4332C83.8595 94.2137 92.948 96.8017 93.3351 96.9073C93.5269 96.9597 93.7008 97.063 93.8385 97.2063C93.9762 97.3496 94.0725 97.5276 94.1172 97.7212C94.7936 100.651 93.5133 104.196 92.5872 106.233H98.024C100.644 99.2193 112.717 94.1114 113.251 93.8892C113.52 93.7769 113.823 93.7762 114.093 93.8871C114.363 93.9981 114.577 94.2117 114.69 94.481C114.802 94.7502 114.803 95.053 114.692 95.3228C114.581 95.5926 114.367 95.8073 114.098 95.9196C113.972 95.9713 101.547 101.23 99.8927 107.609C99.8316 107.845 99.6942 108.053 99.502 108.202C99.3097 108.352 99.0735 108.433 98.8302 108.433Z" fill="#5282C2"/>
<path d="M85.3503 92.9917C85.3047 92.9914 85.2592 92.9885 85.2139 92.9829C85.1039 92.9686 73.8256 91.4111 74.6549 77.7086C74.7167 75.9417 75.1414 74.2064 75.9026 72.6107C76.6639 71.015 77.7454 69.593 79.0798 68.4332C81.658 66.328 86.1884 64.5033 93.1266 67.7557C93.385 67.883 93.5832 68.1067 93.6785 68.3786C93.7738 68.6506 93.7585 68.9491 93.6361 69.2099C93.5136 69.4707 93.2936 69.673 93.0235 69.7734C92.7534 69.8737 92.4547 69.8641 92.1917 69.7465C87.4533 67.5247 83.5025 67.6567 80.4723 70.1369C79.3729 71.1046 78.4841 72.2878 77.8611 73.6132C77.238 74.9385 76.894 76.3778 76.8503 77.8417C76.1497 89.4423 85.1061 90.7501 85.4889 90.8007C85.7663 90.836 86.0198 90.9756 86.198 91.1912C86.3761 91.4068 86.4654 91.6821 86.4477 91.9612C86.4301 92.2403 86.3068 92.5022 86.1029 92.6936C85.8991 92.885 85.6299 92.9916 85.3503 92.9917Z" fill="#5282C2"/>
<path d="M80.7897 69.6579H80.7237C80.5795 69.6493 80.4384 69.6124 80.3084 69.5493C80.1784 69.4862 80.0621 69.3981 79.9662 69.29C79.8703 69.1819 79.7966 69.056 79.7494 68.9195C79.7022 68.7829 79.6823 68.6384 79.6909 68.4942C79.7008 68.338 80.8689 52.6425 101.337 52.3741C101.481 52.3723 101.625 52.399 101.759 52.4526C101.893 52.5062 102.015 52.5857 102.119 52.6865C102.222 52.7874 102.305 52.9076 102.362 53.0404C102.418 53.1731 102.449 53.3158 102.451 53.4603C102.452 53.6047 102.426 53.7481 102.372 53.8822C102.318 54.0164 102.239 54.1386 102.138 54.242C102.037 54.3454 101.917 54.428 101.784 54.4849C101.651 54.5419 101.509 54.5721 101.364 54.5739C82.9191 54.8159 81.9193 68.0575 81.8863 68.6218C81.8701 68.9017 81.7475 69.1649 81.5437 69.3575C81.3398 69.55 81.0701 69.6575 80.7897 69.6579Z" fill="#5282C2"/>
<path d="M98.2244 58.7141C98.0937 58.7143 97.964 58.6908 97.8416 58.6448C97.5695 58.5434 97.3486 58.3384 97.227 58.0747C97.1054 57.8109 97.0931 57.5098 97.1927 57.237C98.4811 54.2549 100.885 51.8951 103.89 50.6618C108.477 48.7513 114.261 49.3595 121.08 52.4733C121.215 52.531 121.337 52.615 121.439 52.7205C121.541 52.826 121.621 52.9508 121.674 53.0876C121.727 53.2244 121.752 53.3704 121.747 53.517C121.743 53.6636 121.71 53.8079 121.649 53.9413C121.588 54.0748 121.501 54.1947 121.393 54.294C121.285 54.3933 121.158 54.4701 121.02 54.5197C120.882 54.5694 120.736 54.5909 120.589 54.5831C120.443 54.5752 120.299 54.5381 120.167 54.474C113.95 51.6363 108.769 51.0314 104.778 52.6757C102.326 53.6823 100.351 55.5862 99.255 57.9992C99.1765 58.2092 99.0358 58.3902 98.8516 58.518C98.6674 58.6458 98.4486 58.7142 98.2244 58.7141Z" fill="#5282C2"/>
<path d="M138.447 70.2822C138.24 70.2828 138.036 70.2241 137.861 70.1128C137.739 70.0356 137.633 69.9352 137.55 69.8171C137.467 69.699 137.407 69.5657 137.376 69.4248C137.344 69.2838 137.34 69.138 137.365 68.9956C137.389 68.8532 137.442 68.7171 137.519 68.595C138.232 67.625 138.74 66.5206 139.014 65.3485C139.288 64.1764 139.321 62.9609 139.112 61.7756C138.605 59.895 137.433 58.2626 135.812 57.1824C124.468 49.3776 116.688 56.9361 116.611 57.0087C116.509 57.1109 116.388 57.1919 116.254 57.2473C116.121 57.3026 115.978 57.3311 115.833 57.3312C115.689 57.3312 115.546 57.3028 115.412 57.2476C115.279 57.1923 115.158 57.1113 115.055 57.0092C114.953 56.9071 114.872 56.7858 114.817 56.6524C114.761 56.5189 114.733 56.3759 114.733 56.2314C114.733 56.087 114.761 55.9439 114.817 55.8104C114.872 55.6769 114.953 55.5556 115.055 55.4534C115.145 55.3632 124.225 46.5355 137 55.3247C139.1 56.7142 140.613 58.8288 141.252 61.2642C141.884 63.9446 141.252 66.8054 139.382 69.7697C139.283 69.9273 139.145 70.0571 138.981 70.1468C138.818 70.2364 138.634 70.283 138.447 70.2822Z" fill="#5282C2"/>
<path d="M150.207 81.1731C150.142 81.1729 150.078 81.1674 150.015 81.1566C149.873 81.1316 149.737 81.0788 149.615 81.0013C149.493 80.9238 149.388 80.823 149.305 80.7047C149.222 80.5864 149.163 80.453 149.132 80.312C149.1 80.171 149.097 80.0252 149.122 79.8829C149.37 78.544 149.45 77.1796 149.362 75.821C149.34 75.5301 149.435 75.2427 149.626 75.0218C149.816 74.8009 150.086 74.6646 150.377 74.643C150.521 74.6301 150.667 74.6463 150.805 74.6907C150.943 74.7351 151.071 74.8067 151.181 74.9014C151.291 74.9961 151.38 75.1118 151.445 75.2418C151.509 75.3718 151.546 75.5134 151.555 75.6582C151.658 77.1987 151.568 78.746 151.29 80.2645C151.245 80.5192 151.112 80.7498 150.914 80.9159C150.715 81.0821 150.465 81.1731 150.207 81.1731Z" fill="#5282C2"/>
<path d="M134.076 91.7433C131.755 91.7313 129.441 91.4732 127.173 90.9733C127.03 90.9455 126.893 90.8892 126.772 90.8079C126.65 90.7266 126.546 90.6218 126.465 90.4998C126.385 90.3777 126.329 90.2408 126.302 90.0971C126.275 89.9533 126.277 89.8056 126.308 89.6626C126.338 89.5196 126.397 89.3841 126.481 89.2642C126.565 89.1442 126.672 89.0422 126.795 88.964C126.919 88.8858 127.057 88.8331 127.201 88.8089C127.345 88.7847 127.493 88.7895 127.635 88.823C136.047 90.628 141.556 88.7131 144.691 86.7838C145.137 86.5094 145.558 86.1966 145.95 85.8489C146.171 85.6777 146.449 85.5974 146.728 85.6242C147.007 85.651 147.264 85.7831 147.449 85.9934C147.634 86.2036 147.731 86.4764 147.722 86.7561C147.712 87.0358 147.597 87.3014 147.398 87.4988C146.913 87.9283 146.391 88.3151 145.839 88.6548C142.283 90.7625 138.209 91.8324 134.076 91.7433Z" fill="#5282C2"/>
<path d="M148.457 70.2414C148.266 70.2418 148.077 70.1922 147.911 70.0975C147.744 70.0028 147.606 69.8662 147.508 69.7013C145.715 66.8286 143.093 64.5662 139.989 63.2119C139.854 63.1604 139.731 63.0829 139.626 62.9836C139.521 62.8844 139.436 62.7655 139.377 62.6336C139.318 62.5018 139.286 62.3596 139.282 62.2152C139.278 62.0708 139.302 61.927 139.354 61.792C139.405 61.657 139.483 61.5335 139.582 61.4285C139.681 61.3235 139.8 61.2391 139.932 61.18C140.064 61.121 140.206 61.0885 140.35 61.0844C140.495 61.0803 140.638 61.1047 140.773 61.1562C144.35 62.6767 147.366 65.2716 149.402 68.5816C149.501 68.7486 149.554 68.9387 149.555 69.1327C149.557 69.3266 149.507 69.5176 149.411 69.6861C149.315 69.8546 149.176 69.9947 149.008 70.0923C148.841 70.1898 148.65 70.2412 148.456 70.2414H148.457Z" fill="#5282C2"/>
<path d="M98.1763 93.1628C97.8153 93.163 97.455 93.1317 97.0995 93.0693C93.1399 92.3753 91.9982 88.1682 91.9476 86.0399C91.9408 85.7483 92.05 85.466 92.2514 85.255C92.4527 85.044 92.7295 84.9216 93.0211 84.9147C93.1658 84.9088 93.3103 84.932 93.446 84.983C93.5816 85.034 93.7056 85.1117 93.8106 85.2115C93.9157 85.3113 93.9996 85.4312 94.0574 85.564C94.1153 85.6969 94.1459 85.84 94.1474 85.9849C94.1474 86.1642 94.3112 90.3482 97.48 90.9025C98.1654 91.0055 98.8652 90.9536 99.528 90.7507C100.191 90.5478 100.8 90.1991 101.31 89.73C101.827 89.3186 102.22 88.7717 102.444 88.1503C102.669 87.5289 102.717 86.8573 102.582 86.2103C102.53 85.9233 102.594 85.6272 102.759 85.3871C102.925 85.147 103.18 84.9826 103.467 84.9301C103.754 84.8776 104.05 84.9412 104.29 85.1071C104.53 85.2729 104.695 85.5273 104.747 85.8144C104.95 86.8319 104.874 87.8854 104.528 88.8634C104.181 89.8414 103.577 90.7074 102.778 91.37C101.515 92.5098 99.8778 93.1475 98.1763 93.1628Z" fill="#5282C2"/>
<path d="M115.73 96.1869C108.115 96.1869 105.157 90.8414 105.023 90.5895L100.43 81.7958C99.8196 80.9585 99.0387 80.2596 98.1389 79.745C97.2391 79.2304 96.2408 78.9116 95.2093 78.8096C93.1099 78.8713 91.1093 79.7151 89.5998 81.1755C89.3946 81.379 89.1175 81.4935 88.8285 81.4943C88.5395 81.495 88.2618 81.3821 88.0555 81.1798C87.8491 80.9774 87.7307 80.7021 87.7257 80.4131C87.7208 80.1242 87.8298 79.8449 88.0292 79.6356C89.9747 77.7444 92.5669 76.6642 95.2797 76.6142C96.6424 76.7224 97.9657 77.1236 99.159 77.7905C100.352 78.4574 101.387 79.3742 102.194 80.4782C102.243 80.5389 102.287 80.6045 102.323 80.674L106.968 89.5655C107.078 89.7723 110.02 94.955 117.935 93.8298C118.815 93.5735 129.307 90.3706 129.755 82.8451C129.806 82.447 130.712 75.1778 122.605 71.756C121.292 71.1785 119.831 71.0247 118.426 71.316C116.383 71.7879 115.577 72.9571 115.896 74.9974C115.924 75.1426 115.922 75.292 115.89 75.4364C115.859 75.5809 115.798 75.7175 115.713 75.8382C115.628 75.9588 115.519 76.061 115.393 76.1386C115.267 76.2162 115.127 76.2677 114.981 76.2899C114.834 76.312 114.685 76.3045 114.542 76.2678C114.399 76.231 114.265 76.1658 114.147 76.0759C114.03 75.9861 113.932 75.8735 113.859 75.7449C113.786 75.6163 113.74 75.4743 113.723 75.3274C113.56 74.6436 113.543 73.9335 113.671 73.2425C113.799 72.5515 114.07 71.895 114.467 71.315C114.864 70.7351 115.378 70.2445 115.975 69.8747C116.573 69.5049 117.241 69.2642 117.938 69.1679C119.794 68.773 121.728 68.9684 123.469 69.7267C133.178 73.8238 131.967 82.9738 131.952 83.0662C131.402 92.3735 118.99 95.825 118.461 95.9669C118.42 95.9788 118.377 95.988 118.335 95.9944C117.472 96.1213 116.602 96.1856 115.73 96.1869Z" fill="#5282C2"/>
<path d="M117.345 71.5925C117.214 71.5926 117.083 71.5691 116.96 71.5232C114.861 70.671 113.181 69.0271 112.283 66.9465C112.186 66.6761 112.198 66.3782 112.317 66.1165C112.436 65.8549 112.653 65.6503 112.921 65.5467C113.189 65.443 113.487 65.4484 113.752 65.5619C114.016 65.6753 114.225 65.8876 114.335 66.1535C114.999 67.6501 116.213 68.8344 117.726 69.462C117.967 69.552 118.169 69.7241 118.297 69.9481C118.425 70.1721 118.47 70.4339 118.424 70.6876C118.378 70.9413 118.245 71.171 118.047 71.3363C117.849 71.5017 117.6 71.5924 117.342 71.5925H117.345Z" fill="#5282C2"/>
<path d="M101.646 68.4356C100.298 68.4636 98.9619 68.1671 97.7518 67.571C96.5416 66.9749 95.4925 66.0968 94.6926 65.0106C94.5176 64.7772 94.4425 64.4839 94.4837 64.1951C94.525 63.9063 94.6793 63.6457 94.9126 63.4707C95.146 63.2957 95.4393 63.2205 95.7281 63.2618C96.0169 63.303 96.2774 63.4573 96.4525 63.6907C97.2573 64.7115 98.3409 65.4769 99.572 65.8943C100.803 66.3117 102.129 66.3631 103.388 66.0423C109.432 63.386 108.4 58.0713 108.352 57.8458C108.318 57.7029 108.313 57.5546 108.338 57.4097C108.362 57.2648 108.415 57.1263 108.494 57.0023C108.573 56.8783 108.676 56.7713 108.796 56.6877C108.917 56.6041 109.054 56.5455 109.197 56.5154C109.341 56.4854 109.49 56.4845 109.634 56.5127C109.778 56.5409 109.915 56.5978 110.037 56.6798C110.159 56.7619 110.263 56.8676 110.343 56.9906C110.424 57.1136 110.479 57.2514 110.505 57.396C110.849 59.6337 110.408 61.9216 109.258 63.8713C108.107 65.8211 106.317 67.3125 104.191 68.0925C104.151 68.1101 104.109 68.1252 104.066 68.1376C103.276 68.3437 102.462 68.4439 101.646 68.4356Z" fill="#5282C2"/>
<path d="M103.757 74.6426C103.642 74.6425 103.527 74.6239 103.418 74.5876C102.853 74.4226 102.329 74.1386 101.882 73.7547C101.436 73.3707 101.077 72.8957 100.829 72.3614C99.7916 70.0681 100.971 67.2018 101.108 66.8817C101.224 66.6138 101.441 66.4027 101.712 66.2948C101.983 66.1869 102.286 66.1911 102.553 66.3065C102.821 66.4218 103.033 66.6389 103.14 66.91C103.248 67.181 103.244 67.4838 103.129 67.7517C102.603 68.916 102.499 70.227 102.835 71.4595C102.956 71.7145 103.132 71.9396 103.35 72.1187C103.568 72.2978 103.823 72.4265 104.097 72.4956C104.346 72.5759 104.559 72.743 104.697 72.9665C104.834 73.1901 104.887 73.4554 104.846 73.7147C104.805 73.9739 104.673 74.2099 104.473 74.3801C104.273 74.5502 104.019 74.6433 103.757 74.6426Z" fill="#5282C2"/>
<path d="M140.094 79.2704C139.72 79.2716 139.347 79.2347 138.98 79.1605C135.033 78.3509 133.022 73.4311 132.938 73.221C132.83 72.9502 132.833 72.6472 132.948 72.3789C133.063 72.1105 133.279 71.8987 133.55 71.7901C133.821 71.6814 134.124 71.6848 134.392 71.7995C134.661 71.9142 134.872 72.1307 134.981 72.4016C134.996 72.4423 136.641 76.4393 139.429 77.0058C140.902 77.3049 142.549 76.5658 144.317 74.7961C144.523 74.5898 144.803 74.474 145.095 74.4741C145.387 74.4742 145.666 74.5902 145.873 74.7966C146.079 75.003 146.195 75.2829 146.195 75.5746C146.195 75.8664 146.079 76.1462 145.872 76.3524C143.93 78.2915 141.992 79.2704 140.094 79.2704Z" fill="#5282C2"/>
<path d="M130.506 67.6514C130.238 67.6512 129.978 67.5524 129.777 67.3739C129.576 67.1953 129.447 66.9493 129.415 66.6824C128.918 62.527 126.16 62.1101 126.132 62.1057C126.018 62.0918 125.906 62.0595 125.802 62.01C122.156 60.2832 119.313 63.8656 119.286 63.9018C119.105 64.1234 118.844 64.2653 118.559 64.2974C118.274 64.3295 117.988 64.2493 117.762 64.0737C117.535 63.8981 117.386 63.6412 117.347 63.3574C117.307 63.0737 117.379 62.7856 117.549 62.5545C118.887 60.8298 122.483 58.0977 126.612 59.9609C127.492 60.149 130.972 61.2203 131.594 66.4206C131.611 66.5749 131.596 66.731 131.549 66.879C131.502 67.0269 131.425 67.1633 131.322 67.2794C131.218 67.3954 131.092 67.4885 130.951 67.5526C130.809 67.6167 130.656 67.6504 130.501 67.6514H130.506Z" fill="#5282C2"/>
<path d="M115.562 86.839C115.43 86.839 115.299 86.839 115.167 86.828C114.226 86.7862 113.302 86.5569 112.45 86.1534C111.599 85.75 110.836 85.1806 110.208 84.4786C108.978 83.0737 108.342 81.2464 108.433 79.3817C108.467 79.0973 108.611 78.8374 108.833 78.6572C109.056 78.477 109.34 78.3907 109.625 78.4166C109.91 78.4426 110.174 78.5787 110.361 78.7961C110.547 79.0135 110.641 79.295 110.623 79.5808C110.591 80.8389 111.029 82.064 111.851 83.0168C112.287 83.5006 112.816 83.8926 113.405 84.1698C113.995 84.447 114.634 84.604 115.285 84.6315C115.943 84.6715 116.602 84.5812 117.225 84.3659C117.848 84.1505 118.422 83.8143 118.914 83.3765C119.866 82.4779 120.554 81.3372 120.906 80.0768C120.992 79.7979 121.185 79.5646 121.443 79.428C121.701 79.2915 122.002 79.2629 122.281 79.3487C122.56 79.4345 122.793 79.6275 122.93 79.8853C123.067 80.1432 123.095 80.4447 123.009 80.7236C122.542 82.3611 121.638 83.8403 120.393 85.0022C119.063 86.1884 117.343 86.8424 115.562 86.839Z" fill="#5282C2"/>
<path d="M37.4628 48.1367C36.6125 48.1367 35.9233 49.0212 35.9233 50.1124V109.383C35.9233 110.474 36.6125 111.359 37.4628 111.359C37.9932 111.359 38.5062 111.345 39.0023 111.32C39.0023 77.7719 39.0023 64.6493 39.0023 48.2158C38.4971 48.1634 37.9838 48.1367 37.4628 48.1367ZM39.0023 107.407V101.48H46.6997V97.5288H39.0023V91.6017H43.6208V87.6503H39.0023V81.7233H46.6997V77.7719H39.0023V71.8449H43.6208V67.8935H39.0023V61.9665H46.6997V58.0151H39.0023V52.0881V107.407Z" fill="#F3BA4C"/>
<path d="M74.7202 131.377C74.7202 132.227 75.7957 132.916 77.1225 132.916H149.191C150.517 132.916 151.593 132.227 151.593 131.377C151.593 130.846 151.577 130.333 151.545 129.837C110.754 129.837 94.7982 129.837 74.8164 129.837C74.7527 130.342 74.7202 130.856 74.7202 131.377ZM146.788 129.837H139.581V122.14H134.777V129.837H127.57V125.219H122.766V129.837H115.559V122.14H110.754V129.837H103.547V125.219H98.7429V129.837H91.5361V122.14H86.7316V129.837H79.5248H146.788Z" fill="#FF5B7E"/>
<path d="M172.372 22.5703C166.803 25.1352 175.562 34.1735 170.848 38.5489C166.135 42.9244 165.683 45.6976 167.975 50.8706C170.266 56.0435 156.084 60.1459 165.007 67.2156C173.931 74.2853 206.585 91.1476 207.691 67.8694C208.253 56.1532 196.785 47.8391 196.785 29.8268C195.493 16.2259 175.017 11.9152 172.372 22.5703Z" fill="#263238"/>
<path d="M205.421 231.212C207.576 226.477 207.576 225.256 209.013 222.719C210.278 220.564 210.307 220.693 211.959 218.761C213.051 217.475 211.815 216.002 210.371 215.499C209.25 215.104 208.036 214.78 206.671 214.256L202.36 219.285C203.539 221.685 203.754 226.98 202.36 230.701C201.405 233.389 204.552 233.108 205.421 231.212Z" fill="#263238"/>
<path d="M165.575 95.5156C165.575 95.5156 164.224 138.58 165.575 162.376C164.576 176.623 201.785 219.472 201.785 219.472C202.691 220.19 206.506 215.492 206.728 214.256C206.728 214.256 191.526 175.904 180.533 161.521C194.278 123.442 190.549 95.5156 190.549 95.5156H165.575Z" fill="#172B52"/>
<path opacity="0.2" d="M184.822 168.002C185.871 178.527 186.633 190.195 186.978 201.224C194.795 211.462 201.749 219.473 201.749 219.473L201.835 219.523C202.554 215.715 203.215 211.548 203.797 207.208C199.716 197.466 191.957 179.778 184.822 168.002Z" fill="black"/>
<path opacity="0.2" d="M190.513 95.5156H174.764C174.764 95.5156 177.904 137.546 181.41 158.884C194.076 122.199 190.513 95.5156 190.513 95.5156Z" fill="black"/>
<path d="M199.005 217.79C199.529 218.365 200.442 219.4 201.117 220.19C201.168 220.252 201.231 220.303 201.303 220.341C201.374 220.378 201.452 220.401 201.532 220.409C201.612 220.416 201.693 220.407 201.769 220.383C201.846 220.359 201.917 220.321 201.979 220.269C203.954 218.503 205.761 216.557 207.375 214.457C207.45 214.352 207.49 214.226 207.49 214.097C207.49 213.968 207.45 213.843 207.375 213.738L205.816 211.338C205.765 211.263 205.699 211.199 205.621 211.152C205.544 211.105 205.457 211.075 205.367 211.065C205.276 211.054 205.185 211.064 205.099 211.093C205.012 211.121 204.934 211.168 204.867 211.231L199.005 216.935C198.895 217.05 198.833 217.203 198.833 217.363C198.833 217.522 198.895 217.675 199.005 217.79Z" fill="#407BFF"/>
<path opacity="0.3" d="M199.005 217.79C199.529 218.365 200.442 219.4 201.117 220.19C201.168 220.252 201.231 220.303 201.303 220.341C201.374 220.378 201.452 220.401 201.532 220.409C201.612 220.416 201.693 220.407 201.769 220.383C201.846 220.359 201.917 220.321 201.979 220.269C203.954 218.503 205.761 216.557 207.375 214.457C207.45 214.352 207.49 214.226 207.49 214.097C207.49 213.968 207.45 213.843 207.375 213.738L205.816 211.338C205.765 211.263 205.699 211.199 205.621 211.152C205.544 211.105 205.457 211.075 205.367 211.065C205.276 211.054 205.185 211.064 205.099 211.093C205.012 211.121 204.934 211.168 204.867 211.231L199.005 216.935C198.895 217.05 198.833 217.203 198.833 217.363C198.833 217.522 198.895 217.675 199.005 217.79Z" fill="#263238"/>
<path d="M183.623 241.07C188.925 241.07 188.552 240.991 191.526 240.89C194.091 240.797 194.673 241.113 196.721 241.07C198.438 241.034 198.524 239.396 198.157 237.477C197.985 236.529 197.676 235.372 197.439 233.842H189.414C188.685 234.972 187.711 235.923 186.564 236.626C185.417 237.329 184.127 237.765 182.79 237.901C179.901 238.282 181.511 241.07 183.623 241.07Z" fill="#263238"/>
<path d="M173.054 95.5163C173.054 95.5163 181.381 141.361 184.434 162.125C187.639 183.945 191.619 219.365 189.413 233.856C190.591 234.575 194.952 234.625 197.467 233.856C197.467 233.856 210.191 184.096 199.558 163.088C205.607 112.027 196.684 109.361 194.191 95.502L173.054 95.5163Z" fill="#152747"/>
<path d="M189.083 230.853C188.968 231.858 188.783 232.854 188.53 233.834C188.507 233.911 188.502 233.992 188.513 234.072C188.524 234.151 188.552 234.227 188.595 234.295C188.637 234.363 188.694 234.421 188.761 234.466C188.828 234.51 188.903 234.54 188.983 234.553C191.856 235.02 196.217 234.337 197.604 234.093C197.733 234.066 197.852 234.004 197.949 233.914C198.045 233.825 198.115 233.71 198.15 233.583L198.869 230.795C198.895 230.71 198.901 230.62 198.885 230.533C198.87 230.445 198.833 230.362 198.779 230.292C198.725 230.221 198.654 230.165 198.574 230.128C198.493 230.09 198.404 230.073 198.315 230.077L189.787 230.235C189.615 230.237 189.45 230.3 189.321 230.413C189.191 230.527 189.107 230.683 189.083 230.853Z" fill="#407BFF"/>
<path opacity="0.3" d="M189.083 230.853C188.968 231.858 188.783 232.854 188.53 233.834C188.507 233.911 188.502 233.992 188.513 234.072C188.524 234.151 188.552 234.227 188.595 234.295C188.637 234.363 188.694 234.421 188.761 234.466C188.828 234.51 188.903 234.54 188.983 234.553C191.856 235.02 196.217 234.337 197.604 234.093C197.733 234.066 197.852 234.004 197.949 233.914C198.045 233.825 198.115 233.71 198.15 233.583L198.869 230.795C198.895 230.71 198.901 230.62 198.885 230.533C198.87 230.445 198.833 230.362 198.779 230.292C198.725 230.221 198.654 230.165 198.574 230.128C198.493 230.09 198.404 230.073 198.315 230.077L189.787 230.235C189.615 230.237 189.45 230.3 189.321 230.413C189.191 230.527 189.107 230.683 189.083 230.853Z" fill="#263238"/>
<path d="M173.732 66.6359C172.173 67.9651 170.686 69.1003 169.098 70.2282C167.51 71.3562 165.901 72.4483 164.191 73.4685C162.454 74.5422 160.649 75.5022 158.788 76.3424C157.778 76.8067 156.739 77.205 155.677 77.535C154.394 77.9431 153.063 78.1845 151.719 78.2535H151.553C151.383 78.2644 151.213 78.2644 151.043 78.2535C150.343 78.1788 149.66 77.9946 149.017 77.7074C148.553 77.5005 148.11 77.2478 147.695 76.9531C147.077 76.5207 146.509 76.022 146 75.4658C145.205 74.603 144.484 73.6754 143.844 72.6926C142.763 70.9726 141.802 69.1793 140.97 67.3257C140.151 65.5295 139.426 63.7333 138.772 61.9228C138.118 60.1123 137.529 58.2946 137.026 56.3907C136.868 55.8099 136.925 55.1919 137.185 54.6494C137.445 54.1069 137.892 53.676 138.444 53.4355C138.995 53.195 139.615 53.1609 140.19 53.3394C140.764 53.5179 141.256 53.897 141.574 54.4077V54.4508L144.52 59.0921C145.511 60.6296 146.495 62.1599 147.516 63.6184C148.473 65.0368 149.504 66.4038 150.605 67.7136C151.053 68.2594 151.551 68.7622 152.092 69.2152C152.228 69.3377 152.384 69.4372 152.552 69.5098C152.552 69.5098 152.552 69.5098 152.459 69.4236C152.246 69.3213 152.018 69.258 151.783 69.2368H151.108C151.6 69.1054 152.08 68.9348 152.545 68.7267C153.163 68.4608 153.86 68.1303 154.556 67.7495C155.253 67.3688 155.993 66.952 156.669 66.4994C157.344 66.0468 158.106 65.6013 158.824 65.1128C160.261 64.1357 161.698 63.1227 163.135 62.0737C164.572 61.0247 166.009 59.9183 167.331 58.9125L167.41 58.855C168.453 58.1468 169.725 57.8565 170.972 58.0417C172.22 58.2269 173.352 58.8741 174.145 59.855C174.938 60.8358 175.333 62.0787 175.253 63.3373C175.172 64.596 174.622 65.7784 173.711 66.6503L173.732 66.6359Z" fill="#FABB8A"/>
<path d="M174.34 55.4045C169.024 54.6285 167.263 56.3098 160.984 62.6322C160.395 68.0063 164.842 74.4725 164.842 74.4725C164.842 74.4725 180.361 64.687 174.34 55.4045Z" fill="#40AEB3"/>
<path d="M163.987 65.3541C163.901 68.1705 164.181 71.5688 164.814 78.2864C165.238 83.9623 163.822 94.7464 165.611 95.5295H194.163C194.738 87.4037 194.529 81.8141 199.666 63.6729C199.969 62.7249 200.056 61.7213 199.92 60.7355C199.785 59.7497 199.431 58.8066 198.884 57.9753C198.337 57.1439 197.611 56.4454 196.76 55.9308C195.908 55.4162 194.952 55.0985 193.962 55.001C192.827 54.8861 191.619 54.7855 190.369 54.728C186.043 54.4188 181.699 54.4188 177.372 54.728C175.935 54.8573 174.499 55.037 173.098 55.2309C170.646 55.6117 168.401 56.8268 166.741 58.6711C165.081 60.5154 164.109 62.8759 163.987 65.3541Z" fill="#40AEB3"/>
<path d="M189.507 40.0791C188.372 44.2606 186.985 51.9265 189.701 54.7142C189.701 54.7142 185.742 54.1179 177.336 59.3195C174.901 55.8278 176.704 54.7142 176.704 54.7142C181.453 53.6006 181.59 50.1448 181.015 46.8901L189.507 40.0791Z" fill="#FABB8A"/>
<path d="M179.075 58.2713C181.841 58.6664 182.711 62.8479 182.711 62.8479C182.711 62.8479 189.364 58.142 191.469 54.8299C190.633 54.3576 189.822 53.842 189.04 53.2852C189.04 53.2852 180.72 56.6763 179.075 58.2713Z" fill="white"/>
<path d="M176.467 57.8253C176.467 57.8253 174.268 58.2995 173.169 61.3601C172.537 55.2604 175.425 54.7 175.425 54.7C176.186 54.277 177.076 54.1492 177.925 54.3408C177.315 54.6618 176.836 55.1851 176.57 55.821C176.304 56.4568 176.267 57.1655 176.467 57.8253Z" fill="white"/>
<path opacity="0.2" d="M186.044 42.8594L181.015 46.89C181.158 47.6505 181.235 48.4222 181.245 49.1962C183.048 48.9376 185.642 46.9834 185.965 45.1153C186.13 44.3747 186.157 43.6098 186.044 42.8594Z" fill="black"/>
<path d="M190.894 31.1123C190.958 37.9808 191.131 40.8762 187.977 44.7631C183.242 50.6689 174.929 49.6846 172.846 43.0819C170.971 37.1402 171.179 26.9021 177.573 23.3673C178.923 22.5591 180.465 22.1275 182.038 22.1174C183.611 22.1073 185.158 22.5191 186.519 23.3098C187.879 24.1006 189.002 25.2415 189.771 26.6138C190.541 27.986 190.928 29.5394 190.894 31.1123Z" fill="#FABB8A"/>
<path d="M173.945 22.8798C182.689 32.6221 194.68 39.4044 194.314 31.4438C193.947 23.4833 181.08 17.3189 173.945 22.8798Z" fill="#263238"/>
<path d="M192.884 36.5949C192.656 37.212 192.301 37.7747 191.844 38.2473C191.386 38.7198 190.835 39.0918 190.225 39.3395C188.695 39.8783 187.869 38.1396 188.243 36.3075C188.58 34.6551 189.787 32.3776 191.346 32.6434C192.905 32.9092 193.545 34.9568 192.884 36.5949Z" fill="#FABB8A"/>
<path d="M182.37 73.2565L168.379 79.9209L170.882 85.1749L184.873 78.5104L182.37 73.2565Z" fill="white"/>
<path opacity="0.5" d="M183.619 75.8825L169.628 82.5469L170.311 83.9804L184.302 77.3159L183.619 75.8825Z" fill="#407BFF"/>
<path d="M184.873 78.4751L190.672 75.7129L188.169 70.4589L182.37 73.2211L184.873 78.4751Z" fill="white"/>
<path opacity="0.5" d="M184.873 78.4751L190.672 75.7129L188.169 70.4589L182.37 73.2211L184.873 78.4751Z" fill="#407BFF"/>
<path opacity="0.2" d="M179.793 76.2181C179.85 76.3508 179.946 76.4631 180.069 76.5404C180.191 76.6177 180.333 76.6564 180.478 76.6513C180.622 76.6463 180.762 76.5978 180.878 76.5123C180.995 76.4267 181.083 76.308 181.131 76.1716C181.179 76.0352 181.184 75.8876 181.147 75.748C181.11 75.6083 181.031 75.4832 180.922 75.3889C180.812 75.2945 180.677 75.2355 180.533 75.2193C180.389 75.2032 180.244 75.2308 180.117 75.2984C179.957 75.383 179.835 75.5246 179.775 75.695C179.715 75.8655 179.722 76.0522 179.793 76.2181Z" fill="#407BFF"/>
<path opacity="0.2" d="M177.861 77.1302C177.918 77.2629 178.014 77.3752 178.136 77.4525C178.258 77.5298 178.401 77.5685 178.545 77.5634C178.69 77.5584 178.829 77.51 178.946 77.4244C179.062 77.3388 179.15 77.2201 179.198 77.0837C179.246 76.9473 179.252 76.7997 179.214 76.6601C179.177 76.5204 179.099 76.3953 178.989 76.301C178.879 76.2067 178.744 76.1476 178.6 76.1314C178.457 76.1153 178.312 76.1429 178.184 76.2105C178.024 76.2951 177.902 76.4367 177.842 76.6071C177.783 76.7776 177.789 76.9643 177.861 77.1302Z" fill="#407BFF"/>
<path d="M181.13 76.6704L183.285 76.462C183.679 76.4234 184.076 76.4796 184.443 76.6259C184.811 76.7721 185.138 77.0041 185.397 77.3026L187.862 80.1334C188.346 80.692 188.691 81.3584 188.866 82.077C189.041 82.7956 189.041 83.5456 188.868 84.2645L188.652 85.1698C185.146 85.7517 180.936 83.7975 180.936 83.7975L179.671 83.3736C179.41 83.2941 179.166 83.1636 178.955 82.9895C178.745 82.8154 178.57 82.6012 178.443 82.3594C178.315 82.1175 178.237 81.8528 178.212 81.5805C178.187 81.3081 178.217 81.0336 178.299 80.7728L179.104 78.2653C179.253 77.8333 179.523 77.4533 179.883 77.1705C180.242 76.8877 180.675 76.7141 181.13 76.6704Z" fill="#FABB8A"/>
<path d="M133.222 49.6781L133.079 51.8335C133.054 52.2284 133.123 52.6236 133.282 52.9861C133.441 53.3485 133.684 53.6677 133.991 53.917L136.865 56.2879C137.437 56.7571 138.114 57.0823 138.837 57.236C139.561 57.3898 140.311 57.3677 141.025 57.1716L141.923 56.9202C142.39 53.4069 140.314 49.2542 140.314 49.2542L139.847 48.004C139.759 47.7455 139.622 47.5068 139.441 47.3019C139.261 47.097 139.042 46.9299 138.797 46.8103C138.552 46.6906 138.285 46.6209 138.013 46.605C137.74 46.5892 137.467 46.6276 137.21 46.718L134.724 47.6017C134.301 47.7668 133.934 48.0505 133.668 48.4188C133.401 48.787 133.247 49.2242 133.222 49.6781Z" fill="#FABB8A"/>
<path d="M148.698 47.7302L148.619 47.4787C148.578 47.3466 148.491 47.2335 148.374 47.1597C148.257 47.086 148.117 47.0564 147.98 47.0764C142.04 48.0292 136.261 49.8016 130.809 52.3427C130.677 52.4027 130.573 52.5099 130.517 52.643C130.462 52.7762 130.458 52.9254 130.507 53.0612L130.586 53.3127C130.626 53.4457 130.713 53.5597 130.83 53.6336C130.948 53.7076 131.088 53.7365 131.225 53.715C137.163 52.7644 142.94 50.992 148.39 48.4487C148.521 48.3887 148.626 48.2819 148.683 48.1491C148.74 48.0163 148.745 47.8669 148.698 47.7302Z" fill="#407BFF"/>
<path opacity="0.7" d="M148.698 47.7302L148.619 47.4787C148.578 47.3466 148.491 47.2335 148.374 47.1597C148.257 47.086 148.117 47.0564 147.98 47.0764C142.04 48.0292 136.261 49.8016 130.809 52.3427C130.677 52.4027 130.573 52.5099 130.517 52.643C130.462 52.7762 130.458 52.9254 130.507 53.0612L130.586 53.3127C130.626 53.4457 130.713 53.5597 130.83 53.6336C130.948 53.7076 131.088 53.7365 131.225 53.715C137.163 52.7644 142.94 50.992 148.39 48.4487C148.521 48.3887 148.626 48.2819 148.683 48.1491C148.74 48.0163 148.745 47.8669 148.698 47.7302Z" fill="white"/>
<path opacity="0.7" d="M143.065 50.6184L142.347 48.2403C144.2 47.7661 146.076 47.3853 147.987 47.0764C148.124 47.0564 148.263 47.086 148.38 47.1597C148.498 47.2335 148.585 47.3466 148.626 47.4787L148.698 47.7302C148.749 47.8658 148.746 48.0158 148.69 48.1494C148.634 48.283 148.529 48.39 148.396 48.4487C146.643 49.239 144.868 49.9646 143.065 50.6184Z" fill="#407BFF"/>
<path d="M202.526 62.6678C202.741 63.2139 202.892 63.6378 203.064 64.1048C203.237 64.5718 203.373 65.0244 203.524 65.477C203.826 66.3966 204.085 67.3235 204.336 68.2431C204.832 70.0967 205.256 71.9647 205.579 73.8687C205.92 75.7705 206.16 77.6891 206.297 79.6164C206.453 81.5882 206.487 83.5677 206.398 85.5437V85.8239C206.405 85.8955 206.405 85.9678 206.398 86.0394C206.297 86.8423 206.031 87.6155 205.615 88.3098C205.169 89.0303 204.564 89.6397 203.847 90.0916C202.971 90.6444 201.966 90.9612 200.931 91.0112C199.863 91.0623 198.795 90.9484 197.762 90.6735C196.265 90.2791 194.81 89.7426 193.415 89.0713C192.132 88.4618 190.88 87.788 189.665 87.0525C188.457 86.3302 187.289 85.5436 186.166 84.6959C185.713 84.3453 185.392 83.8515 185.255 83.2951C185.118 82.7386 185.174 82.1522 185.413 81.6315C185.652 81.1107 186.061 80.6863 186.572 80.4273C187.083 80.1684 187.667 80.0902 188.228 80.2055H188.329C189.579 80.4713 190.872 80.8018 192.129 81.0892C193.387 81.3766 194.63 81.6712 195.837 81.9011C196.939 82.143 198.058 82.3038 199.185 82.3824C199.63 82.3824 200.09 82.3824 199.989 82.289C199.889 82.1956 199.68 82.21 198.962 82.6195C198.523 82.89 198.156 83.2621 197.891 83.7044C197.635 84.1048 197.469 84.5557 197.403 85.0264V85.5221C197.281 83.9128 197.108 82.3034 196.85 80.6725C196.591 79.0416 196.275 77.4035 195.894 75.7726C195.513 74.1417 195.104 72.5036 194.637 70.887C194.414 70.0752 194.163 69.2705 193.918 68.4658L193.2 66.1739L193.128 65.944C192.821 64.7279 192.98 63.4411 193.574 62.3361C194.167 61.231 195.151 60.3875 196.334 59.971C197.517 59.5545 198.813 59.595 199.968 60.0846C201.123 60.5742 202.053 61.4776 202.576 62.6175L202.526 62.6678Z" fill="#FABB8A"/>
<path d="M194.256 55.0156C198.912 55.7341 200.78 57.171 204.588 66.511C202.856 70.0028 194.766 73.3436 194.766 73.3436C194.766 73.3436 188.415 61.8338 194.256 55.0156Z" fill="#40AEB3"/>
<path d="M245.426 85.5576H243.989V239.309H245.426V85.5576Z" fill="#263238"/>
<path d="M255.808 221.771H235.547C235.372 221.77 235.199 221.81 235.042 221.887C234.885 221.964 234.747 222.077 234.641 222.216C234.534 222.355 234.462 222.517 234.428 222.689C234.395 222.861 234.401 223.039 234.448 223.208L239.528 242.031C239.594 242.272 239.737 242.485 239.935 242.637C240.134 242.789 240.377 242.871 240.627 242.872H250.757C251.007 242.872 251.249 242.79 251.447 242.638C251.644 242.486 251.786 242.272 251.849 242.031L256.922 223.2C256.967 223.031 256.973 222.853 256.938 222.681C256.903 222.508 256.829 222.347 256.721 222.208C256.613 222.07 256.474 221.958 256.316 221.882C256.157 221.806 255.984 221.768 255.808 221.771Z" fill="#1F3F82"/>
<path d="M244.971 85.7017C246.206 81.0654 278.244 79.5249 295 120.674C283.051 121.726 236.698 113.579 244.971 85.7017Z" fill="#64BD72"/>
<path d="M242.153 85.5576L295 121.39C282.378 122.468 233.413 114.121 242.153 85.5576Z" fill="#2A4F30"/>
<path d="M241.318 138.412C242.286 135.668 262.041 136.083 270.572 161.713C263.176 161.846 234.98 154.95 241.318 138.412Z" fill="#24542E"/>
<path d="M245.662 187.491C245.164 185.96 234.802 186.175 230.338 200.511C234.202 200.573 248.984 196.717 245.662 187.491Z" fill="#224054"/>
<path d="M246.144 85.6059C246.233 83.02 229.819 77.2348 214.532 95.8323C220.587 98.2136 246.055 101.252 246.144 85.6059Z" fill="#81C680"/>
<ellipse cx="254.021" cy="100.492" rx="5.21551" ry="2.98029" transform="rotate(49.7877 254.021 100.492)" fill="#64BD72"/>
<ellipse cx="262.5" cy="103.84" rx="1.63991" ry="0.937089" transform="rotate(49.7877 262.5 103.84)" fill="#64BD72"/>
<circle cx="145.874" cy="152.314" r="2.87385" fill="#152747"/>
<circle cx="22.2953" cy="120.395" r="1.78363" fill="#152747"/>
<circle cx="217.801" cy="48.3563" r="2.87385" fill="#152747"/>
<defs>
<linearGradient id="paint0_linear" x1="229.677" y1="13.377" x2="11.677" y2="158.419" gradientUnits="userSpaceOnUse">
<stop stop-color="#7455A2"/>
<stop offset="0.494792" stop-color="#5868B0"/>
<stop offset="1" stop-color="#3BBDB4"/>
</linearGradient>
</defs>
</svg>
