<svg width="83" height="92" viewBox="0 0 83 92" fill="none" xmlns="http://www.w3.org/2000/svg">
<circle cx="9.34993" cy="9.34993" r="9.34993" fill="white"/>
<circle cx="61.7098" cy="9.34993" r="9.34993" fill="white"/>
<circle cx="35.5299" cy="9.34993" r="9.34993" fill="white"/>
<circle cx="35.5296" cy="9.35019" r="5.60996" fill="#603BE6"/>
<path d="M68.914 44.1043L68.914 62.7438L68.914 62.8038C68.914 73.8968 59.7076 79.83 48.5212 79.83L40.6348 79.83C32.715 79.77 26.5251 74.3935 21.7786 61.1872C17.032 47.9808 12.3521 49.5674 12.3521 45.6542C12.3521 44.2276 13.9254 42.5476 18.6386 42.5476C26.1185 42.5476 31.2083 51.8707 31.2083 51.8707L31.2083 16.1383C31.2083 13.5584 33.3149 11.4784 35.9215 11.4784C38.5281 11.4784 40.6348 13.5584 40.6348 16.1383L40.6348 34.7778C40.6348 32.1379 42.848 30.1179 45.348 30.1179C47.9546 30.1179 50.0612 32.1979 50.0612 34.7778L50.0612 37.8844C50.0612 35.2445 52.2745 33.2245 54.7744 33.2245C57.381 33.2245 59.4876 35.3045 59.4876 37.8844L59.4876 44.0976C59.4876 41.4577 61.7009 39.4377 64.2008 39.4377C66.8108 39.4477 68.9174 41.5277 68.914 44.1043Z" fill="#F9CFA9"/>
<path d="M61.0614 40.6568L61.0614 54.9765C60.1814 54.9765 59.4914 54.2931 59.4881 53.4232L59.4881 44.1034C59.4881 42.7368 60.0847 41.4935 61.0614 40.6568Z" fill="#E7BD97"/>
<path d="M51.6311 34.4422L51.6311 51.8751C50.7511 51.8751 50.0612 51.1917 50.0578 50.3218L50.0578 37.8954C50.0612 36.5254 50.6578 35.2821 51.6311 34.4422Z" fill="#E7BD97"/>
<path d="M42.2019 31.3381C42.1186 31.4081 42.0352 31.4848 41.9586 31.5615C41.1286 32.3914 40.6286 33.5314 40.6286 34.7847L40.6286 47.2111C40.6286 47.6444 40.7986 48.0277 41.0786 48.3077C41.3619 48.591 41.7552 48.7644 42.2019 48.7644L42.2019 31.3381Z" fill="#E7BD97"/>
</svg>
