<svg width="80" height="79" viewBox="0 0 80 79" fill="none" xmlns="http://www.w3.org/2000/svg">
<path d="M46.79 34.538C46.79 38.3424 43.7056 41.4262 39.9018 41.4262C36.0975 41.4262 33.0137 38.3424 33.0137 34.538C33.0137 34.3452 33.0273 34.1666 33.041 33.9874C33.4726 33.8398 33.8638 33.5942 34.1844 33.2712C35.0036 32.4464 35.2814 31.2279 34.9007 30.1297C34.8858 30.0478 34.8579 29.9691 34.8182 29.8959C36.6754 27.8607 39.5676 27.1296 42.1683 28.0387C44.7697 28.9478 46.5773 31.3209 46.7621 34.0699C46.7856 34.2249 46.7949 34.3818 46.79 34.538Z" fill="#EEEEE9"/>
<path d="M34.185 33.2717C33.8644 33.5948 33.4731 33.8404 33.0415 33.988L34.8187 29.8965C34.8584 29.9697 34.8863 30.0484 34.9012 30.1303C35.282 31.2285 35.0041 32.447 34.185 33.2717Z" fill="#F09372"/>
<path d="M52.3008 48.6926V56.958C52.2958 58.4779 51.0649 59.7088 49.5456 59.7131C48.0282 59.702 46.8017 58.4748 46.7905 56.958V62.4683H33.0142V56.958C33.0098 58.4779 31.7789 59.7088 30.259 59.7131C28.7423 59.702 27.5151 58.4748 27.5039 56.958V48.6926C27.5039 46.41 29.3543 44.5596 31.6363 44.5596H48.1677C50.4504 44.5596 52.3008 46.41 52.3008 48.6926Z" fill="#CAFAC9"/>
<path d="M46.7905 58.3357C46.0296 58.3357 45.4126 57.7187 45.4126 56.9578V50.0696C45.4126 49.3088 46.0296 48.6924 46.7905 48.6924C47.5507 48.6924 48.1677 49.3088 48.1677 50.0696V56.9578C48.1677 57.7187 47.5507 58.3357 46.7905 58.3357Z" fill="#B4E4B3"/>
<path d="M33.0141 58.3366C32.2532 58.3366 31.6362 57.7196 31.6362 56.9588V50.0706C31.6362 49.3097 32.2532 48.6934 33.0141 48.6934C33.775 48.6934 34.3914 49.3097 34.3914 50.0706V56.9588C34.3914 57.7196 33.775 58.3366 33.0141 58.3366Z" fill="#B4E4B3"/>
<path d="M46.79 62.4688V75.5561C46.79 77.458 45.2478 79.0002 43.3459 79.0002C41.4434 79.0002 39.9018 77.458 39.9018 75.5561C39.9018 77.458 38.3596 79.0002 36.4577 79.0002C34.5559 79.0002 33.0137 77.458 33.0137 75.5561V62.4688H46.79Z" fill="black"/>
<path d="M39.9018 76.9345C39.1409 76.9345 38.5239 76.3175 38.5239 75.5566V69.3574C38.5239 68.5965 39.1409 67.9795 39.9018 67.9795C40.6627 67.9795 41.2791 68.5965 41.2791 69.3574V75.5566C41.2791 76.3175 40.6627 76.9345 39.9018 76.9345Z" fill="#303030"/>
<path d="M19.7068 34.5389C19.7068 38.3433 16.623 41.4271 12.8193 41.4271C9.01495 41.4271 5.93115 38.3433 5.93115 34.5389C5.93115 30.7352 9.01495 27.6514 12.8193 27.6514C16.623 27.6514 19.7068 30.7352 19.7068 34.5389Z" fill="#EEEEE9"/>
<path d="M25.2182 48.6926V56.958C25.2133 58.4779 23.9824 59.7088 22.4631 59.7131C20.9457 59.702 19.7191 58.4748 19.7073 56.958V62.4683H5.93166V56.958C5.92732 58.4779 4.69641 59.7088 3.17652 59.7131C1.65912 59.702 0.432549 58.4748 0.421387 56.958V48.6926C0.421387 46.41 2.27179 44.5596 4.55378 44.5596H21.0852C23.3678 44.5596 25.2182 46.41 25.2182 48.6926Z" fill="white"/>
<path d="M19.7064 58.3357C18.9461 58.3357 18.3291 57.7187 18.3291 56.9578V50.0696C18.3291 49.3088 18.9461 48.6924 19.7064 48.6924C20.4672 48.6924 21.0842 49.3088 21.0842 50.0696V56.9578C21.0842 57.7187 20.4672 58.3357 19.7064 58.3357Z" fill="#E9E9E9"/>
<path d="M5.9311 58.3357C5.17023 58.3357 4.55322 57.7187 4.55322 56.9578V50.0696C4.55322 49.3088 5.17023 48.6924 5.9311 48.6924C6.69197 48.6924 7.30836 49.3088 7.30836 50.0696V56.9578C7.30836 57.7187 6.69197 58.3357 5.9311 58.3357Z" fill="#E9E9E9"/>
<path d="M19.7068 62.4688V75.5561C19.7068 77.458 18.1653 79.0002 16.2634 79.0002C14.3609 79.0002 12.8193 77.458 12.8193 75.5561C12.8193 77.458 11.2771 79.0002 9.37523 79.0002C7.47274 79.0002 5.93115 77.458 5.93115 75.5561V62.4688H19.7068Z" fill="black"/>
<path d="M12.8193 76.9345C12.0584 76.9345 11.4414 76.3175 11.4414 75.5566V69.3574C11.4414 68.5965 12.0584 67.9795 12.8193 67.9795C13.5802 67.9795 14.1965 68.5965 14.1965 69.3574V75.5566C14.1965 76.3175 13.5802 76.9345 12.8193 76.9345Z" fill="#303030"/>
<path d="M73.7079 34.5389C73.7079 38.3433 70.6235 41.4271 66.8198 41.4271C63.0154 41.4271 59.9316 38.3433 59.9316 34.5389C59.9316 30.7352 63.0154 27.6514 66.8198 27.6514C70.6235 27.6514 73.7079 30.7352 73.7079 34.5389Z" fill="#EEEEE9"/>
<path d="M79.2182 48.6926V56.958C79.2139 58.4779 77.983 59.7088 76.4631 59.7131C74.9457 59.702 73.7191 58.4748 73.708 56.958V62.4683H59.9317V56.958C59.9273 58.4779 58.6964 59.7088 57.1765 59.7131C55.6597 59.702 54.4325 58.4748 54.4214 56.958V48.6926C54.4214 46.41 56.2718 44.5596 58.5538 44.5596H75.0852C77.3678 44.5596 79.2182 46.41 79.2182 48.6926Z" fill="white"/>
<path d="M73.7075 58.3357C72.9466 58.3357 72.3296 57.7187 72.3296 56.9578V50.0696C72.3296 49.3088 72.9466 48.6924 73.7075 48.6924C74.4683 48.6924 75.0847 49.3088 75.0847 50.0696V56.9578C75.0847 57.7187 74.4683 58.3357 73.7075 58.3357Z" fill="#E9E9E9"/>
<path d="M59.9311 58.3357C59.1702 58.3357 58.5532 57.7187 58.5532 56.9578V50.0696C58.5532 49.3088 59.1702 48.6924 59.9311 48.6924C60.692 48.6924 61.309 49.3088 61.309 50.0696V56.9578C61.309 57.7187 60.692 58.3357 59.9311 58.3357Z" fill="#E9E9E9"/>
<path d="M73.7079 62.4688V75.5561C73.7079 77.458 72.1657 79.0002 70.2639 79.0002C68.3614 79.0002 66.8198 77.458 66.8198 75.5561C66.8198 77.458 65.2776 79.0002 63.3757 79.0002C61.4738 79.0002 59.9316 77.458 59.9316 75.5561V62.4688H73.7079Z" fill="black"/>
<path d="M66.8193 76.9345C66.0584 76.9345 65.4414 76.3175 65.4414 75.5566V69.3574C65.4414 68.5965 66.0584 67.9795 66.8193 67.9795C67.5802 67.9795 68.1965 68.5965 68.1965 69.3574V75.5566C68.1965 76.3175 67.5802 76.9345 66.8193 76.9345Z" fill="#303030"/>
<path d="M71.5872 23.9039C71.586 24.9946 71.0273 26.0098 70.1052 26.5933C69.1837 27.1768 68.0278 27.2487 67.0406 26.783L45.4125 16.5339L45.454 16.5748C47.6598 18.8097 49.0934 21.692 49.5455 24.7993C49.8624 28.1057 48.402 31.205 46.7625 34.0705C46.6161 31.7892 45.3393 29.7316 43.3599 28.5876C43.6811 27.6816 43.8349 26.7247 43.8145 25.7636C43.5441 23.2689 41.948 21.1146 39.6405 20.1293C37.8081 19.2475 33.9368 17.8975 33.0141 20.6663C32.0082 23.6695 33.4822 27.1136 34.7776 29.7999C34.7913 29.8278 34.8049 29.8687 34.8186 29.8966C34.8583 29.9698 34.8862 30.0485 34.9011 30.1304C35.2818 31.2286 35.004 32.4471 34.1848 33.2718C33.8642 33.5949 33.4729 33.8405 33.0413 33.9881C31.749 34.46 30.3011 34.0017 29.5148 32.8719C29.0875 32.2524 28.5921 31.5498 28.0687 30.7784C26.6908 28.7252 25.0376 26.1772 23.3708 23.4214C22.3433 21.6566 20.9927 20.1001 19.3897 18.8345C16.8162 16.9209 13.3598 16.6945 10.5594 18.2559L7.92762 19.6884C7.76081 19.7783 7.56423 19.795 7.3844 19.7349C7.20457 19.6747 7.05698 19.5433 6.97699 19.3715C5.20038 15.4314 1.94916 8.19904 0.0615529 3.90108C-0.0153404 3.73551 -0.0203013 3.54576 0.0472904 3.37585C0.115502 3.20656 0.250066 3.07261 0.419975 3.00564C5.52594 0.963628 10.9835 -0.0570686 16.4826 0.00246173C30.9888 0.00246173 62.4537 16.9605 69.9613 21.1351C70.9684 21.6913 71.5922 22.753 71.5872 23.9039Z" fill="#F9CFA9"/>
</svg>
