<svg width="80" height="80" viewBox="0 0 80 80" fill="none" xmlns="http://www.w3.org/2000/svg">
<path d="M62.4598 49.8361C62.765 46.1416 62.2023 42.4398 60.5665 39.1128C56.3411 30.5172 57.3103 29.8934 57.1791 21.3625C57.1791 19.6194 55.7661 18.207 54.0236 18.207C52.2804 18.207 50.868 19.6194 50.868 21.3625C50.868 22.488 50.868 53.2113 50.868 53.0911C50.868 53.583 50.8156 54.0634 50.7185 54.5266V59.0688C50.7185 62.8964 47.6045 66.011 43.777 66.011C41.2349 66.011 32.4684 66.011 26.5034 66.011C29.1566 69.7012 32.787 72.5912 37.0002 74.3411C37.0265 74.3514 37.0527 74.3624 37.079 74.3734C39.6138 75.4446 41.5492 77.4642 42.5685 79.913C50.7771 79.3691 58.2789 76.2399 64.264 71.329L61.9124 62.6895C61.5767 61.4547 61.4583 60.1711 61.5626 58.8961L62.4598 49.8361Z" fill="#F9CFA9"/>
<path d="M14.7829 18.3172L13.8216 17.4267C12.3403 16.0534 10.0045 16.1425 8.63179 17.6244C7.25911 19.1058 7.34822 21.4416 8.82955 22.8143L14.7829 28.3306V18.3172Z" fill="#F9CFA9"/>
<path d="M46.347 0H19.3604C16.7419 0 14.6118 2.13074 14.6118 4.74915V61.6211C14.6118 64.2395 16.7419 66.3702 19.3604 66.3702H46.347C48.9655 66.3702 51.0962 64.2395 51.0962 61.6211V4.74915C51.0962 2.13074 48.9655 0 46.347 0V0Z" fill="#3D4EC6"/>
<path d="M23.7556 3.52173C23.4987 3.13965 23.3485 2.68005 23.3485 2.18506C23.3485 1.21338 23.9271 0.378418 24.7572 0H19.3605C16.7378 0 14.6113 2.12646 14.6113 4.74915V61.6211C14.6113 64.2438 16.7378 66.3696 19.3605 66.3696H25.0978V7.68372C25.0978 6.19019 24.5894 4.76135 23.7556 3.52173Z" fill="#2B3894"/>
<path d="M17.3611 29.9961V61.6208C17.3611 62.7256 18.2565 63.621 19.3606 63.621H46.3473C47.4514 63.621 48.3468 62.7256 48.3468 61.6208C48.3468 60.5356 48.3468 44.6934 48.3468 29.9961H17.3611Z" fill="#E6F7FE"/>
<path d="M17.3611 29.9961V61.6208C17.3611 62.7256 18.2565 63.621 19.3606 63.621H24.0908V29.9961H17.3611Z" fill="#D5F1FE"/>
<path d="M28.2307 39.5359C28.2307 41.2662 26.8281 42.6688 25.0978 42.6688C23.3674 42.6688 21.9648 41.2662 21.9648 39.5359C21.9648 37.8055 23.3674 36.4023 25.0978 36.4023C26.8281 36.4023 28.2307 37.8055 28.2307 39.5359Z" fill="#3D4EC6"/>
<path d="M28.2307 51.1544C28.2307 52.8848 26.8281 54.288 25.0978 54.288C23.3674 54.288 21.9648 52.8848 21.9648 51.1544C21.9648 49.4241 23.3674 48.0215 25.0978 48.0215C26.8281 48.0215 28.2307 49.4241 28.2307 51.1544Z" fill="#3D4EC6"/>
<path d="M24.7438 36.4238C23.1801 36.6002 21.9648 37.9253 21.9648 39.536C21.9648 41.2664 23.3674 42.6689 25.0978 42.6689C26.1769 42.6689 27.1278 42.1233 27.6912 41.2932C24.9897 41.5978 23.2698 38.5948 24.7438 36.4238Z" fill="#2B3894"/>
<path d="M24.7438 48.041C23.1801 48.2168 21.9648 49.5425 21.9648 51.1526C21.9648 52.8835 23.3674 54.2861 25.0978 54.2861C26.1769 54.2861 27.1278 53.7405 27.6912 52.9104C25.0062 53.2125 23.26 50.2261 24.7438 48.041Z" fill="#2B3894"/>
<path d="M37.9011 38.2334H33.4529C32.8059 38.2334 32.281 37.7085 32.281 37.0615C32.281 36.4139 32.8059 35.8896 33.4529 35.8896H37.9011C38.5481 35.8896 39.073 36.4139 39.073 37.0615C39.073 37.7085 38.5481 38.2334 37.9011 38.2334Z" fill="#11DFEF"/>
<path d="M42.3494 43.1816H33.4529C32.8053 43.1816 32.281 42.6567 32.281 42.0098C32.281 41.3622 32.8053 40.8379 33.4529 40.8379H42.3494C42.9963 40.8379 43.5212 41.3622 43.5212 42.0098C43.5212 42.6567 42.9963 43.1816 42.3494 43.1816Z" fill="#11DFEF"/>
<path d="M37.9011 49.8516H33.4529C32.8059 49.8516 32.281 49.3273 32.281 48.6797C32.281 48.0321 32.8059 47.5078 33.4529 47.5078H37.9011C38.5481 47.5078 39.073 48.0321 39.073 48.6797C39.073 49.3273 38.5481 49.8516 37.9011 49.8516Z" fill="#11DFEF"/>
<path d="M42.3494 54.7998H33.4529C32.8053 54.7998 32.281 54.2755 32.281 53.6279C32.281 52.981 32.8053 52.4561 33.4529 52.4561H42.3494C42.9963 52.4561 43.5212 52.981 43.5212 53.6279C43.5212 54.2755 42.9963 54.7998 42.3494 54.7998Z" fill="#11DFEF"/>
<path d="M46.3314 2.75H42.3208C41.9424 2.75 41.636 3.0564 41.636 3.4342C41.636 4.3418 40.8938 5.08398 39.9868 5.08398H25.6906C24.783 5.08398 24.0408 4.3418 24.0408 3.4342C24.0408 3.0564 23.7344 2.75 23.356 2.75H19.3453C18.2406 2.75 17.3452 3.64539 17.3452 4.74951V30.3092H48.3315V4.74951C48.3315 3.64539 47.4362 2.75 46.3314 2.75Z" fill="#F948B4"/>
<path d="M24.0908 3.82971C24.0591 3.70276 24.0408 3.57092 24.0408 3.43481C24.0408 3.0564 23.7344 2.75 23.356 2.75H19.3453C18.2406 2.75 17.3452 3.64539 17.3452 4.74951V30.3092H24.0908V3.82971Z" fill="#E00E8B"/>
<path d="M46.3311 2.75H42.3204C41.942 2.75 41.6356 3.0564 41.6356 3.4342C41.6356 4.3418 40.8934 5.08398 39.9865 5.08398H32.1013L48.3312 25.4282V4.74951C48.3312 3.64539 47.4358 2.75 46.3311 2.75Z" fill="#FC7ACD"/>
<path d="M27.7998 12.0635H22.3958C21.7488 12.0635 21.2239 11.5392 21.2239 10.8916C21.2239 10.244 21.7488 9.71973 22.3958 9.71973H27.7998C28.4468 9.71973 28.9717 10.244 28.9717 10.8916C28.9717 11.5386 28.4468 12.0635 27.7998 12.0635Z" fill="#FC7ACD"/>
<path d="M20.1275 37.6869C18.9197 38.99 16.8835 39.0681 15.5798 37.8602L10.1898 32.8657C8.88609 31.6578 8.80858 29.6217 10.0165 28.318C11.2243 27.0143 13.2605 26.9368 14.5642 28.1446L19.9542 33.1391C21.2573 34.347 21.3354 36.3832 20.1275 37.6869Z" fill="#F9CFA9"/>
<path d="M19.9545 33.1382L17.3904 30.7627C17.7279 31.9852 17.4478 33.3475 16.5231 34.3455C15.5978 35.344 14.2605 35.7267 13.0166 35.4838L15.5801 37.8593C16.8838 39.0671 18.9193 38.989 20.1278 37.6859C21.3357 36.3822 21.2576 34.3461 19.9545 33.1382Z" fill="#FBBC8D"/>
<path d="M20.1275 46.4626C18.9197 47.7663 16.8835 47.8439 15.5798 46.636L10.1898 41.6415C8.88609 40.4336 8.80858 38.3974 10.0165 37.0943C11.2243 35.7906 13.2605 35.7131 14.5642 36.921L19.9542 41.9155C21.2573 43.1234 21.3354 45.1589 20.1275 46.4626Z" fill="#F9CFA9"/>
<path d="M20.1275 55.2406C18.9197 56.5443 16.8835 56.6218 15.5798 55.4139L10.1898 50.4194C8.88609 49.2115 8.80858 47.1754 10.0165 45.8717C11.2243 44.568 13.2605 44.4905 14.5642 45.6983L19.9542 50.6929C21.2573 51.9007 21.3354 53.9369 20.1275 55.2406Z" fill="#F9CFA9"/>
<path d="M61.9121 62.6891C61.7455 62.0751 61.6326 61.4495 61.5734 60.8184C55.6102 70.6084 44.0331 75.1549 33.1584 72.3278C34.3712 73.1072 35.656 73.7822 37 74.3407C37.0262 74.3517 37.0525 74.3627 37.0787 74.3737C39.6135 75.4442 41.549 77.4639 42.5682 79.9132C50.7769 79.3694 58.2787 76.2395 64.2638 71.3286L61.9121 62.6891Z" fill="#FBBC8D"/>
<path d="M19.9545 41.9155L17.3904 39.54C17.7279 40.762 17.4478 42.1243 16.5231 43.1228C15.5978 44.1213 14.2605 44.504 13.0166 44.2611L15.5801 46.636C16.8838 47.8439 18.9199 47.7664 20.1278 46.4626C21.3357 45.1589 21.2576 43.1234 19.9545 41.9155Z" fill="#FBBC8D"/>
<path d="M19.9545 50.6929L17.3904 48.3174C17.7279 49.5399 17.4478 50.9022 16.5231 51.9001C15.5978 52.8987 14.2605 53.282 13.0166 53.0385L15.5801 55.4139C16.8838 56.6218 18.9199 56.5443 20.1278 55.2406C21.3357 53.9369 21.2576 51.9008 19.9545 50.6929Z" fill="#FBBC8D"/>
</svg>
