<svg width="60" height="60" viewBox="0 0 60 60" fill="none" xmlns="http://www.w3.org/2000/svg">
<g clip-path="url(#clip0)">
<path d="M0.189805 5.50439L4.19133 12.5066C4.3263 12.7433 4.55222 12.9144 4.81641 12.9807L8.54963 13.914L21.3538 26.7181L22.7685 25.3038L9.76399 12.2997C9.63601 12.1713 9.47552 12.0803 9.29981 12.0363L5.71268 11.1363L2.30579 5.17107L5.22668 2.25017L11.1944 5.66036L12.0948 9.24749C12.1384 9.42361 12.2298 9.58451 12.3577 9.71249L25.3623 22.717L26.7766 21.3023L13.9725 8.49813L13.0392 4.76697C12.9729 4.50237 12.8018 4.27604 12.5651 4.14065L5.56248 0.139539C5.17195 -0.0826758 4.68061 -0.0168342 4.3621 0.30044L0.360993 4.30196C0.0391928 4.61841 -0.0307638 5.11058 0.189805 5.50439Z" fill="url(#paint0_linear)"/>
<path d="M41.7791 19.7151L19.7719 41.7227L18.3572 40.3079L40.3647 18.3008L41.7791 19.7151Z" fill="url(#paint1_linear)"/>
<path d="M15.9202 42.5008C15.7392 42.1996 15.4141 42.0156 15.0627 42.0156H9.06078C8.70977 42.0156 8.38426 42.1996 8.20361 42.5008L5.20247 47.5023C5.01194 47.8191 5.01194 48.2154 5.20247 48.5327L8.20361 53.5342C8.38426 53.835 8.70977 54.0194 9.06078 54.0194H15.0627C15.4141 54.0194 15.7392 53.835 15.9202 53.5342L18.921 48.5327C19.1115 48.2154 19.1115 47.8191 18.921 47.5023L15.9202 42.5008ZM14.4968 52.0186H9.62702L7.22627 48.0175L9.62702 44.016H14.4968L16.8976 48.0175L14.4968 52.0186Z" fill="url(#paint2_linear)"/>
<path d="M48.0736 24.0099C54.6804 24.0321 60.0548 18.694 60.077 12.0873C60.0803 11.0815 59.9568 10.0799 59.7095 9.10504C59.5762 8.56884 59.0334 8.24252 58.4972 8.37585C58.3211 8.41988 58.1606 8.51082 58.0322 8.6388L51.8052 14.8617L46.8646 13.2152L45.2169 8.27585L51.4439 2.04765C51.8344 1.65672 51.834 1.0234 51.4431 0.632879C51.3143 0.504076 51.1522 0.412721 50.9748 0.369101C44.5676 -1.25348 38.0587 2.625 36.4361 9.03179C36.1897 10.0038 36.0666 11.0029 36.0699 12.0058C36.0724 12.7934 36.1534 13.5786 36.3131 14.3497L14.4056 36.2569C13.6344 36.0976 12.8492 36.0165 12.062 36.0137C5.43218 36.0137 0.0578613 41.388 0.0578613 48.0178C0.0578613 54.6472 5.43218 60.0216 12.062 60.0216C18.6914 60.0216 24.0658 54.6472 24.0658 48.0178C24.0633 47.2302 23.9818 46.445 23.8226 45.6739L29.0672 40.4292L31.361 42.7229C31.7519 43.1134 32.3848 43.1134 32.7758 42.7229L33.2758 42.2225C33.7144 41.7867 34.4235 41.7867 34.8621 42.2225C35.3004 42.6595 35.3012 43.369 34.8642 43.8073C34.8638 43.8077 34.8629 43.8085 34.8621 43.8093L34.3621 44.3093C33.9716 44.6998 33.9716 45.3331 34.3621 45.7237L46.2951 57.6566C49.4337 60.824 54.5455 60.847 57.7129 57.7085C60.8798 54.5699 60.9029 49.4577 57.7643 46.2907C57.7474 46.2734 57.7301 46.2561 57.7129 46.2389L45.7799 34.3063C45.3894 33.9158 44.7561 33.9158 44.3655 34.3063L43.8655 34.8063C43.4265 35.2425 42.7178 35.2425 42.2788 34.8063C41.8409 34.3693 41.8397 33.6598 42.2767 33.222C42.2775 33.2212 42.2784 33.2207 42.2788 33.2199L42.7792 32.7195C43.1697 32.329 43.1697 31.6957 42.7792 31.3052L40.4854 29.0114L45.7301 23.7667C46.5013 23.926 47.2864 24.0075 48.0736 24.0099ZM52.004 58.0212C51.2773 58.02 50.5567 57.8887 49.8765 57.6332L57.689 49.8202C58.868 52.9563 57.2816 56.4542 54.1455 57.6332C53.4611 57.8903 52.7356 58.022 52.004 58.0212ZM40.6714 32.0224C39.5636 33.3438 39.7373 35.3133 41.0586 36.4207C42.2199 37.3939 43.9125 37.393 45.0725 36.4178L56.2985 47.6536C56.4203 47.7759 56.5343 47.9047 56.6446 48.0355L48.0918 56.5883C47.9605 56.4785 47.8317 56.3645 47.7095 56.2422L36.4748 45.0068C37.5826 43.6854 37.409 41.716 36.0876 40.6086C34.9263 39.635 33.2334 39.6362 32.0733 40.6111L30.473 39.0107L39.0706 30.4258L40.6714 32.0224ZM44.7108 21.9614L22.0181 44.6496C21.7691 44.8982 21.6691 45.2591 21.7539 45.6002C23.1263 50.9897 19.8696 56.4715 14.4796 57.8434C9.09009 59.2158 3.60837 55.9591 2.23598 50.5692C0.864009 45.1796 4.1207 39.6979 9.51065 38.3255C11.1411 37.9107 12.8492 37.9107 14.4796 38.3255C14.8208 38.4091 15.1808 38.3091 15.4302 38.0618L38.1176 15.3732C38.3661 15.1246 38.4661 14.7637 38.3805 14.423C37.0176 9.0964 40.2307 3.67352 45.5573 2.31019C46.5638 2.053 47.6049 1.95424 48.6419 2.01884L43.3652 7.29769C43.0973 7.56517 43.0034 7.96146 43.1232 8.3207L45.1235 14.323C45.2235 14.6213 45.4581 14.8559 45.7568 14.9551L51.7591 16.9558C52.118 17.0756 52.5143 16.9822 52.7821 16.7147L58.0589 11.4379C58.0709 11.6288 58.077 11.8177 58.077 12.0058C58.105 17.5023 53.6722 21.9808 48.1757 22.0092C47.3259 22.0133 46.479 21.9088 45.656 21.6981C45.3149 21.6129 44.954 21.7125 44.7054 21.961L44.7108 21.9614Z" fill="url(#paint3_linear)"/>
<path d="M51.783 50.3116L50.3682 51.7263L40.3652 41.7234L41.7796 40.3086L51.783 50.3116Z" fill="url(#paint4_linear)"/>
</g>
<defs>
<linearGradient id="paint0_linear" x1="0.0620117" y1="13.3635" x2="26.7766" y2="13.3635" gradientUnits="userSpaceOnUse">
<stop stop-color="#AC32E4"/>
<stop offset="0.48" stop-color="#7918F2"/>
<stop offset="1" stop-color="#4801FF"/>
</linearGradient>
<linearGradient id="paint1_linear" x1="18.3572" y1="30.0117" x2="41.7791" y2="30.0117" gradientUnits="userSpaceOnUse">
<stop stop-color="#AC32E4"/>
<stop offset="0.48" stop-color="#7918F2"/>
<stop offset="1" stop-color="#4801FF"/>
</linearGradient>
<linearGradient id="paint2_linear" x1="5.05957" y1="48.0175" x2="19.0639" y2="48.0175" gradientUnits="userSpaceOnUse">
<stop stop-color="#AC32E4"/>
<stop offset="0.48" stop-color="#7918F2"/>
<stop offset="1" stop-color="#4801FF"/>
</linearGradient>
<linearGradient id="paint3_linear" x1="0.0578613" y1="30.0237" x2="60.1032" y2="30.0237" gradientUnits="userSpaceOnUse">
<stop stop-color="#AC32E4"/>
<stop offset="0.48" stop-color="#7918F2"/>
<stop offset="1" stop-color="#4801FF"/>
</linearGradient>
<linearGradient id="paint4_linear" x1="40.3652" y1="46.0175" x2="51.783" y2="46.0175" gradientUnits="userSpaceOnUse">
<stop stop-color="#AC32E4"/>
<stop offset="0.48" stop-color="#7918F2"/>
<stop offset="1" stop-color="#4801FF"/>
</linearGradient>
<clipPath id="clip0">
<rect width="60" height="60" fill="white"/>
</clipPath>
</defs>
</svg>
