<svg width="66" height="60" viewBox="0 0 66 60" fill="none" xmlns="http://www.w3.org/2000/svg">
<path d="M8 17.25C8 17.1837 8.02634 17.1201 8.07322 17.0732C8.12011 17.0263 8.1837 17 8.25 17H10V20H12V8H55C55.2652 8 55.5196 7.89464 55.7071 7.70711C55.8946 7.51957 56 7.26522 56 7V1C56 0.734784 55.8946 0.48043 55.7071 0.292893C55.5196 0.105357 55.2652 0 55 0H50V2H54V6H12V2H50.5V0H11C10.7348 0 10.4804 0.105357 10.2929 0.292893C10.1054 0.48043 10 0.734784 10 1V15H8.25C7.65348 15.0007 7.08158 15.238 6.65978 15.6598C6.23797 16.0816 6.00069 16.6535 6 17.25V20H8V17.25Z" fill="url(#paint0_linear)"/>
<path d="M58 42H8V38H6V47.75C6.00069 48.3465 6.23797 48.9184 6.65978 49.3402C7.08158 49.762 7.65348 49.9993 8.25 50H12V48H8.25C8.1837 48 8.12011 47.9737 8.07322 47.9268C8.02634 47.8799 8 47.8163 8 47.75V44H58V47.75C58 47.8163 57.9737 47.8799 57.9268 47.9268C57.8799 47.9737 57.8163 48 57.75 48H11V50H27V51.8232C27.0017 52.4747 26.7714 53.1054 26.3503 53.6025C25.9293 54.0995 25.345 54.4304 24.7021 54.5358L23.9246 54.6654C23.1064 54.7995 22.3627 55.2206 21.8268 55.8532C21.2909 56.4858 20.9978 57.2886 21 58.1177V59C21 59.2652 21.1054 59.5196 21.2929 59.7071C21.4804 59.8946 21.7348 60 22 60H44C44.2652 60 44.5196 59.8946 44.7071 59.7071C44.8946 59.5196 45 59.2652 45 59V58.1177C45.0022 57.2886 44.709 56.4858 44.173 55.8532C43.637 55.2205 42.8933 54.7995 42.075 54.6655L41.2975 54.5359C40.6547 54.4304 40.0705 54.0995 39.6495 53.6024C39.2285 53.1054 38.9982 52.4746 39 51.8232V50H57.75C58.3465 49.9993 58.9184 49.762 59.3402 49.3402C59.762 48.9184 59.9993 48.3465 60 47.75V26H58V42ZM40.9691 56.5086L41.7466 56.6382C42.0773 56.6924 42.3802 56.8561 42.6067 57.103C42.8332 57.35 42.9701 57.6659 42.9955 58H23.0045C23.0299 57.6659 23.1668 57.35 23.3933 57.103C23.6198 56.8561 23.9227 56.6924 24.2534 56.6382L25.031 56.5086C26.1414 56.3266 27.1506 55.7551 27.8779 54.8965C28.6052 54.0379 29.003 52.9484 29 51.8232V50H37V51.8232C36.997 52.9485 37.3948 54.038 38.1221 54.8965C38.8494 55.7551 39.8587 56.3266 40.9691 56.5086Z" fill="url(#paint1_linear)"/>
<path d="M10 39C10 39.2652 10.1054 39.5196 10.2929 39.7071C10.4804 39.8946 10.7348 40 11 40H55C55.2652 40 55.5196 39.8946 55.7071 39.7071C55.8946 39.5196 56 39.2652 56 39V26H54V38H10V39Z" fill="url(#paint2_linear)"/>
<path d="M33 12C30.8244 12 28.6977 12.6451 26.8887 13.8538C25.0798 15.0625 23.6699 16.7805 22.8373 18.7905C22.0048 20.8005 21.7869 23.0122 22.2114 25.146C22.6358 27.2798 23.6835 29.2398 25.2218 30.7782C26.7602 32.3166 28.7202 33.3642 30.854 33.7886C32.9878 34.2131 35.1995 33.9952 37.2095 33.1627C39.2195 32.3301 40.9375 30.9202 42.1462 29.1113C43.3549 27.3023 44 25.1756 44 23C43.9967 20.0836 42.8367 17.2877 40.7745 15.2255C38.7123 13.1633 35.9164 12.0033 33 12ZM33 27C32.2089 27 31.4355 26.7654 30.7777 26.3259C30.1199 25.8864 29.6072 25.2616 29.3045 24.5307C29.0017 23.7998 28.9225 22.9956 29.0769 22.2196C29.2312 21.4437 29.6122 20.731 30.1716 20.1716C30.731 19.6122 31.4437 19.2312 32.2196 19.0769C32.9956 18.9225 33.7998 19.0017 34.5307 19.3045C35.2616 19.6072 35.8864 20.1199 36.3259 20.7777C36.7654 21.4355 37 22.2089 37 23C36.9988 24.0605 36.577 25.0772 35.8271 25.8271C35.0772 26.577 34.0605 26.9988 33 27ZM32 14.0551V17.0834C30.7723 17.2931 29.6401 17.8787 28.7594 18.7594C27.8787 19.6401 27.2931 20.7723 27.0834 22H24.0551C24.2851 19.9721 25.196 18.0822 26.6391 16.6391C28.0822 15.196 29.9721 14.2851 32 14.0551ZM24.0551 24H27.0834C27.2931 25.2277 27.8787 26.3599 28.7594 27.2406C29.6401 28.1213 30.7723 28.7069 32 28.9166V31.9449C29.9721 31.7149 28.0822 30.804 26.6391 29.3609C25.196 27.9178 24.2851 26.0279 24.0551 24ZM34 31.9449V28.9166C35.3982 28.6802 36.6674 27.9563 37.5827 26.8732C38.4979 25.7902 39.0001 24.418 39.0001 23C39.0001 21.582 38.4979 20.2098 37.5827 19.1268C36.6674 18.0437 35.3982 17.3198 34 17.0834V14.0551C36.2002 14.3012 38.2326 15.3495 39.7085 16.9996C41.1844 18.6498 42.0004 20.7861 42.0004 23C42.0004 25.2139 41.1844 27.3502 39.7085 29.0004C38.2326 30.6505 36.2002 31.6988 34 31.9449Z" fill="url(#paint3_linear)"/>
<path d="M14 3H16V5H14V3Z" fill="url(#paint4_linear)"/>
<path d="M18 3H20V5H18V3Z" fill="url(#paint5_linear)"/>
<path d="M22 3H24V5H22V3Z" fill="url(#paint6_linear)"/>
<path d="M50 3H52V5H50V3Z" fill="url(#paint7_linear)"/>
<path d="M16 35V33.5L19.6 30.8C19.7435 30.6924 19.8554 30.5482 19.924 30.3825C19.9926 30.2167 20.0154 30.0356 19.9899 29.8581C19.9645 29.6805 19.8918 29.5131 19.7794 29.3733C19.667 29.2336 19.5191 29.1266 19.3511 29.0636L16 27.807V23C16 22.7348 15.8946 22.4804 15.7071 22.2929C15.5196 22.1054 15.2652 22 15 22H1C0.734784 22 0.48043 22.1054 0.292893 22.2929C0.105357 22.4804 0 22.7348 0 23V35C0 35.2652 0.105357 35.5196 0.292893 35.7071C0.48043 35.8946 0.734784 36 1 36H15C15.2652 36 15.5196 35.8946 15.7071 35.7071C15.8946 35.5196 16 35.2652 16 35ZM14 33V34H2V24H14V28.5C14 28.7036 14.0621 28.9023 14.1781 29.0696C14.294 29.2369 14.4583 29.3649 14.6489 29.4364L16.9396 30.2954L14.4 32.2C14.2758 32.2931 14.175 32.4139 14.1056 32.5528C14.0361 32.6916 14 32.8448 14 33Z" fill="url(#paint8_linear)"/>
<path d="M4 29H6V32H4V29Z" fill="url(#paint9_linear)"/>
<path d="M7 26H9V32H7V26Z" fill="url(#paint10_linear)"/>
<path d="M10 28H12V32H10V28Z" fill="url(#paint11_linear)"/>
<path d="M65 10H51C50.7348 10 50.4805 10.1054 50.2929 10.2929C50.1054 10.4804 50 10.7348 50 11V12.5L46.4 15.2C46.2566 15.3076 46.1446 15.4518 46.076 15.6175C46.0074 15.7833 45.9847 15.9644 46.0101 16.1419C46.0356 16.3195 46.1083 16.4869 46.2207 16.6267C46.3331 16.7664 46.481 16.8734 46.6489 16.9364L50 18.193V23C50 23.2652 50.1054 23.5196 50.2929 23.7071C50.4805 23.8946 50.7348 24 51 24H65C65.2653 24 65.5196 23.8946 65.7071 23.7071C65.8947 23.5196 66 23.2652 66 23V11C66 10.7348 65.8947 10.4804 65.7071 10.2929C65.5196 10.1054 65.2653 10 65 10ZM64 22H52V17.5C52.0001 17.2964 51.9379 17.0977 51.822 16.9304C51.706 16.7631 51.5418 16.6351 51.3512 16.5636L49.0604 15.7046L51.6 13.8C51.7242 13.7069 51.825 13.5861 51.8945 13.4472C51.9639 13.3084 52 13.1552 52 13V12H64V22Z" fill="url(#paint12_linear)"/>
<path d="M57.0001 17.4146L58.293 18.7075C58.3943 18.8088 58.5162 18.8872 58.6504 18.9373C58.7846 18.9874 58.9281 19.0081 59.071 18.9979C59.2139 18.9877 59.353 18.947 59.4788 18.8784C59.6045 18.8098 59.7141 18.715 59.8001 18.6004L62.8001 14.6004L61.2001 13.4004L58.8918 16.478L57.7072 15.2933C57.6144 15.2004 57.5041 15.1267 57.3828 15.0765C57.2615 15.0262 57.1314 15.0004 57.0001 15.0004C56.8688 15.0004 56.7387 15.0262 56.6174 15.0765C56.4961 15.1267 56.3858 15.2004 56.293 15.2933L53.293 18.2933L54.7072 19.7075L57.0001 17.4146Z" fill="url(#paint13_linear)"/>
<defs>
<linearGradient id="paint0_linear" x1="6" y1="10" x2="56" y2="10" gradientUnits="userSpaceOnUse">
<stop stop-color="#AC32E4"/>
<stop offset="0.48" stop-color="#7918F2"/>
<stop offset="1" stop-color="#4801FF"/>
</linearGradient>
<linearGradient id="paint1_linear" x1="6" y1="43" x2="60" y2="43" gradientUnits="userSpaceOnUse">
<stop stop-color="#AC32E4"/>
<stop offset="0.48" stop-color="#7918F2"/>
<stop offset="1" stop-color="#4801FF"/>
</linearGradient>
<linearGradient id="paint2_linear" x1="10" y1="33" x2="56" y2="33" gradientUnits="userSpaceOnUse">
<stop stop-color="#AC32E4"/>
<stop offset="0.48" stop-color="#7918F2"/>
<stop offset="1" stop-color="#4801FF"/>
</linearGradient>
<linearGradient id="paint3_linear" x1="22" y1="23" x2="44" y2="23" gradientUnits="userSpaceOnUse">
<stop stop-color="#AC32E4"/>
<stop offset="0.48" stop-color="#7918F2"/>
<stop offset="1" stop-color="#4801FF"/>
</linearGradient>
<linearGradient id="paint4_linear" x1="14" y1="4" x2="16" y2="4" gradientUnits="userSpaceOnUse">
<stop stop-color="#AC32E4"/>
<stop offset="0.48" stop-color="#7918F2"/>
<stop offset="1" stop-color="#4801FF"/>
</linearGradient>
<linearGradient id="paint5_linear" x1="18" y1="4" x2="20" y2="4" gradientUnits="userSpaceOnUse">
<stop stop-color="#AC32E4"/>
<stop offset="0.48" stop-color="#7918F2"/>
<stop offset="1" stop-color="#4801FF"/>
</linearGradient>
<linearGradient id="paint6_linear" x1="22" y1="4" x2="24" y2="4" gradientUnits="userSpaceOnUse">
<stop stop-color="#AC32E4"/>
<stop offset="0.48" stop-color="#7918F2"/>
<stop offset="1" stop-color="#4801FF"/>
</linearGradient>
<linearGradient id="paint7_linear" x1="50" y1="4" x2="52" y2="4" gradientUnits="userSpaceOnUse">
<stop stop-color="#AC32E4"/>
<stop offset="0.48" stop-color="#7918F2"/>
<stop offset="1" stop-color="#4801FF"/>
</linearGradient>
<linearGradient id="paint8_linear" x1="0" y1="29" x2="20" y2="29" gradientUnits="userSpaceOnUse">
<stop stop-color="#AC32E4"/>
<stop offset="0.48" stop-color="#7918F2"/>
<stop offset="1" stop-color="#4801FF"/>
</linearGradient>
<linearGradient id="paint9_linear" x1="4" y1="30.5" x2="6" y2="30.5" gradientUnits="userSpaceOnUse">
<stop stop-color="#AC32E4"/>
<stop offset="0.48" stop-color="#7918F2"/>
<stop offset="1" stop-color="#4801FF"/>
</linearGradient>
<linearGradient id="paint10_linear" x1="7" y1="29" x2="9" y2="29" gradientUnits="userSpaceOnUse">
<stop stop-color="#AC32E4"/>
<stop offset="0.48" stop-color="#7918F2"/>
<stop offset="1" stop-color="#4801FF"/>
</linearGradient>
<linearGradient id="paint11_linear" x1="10" y1="30" x2="12" y2="30" gradientUnits="userSpaceOnUse">
<stop stop-color="#AC32E4"/>
<stop offset="0.48" stop-color="#7918F2"/>
<stop offset="1" stop-color="#4801FF"/>
</linearGradient>
<linearGradient id="paint12_linear" x1="46" y1="17" x2="66" y2="17" gradientUnits="userSpaceOnUse">
<stop stop-color="#AC32E4"/>
<stop offset="0.48" stop-color="#7918F2"/>
<stop offset="1" stop-color="#4801FF"/>
</linearGradient>
<linearGradient id="paint13_linear" x1="53.293" y1="16.554" x2="62.8001" y2="16.554" gradientUnits="userSpaceOnUse">
<stop stop-color="#AC32E4"/>
<stop offset="0.48" stop-color="#7918F2"/>
<stop offset="1" stop-color="#4801FF"/>
</linearGradient>
</defs>
</svg>
