<svg width="60" height="60" viewBox="0 0 60 60" fill="none" xmlns="http://www.w3.org/2000/svg">
<path d="M54.7331 40.3125H54.5962C53.8519 40.3125 53.1778 39.9741 52.7184 39.4181C54.2766 38.4169 55.3125 36.6731 55.3125 34.6875V32.8125C55.3125 29.7103 52.7897 27.1875 49.6875 27.1875C46.5853 27.1875 44.0625 29.7103 44.0625 32.8125V34.6875C44.0625 36.6731 45.0984 38.4169 46.6566 39.4181C46.1962 39.9741 45.5222 40.3125 44.7788 40.3125H44.6419C42.4528 40.3125 40.6575 41.9512 40.3706 44.0625H30.9375V30.9375H41.25C41.7684 30.9375 42.1875 30.5175 42.1875 30V23.385C42.1875 20.3128 39.6872 17.8125 36.615 17.8125C35.205 17.8125 33.9384 17.0297 33.3084 15.7687L33.0216 15.195C35.1216 14.0991 36.5625 11.9044 36.5625 9.375V7.5C36.5625 3.88125 33.6178 0.9375 30 0.9375C26.3822 0.9375 23.4375 3.88125 23.4375 7.5V9.375C23.4375 11.9044 24.8784 14.0991 26.9794 15.195L26.6925 15.7697C26.0625 17.0297 24.795 17.8125 23.385 17.8125C20.3128 17.8125 17.8125 20.3128 17.8125 23.385V30C17.8125 30.5175 18.2316 30.9375 18.75 30.9375H29.0625V44.0625H19.6294C19.3425 41.9512 17.5472 40.3125 15.3581 40.3125H15.2213C14.4769 40.3125 13.8028 39.9741 13.3434 39.4181C14.9016 38.4169 15.9375 36.6731 15.9375 34.6875V32.8125C15.9375 29.7103 13.4147 27.1875 10.3125 27.1875C7.21031 27.1875 4.6875 29.7103 4.6875 32.8125V34.6875C4.6875 36.6731 5.72344 38.4169 7.28156 39.4181C6.82125 39.9741 6.14719 40.3125 5.40375 40.3125H5.26688C2.87906 40.3125 0.9375 42.255 0.9375 44.6419V48.75C0.9375 49.2675 1.35656 49.6875 1.875 49.6875H9.375V53.4375H3.75C3.23156 53.4375 2.8125 53.8575 2.8125 54.375V59.0625H4.6875V55.3125H15.9375V59.0625H17.8125V54.375C17.8125 53.8575 17.3934 53.4375 16.875 53.4375H11.25V49.6875H18.75C19.2684 49.6875 19.6875 49.2675 19.6875 48.75V45.9375H40.3125V48.75C40.3125 49.2675 40.7316 49.6875 41.25 49.6875H48.75V53.4375H43.125C42.6066 53.4375 42.1875 53.8575 42.1875 54.375V59.0625H44.0625V55.3125H55.3125V59.0625H57.1875V54.375C57.1875 53.8575 56.7684 53.4375 56.25 53.4375H50.625V49.6875H58.125C58.6434 49.6875 59.0625 49.2675 59.0625 48.75V44.6419C59.0625 42.255 57.1209 40.3125 54.7331 40.3125ZM25.3125 9.375V7.5C25.3125 4.91531 27.4153 2.8125 30 2.8125C32.5847 2.8125 34.6875 4.91531 34.6875 7.5V9.375C34.6875 11.9597 32.5847 14.0625 30 14.0625C27.4153 14.0625 25.3125 11.9597 25.3125 9.375ZM30 15.9375C30.4228 15.9375 30.8344 15.8934 31.2356 15.8175L31.6313 16.6069C31.9238 17.1919 32.3156 17.6981 32.7675 18.1331C32.0737 18.5231 31.2984 18.75 30.4828 18.75H29.5181C28.7016 18.75 27.9263 18.5231 27.2334 18.1331C27.6863 17.6981 28.0772 17.1919 28.3697 16.6069L28.7653 15.8166C29.1656 15.8934 29.5772 15.9375 30 15.9375ZM19.6875 23.385C19.6875 21.3469 21.3469 19.6875 23.385 19.6875C24.135 19.6875 24.855 19.5337 25.5187 19.2591C26.6616 20.1412 28.0509 20.625 29.5172 20.625H30.4819C31.9481 20.625 33.3375 20.1412 34.4803 19.2591C35.1441 19.5337 35.865 19.6875 36.615 19.6875C38.6531 19.6875 40.3125 21.3469 40.3125 23.385V29.0625H36.5625V23.4375H34.6875V29.0625H25.3125V23.4375H23.4375V29.0625H19.6875V23.385ZM6.5625 32.8125C6.5625 30.7444 8.24437 29.0625 10.3125 29.0625C12.3806 29.0625 14.0625 30.7444 14.0625 32.8125V34.6875C14.0625 36.7556 12.3806 38.4375 10.3125 38.4375C8.24437 38.4375 6.5625 36.7556 6.5625 34.6875V32.8125ZM10.3125 40.3125C10.7447 40.3125 11.1637 40.2591 11.5688 40.1663C11.8538 40.6191 12.2128 41.0063 12.6281 41.3184C11.9831 41.865 11.1609 42.1875 10.3125 42.1875C9.46406 42.1875 8.64187 41.865 7.99687 41.3184C8.41219 41.0063 8.77125 40.6191 9.05625 40.1663C9.46125 40.2591 9.88031 40.3125 10.3125 40.3125ZM17.8125 47.8125H15.9375V45.9375H14.0625V47.8125H6.5625V45.9375H4.6875V47.8125H2.8125V44.6419C2.8125 43.2881 3.91406 42.1875 5.26688 42.1875H5.40375C5.64469 42.1875 5.88 42.1622 6.11156 42.1247L6.44906 42.4622C7.46625 43.4794 8.87437 44.0625 10.3125 44.0625C11.7506 44.0625 13.1588 43.4794 14.1759 42.4622L14.5134 42.1247C14.7459 42.1622 14.9812 42.1875 15.2213 42.1875H15.3581C16.7109 42.1875 17.8125 43.2881 17.8125 44.6419V47.8125ZM45.9375 32.8125C45.9375 30.7444 47.6194 29.0625 49.6875 29.0625C51.7556 29.0625 53.4375 30.7444 53.4375 32.8125V34.6875C53.4375 36.7556 51.7556 38.4375 49.6875 38.4375C47.6194 38.4375 45.9375 36.7556 45.9375 34.6875V32.8125ZM49.6875 40.3125C50.1197 40.3125 50.5387 40.2591 50.9437 40.1663C51.2287 40.6191 51.5878 41.0063 52.0031 41.3184C51.3581 41.865 50.5359 42.1875 49.6875 42.1875C48.8391 42.1875 48.0169 41.865 47.3719 41.3184C47.7872 41.0063 48.1463 40.6191 48.4313 40.1663C48.8363 40.2591 49.2553 40.3125 49.6875 40.3125ZM57.1875 47.8125H55.3125V45.9375H53.4375V47.8125H45.9375V45.9375H44.0625V47.8125H42.1875V44.6419C42.1875 43.2881 43.2891 42.1875 44.6419 42.1875H44.7788C45.0197 42.1875 45.255 42.1622 45.4866 42.1247L45.8241 42.4622C46.8413 43.4794 48.2494 44.0625 49.6875 44.0625C51.1256 44.0625 52.5337 43.4794 53.5509 42.4622L53.8884 42.1247C54.1209 42.1622 54.3563 42.1875 54.5962 42.1875H54.7331C56.0859 42.1875 57.1875 43.2881 57.1875 44.6419V47.8125Z" fill="url(#paint0_linear)"/>
<defs>
<linearGradient id="paint0_linear" x1="0.9375" y1="30" x2="59.0625" y2="30" gradientUnits="userSpaceOnUse">
<stop stop-color="#AC32E4"/>
<stop offset="0.48" stop-color="#7918F2"/>
<stop offset="1" stop-color="#4801FF"/>
</linearGradient>
</defs>
</svg>
