<svg width="81" height="60" viewBox="0 0 81 60" fill="none" xmlns="http://www.w3.org/2000/svg">
<path d="M56.2713 29.8427L53.3784 26.9497C53.8607 26.0896 54.2548 25.1865 54.5568 24.2499H58.8048C59.4578 24.2499 59.9869 23.7208 59.9869 23.0678V16.2343C59.9869 15.5813 59.4578 15.0522 58.8048 15.0522H54.5566C54.2546 14.1158 53.8606 13.2127 53.3783 12.3526L56.2711 9.45954C56.7328 8.99789 56.7328 8.24954 56.2711 7.78804L51.8286 3.34521C51.6068 3.1236 51.3063 2.99909 50.9926 2.99909C50.679 2.99909 50.3786 3.1236 50.1566 3.34521L47.1519 6.35012C46.4379 5.98383 45.6965 5.67632 44.9344 5.43029V1.18211C44.9344 0.529112 44.4053 0 43.7523 0H37.4696C36.8166 0 36.2875 0.529112 36.2875 1.18211V5.27252C35.3402 5.53967 34.4234 5.89998 33.5463 6.35012L30.5415 3.34521C30.3198 3.1236 30.0192 2.99909 29.7055 2.99909C29.3919 2.99909 29.0915 3.1236 28.8695 3.34521L24.427 7.78804C23.9654 8.24969 23.9654 8.99805 24.427 9.45954L27.3199 12.3526C26.8376 13.2127 26.4435 14.1158 26.1416 15.0522H21.8935C21.2405 15.0522 20.7114 15.5813 20.7114 16.2343V23.0678C20.7114 23.7208 21.2405 24.2499 21.8935 24.2499H26.1416C26.4435 25.1865 26.8376 26.0896 27.3199 26.9497L24.427 29.8427C23.9654 30.3044 23.9654 31.0527 24.427 31.5144L28.8695 35.9569C29.3312 36.4182 30.0797 36.4185 30.5412 35.9569L33.5461 32.9521C34.4231 33.4021 35.3401 33.7626 36.2874 34.0297V38.1201C36.2874 38.7731 36.8165 39.3023 37.4695 39.3023H43.7521C44.4051 39.3023 44.9342 38.7731 44.9342 38.1201V33.872C45.6963 33.6259 46.4377 33.3184 47.1517 32.9521L50.1566 35.9569C50.6181 36.4184 51.3666 36.4184 51.8283 35.9569L56.2708 31.5144C56.7328 31.0527 56.7328 30.3044 56.2713 29.8427ZM50.9928 33.4492L48.1948 30.6514C47.8126 30.2694 47.2198 30.1947 46.7552 30.4711C45.7248 31.0833 44.6163 31.5431 43.4605 31.8376C42.9368 31.9711 42.5703 32.4427 42.5703 32.9832V36.938H38.6517V33.105C38.6517 32.5471 38.2616 32.0651 37.716 31.9489C36.3852 31.6652 35.1158 31.1681 33.943 30.4713C33.4783 30.1948 32.8854 30.2694 32.5033 30.6516L29.7054 33.4494L26.9347 30.6787L29.6456 27.9676C30.04 27.5732 30.1051 26.9568 29.8015 26.4887C29.0587 25.3428 28.5116 24.0937 28.176 22.7761C28.0425 22.2523 27.571 21.8859 27.0305 21.8859H23.0756V17.4165H27.0308C27.5713 17.4165 28.0429 17.0501 28.1764 16.5263C28.5122 15.2088 29.0592 13.9598 29.8018 12.8139C30.1054 12.3458 30.0403 11.7293 29.646 11.335L26.935 8.62387L29.7057 5.85301L32.5035 8.65098C32.8857 9.03304 33.4783 9.10743 33.9433 8.83129C35.116 8.13448 36.3854 7.63736 37.7163 7.35366C38.2619 7.23749 38.652 6.75551 38.652 6.19756V2.36453H42.5705V6.31939C42.5705 6.85985 42.9369 7.33143 43.4607 7.46493C44.6165 7.75951 45.725 8.21928 46.7553 8.83145C47.2196 9.10775 47.8126 9.0332 48.1951 8.65114L50.9929 5.85317L53.7636 8.62403L51.0527 11.3352C50.6583 11.7295 50.5932 12.3459 50.8968 12.814C51.6396 13.9599 52.1866 15.2088 52.5223 16.5265C52.6558 17.0503 53.1273 17.4167 53.6678 17.4167H57.6227V21.886H53.6677C53.1272 21.886 52.6556 22.2525 52.5221 22.7762C52.1864 24.0937 51.6393 25.343 50.8966 26.4888C50.5931 26.9569 50.6582 27.5734 51.0525 27.9677L53.7635 30.6789L50.9928 33.4492Z" fill="url(#paint0_linear)"/>
<path d="M40.3494 13.6914C40.0462 13.6914 39.7418 13.7144 39.4449 13.7598C38.7994 13.8583 38.3562 14.4614 38.4547 15.1068C38.5532 15.7524 39.1567 16.1954 39.8017 16.0969C39.9811 16.0695 40.1653 16.0556 40.3496 16.0556C42.3314 16.0556 43.944 17.668 43.944 19.65C43.944 21.632 42.3316 23.2444 40.3496 23.2444C38.3676 23.2444 36.7552 21.632 36.7552 19.65C36.7552 19.4647 36.7692 19.279 36.7971 19.0985C36.8962 18.4533 36.4535 17.8497 35.8084 17.7504C35.1633 17.6507 34.5596 18.0937 34.4603 18.7392C34.4143 19.0382 34.3911 19.3447 34.3911 19.6499C34.3911 22.9355 37.0641 25.6085 40.3497 25.6085C43.6354 25.6085 46.3083 22.9355 46.3083 19.6499C46.3083 16.3642 43.635 13.6914 40.3494 13.6914Z" fill="url(#paint1_linear)"/>
<path d="M73.5339 49.2656C73.5339 47.297 71.9322 45.6953 69.9636 45.6953C67.995 45.6953 66.3933 47.297 66.3933 49.2656C66.3933 51.2342 67.995 52.8359 69.9636 52.8359C71.9322 52.8359 73.5339 51.2342 73.5339 49.2656ZM68.7574 49.2656C68.7574 48.6005 69.2985 48.0595 69.9634 48.0595C70.6284 48.0595 71.1695 48.6006 71.1695 49.2656C71.1695 49.9306 70.6284 50.4717 69.9634 50.4717C69.2985 50.4717 68.7574 49.9306 68.7574 49.2656Z" fill="url(#paint2_linear)"/>
<path d="M79.5164 45.6951H77.5071C76.6808 43.9461 75.2829 42.5482 73.5338 41.7218V39.7124C73.5338 39.0594 73.0047 38.5303 72.3517 38.5303H67.5752C66.9222 38.5303 66.3931 39.0594 66.3931 39.7124V41.8143C66.0733 42.1422 65.9606 42.6413 66.1468 43.0916C66.3959 43.695 67.0871 43.9818 67.6906 43.7328C67.7826 43.6948 67.8756 43.659 67.9699 43.6256C68.4418 43.4584 68.7573 43.012 68.7573 42.5115V40.8945H71.1696V42.5115C71.1696 43.012 71.4848 43.4582 71.9566 43.6255C73.6421 44.2233 75.0055 45.5867 75.6033 47.2724C75.7707 47.7441 76.2169 48.0593 76.7173 48.0593H78.3343V50.4716H76.7173C76.2167 50.4716 75.7705 50.7868 75.6033 51.2586C75.0055 52.9441 73.6423 54.3075 71.9566 54.9053C71.4848 55.0727 71.1696 55.5189 71.1696 56.0193V57.6363H68.7573V56.0193C68.7573 55.5187 68.4421 55.0725 67.9704 54.9053C66.2848 54.3075 64.9213 52.9443 64.3235 51.2586C64.1561 50.7868 63.7099 50.4716 63.2095 50.4716H61.5925V48.0593H63.2095C63.7104 48.0593 64.1567 47.7438 64.3238 47.2717C64.3589 47.1724 64.3968 47.0744 64.437 46.9778C64.6872 46.3747 64.4013 45.683 63.7983 45.4327C63.3404 45.2423 62.8305 45.3621 62.5022 45.6951H60.4104C59.7574 45.6951 59.2283 46.2242 59.2283 46.8772V51.6537C59.2283 52.3067 59.7574 52.8358 60.4104 52.8358H62.4198C63.2462 54.5849 64.6441 55.9828 66.3931 56.8091V58.8184C66.3931 59.4714 66.9222 60.0005 67.5752 60.0005H72.3517C73.0047 60.0005 73.5338 59.4714 73.5338 58.8184V56.809C75.2827 55.9828 76.6808 54.5847 77.507 52.8358H79.5164C80.1694 52.8358 80.6985 52.3067 80.6985 51.6537V46.8772C80.6985 46.2244 80.1694 45.6951 79.5164 45.6951Z" fill="url(#paint3_linear)"/>
<path d="M20.2881 45.6951H18.2789C17.4525 43.9461 16.0544 42.548 14.3054 41.7217V39.7124C14.3054 39.0594 13.7763 38.5303 13.1233 38.5303H8.34679C7.69379 38.5303 7.16468 39.0594 7.16468 39.7124V41.7218C5.41563 42.5482 4.01775 43.9461 3.19138 45.6951H1.18211C0.529112 45.6951 0 46.2242 0 46.8772V51.6537C0 52.3067 0.529112 52.8358 1.18211 52.8358H3.19153C4.01775 54.5847 5.41579 55.9828 7.16468 56.809V58.8184C7.16468 59.4714 7.69379 60.0005 8.34679 60.0005H13.1233C13.7763 60.0005 14.3054 59.4714 14.3054 58.8184V56.8091C16.0544 55.9828 17.4523 54.5849 18.2787 52.8358H20.2881C20.9411 52.8358 21.4702 52.3067 21.4702 51.6537V46.8772C21.4702 46.2244 20.941 45.6951 20.2881 45.6951ZM19.106 50.4716H17.4891C16.9885 50.4716 16.5423 50.7868 16.375 51.2586C15.7772 52.9441 14.4138 54.3075 12.7282 54.9053C12.2564 55.0727 11.9412 55.5189 11.9412 56.0193V57.6363H9.52889V56.0193C9.52889 55.5187 9.21367 55.0725 8.74193 54.9053C7.0564 54.3075 5.69303 52.9441 5.0952 51.2586C4.92781 50.7868 4.48161 50.4716 3.98118 50.4716H2.36422V48.0593H3.98118C4.48177 48.0593 4.92797 47.7441 5.0952 47.2724C5.69303 45.5868 7.05624 44.2233 8.74193 43.6255C9.21367 43.4581 9.52889 43.0119 9.52889 42.5115V40.8945H11.9412V42.5115C11.9412 43.012 12.2564 43.4582 12.7282 43.6255C14.4137 44.2233 15.7772 45.5867 16.375 47.2724C16.5424 47.7441 16.9886 48.0593 17.4891 48.0593H19.106V50.4716Z" fill="url(#paint4_linear)"/>
<path d="M10.7351 45.6943C8.76647 45.6943 7.16479 47.296 7.16479 49.2646C7.16479 51.2332 8.76647 52.8349 10.7351 52.8349C12.7037 52.8349 14.3054 51.2332 14.3054 49.2646C14.3054 47.296 12.7038 45.6943 10.7351 45.6943ZM10.7351 50.4708C10.0699 50.4708 9.52901 49.9297 9.52901 49.2648C9.52901 48.5998 10.0701 48.0587 10.7351 48.0587C11.4001 48.0587 11.9411 48.5998 11.9411 49.2648C11.9411 49.9297 11.4002 50.4708 10.7351 50.4708Z" fill="url(#paint5_linear)"/>
<path d="M25.2856 35.4559C25.2269 34.8589 24.7074 34.3906 24.1093 34.3906H20.2881C19.6351 34.3906 19.106 34.9197 19.106 35.5727C19.106 36.2257 19.6351 36.7548 20.2881 36.7548H21.2554L17.86 40.15C17.3982 40.6118 17.3982 41.3602 17.8599 41.8217C18.0908 42.0526 18.3933 42.1679 18.6959 42.1679C18.9983 42.1679 19.301 42.0526 19.5317 41.8218L22.9272 38.4265V39.3938C22.9272 40.0468 23.4563 40.5759 24.1093 40.5759C24.7623 40.5759 25.2914 40.0468 25.2914 39.3938V35.5732C25.2914 35.534 25.2894 35.4949 25.2856 35.4559Z" fill="url(#paint6_linear)"/>
<path d="M61.1667 41.8218C61.3974 42.0526 61.7 42.1679 62.0025 42.1679C62.305 42.1679 62.6076 42.0526 62.8385 41.8217C63.3002 41.36 63.3002 40.6117 62.8383 40.15L59.443 36.7548H60.4103C61.0633 36.7548 61.5924 36.2257 61.5924 35.5727C61.5924 34.9197 61.0633 34.3906 60.4103 34.3906H56.5891C55.9467 34.3906 55.4067 34.9289 55.407 35.5732V39.3938C55.407 40.0468 55.9361 40.5759 56.5891 40.5759C57.2421 40.5759 57.7712 40.0468 57.7712 39.3938V38.4265L61.1667 41.8218Z" fill="url(#paint7_linear)"/>
<defs>
<linearGradient id="paint0_linear" x1="20.7114" y1="19.6511" x2="59.9869" y2="19.6511" gradientUnits="userSpaceOnUse">
<stop stop-color="#AC32E4"/>
<stop offset="0.48" stop-color="#7918F2"/>
<stop offset="1" stop-color="#4801FF"/>
</linearGradient>
<linearGradient id="paint1_linear" x1="34.3911" y1="19.6499" x2="46.3083" y2="19.6499" gradientUnits="userSpaceOnUse">
<stop stop-color="#AC32E4"/>
<stop offset="0.48" stop-color="#7918F2"/>
<stop offset="1" stop-color="#4801FF"/>
</linearGradient>
<linearGradient id="paint2_linear" x1="66.3933" y1="49.2656" x2="73.5339" y2="49.2656" gradientUnits="userSpaceOnUse">
<stop stop-color="#AC32E4"/>
<stop offset="0.48" stop-color="#7918F2"/>
<stop offset="1" stop-color="#4801FF"/>
</linearGradient>
<linearGradient id="paint3_linear" x1="59.2283" y1="49.2654" x2="80.6985" y2="49.2654" gradientUnits="userSpaceOnUse">
<stop stop-color="#AC32E4"/>
<stop offset="0.48" stop-color="#7918F2"/>
<stop offset="1" stop-color="#4801FF"/>
</linearGradient>
<linearGradient id="paint4_linear" x1="0" y1="49.2654" x2="21.4702" y2="49.2654" gradientUnits="userSpaceOnUse">
<stop stop-color="#AC32E4"/>
<stop offset="0.48" stop-color="#7918F2"/>
<stop offset="1" stop-color="#4801FF"/>
</linearGradient>
<linearGradient id="paint5_linear" x1="7.16479" y1="49.2646" x2="14.3054" y2="49.2646" gradientUnits="userSpaceOnUse">
<stop stop-color="#AC32E4"/>
<stop offset="0.48" stop-color="#7918F2"/>
<stop offset="1" stop-color="#4801FF"/>
</linearGradient>
<linearGradient id="paint6_linear" x1="17.5137" y1="38.2793" x2="25.2914" y2="38.2793" gradientUnits="userSpaceOnUse">
<stop stop-color="#AC32E4"/>
<stop offset="0.48" stop-color="#7918F2"/>
<stop offset="1" stop-color="#4801FF"/>
</linearGradient>
<linearGradient id="paint7_linear" x1="55.407" y1="38.2793" x2="63.1847" y2="38.2793" gradientUnits="userSpaceOnUse">
<stop stop-color="#AC32E4"/>
<stop offset="0.48" stop-color="#7918F2"/>
<stop offset="1" stop-color="#4801FF"/>
</linearGradient>
</defs>
</svg>
