<svg width="111" height="60" viewBox="0 0 111 60" fill="none" xmlns="http://www.w3.org/2000/svg">
<g clip-path="url(#clip0)">
<path d="M85.5604 55.1264H85.5577C82.424 55.1344 79.3206 54.5543 76.4257 53.4206C73.5308 52.2871 70.903 50.6227 68.6914 48.5256C66.4799 46.4285 64.7285 43.9402 63.5344 41.2044C62.3405 38.469 61.7266 35.5382 61.7266 32.5799C61.7266 29.6216 62.3405 26.691 63.5344 23.9554C64.7285 21.2197 66.4799 18.7313 68.6914 16.6342C70.903 14.5372 73.5308 12.8728 76.4257 11.7392C79.3206 10.6055 82.424 10.0255 85.5577 10.0334H85.5605C86.0221 10.0334 86.4825 10.0474 86.9416 10.0723L88.2467 10.1433L88.0379 8.85312L87.0984 3.0459L97.7868 13.2086L97.8761 13.2936L97.9828 13.3556C102.404 15.9277 105.811 19.7965 107.695 24.3647C109.578 28.9321 109.839 33.9562 108.441 38.676C107.043 43.3966 104.059 47.5642 99.9294 50.5378C95.7994 53.512 90.7537 55.126 85.5604 55.1264Z" stroke="url(#paint0_linear)" stroke-width="2.10526"/>
<path d="M21.5507 51.3749L22.4417 56.8811L12.1916 47.1354L12.1022 47.0504L11.9956 46.9884C7.73023 44.5071 4.44462 40.7754 2.62782 36.3691C0.811432 31.964 0.558978 27.1183 1.90713 22.5661C3.25553 18.013 6.13456 13.9931 10.1178 11.1247C14.1019 8.25574 18.9695 6.69867 23.9797 6.69824C30.0769 6.69826 35.9144 9.00176 40.2104 13.0865C44.5046 17.1695 46.9066 22.6956 46.9066 28.4458C46.9066 34.196 44.5046 39.7221 40.2104 43.805C35.9144 47.8898 30.0768 50.1933 23.9796 50.1933C23.5341 50.1933 23.0902 50.1799 22.6471 50.1558L21.3419 50.0847L21.5507 51.3749Z" stroke="url(#paint1_linear)" stroke-width="2.10526"/>
<path d="M30.936 35.7936L24.2215 21.7485C24.1148 21.5253 23.9428 21.336 23.726 21.2033C23.5093 21.0706 23.2568 21 22.999 21C22.7411 21 22.4887 21.0706 22.2719 21.2033C22.0552 21.336 21.8831 21.5253 21.7765 21.7485L15.0621 35.7936C14.9146 36.102 14.9021 36.4532 15.0271 36.7703C15.1521 37.0875 15.4046 37.3443 15.7287 37.4845C16.053 37.6247 16.4225 37.6366 16.756 37.5177C17.0895 37.3988 17.3596 37.1588 17.5071 36.8506L18.9806 33.7685H27.0174L28.4908 36.8506C28.6383 37.1588 28.9084 37.3988 29.2419 37.5177C29.5755 37.6366 29.9449 37.6247 30.2692 37.4845C30.5934 37.3443 30.8458 37.0875 30.9709 36.7703C31.0959 36.4532 31.0834 36.102 30.936 35.7936ZM20.2013 31.2147L22.999 25.3625L25.7967 31.2147H20.2013Z" fill="url(#paint2_linear)"/>
<path d="M94.3759 24.2043V26.2016H91.6069V41H89.2464V34.0093L86.1143 33.9867C86.2656 34.4254 86.3412 34.8869 86.3412 35.3711C86.3412 36.6876 85.9175 37.7468 85.0702 38.5487C84.2228 39.3506 83.1031 39.7517 81.711 39.7517C80.7123 39.7517 79.8196 39.5549 79.0328 39.1616C78.2611 38.7681 77.6558 38.2234 77.2171 37.5274C76.7933 36.8162 76.5815 36.0067 76.5815 35.0988H78.8058C78.8058 35.8554 79.0555 36.4833 79.5548 36.9826C80.0693 37.4668 80.7351 37.7089 81.5521 37.7089C82.3541 37.7089 82.9896 37.4744 83.4587 37.0054C83.9278 36.5363 84.1623 35.9159 84.1623 35.1442C84.1623 34.7054 84.0791 34.3195 83.9127 33.9867H83.8673V33.8732C83.383 33.0107 82.5281 32.5794 81.3025 32.5794H80.3719V30.6502H81.3025C82.1347 30.6502 82.7778 30.4308 83.2318 29.992C83.7008 29.5381 83.9353 29.0009 83.9353 28.3805C83.9353 27.6693 83.7008 27.1019 83.2318 26.6782C82.7778 26.2394 82.2028 26.0201 81.5068 26.0201C80.7805 26.0201 80.1676 26.2319 79.6683 26.6556C79.1841 27.0641 78.942 27.6164 78.942 28.3124H76.7404C76.7404 27.4499 76.9371 26.6933 77.3305 26.0427C77.7391 25.3921 78.3064 24.8927 79.0328 24.5447C79.7591 24.1815 80.5837 24 81.5068 24C82.8686 24 83.9656 24.3707 84.7978 25.1121C85.6452 25.8535 86.0688 26.8371 86.0688 28.0628C86.0688 28.9252 85.8418 29.6666 85.3879 30.287C84.934 30.8923 84.2758 31.3084 83.4133 31.5354V31.5808C83.837 31.6716 84.2304 31.8229 84.5936 32.0348H89.2464V24.2043H94.3759Z" fill="url(#paint3_linear)"/>
</g>
<defs>
<linearGradient id="paint0_linear" x1="85.527" y1="3.0459" x2="85.527" y2="55.1265" gradientUnits="userSpaceOnUse">
<stop stop-color="#AC32E4"/>
<stop offset="0.526042" stop-color="#7918F2"/>
<stop offset="1" stop-color="#4801FF"/>
</linearGradient>
<linearGradient id="paint1_linear" x1="23.9797" y1="6.69824" x2="23.9797" y2="56.8811" gradientUnits="userSpaceOnUse">
<stop stop-color="#AC32E4"/>
<stop offset="0.526042" stop-color="#7918F2"/>
<stop offset="1" stop-color="#4801FF"/>
</linearGradient>
<linearGradient id="paint2_linear" x1="14.9417" y1="29.2995" x2="31.0564" y2="29.2995" gradientUnits="userSpaceOnUse">
<stop stop-color="#AC32E4"/>
<stop offset="0.48" stop-color="#7918F2"/>
<stop offset="1" stop-color="#4801FF"/>
</linearGradient>
<linearGradient id="paint3_linear" x1="76.5815" y1="32.5" x2="94.3759" y2="32.5" gradientUnits="userSpaceOnUse">
<stop stop-color="#AC32E4"/>
<stop offset="0.48" stop-color="#7918F2"/>
<stop offset="1" stop-color="#4801FF"/>
</linearGradient>
<clipPath id="clip0">
<rect width="110.526" height="60" fill="white"/>
</clipPath>
</defs>
</svg>
