<svg width="49" height="35" viewBox="0 0 49 35" fill="none" xmlns="http://www.w3.org/2000/svg">
<path d="M33.3641 14.1822C28.7936 13.7364 24.1812 14.2091 19.7917 15.573C15.4022 16.9369 11.3223 19.1652 7.78627 22.1299L7.35619 22.5622C6.00725 23.9286 5.24951 25.7813 5.24951 27.7129C5.24951 29.6446 6.00725 31.4972 7.35619 32.8636C8.81764 12.6164 33.3641 14.1822 33.3641 14.1822Z" fill="#004D79"/>
<path d="M35.7808 8.5074C29.9645 7.94074 24.0949 8.54246 18.5089 10.278C12.923 12.0135 7.73076 14.8486 3.23032 18.6206L2.6851 19.1724C1.7082 20.1603 0.964678 21.3591 0.510183 22.6789C0.0556886 23.9988 -0.0979927 25.4056 0.0605918 26.7941C0.219176 28.1825 0.685919 29.5167 1.42595 30.6968C2.16597 31.8769 3.16009 32.8724 4.33392 33.6087C5.50776 34.345 6.8309 34.803 8.20437 34.9487C9.57784 35.0942 10.9661 34.9236 12.2652 34.4495C13.5643 33.9753 14.7406 33.21 15.7062 32.2107C16.6717 31.2114 17.4015 30.0041 17.8409 28.679L18.2877 27.6988C20.7333 22.3319 28.2699 22.3319 30.7164 27.6988L31.1593 28.6759C31.598 30.0014 32.3271 31.2092 33.2923 32.209C34.2574 33.2088 35.4335 33.9748 36.7324 34.4495C38.0314 34.9242 39.4196 35.0954 40.7932 34.9503C42.1668 34.8052 43.4902 34.3475 44.6643 33.6115C45.8384 32.8755 46.8328 31.8803 47.5731 30.7003C48.3134 29.5203 48.7804 28.1861 48.9392 26.7976C49.098 25.409 48.9444 24.0021 48.49 22.6822C48.0356 21.3622 47.2921 20.1634 46.3151 19.1754L35.7808 8.5074ZM26.4157 20.7382C26.0364 21.1211 25.5534 21.3816 25.0279 21.4869C24.5023 21.5921 23.9578 21.5374 23.463 21.3295C22.9681 21.1217 22.5453 20.7701 22.2478 20.3191C21.9503 19.8682 21.7915 19.3381 21.7915 18.7959C21.7915 18.2536 21.9503 17.7236 22.2478 17.2726C22.5453 16.8217 22.9681 16.47 23.463 16.2622C23.9578 16.0544 24.5023 15.9996 25.0279 16.1049C25.5534 16.2101 26.0364 16.4706 26.4157 16.8535C26.6682 17.1083 26.8685 17.4111 27.0051 17.7444C27.1418 18.0777 27.2122 18.435 27.2122 18.7959C27.2122 19.1567 27.1418 19.514 27.0051 19.8473C26.8685 20.1806 26.6682 20.4834 26.4157 20.7382Z" fill="white"/>
<path d="M33.0786 5.77165L29.4087 2.05728C28.1064 0.739972 26.3405 0 24.4993 0C22.6581 0 20.8922 0.739972 19.5899 2.05728L6.68188 15.1228C14.1167 8.95408 23.4657 5.64216 33.0786 5.77165Z" fill="white"/>
<path opacity="0.2" d="M35.7814 8.5066C29.9649 7.93961 24.095 8.54134 18.509 10.2772C12.923 12.0131 7.73084 14.8489 3.23085 18.6218L2.68467 19.1716C0.967699 20.9106 0.00317383 23.2683 0.00317383 25.7268C0.00317383 28.1852 0.967699 30.543 2.68467 32.2819C4.5447 6.51344 35.7853 8.5066 35.7853 8.5066" fill="#4643C0"/>
</svg>
