<svg width="99" height="60" viewBox="0 0 99 60" fill="none" xmlns="http://www.w3.org/2000/svg">
<g clip-path="url(#clip0)">
<path d="M96.3335 29.667H70.6668C69.3782 29.667 68.3335 30.7117 68.3335 32.0003V57.667C68.3335 58.9556 69.3782 60.0003 70.6668 60.0003H96.3335C97.6221 60.0003 98.6668 58.9556 98.6668 57.667V32.0003C98.6668 30.7117 97.6221 29.667 96.3335 29.667ZM96.3335 57.667H70.6668V32.0003H96.3335V57.667Z" fill="url(#paint0_linear)"/>
<path d="M63.6668 25.0003H89.3335V27.3337H91.6668V25.0003C91.6668 23.7117 90.6221 22.667 89.3335 22.667H63.6668C62.3782 22.667 61.3335 23.7117 61.3335 25.0003V50.667C61.3335 51.9556 62.3782 53.0003 63.6668 53.0003H66.0002V50.667H63.6668V25.0003Z" fill="url(#paint1_linear)"/>
<path d="M74.1669 51.8334H92.8335C93.4778 51.8371 94.0032 51.3178 94.007 50.6735C94.0088 50.36 93.8844 50.0591 93.6619 49.8384L88.9952 45.1717C88.5401 44.7193 87.8053 44.7193 87.3502 45.1717L85.8335 46.6884L81.9952 42.85C81.5401 42.3976 80.8053 42.3976 80.3502 42.85L73.3502 49.85C72.8992 50.3101 72.9064 51.0488 73.3665 51.4998C73.5806 51.7097 73.8671 51.8291 74.1669 51.8334Z" fill="url(#paint2_linear)"/>
<path d="M89.3333 42.4997C90.622 42.4997 91.6667 41.455 91.6667 40.1663C91.6667 38.8777 90.622 37.833 89.3333 37.833C88.0447 37.833 87 38.8777 87 40.1663C87 41.455 88.0447 42.4997 89.3333 42.4997Z" fill="url(#paint3_linear)"/>
</g>
<path d="M35 0H5.00004C2.24367 0 0 2.24238 0 5.00004V55.0001C0 57.7576 2.24367 60 5.00004 60H35C37.7564 60 40.0001 57.7576 40.0001 55V5.00004C40.0001 2.24238 37.7564 0 35 0ZM37.5 55C37.5 56.3781 36.3793 57.4999 35 57.4999H5.00004C3.62062 57.4999 2.50008 56.3781 2.50008 55V49.9999H3.75012H36.2501H37.5001L37.5 55ZM17.0142 37.0324C15.6812 35.6994 15.0709 33.7182 15.0586 33.2739C15.0586 32.7416 14.7241 32.2863 14.2554 32.1056C13.8843 31.4415 13.5156 29.2638 13.5108 28.6315C13.5108 28.3971 13.5816 28.1005 13.6523 27.9381C14.0821 27.8844 14.4898 27.6756 14.6534 27.2777C14.8462 26.8102 14.812 26.3695 14.4532 26.013C14.2579 25.526 14.2725 23.43 14.2799 22.4217L14.2848 21.6673C14.2848 20.1828 15.7618 19.1074 16.1305 19.0477C16.4943 19.0477 16.8679 18.8548 17.107 18.5789C17.1437 18.535 18.0641 17.4998 20.7741 17.4998C24.6877 17.4998 26.9093 19.9535 27.2218 21.9615L26.8532 22.3289C26.6188 22.5633 26.487 22.8819 26.487 23.2139C26.487 24.564 25.9376 25.5674 25.6886 25.8177C25.3321 26.1753 25.2247 26.7124 25.4175 27.18C25.5811 27.5743 25.9327 27.8538 26.3428 27.9307C26.4161 28.0918 26.4868 28.3934 26.4868 28.6302C26.4819 29.265 26.1109 31.4537 25.7398 32.1116C25.2807 32.2959 24.9537 32.7525 24.939 33.2713C24.9268 33.7035 24.297 35.72 22.9859 37.0323C22.6758 37.3435 22.5513 37.794 22.6562 38.2188L23.4301 41.3146C23.5693 41.8712 24.0697 42.2618 24.6435 42.2618H25.5224C26.4355 43.6302 27.7978 44.6702 29.3578 45.1903L31.787 46.0021C32.3705 46.195 33.0224 46.6966 33.7377 47.4998H6.26226C6.97758 46.6966 7.62949 46.195 8.21297 46.0008L10.6421 45.1902C12.2023 44.6701 13.5646 43.6314 14.4776 42.2617H15.3565C15.9302 42.2617 16.4307 41.8711 16.5698 41.3144L17.3437 38.2187C17.4487 37.793 17.3243 37.3425 17.0142 37.0324ZM37.5 47.5H36.8954C35.8477 46.0019 34.3832 44.2298 32.5781 43.6303L30.1489 42.8197C29.1114 42.4731 28.208 41.7821 27.5977 40.8703L27.2265 40.3161C26.9946 39.9695 26.6064 39.7619 26.1889 39.7619H25.6201L25.2442 38.2617C26.3672 36.9152 27.0874 35.2295 27.3389 34.0662C28.8745 32.6904 28.9869 28.6805 28.9869 28.6316C28.9869 27.793 28.7525 26.9482 28.296 26.3403C28.6353 25.6311 28.8966 24.7412 28.9673 23.7512L29.3946 23.3264C29.629 23.092 29.7608 22.7734 29.7608 22.4414C29.7608 18.8623 26.3257 15 20.7739 15C17.7929 15 16.2061 16.0254 15.5273 16.6309C13.8599 17.0667 11.7846 19.1565 11.7846 21.6675L11.7797 22.4036C11.7675 24.071 11.7821 25.249 11.914 26.0913C11.3183 26.7029 11.0107 27.6709 11.0107 28.6316C11.0107 28.6805 11.123 32.6904 12.6587 34.0662C12.9102 35.2295 13.6304 36.9165 14.7559 38.2617L14.38 39.7619H13.8087C13.3911 39.7619 13.0005 39.9707 12.7686 40.3198L12.4 40.8728C11.792 41.7821 10.8887 42.4731 9.85113 42.8198L7.42195 43.6291C5.6168 44.2297 4.15242 46.0021 3.10465 47.5H2.50008V5.00004C2.50008 3.62191 3.62074 2.50008 5.00004 2.50008H35C36.3794 2.50008 37.5 3.62191 37.5 5.00004V47.5Z" fill="url(#paint4_linear)"/>
<path d="M23.75 52.5H16.25C15.5591 52.5 15 53.0591 15 53.75C15 54.441 15.5591 55.0001 16.25 55.0001H23.75C24.441 55.0001 25.0001 54.441 25.0001 53.75C25.0001 53.0591 24.441 52.5 23.75 52.5Z" fill="url(#paint5_linear)"/>
<path d="M20.0007 9.99992C21.3814 9.99992 22.5007 8.88065 22.5007 7.49996C22.5007 6.11927 21.3814 5 20.0007 5C18.62 5 17.5007 6.11927 17.5007 7.49996C17.5007 8.88065 18.62 9.99992 20.0007 9.99992Z" fill="url(#paint6_linear)"/>
<defs>
<linearGradient id="paint0_linear" x1="68.3335" y1="44.8337" x2="98.6668" y2="44.8337" gradientUnits="userSpaceOnUse">
<stop stop-color="#AC32E4"/>
<stop offset="0.48" stop-color="#7918F2"/>
<stop offset="1" stop-color="#4801FF"/>
</linearGradient>
<linearGradient id="paint1_linear" x1="61.3335" y1="37.8337" x2="91.6668" y2="37.8337" gradientUnits="userSpaceOnUse">
<stop stop-color="#AC32E4"/>
<stop offset="0.48" stop-color="#7918F2"/>
<stop offset="1" stop-color="#4801FF"/>
</linearGradient>
<linearGradient id="paint2_linear" x1="73.0166" y1="47.1721" x2="94.007" y2="47.1721" gradientUnits="userSpaceOnUse">
<stop stop-color="#AC32E4"/>
<stop offset="0.48" stop-color="#7918F2"/>
<stop offset="1" stop-color="#4801FF"/>
</linearGradient>
<linearGradient id="paint3_linear" x1="87" y1="40.1663" x2="91.6667" y2="40.1663" gradientUnits="userSpaceOnUse">
<stop stop-color="#AC32E4"/>
<stop offset="0.48" stop-color="#7918F2"/>
<stop offset="1" stop-color="#4801FF"/>
</linearGradient>
<linearGradient id="paint4_linear" x1="0" y1="30" x2="40.0001" y2="30" gradientUnits="userSpaceOnUse">
<stop stop-color="#AC32E4"/>
<stop offset="0.48" stop-color="#7918F2"/>
<stop offset="1" stop-color="#4801FF"/>
</linearGradient>
<linearGradient id="paint5_linear" x1="15" y1="53.75" x2="25.0001" y2="53.75" gradientUnits="userSpaceOnUse">
<stop stop-color="#AC32E4"/>
<stop offset="0.48" stop-color="#7918F2"/>
<stop offset="1" stop-color="#4801FF"/>
</linearGradient>
<linearGradient id="paint6_linear" x1="17.5007" y1="7.49996" x2="22.5007" y2="7.49996" gradientUnits="userSpaceOnUse">
<stop stop-color="#AC32E4"/>
<stop offset="0.48" stop-color="#7918F2"/>
<stop offset="1" stop-color="#4801FF"/>
</linearGradient>
<clipPath id="clip0">
<rect width="37.3333" height="37.3333" fill="white" transform="translate(61.3335 22.667)"/>
</clipPath>
</defs>
</svg>
