<svg width="457" height="405" viewBox="0 0 457 405" fill="none" xmlns="http://www.w3.org/2000/svg">
<path fill-rule="evenodd" clip-rule="evenodd" d="M33.1531 226.132C27.8421 177.275 -17.768 126.902 7.65256 84.5199C32.689 42.7787 95.5352 40.3515 145.02 39.6241C185.352 39.0313 217.053 68.259 255.268 80.88C292.811 93.2791 334.679 89.7671 366.552 112.789C406.855 141.899 451.225 177.397 456.367 226.132C461.596 275.689 433.904 328.931 392.407 357.841C353.765 384.762 300.453 358.345 253.879 367.202C216.075 374.391 186.118 407.844 147.771 404.362C104.964 400.475 59.1175 383.025 36.2334 347.44C13.6603 312.339 37.6351 267.363 33.1531 226.132Z" fill="#E6ECFA"/>
<path d="M353.806 339.551H185.193L218.37 44.7721C227.424 41.5784 236.478 36.4314 245.562 28.5557C250.679 24.1218 256.291 20.246 262.275 16.8973C263.205 16.3702 264.135 15.8741 265.066 15.378C268.662 13.5176 272.383 11.8122 276.228 10.2929C278.801 9.26971 281.437 8.33952 284.104 7.47134C288.351 6.10705 292.692 4.8978 297.157 3.9056C303.483 2.4793 309.994 1.42506 316.629 0.711914L317.901 12.4324L353.806 339.551Z" fill="white"/>
<path d="M262.925 339.549H245.933C245.933 339.549 245.53 336.944 246.398 334.991C247.236 333.1 248.569 331.952 248.693 330.495C249.778 331.611 251.111 332.325 253.561 331.983C253.871 332.48 255.514 335.084 256.507 335.797C257.623 336.634 262.584 336.355 262.925 339.549Z" fill="#F3AD4C"/>
<path d="M291.11 339.549H274.119C274.119 339.549 273.716 336.944 274.584 334.991C275.421 333.1 276.754 331.952 276.878 330.495C277.963 331.611 279.297 332.325 281.746 331.983C282.056 332.48 283.7 335.084 284.692 335.797C285.808 336.634 290.769 336.355 291.11 339.549Z" fill="#F3AD4C"/>
<path d="M286.18 243.491C286.614 251.491 282.583 331.953 282.583 331.953C282.583 331.953 281.56 333.131 279.172 333.596C277.033 333.999 274.428 333.41 274.428 333.41C274.428 333.41 261.499 244.856 271.142 232.949C271.359 232.67 271.576 232.422 271.824 232.174C272.134 231.833 272.878 231.647 272.754 231.244C270.025 221.725 282.056 226.5 282.087 226.624C283.513 231.399 285.591 232.825 286.18 243.491Z" fill="#AF243B"/>
<path d="M279.886 220.856L257.871 226.097C257.871 226.097 252.011 229.848 250.336 250.716C248.693 270.963 247.05 331.891 247.05 331.891C247.05 331.891 248.321 333.503 250.616 333.782C252.631 334.03 254.925 333.193 254.925 333.193C259.607 304.977 279.017 239.77 279.017 239.77L279.886 220.856Z" fill="#C62E45"/>
<path d="M265.468 158.906C265.468 158.906 253.561 158.441 251.856 173.572C250.43 186.378 230.524 185.386 236.911 198.998C243.298 212.609 260.91 204.889 263.949 202.532C266.956 200.176 284.103 194.812 285.932 191.122C287.793 187.432 282.956 183.866 281.436 179.029C279.917 174.192 284.847 155.185 265.468 158.906Z" fill="#56130F"/>
<path d="M306.366 158.999C306.366 158.999 305.963 156.953 305.498 155.403C305.281 154.721 306.707 150.194 307.699 149.635C308.691 149.077 311.234 152.116 310.521 154.472C310.149 155.682 309.529 159.589 309.529 159.589L306.366 158.999Z" fill="#EF8F6A"/>
<path d="M306.366 158.999C306.366 158.999 305.839 157.821 305.343 157.635C304.847 157.449 304.351 155.495 303.979 154.751C303.979 154.751 304.32 154.255 304.909 154.906C305.281 155.309 306.087 156.457 306.087 156.457L306.366 158.999Z" fill="#EF8F6A"/>
<path d="M232.942 154.628C232.849 154.845 232.694 155.217 232.57 155.589C232.57 155.496 232.57 155.403 232.57 155.31C232.57 154.597 229.872 150.69 228.787 150.442C227.671 150.194 226.121 153.852 227.516 155.899C228.229 156.953 230.399 161.604 230.399 161.604L232.818 159.03C232.818 159.03 232.973 157.728 233.376 157.418C233.779 157.108 233.717 155.093 233.81 154.255C233.81 154.224 233.314 153.852 232.942 154.628Z" fill="#EF8F6A"/>
<path d="M266.026 180.3C266.026 180.3 262.522 177.54 260.941 174.688C259.794 172.641 258.088 164.208 266.584 162.533C266.584 162.533 269.002 161.944 271.731 162.657C273.901 163.215 277.343 164.89 276.971 172.92L277.064 175.556L266.026 180.3Z" fill="#56130F"/>
<path d="M254.057 205.385L258.863 224.95L281.56 225.942C281.56 225.942 286.149 209.571 284.257 202.129C282.366 194.688 279.451 189.51 279.451 189.51C279.451 189.51 272.413 187.804 259.917 188.797L254.057 205.385Z" fill="#6FA9C9"/>
<path d="M272.848 187.99C281.002 187.246 293.064 182.688 294.583 179.835C296.103 176.983 304.753 163.154 306.18 158.875C306.18 158.875 307.234 158.813 307.885 158.906C308.753 159.03 309.776 159.557 309.776 159.557C309.776 159.557 304.722 180.424 301.746 185.633C298.769 190.842 286.398 200.082 284.723 205.353C283.018 210.656 270.398 188.238 272.848 187.99Z" fill="#6FA9C9"/>
<path d="M265.902 187.991C257.748 187.246 245.686 182.689 244.167 179.836C242.647 176.983 234.648 163.061 232.756 158.969C232.756 158.969 231.888 158.628 230.896 158.876C229.873 159.155 229.129 160.054 229.129 160.054C229.129 160.054 233.718 180.363 236.725 185.603C239.702 190.812 252.384 200.052 254.058 205.323C255.763 210.656 268.383 188.239 265.902 187.991Z" fill="#6FA9C9"/>
<path d="M265.282 189.17C265.716 188.178 266.771 183.186 266.46 180.705L266.926 180.736L274.925 181.046C274.925 181.046 274.956 182.969 275.173 184.798V184.829C275.328 186.41 275.452 187.154 275.328 189.139C275.266 190.038 272.383 190.689 269.034 190.596C267.856 190.565 264.972 189.852 265.282 189.17Z" fill="#EF8F6A"/>
<path d="M274.925 181.015C274.925 181.015 274.956 182.938 275.173 184.767C270.77 185.17 268.073 182.317 266.926 180.705L274.925 181.015Z" fill="#E27452"/>
<path d="M277.498 181.356C277.498 181.356 267.39 185.077 265.189 178.751C262.987 172.426 260.166 168.643 266.522 166.008C272.878 163.372 274.987 165.325 276.227 167.248C277.498 169.201 280.072 180.208 277.498 181.356Z" fill="#EF8F6A"/>
<path d="M271.08 164.241C271.08 164.241 270.894 172.643 267.018 175.217C263.143 177.79 260.879 177.325 260.879 177.325C260.879 177.325 263.236 173.574 262.336 168.799C262.336 168.799 267.763 161.419 271.08 164.241Z" fill="#56130F"/>
<path d="M270.615 165.078C270.615 165.078 272.104 164.52 274.367 166.473C275.39 167.372 277.747 171.651 277.747 171.651C277.747 171.651 278.088 165.884 274.708 163.838C271.143 161.698 270.615 165.078 270.615 165.078Z" fill="#56130F"/>
<path d="M273.467 178.782C273.467 178.782 274.863 179.278 276.32 178.782C277.312 178.441 277.312 177.17 277.312 177.17C277.312 177.17 276.568 177.077 275.452 177.542C274.397 177.976 273.467 178.782 273.467 178.782Z" fill="white"/>
<path d="M272.537 190.408C272.537 190.408 267.669 189.416 265.994 186.315C265.994 186.315 263.7 186.657 262.832 187.587C262.832 187.587 265.498 192.672 270.614 193.354C270.614 193.354 272.382 191.711 272.537 190.408Z" fill="white"/>
<path d="M275.359 186.625C275.359 186.625 277.033 186.687 277.808 187.214C277.808 187.214 278.676 190.439 275.762 193.043C275.762 193.043 274.18 190.563 272.537 190.408C272.537 190.408 275.576 188.857 275.359 186.625Z" fill="white"/>
<path d="M272.041 190.595C272.041 190.316 272.258 190.099 272.537 190.099C272.816 190.099 273.033 190.316 273.033 190.595C273.033 190.874 272.816 191.091 272.537 191.091C272.258 191.091 272.041 190.874 272.041 190.595Z" fill="#163560"/>
<path d="M274.894 197.509C274.894 197.23 275.111 197.013 275.39 197.013C275.669 197.013 275.886 197.23 275.886 197.509C275.886 197.788 275.669 198.005 275.39 198.005C275.111 198.005 274.894 197.788 274.894 197.509Z" fill="#163560"/>
<path d="M276.352 205.633C276.352 205.354 276.569 205.137 276.848 205.137C277.127 205.137 277.344 205.354 277.344 205.633C277.344 205.912 277.127 206.129 276.848 206.129C276.569 206.129 276.352 205.912 276.352 205.633Z" fill="#163560"/>
<path d="M277.375 215.338C277.649 215.338 277.871 215.116 277.871 214.842C277.871 214.568 277.649 214.346 277.375 214.346C277.101 214.346 276.879 214.568 276.879 214.842C276.879 215.116 277.101 215.338 277.375 215.338Z" fill="#163560"/>
<path d="M282.366 222.408C282.366 222.408 280.227 224.083 276.01 224.176C270.956 224.269 258.429 222.873 258.429 222.873C258.429 222.873 257.871 224.424 257.902 226.067C257.902 226.067 273.22 229.943 282.087 226.625C282.056 226.656 283.204 224.486 282.366 222.408Z" fill="#0B1A3B"/>
<path d="M279.514 225.818V225.787C279.483 225.012 279.142 224.33 278.646 223.865C278.242 223.492 277.746 223.275 277.188 223.275C276.506 223.275 275.886 223.616 275.483 224.144C275.204 224.485 275.018 224.919 274.925 225.415C274.925 225.477 274.894 225.539 274.894 225.601C274.894 225.694 274.894 225.787 274.894 225.88C274.894 226.655 275.204 227.368 275.669 227.833C276.072 228.236 276.599 228.484 277.188 228.484C277.963 228.484 278.646 228.05 279.049 227.399C279.328 226.965 279.483 226.438 279.483 225.849C279.514 225.88 279.514 225.849 279.514 225.818ZM277.219 227.771C277.188 227.771 277.126 227.771 277.095 227.771C276.32 227.678 275.669 226.903 275.669 225.942C275.669 225.849 275.669 225.756 275.7 225.694C275.7 225.57 275.731 225.477 275.762 225.384C275.917 224.795 276.32 224.33 276.847 224.175C276.971 224.144 277.095 224.113 277.25 224.113C277.312 224.113 277.374 224.113 277.405 224.113C278.087 224.206 278.646 224.826 278.77 225.632C278.77 225.694 278.801 225.756 278.801 225.818C278.801 225.849 278.801 225.911 278.801 225.942C278.801 226.779 278.336 227.492 277.684 227.709C277.498 227.74 277.374 227.771 277.219 227.771Z" fill="white"/>
<path d="M90.8248 246.748C90.8248 246.748 92.0031 252.019 91.662 253.476C91.3209 254.934 87.6001 257.228 86.2359 256.794C84.8406 256.36 86.0498 249.136 88.4373 247.926C90.8248 246.748 90.8248 246.748 90.8248 246.748Z" fill="#EF8F6A"/>
<path d="M89.8328 188.053C85.0578 182.503 85.5539 177.883 85.709 173.604C85.864 169.325 82.7323 156.891 72.0661 158.132C72.0661 158.132 69.2755 156.984 65.8028 158.814C59.8806 161.883 48.5012 184.828 51.2918 194.285C51.9429 196.518 53.4002 198.006 55.9428 198.316C57.028 198.44 58.3302 198.347 59.8496 197.975C59.6015 197.479 61.5239 196.549 64.0665 196.207C68.4384 195.587 74.6397 196.704 74.7947 204.827C74.7947 204.827 77.0892 204.765 80.0968 204.331C81.9572 204.052 84.0656 203.618 86.081 202.967C87.1973 202.595 88.2515 202.161 89.2437 201.665C93.6466 199.308 95.9411 195.215 89.8328 188.053Z" fill="#56130F"/>
<path d="M80.9029 188.828C80.9029 188.828 86.236 190.037 87.8173 194.936C89.3986 199.835 91.352 217.354 91.5071 225.137C91.6621 232.051 91.6621 248.795 91.6621 248.795C91.6621 248.795 89.4606 249.911 86.236 248.795L79.5076 214.532L80.9029 188.828Z" fill="#0C2B82"/>
<path d="M86.1739 238.221C86.1739 238.221 85.0266 219.121 85.9878 209.758C86.763 202.254 77.368 224.175 77.9882 228.175C78.6393 232.175 86.1739 238.221 86.1739 238.221Z" fill="#576796"/>
<path d="M40.0673 325.845C40.0673 325.845 36.8426 328.79 37.4628 330.899C38.0829 333.007 40.9975 334.402 41.4006 336.945C41.8037 339.518 43.354 340.914 44.7803 340.914C46.2066 340.914 51.5397 340.914 51.5397 340.914C51.5397 340.914 52.5939 339.115 50.0514 338.557C47.5399 337.999 46.5787 335.022 46.7337 332.201C46.8887 329.41 46.4856 325.689 46.4856 325.689L41.1215 324.449L40.0673 325.845Z" fill="#24406D"/>
<path d="M67.4148 327.085C67.4148 327.085 66.2676 339.581 67.6629 340.263L85.8017 340.232C85.8017 340.232 85.8016 338.123 82.887 337.658C79.9724 337.193 74.8564 335.488 73.9882 331.674C73.12 327.922 67.4148 327.085 67.4148 327.085Z" fill="#24406D"/>
<path d="M53.4622 203.215C53.4622 203.215 53.1831 207.029 53.4622 211.587C53.6482 214.626 56.7178 218.688 57.1519 219.68C58.2371 222.191 59.4774 222.595 59.4774 222.595L68.9964 224.92L72.3451 225.726L82.9183 222.564C82.9183 222.564 87.7243 209.138 85.8019 201.572C83.8795 194.007 80.9339 188.766 80.9339 188.766C80.9339 188.766 73.7714 187.061 61.0897 188.053L53.4622 203.215Z" fill="#0C2B82"/>
<path d="M56.2529 212.826C56.439 215.865 56.718 218.686 57.1521 219.679C58.2373 222.19 59.4776 222.593 59.4776 222.593L68.9966 224.919L73.1204 223.71C73.1204 223.71 59.3226 221.632 60.8419 209.726L56.2529 212.826Z" fill="#F0CAA8"/>
<path d="M82.2362 224.641C82.2362 224.641 87.4763 240.919 87.8174 246.469C88.1585 252.019 77.8333 325.195 77.3992 327.768C76.9961 330.187 74.0195 331.706 74.0195 331.706C74.0195 331.706 72.6552 332.512 70.6708 331.954C67.9422 331.179 67.074 330.28 67.074 330.28C67.074 330.28 63.0122 278.065 65.5237 259.43C68.0352 240.795 68.0663 224.641 68.0663 224.641H82.2362Z" fill="#041431"/>
<path d="M60.0668 224.175C60.0668 224.175 52.0981 234.872 51.354 242.128C50.6098 249.352 50.1757 274.777 48.5944 281.847C47.0131 288.916 41.1838 302.466 41.1838 324.481C41.1838 324.481 41.804 325.752 43.6644 326.403C44.2535 326.62 45.0596 326.837 45.8348 326.992C47.3851 327.333 48.9665 326.589 49.6486 325.163C53.5864 317.225 66.113 291.676 66.7642 286.374C67.2293 282.622 71.1671 257.755 79.8179 243.182C81.8953 239.678 78.5466 225.756 78.5466 225.756L60.0668 224.175Z" fill="#1B2B4E"/>
<path d="M83.0735 222.128C83.0735 222.128 80.965 223.802 76.8102 223.864C71.8181 223.957 59.4776 222.593 59.4776 222.593C59.4776 222.593 58.9195 224.112 58.9505 225.756C58.9505 225.756 74.0196 229.569 82.7634 226.314C82.7634 226.314 83.8797 224.205 83.0735 222.128Z" fill="#C62E45"/>
<path d="M80.0968 224.641C79.9727 224.238 79.7557 223.897 79.4456 223.648C79.4146 223.617 79.4146 223.617 79.3836 223.617C79.2286 223.462 79.0426 223.338 78.8255 223.245C78.5464 223.121 78.2674 223.028 77.9573 223.028C77.2752 223.028 76.6861 223.369 76.283 223.897C76.0969 224.114 75.9419 224.362 75.8489 224.672C75.8489 224.703 75.8179 224.703 75.8179 224.734C75.7249 224.982 75.6938 225.261 75.6628 225.54C75.6628 225.571 75.6628 225.602 75.6628 225.633C75.6628 226.408 75.9729 227.09 76.438 227.555C76.8411 227.958 77.3682 228.206 77.9263 228.206C78.2984 228.206 78.6395 228.113 78.9495 227.927C79.2596 227.741 79.5387 227.493 79.7557 227.152C80.0348 226.718 80.1898 226.191 80.1898 225.633C80.2518 225.261 80.1898 224.951 80.0968 224.641ZM77.9883 227.431C77.9263 227.431 77.8953 227.431 77.8643 227.431C77.0892 227.369 76.469 226.563 76.469 225.602C76.469 225.261 76.562 224.951 76.6861 224.672C76.7171 224.579 76.7791 224.517 76.8101 224.455C76.9961 224.176 77.2752 223.959 77.5852 223.866C77.7093 223.835 77.8333 223.803 77.9573 223.803C78.0193 223.803 78.0814 223.803 78.1124 223.803C78.2364 223.834 78.3914 223.866 78.5154 223.928C78.5464 223.959 78.5775 223.959 78.6395 223.99C78.8875 224.145 79.1046 224.362 79.2596 224.672C79.4146 224.951 79.4766 225.261 79.4766 225.633C79.4766 226.253 79.2286 226.811 78.8255 227.121C78.7015 227.245 78.5464 227.307 78.3914 227.369C78.2674 227.4 78.1434 227.431 77.9883 227.431Z" fill="white"/>
<path d="M43.1987 225.051L58.6562 238.511L77.0635 217.371L61.6059 203.911L43.1987 225.051Z" fill="#6FA9C9"/>
<path d="M62.95 225.137C62.95 225.137 68.9962 225.664 68.9652 227.028C68.9342 228.361 67.0428 230.718 66.1436 230.718C64.0972 230.718 61.8647 227.648 61.8647 227.648L62.95 225.137Z" fill="#EF8F6A"/>
<path d="M61.059 188.114C61.059 188.114 53.4934 188.641 50.6098 195.68C47.7262 202.718 42.207 214.532 42.207 216.547C42.207 218.563 45.2767 224.671 61.7721 228.206C61.7721 228.206 63.4775 226.407 63.3844 224.981C63.3844 224.981 53.0903 216.144 53.1213 215.121C53.1833 213.167 54.7957 210.594 63.8495 201.54C66.268 199.06 61.059 188.114 61.059 188.114Z" fill="#0C2B82"/>
<path d="M63.8489 225.261C63.8489 225.261 65.2132 224.951 66.1123 224.951C67.0115 224.951 68.0968 224.765 68.0968 225.075C68.0968 225.633 66.2984 225.819 66.2984 226.067C66.2984 226.346 63.8489 225.261 63.8489 225.261Z" fill="#EF8F6A"/>
<path d="M65.3993 187.989C65.9574 186.935 67.5697 181.571 67.5697 178.78L68.0348 178.873L76.0655 180.207C76.0655 180.207 75.8794 182.346 75.8794 184.361C75.8794 184.392 75.8794 184.392 75.8794 184.423C75.8794 186.191 75.9105 187.028 75.5384 189.229C75.3833 190.222 72.4067 190.563 69.027 190.067C67.8488 189.85 65.0272 188.702 65.3993 187.989Z" fill="#EF8F6A"/>
<path d="M76.0653 180.208C76.0653 180.208 75.8793 182.347 75.8793 184.363C71.3834 184.27 68.9959 180.766 68.0347 178.844L76.0653 180.208Z" fill="#E27452"/>
<path d="M77.5851 182.719C77.5851 182.719 66.9499 182.905 66.9189 176.27C66.9189 169.634 65.5236 165.2 72.314 164.797C79.1045 164.394 80.4377 166.937 80.9648 169.138C81.523 171.371 80.3447 182.502 77.5851 182.719Z" fill="#EF8F6A"/>
<path d="M77.1819 164.642C77.1819 164.642 74.2673 172.425 69.8024 173.572C65.3374 174.719 63.384 173.51 63.384 173.51C63.384 173.51 66.8257 170.781 67.5389 166.037C67.5389 166.037 74.9805 160.921 77.1819 164.642Z" fill="#56130F"/>
<path d="M76.4688 165.262C76.4688 165.262 78.6392 166.068 79.5074 167.649C80.3756 169.199 81.1197 171.246 80.9337 173.726C80.9337 173.726 83.1351 168.424 80.6546 165.448C78.0501 162.285 76.4688 165.262 76.4688 165.262Z" fill="#56130F"/>
<path d="M430 339.651V341.615H25.635C25.2911 341.615 25 341.222 25 340.758V340.472C25 340.008 25.2911 339.615 25.635 339.615H430V339.651Z" fill="white"/>
<path d="M160.139 339.552C158.62 338.621 159.488 331.614 159.488 331.614C159.488 331.614 166.651 325.909 167.612 330.281C168.604 334.653 174.402 336.637 177.72 337.164C180.014 337.536 180.697 338.807 180.914 339.552H160.139Z" fill="#6FA9C9"/>
<path d="M129.07 339.552C127.551 338.621 128.419 331.614 128.419 331.614C128.419 331.614 135.582 325.909 136.543 330.281C137.504 334.653 143.333 336.637 146.651 337.164C148.946 337.536 149.628 338.807 149.845 339.552H129.07Z" fill="#6FA9C9"/>
<path d="M134.062 239.462C134.062 246.346 136.729 256.051 136.729 256.051C138.775 265.911 156.449 333.164 158.155 333.815C161.007 334.9 168.232 332.637 168.108 331.644C162.588 282.22 160.666 241.167 160.325 239.586C159.426 238.873 137.473 231.804 134.062 239.462Z" fill="#041431"/>
<path d="M154.372 155.001C154.372 155.001 149.535 149.73 148.046 149.544C146.558 149.358 140.419 152.303 140.047 153.481C139.675 154.66 146.806 152.334 147.209 153.481C147.612 154.629 148.046 155.435 150.062 155.528C152.077 155.621 153.845 156.768 153.845 156.768L154.372 155.001Z" fill="#EF8F6A"/>
<path d="M144.946 177.666V178.907C144.946 178.907 145.225 182.782 141.318 183.341C137.411 183.899 134.434 181.821 134.528 178.845C134.869 176.519 135.272 174.938 135.303 173.015C135.303 172.302 135.272 171.558 135.179 170.69L142.775 170.504L145.008 170.938L144.946 177.666Z" fill="#EF8F6A"/>
<path d="M144.977 170.938L144.946 175.93C136.357 175.279 135.241 171.527 135.148 170.69L142.745 170.504L144.977 170.938Z" fill="#E27452"/>
<path d="M146.651 174.194C146.651 174.194 134.807 176.581 133.412 169.171C132.016 161.76 129.567 157.078 137.101 155.249C144.605 153.419 146.62 155.962 147.675 158.318C148.729 160.675 149.69 173.388 146.651 174.194Z" fill="#EF8F6A"/>
<path d="M153.752 233.261C140.853 292.018 139.179 333.008 139.179 333.008C139.179 333.008 135.303 334.125 127.582 333.164C127.582 333.164 125.815 307.118 124.916 287.615C124.637 281.91 121.97 248.144 125.66 231.772C127.179 225.199 155.209 226.594 153.752 233.261Z" fill="#0B1A3B"/>
<path d="M160.697 239.866C160.697 239.866 156.852 243.339 146.744 243.277C140.388 243.246 131.768 241.758 127.923 240.951C122.745 239.866 123.582 238.006 123.985 234.161C124.513 229.262 124.73 220.332 121.97 205.232C121.567 203 121.102 200.643 120.544 198.132C118.218 187.465 131.613 181.295 133.349 178.784C143.178 187.806 145.938 179.435 145.938 179.435C146.031 179.435 150.589 180.086 154.775 177.605C158.775 175.218 158.434 190.473 158.434 195.403C158.434 200.674 159.55 213.728 159.705 219.464C159.891 226.968 160.697 239.866 160.697 239.866Z" fill="#F3AD4C"/>
<path d="M177.007 169.139C176.914 169.573 176.821 170.007 176.666 170.472C173.751 179.712 161.597 190.316 159.984 193.758C159.023 195.774 158.651 201.758 158.682 201.572L149.783 181.48C149.783 181.48 162.62 171.837 163.147 170.472C163.953 168.395 151.427 157.015 151.427 157.015C151.427 157.015 150.806 156.023 151.582 154.225C152.171 152.799 153.194 152.396 153.194 152.396C153.194 152.396 177.906 164.612 177.007 169.139Z" fill="#F3AD4C"/>
<path d="M124.203 222.937C123.304 216.704 123.242 215.309 121.009 200.209C121.846 200.364 124.792 198.969 126.218 201.387C130.342 208.426 131.707 213.79 124.203 222.937Z" fill="#EB9235"/>
<path d="M120.978 225.944C120.978 225.944 127.117 222.224 129.039 222.689C130.962 223.154 135.086 224.952 134.838 226.068C134.59 227.154 129.784 227.929 128.946 227.774C128.109 227.619 126.745 227.805 126.218 228.27C125.66 228.735 121.319 228.921 120.761 227.65C120.203 226.378 120.978 225.944 120.978 225.944Z" fill="#EF8F6A"/>
<path d="M133.35 178.845C133.35 178.845 123.955 180.674 120.265 183.713C116.513 186.813 102.808 205.107 103.676 211.433C104.545 217.882 119.831 227.835 119.831 227.835C119.831 227.835 122.838 228.827 122.931 224.052C122.931 224.052 114.87 212.146 115.304 210.781C115.583 209.913 127.427 200.394 127.427 200.394L133.35 178.845Z" fill="#F3AD4C"/>
<path d="M153.721 229.726C153.659 231.339 153.008 232.858 151.891 234.005L150.124 235.804C149.69 236.269 148.946 236.238 148.512 235.773L146.062 232.982C145.411 232.238 145.07 231.246 145.101 230.254C145.194 228.021 145.38 223.742 145.473 219.618C145.566 216.27 145.597 213.045 145.504 211.061C145.225 204.766 142.93 184.829 142.93 184.829H144.45C144.45 184.829 148.605 192.395 151.116 202.875C151.736 205.448 152.263 208.208 152.573 211.061C152.604 211.061 153.969 222.471 153.721 229.726Z" fill="#24406D"/>
<path d="M140.854 183.248L145.04 182.256C145.04 182.256 145.598 182.318 145.567 183C145.536 183.682 144.388 185.667 143.861 185.853C143.365 185.977 139.862 184.643 140.854 183.248Z" fill="#C62E45"/>
<path d="M131.613 179.031C131.582 178.379 134.745 177.325 134.745 177.325C134.745 177.325 137.132 182.627 142.961 182.72C142.961 182.72 141.287 185.945 139.334 186.782C139.334 186.782 131.83 182.906 131.613 179.031Z" fill="#EB9235"/>
<path d="M142.962 182.72C142.962 182.72 144.915 179.65 144.946 177.666C144.946 177.666 147.21 178.317 148.946 179.619C148.946 179.619 148.698 183.433 147.21 185.356C147.21 185.356 145.256 183.619 142.962 182.72Z" fill="#EB9235"/>
<path d="M128.389 164.613C130.187 170.69 134.373 171.527 134.373 171.527C134.373 171.527 134.032 170.814 133.815 168.985C133.784 168.737 133.846 168.427 133.939 168.086C134.187 167.31 134.156 166.473 133.877 165.729C133.691 165.202 133.691 164.706 134.125 164.458C134.807 164.055 135.675 164.799 136.203 165.357C136.544 165.729 137.102 165.884 137.598 165.729C139.644 165.047 137.784 160.396 140.016 160.489C147.396 160.799 148.047 159.652 149.256 158.443C150.124 157.543 149.752 154.505 148.574 154.195C147.334 153.854 145.504 153.295 143.613 152.241C138.032 149.172 133.133 152.241 133.164 152.241C128.327 154.133 127.149 160.458 128.389 164.613Z" fill="#56130F"/>
<path d="M236.384 88.5236C236.384 88.5236 246.058 92.1824 248.011 95.128C249.964 98.0736 250.398 106.6 253.437 108.833C254.398 109.546 266.243 115.251 268.692 114.662C270.336 114.259 270.584 109.515 266.646 107.003C262.646 104.461 258.553 97.4845 257.282 94.1358C255.111 88.4306 252.507 73.8885 254.398 75.904L265.344 67.9043L251.67 69.0515L236.384 88.5236Z" fill="#E27452"/>
<path d="M241.251 104.368C241.251 104.368 247.205 118.6 250.926 123.282C252.414 125.173 257.902 130.879 260.258 130.568C264.165 130.072 263.018 123.344 258.336 117.794C257.065 116.274 254.336 104.244 253.654 98.4458C251.949 84.0588 250.957 75.377 250.957 75.377L241.251 104.368Z" fill="#E27452"/>
<path d="M316.814 10.016C314.768 13.2407 312.876 16.2483 311.233 18.9148C310.334 20.4032 309.496 21.7674 308.752 23.0077C307.574 24.9921 306.675 26.5735 306.148 27.6587C304.783 30.4183 302.21 34.2321 300.939 38.3249C300.939 38.3249 300.939 38.3249 300.939 38.3559C297.621 44.6812 299.605 49.1152 300.784 51.8437C303.636 58.6341 302.489 71.3778 299.171 85.2377C297.373 92.8033 297.311 102.508 297.497 106.26C297.559 107.5 297.9 110.229 298.179 113.175C298.582 117.267 298.861 121.763 298.086 123.066C297.869 123.438 297.28 123.655 296.505 123.748C294.551 123.965 291.451 123.376 290.117 122.352C286.087 119.314 284.474 112.368 283.203 100.741C281.994 89.6406 279.079 85.2067 275.606 81.765C273.343 79.5325 270.707 77.6101 265.932 78.0752C265.374 78.1372 263.576 78.1682 261.343 78.6333C259.142 79.0984 256.537 79.9356 254.212 81.5789C253.406 82.1371 252.662 82.8192 251.948 83.5944C250.367 85.3617 249.127 87.6872 248.631 90.8189C248.6 90.9119 248.6 91.0049 248.569 91.1289C248.352 92.3382 248.011 93.5164 247.608 94.6947C246.77 97.0202 245.685 99.3146 244.724 101.547C243.794 103.749 243.019 105.888 242.802 107.965C242.678 109.206 242.771 110.415 243.143 111.593C244.352 115.469 244.352 119.903 244.538 124.709C244.662 128.182 244.91 131.871 245.809 135.685C247.949 144.863 243.794 148.088 240.104 146.848C240.073 146.848 240.011 146.817 239.98 146.786C238.833 146.351 236.569 141.949 234.74 137.887C233.376 134.848 232.228 131.995 231.98 131.127C231.205 128.461 230.368 116.926 227.298 106.136C225.004 98.0744 230.833 81.2999 231.515 62.758C231.856 53.5181 246.274 43.658 257.592 26.0463C258.212 25.0851 258.987 24.279 259.638 23.3798C261.56 20.8063 263.39 18.1397 265.126 15.4421C268.723 13.5817 272.444 11.8764 276.289 10.3571C278.862 9.33386 281.498 8.40365 284.164 7.53547C288.412 6.17119 292.753 4.96193 297.218 3.96973C304.318 5.61307 310.83 7.6595 316.814 10.016Z" fill="#EF8F6A"/>
<path d="M312.783 19.5657L310.427 23.6275L301.776 38.6036L300.939 38.2936L259.545 23.4725L259.576 23.3795L262.274 16.9611C263.204 16.434 264.134 15.9379 265.064 15.4418C268.661 13.5814 272.382 11.8761 276.226 10.3568C278.8 9.33354 281.436 8.40334 284.102 7.53516L311.202 18.9456L312.783 19.5657Z" fill="white"/>
<path d="M325.403 0L317.93 12.4646L311.078 23.906L310.427 23.6579L310.241 23.5959L308.752 23.0068L276.227 10.3562C278.8 9.33295 281.436 8.40275 284.102 7.53457C288.35 6.17028 292.691 4.96103 297.156 3.96882C303.481 2.54253 309.993 1.48831 316.628 0.775162C319.543 0.43409 322.457 0.186039 325.403 0Z" fill="#6FA9C9"/>
<path d="M300.35 29.3007C300.412 28.3705 301.249 27.6573 302.179 27.7504C303.109 27.8124 303.822 28.6495 303.729 29.5797C303.636 30.5099 302.83 31.2231 301.9 31.1301C300.97 31.0681 300.288 30.2309 300.35 29.3007Z" fill="#6FA9C9"/>
<path d="M360.379 245.757C360.379 245.757 359.107 250.346 360.069 252.175C361.03 254.036 362.859 255.617 363.758 254.563C364.658 253.508 362.921 246.811 362.921 246.811L360.379 245.757Z" fill="#EF8F6A"/>
<path d="M374.951 154.566C374.951 154.566 379.788 154.07 384.067 156.861C388.346 159.651 387.881 166.845 391.602 168.55C395.323 170.256 401.338 175.775 400.749 180.922C400.16 186.038 398.392 187.681 400.749 190.751C403.105 193.821 398.95 201.417 392.098 199.092C385.246 196.766 363.882 189.635 361.743 185.604C359.603 181.573 360.72 176.86 362.859 172.984C364.998 169.108 360.316 155.404 374.951 154.566Z" fill="#56130F"/>
<path d="M368.192 273.197C371.603 295.242 374.393 318.993 373.091 331.489C372.037 334.993 368.812 336.14 365.96 336.574L367.913 338.713L373.401 339.055L380.75 336.202C380.75 336.202 380.347 334.745 380.006 332.233C379.633 329.288 381.029 322.59 381.029 322.59C381.029 322.59 384.719 299.428 382.734 294.188C382.176 292.7 381.804 290.995 381.556 289.165C380.967 284.483 381.339 278.84 381.773 273.383C382.238 267.43 382.765 261.693 382.207 257.508C379.726 238.532 379.789 222.098 379.789 222.098L365.402 222.036C365.402 222.036 361.247 233.602 363.107 243.555C364.657 251.988 366.487 262.376 368.192 273.197Z" fill="#E27452"/>
<path d="M366.58 185.666C366.58 185.666 363.448 186.472 361.929 190.162C360.409 193.852 359.727 222.068 359.448 225.106C359.169 228.145 360.099 247.09 360.099 247.09C360.099 247.09 362.332 247.865 363.975 246.594C369.99 241.974 367.231 216.455 367.231 216.455L366.58 185.666Z" fill="#F3AD4C"/>
<path d="M362.394 233.261C362.394 233.261 360.781 211.091 361.65 205.355C361.96 203.309 365.618 206.843 366.021 212.053C366.456 217.231 362.394 233.261 362.394 233.261Z" fill="#EB9235"/>
<path d="M374.703 339.83C371.51 339.427 372.347 340.233 367.851 340.233C363.355 340.233 361.836 338.744 361.619 338.093C361.433 337.535 363.603 337.07 365.928 336.543L366.021 336.605C366.021 336.605 368.843 338.186 372.533 337.845C375.54 337.597 378.641 336.357 380.719 336.171C380.843 336.853 380.967 337.566 380.905 338.248C380.75 340.264 377.928 340.264 374.703 339.83Z" fill="#C62E45"/>
<path d="M376.285 270.965C379.696 293.01 385.122 319.149 383.788 331.644C382.734 335.148 379.51 336.295 376.657 336.729L378.61 338.869L384.098 339.21L391.447 336.357C391.447 336.357 391.044 334.9 390.703 332.388C390.331 329.443 391.726 322.745 391.726 322.745C391.726 322.745 395.416 299.584 393.431 294.343C392.873 292.855 392.501 291.15 392.253 289.32C391.664 284.638 392.036 278.995 392.47 273.538C392.935 267.585 393.462 261.849 392.904 257.663C390.424 238.687 390.486 222.253 390.486 222.253L376.099 222.191C376.099 222.191 371.944 233.757 373.804 243.71C375.417 252.144 374.61 260.143 376.285 270.965Z" fill="#EF8F6A"/>
<path d="M385.462 340.016C382.268 339.613 383.106 340.419 378.61 340.419C374.114 340.419 372.594 338.931 372.377 338.28C372.191 337.722 374.362 337.257 376.687 336.73L376.78 336.792C376.78 336.792 379.602 338.373 383.292 338.032C386.299 337.784 389.4 336.543 391.477 336.357C391.601 337.04 391.725 337.753 391.663 338.435C391.477 340.45 388.656 340.419 385.462 340.016Z" fill="#C62E45"/>
<path d="M394.424 200.455C394.424 200.455 394.672 204.331 394.393 208.982C394.207 212.052 391.044 216.176 390.61 217.199C389.494 219.741 388.222 220.176 388.222 220.176L378.517 222.501L375.107 223.307L364.378 220.051C364.378 220.051 359.541 206.378 361.557 198.688C363.572 190.998 366.58 185.665 366.58 185.665C366.58 185.665 378.951 182.503 388.501 185.355L394.424 200.455Z" fill="#F3AD4C"/>
<path d="M362.208 246.687C363.324 261.229 364.658 273.508 364.658 273.508C364.658 273.508 371.417 278.128 380.998 278.748C385.37 279.027 390.362 278.5 395.54 276.298C395.54 276.298 397.711 241.168 396.47 235.587C395.23 229.975 389.711 222.254 389.711 222.254L364.658 223.091C364.72 223.091 361.092 232.145 362.208 246.687Z" fill="#6FA9C9"/>
<path d="M364.192 219.556C364.192 219.556 366.331 221.261 370.579 221.354C375.664 221.478 388.222 220.145 388.222 220.145C388.222 220.145 388.78 221.695 388.749 223.338C388.749 223.338 373.37 227.121 364.502 223.773C364.471 223.804 363.355 221.664 364.192 219.556Z" fill="#0B1A3B"/>
<path d="M371.634 222.843C371.634 222.626 371.572 222.409 371.51 222.223C371.479 222.161 371.479 222.099 371.448 222.037C371.355 221.789 371.231 221.572 371.076 221.354C370.641 220.827 370.052 220.486 369.37 220.486C368.812 220.486 368.316 220.703 367.913 221.044L367.882 221.075C367.82 221.137 367.727 221.23 367.665 221.323C367.51 221.51 367.355 221.758 367.262 222.006C367.138 222.316 367.076 222.626 367.045 222.998C367.045 223.029 367.045 223.06 367.045 223.091C367.045 223.68 367.2 224.207 367.479 224.641C367.572 224.796 367.696 224.951 367.82 225.075C368.223 225.478 368.75 225.726 369.339 225.726C369.928 225.726 370.455 225.478 370.858 225.075C371.355 224.61 371.665 223.897 371.665 223.122C371.665 223.029 371.634 222.936 371.634 222.843ZM369.463 224.951C369.401 224.951 369.37 224.951 369.339 224.951C369.184 224.951 369.029 224.92 368.905 224.858C368.254 224.641 367.789 223.928 367.82 223.091C367.82 223.06 367.82 223.029 367.82 222.967C367.851 222.595 367.944 222.285 368.099 222.006C368.254 221.727 368.502 221.479 368.781 221.354C368.905 221.292 369.029 221.261 369.184 221.23C369.246 221.23 369.308 221.23 369.339 221.23C369.463 221.23 369.618 221.261 369.742 221.292C370.052 221.386 370.331 221.603 370.517 221.882C370.548 221.913 370.579 221.944 370.579 222.006C370.734 222.254 370.827 222.533 370.858 222.843C370.858 222.905 370.858 222.998 370.858 223.091C370.889 224.083 370.238 224.889 369.463 224.951Z" fill="white"/>
<path d="M386.117 201.124L370.332 214.726L388.954 236.337L404.739 222.735L386.117 201.124Z" fill="#24406D"/>
<path d="M384.657 222.719C384.657 222.719 378.89 223.37 378.89 224.734C378.89 226.098 380.316 228.92 381.029 229.044C381.742 229.168 385.742 225.261 385.742 225.261L384.657 222.719Z" fill="#EF8F6A"/>
<path d="M386.765 185.045C386.765 185.045 394.455 185.634 397.369 192.797C400.284 199.99 405.803 212.052 405.803 214.067C405.803 216.082 402.64 222.315 385.835 225.818C385.835 225.818 384.099 223.989 384.223 222.532C384.223 222.532 394.734 213.602 394.734 212.548C394.703 210.563 393.028 207.928 383.882 198.688C381.401 196.176 386.765 185.045 386.765 185.045Z" fill="#F3AD4C"/>
<path d="M385.556 184.674C384.005 184.333 382.703 183.217 382.176 181.697C381.525 179.868 381.029 177.201 381.06 173.853L380.564 173.946L372.378 175.527C372.378 175.527 372.564 178.1 372.533 180.519C372.533 180.55 372.533 180.55 372.533 180.581C372.533 182.689 371.138 184.55 369.122 185.108C368.099 185.387 374.021 193.294 374.703 193.139C376.13 192.828 386.052 184.767 385.556 184.674Z" fill="#EF8F6A"/>
<path d="M372.409 175.528C372.409 175.528 372.595 178.101 372.564 180.52C377.153 180.427 379.572 176.241 380.595 173.946L372.409 175.528Z" fill="#E27452"/>
<path d="M370.859 177.821C370.859 177.821 381.68 178.069 381.742 171.31C381.773 164.551 383.199 160.055 376.285 159.621C369.371 159.187 368.006 161.76 367.448 163.993C366.89 166.225 368.037 177.573 370.859 177.821Z" fill="#EF8F6A"/>
<path d="M371.355 159.434C371.355 159.434 374.27 167.371 378.828 168.55C383.386 169.759 385.339 168.55 385.339 168.55C385.339 168.55 381.866 165.759 381.153 160.922C381.184 160.891 373.618 155.651 371.355 159.434Z" fill="#56130F"/>
<path d="M372.099 160.055C372.099 160.055 369.898 160.861 368.967 162.473C368.068 164.024 367.324 166.101 367.479 168.675C367.479 168.675 365.278 163.28 367.789 160.241C370.487 157.016 372.099 160.055 372.099 160.055Z" fill="#56130F"/>
<path d="M374.704 193.138C374.704 193.138 382.083 185.356 382.362 182.162C382.362 182.162 384.223 182.689 386.424 184.829C386.424 184.829 384.626 189.232 382.517 190.689C382.517 190.689 380.998 190.472 379.789 189.976C379.789 189.976 380.533 191.247 381.153 192.022C381.153 191.991 377.835 193.852 374.704 193.138Z" fill="#EB9235"/>
<path d="M372.192 182.41C372.192 182.41 369.277 187.681 374.704 193.138C374.704 193.138 371.293 192.456 369.525 190.037C369.525 190.037 370.084 188.735 370.549 188.456C370.549 188.456 369.525 188.053 368.874 188.642C368.874 188.642 368.502 185.82 368.905 184.952C369.308 184.084 371.355 182.379 372.192 182.41Z" fill="#EB9235"/>
<path d="M375.262 193.138C375.262 192.828 375.013 192.58 374.703 192.58C374.393 192.58 374.145 192.828 374.145 193.138C374.145 193.448 374.393 193.696 374.703 193.696C375.013 193.696 375.262 193.448 375.262 193.138Z" fill="#C62E45"/>
<path d="M372.316 200.89C372.316 200.58 372.068 200.332 371.758 200.332C371.448 200.332 371.199 200.58 371.199 200.89C371.199 201.2 371.448 201.448 371.758 201.448C372.068 201.417 372.316 201.169 372.316 200.89Z" fill="#C62E45"/>
<path d="M371.727 209.943C371.727 209.633 371.479 209.385 371.169 209.385C370.859 209.385 370.611 209.633 370.611 209.943C370.611 210.253 370.859 210.501 371.169 210.501C371.479 210.501 371.727 210.253 371.727 209.943Z" fill="#C62E45"/>
</svg>
