<svg width="411" height="410" viewBox="0 0 411 410" fill="none" xmlns="http://www.w3.org/2000/svg">
<path d="M360.881 352.504C350.199 363.508 340.644 369.975 333.328 374.862C261.979 422.492 180.432 408.766 155.22 404.069C114.541 396.504 80.1986 391.163 50.6993 364.503C-16.3474 303.938 -13.0843 177.586 38.1445 99.3158C44.217 90.0388 95.3726 14.2126 177.096 3.53079C179.1 3.2674 180.593 3.12107 181.895 2.98938C194.538 1.65781 272.881 -5.40974 336.767 48.1017C345.912 55.7692 360.633 69.5824 374.27 90.6533C424.182 167.738 424.343 287.096 360.881 352.504Z" fill="url(#paint0_linear)"/>
<path opacity="0.7" d="M211.013 202.486C219.707 165.208 217.883 126.459 215.885 111.744C211.988 92.7777 206.017 82.8587 203.519 80.27L125.576 77L119.956 95.3937L60 280.149C72.6157 293.774 106.016 316.854 138.692 300.177C171.368 283.5 212.512 293.229 229 300.177C223.004 290.776 211.013 270.42 211.013 264.207C211.013 256.441 200.146 249.084 211.013 202.486Z" fill="#91B3FA"/>
<path d="M68.9335 385.574C68.9335 385.559 68.9481 385.545 68.9481 385.516C70.3967 378.799 74.5084 362.601 81.0053 359.294C81.1955 359.191 81.3565 359.016 81.4004 358.811L83.1417 351.919C83.2295 351.597 83.0832 351.261 82.7905 351.1C82.6588 351.027 82.5271 350.939 82.3954 350.866C82.1028 350.69 81.9711 350.324 82.0882 350.002C85.3366 340.535 129.439 212.148 141.877 193.419C141.979 193.258 142.023 193.082 141.994 192.892C139.858 180.586 130.434 138.795 124.64 125.392C123.674 123.168 123.016 120.826 122.664 118.412C122.459 117.022 122.269 115.632 122.138 114.9C122.094 114.651 121.933 114.446 121.699 114.359C93.4577 102.111 46.7504 72.3338 86.1414 16.2032C86.1268 16.1446 86.1122 16.1007 86.1122 16.1007C86.1122 16.1007 84.883 1.3657 92.2578 0.136562C99.6327 -1.09258 102.076 6.28225 103.305 9.95504C104.447 13.3644 94.0137 19.9198 90.5019 20.8856C90.2532 20.9588 90.0629 21.149 89.9898 21.3977C88.5265 26.5923 77.435 70.9584 124.771 77.148C124.83 77.1626 124.889 77.1626 124.962 77.148C129.922 76.548 138.014 75.7432 147.789 75.3482C148.154 75.3335 148.447 75.0701 148.506 74.7043L151.973 51.2922C152.047 50.8239 151.681 50.4142 151.213 50.4288C149.53 50.502 146.662 50.2386 143.077 48.3217C138.702 45.9805 140.384 44.2246 141.526 43.493C141.848 43.2881 141.848 42.8199 141.555 42.5711C135.307 37.4643 134.136 31.2455 136.99 28.8457C138.204 27.8215 139.185 27.6751 139.931 27.8654C140.692 28.0556 141.482 27.5873 141.555 26.7972C142.243 20.1686 148.959 16.2324 158.909 14.4034C166.211 13.0572 168.947 10.4379 169.957 8.8137C170.22 8.38935 170.85 8.49178 170.981 8.96002C171.128 9.45753 171.801 9.51606 172.035 9.06245C172.386 8.38935 173.235 8.1406 173.878 8.53568C177.668 10.8476 179.966 17.0811 176.995 21.9684C176.132 23.3878 174.42 24.6608 172.327 25.7875C171.991 25.9631 171.83 26.3582 171.976 26.724C173.791 31.3187 176.703 39.3812 176.981 44.3563C177.39 51.6287 178.956 56.355 170.542 57.8183C170.484 57.8329 170.425 57.8329 170.352 57.8476C169.972 57.9061 169.694 58.2573 169.723 58.6524L171.142 74.7482C171.171 75.114 171.479 75.4067 171.845 75.4213C182.219 75.9481 193.062 77.2211 203.275 79.6941C203.392 79.7233 203.51 79.7233 203.627 79.6941C243.632 70.5194 233.477 29.9871 232.072 25.0559C231.999 24.8071 231.809 24.6169 231.56 24.5584C228.048 23.5926 217.63 17.0372 218.757 13.6278C219.986 9.94041 222.444 2.58021 229.804 3.80935C237.179 5.03849 235.95 19.7735 235.95 19.7735C235.95 19.7735 235.935 19.8174 235.921 19.876C272.663 72.2022 236.448 100.575 207.987 114.344C207.738 114.461 207.577 114.71 207.563 114.988L207.446 117.768C207.373 119.612 207.095 121.456 206.626 123.241C203.685 134.435 192.257 177.601 185.658 198.482C185.658 198.482 185.599 198.496 185.497 198.511C182.57 216.845 161.324 349.797 160.446 358.357C160.417 358.635 160.241 358.87 159.978 358.972C159.685 359.089 159.261 359.235 158.719 359.396C158.456 359.484 158.251 359.704 158.207 359.982L157.227 365.44C157.153 365.805 157.373 366.171 157.739 366.288C164.104 368.22 178.634 373.21 184.077 379.867C184.443 380.321 184.78 380.775 185.058 381.228C185.336 381.696 185.307 382.238 185.058 382.662L267.881 389.892L266.428 392.799L158.968 383.847C154.768 383.774 150.218 383.628 145.403 383.35C144.365 383.291 143.53 382.472 143.472 381.433C143.457 381.243 143.457 381.038 143.457 380.819C143.413 377.775 143.984 372.258 147.745 366.361C147.832 366.23 147.876 366.083 147.862 365.923L147.584 360.347C147.569 360.026 147.335 359.748 147.028 359.66C146.706 359.572 146.384 359.47 146.047 359.367C145.74 359.265 145.535 358.972 145.55 358.635C145.755 351.568 147.935 277.585 152.734 243.755C152.851 242.935 151.754 242.57 151.344 243.287C142.623 258.739 107.856 321.117 95.4624 354.802C95.3453 355.138 94.9941 355.329 94.6429 355.285C94.5259 355.27 94.3942 355.241 94.2625 355.226C93.8967 355.168 93.5455 355.372 93.4285 355.709L91.5262 361.108C91.453 361.313 91.4823 361.518 91.5701 361.708C92.287 363.084 92.7407 364.957 92.2871 367.444C91.453 371.995 89.902 379.165 87.0633 385.208L87.7217 384.901L216.283 392.799L219.553 398.613L80.4054 392.115C80.0103 392.203 79.6006 392.261 79.1763 392.276C77.0106 392.378 74.2012 392.159 71.6405 390.9C69.5334 389.876 68.4798 387.681 68.9335 385.574Z" fill="#91B3FA"/>
<path d="M269.066 260.367L287.283 260.602L280.904 254.602C279.323 253.11 276.894 252.876 275.065 254.061C273.997 254.749 272.826 255.7 271.831 256.943C271.831 256.943 260.462 252.788 254.96 243.496C253.248 246.042 251.243 249.51 249.502 253.827C254.448 256.724 260.842 259.007 269.066 260.367Z" fill="url(#paint1_linear)"/>
<path d="M292.756 390.291C287.912 390.715 279.484 391.388 272.855 391.681C268.861 391.857 266.563 391.462 265.246 390.935C265.246 391.081 265.247 391.228 265.261 391.359C265.29 392.062 265.861 392.618 266.563 392.661C279.104 393.364 289.068 392.91 292.624 392.691C293.356 392.647 293.795 391.842 293.414 391.227C293.239 390.906 293.005 390.598 292.756 390.291Z" fill="url(#paint2_linear)"/>
<path d="M272.856 391.681C279.499 391.389 287.912 390.716 292.756 390.291C287.986 384.438 272.856 380.502 272.856 380.502H268.583C265.642 384.745 265.217 388.769 265.247 390.95C266.578 391.462 268.875 391.857 272.856 391.681Z" fill="url(#paint3_linear)"/>
<path d="M267.866 373.523L268.261 381.44C268.304 382.303 268.948 383.02 269.797 383.137C270.646 383.254 271.802 383.269 273.002 382.874C273.748 382.625 274.304 381.996 274.436 381.235L275.811 373.523H267.866Z" fill="url(#paint4_linear)"/>
<path d="M218.247 397.093C216.14 396.757 215.189 395.484 214.794 394.123C214.794 394.138 214.794 394.152 214.779 394.167C214.472 395.601 215.189 397.093 216.623 397.796C218.349 398.645 220.252 398.791 221.729 398.732C223.31 398.659 224.758 397.898 225.549 396.684L225.563 396.669C223.983 397.562 221.759 397.664 218.247 397.093Z" fill="url(#paint5_linear)"/>
<path d="M228.167 375.95H224.641C219.27 375.819 215.905 389.002 214.793 394.109C215.188 395.47 216.139 396.743 218.246 397.08C221.758 397.65 223.982 397.548 225.562 396.626C228.46 392.178 229.908 385.666 230.596 381.876C231.386 377.574 228.167 375.95 228.167 375.95Z" fill="url(#paint6_linear)"/>
<path d="M225.094 368.605L223.134 376.39C222.899 377.341 223.353 378.336 224.231 378.79C225.328 379.346 226.865 379.946 228.284 379.77C228.957 379.697 229.499 379.214 229.718 378.6L232.586 370.405L225.094 368.605Z" fill="url(#paint7_linear)"/>
<path d="M293.955 266.074C293.955 266.074 276.469 375.423 276.747 376.023C276.747 376.023 271.919 378.218 266.651 376.301C266.651 376.301 268.231 317.844 271.933 295.441C271.933 295.441 242.083 347.695 232.601 373.726C232.601 373.726 227.655 373.141 223.558 370.448C223.558 370.448 255.706 276.404 264.28 263.879L293.955 266.074Z" fill="url(#paint8_linear)"/>
<path opacity="0.6" d="M272.636 295.194C272.49 295.194 272.329 295.15 272.182 295.062C271.787 294.814 271.67 294.287 271.919 293.892L278.46 283.444C278.577 283.254 278.782 283.108 279.016 283.064L283.83 282.098C284.284 281.995 284.737 282.303 284.825 282.756C284.913 283.21 284.62 283.664 284.167 283.751L279.718 284.644L273.368 294.784C273.192 295.048 272.929 295.194 272.636 295.194Z" fill="url(#paint9_linear)"/>
<path d="M295.741 195.413C292.799 189.238 267.397 188.595 248.784 194.74C244.863 196.028 241.702 198.925 240.063 202.686C235.03 214.245 226.88 240.555 249.502 253.827C251.243 249.51 253.247 246.042 254.959 243.496C251.316 237.35 250.233 228.951 256.701 218.021C261.412 230.751 263.622 249.334 264.09 257.543C264.237 260.25 263.768 262.957 262.7 265.445L262.583 265.723C262.349 266.264 262.671 266.879 263.242 266.996C275.972 269.864 289.229 269.074 293.18 268.752C293.882 268.693 294.468 268.181 294.628 267.508C300.847 241.418 300.174 204.705 295.741 195.413Z" fill="url(#paint10_linear)"/>
<path d="M267.939 174.518C267.939 174.518 266.651 188.141 265.51 192.179C265.334 192.794 265.598 193.438 266.154 193.759C268.085 194.857 272.695 196.657 279.016 193.555C280.04 193.057 280.655 191.989 280.611 190.862L280.055 177.693L267.939 174.518Z" fill="url(#paint11_linear)"/>
<path d="M280.333 157.09C280.333 157.09 284.459 166.557 284.737 171.532C285.016 176.507 286.084 179.726 280.333 180.722C274.582 181.717 269.754 178.863 267.12 173.903C267.12 173.903 263.008 166.279 263.93 163.148C264.866 160.031 280.333 157.09 280.333 157.09Z" fill="url(#paint12_linear)"/>
<path d="M269.095 170.348L269.417 170.202C269.827 170.012 270.017 169.529 269.797 169.119C268.993 167.553 267.412 163.968 269.446 163.134C272.08 162.052 282.498 159.93 284.737 156.242C286.903 152.687 284.986 148.107 282.103 146.804C281.913 146.717 281.679 146.79 281.591 146.98L281.357 147.434C281.196 147.741 280.728 147.697 280.64 147.36C280.552 147.039 280.113 146.98 279.938 147.258C279.25 148.37 277.377 150.155 272.387 151.077C265.305 152.379 260.608 155.247 260.491 160.149C260.476 160.457 260.154 160.632 259.891 160.471C259.364 160.149 258.53 160.003 257.404 160.94C255.457 162.578 256.248 166.822 260.52 170.319C260.725 170.48 260.725 170.802 260.506 170.948C259.73 171.446 258.574 172.646 261.574 174.241C264.661 175.894 266.973 175.762 267.866 175.616C268.085 175.587 268.232 175.367 268.188 175.148L267.237 170.846C267.178 170.597 267.368 170.378 267.617 170.378H269.095V170.348Z" fill="url(#paint13_linear)"/>
<path d="M269.27 171.254C269.27 171.254 267.705 165.211 264.983 166.908C262.276 168.605 266.388 173.683 268.568 173.917L269.27 171.254Z" fill="url(#paint14_linear)"/>
<path d="M264.354 262.213H311.5C311.836 262.213 312.115 261.935 312.115 261.598V210.296C312.115 209.96 311.836 209.682 311.5 209.682H264.354C264.017 209.682 263.739 209.96 263.739 210.296V261.598C263.739 261.92 264.017 262.213 264.354 262.213Z" fill="url(#paint15_linear)"/>
<path d="M270.382 262.226H317.529C317.865 262.226 318.143 261.948 318.143 261.612V210.31C318.143 209.973 317.865 209.695 317.529 209.695H270.382C270.046 209.695 269.768 209.973 269.768 210.31V261.612C269.753 261.948 270.046 262.226 270.382 262.226Z" fill="url(#paint16_linear)"/>
<path d="M261.442 253.037C261.442 253.037 262.993 250.447 266.607 250.447C268.48 250.447 270.485 252.247 271.992 253.974C273.309 255.481 272.885 257.837 271.129 258.788C269.475 259.68 267.617 260.807 266.622 261.817C264.544 263.88 261.442 257.164 261.442 253.037Z" fill="url(#paint17_linear)"/>
<defs>
<linearGradient id="paint0_linear" x1="447.722" y1="476.035" x2="158.472" y2="168.124" gradientUnits="userSpaceOnUse">
<stop stop-color="#DAE3FE"/>
<stop offset="1" stop-color="#E9EFFD"/>
</linearGradient>
<linearGradient id="paint1_linear" x1="292.094" y1="220.596" x2="275.603" y2="245.332" gradientUnits="userSpaceOnUse">
<stop stop-color="#FEBBBA"/>
<stop offset="1" stop-color="#FF928E"/>
</linearGradient>
<linearGradient id="paint2_linear" x1="265.252" y1="391.66" x2="293.563" y2="391.66" gradientUnits="userSpaceOnUse">
<stop stop-color="#4F52FF"/>
<stop offset="1" stop-color="#4042E2"/>
</linearGradient>
<linearGradient id="paint3_linear" x1="293.468" y1="344.296" x2="287.023" y2="364.311" gradientUnits="userSpaceOnUse">
<stop stop-color="#09005D"/>
<stop offset="1" stop-color="#1A0F91"/>
</linearGradient>
<linearGradient id="paint4_linear" x1="267.865" y1="378.366" x2="275.84" y2="378.366" gradientUnits="userSpaceOnUse">
<stop stop-color="#FEBBBA"/>
<stop offset="1" stop-color="#FF928E"/>
</linearGradient>
<linearGradient id="paint5_linear" x1="214.721" y1="396.425" x2="225.57" y2="396.425" gradientUnits="userSpaceOnUse">
<stop stop-color="#4F52FF"/>
<stop offset="1" stop-color="#4042E2"/>
</linearGradient>
<linearGradient id="paint6_linear" x1="242.198" y1="327.784" x2="235.752" y2="347.799" gradientUnits="userSpaceOnUse">
<stop stop-color="#09005D"/>
<stop offset="1" stop-color="#1A0F91"/>
</linearGradient>
<linearGradient id="paint7_linear" x1="223.076" y1="374.206" x2="232.607" y2="374.206" gradientUnits="userSpaceOnUse">
<stop stop-color="#FEBBBA"/>
<stop offset="1" stop-color="#FF928E"/>
</linearGradient>
<linearGradient id="paint8_linear" x1="300.164" y1="271.359" x2="218.796" y2="404.649" gradientUnits="userSpaceOnUse">
<stop stop-color="#09005D"/>
<stop offset="1" stop-color="#1A0F91"/>
</linearGradient>
<linearGradient id="paint9_linear" x1="243.485" y1="221.541" x2="292.919" y2="316.775" gradientUnits="userSpaceOnUse">
<stop stop-color="#4F52FF"/>
<stop offset="1" stop-color="#4042E2"/>
</linearGradient>
<linearGradient id="paint10_linear" x1="140.21" y1="111.333" x2="196.523" y2="159.743" gradientUnits="userSpaceOnUse">
<stop stop-color="#09005D"/>
<stop offset="1" stop-color="#1A0F91"/>
</linearGradient>
<linearGradient id="paint11_linear" x1="270.029" y1="205.194" x2="274.158" y2="183.515" gradientUnits="userSpaceOnUse">
<stop stop-color="#FEBBBA"/>
<stop offset="1" stop-color="#FF928E"/>
</linearGradient>
<linearGradient id="paint12_linear" x1="281.203" y1="165.419" x2="257.642" y2="183.447" gradientUnits="userSpaceOnUse">
<stop stop-color="#FEBBBA"/>
<stop offset="1" stop-color="#FF928E"/>
</linearGradient>
<linearGradient id="paint13_linear" x1="352.933" y1="225.99" x2="275.876" y2="163.752" gradientUnits="userSpaceOnUse">
<stop stop-color="#09005D"/>
<stop offset="1" stop-color="#1A0F91"/>
</linearGradient>
<linearGradient id="paint14_linear" x1="278.28" y1="161.599" x2="254.719" y2="179.627" gradientUnits="userSpaceOnUse">
<stop stop-color="#FEBBBA"/>
<stop offset="1" stop-color="#FF928E"/>
</linearGradient>
<linearGradient id="paint15_linear" x1="247.828" y1="285.279" x2="380.071" y2="122.551" gradientUnits="userSpaceOnUse">
<stop stop-color="#E1473D"/>
<stop offset="1" stop-color="#E9605A"/>
</linearGradient>
<linearGradient id="paint16_linear" x1="268.301" y1="216.35" x2="322.573" y2="257.807" gradientUnits="userSpaceOnUse">
<stop stop-color="#FF928E"/>
<stop offset="1" stop-color="#FE7062"/>
</linearGradient>
<linearGradient id="paint17_linear" x1="271.847" y1="247.893" x2="260.977" y2="264.199" gradientUnits="userSpaceOnUse">
<stop stop-color="#FEBBBA"/>
<stop offset="1" stop-color="#FF928E"/>
</linearGradient>
</defs>
</svg>
