<svg width="411" height="407" viewBox="0 0 411 407" fill="none" xmlns="http://www.w3.org/2000/svg">
<path d="M212.124 0.0912182C107.267 -3.00489 16.4393 73.078 2.71607 172.909C-12.2863 282.061 70.2912 380.27 171.899 396.001C298.283 415.566 420.868 302.379 409.862 179.587C401.569 87.0687 318.711 3.2382 212.124 0.0912182Z" fill="#E6ECFA"/>
<path d="M280.485 26.6007L25.0776 15.4663C21.198 15.2977 18.0466 18.5188 18.0466 22.6658V364.11C18.0466 368.256 21.198 371.378 25.0776 371.076L280.485 351.452C283.713 351.205 286.325 347.948 286.325 344.185V33.6781C286.325 29.9075 283.713 26.7373 280.485 26.6007Z" fill="#BFC8D6"/>
<path d="M286.82 23.4387L30.7132 12.4729C26.8234 12.3072 23.6633 15.537 23.6633 19.687V361.588C23.6633 365.738 26.8234 368.855 30.7132 368.565L286.82 348.769C290.058 348.519 292.677 345.255 292.677 341.48V30.5248C292.677 26.7455 290.058 23.5782 286.82 23.4387Z" fill="#D8DEE8"/>
<path d="M158.184 29.932C158.184 32.9845 160.407 35.5559 163.144 35.6605C165.881 35.7652 168.086 33.3799 168.086 30.3303C168.086 27.2807 165.875 24.718 163.144 24.6017C160.412 24.4854 158.184 26.8722 158.184 29.932Z" fill="white"/>
<path opacity="0.74" d="M45.6879 346.192L271.591 330.7C273.845 330.546 275.669 328.3 275.669 325.684V49.8885C275.669 47.2721 273.845 45.0917 271.591 45.0031L45.6879 36.7657C43.0395 36.6697 40.8911 38.8952 40.8911 41.7369V341.374C40.8882 344.217 43.0395 346.374 45.6879 346.192Z" fill="white"/>
<g style="mix-blend-mode:soft-light" opacity="0.51">
<path d="M202.283 154.888C210.897 152.461 213.475 156.591 220.338 153.305C228.507 149.395 234.53 139.229 235.535 129.154C236.959 114.861 227.937 104.047 221.666 96.5289C207.033 78.9886 188.743 74.1875 183.309 72.8458C175.847 71.0041 142.925 64.1549 115.535 89.2014C95.8175 107.226 90.9117 130.81 89.541 137.874C87.5423 148.186 81.2556 180.566 97.5356 192.462C106.984 199.375 121.896 197.718 131.193 191.119C137.958 186.322 136.571 183.153 143.175 178.473C156.164 169.264 165.086 179.915 179.895 172.658C191.477 166.966 190.417 158.233 202.283 154.888Z" fill="white"/>
</g>
<path d="M78.4765 344.383L92.6386 249.502C95.0835 233.121 90.2431 216.652 79.5565 205.105C73.6128 198.681 69.8568 190.195 69.0151 181.045C67.7069 166.753 67.8596 143.397 76.5025 114.963C87.929 77.3587 122.145 55.2484 156.945 61.8084C173.951 65.015 193.502 71.4296 213.768 83.519C225.293 90.3929 233.141 103.288 234.381 117.899C234.962 124.69 236.022 132.211 237.96 138.893C240.393 147.29 241.448 153.039 241.884 156.772C242.28 160.154 241.133 163.543 238.877 165.784C236.551 168.095 235.97 171.975 237.502 175.011L254.379 208.513V209.605C254.379 212.974 252.117 215.826 249.201 216.126L238.995 217.178L239.381 229.206C239.457 231.532 238.128 233.651 236.173 234.327L233.827 235.138L235.968 237.028C237.712 238.567 238.163 241.373 237.042 243.623L234.02 249.683C232.653 252.427 232.849 255.796 234.516 258.189C237.278 262.141 237.833 267.602 235.977 272.379L235.134 274.549C231.224 284.612 221.885 290.639 212.5 289.057C201.786 287.25 187.935 284.211 178.341 279.549C175.6 278.218 172.437 280.648 172.437 284.064V337.912L78.4765 344.383Z" fill="url(#paint0_linear)"/>
<path d="M98.0527 135.037L141.42 135.182C141.465 135.182 141.51 135.173 141.552 135.155C141.593 135.136 141.631 135.11 141.661 135.076L154.802 121.299L211.346 121.773C211.392 121.77 211.438 121.758 211.48 121.738C211.522 121.717 211.559 121.689 211.59 121.654C211.621 121.619 211.645 121.578 211.66 121.534C211.675 121.49 211.681 121.443 211.678 121.397C211.684 121.302 211.653 121.209 211.591 121.137C211.528 121.065 211.44 121.021 211.346 121.014L154.669 120.524C154.625 120.525 154.58 120.534 154.539 120.552C154.498 120.57 154.461 120.596 154.431 120.629L141.286 134.405L98.2068 134.245L91.8023 127.218C91.7705 127.181 91.7312 127.152 91.6871 127.132C91.643 127.111 91.5951 127.101 91.5465 127.1L84.6421 127.058C84.5922 127.06 84.5431 127.071 84.4977 127.092C84.4523 127.113 84.4114 127.142 84.3775 127.179C84.3436 127.216 84.3173 127.259 84.3 127.306C84.2828 127.352 84.2751 127.402 84.2772 127.452C84.2733 127.553 84.3094 127.652 84.3777 127.726C84.446 127.801 84.541 127.846 84.6421 127.85L91.3968 127.891L97.8027 134.918C97.834 134.954 97.8724 134.983 97.9154 135.003C97.9584 135.024 98.0051 135.035 98.0527 135.037Z" fill="white"/>
<path d="M97.691 131.083L141.071 131.291C141.117 131.291 141.161 131.281 141.202 131.263C141.244 131.245 141.281 131.218 141.311 131.185L154.455 117.424L211.34 117.978C211.387 117.975 211.432 117.964 211.475 117.943C211.517 117.923 211.554 117.894 211.585 117.859C211.616 117.824 211.64 117.783 211.655 117.739C211.67 117.695 211.676 117.648 211.673 117.602C211.679 117.507 211.647 117.414 211.585 117.342C211.522 117.271 211.435 117.227 211.34 117.219L154.316 116.649C154.272 116.649 154.227 116.658 154.186 116.676C154.145 116.694 154.109 116.72 154.078 116.753L140.932 130.512L97.8408 130.294L91.4349 123.263C91.4029 123.227 91.3636 123.197 91.3195 123.177C91.2755 123.157 91.2276 123.146 91.1791 123.145L86.8183 123.112C86.7686 123.114 86.7197 123.126 86.6744 123.146C86.6292 123.167 86.5885 123.197 86.5547 123.233C86.521 123.27 86.4948 123.313 86.4776 123.36C86.4605 123.406 86.4528 123.456 86.4549 123.506C86.451 123.607 86.4869 123.705 86.5549 123.78C86.6229 123.854 86.7176 123.899 86.8183 123.904L91.0337 123.935L97.4425 130.971C97.4743 131.006 97.5127 131.033 97.5554 131.053C97.5981 131.072 97.6442 131.082 97.691 131.083Z" fill="white"/>
<path d="M97.3304 127.131L140.721 127.399C140.766 127.399 140.811 127.39 140.852 127.372C140.893 127.354 140.93 127.327 140.961 127.294L154.107 113.549L209.09 114.16C209.136 114.157 209.182 114.146 209.224 114.125C209.266 114.105 209.304 114.077 209.335 114.042C209.366 114.007 209.39 113.966 209.405 113.922C209.421 113.878 209.427 113.831 209.424 113.785C209.429 113.69 209.397 113.597 209.335 113.525C209.272 113.453 209.185 113.409 209.09 113.401L153.969 112.774C153.924 112.774 153.88 112.783 153.839 112.801C153.798 112.819 153.761 112.845 153.73 112.878L140.581 126.621L97.4801 126.344L91.0728 119.297C91.0404 119.26 91.0008 119.231 90.9565 119.21C90.9123 119.19 90.8642 119.179 90.8155 119.177L88.2746 119.156C88.2249 119.157 88.176 119.169 88.1308 119.189C88.0856 119.21 88.0449 119.24 88.0111 119.276C87.9773 119.313 87.9511 119.355 87.934 119.402C87.9168 119.449 87.9091 119.498 87.9112 119.548C87.9073 119.649 87.9431 119.748 88.0111 119.822C88.0791 119.897 88.1737 119.942 88.2746 119.948L90.6658 119.968L97.0745 127.015C97.1068 127.051 97.1462 127.08 97.1902 127.1C97.2343 127.12 97.282 127.131 97.3304 127.131Z" fill="white"/>
<path d="M96.9683 123.183L140.378 123.51C140.423 123.51 140.467 123.5 140.509 123.482C140.55 123.464 140.587 123.437 140.618 123.404L153.768 109.677L209.097 110.367C209.144 110.364 209.189 110.353 209.231 110.332C209.273 110.312 209.311 110.284 209.342 110.249C209.373 110.214 209.397 110.173 209.412 110.129C209.427 110.085 209.434 110.039 209.431 109.992C209.437 109.897 209.405 109.804 209.342 109.732C209.28 109.66 209.192 109.616 209.097 109.608L153.63 108.9C153.585 108.901 153.541 108.91 153.5 108.928C153.458 108.945 153.421 108.971 153.39 109.004L140.232 122.731L97.118 122.391L90.7092 115.334C90.6772 115.297 90.6377 115.268 90.5935 115.248C90.5492 115.228 90.5012 115.218 90.4527 115.218C90.4041 115.218 90.3561 115.228 90.3119 115.248C90.2676 115.268 90.2282 115.297 90.1961 115.334C90.1279 115.411 90.0903 115.511 90.0903 115.614C90.0903 115.717 90.1279 115.816 90.1961 115.894L96.7139 123.067C96.7461 123.103 96.7852 123.132 96.829 123.152C96.8728 123.172 96.9202 123.182 96.9683 123.183Z" fill="white"/>
<path d="M98.774 195.013C98.8226 195.011 98.8704 195 98.9144 194.979C98.9584 194.958 98.9977 194.929 99.0298 194.892L110.525 182.117C110.593 182.04 110.63 181.94 110.629 181.838V137.825C110.634 137.775 110.628 137.725 110.612 137.678C110.596 137.631 110.57 137.587 110.537 137.55C110.503 137.514 110.462 137.484 110.417 137.464C110.371 137.444 110.322 137.434 110.272 137.434C110.222 137.434 110.173 137.444 110.127 137.464C110.081 137.484 110.04 137.514 110.007 137.55C109.973 137.587 109.947 137.631 109.932 137.678C109.916 137.725 109.91 137.775 109.914 137.825V181.685L98.5153 194.343C98.4472 194.42 98.4097 194.519 98.4097 194.622C98.4097 194.725 98.4472 194.824 98.5153 194.901C98.5478 194.937 98.5878 194.966 98.6324 194.985C98.6771 195.004 98.7254 195.014 98.774 195.013Z" fill="white"/>
<path d="M94.0774 193.512C94.126 193.511 94.1737 193.5 94.2177 193.479C94.2618 193.459 94.3011 193.43 94.3332 193.393L106.942 179.408C107.011 179.332 107.048 179.232 107.048 179.129V137.816C107.052 137.716 107.016 137.619 106.949 137.545C106.882 137.471 106.788 137.427 106.689 137.422C106.639 137.424 106.591 137.436 106.546 137.457C106.501 137.477 106.461 137.507 106.427 137.543C106.394 137.58 106.368 137.623 106.351 137.669C106.335 137.716 106.327 137.765 106.33 137.814V178.975L93.8201 192.842C93.752 192.92 93.7144 193.019 93.7144 193.122C93.7144 193.225 93.752 193.325 93.8201 193.402C93.8529 193.437 93.8927 193.465 93.937 193.484C93.9814 193.503 94.0292 193.513 94.0774 193.512Z" fill="white"/>
<path d="M90.4534 190.805C90.502 190.804 90.5498 190.792 90.5938 190.771C90.6379 190.751 90.6771 190.721 90.7092 190.684L103.355 176.695C103.423 176.617 103.46 176.518 103.46 176.415V137.808C103.46 137.711 103.422 137.619 103.354 137.551C103.285 137.483 103.193 137.444 103.097 137.444C103 137.444 102.908 137.483 102.84 137.551C102.771 137.619 102.733 137.711 102.733 137.808V176.261L90.1961 190.128C90.1279 190.205 90.0903 190.304 90.0903 190.407C90.0903 190.51 90.1279 190.61 90.1961 190.687C90.2283 190.724 90.2678 190.753 90.3121 190.774C90.3565 190.794 90.4046 190.805 90.4534 190.805Z" fill="white"/>
<path d="M86.8196 188.093C86.8684 188.092 86.9164 188.08 86.9607 188.06C87.005 188.039 87.0445 188.01 87.0768 187.973L99.7505 173.978C99.8183 173.901 99.8555 173.801 99.8552 173.698V137.799C99.8552 137.703 99.8169 137.61 99.7488 137.542C99.6806 137.474 99.5882 137.436 99.4918 137.436C99.3954 137.436 99.303 137.474 99.2348 137.542C99.1667 137.61 99.1284 137.703 99.1284 137.799V173.539L86.5565 187.418C86.4883 187.495 86.4507 187.595 86.4507 187.698C86.4507 187.801 86.4883 187.9 86.5565 187.978C86.5893 188.015 86.6299 188.044 86.6753 188.064C86.7207 188.084 86.77 188.094 86.8196 188.093Z" fill="white"/>
<path d="M84.2699 184.167C84.3187 184.166 84.3668 184.155 84.411 184.134C84.4553 184.114 84.4949 184.084 84.5272 184.048L96.1383 171.256C96.2071 171.179 96.2449 171.079 96.2444 170.976V137.789C96.2444 137.693 96.2062 137.6 96.138 137.532C96.0699 137.464 95.9774 137.426 95.8811 137.426C95.7847 137.426 95.6922 137.464 95.6241 137.532C95.5559 137.6 95.5177 137.693 95.5177 137.789V170.809L84.0083 183.488C83.9394 183.565 83.9014 183.665 83.9014 183.769C83.9014 183.872 83.9394 183.972 84.0083 184.049C84.0409 184.086 84.0812 184.116 84.1263 184.136C84.1715 184.157 84.2204 184.167 84.2699 184.167Z" fill="white"/>
<path d="M178.736 165.998C178.782 165.997 178.828 165.986 178.869 165.966C178.911 165.946 178.948 165.918 178.978 165.883C179.042 165.807 179.077 165.711 179.077 165.612C179.077 165.513 179.042 165.417 178.978 165.341L166.307 151.171C166.276 151.137 166.239 151.109 166.197 151.09C166.155 151.071 166.11 151.06 166.064 151.06L113.846 151.174C113.748 151.183 113.656 151.228 113.59 151.301C113.523 151.373 113.486 151.468 113.486 151.567C113.486 151.665 113.523 151.761 113.59 151.833C113.656 151.906 113.748 151.951 113.846 151.959L165.922 151.831L178.495 165.883C178.525 165.918 178.562 165.947 178.603 165.967C178.645 165.986 178.69 165.997 178.736 165.998Z" fill="white"/>
<path d="M180.44 162.535C180.486 162.534 180.531 162.523 180.573 162.504C180.614 162.484 180.651 162.456 180.681 162.421C180.745 162.345 180.781 162.249 180.781 162.15C180.781 162.051 180.745 161.955 180.681 161.879L168.025 147.707C167.995 147.672 167.958 147.644 167.916 147.625C167.874 147.605 167.828 147.595 167.782 147.595L115.63 147.646C115.533 147.656 115.443 147.702 115.378 147.774C115.313 147.846 115.277 147.94 115.277 148.037C115.277 148.135 115.313 148.229 115.378 148.301C115.443 148.373 115.533 148.419 115.63 148.429L167.64 148.365L180.199 162.424C180.229 162.459 180.266 162.486 180.308 162.505C180.349 162.524 180.394 162.534 180.44 162.535Z" fill="white"/>
<path d="M182.142 159.073C182.188 159.073 182.233 159.063 182.274 159.043C182.316 159.023 182.352 158.995 182.382 158.96C182.446 158.885 182.482 158.788 182.482 158.689C182.482 158.59 182.446 158.493 182.382 158.418L169.736 144.24C169.706 144.205 169.668 144.177 169.626 144.158C169.585 144.138 169.539 144.128 169.493 144.128L117.403 144.113C117.306 144.124 117.216 144.169 117.151 144.242C117.086 144.314 117.05 144.408 117.05 144.505C117.05 144.602 117.086 144.696 117.151 144.769C117.216 144.841 117.306 144.887 117.403 144.897H169.351L181.893 158.963C181.924 158.999 181.962 159.027 182.005 159.046C182.048 159.065 182.095 159.075 182.142 159.073Z" fill="white"/>
<path d="M183.84 155.618C183.886 155.618 183.931 155.608 183.972 155.588C184.013 155.569 184.05 155.541 184.08 155.506C184.144 155.431 184.18 155.335 184.18 155.235C184.18 155.136 184.144 155.04 184.08 154.964L171.456 140.779C171.426 140.744 171.388 140.715 171.347 140.696C171.305 140.676 171.259 140.666 171.213 140.665L119.189 140.587C119.091 140.595 119 140.64 118.933 140.713C118.866 140.786 118.829 140.881 118.829 140.979C118.829 141.078 118.866 141.173 118.933 141.246C119 141.318 119.091 141.363 119.189 141.372L171.072 141.434L183.6 155.508C183.63 155.543 183.666 155.571 183.708 155.59C183.749 155.609 183.794 155.619 183.84 155.618Z" fill="white"/>
<path d="M211.132 152.86C211.177 152.859 211.221 152.848 211.262 152.829C211.303 152.81 211.339 152.782 211.368 152.748L221.942 140.683C222.006 140.608 222.041 140.513 222.04 140.415V114.209C222.041 114.111 222.006 114.016 221.942 113.942L207.087 96.7981V93.2529C207.092 93.1576 207.06 93.0641 206.998 92.992C206.935 92.9198 206.847 92.8747 206.753 92.8662C206.706 92.8684 206.66 92.8799 206.618 92.8999C206.576 92.92 206.538 92.9482 206.507 92.983C206.476 93.0177 206.452 93.0584 206.437 93.1025C206.422 93.1465 206.415 93.1932 206.418 93.2398V96.9435C206.417 97.0426 206.452 97.1386 206.517 97.2139L221.378 114.366V140.254L210.897 152.213C210.833 152.288 210.799 152.383 210.799 152.481C210.799 152.579 210.833 152.674 210.897 152.749C210.926 152.783 210.962 152.811 211.002 152.83C211.043 152.849 211.087 152.859 211.132 152.86Z" fill="white"/>
<path d="M207.796 152.11C207.841 152.11 207.886 152.1 207.927 152.081C207.968 152.061 208.004 152.033 208.033 151.998L218.634 139.918C218.698 139.843 218.733 139.748 218.731 139.65V113.418C218.732 113.319 218.698 113.224 218.634 113.149L203.742 95.9806V90.9091C203.747 90.8138 203.715 90.7202 203.652 90.6481C203.59 90.576 203.501 90.531 203.406 90.5225C203.36 90.5247 203.314 90.5361 203.272 90.5562C203.23 90.5762 203.192 90.6045 203.161 90.6392C203.13 90.674 203.106 90.7146 203.091 90.7587C203.075 90.8028 203.069 90.8495 203.072 90.896V96.1289C203.071 96.2277 203.106 96.3235 203.169 96.3992L218.068 113.569V139.496L207.561 151.462C207.497 151.537 207.463 151.632 207.463 151.73C207.463 151.828 207.497 151.923 207.561 151.998C207.589 152.033 207.625 152.061 207.666 152.081C207.707 152.1 207.751 152.11 207.796 152.11Z" fill="white"/>
<path d="M204.453 151.359C204.498 151.359 204.543 151.349 204.584 151.329C204.625 151.31 204.661 151.282 204.69 151.247L215.317 139.155C215.381 139.08 215.415 138.985 215.414 138.887V112.623C215.415 112.524 215.381 112.429 215.317 112.354L200.389 95.1596V87.7958C200.394 87.7004 200.362 87.6066 200.299 87.5345C200.236 87.4623 200.148 87.4173 200.053 87.4092C200.006 87.411 199.96 87.4222 199.918 87.4421C199.875 87.462 199.837 87.4902 199.806 87.525C199.775 87.5599 199.751 87.6006 199.735 87.6449C199.72 87.6892 199.714 87.736 199.717 87.7828V95.3021C199.716 95.4017 199.751 95.4983 199.816 95.5739L214.75 112.768V138.729L204.216 150.711C204.152 150.786 204.118 150.881 204.118 150.98C204.118 151.078 204.152 151.173 204.216 151.249C204.245 151.283 204.281 151.311 204.322 151.33C204.363 151.349 204.408 151.359 204.453 151.359Z" fill="white"/>
<path d="M198.71 152.896C198.804 152.889 198.893 152.845 198.955 152.774C199.018 152.702 199.051 152.609 199.045 152.514V149.245L208.658 138.334C208.722 138.26 208.757 138.164 208.757 138.065V124.402C208.762 124.307 208.73 124.214 208.667 124.143C208.605 124.071 208.517 124.027 208.422 124.02C208.375 124.022 208.33 124.034 208.288 124.055C208.245 124.075 208.208 124.104 208.177 124.139C208.146 124.174 208.122 124.215 208.107 124.259C208.091 124.304 208.085 124.351 208.088 124.397V137.906L198.471 148.816C198.407 148.891 198.372 148.987 198.372 149.086V152.514C198.366 152.609 198.398 152.703 198.462 152.775C198.525 152.847 198.614 152.89 198.71 152.896Z" fill="white"/>
<path d="M195.345 152.906C195.44 152.899 195.529 152.856 195.592 152.784C195.654 152.712 195.686 152.619 195.68 152.523V149.25L205.318 138.326C205.381 138.252 205.416 138.157 205.415 138.059V124.379C205.42 124.285 205.388 124.192 205.326 124.12C205.263 124.049 205.175 124.005 205.081 123.997C205.034 124 204.988 124.012 204.946 124.032C204.904 124.053 204.866 124.081 204.835 124.117C204.804 124.152 204.78 124.193 204.765 124.237C204.75 124.281 204.743 124.328 204.746 124.375V137.893L195.106 148.818C195.042 148.893 195.006 148.988 195.007 149.087V152.521C195.004 152.568 195.01 152.616 195.025 152.661C195.04 152.706 195.063 152.748 195.095 152.784C195.126 152.82 195.165 152.849 195.207 152.87C195.25 152.891 195.297 152.903 195.345 152.906Z" fill="white"/>
<path d="M191.971 152.916C192.066 152.91 192.155 152.866 192.218 152.794C192.281 152.723 192.313 152.629 192.308 152.534V149.256L201.968 138.319C202.032 138.245 202.067 138.149 202.066 138.051V124.355C202.071 124.26 202.039 124.167 201.976 124.095C201.913 124.024 201.825 123.98 201.73 123.973C201.683 123.975 201.637 123.987 201.595 124.008C201.553 124.028 201.515 124.057 201.484 124.092C201.453 124.127 201.429 124.168 201.414 124.213C201.399 124.257 201.393 124.304 201.396 124.351V137.892L191.732 148.829C191.667 148.904 191.631 149 191.632 149.099V152.535C191.626 152.631 191.659 152.724 191.722 152.796C191.786 152.867 191.875 152.911 191.971 152.916Z" fill="white"/>
<path d="M188.589 152.926C188.684 152.92 188.774 152.876 188.837 152.804C188.901 152.732 188.933 152.638 188.927 152.542V149.262L198.611 138.311C198.675 138.236 198.711 138.14 198.71 138.042V124.33C198.715 124.235 198.683 124.141 198.62 124.069C198.557 123.998 198.468 123.953 198.373 123.946C198.278 123.952 198.189 123.996 198.127 124.067C198.064 124.138 198.031 124.231 198.037 124.326V137.883L188.346 148.833C188.281 148.908 188.246 149.004 188.247 149.103V152.545C188.244 152.593 188.251 152.64 188.267 152.685C188.283 152.73 188.307 152.771 188.339 152.807C188.37 152.842 188.409 152.871 188.452 152.891C188.495 152.912 188.541 152.924 188.589 152.926Z" fill="white"/>
<path d="M188.927 141.457C188.973 141.457 189.018 141.447 189.059 141.428C189.101 141.409 189.137 141.382 189.167 141.347C189.231 141.271 189.266 141.176 189.266 141.077C189.266 140.978 189.231 140.882 189.167 140.806L180 130.439C179.97 130.404 179.933 130.376 179.891 130.356C179.85 130.337 179.804 130.326 179.758 130.326L151.886 130.181C151.838 130.183 151.791 130.195 151.747 130.216C151.704 130.236 151.665 130.265 151.632 130.301C151.6 130.337 151.575 130.379 151.559 130.424C151.543 130.47 151.536 130.518 151.539 130.566C151.533 130.663 151.567 130.759 151.632 130.832C151.697 130.905 151.788 130.949 151.886 130.955L179.617 131.092L188.689 141.346C188.718 141.38 188.755 141.408 188.796 141.428C188.837 141.447 188.882 141.457 188.927 141.457Z" fill="white"/>
<path d="M111.702 194.787C111.75 194.785 111.797 194.774 111.841 194.753C111.885 194.732 111.923 194.703 111.955 194.666L132.434 171.812L167.095 171.483C167.192 171.477 167.282 171.433 167.347 171.36C167.411 171.287 167.444 171.192 167.439 171.095V157.229C167.445 157.181 167.44 157.132 167.425 157.086C167.41 157.039 167.386 156.996 167.353 156.96C167.321 156.924 167.281 156.895 167.237 156.875C167.192 156.855 167.144 156.845 167.095 156.845C167.047 156.845 166.999 156.855 166.954 156.875C166.91 156.895 166.87 156.924 166.837 156.96C166.805 156.996 166.781 157.039 166.766 157.086C166.751 157.132 166.746 157.181 166.752 157.229V170.714L132.289 171.031C132.241 171.032 132.195 171.042 132.151 171.062C132.108 171.082 132.07 171.111 132.039 171.147L111.452 194.12C111.384 194.196 111.347 194.295 111.347 194.397C111.347 194.5 111.384 194.598 111.452 194.675C111.483 194.71 111.522 194.738 111.565 194.758C111.608 194.777 111.655 194.787 111.702 194.787Z" fill="white"/>
<path d="M105.252 194.9C105.301 194.898 105.348 194.887 105.392 194.867C105.436 194.846 105.475 194.817 105.507 194.781L129.613 167.93L164.342 167.65C164.439 167.643 164.529 167.598 164.594 167.526C164.658 167.453 164.691 167.357 164.686 167.26V153.382C164.692 153.333 164.688 153.283 164.674 153.235C164.66 153.188 164.635 153.145 164.603 153.107C164.57 153.07 164.53 153.041 164.485 153.02C164.44 153 164.391 152.989 164.342 152.989C164.292 152.989 164.243 153 164.198 153.02C164.153 153.041 164.113 153.07 164.081 153.107C164.048 153.145 164.024 153.188 164.009 153.235C163.995 153.283 163.991 153.333 163.997 153.382V166.879L129.466 167.15C129.419 167.151 129.372 167.161 129.329 167.181C129.286 167.201 129.247 167.23 129.216 167.266L104.998 194.233C104.931 194.31 104.894 194.409 104.894 194.511C104.894 194.613 104.931 194.712 104.998 194.789C105.03 194.825 105.07 194.853 105.113 194.872C105.157 194.891 105.205 194.9 105.252 194.9Z" fill="white"/>
<path d="M113.487 178.659C113.535 178.658 113.582 178.646 113.626 178.626C113.669 178.606 113.708 178.577 113.74 178.541L126.784 164.044L161.582 163.81C161.679 163.804 161.77 163.76 161.834 163.687C161.899 163.614 161.933 163.518 161.927 163.421V153.391C161.933 153.343 161.928 153.293 161.913 153.247C161.898 153.2 161.874 153.157 161.841 153.121C161.809 153.084 161.769 153.055 161.724 153.035C161.68 153.015 161.631 153.005 161.582 153.005C161.533 153.005 161.485 153.015 161.44 153.035C161.396 153.055 161.356 153.084 161.323 153.121C161.291 153.157 161.266 153.2 161.251 153.247C161.236 153.293 161.232 153.343 161.237 153.391V163.041L126.642 163.265C126.595 163.266 126.548 163.276 126.505 163.296C126.462 163.316 126.423 163.345 126.392 163.38L113.239 177.993C113.171 178.07 113.134 178.168 113.134 178.27C113.134 178.373 113.171 178.471 113.239 178.548C113.27 178.583 113.308 178.611 113.351 178.63C113.394 178.649 113.44 178.659 113.487 178.659Z" fill="white"/>
<path d="M113.846 168.057C113.894 168.057 113.941 168.046 113.984 168.025C114.028 168.005 114.066 167.976 114.097 167.94L123.243 157.81L158.129 157.651C158.226 157.645 158.317 157.601 158.382 157.528C158.447 157.456 158.48 157.36 158.475 157.263C158.478 157.215 158.471 157.167 158.455 157.122C158.439 157.076 158.414 157.034 158.382 156.999C158.35 156.963 158.311 156.934 158.268 156.913C158.224 156.892 158.177 156.88 158.129 156.878L123.098 157.023C123.051 157.024 123.004 157.034 122.961 157.054C122.918 157.074 122.879 157.102 122.848 157.138L113.595 167.384C113.527 167.461 113.49 167.56 113.49 167.662C113.49 167.764 113.527 167.863 113.595 167.94C113.626 167.976 113.664 168.006 113.707 168.026C113.751 168.046 113.798 168.057 113.846 168.057Z" fill="white"/>
<path d="M100.216 114.53L138.618 114.935C138.664 114.936 138.711 114.926 138.753 114.906C138.796 114.887 138.834 114.859 138.865 114.823L149.349 103.305C149.416 103.23 149.452 103.132 149.451 103.032V84.4263C149.451 84.3251 149.415 84.2272 149.349 84.1501L140.968 74.638C140.938 74.6013 140.901 74.5716 140.859 74.5509C140.816 74.5301 140.77 74.5188 140.723 74.5177C140.676 74.5166 140.629 74.5257 140.586 74.5445C140.542 74.5632 140.504 74.5912 140.472 74.6263C140.406 74.7027 140.37 74.8002 140.37 74.901C140.37 75.0019 140.406 75.0995 140.472 75.1758L148.758 84.5717V102.862L138.475 114.155L100.368 113.743L95.7823 108.673C95.7503 108.637 95.7109 108.608 95.6668 108.588C95.6227 108.568 95.5749 108.558 95.5265 108.558C95.4781 108.558 95.4303 108.568 95.3862 108.588C95.3421 108.608 95.3027 108.637 95.2707 108.673C95.2026 108.75 95.165 108.85 95.165 108.952C95.165 109.055 95.2026 109.154 95.2707 109.232L99.9642 114.418C99.9964 114.453 100.035 114.48 100.079 114.5C100.122 114.519 100.168 114.529 100.216 114.53Z" fill="white"/>
<path d="M101.656 109.027L135.104 109.444C135.153 109.442 135.201 109.43 135.245 109.41C135.289 109.39 135.328 109.361 135.361 109.325C135.394 109.289 135.419 109.247 135.435 109.201C135.452 109.156 135.459 109.107 135.456 109.059V76.3358C135.461 76.2367 135.427 76.1398 135.361 76.0655C135.295 75.9912 135.203 75.9453 135.104 75.9375C135.056 75.9386 135.008 75.9494 134.964 75.9693C134.92 75.9892 134.881 76.0178 134.848 76.0533C134.815 76.0888 134.79 76.1306 134.773 76.1762C134.757 76.2217 134.75 76.27 134.753 76.3183V108.66L101.656 108.239C101.607 108.24 101.559 108.252 101.514 108.272C101.469 108.293 101.429 108.322 101.395 108.359C101.362 108.395 101.336 108.437 101.319 108.484C101.302 108.53 101.295 108.579 101.297 108.628C101.293 108.728 101.329 108.826 101.396 108.901C101.463 108.975 101.556 109.02 101.656 109.027Z" fill="white"/>
<path d="M96.2459 105.404L131.935 105.894C131.984 105.892 132.032 105.88 132.076 105.86C132.12 105.839 132.16 105.81 132.192 105.775C132.225 105.739 132.251 105.697 132.267 105.651C132.284 105.605 132.291 105.557 132.289 105.508V78.2088C132.293 78.1095 132.259 78.0125 132.193 77.9381C132.127 77.8638 132.035 77.818 131.935 77.8105C131.887 77.8116 131.839 77.8225 131.795 77.8424C131.751 77.8622 131.712 77.8908 131.679 77.9263C131.646 77.9619 131.621 78.0037 131.604 78.0492C131.588 78.0947 131.581 78.1431 131.584 78.1914V105.109L96.2459 104.614C96.1965 104.616 96.1479 104.627 96.103 104.648C96.058 104.668 96.0175 104.697 95.984 104.734C95.9504 104.77 95.9244 104.812 95.9075 104.859C95.8906 104.905 95.8831 104.955 95.8854 105.004C95.8814 105.104 95.9169 105.203 95.9843 105.277C96.0516 105.352 96.1455 105.397 96.2459 105.404Z" fill="white"/>
<path d="M99.1342 101.105L128.06 101.541C128.109 101.54 128.157 101.529 128.201 101.508C128.245 101.488 128.285 101.459 128.318 101.423C128.351 101.387 128.376 101.345 128.393 101.299C128.409 101.253 128.416 101.205 128.413 101.156V79.681C128.418 79.5816 128.384 79.4843 128.318 79.4097C128.252 79.3351 128.159 79.2891 128.06 79.2812C128.012 79.2825 127.964 79.2935 127.92 79.3136C127.876 79.3336 127.836 79.3623 127.803 79.3979C127.77 79.4335 127.745 79.4754 127.728 79.521C127.712 79.5666 127.704 79.6151 127.707 79.6635V100.758L99.1414 100.322C99.0921 100.323 99.0436 100.334 98.9986 100.354C98.9536 100.375 98.9132 100.404 98.8796 100.44C98.846 100.476 98.82 100.519 98.8031 100.565C98.7861 100.611 98.7786 100.661 98.7809 100.71C98.7783 100.808 98.8135 100.904 98.8791 100.978C98.9448 101.051 99.036 101.097 99.1342 101.105Z" fill="white"/>
<path d="M82.8164 177.832C82.9177 177.826 83.0127 177.781 83.081 177.706C83.1492 177.631 83.1853 177.532 83.1813 177.431V167.28L88.17 161.814C88.2392 161.736 88.2775 161.637 88.2775 161.533V133.81C88.282 133.76 88.276 133.709 88.2598 133.661C88.2436 133.613 88.2175 133.569 88.1834 133.532C88.1492 133.494 88.1076 133.464 88.0612 133.444C88.0149 133.424 87.9648 133.413 87.9141 133.413C87.8635 133.413 87.8134 133.424 87.767 133.444C87.7207 133.464 87.6791 133.494 87.6449 133.532C87.6107 133.569 87.5847 133.613 87.5685 133.661C87.5523 133.709 87.5462 133.76 87.5507 133.81V161.376L82.5577 166.843C82.4886 166.92 82.4507 167.021 82.4516 167.125V177.445C82.4501 177.495 82.4583 177.544 82.4758 177.59C82.4933 177.636 82.5198 177.678 82.5537 177.714C82.5876 177.75 82.6283 177.779 82.6733 177.799C82.7184 177.82 82.7671 177.831 82.8164 177.832Z" fill="white"/>
<path d="M155.703 104.674C155.75 104.673 155.795 104.663 155.838 104.644C155.88 104.625 155.918 104.598 155.949 104.563L164.484 95.1584L193.659 95.6744C193.706 95.6724 193.752 95.6611 193.794 95.641C193.837 95.621 193.875 95.5927 193.906 95.5577C193.938 95.5228 193.962 95.482 193.977 95.4376C193.993 95.3933 193.999 95.3463 193.996 95.2994V84.998C194.001 84.9021 193.969 84.808 193.906 84.7354C193.843 84.6628 193.754 84.6173 193.659 84.6084C193.612 84.6104 193.566 84.6218 193.523 84.6418C193.481 84.6619 193.443 84.6902 193.411 84.7251C193.38 84.76 193.356 84.8009 193.341 84.8452C193.325 84.8896 193.319 84.9366 193.322 84.9834V94.9055L164.342 94.3851C164.296 94.3848 164.251 94.3942 164.209 94.4128C164.167 94.4313 164.129 94.4586 164.099 94.4927L155.459 104.009C155.393 104.085 155.357 104.182 155.357 104.283C155.357 104.383 155.393 104.48 155.459 104.556C155.489 104.592 155.526 104.621 155.568 104.641C155.61 104.661 155.656 104.672 155.703 104.674Z" fill="white"/>
<path d="M151.538 99.964C151.585 99.9643 151.631 99.9547 151.673 99.9356C151.716 99.9165 151.753 99.8885 151.784 99.8535L160.345 90.4503L189.604 91.0158C189.651 91.0139 189.698 91.0027 189.74 90.9827C189.783 90.9628 189.821 90.9345 189.853 90.8996C189.884 90.8646 189.908 90.8237 189.924 90.7793C189.94 90.7348 189.946 90.6877 189.943 90.6407V81.8524C189.948 81.7562 189.916 81.6617 189.853 81.589C189.789 81.5163 189.7 81.4711 189.604 81.4629C189.557 81.4645 189.511 81.4756 189.469 81.4954C189.426 81.5152 189.388 81.5433 189.356 81.5782C189.325 81.613 189.3 81.6538 189.285 81.6982C189.269 81.7425 189.263 81.7895 189.266 81.8365V90.2454L160.201 89.6756C160.155 89.6747 160.11 89.6838 160.068 89.7024C160.025 89.721 159.988 89.7485 159.957 89.7831L151.293 99.2982C151.226 99.3742 151.19 99.4715 151.19 99.5722C151.19 99.673 151.226 99.7703 151.293 99.8462C151.323 99.8822 151.36 99.9113 151.403 99.9316C151.445 99.9519 151.491 99.963 151.538 99.964Z" fill="white"/>
<path d="M152.297 89.8434C152.344 89.8438 152.39 89.8342 152.432 89.8154C152.474 89.7966 152.512 89.769 152.543 89.7344L156.199 85.7298L185.545 86.3461C185.592 86.3441 185.638 86.3327 185.681 86.3126C185.724 86.2924 185.762 86.264 185.793 86.229C185.825 86.1939 185.849 86.1529 185.865 86.1084C185.88 86.0639 185.887 86.0167 185.884 85.9696V80.9955C185.889 80.8991 185.856 80.8045 185.793 80.7315C185.73 80.6586 185.641 80.613 185.545 80.6045C185.498 80.6063 185.452 80.6176 185.409 80.6375C185.366 80.6574 185.328 80.6857 185.296 80.7206C185.264 80.7555 185.24 80.7964 185.224 80.8409C185.209 80.8853 185.202 80.9324 185.205 80.9795V85.5728L156.056 84.9536C156.01 84.9525 155.964 84.9616 155.922 84.9802C155.879 84.9988 155.841 85.0264 155.811 85.0611L152.052 89.1777C151.986 89.2534 151.949 89.3505 151.949 89.4509C151.949 89.5514 151.986 89.6485 152.052 89.7242C152.082 89.7602 152.119 89.7895 152.162 89.81C152.204 89.8306 152.25 89.8419 152.297 89.8434Z" fill="white"/>
<path d="M138.792 107.349C138.839 107.35 138.886 107.34 138.929 107.321C138.971 107.302 139.01 107.274 139.041 107.239L146.211 99.378C146.278 99.3034 146.315 99.2065 146.314 99.1062V85.5226C146.315 85.421 146.278 85.3229 146.211 85.2464L140.968 79.3042C140.938 79.2678 140.901 79.2383 140.859 79.2176C140.816 79.197 140.77 79.1858 140.723 79.1847C140.676 79.1836 140.629 79.1926 140.586 79.2112C140.543 79.2299 140.504 79.2576 140.472 79.2925C140.407 79.3689 140.37 79.4664 140.37 79.5673C140.37 79.6682 140.407 79.7657 140.472 79.842L145.617 85.6694V98.9332L138.545 106.682C138.478 106.759 138.442 106.856 138.442 106.958C138.442 107.059 138.478 107.157 138.545 107.233C138.576 107.269 138.614 107.298 138.656 107.318C138.699 107.338 138.745 107.349 138.792 107.349Z" fill="white"/>
<path d="M201.73 106.47C201.776 106.47 201.82 106.461 201.861 106.442C201.903 106.424 201.939 106.396 201.969 106.362C202.032 106.287 202.067 106.192 202.067 106.093C202.067 105.995 202.032 105.9 201.969 105.825L195.919 98.8765C195.89 98.8413 195.853 98.8127 195.812 98.7927C195.771 98.7727 195.726 98.7616 195.681 98.7602L168.47 98.3096C168.422 98.3112 168.375 98.3224 168.332 98.3425C168.289 98.3626 168.25 98.3913 168.218 98.4266C168.186 98.462 168.161 98.5035 168.146 98.5485C168.13 98.5936 168.124 98.6413 168.127 98.689C168.122 98.7858 168.155 98.8807 168.219 98.9534C168.283 99.0262 168.373 99.0711 168.47 99.0785L195.541 99.5146L201.501 106.346C201.528 106.382 201.563 106.411 201.602 106.433C201.642 106.454 201.686 106.467 201.73 106.47Z" fill="white"/>
<path d="M156.051 80.3129L182.142 80.9104C182.189 80.9087 182.236 80.8976 182.279 80.8777C182.321 80.8579 182.36 80.8296 182.391 80.7946C182.423 80.7597 182.448 80.7187 182.463 80.6742C182.479 80.6297 182.485 80.5824 182.482 80.5353C182.487 80.4388 182.455 80.3442 182.391 80.2712C182.328 80.1983 182.238 80.1528 182.142 80.1443L156.193 79.5425L149.697 72.1409C149.667 72.1046 149.63 72.0751 149.588 72.0545C149.546 72.0339 149.5 72.0227 149.453 72.0216C149.406 72.0205 149.36 72.0295 149.317 72.0481C149.274 72.0667 149.235 72.0944 149.204 72.1293C149.139 72.2057 149.103 72.3028 149.103 72.4033C149.103 72.5038 149.139 72.601 149.204 72.6773L155.805 80.1937C155.835 80.2297 155.873 80.2589 155.915 80.2794C155.957 80.3 156.004 80.3114 156.051 80.3129Z" fill="white"/>
<path d="M105.253 96.4721L119.546 96.7134C119.593 96.714 119.64 96.7044 119.683 96.6853C119.727 96.6663 119.765 96.6382 119.797 96.603L124.056 91.9821C124.124 91.9067 124.161 91.8087 124.161 91.7073V82.3202C124.165 82.2207 124.13 82.1236 124.064 82.0493C123.998 81.975 123.905 81.9293 123.806 81.9219C123.757 81.9232 123.709 81.9342 123.665 81.9543C123.621 81.9744 123.581 82.0032 123.548 82.0389C123.515 82.0747 123.489 82.1167 123.472 82.1625C123.456 82.2083 123.449 82.257 123.451 82.3056V91.5314L119.399 95.9358L105.253 95.693C105.203 95.6943 105.155 95.7054 105.11 95.7256C105.065 95.7459 105.025 95.7749 104.992 95.8109C104.958 95.8469 104.932 95.8892 104.916 95.9354C104.899 95.9815 104.891 96.0306 104.893 96.0797C104.891 96.1787 104.928 96.2747 104.994 96.3478C105.061 96.4209 105.154 96.4654 105.253 96.4721Z" fill="white"/>
<path d="M154.664 104.27C154.664 104.911 155.129 105.433 155.703 105.446C156.278 105.459 156.743 104.94 156.743 104.3C156.743 103.661 156.278 103.137 155.703 103.124C155.129 103.111 154.664 103.629 154.664 104.27Z" fill="white"/>
<path d="M151.191 98.7954C151.191 99.4379 151.658 99.9583 152.233 99.9743C152.809 99.9903 153.275 99.4713 153.275 98.8303C153.275 98.1893 152.809 97.6602 152.233 97.6515C151.658 97.6428 151.191 98.1544 151.191 98.7954Z" fill="white"/>
<path d="M151.191 89.4347C151.191 90.0757 151.658 90.5976 152.233 90.6164C152.809 90.6353 153.275 90.1164 153.275 89.4754C153.275 88.8344 152.809 88.3038 152.233 88.2922C151.658 88.2806 151.191 88.7922 151.191 89.4347Z" fill="white"/>
<path d="M167.61 98.6802C167.61 99.3184 168.073 99.8431 168.641 99.8518C169.209 99.8605 169.672 99.3518 169.672 98.7137C169.672 98.0756 169.211 97.5508 168.641 97.5421C168.071 97.5334 167.61 98.0421 167.61 98.6802Z" fill="white"/>
<path d="M200.725 106.076C200.725 106.706 201.175 107.224 201.732 107.238C202.289 107.253 202.736 106.741 202.736 106.11C202.736 105.48 202.287 104.964 201.732 104.948C201.177 104.932 200.725 105.445 200.725 106.076Z" fill="white"/>
<path d="M192.646 84.969C192.646 85.6013 193.1 86.1231 193.663 86.1318C194.227 86.1405 194.681 85.6405 194.681 85.0097C194.681 84.3788 194.227 83.8555 193.663 83.8468C193.1 83.8381 192.646 84.3367 192.646 84.969Z" fill="white"/>
<path d="M188.59 80.6725C188.59 81.3048 189.043 81.8353 189.607 81.8353C190.171 81.8353 190.625 81.3455 190.625 80.7132C190.625 80.0809 190.171 79.5503 189.607 79.543C189.043 79.5358 188.59 80.0416 188.59 80.6725Z" fill="white"/>
<path d="M184.521 80.5817C184.521 81.2169 184.977 81.7446 185.538 81.7533C186.099 81.762 186.556 81.2634 186.556 80.6282C186.556 79.993 186.101 79.4654 185.538 79.4581C184.975 79.4508 184.521 79.9465 184.521 80.5817Z" fill="white"/>
<path d="M181.122 80.5031C181.122 81.1384 181.578 81.666 182.139 81.6762C182.7 81.6864 183.157 81.1849 183.157 80.5511C183.157 79.9173 182.699 79.3883 182.139 79.3781C181.579 79.3679 181.122 79.8679 181.122 80.5031Z" fill="white"/>
<path d="M148.406 72.388C148.406 73.0305 148.874 73.5625 149.451 73.5785C150.028 73.5945 150.495 73.0843 150.495 72.4418C150.495 71.7993 150.028 71.2673 149.451 71.2513C148.874 71.2354 148.406 71.7397 148.406 72.388Z" fill="white"/>
<path d="M199.046 87.7703C199.046 88.4026 199.497 88.923 200.053 88.9332C200.61 88.9433 201.061 88.4433 201.061 87.8125C201.061 87.1816 200.61 86.6612 200.053 86.6496C199.497 86.638 199.046 87.1395 199.046 87.7703Z" fill="white"/>
<path d="M202.402 90.8822C202.402 91.5131 202.852 92.032 203.406 92.0451C203.96 92.0582 204.412 91.5538 204.412 90.9229C204.412 90.2921 203.962 89.7746 203.406 89.7601C202.851 89.7455 202.402 90.2528 202.402 90.8822Z" fill="white"/>
<path d="M205.75 93.2295C205.75 93.8589 206.199 94.3763 206.752 94.3923C207.306 94.4083 207.755 93.901 207.755 93.2716C207.755 92.6422 207.306 92.1248 206.752 92.1088C206.199 92.0928 205.75 92.5928 205.75 93.2295Z" fill="white"/>
<path d="M208.088 109.975C208.088 110.604 208.537 111.119 209.089 111.126C209.642 111.133 210.089 110.629 210.089 110.001C210.089 109.373 209.642 108.857 209.089 108.85C208.537 108.842 208.088 109.345 208.088 109.975Z" fill="white"/>
<path d="M208.088 113.772C208.088 114.4 208.537 114.914 209.089 114.921C209.642 114.929 210.089 114.421 210.089 113.793C210.089 113.165 209.642 112.651 209.089 112.644C208.537 112.636 208.088 113.142 208.088 113.772Z" fill="white"/>
<path d="M209.924 117.585C209.924 118.213 210.372 118.726 210.924 118.732C211.477 118.738 211.923 118.232 211.923 117.604C211.923 116.976 211.475 116.463 210.924 116.457C210.373 116.451 209.924 116.956 209.924 117.585Z" fill="white"/>
<path d="M209.924 121.373C209.924 122.003 210.372 122.516 210.924 122.52C211.477 122.524 211.923 122.019 211.923 121.391C211.923 120.763 211.475 120.25 210.924 120.245C210.373 120.241 209.924 120.75 209.924 121.373Z" fill="white"/>
<path d="M150.844 130.562C150.844 131.203 151.312 131.725 151.887 131.725C152.463 131.725 152.93 131.209 152.93 130.562C152.93 129.915 152.463 129.399 151.887 129.399C151.312 129.399 150.844 129.92 150.844 130.562Z" fill="white"/>
<path d="M187.91 140.883C187.91 141.516 188.364 142.03 188.928 142.031C189.492 142.033 189.945 141.519 189.945 140.886C189.945 140.252 189.49 139.739 188.928 139.737C188.365 139.736 187.91 140.249 187.91 140.883Z" fill="white"/>
<path d="M208.423 123.263C207.869 123.263 207.421 123.766 207.421 124.394C207.421 125.022 207.869 125.536 208.423 125.54C208.977 125.545 209.424 125.038 209.424 124.41C209.424 123.782 208.975 123.263 208.423 123.263Z" fill="white"/>
<path d="M205.081 123.236C204.527 123.236 204.077 123.739 204.077 124.369C204.077 124.998 204.527 125.513 205.081 125.517C205.635 125.521 206.084 125.014 206.084 124.385C206.084 123.755 205.635 123.241 205.081 123.236Z" fill="white"/>
<path d="M201.732 123.21C201.175 123.21 200.725 123.714 200.725 124.344C200.725 124.973 201.175 125.489 201.732 125.494C202.289 125.498 202.736 124.989 202.736 124.36C202.736 123.73 202.287 123.214 201.732 123.21Z" fill="white"/>
<path d="M198.375 123.185C197.819 123.185 197.367 123.689 197.367 124.32C197.367 124.951 197.819 125.467 198.375 125.471C198.932 125.475 199.384 124.967 199.384 124.336C199.384 123.705 198.931 123.189 198.375 123.185Z" fill="white"/>
<path d="M198.71 151.373C198.153 151.373 197.701 151.886 197.701 152.518C197.701 153.151 198.153 153.66 198.71 153.658C199.267 153.657 199.717 153.143 199.717 152.513C199.717 151.882 199.267 151.372 198.71 151.373Z" fill="white"/>
<path d="M195.345 151.381C194.786 151.381 194.328 151.895 194.328 152.528C194.328 153.16 194.78 153.67 195.345 153.669C195.911 153.667 196.355 153.154 196.355 152.522C196.355 151.89 195.905 151.379 195.345 151.381Z" fill="white"/>
<path d="M191.971 151.388C191.411 151.388 190.954 151.904 190.954 152.536C190.954 153.168 191.407 153.681 191.971 153.679C192.535 153.676 192.989 153.164 192.989 152.532C192.989 151.899 192.531 151.388 191.971 151.388Z" fill="white"/>
<path d="M188.59 151.396C188.029 151.396 187.572 151.912 187.572 152.546C187.572 153.18 188.029 153.692 188.59 153.69C189.151 153.689 189.607 153.173 189.607 152.54C189.607 151.908 189.149 151.395 188.59 151.396Z" fill="white"/>
<path d="M204.747 149.839C204.191 149.839 203.742 150.352 203.742 150.981C203.742 151.611 204.191 152.121 204.747 152.12C205.302 152.118 205.75 151.606 205.75 150.977C205.75 150.348 205.3 149.837 204.747 149.839Z" fill="white"/>
<path d="M208.089 150.59C207.537 150.59 207.087 151.103 207.087 151.731C207.087 152.359 207.537 152.869 208.089 152.868C208.641 152.866 209.09 152.354 209.09 151.727C209.09 151.099 208.643 150.59 208.089 150.59Z" fill="white"/>
<path d="M211.34 151.343C210.788 151.343 210.34 151.854 210.34 152.484C210.34 153.113 210.788 153.621 211.34 153.618C211.893 153.615 212.339 153.106 212.339 152.478C212.339 151.85 211.894 151.341 211.34 151.343Z" fill="white"/>
<path d="M110.272 136.645C109.679 136.645 109.198 137.171 109.198 137.822C109.198 138.473 109.679 139.002 110.272 139.004C110.865 139.005 111.344 138.477 111.344 137.826C111.344 137.175 110.871 136.647 110.272 136.645Z" fill="white"/>
<path d="M106.688 136.636C106.094 136.636 105.611 137.162 105.611 137.815C105.611 138.467 106.094 138.996 106.688 138.998C107.283 138.999 107.764 138.472 107.764 137.819C107.764 137.166 107.283 136.636 106.688 136.636Z" fill="white"/>
<path d="M103.097 136.624C102.501 136.624 102.017 137.15 102.017 137.804C102.017 138.458 102.501 138.988 103.097 138.989C103.693 138.99 104.176 138.461 104.176 137.809C104.176 137.156 103.693 136.625 103.097 136.624Z" fill="white"/>
<path d="M99.4948 136.614C98.8974 136.614 98.4133 137.142 98.4133 137.796C98.4133 138.45 98.8974 138.981 99.4948 138.982C100.092 138.984 100.576 138.454 100.576 137.8C100.576 137.146 100.092 136.616 99.4948 136.614Z" fill="white"/>
<path d="M95.8859 136.604C95.287 136.604 94.8 137.131 94.8 137.785C94.8 138.439 95.287 138.973 95.8859 138.973C96.4848 138.973 96.9688 138.445 96.9688 137.791C96.9688 137.137 96.4804 136.605 95.8859 136.604Z" fill="white"/>
<path d="M87.9112 132.62C87.308 132.62 86.8196 133.148 86.8196 133.805C86.8196 134.462 87.308 134.995 87.9112 134.997C88.5144 134.998 89.0014 134.469 89.0014 133.813C89.0014 133.158 88.513 132.623 87.9112 132.62Z" fill="white"/>
<path d="M87.1844 122.316C86.5812 122.316 86.0928 122.84 86.0928 123.497C86.0928 124.154 86.5812 124.689 87.1844 124.693C87.7876 124.697 88.2746 124.168 88.2746 123.513C88.2746 122.857 87.7862 122.321 87.1844 122.316Z" fill="white"/>
<path d="M88.2747 118.364C87.673 118.364 87.1846 118.886 87.1846 119.543C87.1846 120.2 87.673 120.735 88.2747 120.741C88.8765 120.747 89.3649 120.218 89.3649 119.562C89.3649 118.906 88.8765 118.37 88.2747 118.364Z" fill="white"/>
<path d="M85.3646 126.266C84.7613 126.266 84.2715 126.792 84.2715 127.449C84.2715 128.106 84.7613 128.641 85.3646 128.645C85.9678 128.649 86.4562 128.119 86.4562 127.462C86.4562 126.805 85.9678 126.27 85.3646 126.266Z" fill="white"/>
<path d="M90.4537 114.426C89.8519 114.426 89.365 114.946 89.365 115.602C89.365 116.257 89.8519 116.795 90.4537 116.801C91.0555 116.807 91.541 116.281 91.541 115.625C91.541 114.969 91.054 114.433 90.4537 114.426Z" fill="white"/>
<path d="M95.5238 107.813C94.925 107.813 94.4395 108.33 94.4395 108.985C94.4395 109.641 94.925 110.177 95.5238 110.184C96.1227 110.192 96.6082 109.667 96.6082 109.013C96.6082 108.359 96.1227 107.821 95.5238 107.813Z" fill="white"/>
<path d="M101.656 107.448C101.06 107.448 100.576 107.964 100.576 108.611C100.576 109.258 101.06 109.8 101.656 109.807C102.252 109.815 102.736 109.291 102.736 108.645C102.736 107.998 102.254 107.456 101.656 107.448Z" fill="white"/>
<path d="M96.2462 103.824C95.6474 103.816 95.1619 104.34 95.1619 104.987C95.1619 105.634 95.6474 106.179 96.2462 106.188C96.8451 106.197 97.3306 105.672 97.3306 105.025C97.3306 104.378 96.8451 103.833 96.2462 103.824Z" fill="white"/>
<path d="M99.54 99.5314C98.9425 99.5226 98.4585 100.044 98.4585 100.694C98.4585 101.344 98.9425 101.886 99.54 101.895C100.137 101.904 100.621 101.38 100.621 100.732C100.621 100.084 100.137 99.5415 99.54 99.5314Z" fill="white"/>
<path d="M105.252 94.8966C104.658 94.8865 104.175 95.4068 104.175 96.0595C104.175 96.7121 104.658 97.2485 105.252 97.2587C105.847 97.2689 106.329 96.7485 106.329 96.0958C106.329 95.4432 105.847 94.9068 105.252 94.8966Z" fill="white"/>
<path d="M123.807 81.1389C123.226 81.1258 122.743 81.6404 122.743 82.2887C122.743 82.937 123.22 83.4719 123.807 83.485C124.394 83.4981 124.87 82.9835 124.87 82.3352C124.87 81.6869 124.389 81.152 123.807 81.1389Z" fill="white"/>
<path d="M128.053 78.4993C127.472 78.4862 126.992 78.9993 126.992 79.6461C126.992 80.293 127.467 80.8293 128.053 80.8424C128.639 80.8555 129.113 80.3424 129.113 79.6956C129.113 79.0487 128.639 78.5124 128.053 78.4993Z" fill="white"/>
<path d="M131.936 77.0306C131.354 77.016 130.878 77.5292 130.878 78.176C130.878 78.8228 131.352 79.3577 131.936 79.3708C132.52 79.3839 132.993 78.8708 132.993 78.2254C132.993 77.58 132.52 77.0393 131.936 77.0306Z" fill="white"/>
<path d="M135.105 75.1585C134.523 75.144 134.049 75.6556 134.049 76.301C134.049 76.9464 134.522 77.4813 135.105 77.4959C135.687 77.5104 136.16 76.9973 136.16 76.3519C136.16 75.7065 135.687 75.173 135.105 75.1585Z" fill="white"/>
<path d="M140.837 78.4075C140.256 78.3944 139.786 78.9061 139.786 79.55C139.786 80.1939 140.257 80.7274 140.837 80.7405C141.417 80.7535 141.888 80.2433 141.888 79.5994C141.888 78.9555 141.417 78.422 140.837 78.4075Z" fill="white"/>
<path d="M140.837 73.7435C140.256 73.7275 139.786 74.2392 139.786 74.8831C139.786 75.5271 140.257 76.062 140.837 76.0751C141.417 76.0881 141.888 75.5794 141.888 74.9355C141.888 74.2915 141.417 73.7566 140.837 73.7435Z" fill="white"/>
<path d="M138.792 105.599C138.211 105.59 137.74 106.106 137.74 106.751C137.74 107.397 138.211 107.926 138.792 107.933C139.374 107.94 139.845 107.424 139.845 106.78C139.845 106.137 139.374 105.606 138.792 105.599Z" fill="white"/>
<path d="M113.846 150.394C113.254 150.394 112.775 150.923 112.775 151.574C112.775 152.225 113.254 152.75 113.846 152.748C114.438 152.747 114.916 152.219 114.916 151.568C114.916 150.917 114.438 150.392 113.846 150.394Z" fill="white"/>
<path d="M115.629 146.86C115.038 146.86 114.56 147.388 114.56 148.038C114.56 148.687 115.038 149.215 115.629 149.214C116.221 149.212 116.698 148.686 116.698 148.036C116.698 147.387 116.22 146.86 115.629 146.86Z" fill="white"/>
<path d="M117.411 143.33C116.83 143.33 116.343 143.856 116.343 144.506C116.343 145.156 116.823 145.682 117.411 145.682C118 145.682 118.48 145.154 118.48 144.506C118.48 143.858 118 143.33 117.411 143.33Z" fill="white"/>
<path d="M119.191 139.805C118.601 139.805 118.123 140.329 118.123 140.979C118.123 141.629 118.601 142.155 119.191 142.157C119.781 142.158 120.256 141.63 120.256 140.982C120.256 140.334 119.78 139.806 119.191 139.805Z" fill="white"/>
<path d="M157.897 156.112C157.324 156.112 156.859 156.636 156.859 157.275C156.859 157.915 157.324 158.438 157.897 158.429C158.469 158.421 158.935 157.906 158.935 157.267C158.935 156.627 158.471 156.102 157.897 156.112Z" fill="white"/>
<path d="M113.846 166.288C113.254 166.288 112.775 166.823 112.775 167.474C112.775 168.125 113.254 168.647 113.846 168.637C114.438 168.627 114.916 168.101 114.916 167.451C114.916 166.801 114.438 166.288 113.846 166.288Z" fill="white"/>
<path d="M113.487 177.09C112.895 177.09 112.416 177.629 112.416 178.28C112.416 178.932 112.895 179.452 113.487 179.443C114.079 179.435 114.558 178.904 114.558 178.253C114.558 177.602 114.08 177.083 113.487 177.09Z" fill="white"/>
<path d="M161.584 152.23C161.012 152.23 160.548 152.752 160.548 153.393C160.548 154.034 161.012 154.556 161.584 154.556C162.157 154.556 162.619 154.034 162.619 153.393C162.619 152.752 162.156 152.229 161.584 152.23Z" fill="white"/>
<path d="M164.342 152.224C163.772 152.224 163.308 152.745 163.308 153.386C163.308 154.028 163.772 154.549 164.342 154.541C164.911 154.532 165.375 154.02 165.375 153.378C165.375 152.735 164.913 152.222 164.342 152.224Z" fill="white"/>
<path d="M167.095 156.07C166.525 156.07 166.064 156.592 166.064 157.233C166.064 157.874 166.525 158.387 167.095 158.384C167.664 158.382 168.127 157.863 168.127 157.222C168.127 156.581 167.664 156.067 167.095 156.07Z" fill="white"/>
<path d="M178.736 164.464C178.171 164.464 177.719 164.987 177.719 165.627C177.719 166.266 178.177 166.775 178.736 166.771C179.296 166.766 179.754 166.247 179.754 165.608C179.754 164.968 179.302 164.46 178.736 164.464Z" fill="white"/>
<path d="M180.44 161C179.876 161 179.422 161.52 179.422 162.163C179.422 162.805 179.88 163.31 180.44 163.307C180.999 163.304 181.457 162.785 181.457 162.144C181.457 161.503 181.004 160.997 180.44 161Z" fill="white"/>
<path d="M182.142 157.542C181.578 157.542 181.125 158.061 181.125 158.696C181.125 159.331 181.581 159.844 182.142 159.84C182.703 159.836 183.16 159.321 183.16 158.686C183.16 158.051 182.705 157.539 182.142 157.542Z" fill="white"/>
<path d="M183.84 154.088C183.277 154.088 182.822 154.605 182.822 155.241C182.822 155.876 183.279 156.387 183.84 156.385C184.401 156.382 184.857 155.867 184.857 155.232C184.857 154.597 184.404 154.085 183.84 154.088Z" fill="white"/>
<path d="M111.702 193.216C111.11 193.225 110.629 193.761 110.629 194.412C110.629 195.063 111.11 195.575 111.702 195.575C112.293 195.575 112.775 195.029 112.775 194.379C112.775 193.729 112.295 193.206 111.702 193.216Z" fill="white"/>
<path d="M105.252 193.324C104.658 193.335 104.175 193.872 104.175 194.525C104.175 195.178 104.658 195.698 105.252 195.688C105.847 195.678 106.329 195.14 106.329 194.487C106.329 193.835 105.847 193.314 105.252 193.324Z" fill="white"/>
<path d="M98.7738 193.434C98.1764 193.444 97.6909 193.982 97.6909 194.636C97.6909 195.29 98.1764 195.812 98.7738 195.799C99.3713 195.786 99.8553 195.251 99.8553 194.597C99.8553 193.942 99.3713 193.424 98.7738 193.434Z" fill="white"/>
<path d="M94.0773 191.933C93.4769 191.941 92.99 192.481 92.99 193.136C92.99 193.792 93.4769 194.314 94.0773 194.299C94.6776 194.285 95.1616 193.75 95.1616 193.096C95.1616 192.442 94.6761 191.923 94.0773 191.933Z" fill="white"/>
<path d="M90.4537 189.221C89.8519 189.23 89.365 189.769 89.365 190.424C89.365 191.08 89.8519 191.605 90.4537 191.587C91.0555 191.57 91.541 191.038 91.541 190.384C91.541 189.73 91.054 189.211 90.4537 189.221Z" fill="white"/>
<path d="M86.8199 186.504C86.2181 186.513 85.7283 187.052 85.7283 187.709C85.7283 188.366 86.2181 188.891 86.8199 188.881C87.4217 188.87 87.9115 188.333 87.9115 187.676C87.9115 187.019 87.4231 186.494 86.8199 186.504Z" fill="white"/>
<path d="M84.2703 182.568C83.6671 182.568 83.1772 183.115 83.1772 183.772C83.1772 184.429 83.6671 184.957 84.2703 184.948C84.8736 184.939 85.3634 184.4 85.3634 183.743C85.3634 183.086 84.875 182.568 84.2703 182.568Z" fill="white"/>
<path d="M82.8165 176.244C82.2118 176.244 81.7219 176.789 81.7219 177.448C81.7219 178.106 82.2118 178.632 82.8165 178.625C83.4212 178.618 83.9096 178.08 83.9096 177.423C83.9096 176.766 83.4182 176.238 82.8165 176.244Z" fill="white"/>
<path d="M156.859 127.501L191.971 127.717C192.066 127.712 192.155 127.669 192.218 127.598C192.282 127.526 192.314 127.433 192.308 127.338C192.314 127.243 192.282 127.149 192.219 127.077C192.156 127.005 192.067 126.961 191.971 126.954L156.859 126.728C156.811 126.73 156.764 126.741 156.72 126.762C156.677 126.783 156.638 126.812 156.606 126.847C156.574 126.883 156.549 126.925 156.533 126.97C156.517 127.015 156.51 127.063 156.513 127.111C156.508 127.209 156.541 127.304 156.606 127.377C156.671 127.45 156.761 127.494 156.859 127.501Z" fill="white"/>
<path d="M190.962 127.333C190.962 127.965 191.416 128.481 191.98 128.484C192.544 128.487 192.997 127.978 192.997 127.346C192.997 126.714 192.544 126.198 191.98 126.193C191.416 126.189 190.962 126.695 190.962 127.333Z" fill="white"/>
<path d="M155.819 127.106C155.819 127.747 156.284 128.269 156.859 128.269C157.433 128.269 157.896 127.756 157.896 127.115C157.896 126.474 157.433 125.952 156.859 125.952C156.284 125.952 155.819 126.461 155.819 127.106Z" fill="white"/>
<path d="M51.8775 216.037C47.8381 215.842 44.489 212.191 44.412 207.888C44.335 203.586 47.5692 200.223 51.6217 200.418C55.6743 200.613 59.0248 204.283 59.0887 208.593C59.1527 212.903 55.9257 216.23 51.8775 216.037ZM51.677 203.777C49.3643 203.667 47.5183 205.58 47.5604 208.039C47.6026 210.499 49.5155 212.583 51.8238 212.691C54.132 212.798 55.9781 210.894 55.9403 208.436C55.9025 205.978 53.9896 203.888 51.677 203.777Z" fill="url(#paint1_linear)"/>
<path d="M87.135 224.385C83.0999 224.192 79.7828 220.551 79.7378 216.263C79.6927 211.975 82.9502 208.623 86.9969 208.818C91.0437 209.012 94.3636 212.671 94.3941 216.966C94.4247 221.262 91.1687 224.576 87.135 224.385ZM87.0274 212.167C84.7177 212.055 82.8586 213.962 82.8818 216.414C82.9051 218.866 84.8006 220.943 87.1059 221.054C89.4113 221.164 91.269 219.264 91.2501 216.815C91.2312 214.366 89.3357 212.277 87.0318 212.167H87.0274Z" fill="url(#paint2_linear)"/>
<path d="M121.855 200.335C117.798 200.14 114.489 196.461 114.476 192.127C114.463 187.792 117.765 184.404 121.835 184.599C125.905 184.794 129.216 188.491 129.215 192.835C129.213 197.178 125.912 200.53 121.855 200.335ZM121.839 187.98C119.514 187.868 117.633 189.795 117.639 192.274C117.644 194.752 119.528 196.852 121.854 196.964C124.18 197.076 126.056 195.153 126.056 192.678C126.056 190.202 124.162 188.092 121.839 187.984V187.98Z" fill="url(#paint3_linear)"/>
<path d="M125.303 247.042C121.288 246.85 118.013 243.242 118.005 238.993C117.996 234.745 121.265 231.426 125.294 231.619C129.324 231.813 132.599 235.439 132.594 239.694C132.59 243.949 129.321 247.235 125.303 247.042ZM125.303 234.938C123.004 234.827 121.137 236.716 121.14 239.145C121.143 241.573 123.014 243.632 125.307 243.742C127.601 243.853 129.469 241.97 129.47 239.544C129.472 237.118 127.595 235.043 125.297 234.938H125.303Z" fill="url(#paint4_linear)"/>
<path d="M71.5455 269.986L68.4377 269.837L68.0932 243.274L51.8743 212.399L54.5997 210.907L71.2097 242.57L71.5455 269.986Z" fill="url(#paint5_linear)"/>
<path d="M89.9887 270.872L86.8795 270.722L86.4507 222.69L89.5904 222.84L89.9887 270.872Z" fill="url(#paint6_linear)"/>
<path d="M108.43 271.757L105.322 271.609L105.167 240.104L120.303 215.844L120.274 198.577L123.432 198.728L123.45 216.981L108.301 241.229L108.43 271.757Z" fill="url(#paint7_linear)"/>
<path d="M126.873 272.643L123.764 272.493L123.739 244.785L126.866 244.936L126.873 272.643Z" fill="url(#paint8_linear)"/>
<path d="M209.667 282.574C209.667 278.728 212.815 275.463 216.68 275.296C220.545 275.129 223.67 278.113 223.67 281.946C223.67 285.779 220.538 289.044 216.68 289.224C212.822 289.404 209.667 286.426 209.667 282.574ZM220.674 282.081C220.678 281.565 220.575 281.053 220.373 280.578C220.171 280.103 219.873 279.674 219.499 279.318C219.125 278.962 218.681 278.687 218.197 278.509C217.712 278.331 217.196 278.255 216.68 278.284C215.61 278.339 214.601 278.798 213.857 279.57C213.114 280.342 212.692 281.367 212.678 282.439C212.675 282.956 212.778 283.468 212.98 283.944C213.183 284.419 213.481 284.848 213.856 285.204C214.231 285.56 214.676 285.835 215.161 286.013C215.647 286.19 216.164 286.266 216.68 286.235C217.748 286.179 218.754 285.72 219.496 284.95C220.238 284.179 220.659 283.156 220.674 282.087V282.081Z" fill="url(#paint9_linear)"/>
<path d="M203.638 316.407C203.638 312.555 206.796 309.261 210.67 309.063C214.544 308.865 217.681 311.825 217.681 315.67C217.681 319.514 214.539 322.801 210.67 323.01C206.801 323.219 203.638 320.257 203.638 316.407ZM214.675 315.825C214.678 315.309 214.575 314.798 214.371 314.323C214.168 313.849 213.869 313.422 213.494 313.068C213.118 312.714 212.673 312.441 212.187 312.267C211.702 312.093 211.185 312.02 210.67 312.055C208.459 312.168 206.658 314.049 206.658 316.247C206.655 316.763 206.759 317.275 206.963 317.75C207.166 318.225 207.466 318.652 207.842 319.006C208.219 319.36 208.664 319.633 209.151 319.807C209.637 319.98 210.155 320.052 210.67 320.017C212.88 319.901 214.675 318.02 214.675 315.827V315.825Z" fill="url(#paint10_linear)"/>
<path d="M226.746 348.198C226.746 344.368 229.871 341.076 233.706 340.845C237.54 340.614 240.642 343.547 240.642 347.366C240.642 351.184 237.533 354.488 233.706 354.719C229.879 354.95 226.746 352.03 226.746 348.198ZM237.668 347.544C237.674 347.033 237.573 346.527 237.372 346.057C237.172 345.587 236.876 345.163 236.504 344.814C236.131 344.464 235.691 344.195 235.209 344.024C234.727 343.853 234.215 343.785 233.706 343.822C232.638 343.896 231.637 344.369 230.902 345.147C230.167 345.924 229.75 346.95 229.735 348.02C229.729 348.531 229.83 349.039 230.031 349.509C230.232 349.98 230.529 350.403 230.902 350.753C231.276 351.103 231.718 351.372 232.2 351.542C232.683 351.712 233.196 351.781 233.706 351.742C234.771 351.666 235.769 351.192 236.503 350.416C237.236 349.64 237.652 348.617 237.668 347.549V347.544Z" fill="url(#paint11_linear)"/>
<path d="M184.558 353.991C184.558 350.123 187.742 346.789 191.651 346.558C195.56 346.327 198.721 349.277 198.721 353.132C198.721 356.987 195.552 360.322 191.651 360.564C187.75 360.807 184.558 357.861 184.558 353.991ZM195.691 353.315C195.691 351.113 193.879 349.43 191.651 349.564C189.423 349.697 187.604 351.599 187.604 353.807C187.604 356.015 189.42 357.696 191.651 357.56C193.882 357.423 195.691 355.519 195.691 353.315Z" fill="url(#paint12_linear)"/>
<path d="M160.702 303.08V300.054L185.5 298.857L212.947 282.487L214.407 285.035L186.289 301.829L160.702 303.08Z" fill="url(#paint13_linear)"/>
<path d="M160.702 321.037V318.011L205.149 315.687V318.682L160.702 321.037Z" fill="url(#paint14_linear)"/>
<path d="M160.702 338.993V335.967L190.064 334.314L212.805 347.539L228.242 346.619V349.599L211.918 350.583L189.167 337.371L160.702 338.993Z" fill="url(#paint15_linear)"/>
<path d="M160.702 356.951V353.924L186.572 352.363V355.372L160.702 356.951Z" fill="url(#paint16_linear)"/>
<path d="M145.362 395.112L51.3686 401.631C39.1586 402.479 29.1987 393.656 29.1987 381.919V289.484C29.1987 277.748 39.1513 267.836 51.3686 267.349L145.362 263.596C157.019 263.131 166.425 271.984 166.425 283.364V373.032C166.425 384.422 157.019 394.304 145.362 395.112Z" fill="url(#paint17_linear)"/>
<path style="mix-blend-mode:multiply" opacity="0.3" d="M104.286 355.792C92.8027 341.521 104.367 330.79 92.1399 314.526C77.4312 294.954 53.4487 300.717 43.9757 282.809C41.8855 278.859 40.9741 274.613 40.836 270.323C33.9127 274.197 29.1987 281.411 29.1987 289.483V381.918C29.1987 393.655 39.1513 402.478 51.3686 401.63L145.362 395.111C154.702 394.463 162.581 387.989 165.351 379.591C148.935 362.791 120.235 375.611 104.286 355.792Z" fill="url(#paint18_linear)"/>
<path d="M129.514 372.867L67.7723 376.828C60.2224 377.312 54.0825 371.81 54.0825 364.538V304.143C54.0825 296.875 60.2224 290.698 67.7723 290.358L129.514 287.57C136.837 287.24 142.755 292.755 142.755 299.886V359.104C142.755 366.236 136.837 372.405 129.514 372.867Z" fill="url(#paint19_linear)"/>
<g opacity="0.61">
<path opacity="0.61" d="M77.1706 347.592L74.1327 358.322C73.5106 360.521 71.4654 362.143 69.1324 362.286L66.5974 362.44C63.1001 362.654 60.5941 359.552 61.6174 356.272L76.0514 310.049C76.7171 307.918 78.726 306.386 80.9935 306.27L90.3458 305.813C92.6003 305.703 94.5903 307.024 95.2575 309.072L109.686 353.389C110.703 356.515 108.249 359.899 104.806 360.108L101.753 360.294C99.4917 360.44 97.496 359.117 96.8433 357.056L93.5495 346.643L77.1706 347.592ZM91.6889 337.417L88.132 325.901C87.1145 322.679 86.097 318.634 85.2482 315.401L85.0795 315.41C84.2292 318.731 83.3803 322.957 82.4457 326.204L79.0443 338.123L91.6889 337.417Z" fill="white"/>
<path opacity="0.61" d="M132.03 308.71V353.518C132.03 356.242 129.767 358.587 126.971 358.758L124.355 358.918C121.554 359.088 119.279 357.012 119.279 354.283V309.347C119.279 306.616 121.554 304.291 124.355 304.155L126.971 304.027C129.767 303.89 132.03 305.988 132.03 308.71Z" fill="white"/>
</g>
<path d="M399.592 396.007C399.442 396.007 399.298 395.947 399.192 395.841C399.086 395.734 399.026 395.59 399.025 395.44V211.136C399.033 210.991 399.096 210.854 399.201 210.754C399.306 210.654 399.446 210.598 399.592 210.598C399.737 210.598 399.877 210.654 399.982 210.754C400.088 210.854 400.15 210.991 400.158 211.136V395.44C400.158 395.59 400.098 395.734 399.992 395.84C399.886 395.947 399.742 396.007 399.592 396.007Z" fill="#BFC8D6"/>
<path d="M349.938 384.429C349.788 384.429 349.644 384.369 349.538 384.262C349.432 384.156 349.373 384.012 349.373 383.862V206.488C349.38 206.343 349.443 206.206 349.548 206.106C349.654 206.006 349.793 205.95 349.939 205.95C350.084 205.95 350.224 206.006 350.329 206.106C350.435 206.206 350.498 206.343 350.505 206.488V383.862C350.505 384.012 350.445 384.157 350.339 384.263C350.233 384.369 350.088 384.429 349.938 384.429Z" fill="#BFC8D6"/>
<path d="M235.142 392.689C235.051 392.688 234.962 392.666 234.881 392.624C234.801 392.581 234.731 392.521 234.679 392.446C234.627 392.372 234.594 392.286 234.582 392.196C234.57 392.106 234.579 392.014 234.61 391.928L300.985 209.038C301.038 208.901 301.144 208.789 301.279 208.728C301.414 208.667 301.567 208.661 301.706 208.712C301.845 208.762 301.959 208.865 302.023 208.998C302.087 209.132 302.097 209.285 302.05 209.425L235.674 392.319C235.634 392.428 235.561 392.521 235.466 392.587C235.371 392.653 235.258 392.689 235.142 392.689Z" fill="#BFC8D6"/>
<path d="M284.137 407C284.048 407 283.961 406.978 283.882 406.938C283.803 406.898 283.735 406.84 283.682 406.769C283.63 406.697 283.594 406.615 283.579 406.528C283.564 406.44 283.57 406.351 283.596 406.266L343.168 213.441C343.19 213.37 343.225 213.304 343.273 213.247C343.32 213.189 343.379 213.142 343.444 213.107C343.51 213.073 343.582 213.051 343.656 213.044C343.73 213.038 343.805 213.045 343.876 213.067C343.947 213.089 344.013 213.125 344.07 213.172C344.127 213.22 344.174 213.278 344.209 213.344C344.244 213.41 344.265 213.481 344.272 213.555C344.279 213.629 344.271 213.704 344.249 213.775L284.683 406.6C284.647 406.717 284.575 406.819 284.476 406.891C284.378 406.963 284.259 407.001 284.137 407Z" fill="#BFC8D6"/>
<path d="M350.485 206.306L400.294 209.992V211.113L343.369 213.664L300.822 208.451V207.33L350.485 206.306Z" fill="#97A6B7"/>
<path d="M350.485 205.186L400.294 209.993L343.369 212.544L300.822 207.331L350.485 205.186Z" fill="#D8DEE8"/>
<path d="M297.031 365.282C296.982 365.282 296.933 365.276 296.885 365.263L249.46 352.822C249.314 352.783 249.19 352.689 249.115 352.559C249.039 352.429 249.018 352.274 249.057 352.129C249.096 351.983 249.19 351.859 249.32 351.784C249.45 351.708 249.605 351.687 249.75 351.726L297.176 364.169C297.31 364.203 297.427 364.285 297.505 364.399C297.582 364.514 297.615 364.653 297.598 364.79C297.58 364.927 297.512 365.053 297.408 365.144C297.303 365.234 297.169 365.284 297.031 365.282Z" fill="#BFC8D6"/>
<path d="M310.465 321.635C310.432 321.635 310.399 321.632 310.366 321.626L263.821 313.389C263.747 313.377 263.676 313.35 263.613 313.31C263.549 313.27 263.494 313.218 263.451 313.157C263.407 313.096 263.377 313.027 263.36 312.953C263.344 312.88 263.342 312.805 263.355 312.731C263.368 312.657 263.396 312.586 263.437 312.523C263.477 312.46 263.53 312.406 263.591 312.363C263.653 312.321 263.723 312.291 263.796 312.275C263.869 312.259 263.945 312.259 264.019 312.273L310.564 320.514C310.703 320.539 310.828 320.615 310.915 320.728C311.001 320.84 311.042 320.981 311.029 321.122C311.017 321.263 310.952 321.395 310.848 321.49C310.743 321.586 310.607 321.639 310.465 321.639V321.635Z" fill="#BFC8D6"/>
<path d="M324.434 276.583H324.361L279.315 270.776C279.17 270.752 279.041 270.673 278.953 270.555C278.866 270.437 278.828 270.29 278.846 270.145C278.865 269.999 278.94 269.867 279.054 269.775C279.169 269.683 279.314 269.639 279.46 269.653L324.506 275.46C324.647 275.48 324.776 275.553 324.866 275.663C324.956 275.774 325.001 275.914 324.992 276.057C324.983 276.199 324.92 276.333 324.817 276.431C324.714 276.529 324.578 276.585 324.435 276.588L324.434 276.583Z" fill="#BFC8D6"/>
<path d="M333.385 245.319C333.355 245.321 333.326 245.321 333.296 245.319L290.943 238.692C290.868 238.683 290.795 238.659 290.728 238.621C290.662 238.583 290.604 238.532 290.558 238.472C290.512 238.411 290.479 238.341 290.46 238.268C290.442 238.194 290.438 238.117 290.45 238.041C290.462 237.966 290.489 237.894 290.529 237.829C290.57 237.765 290.623 237.709 290.685 237.665C290.748 237.621 290.818 237.591 290.893 237.575C290.967 237.559 291.044 237.558 291.119 237.573L333.472 244.2C333.612 244.223 333.739 244.297 333.827 244.409C333.915 244.521 333.958 244.662 333.947 244.803C333.936 244.945 333.872 245.078 333.768 245.175C333.664 245.271 333.527 245.326 333.385 245.326V245.319Z" fill="#BFC8D6"/>
<path d="M339.126 204.216C339.126 204.216 329.95 208.386 329.8 209.052C329.65 209.718 335.702 208.83 338.171 208.926C340.641 209.022 342.677 208.291 342.451 207.245C342.224 206.2 341.362 203.566 341.362 203.566L339.126 204.216Z" fill="url(#paint20_linear)"/>
<path d="M338.791 200.832L339.349 204.963C339.349 204.963 340.802 205.481 341.778 204.869L342.193 200.338L338.791 200.832Z" fill="url(#paint21_linear)"/>
<path d="M382.004 200.932L383.071 202.645C383.218 202.881 383.316 203.145 383.358 203.42C383.4 203.695 383.385 203.975 383.315 204.244C382.942 205.669 382.196 208.445 381.872 209.169C381.429 210.156 375.491 210.742 375.491 210.742C375.491 210.742 374.962 209.996 376.194 209.096C377.427 208.197 378.219 208.056 378.655 206.727C379.091 205.398 379.382 201.64 379.382 201.64L382.004 200.932Z" fill="url(#paint22_linear)"/>
<path d="M377.561 196.577C377.952 196.888 379.859 202.682 379.859 202.682C379.859 202.682 380.475 203.473 381.648 202.307C382.821 201.141 382.179 201.785 382.179 201.785L381.962 196.087L377.561 196.577Z" fill="url(#paint23_linear)"/>
<path d="M333.743 117.83C333.259 130.154 333.238 143.544 333.948 157.847C334.746 173.954 336.35 188.84 338.372 202.335C339.124 202.36 339.915 202.364 340.739 202.335C341.296 202.319 341.836 202.292 342.358 202.257C343.692 198.698 344.827 195.067 345.758 191.382C346.812 187.192 347.604 182.94 348.132 178.651C349.899 164.696 347.828 163.475 349.261 153.13C350.532 143.973 352.338 143.611 354.458 130.6C356.759 116.486 355.039 114.369 354.213 113.603C350.668 110.357 342.341 112.574 333.743 117.83Z" fill="url(#paint24_linear)"/>
<path style="mix-blend-mode:multiply" opacity="0.3" d="M354.213 113.614C350.832 110.509 343.099 112.389 334.932 117.129C344.328 127.28 345.351 133.867 344.224 138.14C342.952 142.969 339.082 144.36 339.096 149.641C339.115 156.129 344.971 157.849 344.846 164.716C344.765 169.257 342.191 169.21 341.583 174.818C340.864 181.454 344.226 183.742 343.137 188.65C342.669 190.762 341.332 193.523 337.523 196.366C337.798 198.382 338.079 200.378 338.372 202.337C339.124 202.36 339.914 202.365 340.739 202.337C341.295 202.321 341.836 202.293 342.358 202.259C343.692 198.7 344.827 195.069 345.758 191.384C346.811 187.194 347.604 182.941 348.132 178.653C349.898 164.698 347.828 163.477 349.261 153.132C350.531 143.975 352.338 143.613 354.457 130.602C356.758 116.496 355.046 114.38 354.213 113.614Z" fill="url(#paint25_linear)"/>
<path d="M339.562 117.624C356.536 142.448 369.351 169.872 377.5 198.819C378.345 199.213 379.284 199.358 380.208 199.239C381.396 199.07 382.484 198.482 383.277 197.582C384.322 191.086 384.558 184.486 383.98 177.931C383.703 174.803 383.211 169.594 381.218 163.162C378.984 155.958 377.449 155.552 374.532 147.931C371.509 140.019 372.241 138.047 369.344 128.145C367.601 122.213 365.44 116.412 362.876 110.785L339.562 117.624Z" fill="url(#paint26_linear)"/>
<path d="M302.21 132.648C303.766 135.067 309.121 134.785 312.778 133.477C321.331 130.424 326.803 119.543 327.285 110.888C327.388 109.031 327.322 107.214 327.699 107.158C328.646 107.013 331.078 118.255 332.988 127.78C334.523 128.343 336.85 128.943 339.51 128.507C343.871 127.795 344.381 125.09 349.249 123.327C352.09 122.297 354.873 122.296 360.442 122.29C366.726 122.29 366.899 123.061 368.11 122.498C368.301 122.391 368.487 122.275 368.666 122.149C373.142 118.937 360.339 94.5182 364.025 71.9878C364.435 69.4833 365.063 66.912 363.665 64.406C360.049 57.9274 345.765 57.0146 336.919 61.2779C334.494 62.4408 330.431 65.002 326.803 67.6969C325.35 68.7725 323.845 69.9775 322.273 71.3526C318.457 74.6842 315.8 77.0041 313.612 80.2194C304.788 93.2042 314.986 104.025 306.981 120.629C304.224 126.338 300.581 130.113 302.21 132.648Z" fill="url(#paint27_linear)"/>
<path d="M325.937 58.9326C325.937 58.9326 328.235 61.5418 330.703 62.8936C332.936 64.1146 337.855 62.0563 338.989 61.8151C340.122 61.5738 338.76 64.6379 336.613 66.7572C334.466 68.8765 327.369 73.6995 325.454 73.7809C323.54 73.8623 325.762 72.1819 326.937 70.2327C328.111 68.2834 326.456 64.244 324.973 63.0012C323.491 61.7584 325.937 58.9326 325.937 58.9326Z" fill="#EF8F6A"/>
<path d="M305.649 132.565C305.649 132.565 302.348 134.141 300.012 134.473C297.676 134.804 297.168 136.669 297.816 137.353C298.464 138.038 302.177 137.29 303.425 136.589C304.674 135.888 305.649 132.565 305.649 132.565Z" fill="url(#paint28_linear)"/>
<path d="M320.658 60.9741C318.051 60.7764 315.417 57.5655 315.949 56.1642C316.095 55.7631 316.439 55.7006 321.543 54.856C324.078 54.4389 325.344 54.2746 326.22 54.9665C326.786 55.4631 327.168 56.1361 327.303 56.8765C327.372 57.2471 327.375 57.7574 327.311 58.7734C327.255 59.6761 327.271 59.6368 327.248 59.9028C327.191 60.5424 327.017 61.6689 326.393 63.2286C326.075 62.8793 325.728 62.5578 325.356 62.2678C324.87 61.8912 324.339 61.5781 323.774 61.336C322.48 60.8186 321.504 61.0381 320.658 60.9741Z" fill="url(#paint29_linear)"/>
<path d="M327.345 61.4935C327.345 61.4935 327.23 63.9878 324.874 65.0823C322.769 66.0635 319.976 61.6694 320.745 59.9948C321 59.4352 321.794 58.832 322.608 58.6372C323.088 58.5253 323.325 58.6212 324.105 58.425C324.832 58.2433 324.966 58.0747 325.245 58.1343C325.592 58.204 326.037 58.5994 326.369 60.1504C326.542 59.5457 326.924 59.1401 327.338 59.1154C327.485 59.1144 327.629 59.1541 327.754 59.2303C328.325 59.5966 328.217 60.5138 327.345 61.4935Z" fill="#EF8F6A"/>
<path d="M245.893 94.1374L386.566 97.7568C387.39 97.7786 388.054 98.6406 388.054 99.6842V131.339C388.054 132.382 387.39 133.246 386.566 133.269L245.893 137.09C244.687 137.122 243.706 136.121 243.706 134.853V96.3715C243.706 95.1098 244.687 94.1069 245.893 94.1374Z" fill="url(#paint30_linear)"/>
<g style="mix-blend-mode:soft-light" opacity="0.48">
<path d="M249.657 98.3773L383.968 101.139C384.726 101.155 385.341 101.944 385.341 102.904V128.117C385.341 129.077 384.726 129.862 383.968 129.884L249.657 132.844C248.563 132.868 247.673 131.952 247.673 130.796V100.428C247.673 99.2785 248.563 98.3555 249.657 98.3773Z" fill="white"/>
</g>
<path d="M262.904 115.429C262.904 120.38 261.513 123.783 258.658 123.788C255.764 123.788 254.488 120.065 254.471 115.52C254.471 110.868 255.85 107.201 258.744 107.211C261.737 107.221 262.904 111.044 262.904 115.429ZM257.109 115.522C257.092 119.2 257.712 120.952 258.728 120.95C259.744 120.949 260.294 119.126 260.294 115.476C260.294 111.925 259.76 110.05 258.711 110.047C257.747 110.045 257.092 111.796 257.109 115.522Z" fill="#F4F7FA"/>
<path d="M272.406 115.436C272.406 120.378 271.022 123.766 268.19 123.771C265.312 123.771 264.043 120.058 264.027 115.528C264.027 110.898 265.398 107.232 268.276 107.242C271.244 107.252 272.406 111.065 272.406 115.436ZM266.644 115.53C266.626 119.196 267.243 120.944 268.253 120.942C269.263 120.941 269.81 119.122 269.81 115.484C269.81 111.945 269.279 110.074 268.235 110.071C267.275 110.069 266.626 111.814 266.644 115.53Z" fill="#F4F7FA"/>
<path d="M276.99 110.855H276.957L274.845 112.298L274.419 109.499L277.348 107.545L279.49 107.552V123.482H276.99V110.855Z" fill="#F4F7FA"/>
<path d="M286.408 110.878H286.375L284.276 112.317L283.852 109.526L286.759 107.578L288.89 107.585V123.469H286.404L286.408 110.878Z" fill="#F4F7FA"/>
<path d="M300.572 115.463C300.572 120.357 299.214 123.719 296.426 123.724C293.599 123.724 292.356 120.045 292.336 115.553C292.336 110.964 293.683 107.332 296.511 107.342C299.432 107.352 300.572 111.13 300.572 115.463ZM294.912 115.556C294.896 119.19 295.502 120.921 296.493 120.92C297.485 120.918 298.022 119.116 298.022 115.509C298.022 112.002 297.502 110.147 296.477 110.146C295.535 110.143 294.893 111.873 294.912 115.559V115.556Z" fill="#F4F7FA"/>
<path d="M305.079 110.921H305.044L302.969 112.35L302.551 109.576L305.429 107.639H307.534V123.436H305.079V110.921Z" fill="#F4F7FA"/>
<path d="M314.33 110.944H314.297L312.234 112.37L311.818 109.608L314.679 107.678H316.772V123.423H314.33V110.944Z" fill="#F4F7FA"/>
<path d="M328.246 115.486C328.246 120.337 326.912 123.67 324.176 123.674C321.399 123.674 320.175 120.029 320.157 115.577C320.157 111.028 321.483 107.428 324.259 107.437C327.126 107.447 328.246 111.197 328.246 115.486ZM322.685 115.579C322.669 119.181 323.266 120.897 324.239 120.897C325.211 120.897 325.74 119.109 325.74 115.533C325.74 112.056 325.229 110.219 324.221 110.216C323.297 110.213 322.669 111.924 322.685 115.579Z" fill="#F4F7FA"/>
<path d="M332.672 110.986H332.639L330.604 112.403L330.192 109.655L333.02 107.734H335.088V123.394H332.675L332.672 110.986Z" fill="#F4F7FA"/>
<path d="M346.428 115.505C346.428 120.327 345.108 123.645 342.4 123.645C339.656 123.645 338.445 120.02 338.429 115.594C338.429 111.072 339.737 107.492 342.481 107.502C345.32 107.512 346.428 111.235 346.428 115.505ZM340.93 115.597C340.914 119.177 341.502 120.884 342.465 120.882C343.429 120.881 343.951 119.106 343.951 115.55C343.951 112.094 343.445 110.267 342.449 110.265C341.535 110.262 340.914 111.967 340.93 115.597Z" fill="#F4F7FA"/>
<path d="M350.802 111.03H350.77L348.755 112.439L348.348 109.704L351.143 107.796L353.187 107.803V123.356H350.802V111.03Z" fill="#F4F7FA"/>
<path d="M359.789 111.053H359.755L357.752 112.459L357.348 109.733L360.127 107.829H362.162V123.35H359.792L359.789 111.053Z" fill="#F4F7FA"/>
<path d="M368.723 111.072H368.691L366.7 112.473L366.297 109.755L369.059 107.856H371.079V123.336H368.721L368.723 111.072Z" fill="#F4F7FA"/>
<path d="M377.601 111.091H377.569L375.59 112.488L375.19 109.778L377.937 107.889H379.946V123.32H377.601V111.091Z" fill="#F4F7FA"/>
<path d="M383.579 111.83C387.103 110.104 394.709 105.68 397.048 97.5317C400.942 83.967 387.094 71.0287 379.944 66.1869C371.747 60.6371 363.51 59.7403 358.505 59.1952C352.294 58.5193 348.503 58.1079 345.657 60.4394C338.293 66.4689 342.719 86.3668 350.009 88.4149C352.394 89.085 353.297 87.3392 358.294 86.1342C359.922 85.7432 372.076 82.8143 378.396 89.2434C382.818 93.7495 383.383 101.807 380.261 109.343L383.579 111.83Z" fill="url(#paint31_linear)"/>
<path d="M382.867 111.297L381.002 109.898C381.002 109.898 379.832 110.708 378.402 110.598C377.621 110.537 376.586 111.006 376.354 111.253C376.121 111.5 375.034 112.096 376.589 111.941C378.145 111.785 378.395 112.218 378.178 112.996C377.962 113.774 376.663 115.948 375.998 116.415C375.332 116.881 377.23 117.191 378.007 116.908C378.783 116.624 380.027 116.104 380.934 114.42C381.27 113.806 382.867 111.297 382.867 111.297Z" fill="url(#paint32_linear)"/>
<defs>
<linearGradient id="paint0_linear" x1="225.892" y1="131.924" x2="-14.8574" y2="335.866" gradientUnits="userSpaceOnUse">
<stop stop-color="#AA80F9"/>
<stop offset="1" stop-color="#6165D7"/>
</linearGradient>
<linearGradient id="paint1_linear" x1="-12.8377" y1="205.904" x2="77.9783" y2="209.213" gradientUnits="userSpaceOnUse">
<stop stop-color="#FFC444"/>
<stop offset="1" stop-color="#F36F56"/>
</linearGradient>
<linearGradient id="paint2_linear" x1="72893.2" y1="-10905.6" x2="72773.4" y2="-20629.5" gradientUnits="userSpaceOnUse">
<stop stop-color="#FFC444"/>
<stop offset="1" stop-color="#F36F56"/>
</linearGradient>
<linearGradient id="paint3_linear" x1="70750.9" y1="-12062" x2="70628.6" y2="-21942.7" gradientUnits="userSpaceOnUse">
<stop stop-color="#FFC444"/>
<stop offset="1" stop-color="#F36F56"/>
</linearGradient>
<linearGradient id="paint4_linear" x1="74666.9" y1="-17122.1" x2="74549.2" y2="-26708.2" gradientUnits="userSpaceOnUse">
<stop stop-color="#FFC444"/>
<stop offset="1" stop-color="#F36F56"/>
</linearGradient>
<linearGradient id="paint5_linear" x1="14883.4" y1="267719" x2="15393.6" y2="229131" gradientUnits="userSpaceOnUse">
<stop stop-color="#FFC444"/>
<stop offset="1" stop-color="#F36F56"/>
</linearGradient>
<linearGradient id="paint6_linear" x1="-4780.7" y1="217404" x2="-8138.5" y2="186546" gradientUnits="userSpaceOnUse">
<stop stop-color="#FFC444"/>
<stop offset="1" stop-color="#F36F56"/>
</linearGradient>
<linearGradient id="paint7_linear" x1="16487.9" y1="331231" x2="16569.6" y2="283285" gradientUnits="userSpaceOnUse">
<stop stop-color="#FFC444"/>
<stop offset="1" stop-color="#F36F56"/>
</linearGradient>
<linearGradient id="paint8_linear" x1="-174.299" y1="125712" x2="-1156.41" y2="107747" gradientUnits="userSpaceOnUse">
<stop stop-color="#FFC444"/>
<stop offset="1" stop-color="#F36F56"/>
</linearGradient>
<linearGradient id="paint9_linear" x1="15225.1" y1="45600.4" x2="23522.9" y2="45504.7" gradientUnits="userSpaceOnUse">
<stop stop-color="#FFC444"/>
<stop offset="1" stop-color="#F36F56"/>
</linearGradient>
<linearGradient id="paint10_linear" x1="15240.3" y1="48977.6" x2="23576" y2="48881.4" gradientUnits="userSpaceOnUse">
<stop stop-color="#FFC444"/>
<stop offset="1" stop-color="#F36F56"/>
</linearGradient>
<linearGradient id="paint11_linear" x1="15235.5" y1="51548.7" x2="23445.3" y2="51453.6" gradientUnits="userSpaceOnUse">
<stop stop-color="#FFC444"/>
<stop offset="1" stop-color="#F36F56"/>
</linearGradient>
<linearGradient id="paint12_linear" x1="15280.7" y1="53013.5" x2="23729.5" y2="52916.6" gradientUnits="userSpaceOnUse">
<stop stop-color="#FFC444"/>
<stop offset="1" stop-color="#F36F56"/>
</linearGradient>
<linearGradient id="paint13_linear" x1="22553" y1="178355" x2="34972.5" y2="178299" gradientUnits="userSpaceOnUse">
<stop stop-color="#FFC444"/>
<stop offset="1" stop-color="#F36F56"/>
</linearGradient>
<linearGradient id="paint14_linear" x1="5573.81" y1="155422" x2="8807.87" y2="155418" gradientUnits="userSpaceOnUse">
<stop stop-color="#FFC444"/>
<stop offset="1" stop-color="#F36F56"/>
</linearGradient>
<linearGradient id="paint15_linear" x1="17757.3" y1="247442" x2="27539.7" y2="247415" gradientUnits="userSpaceOnUse">
<stop stop-color="#FFC444"/>
<stop offset="1" stop-color="#F36F56"/>
</linearGradient>
<linearGradient id="paint16_linear" x1="4699.25" y1="96918.5" x2="7483.98" y2="96912.8" gradientUnits="userSpaceOnUse">
<stop stop-color="#FFC444"/>
<stop offset="1" stop-color="#F36F56"/>
</linearGradient>
<linearGradient id="paint17_linear" x1="181.645" y1="190.857" x2="13.455" y2="472.576" gradientUnits="userSpaceOnUse">
<stop stop-color="#FF9085"/>
<stop offset="1" stop-color="#FB6FBB"/>
</linearGradient>
<linearGradient id="paint18_linear" x1="226303" y1="238231" x2="81305.4" y2="489954" gradientUnits="userSpaceOnUse">
<stop stop-color="#FF9085"/>
<stop offset="1" stop-color="#FB6FBB"/>
</linearGradient>
<linearGradient id="paint19_linear" x1="109697" y1="221437" x2="55662.8" y2="336595" gradientUnits="userSpaceOnUse">
<stop stop-color="#FFC444"/>
<stop offset="1" stop-color="#F36F56"/>
</linearGradient>
<linearGradient id="paint20_linear" x1="334.681" y1="189.747" x2="336.96" y2="218.759" gradientUnits="userSpaceOnUse">
<stop stop-color="#311944"/>
<stop offset="1" stop-color="#A03976"/>
</linearGradient>
<linearGradient id="paint21_linear" x1="3119.07" y1="9239.03" x2="3099.54" y2="8240.89" gradientUnits="userSpaceOnUse">
<stop stop-color="#FFC444"/>
<stop offset="1" stop-color="#F36F56"/>
</linearGradient>
<linearGradient id="paint22_linear" x1="8261.07" y1="17242.3" x2="8449.15" y2="19194.1" gradientUnits="userSpaceOnUse">
<stop stop-color="#311944"/>
<stop offset="1" stop-color="#A03976"/>
</linearGradient>
<linearGradient id="paint23_linear" x1="5474.24" y1="13003.1" x2="5446.29" y2="11586" gradientUnits="userSpaceOnUse">
<stop stop-color="#FFC444"/>
<stop offset="1" stop-color="#F36F56"/>
</linearGradient>
<linearGradient id="paint24_linear" x1="333.395" y1="157.224" x2="355.612" y2="157.224" gradientUnits="userSpaceOnUse">
<stop stop-color="#444B8C"/>
<stop offset="1" stop-color="#3E4177"/>
</linearGradient>
<linearGradient id="paint25_linear" x1="14398.7" y1="138816" x2="17559.3" y2="138816" gradientUnits="userSpaceOnUse">
<stop stop-color="#444B8C"/>
<stop offset="1" stop-color="#3E4177"/>
</linearGradient>
<linearGradient id="paint26_linear" x1="32654.5" y1="134761" x2="46416.3" y2="134761" gradientUnits="userSpaceOnUse">
<stop stop-color="#444B8C"/>
<stop offset="1" stop-color="#3E4177"/>
</linearGradient>
<linearGradient id="paint27_linear" x1="-48542.2" y1="114445" x2="-58071.4" y2="66181.5" gradientUnits="userSpaceOnUse">
<stop stop-color="#311944"/>
<stop offset="1" stop-color="#893976"/>
</linearGradient>
<linearGradient id="paint28_linear" x1="4104.24" y1="7135.51" x2="4554.75" y2="7135.51" gradientUnits="userSpaceOnUse">
<stop stop-color="#FFC444"/>
<stop offset="1" stop-color="#F36F56"/>
</linearGradient>
<linearGradient id="paint29_linear" x1="-6627.89" y1="7261.43" x2="-7540.63" y2="6354.08" gradientUnits="userSpaceOnUse">
<stop stop-color="#444B8C"/>
<stop offset="1" stop-color="#3E4177"/>
</linearGradient>
<linearGradient id="paint30_linear" x1="-173421" y1="43973.9" x2="-152103" y2="101186" gradientUnits="userSpaceOnUse">
<stop stop-color="#FF9085"/>
<stop offset="1" stop-color="#FB6FBB"/>
</linearGradient>
<linearGradient id="paint31_linear" x1="-25222.7" y1="77802.9" x2="-30974.3" y2="43599.5" gradientUnits="userSpaceOnUse">
<stop stop-color="#311944"/>
<stop offset="1" stop-color="#893976"/>
</linearGradient>
<linearGradient id="paint32_linear" x1="-3238.51" y1="9226.24" x2="-3326.4" y2="8729.86" gradientUnits="userSpaceOnUse">
<stop stop-color="#FFC444"/>
<stop offset="1" stop-color="#F36F56"/>
</linearGradient>
</defs>
</svg>
